<?xml version="1.0" encoding="UTF-8" standalone="no"?>
<!DOCTYPE svg PUBLIC "-//W3C//DTD SVG 1.1//EN"
 "http://www.w3.org/Graphics/SVG/1.1/DTD/svg11.dtd">
<!-- Generated by graphviz version 2.26.3 (20100126.1600)
 -->
<!-- Title: GG Pages: 1 -->
<svg width="1598pt" height="476pt"
 viewBox="0.00 0.00 1598.00 476.00" xmlns="http://www.w3.org/2000/svg" xmlns:xlink="http://www.w3.org/1999/xlink">
<g id="graph1" class="graph" transform="scale(1 1) rotate(0) translate(4 472)">
<title>GG</title>
<polygon fill="white" stroke="white" points="-4,5 -4,-472 1595,-472 1595,5 -4,5"/>
<!-- node87 -->
<g id="node1" class="node"><title>node87</title>
<polygon fill="none" stroke="black" points="328,-468 274,-468 274,-432 328,-432 328,-468"/>
<text text-anchor="middle" x="301" y="-446.7" font-family="Times Roman,serif" font-size="12.00">deploy</text>
</g>
<!-- node151 -->
<g id="node2" class="node"><title>node151</title>
<polygon fill="none" stroke="black" points="244,-108 190,-108 190,-72 244,-72 244,-108"/>
<text text-anchor="middle" x="217" y="-86.7" font-family="Times Roman,serif" font-size="12.00">jlib</text>
</g>
<!-- node87&#45;&gt;node151 -->
<g id="edge2" class="edge"><title>node87&#45;&gt;node151</title>
<path fill="none" stroke="black" d="M273.843,-446.981C233.394,-441.585 155.882,-427.729 98,-396 46.1437,-367.574 0,-365.136 0,-306 0,-306 0,-306 0,-234 0,-148.555 118.252,-110.79 180.169,-96.8721"/>
<polygon fill="black" stroke="black" points="180.916,-100.292 189.956,-94.7654 179.443,-93.4483 180.916,-100.292"/>
</g>
<!-- node55 -->
<g id="node12" class="node"><title>node55</title>
<polygon fill="none" stroke="black" points="197,-396 107,-396 107,-360 197,-360 197,-396"/>
<text text-anchor="middle" x="152" y="-374.7" font-family="Times Roman,serif" font-size="12.00">environment</text>
</g>
<!-- node87&#45;&gt;node55 -->
<g id="edge12" class="edge"><title>node87&#45;&gt;node55</title>
<path fill="none" stroke="black" d="M273.671,-436.794C252.663,-426.643 223.154,-412.383 198.458,-400.45"/>
<polygon fill="black" stroke="black" points="199.783,-397.203 189.257,-396.003 196.738,-403.505 199.783,-397.203"/>
</g>
<!-- node160 -->
<g id="node31" class="node"><title>node160</title>
<polygon fill="none" stroke="black" points="478,-396 424,-396 424,-360 478,-360 478,-396"/>
<text text-anchor="middle" x="451" y="-374.7" font-family="Times Roman,serif" font-size="12.00">xmllib</text>
</g>
<!-- node87&#45;&gt;node160 -->
<g id="edge40" class="edge"><title>node87&#45;&gt;node160</title>
<path fill="none" stroke="black" d="M328.164,-436.961C352.406,-425.325 388.092,-408.196 414.762,-395.394"/>
<polygon fill="black" stroke="black" points="416.285,-398.546 423.785,-391.063 413.255,-392.235 416.285,-398.546"/>
</g>
<!-- node156 -->
<g id="node40" class="node"><title>node156</title>
<polygon fill="none" stroke="black" points="1097,-396 1003,-396 1003,-360 1097,-360 1097,-396"/>
<text text-anchor="middle" x="1050" y="-374.7" font-family="Times Roman,serif" font-size="12.00">securesocket</text>
</g>
<!-- node87&#45;&gt;node156 -->
<g id="edge50" class="edge"><title>node87&#45;&gt;node156</title>
<path fill="none" stroke="black" d="M328.1,-447.395C436.739,-436.952 842.115,-397.984 992.969,-383.482"/>
<polygon fill="black" stroke="black" points="993.338,-386.963 1002.96,-382.522 992.668,-379.995 993.338,-386.963"/>
</g>
<!-- node152 -->
<g id="node4" class="node"><title>node152</title>
<polygon fill="none" stroke="black" points="95,-36 55.0564,-18 95,-3.55271e-15 134.944,-18 95,-36"/>
<text text-anchor="middle" x="95" y="-14.7" font-family="Times Roman,serif" font-size="12.00">lzma</text>
</g>
<!-- node151&#45;&gt;node152 -->
<g id="edge4" class="edge"><title>node151&#45;&gt;node152</title>
<path fill="none" stroke="black" d="M189.924,-74.0209C169.47,-61.9494 141.554,-45.4743 121.293,-33.5172"/>
<polygon fill="black" stroke="black" points="122.968,-30.4417 112.577,-28.3733 119.41,-36.4701 122.968,-30.4417"/>
</g>
<!-- node187 -->
<g id="node6" class="node"><title>node187</title>
<ellipse fill="none" stroke="black" cx="180" cy="-18" rx="27" ry="18"/>
<text text-anchor="middle" x="180" y="-14.7" font-family="Times Roman,serif" font-size="12.00">dl</text>
</g>
<!-- node151&#45;&gt;node187 -->
<g id="edge6" class="edge"><title>node151&#45;&gt;node187</title>
<path fill="none" stroke="black" d="M207.663,-71.8314C203.405,-63.5451 198.28,-53.5727 193.605,-44.4748"/>
<polygon fill="black" stroke="black" points="196.635,-42.7123 188.951,-35.4177 190.408,-45.9118 196.635,-42.7123"/>
</g>
<!-- node179 -->
<g id="node8" class="node"><title>node179</title>
<ellipse fill="none" stroke="black" cx="255" cy="-18" rx="30.0465" ry="18"/>
<text text-anchor="middle" x="255" y="-14.7" font-family="Times Roman,serif" font-size="12.00">crypt</text>
</g>
<!-- node151&#45;&gt;node179 -->
<g id="edge8" class="edge"><title>node151&#45;&gt;node179</title>
<path fill="none" stroke="black" d="M226.589,-71.8314C230.962,-63.5451 236.226,-53.5727 241.027,-44.4748"/>
<polygon fill="black" stroke="black" points="244.235,-45.8952 245.807,-35.4177 238.044,-42.6279 244.235,-45.8952"/>
</g>
<!-- node188 -->
<g id="node10" class="node"><title>node188</title>
<ellipse fill="none" stroke="black" cx="330" cy="-18" rx="27" ry="18"/>
<text text-anchor="middle" x="330" y="-14.7" font-family="Times Roman,serif" font-size="12.00">rt</text>
</g>
<!-- node151&#45;&gt;node188 -->
<g id="edge10" class="edge"><title>node151&#45;&gt;node188</title>
<path fill="none" stroke="black" d="M244.066,-72.7542C261.414,-61.7009 283.898,-47.375 301.516,-36.1494"/>
<polygon fill="black" stroke="black" points="303.679,-38.9209 310.232,-30.5955 299.918,-33.0174 303.679,-38.9209"/>
</g>
<!-- node55&#45;&gt;node151 -->
<g id="edge14" class="edge"><title>node55&#45;&gt;node151</title>
<path fill="none" stroke="black" d="M128.189,-359.777C93.4076,-330.771 35.1019,-271.677 57,-216 78.685,-160.865 140.533,-123.924 180.675,-104.981"/>
<polygon fill="black" stroke="black" points="182.241,-108.114 189.879,-100.772 179.329,-101.748 182.241,-108.114"/>
</g>
<!-- node153 -->
<g id="node15" class="node"><title>node153</title>
<polygon fill="none" stroke="black" points="217,-180 163,-180 163,-144 217,-144 217,-180"/>
<text text-anchor="middle" x="190" y="-158.7" font-family="Times Roman,serif" font-size="12.00">mp</text>
</g>
<!-- node55&#45;&gt;node153 -->
<g id="edge16" class="edge"><title>node55&#45;&gt;node153</title>
<path fill="none" stroke="black" d="M155.174,-359.955C161.797,-322.314 177.125,-235.187 185.052,-190.125"/>
<polygon fill="black" stroke="black" points="188.522,-190.6 186.808,-180.145 181.628,-189.387 188.522,-190.6"/>
</g>
<!-- node59 -->
<g id="node18" class="node"><title>node59</title>
<polygon fill="none" stroke="black" points="124,-252 66,-252 66,-216 124,-216 124,-252"/>
<text text-anchor="middle" x="95" y="-230.7" font-family="Times Roman,serif" font-size="12.00">remote</text>
</g>
<!-- node55&#45;&gt;node59 -->
<g id="edge20" class="edge"><title>node55&#45;&gt;node59</title>
<path fill="none" stroke="black" d="M144.781,-359.762C134.973,-334.985 117.353,-290.471 105.923,-261.594"/>
<polygon fill="black" stroke="black" points="109.095,-260.099 102.16,-252.09 102.587,-262.676 109.095,-260.099"/>
</g>
<!-- node66 -->
<g id="node22" class="node"><title>node66</title>
<polygon fill="none" stroke="black" points="242,-324 180,-324 180,-288 242,-288 242,-324"/>
<text text-anchor="middle" x="211" y="-302.7" font-family="Times Roman,serif" font-size="12.00">dalibase</text>
</g>
<!-- node55&#45;&gt;node66 -->
<g id="edge26" class="edge"><title>node55&#45;&gt;node66</title>
<path fill="none" stroke="black" d="M166.888,-359.831C173.753,-351.454 182.03,-341.353 189.551,-332.175"/>
<polygon fill="black" stroke="black" points="192.28,-334.366 195.911,-324.413 186.866,-329.93 192.28,-334.366"/>
</g>
<!-- node153&#45;&gt;node151 -->
<g id="edge18" class="edge"><title>node153&#45;&gt;node151</title>
<path fill="none" stroke="black" d="M196.813,-143.831C199.764,-135.962 203.286,-126.571 206.555,-117.853"/>
<polygon fill="black" stroke="black" points="209.861,-119.006 210.095,-108.413 203.307,-116.548 209.861,-119.006"/>
</g>
<!-- node59&#45;&gt;node151 -->
<g id="edge22" class="edge"><title>node59&#45;&gt;node151</title>
<path fill="none" stroke="black" d="M104.939,-215.702C115.697,-196.733 134.015,-166.73 154,-144 163.247,-133.482 174.557,-123.165 185.029,-114.413"/>
<polygon fill="black" stroke="black" points="187.292,-117.084 192.825,-108.048 182.866,-111.661 187.292,-117.084"/>
</g>
<!-- node59&#45;&gt;node153 -->
<g id="edge24" class="edge"><title>node59&#45;&gt;node153</title>
<path fill="none" stroke="black" d="M118.973,-215.831C130.786,-206.878 145.197,-195.956 157.943,-186.295"/>
<polygon fill="black" stroke="black" points="160.18,-188.992 166.035,-180.163 155.951,-183.414 160.18,-188.992"/>
</g>
<!-- node66&#45;&gt;node151 -->
<g id="edge28" class="edge"><title>node66&#45;&gt;node151</title>
<path fill="none" stroke="black" d="M242.033,-290.692C256.721,-281.642 272.807,-268.667 281,-252 303.874,-205.465 267.393,-148.59 240.808,-116.104"/>
<polygon fill="black" stroke="black" points="243.426,-113.779 234.304,-108.391 238.075,-118.292 243.426,-113.779"/>
</g>
<!-- node66&#45;&gt;node153 -->
<g id="edge30" class="edge"><title>node66&#45;&gt;node153</title>
<path fill="none" stroke="black" d="M208.34,-287.762C204.758,-263.201 198.349,-219.247 194.135,-190.354"/>
<polygon fill="black" stroke="black" points="197.545,-189.48 192.638,-180.09 190.618,-190.49 197.545,-189.48"/>
</g>
<!-- node66&#45;&gt;node59 -->
<g id="edge38" class="edge"><title>node66&#45;&gt;node59</title>
<path fill="none" stroke="black" d="M181.728,-287.831C166.891,-278.622 148.698,-267.33 132.814,-257.471"/>
<polygon fill="black" stroke="black" points="134.605,-254.463 124.262,-252.163 130.913,-260.41 134.605,-254.463"/>
</g>
<!-- node149 -->
<g id="node26" class="node"><title>node149</title>
<polygon fill="none" stroke="black" points="272,-252 218,-252 218,-216 272,-216 272,-252"/>
<text text-anchor="middle" x="245" y="-230.7" font-family="Times Roman,serif" font-size="12.00">hrpc</text>
</g>
<!-- node66&#45;&gt;node149 -->
<g id="edge32" class="edge"><title>node66&#45;&gt;node149</title>
<path fill="none" stroke="black" d="M219.58,-287.831C223.336,-279.877 227.826,-270.369 231.98,-261.572"/>
<polygon fill="black" stroke="black" points="235.2,-262.95 236.305,-252.413 228.87,-259.961 235.2,-262.95"/>
</g>
<!-- node149&#45;&gt;node151 -->
<g id="edge34" class="edge"><title>node149&#45;&gt;node151</title>
<path fill="none" stroke="black" d="M241.454,-215.762C236.657,-191.093 228.056,-146.86 222.439,-117.973"/>
<polygon fill="black" stroke="black" points="225.862,-117.238 220.517,-108.09 218.991,-118.574 225.862,-117.238"/>
</g>
<!-- node149&#45;&gt;node153 -->
<g id="edge36" class="edge"><title>node149&#45;&gt;node153</title>
<path fill="none" stroke="black" d="M231.121,-215.831C224.786,-207.539 217.162,-197.557 210.207,-188.453"/>
<polygon fill="black" stroke="black" points="212.917,-186.235 204.066,-180.413 207.355,-190.485 212.917,-186.235"/>
</g>
<!-- node160&#45;&gt;node151 -->
<g id="edge48" class="edge"><title>node160&#45;&gt;node151</title>
<path fill="none" stroke="black" d="M423.826,-368.151C403.055,-359.396 375.014,-344.75 357,-324 300.515,-258.935 336.461,-213.107 285,-144 276.088,-132.033 263.903,-121.247 252.307,-112.519"/>
<polygon fill="black" stroke="black" points="254.18,-109.554 244.024,-106.539 250.083,-115.23 254.18,-109.554"/>
</g>
<!-- node180 -->
<g id="node33" class="node"><title>node180</title>
<ellipse fill="none" stroke="black" cx="451" cy="-306" rx="85.1424" ry="18"/>
<text text-anchor="middle" x="451" y="-302.7" font-family="Times Roman,serif" font-size="12.00">/usr/lib/libxalan&#45;c.so</text>
</g>
<!-- node160&#45;&gt;node180 -->
<g id="edge42" class="edge"><title>node160&#45;&gt;node180</title>
<path fill="none" stroke="black" d="M451,-359.831C451,-352.131 451,-342.974 451,-334.417"/>
<polygon fill="black" stroke="black" points="454.5,-334.413 451,-324.413 447.5,-334.413 454.5,-334.413"/>
</g>
<!-- node181 -->
<g id="node35" class="node"><title>node181</title>
<ellipse fill="none" stroke="black" cx="647" cy="-306" rx="93.0912" ry="18"/>
<text text-anchor="middle" x="647" y="-302.7" font-family="Times Roman,serif" font-size="12.00">/usr/lib/libxalanMsg.so</text>
</g>
<!-- node160&#45;&gt;node181 -->
<g id="edge44" class="edge"><title>node160&#45;&gt;node181</title>
<path fill="none" stroke="black" d="M478.253,-367.989C507.993,-357.064 556.345,-339.302 593.685,-325.585"/>
<polygon fill="black" stroke="black" points="595.23,-328.746 603.41,-322.013 592.816,-322.176 595.23,-328.746"/>
</g>
<!-- node182 -->
<g id="node37" class="node"><title>node182</title>
<ellipse fill="none" stroke="black" cx="849" cy="-306" rx="90.9919" ry="18"/>
<text text-anchor="middle" x="849" y="-302.7" font-family="Times Roman,serif" font-size="12.00">/usr/lib/libxerces&#45;c.so</text>
</g>
<!-- node160&#45;&gt;node182 -->
<g id="edge46" class="edge"><title>node160&#45;&gt;node182</title>
<path fill="none" stroke="black" d="M478.043,-373.108C537.572,-362.339 681.802,-336.247 771.87,-319.953"/>
<polygon fill="black" stroke="black" points="772.546,-323.388 781.764,-318.163 771.3,-316.5 772.546,-323.388"/>
</g>
<!-- node156&#45;&gt;node151 -->
<g id="edge52" class="edge"><title>node156&#45;&gt;node151</title>
<path fill="none" stroke="black" d="M1028.19,-359.768C1015.96,-349.423 1000.48,-336.152 987,-324 969.718,-308.425 969.289,-299.383 949,-288 706.525,-151.964 365.951,-105.626 254.147,-93.572"/>
<polygon fill="black" stroke="black" points="254.364,-90.0756 244.053,-92.5106 253.632,-97.0372 254.364,-90.0756"/>
</g>
<!-- node191 -->
<g id="node43" class="node"><title>node191</title>
<ellipse fill="none" stroke="black" cx="1133" cy="-306" rx="137.138" ry="18"/>
<text text-anchor="middle" x="1133" y="-302.7" font-family="Times Roman,serif" font-size="12.00">/usr/lib/x86_64&#45;linux&#45;gnu/libssl.so</text>
</g>
<!-- node156&#45;&gt;node191 -->
<g id="edge54" class="edge"><title>node156&#45;&gt;node191</title>
<path fill="none" stroke="black" d="M1070.94,-359.831C1081.15,-350.981 1093.57,-340.208 1104.61,-330.631"/>
<polygon fill="black" stroke="black" points="1107.09,-333.11 1112.35,-323.913 1102.5,-327.822 1107.09,-333.11"/>
</g>
<!-- node192 -->
<g id="node45" class="node"><title>node192</title>
<ellipse fill="none" stroke="black" cx="1439" cy="-306" rx="150.937" ry="18"/>
<text text-anchor="middle" x="1439" y="-302.7" font-family="Times Roman,serif" font-size="12.00">/usr/lib/x86_64&#45;linux&#45;gnu/libcrypto.so</text>
</g>
<!-- node156&#45;&gt;node192 -->
<g id="edge56" class="edge"><title>node156&#45;&gt;node192</title>
<path fill="none" stroke="black" d="M1097.31,-369.243C1159.15,-357.797 1268.81,-337.5 1347.23,-322.986"/>
<polygon fill="black" stroke="black" points="1347.91,-326.419 1357.11,-321.157 1346.64,-319.535 1347.91,-326.419"/>
</g>
</g>
</svg>
