<?xml version="1.0" encoding="UTF-8" standalone="no"?>
<!DOCTYPE svg PUBLIC "-//W3C//DTD SVG 1.1//EN"
 "http://www.w3.org/Graphics/SVG/1.1/DTD/svg11.dtd">
<!-- Generated by graphviz version 2.26.3 (20100126.1600)
 -->
<!-- Title: GG Pages: 1 -->
<svg width="1682pt" height="620pt"
 viewBox="0.00 0.00 1682.00 620.00" xmlns="http://www.w3.org/2000/svg" xmlns:xlink="http://www.w3.org/1999/xlink">
<g id="graph1" class="graph" transform="scale(1 1) rotate(0) translate(4 616)">
<title>GG</title>
<polygon fill="white" stroke="white" points="-4,5 -4,-616 1679,-616 1679,5 -4,5"/>
<!-- node84 -->
<g id="node1" class="node"><title>node84</title>
<polygon fill="none" stroke="black" points="1065.13,-599.562 1011,-612 956.872,-599.562 956.922,-579.438 1065.08,-579.438 1065.13,-599.562"/>
<text text-anchor="middle" x="1011" y="-590.7" font-family="Times Roman,serif" font-size="12.00">saserver</text>
</g>
<!-- node179 -->
<g id="node2" class="node"><title>node179</title>
<ellipse fill="none" stroke="black" cx="219" cy="-18" rx="30.0465" ry="18"/>
<text text-anchor="middle" x="219" y="-14.7" font-family="Times Roman,serif" font-size="12.00">crypt</text>
</g>
<!-- node84&#45;&gt;node179 -->
<g id="edge2" class="edge"><title>node84&#45;&gt;node179</title>
<path fill="none" stroke="black" d="M956.92,-593.183C770.674,-590.052 162.935,-577.067 84,-540 34.4735,-516.743 3.35024e-15,-504.715 0,-450 0,-450 0,-450 0,-162 0,-76.8695 116.961,-39.2598 179.933,-25.1801"/>
<polygon fill="black" stroke="black" points="180.872,-28.5584 189.918,-23.0433 179.407,-21.7134 180.872,-28.5584"/>
</g>
<!-- node151 -->
<g id="node4" class="node"><title>node151</title>
<polygon fill="none" stroke="black" points="638,-108 584,-108 584,-72 638,-72 638,-108"/>
<text text-anchor="middle" x="611" y="-86.7" font-family="Times Roman,serif" font-size="12.00">jlib</text>
</g>
<!-- node84&#45;&gt;node151 -->
<g id="edge4" class="edge"><title>node84&#45;&gt;node151</title>
<path fill="none" stroke="black" d="M1065.26,-587.975C1223.6,-569.668 1674,-512.133 1674,-450 1674,-450 1674,-450 1674,-234 1674,-183.597 1649.58,-167.52 1605,-144 1519.19,-98.7269 819.152,-91.3293 648.438,-90.1949"/>
<polygon fill="black" stroke="black" points="648.444,-86.695 638.422,-90.1316 648.399,-93.6948 648.444,-86.695"/>
</g>
<!-- node59 -->
<g id="node13" class="node"><title>node59</title>
<polygon fill="none" stroke="black" points="232,-252 174,-252 174,-216 232,-216 232,-252"/>
<text text-anchor="middle" x="203" y="-230.7" font-family="Times Roman,serif" font-size="12.00">remote</text>
</g>
<!-- node84&#45;&gt;node59 -->
<g id="edge14" class="edge"><title>node84&#45;&gt;node59</title>
<path fill="none" stroke="black" d="M956.803,-593.666C776.624,-592.145 205.159,-583.874 136,-540 62.2272,-493.199 20.6276,-439.434 57,-360 79.0084,-311.935 129.406,-275.23 164.803,-254.155"/>
<polygon fill="black" stroke="black" points="167.004,-256.925 173.902,-248.883 163.495,-250.868 167.004,-256.925"/>
</g>
<!-- node66 -->
<g id="node19" class="node"><title>node66</title>
<polygon fill="none" stroke="black" points="428,-324 366,-324 366,-288 428,-288 428,-324"/>
<text text-anchor="middle" x="397" y="-302.7" font-family="Times Roman,serif" font-size="12.00">dalibase</text>
</g>
<!-- node84&#45;&gt;node66 -->
<g id="edge22" class="edge"><title>node84&#45;&gt;node66</title>
<path fill="none" stroke="black" d="M956.729,-587.751C801.767,-568.684 363.021,-505.767 279,-396 269.275,-383.295 270.355,-373.463 279,-360 295.839,-333.776 328.933,-320.126 355.799,-313.117"/>
<polygon fill="black" stroke="black" points="356.829,-316.47 365.743,-310.744 355.204,-309.661 356.829,-316.47"/>
</g>
<!-- node55 -->
<g id="node28" class="node"><title>node55</title>
<polygon fill="none" stroke="black" points="156,-396 66,-396 66,-360 156,-360 156,-396"/>
<text text-anchor="middle" x="111" y="-374.7" font-family="Times Roman,serif" font-size="12.00">environment</text>
</g>
<!-- node84&#45;&gt;node55 -->
<g id="edge36" class="edge"><title>node84&#45;&gt;node55</title>
<path fill="none" stroke="black" d="M956.882,-592.147C775.932,-585.741 201.545,-563.626 170,-540 127.807,-508.399 115.744,-443.607 112.324,-406.248"/>
<polygon fill="black" stroke="black" points="115.796,-405.748 111.543,-396.045 108.817,-406.283 115.796,-405.748"/>
</g>
<!-- node54 -->
<g id="node34" class="node"><title>node54</title>
<polygon fill="none" stroke="black" points="797,-468 731,-468 731,-432 797,-432 797,-468"/>
<text text-anchor="middle" x="764" y="-446.7" font-family="Times Roman,serif" font-size="12.00">dllserver</text>
</g>
<!-- node84&#45;&gt;node54 -->
<g id="edge46" class="edge"><title>node84&#45;&gt;node54</title>
<path fill="none" stroke="black" d="M985.957,-579.4C943.033,-554.375 855.079,-503.099 803.714,-473.153"/>
<polygon fill="black" stroke="black" points="805.278,-470.013 794.876,-468 801.752,-476.061 805.278,-470.013"/>
</g>
<!-- node146 -->
<g id="node41" class="node"><title>node146</title>
<polygon fill="none" stroke="black" points="1178,-396 1124,-396 1124,-360 1178,-360 1178,-396"/>
<text text-anchor="middle" x="1151" y="-374.7" font-family="Times Roman,serif" font-size="12.00">eclrtl</text>
</g>
<!-- node84&#45;&gt;node146 -->
<g id="edge84" class="edge"><title>node84&#45;&gt;node146</title>
<path fill="none" stroke="black" d="M1065.21,-581.733C1088.4,-573.705 1113.63,-560.717 1129,-540 1158.12,-500.75 1158.02,-441.011 1154.83,-406.101"/>
<polygon fill="black" stroke="black" points="1158.31,-405.69 1153.77,-396.115 1151.35,-406.428 1158.31,-405.69"/>
</g>
<!-- node147 -->
<g id="node52" class="node"><title>node147</title>
<polygon fill="none" stroke="black" points="1646,-324 1592,-324 1592,-288 1646,-288 1646,-324"/>
<text text-anchor="middle" x="1619" y="-302.7" font-family="Times Roman,serif" font-size="12.00">nbcd</text>
</g>
<!-- node84&#45;&gt;node147 -->
<g id="edge82" class="edge"><title>node84&#45;&gt;node147</title>
<path fill="none" stroke="black" d="M1065.31,-583.39C1197.31,-556.454 1529.23,-481.47 1598,-396 1612,-378.597 1616.99,-353.505 1618.62,-334.234"/>
<polygon fill="black" stroke="black" points="1622.11,-334.404 1619.22,-324.213 1615.13,-333.987 1622.11,-334.404"/>
</g>
<!-- node53 -->
<g id="node64" class="node"><title>node53</title>
<polygon fill="none" stroke="black" points="1250,-468 1190,-468 1190,-432 1250,-432 1250,-468"/>
<text text-anchor="middle" x="1220" y="-446.7" font-family="Times Roman,serif" font-size="12.00">deftype</text>
</g>
<!-- node84&#45;&gt;node53 -->
<g id="edge86" class="edge"><title>node84&#45;&gt;node53</title>
<path fill="none" stroke="black" d="M1065.01,-587.342C1100.12,-580.569 1144.97,-567.01 1176,-540 1194.66,-523.762 1206.16,-497.791 1212.71,-477.912"/>
<polygon fill="black" stroke="black" points="1216.11,-478.742 1215.69,-468.156 1209.42,-476.697 1216.11,-478.742"/>
</g>
<!-- node64 -->
<g id="node69" class="node"><title>node64</title>
<polygon fill="none" stroke="black" points="1120,-540 1052,-540 1052,-504 1120,-504 1120,-540"/>
<text text-anchor="middle" x="1086" y="-518.7" font-family="Times Roman,serif" font-size="12.00">workunit</text>
</g>
<!-- node84&#45;&gt;node64 -->
<g id="edge94" class="edge"><title>node84&#45;&gt;node64</title>
<path fill="none" stroke="black" d="M1026.18,-579.43C1035.78,-570.215 1048.44,-558.055 1059.65,-547.298"/>
<polygon fill="black" stroke="black" points="1062.33,-549.578 1067.12,-540.128 1057.48,-544.528 1062.33,-549.578"/>
</g>
<!-- node151&#45;&gt;node179 -->
<g id="edge10" class="edge"><title>node151&#45;&gt;node179</title>
<path fill="none" stroke="black" d="M583.747,-84.9943C515.535,-72.4657 337.254,-39.7201 257.977,-25.1591"/>
<polygon fill="black" stroke="black" points="258.385,-21.6755 247.917,-23.3113 257.12,-28.5603 258.385,-21.6755"/>
</g>
<!-- node152 -->
<g id="node6" class="node"><title>node152</title>
<polygon fill="none" stroke="black" points="526,-36 486.056,-18 526,-3.55271e-15 565.944,-18 526,-36"/>
<text text-anchor="middle" x="526" y="-14.7" font-family="Times Roman,serif" font-size="12.00">lzma</text>
</g>
<!-- node151&#45;&gt;node152 -->
<g id="edge6" class="edge"><title>node151&#45;&gt;node152</title>
<path fill="none" stroke="black" d="M589.551,-71.8314C576.802,-61.0326 560.673,-47.37 547.854,-36.5114"/>
<polygon fill="black" stroke="black" points="549.869,-33.6317 539.977,-29.8389 545.345,-38.9731 549.869,-33.6317"/>
</g>
<!-- node187 -->
<g id="node8" class="node"><title>node187</title>
<ellipse fill="none" stroke="black" cx="611" cy="-18" rx="27" ry="18"/>
<text text-anchor="middle" x="611" y="-14.7" font-family="Times Roman,serif" font-size="12.00">dl</text>
</g>
<!-- node151&#45;&gt;node187 -->
<g id="edge8" class="edge"><title>node151&#45;&gt;node187</title>
<path fill="none" stroke="black" d="M611,-71.8314C611,-64.131 611,-54.9743 611,-46.4166"/>
<polygon fill="black" stroke="black" points="614.5,-46.4132 611,-36.4133 607.5,-46.4133 614.5,-46.4132"/>
</g>
<!-- node188 -->
<g id="node11" class="node"><title>node188</title>
<ellipse fill="none" stroke="black" cx="683" cy="-18" rx="27" ry="18"/>
<text text-anchor="middle" x="683" y="-14.7" font-family="Times Roman,serif" font-size="12.00">rt</text>
</g>
<!-- node151&#45;&gt;node188 -->
<g id="edge12" class="edge"><title>node151&#45;&gt;node188</title>
<path fill="none" stroke="black" d="M629.169,-71.8314C638.729,-62.2706 650.535,-50.4651 660.652,-40.3481"/>
<polygon fill="black" stroke="black" points="663.398,-42.5519 667.994,-33.0059 658.448,-37.6021 663.398,-42.5519"/>
</g>
<!-- node59&#45;&gt;node151 -->
<g id="edge16" class="edge"><title>node59&#45;&gt;node151</title>
<path fill="none" stroke="black" d="M217.315,-215.864C234.893,-194.958 266.745,-161.266 302,-144 349.334,-120.818 501.744,-101.82 573.271,-93.9327"/>
<polygon fill="black" stroke="black" points="574.059,-97.3677 583.622,-92.8067 573.302,-90.4087 574.059,-97.3677"/>
</g>
<!-- node153 -->
<g id="node16" class="node"><title>node153</title>
<polygon fill="none" stroke="black" points="365,-180 311,-180 311,-144 365,-144 365,-180"/>
<text text-anchor="middle" x="338" y="-158.7" font-family="Times Roman,serif" font-size="12.00">mp</text>
</g>
<!-- node59&#45;&gt;node153 -->
<g id="edge18" class="edge"><title>node59&#45;&gt;node153</title>
<path fill="none" stroke="black" d="M232.293,-218.377C252.649,-207.52 279.918,-192.977 301.661,-181.381"/>
<polygon fill="black" stroke="black" points="303.428,-184.405 310.605,-176.611 300.134,-178.229 303.428,-184.405"/>
</g>
<!-- node153&#45;&gt;node151 -->
<g id="edge20" class="edge"><title>node153&#45;&gt;node151</title>
<path fill="none" stroke="black" d="M365.131,-154.81C377.583,-151.513 392.54,-147.554 406,-144 464.72,-128.494 532.917,-110.541 573.974,-99.7387"/>
<polygon fill="black" stroke="black" points="575.025,-103.081 583.806,-97.1522 573.244,-96.3118 575.025,-103.081"/>
</g>
<!-- node66&#45;&gt;node151 -->
<g id="edge24" class="edge"><title>node66&#45;&gt;node151</title>
<path fill="none" stroke="black" d="M414.877,-287.955C452.957,-249.52 542.155,-159.488 585.905,-115.33"/>
<polygon fill="black" stroke="black" points="588.471,-117.712 593.023,-108.145 583.498,-112.786 588.471,-117.712"/>
</g>
<!-- node66&#45;&gt;node59 -->
<g id="edge34" class="edge"><title>node66&#45;&gt;node59</title>
<path fill="none" stroke="black" d="M365.831,-294.432C332.152,-281.933 278.426,-261.993 241.979,-248.466"/>
<polygon fill="black" stroke="black" points="242.781,-245.031 232.188,-244.833 240.345,-251.594 242.781,-245.031"/>
</g>
<!-- node66&#45;&gt;node153 -->
<g id="edge26" class="edge"><title>node66&#45;&gt;node153</title>
<path fill="none" stroke="black" d="M389.528,-287.762C379.376,-262.985 361.138,-218.471 349.306,-189.594"/>
<polygon fill="black" stroke="black" points="352.442,-188.016 345.412,-180.09 345.964,-190.67 352.442,-188.016"/>
</g>
<!-- node149 -->
<g id="node23" class="node"><title>node149</title>
<polygon fill="none" stroke="black" points="578,-252 524,-252 524,-216 578,-216 578,-252"/>
<text text-anchor="middle" x="551" y="-230.7" font-family="Times Roman,serif" font-size="12.00">hrpc</text>
</g>
<!-- node66&#45;&gt;node149 -->
<g id="edge28" class="edge"><title>node66&#45;&gt;node149</title>
<path fill="none" stroke="black" d="M428.164,-291.43C453.213,-279.719 488.436,-263.251 514.745,-250.95"/>
<polygon fill="black" stroke="black" points="516.423,-254.03 523.999,-246.624 513.458,-247.689 516.423,-254.03"/>
</g>
<!-- node149&#45;&gt;node151 -->
<g id="edge30" class="edge"><title>node149&#45;&gt;node151</title>
<path fill="none" stroke="black" d="M558.599,-215.762C568.923,-190.985 587.47,-146.471 599.503,-117.594"/>
<polygon fill="black" stroke="black" points="602.847,-118.667 603.463,-108.09 596.386,-115.974 602.847,-118.667"/>
</g>
<!-- node149&#45;&gt;node153 -->
<g id="edge32" class="edge"><title>node149&#45;&gt;node153</title>
<path fill="none" stroke="black" d="M523.59,-224.735C485.727,-211.936 417.309,-188.809 374.958,-174.493"/>
<polygon fill="black" stroke="black" points="375.899,-171.116 365.305,-171.23 373.657,-177.748 375.899,-171.116"/>
</g>
<!-- node55&#45;&gt;node151 -->
<g id="edge38" class="edge"><title>node55&#45;&gt;node151</title>
<path fill="none" stroke="black" d="M113.882,-359.611C119.503,-328.037 134.177,-262.436 165,-216 191.822,-175.592 202.995,-164.39 247,-144 304.694,-117.266 492.754,-99.4576 573.553,-92.8582"/>
<polygon fill="black" stroke="black" points="574.079,-96.3273 583.766,-92.0373 573.518,-89.3498 574.079,-96.3273"/>
</g>
<!-- node55&#45;&gt;node59 -->
<g id="edge42" class="edge"><title>node55&#45;&gt;node59</title>
<path fill="none" stroke="black" d="M122.652,-359.762C138.62,-334.768 167.419,-289.692 185.852,-260.841"/>
<polygon fill="black" stroke="black" points="189.008,-262.401 191.443,-252.09 183.109,-258.632 189.008,-262.401"/>
</g>
<!-- node55&#45;&gt;node153 -->
<g id="edge40" class="edge"><title>node55&#45;&gt;node153</title>
<path fill="none" stroke="black" d="M131.445,-359.94C143.128,-349.536 157.996,-336.151 171,-324 221.821,-276.512 279.832,-219.613 312.366,-187.449"/>
<polygon fill="black" stroke="black" points="315.037,-189.73 319.683,-180.208 310.113,-184.754 315.037,-189.73"/>
</g>
<!-- node55&#45;&gt;node66 -->
<g id="edge44" class="edge"><title>node55&#45;&gt;node66</title>
<path fill="none" stroke="black" d="M156.014,-363.95C160.725,-362.574 165.452,-361.233 170,-360 234.518,-342.503 310.181,-325.125 355.813,-314.983"/>
<polygon fill="black" stroke="black" points="356.626,-318.388 365.633,-312.81 355.113,-311.554 356.626,-318.388"/>
</g>
<!-- node54&#45;&gt;node151 -->
<g id="edge50" class="edge"><title>node54&#45;&gt;node151</title>
<path fill="none" stroke="black" d="M797.119,-447.351C867.817,-440.513 1022.98,-418.524 971,-360 880.941,-258.607 769.502,-413.936 668,-324 608.522,-271.299 605.941,-167.877 608.558,-118.092"/>
<polygon fill="black" stroke="black" points="612.055,-118.242 609.198,-108.04 605.07,-117.798 612.055,-118.242"/>
</g>
<!-- node54&#45;&gt;node59 -->
<g id="edge72" class="edge"><title>node54&#45;&gt;node59</title>
<path fill="none" stroke="black" d="M730.86,-448.703C622.404,-444.168 282.889,-427.554 246,-396 207.257,-362.86 201.404,-299.202 201.569,-262.321"/>
<polygon fill="black" stroke="black" points="205.07,-262.304 201.767,-252.237 198.071,-262.166 205.07,-262.304"/>
</g>
<!-- node54&#45;&gt;node153 -->
<g id="edge52" class="edge"><title>node54&#45;&gt;node153</title>
<path fill="none" stroke="black" d="M730.83,-448.816C626.344,-444.747 309.155,-429.698 279,-396 225.74,-336.481 284.519,-235.846 318.008,-188.335"/>
<polygon fill="black" stroke="black" points="320.932,-190.265 323.934,-180.104 315.251,-186.175 320.932,-190.265"/>
</g>
<!-- node54&#45;&gt;node66 -->
<g id="edge74" class="edge"><title>node54&#45;&gt;node66</title>
<path fill="none" stroke="black" d="M730.806,-443.833C695.738,-436.308 639.714,-421.347 597,-396 576.993,-384.128 578.953,-371.962 559,-360 521.094,-337.275 472.399,-322.705 438.336,-314.498"/>
<polygon fill="black" stroke="black" points="438.795,-311.012 428.262,-312.154 437.209,-317.829 438.795,-311.012"/>
</g>
<!-- node54&#45;&gt;node149 -->
<g id="edge54" class="edge"><title>node54&#45;&gt;node149</title>
<path fill="none" stroke="black" d="M797.097,-446.364C863.083,-437.89 1000.74,-413.356 953,-360 904.843,-306.177 694.038,-357.395 630,-324 602.579,-309.7 580.352,-281.632 566.541,-260.624"/>
<polygon fill="black" stroke="black" points="569.456,-258.686 561.146,-252.113 563.544,-262.433 569.456,-258.686"/>
</g>
<!-- node54&#45;&gt;node55 -->
<g id="edge76" class="edge"><title>node54&#45;&gt;node55</title>
<path fill="none" stroke="black" d="M730.981,-447.797C644.716,-441.824 405.584,-423.874 208,-396 194.485,-394.093 179.985,-391.63 166.423,-389.14"/>
<polygon fill="black" stroke="black" points="166.74,-385.639 156.267,-387.241 165.453,-392.52 166.74,-385.639"/>
</g>
<!-- node176 -->
<g id="node36" class="node"><title>node176</title>
<ellipse fill="none" stroke="black" cx="419" cy="-378" rx="130.789" ry="18"/>
<text text-anchor="middle" x="419" y="-374.7" font-family="Times Roman,serif" font-size="12.00">/usr/lib/x86_64&#45;linux&#45;gnu/libz.so</text>
</g>
<!-- node54&#45;&gt;node176 -->
<g id="edge48" class="edge"><title>node54&#45;&gt;node176</title>
<path fill="none" stroke="black" d="M730.92,-443.096C678.489,-432.154 574.733,-410.501 501.308,-395.177"/>
<polygon fill="black" stroke="black" points="501.662,-391.676 491.158,-393.059 500.232,-398.528 501.662,-391.676"/>
</g>
<!-- node54&#45;&gt;node146 -->
<g id="edge56" class="edge"><title>node54&#45;&gt;node146</title>
<path fill="none" stroke="black" d="M797.114,-444.226C852.162,-434.576 965.953,-414.413 1062,-396 1079.02,-392.737 1097.83,-388.958 1113.76,-385.707"/>
<polygon fill="black" stroke="black" points="1114.67,-389.094 1123.76,-383.658 1113.26,-382.236 1114.67,-389.094"/>
</g>
<!-- node177 -->
<g id="node58" class="node"><title>node177</title>
<ellipse fill="none" stroke="black" cx="677" cy="-378" rx="70.8437" ry="18"/>
<text text-anchor="middle" x="677" y="-374.7" font-family="Times Roman,serif" font-size="12.00">/usr/lib/libbfd.so</text>
</g>
<!-- node54&#45;&gt;node177 -->
<g id="edge78" class="edge"><title>node54&#45;&gt;node177</title>
<path fill="none" stroke="black" d="M742.046,-431.831C731.085,-422.76 717.682,-411.668 705.897,-401.915"/>
<polygon fill="black" stroke="black" points="707.982,-399.097 698.046,-395.418 703.519,-404.49 707.982,-399.097"/>
</g>
<!-- node178 -->
<g id="node60" class="node"><title>node178</title>
<ellipse fill="none" stroke="black" cx="855" cy="-378" rx="89.0421" ry="18"/>
<text text-anchor="middle" x="855" y="-374.7" font-family="Times Roman,serif" font-size="12.00">/usr/lib/libiberty_pic.a</text>
</g>
<!-- node54&#45;&gt;node178 -->
<g id="edge80" class="edge"><title>node54&#45;&gt;node178</title>
<path fill="none" stroke="black" d="M786.963,-431.831C798.343,-422.828 812.238,-411.833 824.498,-402.133"/>
<polygon fill="black" stroke="black" points="827.003,-404.615 832.673,-395.665 822.659,-399.125 827.003,-404.615"/>
</g>
<!-- node146&#45;&gt;node151 -->
<g id="edge66" class="edge"><title>node146&#45;&gt;node151</title>
<path fill="none" stroke="black" d="M1123.83,-367.054C1116.22,-364.365 1107.88,-361.757 1100,-360 1021.31,-342.458 799.725,-377.029 739,-324 677.047,-269.898 743.768,-210.959 696,-144 683.921,-127.068 664.711,-114.211 647.607,-105.298"/>
<polygon fill="black" stroke="black" points="648.898,-102.032 638.381,-100.752 645.804,-108.312 648.898,-102.032"/>
</g>
<!-- node186 -->
<g id="node43" class="node"><title>node186</title>
<ellipse fill="none" stroke="black" cx="1417" cy="-306" rx="118.939" ry="18"/>
<text text-anchor="middle" x="1417" y="-302.7" font-family="Times Roman,serif" font-size="12.00">/usr/lib/libboost_regex&#45;mt.so</text>
</g>
<!-- node146&#45;&gt;node186 -->
<g id="edge58" class="edge"><title>node146&#45;&gt;node186</title>
<path fill="none" stroke="black" d="M1178.46,-370.566C1218.41,-359.754 1293.8,-339.346 1349.18,-324.359"/>
<polygon fill="black" stroke="black" points="1350.18,-327.712 1358.92,-321.721 1348.35,-320.955 1350.18,-327.712"/>
</g>
<!-- node183 -->
<g id="node45" class="node"><title>node183</title>
<ellipse fill="none" stroke="black" cx="826" cy="-306" rx="77.9931" ry="18"/>
<text text-anchor="middle" x="826" y="-302.7" font-family="Times Roman,serif" font-size="12.00">/usr/lib/libicuuc.so</text>
</g>
<!-- node146&#45;&gt;node183 -->
<g id="edge60" class="edge"><title>node146&#45;&gt;node183</title>
<path fill="none" stroke="black" d="M1123.98,-367.618C1116.3,-364.901 1107.88,-362.137 1100,-360 1018.31,-337.854 995.998,-340.574 913,-324 906.846,-322.771 900.45,-321.478 894.045,-320.172"/>
<polygon fill="black" stroke="black" points="894.505,-316.694 884.006,-318.118 893.102,-323.552 894.505,-316.694"/>
</g>
<!-- node184 -->
<g id="node47" class="node"><title>node184</title>
<ellipse fill="none" stroke="black" cx="1007" cy="-306" rx="85.1424" ry="18"/>
<text text-anchor="middle" x="1007" y="-302.7" font-family="Times Roman,serif" font-size="12.00">/usr/lib/libicui18n.so</text>
</g>
<!-- node146&#45;&gt;node184 -->
<g id="edge62" class="edge"><title>node146&#45;&gt;node184</title>
<path fill="none" stroke="black" d="M1123.91,-364.457C1102.89,-353.946 1073.36,-339.182 1049.24,-327.122"/>
<polygon fill="black" stroke="black" points="1050.8,-323.988 1040.29,-322.646 1047.67,-330.249 1050.8,-323.988"/>
</g>
<!-- node185 -->
<g id="node49" class="node"><title>node185</title>
<ellipse fill="none" stroke="black" cx="1195" cy="-306" rx="85.1424" ry="18"/>
<text text-anchor="middle" x="1195" y="-302.7" font-family="Times Roman,serif" font-size="12.00">/usr/lib/libicudata.so</text>
</g>
<!-- node146&#45;&gt;node185 -->
<g id="edge64" class="edge"><title>node146&#45;&gt;node185</title>
<path fill="none" stroke="black" d="M1162.1,-359.831C1167.14,-351.583 1173.21,-341.664 1178.74,-332.599"/>
<polygon fill="black" stroke="black" points="1181.82,-334.271 1184.05,-323.913 1175.85,-330.621 1181.82,-334.271"/>
</g>
<!-- node146&#45;&gt;node147 -->
<g id="edge68" class="edge"><title>node146&#45;&gt;node147</title>
<path fill="none" stroke="black" d="M1178.38,-375.224C1242.7,-368.491 1408.32,-349.92 1545,-324 1557.06,-321.714 1570.1,-318.719 1581.82,-315.831"/>
<polygon fill="black" stroke="black" points="1582.89,-319.172 1591.73,-313.34 1581.18,-312.383 1582.89,-319.172"/>
</g>
<!-- node147&#45;&gt;node151 -->
<g id="edge70" class="edge"><title>node147&#45;&gt;node151</title>
<path fill="none" stroke="black" d="M1620.62,-287.866C1622.57,-253.605 1621.21,-179.613 1578,-144 1541.5,-113.917 821.932,-94.9952 648.411,-90.8585"/>
<polygon fill="black" stroke="black" points="648.321,-87.3554 638.241,-90.6181 648.156,-94.3535 648.321,-87.3554"/>
</g>
<!-- node53&#45;&gt;node151 -->
<g id="edge88" class="edge"><title>node53&#45;&gt;node151</title>
<path fill="none" stroke="black" d="M1250.19,-442.886C1324,-424.823 1510.08,-374.991 1545,-324 1554.04,-310.799 1555.07,-300.432 1545,-288 1428.84,-144.636 808.319,-100.878 648.542,-91.9076"/>
<polygon fill="black" stroke="black" points="648.447,-88.3971 638.27,-91.3435 648.063,-95.3866 648.447,-88.3971"/>
</g>
<!-- node53&#45;&gt;node146 -->
<g id="edge92" class="edge"><title>node53&#45;&gt;node146</title>
<path fill="none" stroke="black" d="M1202.59,-431.831C1194.48,-423.369 1184.68,-413.149 1175.82,-403.897"/>
<polygon fill="black" stroke="black" points="1178.09,-401.211 1168.65,-396.413 1173.04,-406.055 1178.09,-401.211"/>
</g>
<!-- node53&#45;&gt;node147 -->
<g id="edge90" class="edge"><title>node53&#45;&gt;node147</title>
<path fill="none" stroke="black" d="M1250.17,-447.339C1319.24,-440.85 1486.72,-422.762 1536,-396 1563.62,-380.999 1587.03,-353.298 1601.87,-332.575"/>
<polygon fill="black" stroke="black" points="1604.87,-334.39 1607.69,-324.178 1599.12,-330.4 1604.87,-334.39"/>
</g>
<!-- node64&#45;&gt;node151 -->
<g id="edge96" class="edge"><title>node64&#45;&gt;node151</title>
<path fill="none" stroke="black" d="M1082.86,-503.764C1079.04,-484.845 1071.38,-454.883 1058,-432 1035.78,-394.006 1029.22,-379.97 990,-360 878.188,-303.074 809.943,-399.853 710,-324 675.516,-297.828 635.712,-174.226 619.018,-117.986"/>
<polygon fill="black" stroke="black" points="622.352,-116.916 616.177,-108.307 615.636,-118.888 622.352,-116.916"/>
</g>
<!-- node64&#45;&gt;node66 -->
<g id="edge98" class="edge"><title>node64&#45;&gt;node66</title>
<path fill="none" stroke="black" d="M1077.34,-503.944C1059.55,-469.129 1015.28,-393.23 953,-360 930.318,-347.899 563.667,-318.79 438.496,-309.156"/>
<polygon fill="black" stroke="black" points="438.42,-305.64 428.182,-308.364 437.885,-312.619 438.42,-305.64"/>
</g>
<!-- node64&#45;&gt;node54 -->
<g id="edge100" class="edge"><title>node64&#45;&gt;node54</title>
<path fill="none" stroke="black" d="M1051.85,-514.363C992.848,-501.171 871.967,-474.142 807.214,-459.663"/>
<polygon fill="black" stroke="black" points="807.845,-456.217 797.322,-457.451 806.317,-463.049 807.845,-456.217"/>
</g>
<!-- node64&#45;&gt;node146 -->
<g id="edge104" class="edge"><title>node64&#45;&gt;node146</title>
<path fill="none" stroke="black" d="M1094.23,-503.762C1105.47,-478.876 1125.69,-434.082 1138.71,-405.216"/>
<polygon fill="black" stroke="black" points="1141.91,-406.644 1142.83,-396.09 1135.53,-403.764 1141.91,-406.644"/>
</g>
<!-- node64&#45;&gt;node147 -->
<g id="edge102" class="edge"><title>node64&#45;&gt;node147</title>
<path fill="none" stroke="black" d="M1120.05,-516.79C1218.19,-501.224 1499.17,-452.613 1571,-396 1590.99,-380.246 1603.66,-353.815 1610.93,-333.661"/>
<polygon fill="black" stroke="black" points="1614.29,-334.659 1614.17,-324.065 1607.66,-332.424 1614.29,-334.659"/>
</g>
<!-- node64&#45;&gt;node53 -->
<g id="edge106" class="edge"><title>node64&#45;&gt;node53</title>
<path fill="none" stroke="black" d="M1119.81,-503.831C1138.42,-493.834 1161.6,-481.381 1180.97,-470.972"/>
<polygon fill="black" stroke="black" points="1182.7,-474.014 1189.85,-466.197 1179.39,-467.848 1182.7,-474.014"/>
</g>
</g>
</svg>
