<?xml version="1.0" encoding="UTF-8" standalone="no"?>
<!DOCTYPE svg PUBLIC "-//W3C//DTD SVG 1.1//EN"
 "http://www.w3.org/Graphics/SVG/1.1/DTD/svg11.dtd">
<!-- Generated by graphviz version 2.26.3 (20100126.1600)
 -->
<!-- Title: GG Pages: 1 -->
<svg width="2704pt" height="692pt"
 viewBox="0.00 0.00 2704.00 692.00" xmlns="http://www.w3.org/2000/svg" xmlns:xlink="http://www.w3.org/1999/xlink">
<g id="graph1" class="graph" transform="scale(1 1) rotate(0) translate(4 688)">
<title>GG</title>
<polygon fill="white" stroke="white" points="-4,5 -4,-688 2701,-688 2701,5 -4,5"/>
<!-- node101 -->
<g id="node1" class="node"><title>node101</title>
<polygon fill="none" stroke="black" points="1510,-684 1456,-684 1456,-648 1510,-648 1510,-684"/>
<text text-anchor="middle" x="1483" y="-662.7" font-family="Times Roman,serif" font-size="12.00">hthor</text>
</g>
<!-- node151 -->
<g id="node2" class="node"><title>node151</title>
<polygon fill="none" stroke="black" points="872,-108 818,-108 818,-72 872,-72 872,-108"/>
<text text-anchor="middle" x="845" y="-86.7" font-family="Times Roman,serif" font-size="12.00">jlib</text>
</g>
<!-- node101&#45;&gt;node151 -->
<g id="edge2" class="edge"><title>node101&#45;&gt;node151</title>
<path fill="none" stroke="black" d="M1455.78,-665.705C1263.57,-663.533 116.639,-649.045 54,-612 13.8485,-588.254 0,-568.648 0,-522 0,-522 0,-522 0,-234 0,-121.743 126.607,-169.197 236,-144 345.959,-118.673 693.336,-98.168 807.926,-91.945"/>
<polygon fill="black" stroke="black" points="808.166,-95.4373 817.963,-91.4043 807.789,-88.4474 808.166,-95.4373"/>
</g>
<!-- node153 -->
<g id="node12" class="node"><title>node153</title>
<polygon fill="none" stroke="black" points="382,-180 328,-180 328,-144 382,-144 382,-180"/>
<text text-anchor="middle" x="355" y="-158.7" font-family="Times Roman,serif" font-size="12.00">mp</text>
</g>
<!-- node101&#45;&gt;node153 -->
<g id="edge12" class="edge"><title>node101&#45;&gt;node153</title>
<path fill="none" stroke="black" d="M1455.84,-665.539C1268.9,-662.291 178.613,-642.099 116,-612 68.2939,-589.067 38,-574.932 38,-522 38,-522 38,-522 38,-378 38,-243.747 234.574,-186.991 318.13,-168.93"/>
<polygon fill="black" stroke="black" points="318.902,-172.345 327.973,-166.87 317.468,-165.493 318.902,-172.345"/>
</g>
<!-- node149 -->
<g id="node15" class="node"><title>node149</title>
<polygon fill="none" stroke="black" points="739,-252 685,-252 685,-216 739,-216 739,-252"/>
<text text-anchor="middle" x="712" y="-230.7" font-family="Times Roman,serif" font-size="12.00">hrpc</text>
</g>
<!-- node101&#45;&gt;node149 -->
<g id="edge16" class="edge"><title>node101&#45;&gt;node149</title>
<path fill="none" stroke="black" d="M1455.9,-663.985C1375.42,-657.728 1142,-637.514 1120,-612 1106.85,-596.754 1089.31,-612.304 1129,-432 1136.01,-400.163 1164.9,-384.144 1143,-360 1087.64,-298.979 844.986,-365.822 774,-324 750.009,-309.865 733.149,-282.359 723.128,-261.457"/>
<polygon fill="black" stroke="black" points="726.202,-259.761 718.881,-252.103 719.828,-262.655 726.202,-259.761"/>
</g>
<!-- node59 -->
<g id="node19" class="node"><title>node59</title>
<polygon fill="none" stroke="black" points="289,-252 231,-252 231,-216 289,-216 289,-252"/>
<text text-anchor="middle" x="260" y="-230.7" font-family="Times Roman,serif" font-size="12.00">remote</text>
</g>
<!-- node101&#45;&gt;node59 -->
<g id="edge22" class="edge"><title>node101&#45;&gt;node59</title>
<path fill="none" stroke="black" d="M1455.94,-665.591C1286,-662.916 369.329,-646.95 250,-612 173.552,-589.609 95,-601.66 95,-522 95,-522 95,-522 95,-450 95,-373.22 104.071,-345.457 155,-288 172.648,-268.09 199.391,-254.488 221.471,-245.916"/>
<polygon fill="black" stroke="black" points="222.747,-249.176 230.922,-242.436 220.329,-242.607 222.747,-249.176"/>
</g>
<!-- node66 -->
<g id="node23" class="node"><title>node66</title>
<polygon fill="none" stroke="black" points="445,-324 383,-324 383,-288 445,-288 445,-324"/>
<text text-anchor="middle" x="414" y="-302.7" font-family="Times Roman,serif" font-size="12.00">dalibase</text>
</g>
<!-- node101&#45;&gt;node66 -->
<g id="edge28" class="edge"><title>node101&#45;&gt;node66</title>
<path fill="none" stroke="black" d="M1455.82,-665.723C1289.37,-663.895 413.457,-652.377 375,-612 301.374,-534.698 366.052,-392.25 398.292,-332.977"/>
<polygon fill="black" stroke="black" points="401.37,-334.643 403.162,-324.201 395.249,-331.247 401.37,-334.643"/>
</g>
<!-- node55 -->
<g id="node29" class="node"><title>node55</title>
<polygon fill="none" stroke="black" points="251,-396 161,-396 161,-360 251,-360 251,-396"/>
<text text-anchor="middle" x="206" y="-374.7" font-family="Times Roman,serif" font-size="12.00">environment</text>
</g>
<!-- node101&#45;&gt;node55 -->
<g id="edge38" class="edge"><title>node101&#45;&gt;node55</title>
<path fill="none" stroke="black" d="M1455.81,-665.635C1282.21,-663.198 334.375,-648.261 286,-612 220.549,-562.94 208.209,-457.298 206.178,-406.466"/>
<polygon fill="black" stroke="black" points="209.669,-406.101 205.881,-396.206 202.672,-406.304 209.669,-406.101"/>
</g>
<!-- node54 -->
<g id="node35" class="node"><title>node54</title>
<polygon fill="none" stroke="black" points="661,-468 595,-468 595,-432 661,-432 661,-468"/>
<text text-anchor="middle" x="628" y="-446.7" font-family="Times Roman,serif" font-size="12.00">dllserver</text>
</g>
<!-- node101&#45;&gt;node54 -->
<g id="edge48" class="edge"><title>node101&#45;&gt;node54</title>
<path fill="none" stroke="black" d="M1455.91,-665.692C1291.89,-663.7 437.529,-651.447 400,-612 366.915,-577.224 370.226,-541.65 400,-504 422.554,-475.481 524.789,-460.46 584.423,-453.992"/>
<polygon fill="black" stroke="black" points="585.097,-457.441 594.678,-452.918 584.368,-450.479 585.097,-457.441"/>
</g>
<!-- node146 -->
<g id="node42" class="node"><title>node146</title>
<polygon fill="none" stroke="black" points="1453,-396 1399,-396 1399,-360 1453,-360 1453,-396"/>
<text text-anchor="middle" x="1426" y="-374.7" font-family="Times Roman,serif" font-size="12.00">eclrtl</text>
</g>
<!-- node101&#45;&gt;node146 -->
<g id="edge86" class="edge"><title>node101&#45;&gt;node146</title>
<path fill="none" stroke="black" d="M1491.19,-647.965C1508.55,-606.874 1544.41,-504.272 1506,-432 1496.64,-414.396 1478.71,-401.492 1462.18,-392.721"/>
<polygon fill="black" stroke="black" points="1463.73,-389.58 1453.21,-388.27 1460.62,-395.851 1463.73,-389.58"/>
</g>
<!-- node147 -->
<g id="node53" class="node"><title>node147</title>
<polygon fill="none" stroke="black" points="1790,-324 1736,-324 1736,-288 1790,-288 1790,-324"/>
<text text-anchor="middle" x="1763" y="-302.7" font-family="Times Roman,serif" font-size="12.00">nbcd</text>
</g>
<!-- node101&#45;&gt;node147 -->
<g id="edge84" class="edge"><title>node101&#45;&gt;node147</title>
<path fill="none" stroke="black" d="M1510.38,-659.413C1563.86,-644.739 1677,-604.002 1677,-522 1677,-522 1677,-522 1677,-450 1677,-403.355 1710.67,-358.703 1735.88,-331.813"/>
<polygon fill="black" stroke="black" points="1738.62,-334.008 1743.05,-324.384 1733.59,-329.145 1738.62,-334.008"/>
</g>
<!-- node53 -->
<g id="node65" class="node"><title>node53</title>
<polygon fill="none" stroke="black" points="1497,-468 1437,-468 1437,-432 1497,-432 1497,-468"/>
<text text-anchor="middle" x="1467" y="-446.7" font-family="Times Roman,serif" font-size="12.00">deftype</text>
</g>
<!-- node101&#45;&gt;node53 -->
<g id="edge88" class="edge"><title>node101&#45;&gt;node53</title>
<path fill="none" stroke="black" d="M1481.66,-647.955C1478.88,-610.314 1472.42,-523.187 1469.08,-478.125"/>
<polygon fill="black" stroke="black" points="1472.57,-477.859 1468.34,-468.145 1465.59,-478.376 1472.57,-477.859"/>
</g>
<!-- node64 -->
<g id="node70" class="node"><title>node64</title>
<polygon fill="none" stroke="black" points="1380,-540 1312,-540 1312,-504 1380,-504 1380,-540"/>
<text text-anchor="middle" x="1346" y="-518.7" font-family="Times Roman,serif" font-size="12.00">workunit</text>
</g>
<!-- node101&#45;&gt;node64 -->
<g id="edge96" class="edge"><title>node101&#45;&gt;node64</title>
<path fill="none" stroke="black" d="M1465.65,-647.762C1441.46,-622.335 1397.49,-576.125 1370.12,-547.357"/>
<polygon fill="black" stroke="black" points="1372.64,-544.922 1363.21,-540.09 1367.57,-549.747 1372.64,-544.922"/>
</g>
<!-- node150 -->
<g id="node78" class="node"><title>node150</title>
<polygon fill="none" stroke="black" points="2625,-180 2571,-180 2571,-144 2625,-144 2625,-180"/>
<text text-anchor="middle" x="2598" y="-158.7" font-family="Times Roman,serif" font-size="12.00">jhtree</text>
</g>
<!-- node101&#45;&gt;node150 -->
<g id="edge110" class="edge"><title>node101&#45;&gt;node150</title>
<path fill="none" stroke="black" d="M1510.17,-665.383C1679.4,-661.192 2582,-633.609 2582,-522 2582,-522 2582,-522 2582,-306 2582,-265.629 2588.29,-219.279 2592.98,-190.315"/>
<polygon fill="black" stroke="black" points="2596.49,-190.554 2594.68,-180.114 2589.59,-189.4 2596.49,-190.554"/>
</g>
<!-- node156 -->
<g id="node81" class="node"><title>node156</title>
<polygon fill="none" stroke="black" points="1978,-468 1884,-468 1884,-432 1978,-432 1978,-468"/>
<text text-anchor="middle" x="1931" y="-446.7" font-family="Times Roman,serif" font-size="12.00">securesocket</text>
</g>
<!-- node101&#45;&gt;node156 -->
<g id="edge114" class="edge"><title>node101&#45;&gt;node156</title>
<path fill="none" stroke="black" d="M1510.04,-664.777C1582.81,-661.034 1780.85,-647.736 1834,-612 1881.99,-579.731 1909.9,-515.005 1922.62,-477.88"/>
<polygon fill="black" stroke="black" points="1926.01,-478.783 1925.81,-468.19 1919.36,-476.596 1926.01,-478.783"/>
</g>
<!-- node63 -->
<g id="node88" class="node"><title>node63</title>
<polygon fill="none" stroke="black" points="1801,-540 1725,-540 1725,-504 1801,-504 1801,-540"/>
<text text-anchor="middle" x="1763" y="-518.7" font-family="Times Roman,serif" font-size="12.00">thorhelper</text>
</g>
<!-- node101&#45;&gt;node63 -->
<g id="edge122" class="edge"><title>node101&#45;&gt;node63</title>
<path fill="none" stroke="black" d="M1510.12,-664.389C1552.04,-660.771 1633.71,-649.132 1691,-612 1715.46,-596.146 1735.4,-569.188 1748.04,-548.9"/>
<polygon fill="black" stroke="black" points="1751.17,-550.486 1753.33,-540.112 1745.17,-546.878 1751.17,-550.486"/>
</g>
<!-- node142 -->
<g id="node95" class="node"><title>node142</title>
<polygon fill="none" stroke="black" points="1996,-540 1922,-540 1922,-504 1996,-504 1996,-540"/>
<text text-anchor="middle" x="1959" y="-518.7" font-family="Times Roman,serif" font-size="12.00">roxiemem</text>
</g>
<!-- node101&#45;&gt;node142 -->
<g id="edge134" class="edge"><title>node101&#45;&gt;node142</title>
<path fill="none" stroke="black" d="M1510.25,-665.66C1593.45,-664.149 1842.45,-655.969 1908,-612 1929.66,-597.471 1943.16,-570.46 1950.78,-549.806"/>
<polygon fill="black" stroke="black" points="1954.13,-550.855 1954.07,-540.26 1947.51,-548.579 1954.13,-550.855"/>
</g>
<!-- node61 -->
<g id="node98" class="node"><title>node61</title>
<polygon fill="none" stroke="black" points="1825,-612 1743,-612 1743,-576 1825,-576 1825,-612"/>
<text text-anchor="middle" x="1784" y="-590.7" font-family="Times Roman,serif" font-size="12.00">roxiehelper</text>
</g>
<!-- node101&#45;&gt;node61 -->
<g id="edge138" class="edge"><title>node101&#45;&gt;node61</title>
<path fill="none" stroke="black" d="M1510.15,-660.964C1555.72,-652.307 1650.32,-633.451 1729,-612 1730.42,-611.612 1731.87,-611.209 1733.32,-610.794"/>
<polygon fill="black" stroke="black" points="1734.4,-614.123 1742.99,-607.919 1732.41,-607.413 1734.4,-614.123"/>
</g>
<!-- node52 -->
<g id="node105" class="node"><title>node52</title>
<polygon fill="none" stroke="black" points="2696,-252 2610,-252 2610,-216 2696,-216 2696,-252"/>
<text text-anchor="middle" x="2653" y="-230.7" font-family="Times Roman,serif" font-size="12.00">commonext</text>
</g>
<!-- node101&#45;&gt;node52 -->
<g id="edge150" class="edge"><title>node101&#45;&gt;node52</title>
<path fill="none" stroke="black" d="M1510.09,-665.485C1676.06,-662.234 2549.79,-643.651 2596,-612 2632.11,-587.265 2636,-565.773 2636,-522 2636,-522 2636,-522 2636,-378 2636,-337.597 2642.68,-291.255 2647.67,-262.301"/>
<polygon fill="black" stroke="black" points="2651.18,-262.562 2649.48,-252.104 2644.28,-261.339 2651.18,-262.562"/>
</g>
<!-- node103 -->
<g id="node108" class="node"><title>node103</title>
<polygon fill="none" stroke="black" points="1215,-612 1129,-612 1129,-576 1215,-576 1215,-612"/>
<text text-anchor="middle" x="1172" y="-590.7" font-family="Times Roman,serif" font-size="12.00">schedulectrl</text>
</g>
<!-- node101&#45;&gt;node103 -->
<g id="edge154" class="edge"><title>node101&#45;&gt;node103</title>
<path fill="none" stroke="black" d="M1455.94,-659.736C1404.57,-647.842 1292.05,-621.792 1225.11,-606.295"/>
<polygon fill="black" stroke="black" points="1225.7,-602.84 1215.17,-603.995 1224.12,-609.66 1225.7,-602.84"/>
</g>
<!-- node152 -->
<g id="node4" class="node"><title>node152</title>
<polygon fill="none" stroke="black" points="723,-36 683.056,-18 723,-3.55271e-15 762.944,-18 723,-36"/>
<text text-anchor="middle" x="723" y="-14.7" font-family="Times Roman,serif" font-size="12.00">lzma</text>
</g>
<!-- node151&#45;&gt;node152 -->
<g id="edge4" class="edge"><title>node151&#45;&gt;node152</title>
<path fill="none" stroke="black" d="M817.924,-74.0209C797.47,-61.9494 769.554,-45.4743 749.293,-33.5172"/>
<polygon fill="black" stroke="black" points="750.968,-30.4417 740.577,-28.3733 747.41,-36.4701 750.968,-30.4417"/>
</g>
<!-- node187 -->
<g id="node6" class="node"><title>node187</title>
<ellipse fill="none" stroke="black" cx="808" cy="-18" rx="27" ry="18"/>
<text text-anchor="middle" x="808" y="-14.7" font-family="Times Roman,serif" font-size="12.00">dl</text>
</g>
<!-- node151&#45;&gt;node187 -->
<g id="edge6" class="edge"><title>node151&#45;&gt;node187</title>
<path fill="none" stroke="black" d="M835.663,-71.8314C831.405,-63.5451 826.28,-53.5727 821.605,-44.4748"/>
<polygon fill="black" stroke="black" points="824.635,-42.7123 816.951,-35.4177 818.408,-45.9118 824.635,-42.7123"/>
</g>
<!-- node179 -->
<g id="node8" class="node"><title>node179</title>
<ellipse fill="none" stroke="black" cx="883" cy="-18" rx="30.0465" ry="18"/>
<text text-anchor="middle" x="883" y="-14.7" font-family="Times Roman,serif" font-size="12.00">crypt</text>
</g>
<!-- node151&#45;&gt;node179 -->
<g id="edge8" class="edge"><title>node151&#45;&gt;node179</title>
<path fill="none" stroke="black" d="M854.589,-71.8314C858.962,-63.5451 864.226,-53.5727 869.027,-44.4748"/>
<polygon fill="black" stroke="black" points="872.235,-45.8952 873.807,-35.4177 866.044,-42.6279 872.235,-45.8952"/>
</g>
<!-- node188 -->
<g id="node10" class="node"><title>node188</title>
<ellipse fill="none" stroke="black" cx="958" cy="-18" rx="27" ry="18"/>
<text text-anchor="middle" x="958" y="-14.7" font-family="Times Roman,serif" font-size="12.00">rt</text>
</g>
<!-- node151&#45;&gt;node188 -->
<g id="edge10" class="edge"><title>node151&#45;&gt;node188</title>
<path fill="none" stroke="black" d="M872.066,-72.7542C889.414,-61.7009 911.898,-47.375 929.516,-36.1494"/>
<polygon fill="black" stroke="black" points="931.679,-38.9209 938.232,-30.5955 927.918,-33.0174 931.679,-38.9209"/>
</g>
<!-- node153&#45;&gt;node151 -->
<g id="edge14" class="edge"><title>node153&#45;&gt;node151</title>
<path fill="none" stroke="black" d="M382.189,-153.393C393.484,-150.069 406.783,-146.478 419,-144 561.06,-115.184 733.073,-98.9896 807.588,-92.8672"/>
<polygon fill="black" stroke="black" points="808.174,-96.3314 817.859,-92.0367 807.61,-89.3541 808.174,-96.3314"/>
</g>
<!-- node149&#45;&gt;node151 -->
<g id="edge18" class="edge"><title>node149&#45;&gt;node151</title>
<path fill="none" stroke="black" d="M722.15,-215.856C733.353,-196.745 752.651,-166.377 774,-144 784.495,-133 797.382,-122.495 809.283,-113.724"/>
<polygon fill="black" stroke="black" points="811.645,-116.337 817.726,-107.661 807.562,-110.651 811.645,-116.337"/>
</g>
<!-- node149&#45;&gt;node153 -->
<g id="edge20" class="edge"><title>node149&#45;&gt;node153</title>
<path fill="none" stroke="black" d="M684.874,-228.529C621.597,-215.768 464.145,-184.012 392.077,-169.478"/>
<polygon fill="black" stroke="black" points="392.579,-166.009 382.085,-167.462 391.195,-172.87 392.579,-166.009"/>
</g>
<!-- node59&#45;&gt;node151 -->
<g id="edge24" class="edge"><title>node59&#45;&gt;node151</title>
<path fill="none" stroke="black" d="M266.314,-215.941C274.75,-194.777 291.863,-160.504 319,-144 360.6,-118.7 694.507,-98.2465 807.66,-91.9829"/>
<polygon fill="black" stroke="black" points="808.111,-95.4635 817.904,-91.4213 807.727,-88.474 808.111,-95.4635"/>
</g>
<!-- node59&#45;&gt;node153 -->
<g id="edge26" class="edge"><title>node59&#45;&gt;node153</title>
<path fill="none" stroke="black" d="M283.973,-215.831C295.786,-206.878 310.197,-195.956 322.943,-186.295"/>
<polygon fill="black" stroke="black" points="325.18,-188.992 331.035,-180.163 320.951,-183.414 325.18,-188.992"/>
</g>
<!-- node66&#45;&gt;node151 -->
<g id="edge30" class="edge"><title>node66&#45;&gt;node151</title>
<path fill="none" stroke="black" d="M413.131,-287.877C412.588,-253.969 416.734,-181.027 459,-144 485.04,-121.188 716.119,-100.339 807.778,-92.8931"/>
<polygon fill="black" stroke="black" points="808.301,-96.3625 817.988,-92.0724 807.74,-89.385 808.301,-96.3625"/>
</g>
<!-- node66&#45;&gt;node153 -->
<g id="edge32" class="edge"><title>node66&#45;&gt;node153</title>
<path fill="none" stroke="black" d="M406.528,-287.762C396.376,-262.985 378.138,-218.471 366.306,-189.594"/>
<polygon fill="black" stroke="black" points="369.442,-188.016 362.412,-180.09 362.964,-190.67 369.442,-188.016"/>
</g>
<!-- node66&#45;&gt;node149 -->
<g id="edge34" class="edge"><title>node66&#45;&gt;node149</title>
<path fill="none" stroke="black" d="M445.048,-298.498C500.315,-285.145 615.513,-257.312 674.873,-242.97"/>
<polygon fill="black" stroke="black" points="676.037,-246.29 684.936,-240.539 674.393,-239.486 676.037,-246.29"/>
</g>
<!-- node66&#45;&gt;node59 -->
<g id="edge36" class="edge"><title>node66&#45;&gt;node59</title>
<path fill="none" stroke="black" d="M382.836,-291.43C358.414,-280.012 324.319,-264.071 298.245,-251.881"/>
<polygon fill="black" stroke="black" points="299.575,-248.639 289.034,-247.574 296.611,-254.98 299.575,-248.639"/>
</g>
<!-- node55&#45;&gt;node151 -->
<g id="edge40" class="edge"><title>node55&#45;&gt;node151</title>
<path fill="none" stroke="black" d="M204.411,-359.662C202.458,-328.719 201.585,-264.748 222,-216 238.09,-177.578 245.165,-163.451 282,-144 328.41,-119.493 689.977,-98.2566 807.927,-91.9207"/>
<polygon fill="black" stroke="black" points="808.126,-95.4152 817.925,-91.3881 807.753,-88.4251 808.126,-95.4152"/>
</g>
<!-- node55&#45;&gt;node153 -->
<g id="edge42" class="edge"><title>node55&#45;&gt;node153</title>
<path fill="none" stroke="black" d="M220.194,-359.619C228.159,-349.228 238.228,-335.959 247,-324 270.193,-292.38 276.168,-284.575 298,-252 312.029,-231.067 327.271,-206.922 338.461,-188.914"/>
<polygon fill="black" stroke="black" points="341.626,-190.451 343.915,-180.106 335.675,-186.765 341.626,-190.451"/>
</g>
<!-- node55&#45;&gt;node59 -->
<g id="edge44" class="edge"><title>node55&#45;&gt;node59</title>
<path fill="none" stroke="black" d="M212.839,-359.762C222.131,-334.985 238.823,-290.471 249.652,-261.594"/>
<polygon fill="black" stroke="black" points="252.982,-262.682 253.216,-252.09 246.428,-260.224 252.982,-262.682"/>
</g>
<!-- node55&#45;&gt;node66 -->
<g id="edge46" class="edge"><title>node55&#45;&gt;node66</title>
<path fill="none" stroke="black" d="M251.133,-362.377C287.501,-349.788 338.189,-332.242 373.318,-320.082"/>
<polygon fill="black" stroke="black" points="374.483,-323.383 382.788,-316.804 372.193,-316.768 374.483,-323.383"/>
</g>
<!-- node54&#45;&gt;node151 -->
<g id="edge52" class="edge"><title>node54&#45;&gt;node151</title>
<path fill="none" stroke="black" d="M594.798,-441.818C557.477,-431.871 500.454,-414.152 488,-396 478.948,-382.807 481.286,-374.523 488,-360 552.654,-220.148 731.302,-134.968 808.587,-103.663"/>
<polygon fill="black" stroke="black" points="809.935,-106.893 817.931,-99.9417 807.345,-100.39 809.935,-106.893"/>
</g>
<!-- node54&#45;&gt;node153 -->
<g id="edge54" class="edge"><title>node54&#45;&gt;node153</title>
<path fill="none" stroke="black" d="M594.958,-447.808C552.688,-443.597 478.764,-431.365 427,-396 359.831,-350.111 352.852,-242.05 353.608,-190.425"/>
<polygon fill="black" stroke="black" points="357.11,-190.395 353.868,-180.308 350.112,-190.215 357.11,-190.395"/>
</g>
<!-- node54&#45;&gt;node149 -->
<g id="edge56" class="edge"><title>node54&#45;&gt;node149</title>
<path fill="none" stroke="black" d="M661.275,-447.594C769.962,-439.578 1108.47,-413.309 1124,-396 1134.68,-384.09 1134.78,-371.825 1124,-360 1065.67,-296.004 802.154,-379.874 736,-324 718.221,-308.983 712.846,-282.408 711.549,-262.015"/>
<polygon fill="black" stroke="black" points="715.046,-261.88 711.198,-252.008 708.051,-262.125 715.046,-261.88"/>
</g>
<!-- node54&#45;&gt;node59 -->
<g id="edge74" class="edge"><title>node54&#45;&gt;node59</title>
<path fill="none" stroke="black" d="M594.885,-447.446C528.199,-441.725 380.708,-425.972 341,-396 297.027,-362.81 275.304,-299.17 265.972,-262.305"/>
<polygon fill="black" stroke="black" points="269.291,-261.138 263.561,-252.226 262.483,-262.766 269.291,-261.138"/>
</g>
<!-- node54&#45;&gt;node66 -->
<g id="edge76" class="edge"><title>node54&#45;&gt;node66</title>
<path fill="none" stroke="black" d="M594.778,-447.641C556.755,-443.299 494.637,-430.971 455,-396 436.69,-379.845 426.071,-353.866 420.248,-333.962"/>
<polygon fill="black" stroke="black" points="423.598,-332.942 417.624,-324.191 416.837,-334.757 423.598,-332.942"/>
</g>
<!-- node54&#45;&gt;node55 -->
<g id="edge78" class="edge"><title>node54&#45;&gt;node55</title>
<path fill="none" stroke="black" d="M594.747,-444.687C535.874,-435.233 409.469,-414.722 303,-396 289.558,-393.636 275.085,-391 261.526,-388.49"/>
<polygon fill="black" stroke="black" points="261.839,-384.988 251.368,-386.602 260.56,-391.87 261.839,-384.988"/>
</g>
<!-- node176 -->
<g id="node37" class="node"><title>node176</title>
<ellipse fill="none" stroke="black" cx="628" cy="-378" rx="130.789" ry="18"/>
<text text-anchor="middle" x="628" y="-374.7" font-family="Times Roman,serif" font-size="12.00">/usr/lib/x86_64&#45;linux&#45;gnu/libz.so</text>
</g>
<!-- node54&#45;&gt;node176 -->
<g id="edge50" class="edge"><title>node54&#45;&gt;node176</title>
<path fill="none" stroke="black" d="M628,-431.831C628,-424.131 628,-414.974 628,-406.417"/>
<polygon fill="black" stroke="black" points="631.5,-406.413 628,-396.413 624.5,-406.413 631.5,-406.413"/>
</g>
<!-- node54&#45;&gt;node146 -->
<g id="edge58" class="edge"><title>node54&#45;&gt;node146</title>
<path fill="none" stroke="black" d="M661.021,-447.021C789.175,-435.458 1253.19,-393.592 1388.64,-381.371"/>
<polygon fill="black" stroke="black" points="1389.26,-384.829 1398.9,-380.445 1388.63,-377.858 1389.26,-384.829"/>
</g>
<!-- node177 -->
<g id="node59" class="node"><title>node177</title>
<ellipse fill="none" stroke="black" cx="848" cy="-378" rx="70.8437" ry="18"/>
<text text-anchor="middle" x="848" y="-374.7" font-family="Times Roman,serif" font-size="12.00">/usr/lib/libbfd.so</text>
</g>
<!-- node54&#45;&gt;node177 -->
<g id="edge80" class="edge"><title>node54&#45;&gt;node177</title>
<path fill="none" stroke="black" d="M661.413,-439.065C696.801,-427.483 753.183,-409.031 794.715,-395.439"/>
<polygon fill="black" stroke="black" points="795.984,-398.706 804.4,-392.269 793.807,-392.053 795.984,-398.706"/>
</g>
<!-- node178 -->
<g id="node61" class="node"><title>node178</title>
<ellipse fill="none" stroke="black" cx="1026" cy="-378" rx="89.0421" ry="18"/>
<text text-anchor="middle" x="1026" y="-374.7" font-family="Times Roman,serif" font-size="12.00">/usr/lib/libiberty_pic.a</text>
</g>
<!-- node54&#45;&gt;node178 -->
<g id="edge82" class="edge"><title>node54&#45;&gt;node178</title>
<path fill="none" stroke="black" d="M661.302,-444.045C716.671,-434.137 831.156,-413.61 928,-396 935.219,-394.687 942.735,-393.316 950.253,-391.94"/>
<polygon fill="black" stroke="black" points="950.906,-395.379 960.112,-390.135 949.645,-388.494 950.906,-395.379"/>
</g>
<!-- node146&#45;&gt;node151 -->
<g id="edge68" class="edge"><title>node146&#45;&gt;node151</title>
<path fill="none" stroke="black" d="M1453.12,-362.651C1455.41,-361.661 1457.72,-360.76 1460,-360 1561.23,-326.296 1755.27,-371.614 1689,-288 1585.73,-157.693 1032.02,-104.826 882.329,-92.7908"/>
<polygon fill="black" stroke="black" points="882.506,-89.294 872.261,-91.9944 881.954,-96.2722 882.506,-89.294"/>
</g>
<!-- node186 -->
<g id="node44" class="node"><title>node186</title>
<ellipse fill="none" stroke="black" cx="1561" cy="-306" rx="118.939" ry="18"/>
<text text-anchor="middle" x="1561" y="-302.7" font-family="Times Roman,serif" font-size="12.00">/usr/lib/libboost_regex&#45;mt.so</text>
</g>
<!-- node146&#45;&gt;node186 -->
<g id="edge60" class="edge"><title>node146&#45;&gt;node186</title>
<path fill="none" stroke="black" d="M1453.32,-363.43C1472.33,-353.291 1498.03,-339.586 1519.55,-328.107"/>
<polygon fill="black" stroke="black" points="1521.31,-331.134 1528.49,-323.34 1518.02,-324.958 1521.31,-331.134"/>
</g>
<!-- node183 -->
<g id="node46" class="node"><title>node183</title>
<ellipse fill="none" stroke="black" cx="970" cy="-306" rx="77.9931" ry="18"/>
<text text-anchor="middle" x="970" y="-302.7" font-family="Times Roman,serif" font-size="12.00">/usr/lib/libicuuc.so</text>
</g>
<!-- node146&#45;&gt;node183 -->
<g id="edge62" class="edge"><title>node146&#45;&gt;node183</title>
<path fill="none" stroke="black" d="M1398.62,-364.623C1394.15,-362.835 1389.51,-361.206 1385,-360 1243.33,-322.085 1201.86,-346.882 1057,-324 1050.35,-322.949 1043.43,-321.733 1036.54,-320.438"/>
<polygon fill="black" stroke="black" points="1036.97,-316.957 1026.48,-318.496 1035.64,-323.829 1036.97,-316.957"/>
</g>
<!-- node184 -->
<g id="node48" class="node"><title>node184</title>
<ellipse fill="none" stroke="black" cx="1151" cy="-306" rx="85.1424" ry="18"/>
<text text-anchor="middle" x="1151" y="-302.7" font-family="Times Roman,serif" font-size="12.00">/usr/lib/libicui18n.so</text>
</g>
<!-- node146&#45;&gt;node184 -->
<g id="edge64" class="edge"><title>node146&#45;&gt;node184</title>
<path fill="none" stroke="black" d="M1398.93,-365.27C1394.34,-363.355 1389.57,-361.517 1385,-360 1355.13,-350.095 1279.14,-333.098 1221.8,-320.815"/>
<polygon fill="black" stroke="black" points="1222.19,-317.321 1211.68,-318.656 1220.73,-324.167 1222.19,-317.321"/>
</g>
<!-- node185 -->
<g id="node50" class="node"><title>node185</title>
<ellipse fill="none" stroke="black" cx="1339" cy="-306" rx="85.1424" ry="18"/>
<text text-anchor="middle" x="1339" y="-302.7" font-family="Times Roman,serif" font-size="12.00">/usr/lib/libicudata.so</text>
</g>
<!-- node146&#45;&gt;node185 -->
<g id="edge66" class="edge"><title>node146&#45;&gt;node185</title>
<path fill="none" stroke="black" d="M1404.05,-359.831C1393.17,-350.828 1379.88,-339.833 1368.16,-330.133"/>
<polygon fill="black" stroke="black" points="1370.28,-327.344 1360.35,-323.665 1365.82,-332.737 1370.28,-327.344"/>
</g>
<!-- node146&#45;&gt;node147 -->
<g id="edge70" class="edge"><title>node146&#45;&gt;node147</title>
<path fill="none" stroke="black" d="M1453.41,-364.746C1457.88,-362.942 1462.51,-361.275 1467,-360 1577.1,-328.703 1611.9,-355.297 1722,-324 1723.26,-323.641 1724.54,-323.252 1725.81,-322.837"/>
<polygon fill="black" stroke="black" points="1727.41,-325.981 1735.59,-319.254 1725,-319.409 1727.41,-325.981"/>
</g>
<!-- node147&#45;&gt;node151 -->
<g id="edge72" class="edge"><title>node147&#45;&gt;node151</title>
<path fill="none" stroke="black" d="M1764.6,-287.889C1766.52,-253.666 1765.11,-179.737 1722,-144 1689.18,-116.789 1044.69,-95.9174 882.03,-91.0689"/>
<polygon fill="black" stroke="black" points="882.124,-87.5703 872.025,-90.7728 881.917,-94.5672 882.124,-87.5703"/>
</g>
<!-- node53&#45;&gt;node151 -->
<g id="edge90" class="edge"><title>node53&#45;&gt;node151</title>
<path fill="none" stroke="black" d="M1439.87,-431.809C1424.93,-421.587 1406.19,-408.422 1390,-396 1370.22,-380.831 1370.08,-369.412 1347,-360 1251.24,-320.946 959.12,-394.012 883,-324 853.394,-296.77 846.845,-174.699 845.403,-118.494"/>
<polygon fill="black" stroke="black" points="848.895,-118.1 845.178,-108.179 841.897,-118.253 848.895,-118.1"/>
</g>
<!-- node53&#45;&gt;node146 -->
<g id="edge94" class="edge"><title>node53&#45;&gt;node146</title>
<path fill="none" stroke="black" d="M1456.65,-431.831C1452.08,-423.792 1446.59,-414.167 1441.54,-405.292"/>
<polygon fill="black" stroke="black" points="1444.48,-403.371 1436.49,-396.413 1438.39,-406.835 1444.48,-403.371"/>
</g>
<!-- node53&#45;&gt;node147 -->
<g id="edge92" class="edge"><title>node53&#45;&gt;node147</title>
<path fill="none" stroke="black" d="M1477.06,-431.977C1489.66,-411.179 1513.25,-377.591 1543,-360 1612.85,-318.697 1644.62,-348.452 1722,-324 1723.44,-323.546 1724.89,-323.058 1726.35,-322.543"/>
<polygon fill="black" stroke="black" points="1727.89,-325.7 1735.97,-318.842 1725.38,-319.167 1727.89,-325.7"/>
</g>
<!-- node64&#45;&gt;node151 -->
<g id="edge98" class="edge"><title>node64&#45;&gt;node151</title>
<path fill="none" stroke="black" d="M1348.05,-503.749C1350.76,-469.626 1351,-396.335 1309,-360 1233.47,-294.654 935.013,-391.063 861,-324 803.531,-271.927 822.715,-167.822 836.307,-117.925"/>
<polygon fill="black" stroke="black" points="839.721,-118.714 839.093,-108.138 832.989,-116.798 839.721,-118.714"/>
</g>
<!-- node64&#45;&gt;node66 -->
<g id="edge100" class="edge"><title>node64&#45;&gt;node66</title>
<path fill="none" stroke="black" d="M1331.98,-503.985C1303.44,-468.89 1234.73,-392.003 1157,-360 1092.1,-333.278 603.065,-313.048 455.823,-307.513"/>
<polygon fill="black" stroke="black" points="455.546,-304 445.422,-307.125 455.285,-310.995 455.546,-304"/>
</g>
<!-- node64&#45;&gt;node54 -->
<g id="edge102" class="edge"><title>node64&#45;&gt;node54</title>
<path fill="none" stroke="black" d="M1311.85,-518.576C1193.68,-506.726 802.222,-467.471 671.173,-454.329"/>
<polygon fill="black" stroke="black" points="671.409,-450.836 661.109,-453.32 670.71,-457.801 671.409,-450.836"/>
</g>
<!-- node64&#45;&gt;node146 -->
<g id="edge106" class="edge"><title>node64&#45;&gt;node146</title>
<path fill="none" stroke="black" d="M1355.83,-503.662C1365.64,-485.428 1381.19,-456.69 1395,-432 1399.88,-423.27 1405.28,-413.795 1410.19,-405.256"/>
<polygon fill="black" stroke="black" points="1413.32,-406.847 1415.28,-396.436 1407.25,-403.351 1413.32,-406.847"/>
</g>
<!-- node64&#45;&gt;node147 -->
<g id="edge104" class="edge"><title>node64&#45;&gt;node147</title>
<path fill="none" stroke="black" d="M1362.4,-503.927C1384.41,-479.671 1421.53,-438.827 1428,-432 1431.86,-427.923 1494.01,-362.575 1499,-360 1588.22,-313.977 1625.71,-352.407 1722,-324 1723.26,-323.629 1724.53,-323.228 1725.8,-322.804"/>
<polygon fill="black" stroke="black" points="1727.41,-325.94 1735.57,-319.176 1724.98,-319.378 1727.41,-325.94"/>
</g>
<!-- node64&#45;&gt;node53 -->
<g id="edge108" class="edge"><title>node64&#45;&gt;node53</title>
<path fill="none" stroke="black" d="M1376.53,-503.831C1392.13,-494.552 1411.28,-483.158 1427.94,-473.245"/>
<polygon fill="black" stroke="black" points="1430.09,-476.035 1436.9,-467.913 1426.51,-470.019 1430.09,-476.035"/>
</g>
<!-- node150&#45;&gt;node151 -->
<g id="edge112" class="edge"><title>node150&#45;&gt;node151</title>
<path fill="none" stroke="black" d="M2570.7,-148.314C2566.22,-146.566 2561.55,-145.03 2557,-144 2388.65,-105.892 1117.43,-92.4897 882.331,-90.3257"/>
<polygon fill="black" stroke="black" points="882.264,-86.8251 872.233,-90.2339 882.201,-93.8248 882.264,-86.8251"/>
</g>
<!-- node156&#45;&gt;node151 -->
<g id="edge116" class="edge"><title>node156&#45;&gt;node151</title>
<path fill="none" stroke="black" d="M1923.15,-431.746C1912.29,-404.778 1894,-352.462 1894,-306 1894,-306 1894,-306 1894,-234 1894,-192.602 1902.15,-170.076 1870,-144 1830.9,-112.289 1061.94,-94.4815 882.3,-90.7441"/>
<polygon fill="black" stroke="black" points="882.109,-87.2396 872.039,-90.5327 881.965,-94.2381 882.109,-87.2396"/>
</g>
<!-- node191 -->
<g id="node84" class="node"><title>node191</title>
<ellipse fill="none" stroke="black" cx="2059" cy="-378" rx="137.138" ry="18"/>
<text text-anchor="middle" x="2059" y="-374.7" font-family="Times Roman,serif" font-size="12.00">/usr/lib/x86_64&#45;linux&#45;gnu/libssl.so</text>
</g>
<!-- node156&#45;&gt;node191 -->
<g id="edge118" class="edge"><title>node156&#45;&gt;node191</title>
<path fill="none" stroke="black" d="M1963.3,-431.831C1980.08,-422.395 2000.74,-410.772 2018.57,-400.744"/>
<polygon fill="black" stroke="black" points="2020.6,-403.618 2027.6,-395.665 2017.16,-397.517 2020.6,-403.618"/>
</g>
<!-- node192 -->
<g id="node86" class="node"><title>node192</title>
<ellipse fill="none" stroke="black" cx="2365" cy="-378" rx="150.937" ry="18"/>
<text text-anchor="middle" x="2365" y="-374.7" font-family="Times Roman,serif" font-size="12.00">/usr/lib/x86_64&#45;linux&#45;gnu/libcrypto.so</text>
</g>
<!-- node156&#45;&gt;node192 -->
<g id="edge120" class="edge"><title>node156&#45;&gt;node192</title>
<path fill="none" stroke="black" d="M1978.27,-442.158C2047.09,-430.74 2176.47,-409.278 2266.53,-394.335"/>
<polygon fill="black" stroke="black" points="2267.2,-397.773 2276.49,-392.683 2266.05,-390.867 2267.2,-397.773"/>
</g>
<!-- node63&#45;&gt;node151 -->
<g id="edge124" class="edge"><title>node63&#45;&gt;node151</title>
<path fill="none" stroke="black" d="M1774.93,-503.755C1791.11,-477.219 1818,-425.903 1818,-378 1818,-378 1818,-378 1818,-234 1818,-183.866 1794.2,-167.668 1750,-144 1672.69,-102.596 1044.02,-92.3554 882.644,-90.3986"/>
<polygon fill="black" stroke="black" points="882.313,-86.8946 872.273,-90.2766 882.231,-93.8941 882.313,-86.8946"/>
</g>
<!-- node63&#45;&gt;node146 -->
<g id="edge128" class="edge"><title>node63&#45;&gt;node146</title>
<path fill="none" stroke="black" d="M1737.94,-503.868C1709.39,-483.909 1660.74,-452.005 1615,-432 1564.2,-409.78 1501.75,-394.013 1462.9,-385.458"/>
<polygon fill="black" stroke="black" points="1463.59,-382.026 1453.08,-383.338 1462.11,-388.869 1463.59,-382.026"/>
</g>
<!-- node63&#45;&gt;node147 -->
<g id="edge126" class="edge"><title>node63&#45;&gt;node147</title>
<path fill="none" stroke="black" d="M1763,-503.955C1763,-466.394 1763,-379.554 1763,-334.41"/>
<polygon fill="black" stroke="black" points="1766.5,-334.145 1763,-324.145 1759.5,-334.145 1766.5,-334.145"/>
</g>
<!-- node63&#45;&gt;node53 -->
<g id="edge130" class="edge"><title>node63&#45;&gt;node53</title>
<path fill="none" stroke="black" d="M1724.91,-512.735C1668.79,-499.084 1564.36,-473.683 1507.11,-459.757"/>
<polygon fill="black" stroke="black" points="1507.87,-456.34 1497.33,-457.377 1506.22,-463.142 1507.87,-456.34"/>
</g>
<!-- node63&#45;&gt;node156 -->
<g id="edge132" class="edge"><title>node63&#45;&gt;node156</title>
<path fill="none" stroke="black" d="M1801.12,-505.662C1824.3,-495.729 1854.2,-482.914 1879.47,-472.085"/>
<polygon fill="black" stroke="black" points="1881.09,-475.199 1888.9,-468.042 1878.33,-468.765 1881.09,-475.199"/>
</g>
<!-- node142&#45;&gt;node151 -->
<g id="edge136" class="edge"><title>node142&#45;&gt;node151</title>
<path fill="none" stroke="black" d="M1996.04,-520.877C2124.63,-515.988 2544,-491.354 2544,-378 2544,-378 2544,-378 2544,-306 2544,-132.499 1131.68,-95.8193 882.369,-90.6962"/>
<polygon fill="black" stroke="black" points="882.099,-87.1901 872.03,-90.4883 881.958,-94.1887 882.099,-87.1901"/>
</g>
<!-- node61&#45;&gt;node151 -->
<g id="edge140" class="edge"><title>node61&#45;&gt;node151</title>
<path fill="none" stroke="black" d="M1799.98,-575.898C1821.19,-549.936 1856,-499.753 1856,-450 1856,-450 1856,-450 1856,-234 1856,-184.397 1833.59,-167.675 1790,-144 1709.19,-100.11 1047.24,-91.6881 882.178,-90.2646"/>
<polygon fill="black" stroke="black" points="882.064,-86.7636 872.036,-90.1806 882.006,-93.7634 882.064,-86.7636"/>
</g>
<!-- node61&#45;&gt;node66 -->
<g id="edge148" class="edge"><title>node61&#45;&gt;node66</title>
<path fill="none" stroke="black" d="M1742.85,-592.815C1641.14,-589.345 1380.55,-576.998 1303,-540 1220.74,-500.756 1220.26,-461.613 1157,-396 1141.94,-380.374 1143.52,-369.487 1124,-360 1063.87,-330.776 598.333,-312.381 455.52,-307.383"/>
<polygon fill="black" stroke="black" points="455.531,-303.881 445.416,-307.033 455.288,-310.877 455.531,-303.881"/>
</g>
<!-- node61&#45;&gt;node146 -->
<g id="edge142" class="edge"><title>node61&#45;&gt;node146</title>
<path fill="none" stroke="black" d="M1757.8,-575.914C1723.94,-552.225 1663.58,-508.882 1615,-468 1597.2,-453.021 1596.82,-444.178 1577,-432 1541.04,-409.907 1494.72,-395.044 1462.92,-386.595"/>
<polygon fill="black" stroke="black" points="1463.69,-383.18 1453.13,-384.076 1461.95,-389.959 1463.69,-383.18"/>
</g>
<!-- node61&#45;&gt;node63 -->
<g id="edge144" class="edge"><title>node61&#45;&gt;node63</title>
<path fill="none" stroke="black" d="M1778.7,-575.831C1776.43,-568.046 1773.73,-558.773 1771.21,-550.135"/>
<polygon fill="black" stroke="black" points="1774.53,-549.033 1768.37,-540.413 1767.81,-550.993 1774.53,-549.033"/>
</g>
<!-- node61&#45;&gt;node142 -->
<g id="edge146" class="edge"><title>node61&#45;&gt;node142</title>
<path fill="none" stroke="black" d="M1825.03,-577.119C1851.24,-566.337 1885.28,-552.331 1912.49,-541.136"/>
<polygon fill="black" stroke="black" points="1913.89,-544.345 1921.81,-537.303 1911.23,-537.871 1913.89,-544.345"/>
</g>
<!-- node52&#45;&gt;node151 -->
<g id="edge152" class="edge"><title>node52&#45;&gt;node151</title>
<path fill="none" stroke="black" d="M2655.08,-215.88C2656.35,-194.99 2654.7,-161.313 2634,-144 2599.17,-114.876 1136.19,-93.9135 882.348,-90.4921"/>
<polygon fill="black" stroke="black" points="882.212,-86.9901 872.166,-90.3556 882.118,-93.9895 882.212,-86.9901"/>
</g>
<!-- node103&#45;&gt;node151 -->
<g id="edge156" class="edge"><title>node103&#45;&gt;node151</title>
<path fill="none" stroke="black" d="M1178.15,-575.812C1191.65,-532.091 1218.41,-420.26 1162,-360 1111.59,-306.146 886.291,-373.943 832,-324 773.013,-269.737 802.733,-222.04 821,-144 823.084,-135.097 826.626,-125.848 830.358,-117.573"/>
<polygon fill="black" stroke="black" points="833.595,-118.917 834.75,-108.386 827.279,-115.898 833.595,-118.917"/>
</g>
<!-- node103&#45;&gt;node59 -->
<g id="edge158" class="edge"><title>node103&#45;&gt;node59</title>
<path fill="none" stroke="black" d="M1128.66,-593.639C985.942,-592.037 531.896,-583.559 393,-540 273.943,-502.662 213.576,-504.523 152,-396 123.207,-345.254 182.34,-289.292 223.92,-258.217"/>
<polygon fill="black" stroke="black" points="226.211,-260.878 232.229,-252.159 222.087,-255.222 226.211,-260.878"/>
</g>
<!-- node103&#45;&gt;node66 -->
<g id="edge160" class="edge"><title>node103&#45;&gt;node66</title>
<path fill="none" stroke="black" d="M1129,-588.954C1064.16,-580.944 937.691,-563.759 832,-540 720.854,-515.015 692.818,-507.594 586,-468 513.262,-441.038 473.608,-458.012 427,-396 413.795,-378.431 411.108,-353.353 411.404,-334.131"/>
<polygon fill="black" stroke="black" points="414.901,-334.278 411.827,-324.138 407.907,-333.981 414.901,-334.278"/>
</g>
<!-- node103&#45;&gt;node55 -->
<g id="edge162" class="edge"><title>node103&#45;&gt;node55</title>
<path fill="none" stroke="black" d="M1128.7,-593.234C996.318,-590.486 598.531,-579.105 476,-540 380.692,-509.583 283.665,-439.863 236.086,-402.579"/>
<polygon fill="black" stroke="black" points="238.076,-399.69 228.062,-396.23 233.732,-405.18 238.076,-399.69"/>
</g>
<!-- node103&#45;&gt;node54 -->
<g id="edge164" class="edge"><title>node103&#45;&gt;node54</title>
<path fill="none" stroke="black" d="M1128.86,-582.58C1027.06,-555.633 772.818,-488.334 671.08,-461.403"/>
<polygon fill="black" stroke="black" points="671.712,-457.95 661.15,-458.775 669.921,-464.717 671.712,-457.95"/>
</g>
<!-- node103&#45;&gt;node146 -->
<g id="edge168" class="edge"><title>node103&#45;&gt;node146</title>
<path fill="none" stroke="black" d="M1193.22,-575.955C1238.6,-537.361 1345.16,-446.743 1396.86,-402.784"/>
<polygon fill="black" stroke="black" points="1399.31,-405.29 1404.66,-396.145 1394.78,-399.957 1399.31,-405.29"/>
</g>
<!-- node103&#45;&gt;node147 -->
<g id="edge166" class="edge"><title>node103&#45;&gt;node147</title>
<path fill="none" stroke="black" d="M1215.06,-590.404C1266.51,-584.85 1354.25,-571.338 1423,-540 1544.32,-484.695 1550.7,-431.874 1663,-360 1683.42,-346.929 1707.28,-333.964 1726.57,-324.015"/>
<polygon fill="black" stroke="black" points="1728.32,-327.05 1735.64,-319.385 1725.14,-320.815 1728.32,-327.05"/>
</g>
<!-- node103&#45;&gt;node53 -->
<g id="edge170" class="edge"><title>node103&#45;&gt;node53</title>
<path fill="none" stroke="black" d="M1215.33,-590.946C1261.39,-586.014 1334.9,-573.194 1389,-540 1414.79,-524.176 1436.58,-497.033 1450.52,-476.683"/>
<polygon fill="black" stroke="black" points="1453.57,-478.421 1456.18,-468.153 1447.74,-474.551 1453.57,-478.421"/>
</g>
<!-- node103&#45;&gt;node64 -->
<g id="edge172" class="edge"><title>node103&#45;&gt;node64</title>
<path fill="none" stroke="black" d="M1215.01,-576.202C1241.63,-565.187 1275.71,-551.086 1302.43,-540.028"/>
<polygon fill="black" stroke="black" points="1304.01,-543.161 1311.92,-536.103 1301.34,-536.693 1304.01,-543.161"/>
</g>
</g>
</svg>
