<?xml version="1.0" encoding="UTF-8" standalone="no"?>
<!DOCTYPE svg PUBLIC "-//W3C//DTD SVG 1.1//EN"
 "http://www.w3.org/Graphics/SVG/1.1/DTD/svg11.dtd">
<!-- Generated by graphviz version 2.26.3 (20100126.1600)
 -->
<!-- Title: GG Pages: 1 -->
<svg width="2461pt" height="692pt"
 viewBox="0.00 0.00 2460.70 692.00" xmlns="http://www.w3.org/2000/svg" xmlns:xlink="http://www.w3.org/1999/xlink">
<g id="graph1" class="graph" transform="scale(1 1) rotate(0) translate(4 688)">
<title>GG</title>
<polygon fill="white" stroke="white" points="-4,5 -4,-688 2457.7,-688 2457.7,5 -4,5"/>
<!-- node119 -->
<g id="node1" class="node"><title>node119</title>
<polygon fill="none" stroke="black" points="1462,-684 1408,-684 1408,-648 1462,-648 1462,-684"/>
<text text-anchor="middle" x="1435" y="-662.7" font-family="Times Roman,serif" font-size="12.00">ws_fs</text>
</g>
<!-- node151 -->
<g id="node2" class="node"><title>node151</title>
<polygon fill="none" stroke="black" points="1650,-108 1596,-108 1596,-72 1650,-72 1650,-108"/>
<text text-anchor="middle" x="1623" y="-86.7" font-family="Times Roman,serif" font-size="12.00">jlib</text>
</g>
<!-- node119&#45;&gt;node151 -->
<g id="edge2" class="edge"><title>node119&#45;&gt;node151</title>
<path fill="none" stroke="black" d="M1407.93,-664.752C1210.51,-655.474 0,-595.589 0,-522 0,-522 0,-522 0,-234 0,-189.476 6.63867,-168.219 44,-144 110.731,-100.743 1352.72,-91.5421 1585.56,-90.195"/>
<polygon fill="black" stroke="black" points="1585.89,-93.6932 1595.87,-90.1367 1585.85,-86.6933 1585.89,-93.6932"/>
</g>
<!-- node110 -->
<g id="node12" class="node"><title>node110</title>
<polygon fill="none" stroke="black" points="533,-540 471,-540 471,-504 533,-504 533,-540"/>
<text text-anchor="middle" x="502" y="-518.7" font-family="Times Roman,serif" font-size="12.00">esphttp</text>
</g>
<!-- node119&#45;&gt;node110 -->
<g id="edge12" class="edge"><title>node119&#45;&gt;node110</title>
<path fill="none" stroke="black" d="M1407.78,-664.059C1331.84,-658.437 1111.37,-640.691 930,-612 786.921,-589.366 619.401,-550.485 543.328,-532.142"/>
<polygon fill="black" stroke="black" points="543.755,-528.644 533.212,-529.694 542.108,-535.448 543.755,-528.644"/>
</g>
<!-- node66 -->
<g id="node27" class="node"><title>node66</title>
<polygon fill="none" stroke="black" points="2047,-324 1985,-324 1985,-288 2047,-288 2047,-324"/>
<text text-anchor="middle" x="2016" y="-302.7" font-family="Times Roman,serif" font-size="12.00">dalibase</text>
</g>
<!-- node119&#45;&gt;node66 -->
<g id="edge32" class="edge"><title>node119&#45;&gt;node66</title>
<path fill="none" stroke="black" d="M1462.39,-662.973C1586.74,-648.871 2092,-587.537 2092,-522 2092,-522 2092,-522 2092,-450 2092,-404.656 2062.16,-359.6 2039.88,-332.273"/>
<polygon fill="black" stroke="black" points="2042.36,-329.786 2033.25,-324.381 2037,-334.289 2042.36,-329.786"/>
</g>
<!-- node55 -->
<g id="node41" class="node"><title>node55</title>
<polygon fill="none" stroke="black" points="1912,-396 1822,-396 1822,-360 1912,-360 1912,-396"/>
<text text-anchor="middle" x="1867" y="-374.7" font-family="Times Roman,serif" font-size="12.00">environment</text>
</g>
<!-- node119&#45;&gt;node55 -->
<g id="edge52" class="edge"><title>node119&#45;&gt;node55</title>
<path fill="none" stroke="black" d="M1462.02,-658.912C1518.77,-643.265 1653.27,-602.158 1752,-540 1791.92,-514.865 1803.06,-506.731 1830,-468 1843.27,-448.926 1852.96,-424.37 1859.09,-405.728"/>
<polygon fill="black" stroke="black" points="1862.47,-406.642 1862.12,-396.053 1855.79,-404.545 1862.47,-406.642"/>
</g>
<!-- node127 -->
<g id="node47" class="node"><title>node127</title>
<polygon fill="none" stroke="black" points="997,-612 939,-612 939,-576 997,-576 997,-612"/>
<text text-anchor="middle" x="968" y="-590.7" font-family="Times Roman,serif" font-size="12.00">SMCLib</text>
</g>
<!-- node119&#45;&gt;node127 -->
<g id="edge62" class="edge"><title>node119&#45;&gt;node127</title>
<path fill="none" stroke="black" d="M1407.87,-661.818C1329.05,-649.666 1099.81,-614.322 1007.35,-600.066"/>
<polygon fill="black" stroke="black" points="1007.7,-596.579 997.281,-598.514 1006.63,-603.497 1007.7,-596.579"/>
</g>
<!-- node74 -->
<g id="node106" class="node"><title>node74</title>
<polygon fill="none" stroke="black" points="2271,-612 2217,-612 2217,-576 2271,-576 2271,-612"/>
<text text-anchor="middle" x="2244" y="-590.7" font-family="Times Roman,serif" font-size="12.00">dfuwu</text>
</g>
<!-- node119&#45;&gt;node74 -->
<g id="edge152" class="edge"><title>node119&#45;&gt;node74</title>
<path fill="none" stroke="black" d="M1462.21,-664.295C1553.38,-658.477 1856.4,-638.305 2106,-612 2140.2,-608.396 2179.02,-603.236 2206.76,-599.364"/>
<polygon fill="black" stroke="black" points="2207.4,-602.808 2216.82,-597.949 2206.43,-595.877 2207.4,-602.808"/>
</g>
<!-- node152 -->
<g id="node4" class="node"><title>node152</title>
<polygon fill="none" stroke="black" points="1501,-36 1461.06,-18 1501,-3.55271e-15 1540.94,-18 1501,-36"/>
<text text-anchor="middle" x="1501" y="-14.7" font-family="Times Roman,serif" font-size="12.00">lzma</text>
</g>
<!-- node151&#45;&gt;node152 -->
<g id="edge4" class="edge"><title>node151&#45;&gt;node152</title>
<path fill="none" stroke="black" d="M1595.92,-74.0209C1575.47,-61.9494 1547.55,-45.4743 1527.29,-33.5172"/>
<polygon fill="black" stroke="black" points="1528.97,-30.4417 1518.58,-28.3733 1525.41,-36.4701 1528.97,-30.4417"/>
</g>
<!-- node187 -->
<g id="node6" class="node"><title>node187</title>
<ellipse fill="none" stroke="black" cx="1586" cy="-18" rx="27" ry="18"/>
<text text-anchor="middle" x="1586" y="-14.7" font-family="Times Roman,serif" font-size="12.00">dl</text>
</g>
<!-- node151&#45;&gt;node187 -->
<g id="edge6" class="edge"><title>node151&#45;&gt;node187</title>
<path fill="none" stroke="black" d="M1613.66,-71.8314C1609.41,-63.5451 1604.28,-53.5727 1599.61,-44.4748"/>
<polygon fill="black" stroke="black" points="1602.63,-42.7123 1594.95,-35.4177 1596.41,-45.9118 1602.63,-42.7123"/>
</g>
<!-- node179 -->
<g id="node8" class="node"><title>node179</title>
<ellipse fill="none" stroke="black" cx="1661" cy="-18" rx="30.0465" ry="18"/>
<text text-anchor="middle" x="1661" y="-14.7" font-family="Times Roman,serif" font-size="12.00">crypt</text>
</g>
<!-- node151&#45;&gt;node179 -->
<g id="edge8" class="edge"><title>node151&#45;&gt;node179</title>
<path fill="none" stroke="black" d="M1632.59,-71.8314C1636.96,-63.5451 1642.23,-53.5727 1647.03,-44.4748"/>
<polygon fill="black" stroke="black" points="1650.24,-45.8952 1651.81,-35.4177 1644.04,-42.6279 1650.24,-45.8952"/>
</g>
<!-- node188 -->
<g id="node10" class="node"><title>node188</title>
<ellipse fill="none" stroke="black" cx="1736" cy="-18" rx="27" ry="18"/>
<text text-anchor="middle" x="1736" y="-14.7" font-family="Times Roman,serif" font-size="12.00">rt</text>
</g>
<!-- node151&#45;&gt;node188 -->
<g id="edge10" class="edge"><title>node151&#45;&gt;node188</title>
<path fill="none" stroke="black" d="M1650.07,-72.7542C1667.41,-61.7009 1689.9,-47.375 1707.52,-36.1494"/>
<polygon fill="black" stroke="black" points="1709.68,-38.9209 1716.23,-30.5955 1705.92,-33.0174 1709.68,-38.9209"/>
</g>
<!-- node110&#45;&gt;node151 -->
<g id="edge20" class="edge"><title>node110&#45;&gt;node151</title>
<path fill="none" stroke="black" d="M470.675,-518.302C372.296,-505.828 76,-461.339 76,-378 76,-378 76,-378 76,-234 76,-31.3465 321.899,-169.038 523,-144 735.456,-117.548 1417.99,-96.0518 1585.58,-91.0836"/>
<polygon fill="black" stroke="black" points="1585.75,-94.5802 1595.64,-90.7869 1585.54,-87.5833 1585.75,-94.5802"/>
</g>
<!-- node180 -->
<g id="node14" class="node"><title>node180</title>
<ellipse fill="none" stroke="black" cx="389" cy="-378" rx="85.1424" ry="18"/>
<text text-anchor="middle" x="389" y="-374.7" font-family="Times Roman,serif" font-size="12.00">/usr/lib/libxalan&#45;c.so</text>
</g>
<!-- node110&#45;&gt;node180 -->
<g id="edge14" class="edge"><title>node110&#45;&gt;node180</title>
<path fill="none" stroke="black" d="M487.688,-503.762C467.905,-478.552 432.089,-432.91 409.477,-404.095"/>
<polygon fill="black" stroke="black" points="412.122,-401.796 403.195,-396.09 406.615,-406.117 412.122,-401.796"/>
</g>
<!-- node181 -->
<g id="node16" class="node"><title>node181</title>
<ellipse fill="none" stroke="black" cx="623" cy="-378" rx="93.0912" ry="18"/>
<text text-anchor="middle" x="623" y="-374.7" font-family="Times Roman,serif" font-size="12.00">/usr/lib/libxalanMsg.so</text>
</g>
<!-- node110&#45;&gt;node181 -->
<g id="edge16" class="edge"><title>node110&#45;&gt;node181</title>
<path fill="none" stroke="black" d="M517.325,-503.762C538.509,-478.552 576.86,-432.91 601.073,-404.095"/>
<polygon fill="black" stroke="black" points="604.046,-405.997 607.8,-396.09 598.687,-401.494 604.046,-405.997"/>
</g>
<!-- node182 -->
<g id="node18" class="node"><title>node182</title>
<ellipse fill="none" stroke="black" cx="195" cy="-378" rx="90.9919" ry="18"/>
<text text-anchor="middle" x="195" y="-374.7" font-family="Times Roman,serif" font-size="12.00">/usr/lib/libxerces&#45;c.so</text>
</g>
<!-- node110&#45;&gt;node182 -->
<g id="edge18" class="edge"><title>node110&#45;&gt;node182</title>
<path fill="none" stroke="black" d="M470.874,-507.4C416.211,-481.76 302.794,-428.561 239.736,-398.984"/>
<polygon fill="black" stroke="black" points="240.978,-395.7 230.438,-394.622 238.005,-402.038 240.978,-395.7"/>
</g>
<!-- node160 -->
<g id="node21" class="node"><title>node160</title>
<polygon fill="none" stroke="black" points="529,-468 475,-468 475,-432 529,-432 529,-468"/>
<text text-anchor="middle" x="502" y="-446.7" font-family="Times Roman,serif" font-size="12.00">xmllib</text>
</g>
<!-- node110&#45;&gt;node160 -->
<g id="edge22" class="edge"><title>node110&#45;&gt;node160</title>
<path fill="none" stroke="black" d="M502,-503.831C502,-496.131 502,-486.974 502,-478.417"/>
<polygon fill="black" stroke="black" points="505.5,-478.413 502,-468.413 498.5,-478.413 505.5,-478.413"/>
</g>
<!-- node160&#45;&gt;node151 -->
<g id="edge30" class="edge"><title>node160&#45;&gt;node151</title>
<path fill="none" stroke="black" d="M502,-431.815C502,-404.498 502,-351.25 502,-306 502,-306 502,-306 502,-234 502,-161.148 569.801,-166.781 639,-144 730.084,-114.015 1416.3,-95.134 1585.42,-90.9051"/>
<polygon fill="black" stroke="black" points="1585.67,-94.4001 1595.58,-90.6532 1585.49,-87.4023 1585.67,-94.4001"/>
</g>
<!-- node160&#45;&gt;node180 -->
<g id="edge24" class="edge"><title>node160&#45;&gt;node180</title>
<path fill="none" stroke="black" d="M474.934,-432.754C459.839,-423.136 440.855,-411.04 424.572,-400.665"/>
<polygon fill="black" stroke="black" points="426.16,-397.527 415.845,-395.105 422.398,-403.43 426.16,-397.527"/>
</g>
<!-- node160&#45;&gt;node181 -->
<g id="edge26" class="edge"><title>node160&#45;&gt;node181</title>
<path fill="none" stroke="black" d="M529.155,-433.842C545.681,-424.008 567.036,-411.301 585.198,-400.494"/>
<polygon fill="black" stroke="black" points="587.019,-403.483 593.823,-395.362 583.439,-397.468 587.019,-403.483"/>
</g>
<!-- node160&#45;&gt;node182 -->
<g id="edge28" class="edge"><title>node160&#45;&gt;node182</title>
<path fill="none" stroke="black" d="M474.756,-443.61C427.787,-432.595 330.215,-409.712 263.662,-394.103"/>
<polygon fill="black" stroke="black" points="264.204,-390.635 253.669,-391.76 262.606,-397.451 264.204,-390.635"/>
</g>
<!-- node66&#45;&gt;node151 -->
<g id="edge34" class="edge"><title>node66&#45;&gt;node151</title>
<path fill="none" stroke="black" d="M1992.75,-287.681C1968.16,-268.696 1927.91,-238.679 1891,-216 1831.72,-179.577 1815.03,-173.457 1752,-144 1721.28,-129.644 1685.69,-114.88 1659.68,-104.426"/>
<polygon fill="black" stroke="black" points="1660.8,-101.103 1650.21,-100.641 1658.2,-107.603 1660.8,-101.103"/>
</g>
<!-- node153 -->
<g id="node30" class="node"><title>node153</title>
<polygon fill="none" stroke="black" points="2040,-180 1986,-180 1986,-144 2040,-144 2040,-180"/>
<text text-anchor="middle" x="2013" y="-158.7" font-family="Times Roman,serif" font-size="12.00">mp</text>
</g>
<!-- node66&#45;&gt;node153 -->
<g id="edge36" class="edge"><title>node66&#45;&gt;node153</title>
<path fill="none" stroke="black" d="M2015.62,-287.762C2015.11,-263.201 2014.19,-219.247 2013.59,-190.354"/>
<polygon fill="black" stroke="black" points="2017.08,-190.015 2013.38,-180.09 2010.09,-190.16 2017.08,-190.015"/>
</g>
<!-- node149 -->
<g id="node33" class="node"><title>node149</title>
<polygon fill="none" stroke="black" points="2174,-252 2120,-252 2120,-216 2174,-216 2174,-252"/>
<text text-anchor="middle" x="2147" y="-230.7" font-family="Times Roman,serif" font-size="12.00">hrpc</text>
</g>
<!-- node66&#45;&gt;node149 -->
<g id="edge40" class="edge"><title>node66&#45;&gt;node149</title>
<path fill="none" stroke="black" d="M2047.05,-288.937C2066.2,-278.407 2090.86,-264.855 2110.89,-253.846"/>
<polygon fill="black" stroke="black" points="2112.65,-256.871 2119.73,-248.987 2109.28,-250.736 2112.65,-256.871"/>
</g>
<!-- node59 -->
<g id="node37" class="node"><title>node59</title>
<polygon fill="none" stroke="black" points="1882,-252 1824,-252 1824,-216 1882,-216 1882,-252"/>
<text text-anchor="middle" x="1853" y="-230.7" font-family="Times Roman,serif" font-size="12.00">remote</text>
</g>
<!-- node66&#45;&gt;node59 -->
<g id="edge46" class="edge"><title>node66&#45;&gt;node59</title>
<path fill="none" stroke="black" d="M1984.96,-292.288C1958.32,-280.521 1919.82,-263.516 1891.28,-250.908"/>
<polygon fill="black" stroke="black" points="1892.57,-247.654 1882.01,-246.815 1889.74,-254.057 1892.57,-247.654"/>
</g>
<!-- node153&#45;&gt;node151 -->
<g id="edge38" class="edge"><title>node153&#45;&gt;node151</title>
<path fill="none" stroke="black" d="M1985.58,-148.798C1981.11,-146.987 1976.48,-145.305 1972,-144 1861.32,-111.742 1724.95,-97.7384 1660.33,-92.5765"/>
<polygon fill="black" stroke="black" points="1660.47,-89.0764 1650.23,-91.795 1659.93,-96.0556 1660.47,-89.0764"/>
</g>
<!-- node149&#45;&gt;node151 -->
<g id="edge42" class="edge"><title>node149&#45;&gt;node151</title>
<path fill="none" stroke="black" d="M2133.31,-215.95C2116.15,-194.794 2084.62,-160.53 2049,-144 1980.05,-112.003 1750.63,-96.7171 1660.15,-91.8223"/>
<polygon fill="black" stroke="black" points="1660.25,-88.3225 1650.07,-91.2893 1659.88,-95.3128 1660.25,-88.3225"/>
</g>
<!-- node149&#45;&gt;node153 -->
<g id="edge44" class="edge"><title>node149&#45;&gt;node153</title>
<path fill="none" stroke="black" d="M2119.88,-219.43C2099.45,-208.451 2071.24,-193.291 2048.93,-181.303"/>
<polygon fill="black" stroke="black" points="2050.54,-178.199 2040.08,-176.549 2047.23,-184.365 2050.54,-178.199"/>
</g>
<!-- node59&#45;&gt;node151 -->
<g id="edge48" class="edge"><title>node59&#45;&gt;node151</title>
<path fill="none" stroke="black" d="M1823.87,-215.762C1781.83,-189.44 1704.21,-140.844 1658.75,-112.383"/>
<polygon fill="black" stroke="black" points="1660.44,-109.312 1650.11,-106.972 1656.73,-115.245 1660.44,-109.312"/>
</g>
<!-- node59&#45;&gt;node153 -->
<g id="edge50" class="edge"><title>node59&#45;&gt;node153</title>
<path fill="none" stroke="black" d="M1882.35,-220.794C1908.93,-208.831 1948.2,-191.162 1976.74,-178.318"/>
<polygon fill="black" stroke="black" points="1978.29,-181.458 1985.97,-174.163 1975.42,-175.075 1978.29,-181.458"/>
</g>
<!-- node55&#45;&gt;node151 -->
<g id="edge54" class="edge"><title>node55&#45;&gt;node151</title>
<path fill="none" stroke="black" d="M1851.74,-359.984C1809.97,-310.688 1693.69,-173.434 1644.94,-115.899"/>
<polygon fill="black" stroke="black" points="1647.39,-113.376 1638.26,-108.009 1642.05,-117.901 1647.39,-113.376"/>
</g>
<!-- node55&#45;&gt;node66 -->
<g id="edge60" class="edge"><title>node55&#45;&gt;node66</title>
<path fill="none" stroke="black" d="M1904.6,-359.831C1926.32,-349.333 1953.65,-336.129 1975.8,-325.425"/>
<polygon fill="black" stroke="black" points="1977.47,-328.508 1984.95,-321.006 1974.42,-322.205 1977.47,-328.508"/>
</g>
<!-- node55&#45;&gt;node153 -->
<g id="edge56" class="edge"><title>node55&#45;&gt;node153</title>
<path fill="none" stroke="black" d="M1879.2,-359.955C1904.96,-321.838 1965.03,-232.973 1995.13,-188.434"/>
<polygon fill="black" stroke="black" points="1998.03,-190.39 2000.74,-180.145 1992.24,-186.47 1998.03,-190.39"/>
</g>
<!-- node55&#45;&gt;node59 -->
<g id="edge58" class="edge"><title>node55&#45;&gt;node59</title>
<path fill="none" stroke="black" d="M1865.23,-359.762C1862.84,-335.201 1858.57,-291.247 1855.76,-262.354"/>
<polygon fill="black" stroke="black" points="1859.21,-261.704 1854.76,-252.09 1852.24,-262.381 1859.21,-261.704"/>
</g>
<!-- node127&#45;&gt;node151 -->
<g id="edge64" class="edge"><title>node127&#45;&gt;node151</title>
<path fill="none" stroke="black" d="M938.89,-592.641C781.361,-584.912 38,-543.485 38,-450 38,-450 38,-450 38,-234 38,-189.279 45.3756,-168.174 83,-144 148.185,-102.117 1356.86,-91.8139 1585.76,-90.2352"/>
<polygon fill="black" stroke="black" points="1585.94,-93.7342 1595.91,-90.1665 1585.89,-86.7344 1585.94,-93.7342"/>
</g>
<!-- node127&#45;&gt;node110 -->
<g id="edge70" class="edge"><title>node127&#45;&gt;node110</title>
<path fill="none" stroke="black" d="M938.85,-589.496C858.939,-577.149 636.189,-542.733 543.397,-528.396"/>
<polygon fill="black" stroke="black" points="543.681,-524.899 533.264,-526.83 542.612,-531.816 543.681,-524.899"/>
</g>
<!-- node127&#45;&gt;node160 -->
<g id="edge68" class="edge"><title>node127&#45;&gt;node160</title>
<path fill="none" stroke="black" d="M938.68,-588.845C893.379,-580.545 803.882,-562.817 730,-540 660.867,-518.65 582.992,-485.96 538.483,-466.411"/>
<polygon fill="black" stroke="black" points="539.802,-463.167 529.24,-462.329 536.974,-469.571 539.802,-463.167"/>
</g>
<!-- node127&#45;&gt;node66 -->
<g id="edge72" class="edge"><title>node127&#45;&gt;node66</title>
<path fill="none" stroke="black" d="M997.412,-592.914C1131.31,-587.843 1679.85,-565.66 1752,-540 1856.56,-502.81 1878.58,-475.513 1956,-396 1974.35,-377.153 1990.58,-351.985 2001.52,-333.056"/>
<polygon fill="black" stroke="black" points="2004.59,-334.749 2006.45,-324.32 1998.49,-331.309 2004.59,-334.749"/>
</g>
<!-- node127&#45;&gt;node59 -->
<g id="edge66" class="edge"><title>node127&#45;&gt;node59</title>
<path fill="none" stroke="black" d="M966.59,-575.898C963.154,-526.276 956.703,-389.792 987,-360 1031.46,-316.284 1485.6,-334.863 1547,-324 1645.25,-306.616 1756.78,-269.118 1814.23,-248.432"/>
<polygon fill="black" stroke="black" points="1815.77,-251.596 1823.98,-244.896 1813.38,-245.016 1815.77,-251.596"/>
</g>
<!-- node127&#45;&gt;node55 -->
<g id="edge74" class="edge"><title>node127&#45;&gt;node55</title>
<path fill="none" stroke="black" d="M997.285,-593.107C1126.91,-588.989 1645.5,-570.711 1711,-540 1774.49,-510.232 1825.68,-442.496 1850.58,-404.719"/>
<polygon fill="black" stroke="black" points="1853.56,-406.545 1856.05,-396.246 1847.68,-402.746 1853.56,-406.545"/>
</g>
<!-- node78 -->
<g id="node55" class="node"><title>node78</title>
<polygon fill="none" stroke="black" points="2064,-468 2010,-468 2010,-432 2064,-432 2064,-468"/>
<text text-anchor="middle" x="2037" y="-446.7" font-family="Times Roman,serif" font-size="12.00">dalift</text>
</g>
<!-- node127&#45;&gt;node78 -->
<g id="edge76" class="edge"><title>node127&#45;&gt;node78</title>
<path fill="none" stroke="black" d="M997.299,-593.619C1129.96,-591.676 1675.02,-581.283 1840,-540 1899.27,-525.17 1962.66,-492.912 2001.06,-471.322"/>
<polygon fill="black" stroke="black" points="2002.84,-474.336 2009.8,-466.349 1999.38,-468.252 2002.84,-474.336"/>
</g>
<!-- node54 -->
<g id="node63" class="node"><title>node54</title>
<polygon fill="none" stroke="black" points="1616,-468 1550,-468 1550,-432 1616,-432 1616,-468"/>
<text text-anchor="middle" x="1583" y="-446.7" font-family="Times Roman,serif" font-size="12.00">dllserver</text>
</g>
<!-- node127&#45;&gt;node54 -->
<g id="edge90" class="edge"><title>node127&#45;&gt;node54</title>
<path fill="none" stroke="black" d="M997.249,-587.151C1096.76,-563.852 1422.5,-487.58 1540.14,-460.036"/>
<polygon fill="black" stroke="black" points="1540.95,-463.442 1549.88,-457.754 1539.35,-456.626 1540.95,-463.442"/>
</g>
<!-- node146 -->
<g id="node70" class="node"><title>node146</title>
<polygon fill="none" stroke="black" points="902,-396 848,-396 848,-360 902,-360 902,-396"/>
<text text-anchor="middle" x="875" y="-374.7" font-family="Times Roman,serif" font-size="12.00">eclrtl</text>
</g>
<!-- node127&#45;&gt;node146 -->
<g id="edge128" class="edge"><title>node127&#45;&gt;node146</title>
<path fill="none" stroke="black" d="M963.238,-575.909C954.842,-545.329 935.91,-481.88 911,-432 906.367,-422.723 900.413,-413.137 894.686,-404.664"/>
<polygon fill="black" stroke="black" points="897.448,-402.506 888.865,-396.295 891.702,-406.503 897.448,-402.506"/>
</g>
<!-- node147 -->
<g id="node81" class="node"><title>node147</title>
<polygon fill="none" stroke="black" points="656,-324 602,-324 602,-288 656,-288 656,-324"/>
<text text-anchor="middle" x="629" y="-302.7" font-family="Times Roman,serif" font-size="12.00">nbcd</text>
</g>
<!-- node127&#45;&gt;node147 -->
<g id="edge126" class="edge"><title>node127&#45;&gt;node147</title>
<path fill="none" stroke="black" d="M939.122,-575.879C924.188,-565.989 905.998,-553.11 891,-540 825.407,-482.662 816.991,-460.111 758,-396 743.303,-380.028 742.005,-373.489 725,-360 706.673,-345.462 683.94,-332.487 665.197,-322.902"/>
<polygon fill="black" stroke="black" points="666.588,-319.684 656.079,-318.342 663.458,-325.945 666.588,-319.684"/>
</g>
<!-- node53 -->
<g id="node93" class="node"><title>node53</title>
<polygon fill="none" stroke="black" points="902,-468 842,-468 842,-432 902,-432 902,-468"/>
<text text-anchor="middle" x="872" y="-446.7" font-family="Times Roman,serif" font-size="12.00">deftype</text>
</g>
<!-- node127&#45;&gt;node53 -->
<g id="edge130" class="edge"><title>node127&#45;&gt;node53</title>
<path fill="none" stroke="black" d="M947.657,-575.796C937.341,-565.883 925.104,-553.009 916,-540 902.306,-520.433 890.643,-495.962 882.772,-477.478"/>
<polygon fill="black" stroke="black" points="885.97,-476.052 878.906,-468.155 879.504,-478.733 885.97,-476.052"/>
</g>
<!-- node64 -->
<g id="node98" class="node"><title>node64</title>
<polygon fill="none" stroke="black" points="1702,-540 1634,-540 1634,-504 1702,-504 1702,-540"/>
<text text-anchor="middle" x="1668" y="-518.7" font-family="Times Roman,serif" font-size="12.00">workunit</text>
</g>
<!-- node127&#45;&gt;node64 -->
<g id="edge138" class="edge"><title>node127&#45;&gt;node64</title>
<path fill="none" stroke="black" d="M997.132,-592.444C1084.73,-587.543 1353.28,-570.887 1574,-540 1590.33,-537.714 1608.13,-534.495 1623.8,-531.41"/>
<polygon fill="black" stroke="black" points="1624.64,-534.811 1633.76,-529.413 1623.27,-527.948 1624.64,-534.811"/>
</g>
<!-- node78&#45;&gt;node151 -->
<g id="edge78" class="edge"><title>node78&#45;&gt;node151</title>
<path fill="none" stroke="black" d="M2064.09,-446.38C2093.6,-440.91 2139.82,-427.58 2164,-396 2212.9,-332.125 2218.79,-288.042 2183,-216 2159.43,-168.555 2137.16,-163.753 2088,-144 2010.32,-112.785 1756.5,-96.838 1660.36,-91.8014"/>
<polygon fill="black" stroke="black" points="1660.4,-88.2988 1650.23,-91.2807 1660.04,-95.2896 1660.4,-88.2988"/>
</g>
<!-- node78&#45;&gt;node66 -->
<g id="edge86" class="edge"><title>node78&#45;&gt;node66</title>
<path fill="none" stroke="black" d="M2036.53,-431.957C2035.84,-413.705 2034.13,-384.732 2030,-360 2028.59,-351.537 2026.47,-342.465 2024.32,-334.218"/>
<polygon fill="black" stroke="black" points="2027.62,-333.043 2021.61,-324.321 2020.87,-334.891 2027.62,-333.043"/>
</g>
<!-- node78&#45;&gt;node153 -->
<g id="edge80" class="edge"><title>node78&#45;&gt;node153</title>
<path fill="none" stroke="black" d="M2042.42,-431.942C2050.69,-401.935 2064.62,-339.961 2056,-288 2050.19,-252.974 2035.87,-214.616 2025.34,-189.536"/>
<polygon fill="black" stroke="black" points="2028.54,-188.102 2021.38,-180.289 2022.1,-190.859 2028.54,-188.102"/>
</g>
<!-- node78&#45;&gt;node149 -->
<g id="edge82" class="edge"><title>node78&#45;&gt;node149</title>
<path fill="none" stroke="black" d="M2064.35,-444.557C2089.85,-437.883 2126.51,-423.838 2144,-396 2169.63,-355.203 2162.31,-296.478 2154.65,-262.079"/>
<polygon fill="black" stroke="black" points="2158.03,-261.145 2152.3,-252.23 2151.22,-262.77 2158.03,-261.145"/>
</g>
<!-- node78&#45;&gt;node59 -->
<g id="edge84" class="edge"><title>node78&#45;&gt;node59</title>
<path fill="none" stroke="black" d="M2021.63,-431.955C1989.02,-393.679 1912.83,-304.232 1875.05,-259.879"/>
<polygon fill="black" stroke="black" points="1877.61,-257.488 1868.46,-252.145 1872.28,-262.027 1877.61,-257.488"/>
</g>
<!-- node78&#45;&gt;node55 -->
<g id="edge88" class="edge"><title>node78&#45;&gt;node55</title>
<path fill="none" stroke="black" d="M2009.69,-438.432C1985.3,-428.102 1948.9,-412.689 1918.98,-400.015"/>
<polygon fill="black" stroke="black" points="1920.09,-396.683 1909.51,-396.006 1917.36,-403.129 1920.09,-396.683"/>
</g>
<!-- node54&#45;&gt;node151 -->
<g id="edge94" class="edge"><title>node54&#45;&gt;node151</title>
<path fill="none" stroke="black" d="M1549.61,-449.54C1429.6,-447.547 1025.15,-437.758 987,-396 976.209,-384.187 976.055,-371.671 987,-360 1072.3,-269.038 1448.52,-400.504 1547,-324 1611.26,-274.075 1621.97,-168.856 1623.24,-118.297"/>
<polygon fill="black" stroke="black" points="1626.74,-118.142 1623.39,-108.094 1619.74,-118.043 1626.74,-118.142"/>
</g>
<!-- node54&#45;&gt;node66 -->
<g id="edge118" class="edge"><title>node54&#45;&gt;node66</title>
<path fill="none" stroke="black" d="M1616.33,-444.699C1655.01,-437.592 1719.89,-422.671 1770,-396 1792,-384.29 1790.67,-371.077 1813,-360 1877.52,-327.992 1902.24,-345.44 1971,-324 1972.41,-323.562 1973.83,-323.099 1975.26,-322.618"/>
<polygon fill="black" stroke="black" points="1976.52,-325.886 1984.75,-319.224 1974.16,-319.295 1976.52,-325.886"/>
</g>
<!-- node54&#45;&gt;node153 -->
<g id="edge96" class="edge"><title>node54&#45;&gt;node153</title>
<path fill="none" stroke="black" d="M1596.5,-431.733C1610.6,-413.053 1633.73,-383.519 1656,-360 1721.56,-290.774 1731.38,-261.8 1815,-216 1866.86,-187.598 1934.68,-173.327 1975.98,-166.802"/>
<polygon fill="black" stroke="black" points="1976.52,-170.26 1985.88,-165.306 1975.47,-163.339 1976.52,-170.26"/>
</g>
<!-- node54&#45;&gt;node149 -->
<g id="edge98" class="edge"><title>node54&#45;&gt;node149</title>
<path fill="none" stroke="black" d="M1616.25,-433.441C1661.54,-410.984 1740.37,-372.262 1770,-360 1859.62,-322.911 1883.97,-318.606 1976,-288 2022.11,-272.665 2075.57,-255.954 2110.26,-245.247"/>
<polygon fill="black" stroke="black" points="2111.44,-248.547 2119.97,-242.259 2109.38,-241.858 2111.44,-248.547"/>
</g>
<!-- node54&#45;&gt;node59 -->
<g id="edge116" class="edge"><title>node54&#45;&gt;node59</title>
<path fill="none" stroke="black" d="M1608.24,-431.82C1622.41,-421.491 1640.34,-408.218 1656,-396 1716.79,-348.574 1786.02,-290.721 1824.09,-258.564"/>
<polygon fill="black" stroke="black" points="1826.35,-261.235 1831.72,-252.105 1821.83,-255.89 1826.35,-261.235"/>
</g>
<!-- node54&#45;&gt;node55 -->
<g id="edge120" class="edge"><title>node54&#45;&gt;node55</title>
<path fill="none" stroke="black" d="M1616.33,-442.665C1660.39,-432.816 1740.36,-414.416 1808,-396 1809.42,-395.613 1810.86,-395.216 1812.31,-394.811"/>
<polygon fill="black" stroke="black" points="1813.33,-398.158 1821.98,-392.041 1811.41,-391.428 1813.33,-398.158"/>
</g>
<!-- node176 -->
<g id="node65" class="node"><title>node176</title>
<ellipse fill="none" stroke="black" cx="1127" cy="-378" rx="130.789" ry="18"/>
<text text-anchor="middle" x="1127" y="-374.7" font-family="Times Roman,serif" font-size="12.00">/usr/lib/x86_64&#45;linux&#45;gnu/libz.so</text>
</g>
<!-- node54&#45;&gt;node176 -->
<g id="edge92" class="edge"><title>node54&#45;&gt;node176</title>
<path fill="none" stroke="black" d="M1549.84,-444.764C1482.1,-434.069 1325.63,-409.363 1223.2,-393.19"/>
<polygon fill="black" stroke="black" points="1223.58,-389.706 1213.16,-391.604 1222.49,-396.621 1223.58,-389.706"/>
</g>
<!-- node54&#45;&gt;node146 -->
<g id="edge100" class="edge"><title>node54&#45;&gt;node146</title>
<path fill="none" stroke="black" d="M1549.96,-447.971C1423.99,-440.148 977.814,-411.602 916,-396 914.728,-395.679 913.446,-395.322 912.16,-394.935"/>
<polygon fill="black" stroke="black" points="912.941,-391.5 902.346,-391.49 910.622,-398.105 912.941,-391.5"/>
</g>
<!-- node177 -->
<g id="node87" class="node"><title>node177</title>
<ellipse fill="none" stroke="black" cx="1347" cy="-378" rx="70.8437" ry="18"/>
<text text-anchor="middle" x="1347" y="-374.7" font-family="Times Roman,serif" font-size="12.00">/usr/lib/libbfd.so</text>
</g>
<!-- node54&#45;&gt;node177 -->
<g id="edge122" class="edge"><title>node54&#45;&gt;node177</title>
<path fill="none" stroke="black" d="M1549.94,-439.913C1511.76,-428.267 1448.36,-408.924 1402.57,-394.954"/>
<polygon fill="black" stroke="black" points="1403.38,-391.541 1392.79,-391.971 1401.34,-398.237 1403.38,-391.541"/>
</g>
<!-- node178 -->
<g id="node89" class="node"><title>node178</title>
<ellipse fill="none" stroke="black" cx="1525" cy="-378" rx="89.0421" ry="18"/>
<text text-anchor="middle" x="1525" y="-374.7" font-family="Times Roman,serif" font-size="12.00">/usr/lib/libiberty_pic.a</text>
</g>
<!-- node54&#45;&gt;node178 -->
<g id="edge124" class="edge"><title>node54&#45;&gt;node178</title>
<path fill="none" stroke="black" d="M1568.36,-431.831C1561.51,-423.325 1553.23,-413.042 1545.74,-403.752"/>
<polygon fill="black" stroke="black" points="1548.43,-401.505 1539.43,-395.913 1542.98,-405.897 1548.43,-401.505"/>
</g>
<!-- node146&#45;&gt;node151 -->
<g id="edge110" class="edge"><title>node146&#45;&gt;node151</title>
<path fill="none" stroke="black" d="M902.057,-365.233C906.651,-363.323 911.418,-361.496 916,-360 986.528,-336.977 1013.47,-358.777 1079,-324 1099.55,-313.095 1097.36,-300.47 1117,-288 1277.52,-186.089 1498.94,-121.915 1585.86,-99.2288"/>
<polygon fill="black" stroke="black" points="1586.97,-102.557 1595.78,-96.6681 1585.22,-95.7787 1586.97,-102.557"/>
</g>
<!-- node186 -->
<g id="node72" class="node"><title>node186</title>
<ellipse fill="none" stroke="black" cx="1245" cy="-306" rx="118.939" ry="18"/>
<text text-anchor="middle" x="1245" y="-302.7" font-family="Times Roman,serif" font-size="12.00">/usr/lib/libboost_regex&#45;mt.so</text>
</g>
<!-- node146&#45;&gt;node186 -->
<g id="edge102" class="edge"><title>node146&#45;&gt;node186</title>
<path fill="none" stroke="black" d="M902.435,-364.834C906.9,-363.019 911.528,-361.326 916,-360 957.977,-347.557 1065.23,-330.963 1145.95,-319.469"/>
<polygon fill="black" stroke="black" points="1146.75,-322.891 1156.16,-318.023 1145.77,-315.96 1146.75,-322.891"/>
</g>
<!-- node183 -->
<g id="node74" class="node"><title>node183</title>
<ellipse fill="none" stroke="black" cx="1460" cy="-306" rx="77.9931" ry="18"/>
<text text-anchor="middle" x="1460" y="-302.7" font-family="Times Roman,serif" font-size="12.00">/usr/lib/libicuuc.so</text>
</g>
<!-- node146&#45;&gt;node183 -->
<g id="edge104" class="edge"><title>node146&#45;&gt;node183</title>
<path fill="none" stroke="black" d="M902.344,-364.502C906.821,-362.729 911.476,-361.137 916,-360 1113.6,-310.354 1171.29,-352.696 1373,-324 1379.77,-323.037 1386.81,-321.867 1393.81,-320.591"/>
<polygon fill="black" stroke="black" points="1394.85,-323.958 1404.02,-318.658 1393.54,-317.08 1394.85,-323.958"/>
</g>
<!-- node184 -->
<g id="node76" class="node"><title>node184</title>
<ellipse fill="none" stroke="black" cx="797" cy="-306" rx="85.1424" ry="18"/>
<text text-anchor="middle" x="797" y="-302.7" font-family="Times Roman,serif" font-size="12.00">/usr/lib/libicui18n.so</text>
</g>
<!-- node146&#45;&gt;node184 -->
<g id="edge106" class="edge"><title>node146&#45;&gt;node184</title>
<path fill="none" stroke="black" d="M855.317,-359.831C845.751,-351.001 834.11,-340.256 823.752,-330.694"/>
<polygon fill="black" stroke="black" points="825.859,-327.876 816.137,-323.665 821.111,-333.02 825.859,-327.876"/>
</g>
<!-- node185 -->
<g id="node78" class="node"><title>node185</title>
<ellipse fill="none" stroke="black" cx="985" cy="-306" rx="85.1424" ry="18"/>
<text text-anchor="middle" x="985" y="-302.7" font-family="Times Roman,serif" font-size="12.00">/usr/lib/libicudata.so</text>
</g>
<!-- node146&#45;&gt;node185 -->
<g id="edge108" class="edge"><title>node146&#45;&gt;node185</title>
<path fill="none" stroke="black" d="M902.191,-360.202C916.551,-350.803 934.342,-339.158 949.749,-329.073"/>
<polygon fill="black" stroke="black" points="952.051,-331.75 958.501,-323.345 948.217,-325.893 952.051,-331.75"/>
</g>
<!-- node146&#45;&gt;node147 -->
<g id="edge112" class="edge"><title>node146&#45;&gt;node147</title>
<path fill="none" stroke="black" d="M847.734,-370.02C803.378,-357.038 715.555,-331.333 665.741,-316.753"/>
<polygon fill="black" stroke="black" points="666.594,-313.356 656.013,-313.906 664.628,-320.075 666.594,-313.356"/>
</g>
<!-- node147&#45;&gt;node151 -->
<g id="edge114" class="edge"><title>node147&#45;&gt;node151</title>
<path fill="none" stroke="black" d="M627.379,-287.869C625.438,-253.614 626.807,-179.631 670,-144 705.92,-114.368 1413.58,-95.1386 1585.57,-90.8907"/>
<polygon fill="black" stroke="black" points="1585.75,-94.3875 1595.66,-90.6436 1585.57,-87.3896 1585.75,-94.3875"/>
</g>
<!-- node53&#45;&gt;node151 -->
<g id="edge132" class="edge"><title>node53&#45;&gt;node151</title>
<path fill="none" stroke="black" d="M860.456,-431.784C846.938,-411.75 822.821,-379.779 795,-360 759.214,-334.558 727.753,-360.266 703,-324 693.98,-310.785 693.024,-300.509 703,-288 816.272,-145.967 1427.03,-101.283 1585.45,-91.9979"/>
<polygon fill="black" stroke="black" points="1585.86,-95.4803 1595.64,-91.4132 1585.46,-88.4918 1585.86,-95.4803"/>
</g>
<!-- node53&#45;&gt;node146 -->
<g id="edge136" class="edge"><title>node53&#45;&gt;node146</title>
<path fill="none" stroke="black" d="M872.757,-431.831C873.078,-424.131 873.459,-414.974 873.816,-406.417"/>
<polygon fill="black" stroke="black" points="877.313,-406.55 874.233,-396.413 870.319,-406.259 877.313,-406.55"/>
</g>
<!-- node53&#45;&gt;node147 -->
<g id="edge134" class="edge"><title>node53&#45;&gt;node147</title>
<path fill="none" stroke="black" d="M849.654,-431.809C819.309,-407.19 767.719,-365.672 758,-360 721.504,-338.699 708.905,-340.495 670,-324 668.613,-323.412 667.202,-322.81 665.777,-322.199"/>
<polygon fill="black" stroke="black" points="666.873,-318.86 656.305,-318.103 664.094,-325.285 666.873,-318.86"/>
</g>
<!-- node64&#45;&gt;node151 -->
<g id="edge140" class="edge"><title>node64&#45;&gt;node151</title>
<path fill="none" stroke="black" d="M1702.14,-519.406C1846.06,-507.553 2396,-452.666 2396,-306 2396,-306 2396,-306 2396,-234 2396,-111.717 2255.36,-170.574 2136,-144 1960.8,-104.994 1745.48,-93.9651 1660.26,-91.0149"/>
<polygon fill="black" stroke="black" points="1660.16,-87.5099 1650.05,-90.6792 1659.93,-94.5061 1660.16,-87.5099"/>
</g>
<!-- node64&#45;&gt;node66 -->
<g id="edge142" class="edge"><title>node64&#45;&gt;node66</title>
<path fill="none" stroke="black" d="M1702.1,-508.83C1752.41,-488.577 1848.41,-446.755 1921,-396 1947.84,-377.234 1974.57,-351.068 1992.81,-331.785"/>
<polygon fill="black" stroke="black" points="1995.58,-333.944 1999.84,-324.244 1990.46,-329.17 1995.58,-333.944"/>
</g>
<!-- node64&#45;&gt;node54 -->
<g id="edge144" class="edge"><title>node64&#45;&gt;node54</title>
<path fill="none" stroke="black" d="M1646.55,-503.831C1636.18,-495.048 1623.58,-484.371 1612.34,-474.849"/>
<polygon fill="black" stroke="black" points="1614.33,-471.956 1604.44,-468.163 1609.81,-477.297 1614.33,-471.956"/>
</g>
<!-- node64&#45;&gt;node146 -->
<g id="edge148" class="edge"><title>node64&#45;&gt;node146</title>
<path fill="none" stroke="black" d="M1633.97,-519.318C1526.56,-510.22 1185.88,-476.492 916,-396 914.743,-395.625 913.473,-395.221 912.199,-394.794"/>
<polygon fill="black" stroke="black" points="913.032,-391.369 902.439,-391.153 910.584,-397.928 913.032,-391.369"/>
</g>
<!-- node64&#45;&gt;node147 -->
<g id="edge146" class="edge"><title>node64&#45;&gt;node147</title>
<path fill="none" stroke="black" d="M1669.19,-503.748C1670.32,-469.284 1667.18,-394.961 1623,-360 1582.89,-328.257 753.658,-331.08 703,-324 690.847,-322.301 677.779,-319.469 666.057,-316.547"/>
<polygon fill="black" stroke="black" points="666.718,-313.103 656.16,-313.983 664.963,-319.879 666.718,-313.103"/>
</g>
<!-- node64&#45;&gt;node53 -->
<g id="edge150" class="edge"><title>node64&#45;&gt;node53</title>
<path fill="none" stroke="black" d="M1633.8,-518.906C1505.17,-507.272 1050.79,-466.172 912.338,-453.649"/>
<polygon fill="black" stroke="black" points="912.447,-450.144 902.172,-452.729 911.816,-457.116 912.447,-450.144"/>
</g>
<!-- node74&#45;&gt;node151 -->
<g id="edge156" class="edge"><title>node74&#45;&gt;node151</title>
<path fill="none" stroke="black" d="M2271.22,-587.116C2323.76,-572.014 2434,-530.709 2434,-450 2434,-450 2434,-450 2434,-234 2434,-201.847 2533.14,-219.421 2270,-144 2154.17,-110.801 1780.55,-95.3906 1660.51,-91.212"/>
<polygon fill="black" stroke="black" points="1660.46,-87.7084 1650.35,-90.8642 1660.22,-94.7043 1660.46,-87.7084"/>
</g>
<!-- node74&#45;&gt;node66 -->
<g id="edge164" class="edge"><title>node74&#45;&gt;node66</title>
<path fill="none" stroke="black" d="M2237,-575.871C2220,-533.693 2172.94,-427.454 2106,-360 2091.81,-345.705 2073.1,-333.687 2056.41,-324.645"/>
<polygon fill="black" stroke="black" points="2057.88,-321.461 2047.39,-319.933 2054.63,-327.665 2057.88,-321.461"/>
</g>
<!-- node74&#45;&gt;node153 -->
<g id="edge158" class="edge"><title>node74&#45;&gt;node153</title>
<path fill="none" stroke="black" d="M2271.02,-576.633C2304.73,-552.602 2358,-505.8 2358,-450 2358,-450 2358,-450 2358,-378 2358,-233.893 2139.08,-182.311 2050.02,-167.288"/>
<polygon fill="black" stroke="black" points="2050.5,-163.821 2040.07,-165.672 2049.38,-170.731 2050.5,-163.821"/>
</g>
<!-- node74&#45;&gt;node149 -->
<g id="edge160" class="edge"><title>node74&#45;&gt;node149</title>
<path fill="none" stroke="black" d="M2249.94,-575.936C2262.16,-535.636 2286.69,-435.956 2258,-360 2242.32,-318.477 2206.03,-281.778 2179.19,-258.851"/>
<polygon fill="black" stroke="black" points="2181.12,-255.903 2171.2,-252.188 2176.64,-261.28 2181.12,-255.903"/>
</g>
<!-- node74&#45;&gt;node59 -->
<g id="edge162" class="edge"><title>node74&#45;&gt;node59</title>
<path fill="none" stroke="black" d="M2242.26,-575.982C2240.09,-557.5 2235.58,-528.122 2227,-504 2185.99,-388.631 2163.29,-346.992 2056,-288 2003.45,-259.107 1934.65,-245.052 1892.16,-238.694"/>
<polygon fill="black" stroke="black" points="1892.6,-235.222 1882.21,-237.274 1891.62,-242.152 1892.6,-235.222"/>
</g>
<!-- node74&#45;&gt;node64 -->
<g id="edge154" class="edge"><title>node74&#45;&gt;node64</title>
<path fill="none" stroke="black" d="M2216.99,-590.624C2125.43,-579.179 1826.22,-541.778 1712.45,-527.556"/>
<polygon fill="black" stroke="black" points="1712.71,-524.061 1702.35,-526.294 1711.84,-531.007 1712.71,-524.061"/>
</g>
</g>
</svg>
