<?xml version="1.0" encoding="UTF-8" standalone="no"?>
<!DOCTYPE svg PUBLIC "-//W3C//DTD SVG 1.1//EN"
 "http://www.w3.org/Graphics/SVG/1.1/DTD/svg11.dtd">
<!-- Generated by graphviz version 2.26.3 (20100126.1600)
 -->
<!-- Title: GG Pages: 1 -->
<svg width="468pt" height="548pt"
 viewBox="0.00 0.00 468.00 548.00" xmlns="http://www.w3.org/2000/svg" xmlns:xlink="http://www.w3.org/1999/xlink">
<g id="graph1" class="graph" transform="scale(1 1) rotate(0) translate(4 544)">
<title>GG</title>
<polygon fill="white" stroke="white" points="-4,5 -4,-544 465,-544 465,5 -4,5"/>
<!-- node76 -->
<g id="node1" class="node"><title>node76</title>
<polygon fill="none" stroke="black" points="238.202,-527.562 190,-540 141.798,-527.562 141.843,-507.438 238.157,-507.438 238.202,-527.562"/>
<text text-anchor="middle" x="190" y="-518.7" font-family="Times Roman,serif" font-size="12.00">dfuxref</text>
</g>
<!-- node151 -->
<g id="node2" class="node"><title>node151</title>
<polygon fill="none" stroke="black" points="274,-108 220,-108 220,-72 274,-72 274,-108"/>
<text text-anchor="middle" x="247" y="-86.7" font-family="Times Roman,serif" font-size="12.00">jlib</text>
</g>
<!-- node76&#45;&gt;node151 -->
<g id="edge2" class="edge"><title>node76&#45;&gt;node151</title>
<path fill="none" stroke="black" d="M141.795,-511.416C113.472,-503.281 78.366,-489.672 53,-468 17.7066,-437.846 0,-424.421 0,-378 0,-378 0,-378 0,-234 0,-138.156 140.516,-104.972 209.58,-94.4506"/>
<polygon fill="black" stroke="black" points="210.224,-97.894 219.623,-93.0039 209.226,-90.9656 210.224,-97.894"/>
</g>
<!-- node153 -->
<g id="node12" class="node"><title>node153</title>
<polygon fill="none" stroke="black" points="219,-180 165,-180 165,-144 219,-144 219,-180"/>
<text text-anchor="middle" x="192" y="-158.7" font-family="Times Roman,serif" font-size="12.00">mp</text>
</g>
<!-- node76&#45;&gt;node153 -->
<g id="edge12" class="edge"><title>node76&#45;&gt;node153</title>
<path fill="none" stroke="black" d="M154.746,-507.345C109.844,-486.048 38,-441.977 38,-378 38,-378 38,-378 38,-306 38,-264.364 36.3462,-247.125 64,-216 87.541,-189.504 126.233,-175.633 154.925,-168.624"/>
<polygon fill="black" stroke="black" points="156.018,-171.965 164.997,-166.341 154.47,-165.138 156.018,-171.965"/>
</g>
<!-- node149 -->
<g id="node15" class="node"><title>node149</title>
<polygon fill="none" stroke="black" points="127,-252 73,-252 73,-216 127,-216 127,-252"/>
<text text-anchor="middle" x="100" y="-230.7" font-family="Times Roman,serif" font-size="12.00">hrpc</text>
</g>
<!-- node76&#45;&gt;node149 -->
<g id="edge16" class="edge"><title>node76&#45;&gt;node149</title>
<path fill="none" stroke="black" d="M178.795,-507.348C162.014,-484.698 130.463,-439.267 113,-396 100.731,-365.602 100.577,-356.585 97,-324 94.7432,-303.441 95.6201,-280.096 96.9945,-262.335"/>
<polygon fill="black" stroke="black" points="100.485,-262.596 97.866,-252.33 93.5113,-261.988 100.485,-262.596"/>
</g>
<!-- node59 -->
<g id="node19" class="node"><title>node59</title>
<polygon fill="none" stroke="black" points="375,-252 317,-252 317,-216 375,-216 375,-252"/>
<text text-anchor="middle" x="346" y="-230.7" font-family="Times Roman,serif" font-size="12.00">remote</text>
</g>
<!-- node76&#45;&gt;node59 -->
<g id="edge22" class="edge"><title>node76&#45;&gt;node59</title>
<path fill="none" stroke="black" d="M238.274,-510.308C290.323,-494.571 368.965,-460.747 393,-396 410.327,-349.324 383.91,-293.193 364.209,-260.753"/>
<polygon fill="black" stroke="black" points="367.156,-258.865 358.873,-252.259 361.229,-262.589 367.156,-258.865"/>
</g>
<!-- node66 -->
<g id="node23" class="node"><title>node66</title>
<polygon fill="none" stroke="black" points="242,-324 180,-324 180,-288 242,-288 242,-324"/>
<text text-anchor="middle" x="211" y="-302.7" font-family="Times Roman,serif" font-size="12.00">dalibase</text>
</g>
<!-- node76&#45;&gt;node66 -->
<g id="edge28" class="edge"><title>node76&#45;&gt;node66</title>
<path fill="none" stroke="black" d="M191.443,-507.153C194.908,-471.518 203.741,-380.665 208.255,-334.239"/>
<polygon fill="black" stroke="black" points="211.742,-334.538 209.226,-324.246 204.775,-333.86 211.742,-334.538"/>
</g>
<!-- node55 -->
<g id="node29" class="node"><title>node55</title>
<polygon fill="none" stroke="black" points="384,-396 294,-396 294,-360 384,-360 384,-396"/>
<text text-anchor="middle" x="339" y="-374.7" font-family="Times Roman,serif" font-size="12.00">environment</text>
</g>
<!-- node76&#45;&gt;node55 -->
<g id="edge38" class="edge"><title>node76&#45;&gt;node55</title>
<path fill="none" stroke="black" d="M238.066,-509.465C261.611,-501.147 288.747,-487.99 307,-468 322.662,-450.848 330.765,-425.524 334.892,-406.104"/>
<polygon fill="black" stroke="black" points="338.381,-406.488 336.798,-396.012 331.503,-405.188 338.381,-406.488"/>
</g>
<!-- node77 -->
<g id="node35" class="node"><title>node77</title>
<polygon fill="none" stroke="black" points="298,-468 218,-468 218,-432 298,-432 298,-468"/>
<text text-anchor="middle" x="258" y="-446.7" font-family="Times Roman,serif" font-size="12.00">dfuXRefLib</text>
</g>
<!-- node76&#45;&gt;node77 -->
<g id="edge48" class="edge"><title>node76&#45;&gt;node77</title>
<path fill="none" stroke="black" d="M203.761,-507.43C212.38,-498.304 223.727,-486.289 233.814,-475.609"/>
<polygon fill="black" stroke="black" points="236.557,-477.801 240.879,-468.128 231.468,-472.995 236.557,-477.801"/>
</g>
<!-- node152 -->
<g id="node4" class="node"><title>node152</title>
<polygon fill="none" stroke="black" points="125,-36 85.0564,-18 125,-3.55271e-15 164.944,-18 125,-36"/>
<text text-anchor="middle" x="125" y="-14.7" font-family="Times Roman,serif" font-size="12.00">lzma</text>
</g>
<!-- node151&#45;&gt;node152 -->
<g id="edge4" class="edge"><title>node151&#45;&gt;node152</title>
<path fill="none" stroke="black" d="M219.924,-74.0209C199.47,-61.9494 171.554,-45.4743 151.293,-33.5172"/>
<polygon fill="black" stroke="black" points="152.968,-30.4417 142.577,-28.3733 149.41,-36.4701 152.968,-30.4417"/>
</g>
<!-- node187 -->
<g id="node6" class="node"><title>node187</title>
<ellipse fill="none" stroke="black" cx="210" cy="-18" rx="27" ry="18"/>
<text text-anchor="middle" x="210" y="-14.7" font-family="Times Roman,serif" font-size="12.00">dl</text>
</g>
<!-- node151&#45;&gt;node187 -->
<g id="edge6" class="edge"><title>node151&#45;&gt;node187</title>
<path fill="none" stroke="black" d="M237.663,-71.8314C233.405,-63.5451 228.28,-53.5727 223.605,-44.4748"/>
<polygon fill="black" stroke="black" points="226.635,-42.7123 218.951,-35.4177 220.408,-45.9118 226.635,-42.7123"/>
</g>
<!-- node179 -->
<g id="node8" class="node"><title>node179</title>
<ellipse fill="none" stroke="black" cx="285" cy="-18" rx="30.0465" ry="18"/>
<text text-anchor="middle" x="285" y="-14.7" font-family="Times Roman,serif" font-size="12.00">crypt</text>
</g>
<!-- node151&#45;&gt;node179 -->
<g id="edge8" class="edge"><title>node151&#45;&gt;node179</title>
<path fill="none" stroke="black" d="M256.589,-71.8314C260.962,-63.5451 266.226,-53.5727 271.027,-44.4748"/>
<polygon fill="black" stroke="black" points="274.235,-45.8952 275.807,-35.4177 268.044,-42.6279 274.235,-45.8952"/>
</g>
<!-- node188 -->
<g id="node10" class="node"><title>node188</title>
<ellipse fill="none" stroke="black" cx="360" cy="-18" rx="27" ry="18"/>
<text text-anchor="middle" x="360" y="-14.7" font-family="Times Roman,serif" font-size="12.00">rt</text>
</g>
<!-- node151&#45;&gt;node188 -->
<g id="edge10" class="edge"><title>node151&#45;&gt;node188</title>
<path fill="none" stroke="black" d="M274.066,-72.7542C291.414,-61.7009 313.898,-47.375 331.516,-36.1494"/>
<polygon fill="black" stroke="black" points="333.679,-38.9209 340.232,-30.5955 329.918,-33.0174 333.679,-38.9209"/>
</g>
<!-- node153&#45;&gt;node151 -->
<g id="edge14" class="edge"><title>node153&#45;&gt;node151</title>
<path fill="none" stroke="black" d="M205.879,-143.831C212.214,-135.539 219.838,-125.557 226.793,-116.453"/>
<polygon fill="black" stroke="black" points="229.645,-118.485 232.934,-108.413 224.083,-114.235 229.645,-118.485"/>
</g>
<!-- node149&#45;&gt;node151 -->
<g id="edge18" class="edge"><title>node149&#45;&gt;node151</title>
<path fill="none" stroke="black" d="M108.144,-215.665C117.518,-196.113 134.436,-165.115 156,-144 171.761,-128.568 192.755,-115.732 210.608,-106.453"/>
<polygon fill="black" stroke="black" points="212.247,-109.546 219.612,-101.93 209.105,-103.291 212.247,-109.546"/>
</g>
<!-- node149&#45;&gt;node153 -->
<g id="edge20" class="edge"><title>node149&#45;&gt;node153</title>
<path fill="none" stroke="black" d="M123.215,-215.831C134.547,-206.963 148.346,-196.164 160.603,-186.572"/>
<polygon fill="black" stroke="black" points="163.074,-189.082 168.792,-180.163 158.76,-183.57 163.074,-189.082"/>
</g>
<!-- node59&#45;&gt;node151 -->
<g id="edge24" class="edge"><title>node59&#45;&gt;node151</title>
<path fill="none" stroke="black" d="M333.462,-215.762C316.204,-190.66 285.02,-145.302 265.196,-116.467"/>
<polygon fill="black" stroke="black" points="267.986,-114.347 259.437,-108.09 262.218,-118.313 267.986,-114.347"/>
</g>
<!-- node59&#45;&gt;node153 -->
<g id="edge26" class="edge"><title>node59&#45;&gt;node153</title>
<path fill="none" stroke="black" d="M316.671,-220.288C291.534,-208.536 255.223,-191.559 228.266,-178.955"/>
<polygon fill="black" stroke="black" points="229.695,-175.76 219.154,-174.695 226.731,-182.101 229.695,-175.76"/>
</g>
<!-- node66&#45;&gt;node151 -->
<g id="edge30" class="edge"><title>node66&#45;&gt;node151</title>
<path fill="none" stroke="black" d="M214.007,-287.955C220.281,-250.314 234.802,-163.187 242.313,-118.125"/>
<polygon fill="black" stroke="black" points="245.784,-118.584 243.976,-108.145 238.879,-117.434 245.784,-118.584"/>
</g>
<!-- node66&#45;&gt;node153 -->
<g id="edge32" class="edge"><title>node66&#45;&gt;node153</title>
<path fill="none" stroke="black" d="M208.594,-287.762C205.353,-263.201 199.553,-219.247 195.741,-190.354"/>
<polygon fill="black" stroke="black" points="199.165,-189.546 194.387,-180.09 192.225,-190.462 199.165,-189.546"/>
</g>
<!-- node66&#45;&gt;node149 -->
<g id="edge34" class="edge"><title>node66&#45;&gt;node149</title>
<path fill="none" stroke="black" d="M182.99,-287.831C168.709,-278.568 151.18,-267.198 135.917,-257.297"/>
<polygon fill="black" stroke="black" points="137.528,-254.171 127.234,-251.665 133.719,-260.043 137.528,-254.171"/>
</g>
<!-- node66&#45;&gt;node59 -->
<g id="edge36" class="edge"><title>node66&#45;&gt;node59</title>
<path fill="none" stroke="black" d="M242.311,-289.301C261.852,-278.879 287.138,-265.393 307.847,-254.348"/>
<polygon fill="black" stroke="black" points="309.531,-257.417 316.707,-249.623 306.236,-251.241 309.531,-257.417"/>
</g>
<!-- node55&#45;&gt;node151 -->
<g id="edge40" class="edge"><title>node55&#45;&gt;node151</title>
<path fill="none" stroke="black" d="M351.673,-359.997C371.435,-329.548 405.234,-266.286 384,-216 364.037,-168.724 316.12,-131.614 282.614,-110.251"/>
<polygon fill="black" stroke="black" points="284.349,-107.208 274.007,-104.905 280.655,-113.155 284.349,-107.208"/>
</g>
<!-- node55&#45;&gt;node153 -->
<g id="edge42" class="edge"><title>node55&#45;&gt;node153</title>
<path fill="none" stroke="black" d="M326.72,-359.955C300.779,-321.838 240.301,-232.973 209.99,-188.434"/>
<polygon fill="black" stroke="black" points="212.869,-186.443 204.349,-180.145 207.082,-190.381 212.869,-186.443"/>
</g>
<!-- node55&#45;&gt;node59 -->
<g id="edge44" class="edge"><title>node55&#45;&gt;node59</title>
<path fill="none" stroke="black" d="M339.887,-359.762C341.081,-335.201 343.217,-291.247 344.622,-262.354"/>
<polygon fill="black" stroke="black" points="348.131,-262.248 345.121,-252.09 341.139,-261.908 348.131,-262.248"/>
</g>
<!-- node55&#45;&gt;node66 -->
<g id="edge46" class="edge"><title>node55&#45;&gt;node66</title>
<path fill="none" stroke="black" d="M306.7,-359.831C289.924,-350.395 269.261,-338.772 251.433,-328.744"/>
<polygon fill="black" stroke="black" points="252.836,-325.517 242.405,-323.665 249.404,-331.618 252.836,-325.517"/>
</g>
<!-- node77&#45;&gt;node151 -->
<g id="edge50" class="edge"><title>node77&#45;&gt;node151</title>
<path fill="none" stroke="black" d="M298.392,-440.643C357.341,-424.316 460,-384.599 460,-306 460,-306 460,-306 460,-234 460,-150.241 345.562,-111.904 284.449,-97.4022"/>
<polygon fill="black" stroke="black" points="284.937,-93.9241 274.41,-95.1206 283.386,-100.75 284.937,-93.9241"/>
</g>
<!-- node77&#45;&gt;node153 -->
<g id="edge52" class="edge"><title>node77&#45;&gt;node153</title>
<path fill="none" stroke="black" d="M240.069,-431.905C218.801,-409.038 184.527,-367.398 171,-324 156.836,-278.558 170.27,-223.069 181.204,-190.239"/>
<polygon fill="black" stroke="black" points="184.64,-191.012 184.627,-180.417 178.031,-188.708 184.64,-191.012"/>
</g>
<!-- node77&#45;&gt;node149 -->
<g id="edge54" class="edge"><title>node77&#45;&gt;node149</title>
<path fill="none" stroke="black" d="M217.795,-441.666C191.352,-434.122 158.048,-420.332 138,-396 106.286,-357.509 100.064,-297.258 99.3755,-262.101"/>
<polygon fill="black" stroke="black" points="102.875,-262.027 99.3172,-252.047 95.8753,-262.068 102.875,-262.027"/>
</g>
<!-- node77&#45;&gt;node59 -->
<g id="edge56" class="edge"><title>node77&#45;&gt;node59</title>
<path fill="none" stroke="black" d="M262.549,-431.785C267.353,-413.399 275.533,-384.323 285,-360 298.6,-325.055 317.965,-286.465 331.205,-261.316"/>
<polygon fill="black" stroke="black" points="334.356,-262.845 335.955,-252.371 328.173,-259.562 334.356,-262.845"/>
</g>
<!-- node77&#45;&gt;node66 -->
<g id="edge58" class="edge"><title>node77&#45;&gt;node66</title>
<path fill="none" stroke="black" d="M252.047,-431.762C243.996,-407.093 229.558,-362.86 220.13,-333.973"/>
<polygon fill="black" stroke="black" points="223.334,-332.51 216.904,-324.09 216.68,-334.682 223.334,-332.51"/>
</g>
<!-- node77&#45;&gt;node55 -->
<g id="edge60" class="edge"><title>node77&#45;&gt;node55</title>
<path fill="none" stroke="black" d="M278.44,-431.831C288.32,-423.048 300.332,-412.371 311.045,-402.849"/>
<polygon fill="black" stroke="black" points="313.418,-405.422 318.567,-396.163 308.767,-400.191 313.418,-405.422"/>
</g>
</g>
</svg>
