<?xml version="1.0" encoding="UTF-8" standalone="no"?>
<!DOCTYPE svg PUBLIC "-//W3C//DTD SVG 1.1//EN"
 "http://www.w3.org/Graphics/SVG/1.1/DTD/svg11.dtd">
<!-- Generated by graphviz version 2.26.3 (20100126.1600)
 -->
<!-- Title: GG Pages: 1 -->
<svg width="1261pt" height="548pt"
 viewBox="0.00 0.00 1261.01 548.00" xmlns="http://www.w3.org/2000/svg" xmlns:xlink="http://www.w3.org/1999/xlink">
<g id="graph1" class="graph" transform="scale(1 1) rotate(0) translate(4 544)">
<title>GG</title>
<polygon fill="white" stroke="white" points="-4,5 -4,-544 1258.01,-544 1258.01,5 -4,5"/>
<!-- node48 -->
<g id="node1" class="node"><title>node48</title>
<polygon fill="none" stroke="black" points="191.078,-527.562 149,-540 106.922,-527.562 106.961,-507.438 191.039,-507.438 191.078,-527.562"/>
<text text-anchor="middle" x="149" y="-518.7" font-family="Times Roman,serif" font-size="12.00">wuget</text>
</g>
<!-- node151 -->
<g id="node2" class="node"><title>node151</title>
<polygon fill="none" stroke="black" points="285,-108 231,-108 231,-72 285,-72 285,-108"/>
<text text-anchor="middle" x="258" y="-86.7" font-family="Times Roman,serif" font-size="12.00">jlib</text>
</g>
<!-- node48&#45;&gt;node151 -->
<g id="edge2" class="edge"><title>node48&#45;&gt;node151</title>
<path fill="none" stroke="black" d="M114.816,-507.334C70.8265,-485.886 0,-441.495 0,-378 0,-378 0,-378 0,-234 0,-134.017 149.564,-102.807 220.941,-93.6058"/>
<polygon fill="black" stroke="black" points="221.371,-97.0794 230.877,-92.4023 220.529,-90.1302 221.371,-97.0794"/>
</g>
<!-- node54 -->
<g id="node12" class="node"><title>node54</title>
<polygon fill="none" stroke="black" points="331,-468 265,-468 265,-432 331,-432 331,-468"/>
<text text-anchor="middle" x="298" y="-446.7" font-family="Times Roman,serif" font-size="12.00">dllserver</text>
</g>
<!-- node48&#45;&gt;node54 -->
<g id="edge12" class="edge"><title>node48&#45;&gt;node54</title>
<path fill="none" stroke="black" d="M179.152,-507.43C201.17,-496.79 231.313,-482.225 255.732,-470.425"/>
<polygon fill="black" stroke="black" points="257.301,-473.554 264.782,-466.052 254.255,-467.251 257.301,-473.554"/>
</g>
<!-- node152 -->
<g id="node4" class="node"><title>node152</title>
<polygon fill="none" stroke="black" points="136,-36 96.0564,-18 136,-3.55271e-15 175.944,-18 136,-36"/>
<text text-anchor="middle" x="136" y="-14.7" font-family="Times Roman,serif" font-size="12.00">lzma</text>
</g>
<!-- node151&#45;&gt;node152 -->
<g id="edge4" class="edge"><title>node151&#45;&gt;node152</title>
<path fill="none" stroke="black" d="M230.924,-74.0209C210.47,-61.9494 182.554,-45.4743 162.293,-33.5172"/>
<polygon fill="black" stroke="black" points="163.968,-30.4417 153.577,-28.3733 160.41,-36.4701 163.968,-30.4417"/>
</g>
<!-- node187 -->
<g id="node6" class="node"><title>node187</title>
<ellipse fill="none" stroke="black" cx="221" cy="-18" rx="27" ry="18"/>
<text text-anchor="middle" x="221" y="-14.7" font-family="Times Roman,serif" font-size="12.00">dl</text>
</g>
<!-- node151&#45;&gt;node187 -->
<g id="edge6" class="edge"><title>node151&#45;&gt;node187</title>
<path fill="none" stroke="black" d="M248.663,-71.8314C244.405,-63.5451 239.28,-53.5727 234.605,-44.4748"/>
<polygon fill="black" stroke="black" points="237.635,-42.7123 229.951,-35.4177 231.408,-45.9118 237.635,-42.7123"/>
</g>
<!-- node179 -->
<g id="node8" class="node"><title>node179</title>
<ellipse fill="none" stroke="black" cx="296" cy="-18" rx="30.0465" ry="18"/>
<text text-anchor="middle" x="296" y="-14.7" font-family="Times Roman,serif" font-size="12.00">crypt</text>
</g>
<!-- node151&#45;&gt;node179 -->
<g id="edge8" class="edge"><title>node151&#45;&gt;node179</title>
<path fill="none" stroke="black" d="M267.589,-71.8314C271.962,-63.5451 277.226,-53.5727 282.027,-44.4748"/>
<polygon fill="black" stroke="black" points="285.235,-45.8952 286.807,-35.4177 279.044,-42.6279 285.235,-45.8952"/>
</g>
<!-- node188 -->
<g id="node10" class="node"><title>node188</title>
<ellipse fill="none" stroke="black" cx="371" cy="-18" rx="27" ry="18"/>
<text text-anchor="middle" x="371" y="-14.7" font-family="Times Roman,serif" font-size="12.00">rt</text>
</g>
<!-- node151&#45;&gt;node188 -->
<g id="edge10" class="edge"><title>node151&#45;&gt;node188</title>
<path fill="none" stroke="black" d="M285.066,-72.7542C302.414,-61.7009 324.898,-47.375 342.516,-36.1494"/>
<polygon fill="black" stroke="black" points="344.679,-38.9209 351.232,-30.5955 340.918,-33.0174 344.679,-38.9209"/>
</g>
<!-- node54&#45;&gt;node151 -->
<g id="edge16" class="edge"><title>node54&#45;&gt;node151</title>
<path fill="none" stroke="black" d="M331.32,-448.92C455.819,-444.672 893.487,-427.763 1029,-396 1132.26,-371.798 1250,-412.055 1250,-306 1250,-306 1250,-306 1250,-234 1250,-193.118 1262.03,-170.62 1231,-144 1194.86,-112.995 469.599,-94.7565 295.385,-90.8123"/>
<polygon fill="black" stroke="black" points="295.255,-87.3086 285.179,-90.5834 295.098,-94.3068 295.255,-87.3086"/>
</g>
<!-- node176 -->
<g id="node14" class="node"><title>node176</title>
<ellipse fill="none" stroke="black" cx="533" cy="-378" rx="130.789" ry="18"/>
<text text-anchor="middle" x="533" y="-374.7" font-family="Times Roman,serif" font-size="12.00">/usr/lib/x86_64&#45;linux&#45;gnu/libz.so</text>
</g>
<!-- node54&#45;&gt;node176 -->
<g id="edge14" class="edge"><title>node54&#45;&gt;node176</title>
<path fill="none" stroke="black" d="M331.171,-439.837C367.004,-428.858 424.951,-411.104 469.583,-397.43"/>
<polygon fill="black" stroke="black" points="470.642,-400.766 479.178,-394.49 468.592,-394.073 470.642,-400.766"/>
</g>
<!-- node153 -->
<g id="node17" class="node"><title>node153</title>
<polygon fill="none" stroke="black" points="230,-180 176,-180 176,-144 230,-144 230,-180"/>
<text text-anchor="middle" x="203" y="-158.7" font-family="Times Roman,serif" font-size="12.00">mp</text>
</g>
<!-- node54&#45;&gt;node153 -->
<g id="edge18" class="edge"><title>node54&#45;&gt;node153</title>
<path fill="none" stroke="black" d="M264.813,-445.243C231.025,-438.956 178.674,-425.075 143,-396 85.2159,-348.905 76.8251,-323.86 57,-252 52.7448,-236.576 47.8568,-229.13 57,-216 69.7591,-197.677 126.871,-180.511 165.766,-170.641"/>
<polygon fill="black" stroke="black" points="166.849,-173.979 175.712,-168.174 165.164,-167.185 166.849,-173.979"/>
</g>
<!-- node149 -->
<g id="node20" class="node"><title>node149</title>
<polygon fill="none" stroke="black" points="120,-252 66,-252 66,-216 120,-216 120,-252"/>
<text text-anchor="middle" x="93" y="-230.7" font-family="Times Roman,serif" font-size="12.00">hrpc</text>
</g>
<!-- node54&#45;&gt;node149 -->
<g id="edge22" class="edge"><title>node54&#45;&gt;node149</title>
<path fill="none" stroke="black" d="M264.805,-439.018C240.55,-429.948 207.717,-415.416 183,-396 150.686,-370.617 145.055,-359.865 125,-324 113.988,-304.307 105.643,-280.126 100.24,-261.789"/>
<polygon fill="black" stroke="black" points="103.562,-260.677 97.4715,-252.008 96.8269,-262.583 103.562,-260.677"/>
</g>
<!-- node146 -->
<g id="node24" class="node"><title>node146</title>
<polygon fill="none" stroke="black" points="580,-252 526,-252 526,-216 580,-216 580,-252"/>
<text text-anchor="middle" x="553" y="-230.7" font-family="Times Roman,serif" font-size="12.00">eclrtl</text>
</g>
<!-- node54&#45;&gt;node146 -->
<g id="edge28" class="edge"><title>node54&#45;&gt;node146</title>
<path fill="none" stroke="black" d="M316.105,-431.898C334.886,-413.349 365.326,-383.918 393,-360 435.728,-323.071 487.424,-283.174 520.263,-258.388"/>
<polygon fill="black" stroke="black" points="522.709,-260.928 528.595,-252.119 518.5,-255.335 522.709,-260.928"/>
</g>
<!-- node59 -->
<g id="node38" class="node"><title>node59</title>
<polygon fill="none" stroke="black" points="272,-252 214,-252 214,-216 272,-216 272,-252"/>
<text text-anchor="middle" x="243" y="-230.7" font-family="Times Roman,serif" font-size="12.00">remote</text>
</g>
<!-- node54&#45;&gt;node59 -->
<g id="edge44" class="edge"><title>node54&#45;&gt;node59</title>
<path fill="none" stroke="black" d="M272.534,-431.946C261.573,-422.608 249.929,-410.191 244,-396 225.654,-352.093 231.121,-295.463 236.938,-262.105"/>
<polygon fill="black" stroke="black" points="240.404,-262.612 238.809,-252.138 233.524,-261.32 240.404,-262.612"/>
</g>
<!-- node66 -->
<g id="node42" class="node"><title>node66</title>
<polygon fill="none" stroke="black" points="196,-324 134,-324 134,-288 196,-288 196,-324"/>
<text text-anchor="middle" x="165" y="-302.7" font-family="Times Roman,serif" font-size="12.00">dalibase</text>
</g>
<!-- node54&#45;&gt;node66 -->
<g id="edge50" class="edge"><title>node54&#45;&gt;node66</title>
<path fill="none" stroke="black" d="M264.776,-435.246C246.819,-425.989 225.263,-412.648 210,-396 193.513,-378.017 181.622,-352.87 174.219,-333.727"/>
<polygon fill="black" stroke="black" points="177.499,-332.506 170.757,-324.334 170.931,-334.928 177.499,-332.506"/>
</g>
<!-- node55 -->
<g id="node48" class="node"><title>node55</title>
<polygon fill="none" stroke="black" points="343,-396 253,-396 253,-360 343,-360 343,-396"/>
<text text-anchor="middle" x="298" y="-374.7" font-family="Times Roman,serif" font-size="12.00">environment</text>
</g>
<!-- node54&#45;&gt;node55 -->
<g id="edge60" class="edge"><title>node54&#45;&gt;node55</title>
<path fill="none" stroke="black" d="M298,-431.831C298,-424.131 298,-414.974 298,-406.417"/>
<polygon fill="black" stroke="black" points="301.5,-406.413 298,-396.413 294.5,-406.413 301.5,-406.413"/>
</g>
<!-- node177 -->
<g id="node54" class="node"><title>node177</title>
<ellipse fill="none" stroke="black" cx="753" cy="-378" rx="70.8437" ry="18"/>
<text text-anchor="middle" x="753" y="-374.7" font-family="Times Roman,serif" font-size="12.00">/usr/lib/libbfd.so</text>
</g>
<!-- node54&#45;&gt;node177 -->
<g id="edge70" class="edge"><title>node54&#45;&gt;node177</title>
<path fill="none" stroke="black" d="M331.25,-446.1C396.859,-438.208 547.507,-419.117 673,-396 678.83,-394.926 684.88,-393.725 690.924,-392.467"/>
<polygon fill="black" stroke="black" points="692,-395.817 701.051,-390.309 690.541,-388.97 692,-395.817"/>
</g>
<!-- node178 -->
<g id="node56" class="node"><title>node178</title>
<ellipse fill="none" stroke="black" cx="931" cy="-378" rx="89.0421" ry="18"/>
<text text-anchor="middle" x="931" y="-374.7" font-family="Times Roman,serif" font-size="12.00">/usr/lib/libiberty_pic.a</text>
</g>
<!-- node54&#45;&gt;node178 -->
<g id="edge72" class="edge"><title>node54&#45;&gt;node178</title>
<path fill="none" stroke="black" d="M331.295,-447.583C415.555,-441.263 643.989,-422.852 833,-396 840.707,-394.905 848.733,-393.639 856.727,-392.296"/>
<polygon fill="black" stroke="black" points="857.548,-395.706 866.809,-390.56 856.36,-388.807 857.548,-395.706"/>
</g>
<!-- node153&#45;&gt;node151 -->
<g id="edge20" class="edge"><title>node153&#45;&gt;node151</title>
<path fill="none" stroke="black" d="M216.879,-143.831C223.214,-135.539 230.838,-125.557 237.793,-116.453"/>
<polygon fill="black" stroke="black" points="240.645,-118.485 243.934,-108.413 235.083,-114.235 240.645,-118.485"/>
</g>
<!-- node149&#45;&gt;node151 -->
<g id="edge24" class="edge"><title>node149&#45;&gt;node151</title>
<path fill="none" stroke="black" d="M97.1041,-215.86C102.472,-195.894 113.678,-163.985 134,-144 157.975,-120.423 193.929,-106.326 220.958,-98.4806"/>
<polygon fill="black" stroke="black" points="222.118,-101.792 230.837,-95.7731 220.268,-95.0409 222.118,-101.792"/>
</g>
<!-- node149&#45;&gt;node153 -->
<g id="edge26" class="edge"><title>node149&#45;&gt;node153</title>
<path fill="none" stroke="black" d="M120.191,-216.202C134.338,-206.943 151.816,-195.502 167.063,-185.522"/>
<polygon fill="black" stroke="black" points="169.29,-188.248 175.741,-179.843 165.457,-182.391 169.29,-188.248"/>
</g>
<!-- node146&#45;&gt;node151 -->
<g id="edge38" class="edge"><title>node146&#45;&gt;node151</title>
<path fill="none" stroke="black" d="M525.849,-230.965C485.826,-225.573 409.624,-211.751 353,-180 337.265,-171.177 304.492,-138.664 281.876,-115.25"/>
<polygon fill="black" stroke="black" points="284.375,-112.799 274.925,-108.009 279.325,-117.647 284.375,-112.799"/>
</g>
<!-- node186 -->
<g id="node26" class="node"><title>node186</title>
<ellipse fill="none" stroke="black" cx="553" cy="-162" rx="118.939" ry="18"/>
<text text-anchor="middle" x="553" y="-158.7" font-family="Times Roman,serif" font-size="12.00">/usr/lib/libboost_regex&#45;mt.so</text>
</g>
<!-- node146&#45;&gt;node186 -->
<g id="edge30" class="edge"><title>node146&#45;&gt;node186</title>
<path fill="none" stroke="black" d="M553,-215.831C553,-208.131 553,-198.974 553,-190.417"/>
<polygon fill="black" stroke="black" points="556.5,-190.413 553,-180.413 549.5,-190.413 556.5,-190.413"/>
</g>
<!-- node183 -->
<g id="node28" class="node"><title>node183</title>
<ellipse fill="none" stroke="black" cx="768" cy="-162" rx="77.9931" ry="18"/>
<text text-anchor="middle" x="768" y="-158.7" font-family="Times Roman,serif" font-size="12.00">/usr/lib/libicuuc.so</text>
</g>
<!-- node146&#45;&gt;node183 -->
<g id="edge32" class="edge"><title>node146&#45;&gt;node183</title>
<path fill="none" stroke="black" d="M580.23,-224.881C613.67,-213.682 671.188,-194.421 713.776,-180.159"/>
<polygon fill="black" stroke="black" points="715.067,-183.418 723.438,-176.923 712.844,-176.78 715.067,-183.418"/>
</g>
<!-- node184 -->
<g id="node30" class="node"><title>node184</title>
<ellipse fill="none" stroke="black" cx="949" cy="-162" rx="85.1424" ry="18"/>
<text text-anchor="middle" x="949" y="-158.7" font-family="Times Roman,serif" font-size="12.00">/usr/lib/libicui18n.so</text>
</g>
<!-- node146&#45;&gt;node184 -->
<g id="edge34" class="edge"><title>node146&#45;&gt;node184</title>
<path fill="none" stroke="black" d="M580.091,-229.271C632.978,-220.013 753.66,-198.762 855,-180 861.751,-178.75 868.772,-177.435 875.799,-176.108"/>
<polygon fill="black" stroke="black" points="876.896,-179.462 886.069,-174.161 875.592,-172.585 876.896,-179.462"/>
</g>
<!-- node185 -->
<g id="node32" class="node"><title>node185</title>
<ellipse fill="none" stroke="black" cx="1137" cy="-162" rx="85.1424" ry="18"/>
<text text-anchor="middle" x="1137" y="-158.7" font-family="Times Roman,serif" font-size="12.00">/usr/lib/libicudata.so</text>
</g>
<!-- node146&#45;&gt;node185 -->
<g id="edge36" class="edge"><title>node146&#45;&gt;node185</title>
<path fill="none" stroke="black" d="M580.189,-231.768C654.538,-225.498 867.393,-206.447 1043,-180 1050.37,-178.89 1058.04,-177.617 1065.68,-176.271"/>
<polygon fill="black" stroke="black" points="1066.46,-179.687 1075.69,-174.469 1065.22,-172.798 1066.46,-179.687"/>
</g>
<!-- node147 -->
<g id="node35" class="node"><title>node147</title>
<polygon fill="none" stroke="black" points="416,-180 362,-180 362,-144 416,-144 416,-180"/>
<text text-anchor="middle" x="389" y="-158.7" font-family="Times Roman,serif" font-size="12.00">nbcd</text>
</g>
<!-- node146&#45;&gt;node147 -->
<g id="edge40" class="edge"><title>node146&#45;&gt;node147</title>
<path fill="none" stroke="black" d="M525.81,-223.123C501.579,-213.3 465,-198.156 425.134,-179.937"/>
<polygon fill="black" stroke="black" points="426.584,-176.752 416.036,-175.752 423.658,-183.111 426.584,-176.752"/>
</g>
<!-- node147&#45;&gt;node151 -->
<g id="edge42" class="edge"><title>node147&#45;&gt;node151</title>
<path fill="none" stroke="black" d="M361.857,-147.082C342.184,-136.269 315.384,-121.539 293.936,-109.751"/>
<polygon fill="black" stroke="black" points="295.558,-106.649 285.109,-104.899 292.186,-112.783 295.558,-106.649"/>
</g>
<!-- node59&#45;&gt;node151 -->
<g id="edge46" class="edge"><title>node59&#45;&gt;node151</title>
<path fill="none" stroke="black" d="M244.9,-215.762C247.458,-191.201 252.037,-147.247 255.046,-118.354"/>
<polygon fill="black" stroke="black" points="258.561,-118.398 256.116,-108.09 251.598,-117.673 258.561,-118.398"/>
</g>
<!-- node59&#45;&gt;node153 -->
<g id="edge48" class="edge"><title>node59&#45;&gt;node153</title>
<path fill="none" stroke="black" d="M232.906,-215.831C228.44,-207.792 223.093,-198.167 218.162,-189.292"/>
<polygon fill="black" stroke="black" points="221.146,-187.455 213.23,-180.413 215.027,-190.855 221.146,-187.455"/>
</g>
<!-- node66&#45;&gt;node151 -->
<g id="edge52" class="edge"><title>node66&#45;&gt;node151</title>
<path fill="none" stroke="black" d="M159.875,-287.978C151.992,-256.395 140.411,-190.033 167,-144 178.766,-123.631 201.528,-110.128 221.343,-101.719"/>
<polygon fill="black" stroke="black" points="222.758,-104.923 230.772,-97.9927 220.186,-98.4132 222.758,-104.923"/>
</g>
<!-- node66&#45;&gt;node153 -->
<g id="edge54" class="edge"><title>node66&#45;&gt;node153</title>
<path fill="none" stroke="black" d="M169.813,-287.762C176.323,-263.093 187.995,-218.86 195.618,-189.973"/>
<polygon fill="black" stroke="black" points="199.059,-190.652 198.226,-180.09 192.291,-188.866 199.059,-190.652"/>
</g>
<!-- node66&#45;&gt;node149 -->
<g id="edge56" class="edge"><title>node66&#45;&gt;node149</title>
<path fill="none" stroke="black" d="M146.831,-287.831C138.285,-279.285 127.944,-268.944 118.62,-259.62"/>
<polygon fill="black" stroke="black" points="120.959,-257.009 111.413,-252.413 116.009,-261.959 120.959,-257.009"/>
</g>
<!-- node66&#45;&gt;node59 -->
<g id="edge58" class="edge"><title>node66&#45;&gt;node59</title>
<path fill="none" stroke="black" d="M184.683,-287.831C194.105,-279.134 205.54,-268.578 215.78,-259.127"/>
<polygon fill="black" stroke="black" points="218.35,-261.517 223.324,-252.163 213.602,-256.374 218.35,-261.517"/>
</g>
<!-- node55&#45;&gt;node151 -->
<g id="edge62" class="edge"><title>node55&#45;&gt;node151</title>
<path fill="none" stroke="black" d="M305.668,-359.876C309.614,-349.564 314.005,-336.291 316,-324 318.563,-308.207 317.534,-303.926 316,-288 309.947,-225.159 284.737,-154.995 269.617,-117.378"/>
<polygon fill="black" stroke="black" points="272.849,-116.035 265.826,-108.102 266.369,-118.683 272.849,-116.035"/>
</g>
<!-- node55&#45;&gt;node153 -->
<g id="edge64" class="edge"><title>node55&#45;&gt;node153</title>
<path fill="none" stroke="black" d="M300.715,-359.968C304.527,-328.368 308.246,-261.982 281,-216 271.315,-199.654 254.519,-187.075 238.989,-178.186"/>
<polygon fill="black" stroke="black" points="240.519,-175.035 230.054,-173.379 237.202,-181.199 240.519,-175.035"/>
</g>
<!-- node55&#45;&gt;node59 -->
<g id="edge66" class="edge"><title>node55&#45;&gt;node59</title>
<path fill="none" stroke="black" d="M291.034,-359.762C281.571,-334.985 264.569,-290.471 253.539,-261.594"/>
<polygon fill="black" stroke="black" points="256.747,-260.183 249.909,-252.09 250.208,-262.68 256.747,-260.183"/>
</g>
<!-- node55&#45;&gt;node66 -->
<g id="edge68" class="edge"><title>node55&#45;&gt;node66</title>
<path fill="none" stroke="black" d="M264.438,-359.831C246.451,-350.094 224.161,-338.027 205.247,-327.788"/>
<polygon fill="black" stroke="black" points="206.727,-324.609 196.267,-322.926 203.394,-330.765 206.727,-324.609"/>
</g>
</g>
</svg>
