<?xml version="1.0" encoding="UTF-8" standalone="no"?>
<!DOCTYPE svg PUBLIC "-//W3C//DTD SVG 1.1//EN"
 "http://www.w3.org/Graphics/SVG/1.1/DTD/svg11.dtd">
<!-- Generated by graphviz version 2.26.3 (20100126.1600)
 -->
<!-- Title: GG Pages: 1 -->
<svg width="1596pt" height="620pt"
 viewBox="0.00 0.00 1596.00 620.00" xmlns="http://www.w3.org/2000/svg" xmlns:xlink="http://www.w3.org/1999/xlink">
<g id="graph1" class="graph" transform="scale(1 1) rotate(0) translate(4 616)">
<title>GG</title>
<polygon fill="white" stroke="white" points="-4,5 -4,-616 1593,-616 1593,5 -4,5"/>
<!-- node89 -->
<g id="node1" class="node"><title>node89</title>
<polygon fill="none" stroke="black" points="422.9,-599.562 376,-612 329.1,-599.562 329.144,-579.438 422.856,-579.438 422.9,-599.562"/>
<text text-anchor="middle" x="376" y="-590.7" font-family="Times Roman,serif" font-size="12.00">envgen</text>
</g>
<!-- node87 -->
<g id="node2" class="node"><title>node87</title>
<polygon fill="none" stroke="black" points="407,-468 353,-468 353,-432 407,-432 407,-468"/>
<text text-anchor="middle" x="380" y="-446.7" font-family="Times Roman,serif" font-size="12.00">deploy</text>
</g>
<!-- node89&#45;&gt;node87 -->
<g id="edge2" class="edge"><title>node89&#45;&gt;node87</title>
<path fill="none" stroke="black" d="M376.406,-579.4C377.06,-555.838 378.361,-509.003 379.205,-478.613"/>
<polygon fill="black" stroke="black" points="382.714,-478.328 379.493,-468.234 375.717,-478.133 382.714,-478.328"/>
</g>
<!-- node151 -->
<g id="node4" class="node"><title>node151</title>
<polygon fill="none" stroke="black" points="303,-108 249,-108 249,-72 303,-72 303,-108"/>
<text text-anchor="middle" x="276" y="-86.7" font-family="Times Roman,serif" font-size="12.00">jlib</text>
</g>
<!-- node89&#45;&gt;node151 -->
<g id="edge70" class="edge"><title>node89&#45;&gt;node151</title>
<path fill="none" stroke="black" d="M328.76,-586.175C227.774,-568.108 0,-519.639 0,-450 0,-450 0,-450 0,-234 0,-187.122 17.1476,-171.654 55,-144 84.0626,-122.768 183.757,-104.398 238.783,-95.5759"/>
<polygon fill="black" stroke="black" points="239.501,-99.0059 248.834,-93.991 238.411,-92.0913 239.501,-99.0059"/>
</g>
<!-- node55 -->
<g id="node14" class="node"><title>node55</title>
<polygon fill="none" stroke="black" points="315,-396 225,-396 225,-360 315,-360 315,-396"/>
<text text-anchor="middle" x="270" y="-374.7" font-family="Times Roman,serif" font-size="12.00">environment</text>
</g>
<!-- node89&#45;&gt;node55 -->
<g id="edge72" class="edge"><title>node89&#45;&gt;node55</title>
<path fill="none" stroke="black" d="M368.714,-579.153C351.116,-543.293 306.077,-451.515 283.429,-405.365"/>
<polygon fill="black" stroke="black" points="286.502,-403.681 278.954,-396.246 280.218,-406.765 286.502,-403.681"/>
</g>
<!-- node156 -->
<g id="node42" class="node"><title>node156</title>
<polygon fill="none" stroke="black" points="1305,-396 1211,-396 1211,-360 1305,-360 1305,-396"/>
<text text-anchor="middle" x="1258" y="-374.7" font-family="Times Roman,serif" font-size="12.00">securesocket</text>
</g>
<!-- node89&#45;&gt;node156 -->
<g id="edge74" class="edge"><title>node89&#45;&gt;node156</title>
<path fill="none" stroke="black" d="M423.108,-582.463C572.936,-545.771 1038.16,-431.838 1201.01,-391.958"/>
<polygon fill="black" stroke="black" points="1201.95,-395.33 1210.83,-389.552 1200.29,-388.531 1201.95,-395.33"/>
</g>
<!-- node88 -->
<g id="node49" class="node"><title>node88</title>
<polygon fill="none" stroke="black" points="482,-540 404,-540 404,-504 482,-504 482,-540"/>
<text text-anchor="middle" x="443" y="-518.7" font-family="Times Roman,serif" font-size="12.00">deployutils</text>
</g>
<!-- node89&#45;&gt;node88 -->
<g id="edge60" class="edge"><title>node89&#45;&gt;node88</title>
<path fill="none" stroke="black" d="M389.558,-579.43C398.051,-570.304 409.231,-558.289 419.17,-547.609"/>
<polygon fill="black" stroke="black" points="421.881,-549.833 426.131,-540.128 416.756,-545.064 421.881,-549.833"/>
</g>
<!-- node87&#45;&gt;node151 -->
<g id="edge4" class="edge"><title>node87&#45;&gt;node151</title>
<path fill="none" stroke="black" d="M352.878,-444.694C271.988,-428.101 38,-374.208 38,-306 38,-306 38,-306 38,-234 38,-141.4 171.516,-106.731 238.542,-95.1608"/>
<polygon fill="black" stroke="black" points="239.396,-98.5677 248.698,-93.4968 238.264,-91.6598 239.396,-98.5677"/>
</g>
<!-- node87&#45;&gt;node55 -->
<g id="edge14" class="edge"><title>node87&#45;&gt;node55</title>
<path fill="none" stroke="black" d="M352.809,-432.202C338.769,-423.012 321.447,-411.674 306.281,-401.748"/>
<polygon fill="black" stroke="black" points="307.926,-398.641 297.642,-396.093 304.092,-404.498 307.926,-398.641"/>
</g>
<!-- node160 -->
<g id="node33" class="node"><title>node160</title>
<polygon fill="none" stroke="black" points="614,-396 560,-396 560,-360 614,-360 614,-396"/>
<text text-anchor="middle" x="587" y="-374.7" font-family="Times Roman,serif" font-size="12.00">xmllib</text>
</g>
<!-- node87&#45;&gt;node160 -->
<g id="edge42" class="edge"><title>node87&#45;&gt;node160</title>
<path fill="none" stroke="black" d="M407.062,-440.587C443.711,-427.84 509.252,-405.043 550.306,-390.763"/>
<polygon fill="black" stroke="black" points="551.637,-394.006 559.932,-387.415 549.337,-387.395 551.637,-394.006"/>
</g>
<!-- node87&#45;&gt;node156 -->
<g id="edge52" class="edge"><title>node87&#45;&gt;node156</title>
<path fill="none" stroke="black" d="M407.24,-447.766C529.636,-437.729 1030.17,-396.683 1200.75,-382.695"/>
<polygon fill="black" stroke="black" points="1201.1,-386.178 1210.78,-381.872 1200.53,-379.201 1201.1,-386.178"/>
</g>
<!-- node152 -->
<g id="node6" class="node"><title>node152</title>
<polygon fill="none" stroke="black" points="154,-36 114.056,-18 154,-3.55271e-15 193.944,-18 154,-36"/>
<text text-anchor="middle" x="154" y="-14.7" font-family="Times Roman,serif" font-size="12.00">lzma</text>
</g>
<!-- node151&#45;&gt;node152 -->
<g id="edge6" class="edge"><title>node151&#45;&gt;node152</title>
<path fill="none" stroke="black" d="M248.924,-74.0209C228.47,-61.9494 200.554,-45.4743 180.293,-33.5172"/>
<polygon fill="black" stroke="black" points="181.968,-30.4417 171.577,-28.3733 178.41,-36.4701 181.968,-30.4417"/>
</g>
<!-- node187 -->
<g id="node8" class="node"><title>node187</title>
<ellipse fill="none" stroke="black" cx="239" cy="-18" rx="27" ry="18"/>
<text text-anchor="middle" x="239" y="-14.7" font-family="Times Roman,serif" font-size="12.00">dl</text>
</g>
<!-- node151&#45;&gt;node187 -->
<g id="edge8" class="edge"><title>node151&#45;&gt;node187</title>
<path fill="none" stroke="black" d="M266.663,-71.8314C262.405,-63.5451 257.28,-53.5727 252.605,-44.4748"/>
<polygon fill="black" stroke="black" points="255.635,-42.7123 247.951,-35.4177 249.408,-45.9118 255.635,-42.7123"/>
</g>
<!-- node179 -->
<g id="node10" class="node"><title>node179</title>
<ellipse fill="none" stroke="black" cx="314" cy="-18" rx="30.0465" ry="18"/>
<text text-anchor="middle" x="314" y="-14.7" font-family="Times Roman,serif" font-size="12.00">crypt</text>
</g>
<!-- node151&#45;&gt;node179 -->
<g id="edge10" class="edge"><title>node151&#45;&gt;node179</title>
<path fill="none" stroke="black" d="M285.589,-71.8314C289.962,-63.5451 295.226,-53.5727 300.027,-44.4748"/>
<polygon fill="black" stroke="black" points="303.235,-45.8952 304.807,-35.4177 297.044,-42.6279 303.235,-45.8952"/>
</g>
<!-- node188 -->
<g id="node12" class="node"><title>node188</title>
<ellipse fill="none" stroke="black" cx="389" cy="-18" rx="27" ry="18"/>
<text text-anchor="middle" x="389" y="-14.7" font-family="Times Roman,serif" font-size="12.00">rt</text>
</g>
<!-- node151&#45;&gt;node188 -->
<g id="edge12" class="edge"><title>node151&#45;&gt;node188</title>
<path fill="none" stroke="black" d="M303.066,-72.7542C320.414,-61.7009 342.898,-47.375 360.516,-36.1494"/>
<polygon fill="black" stroke="black" points="362.679,-38.9209 369.232,-30.5955 358.918,-33.0174 362.679,-38.9209"/>
</g>
<!-- node55&#45;&gt;node151 -->
<g id="edge16" class="edge"><title>node55&#45;&gt;node151</title>
<path fill="none" stroke="black" d="M273.19,-359.927C276.561,-341.651 282.31,-312.66 289,-288 293.416,-271.723 297.609,-268.521 301,-252 310.666,-204.908 319.385,-190.451 307,-144 304.505,-134.642 299.959,-125.22 295.104,-116.925"/>
<polygon fill="black" stroke="black" points="298.061,-115.052 289.796,-108.423 292.123,-118.759 298.061,-115.052"/>
</g>
<!-- node153 -->
<g id="node17" class="node"><title>node153</title>
<polygon fill="none" stroke="black" points="217,-180 163,-180 163,-144 217,-144 217,-180"/>
<text text-anchor="middle" x="190" y="-158.7" font-family="Times Roman,serif" font-size="12.00">mp</text>
</g>
<!-- node55&#45;&gt;node153 -->
<g id="edge18" class="edge"><title>node55&#45;&gt;node153</title>
<path fill="none" stroke="black" d="M224.992,-365.16C204.748,-356.891 182.793,-343.865 171,-324 146.134,-282.113 163.264,-223.372 177.18,-189.34"/>
<polygon fill="black" stroke="black" points="180.449,-190.595 181.163,-180.024 174.013,-187.843 180.449,-190.595"/>
</g>
<!-- node59 -->
<g id="node20" class="node"><title>node59</title>
<polygon fill="none" stroke="black" points="124,-252 66,-252 66,-216 124,-216 124,-252"/>
<text text-anchor="middle" x="95" y="-230.7" font-family="Times Roman,serif" font-size="12.00">remote</text>
</g>
<!-- node55&#45;&gt;node59 -->
<g id="edge22" class="edge"><title>node55&#45;&gt;node59</title>
<path fill="none" stroke="black" d="M224.761,-368.328C196.898,-360.403 162.034,-346.693 138,-324 120.201,-307.195 108.948,-281.507 102.438,-261.87"/>
<polygon fill="black" stroke="black" points="105.756,-260.751 99.4571,-252.232 99.0685,-262.82 105.756,-260.751"/>
</g>
<!-- node66 -->
<g id="node24" class="node"><title>node66</title>
<polygon fill="none" stroke="black" points="242,-324 180,-324 180,-288 242,-288 242,-324"/>
<text text-anchor="middle" x="211" y="-302.7" font-family="Times Roman,serif" font-size="12.00">dalibase</text>
</g>
<!-- node55&#45;&gt;node66 -->
<g id="edge28" class="edge"><title>node55&#45;&gt;node66</title>
<path fill="none" stroke="black" d="M255.112,-359.831C248.247,-351.454 239.97,-341.353 232.449,-332.175"/>
<polygon fill="black" stroke="black" points="235.134,-329.93 226.089,-324.413 229.72,-334.366 235.134,-329.93"/>
</g>
<!-- node153&#45;&gt;node151 -->
<g id="edge20" class="edge"><title>node153&#45;&gt;node151</title>
<path fill="none" stroke="black" d="M211.701,-143.831C222.192,-135.048 234.946,-124.371 246.319,-114.849"/>
<polygon fill="black" stroke="black" points="248.885,-117.266 254.306,-108.163 244.391,-111.899 248.885,-117.266"/>
</g>
<!-- node59&#45;&gt;node151 -->
<g id="edge24" class="edge"><title>node59&#45;&gt;node151</title>
<path fill="none" stroke="black" d="M102.981,-215.89C112.564,-195.951 130.351,-164.065 154,-144 178.791,-122.965 213.074,-108.763 238.987,-100.224"/>
<polygon fill="black" stroke="black" points="240.339,-103.468 248.822,-97.1206 238.232,-96.7923 240.339,-103.468"/>
</g>
<!-- node59&#45;&gt;node153 -->
<g id="edge26" class="edge"><title>node59&#45;&gt;node153</title>
<path fill="none" stroke="black" d="M118.973,-215.831C130.786,-206.878 145.197,-195.956 157.943,-186.295"/>
<polygon fill="black" stroke="black" points="160.18,-188.992 166.035,-180.163 155.951,-183.414 160.18,-188.992"/>
</g>
<!-- node66&#45;&gt;node151 -->
<g id="edge30" class="edge"><title>node66&#45;&gt;node151</title>
<path fill="none" stroke="black" d="M242.033,-290.692C256.721,-281.642 272.807,-268.667 281,-252 302.057,-209.161 293.011,-151.961 284.512,-118.243"/>
<polygon fill="black" stroke="black" points="287.781,-116.921 281.81,-108.169 281.02,-118.735 287.781,-116.921"/>
</g>
<!-- node66&#45;&gt;node153 -->
<g id="edge32" class="edge"><title>node66&#45;&gt;node153</title>
<path fill="none" stroke="black" d="M208.34,-287.762C204.758,-263.201 198.349,-219.247 194.135,-190.354"/>
<polygon fill="black" stroke="black" points="197.545,-189.48 192.638,-180.09 190.618,-190.49 197.545,-189.48"/>
</g>
<!-- node66&#45;&gt;node59 -->
<g id="edge40" class="edge"><title>node66&#45;&gt;node59</title>
<path fill="none" stroke="black" d="M181.728,-287.831C166.891,-278.622 148.698,-267.33 132.814,-257.471"/>
<polygon fill="black" stroke="black" points="134.605,-254.463 124.262,-252.163 130.913,-260.41 134.605,-254.463"/>
</g>
<!-- node149 -->
<g id="node28" class="node"><title>node149</title>
<polygon fill="none" stroke="black" points="272,-252 218,-252 218,-216 272,-216 272,-252"/>
<text text-anchor="middle" x="245" y="-230.7" font-family="Times Roman,serif" font-size="12.00">hrpc</text>
</g>
<!-- node66&#45;&gt;node149 -->
<g id="edge34" class="edge"><title>node66&#45;&gt;node149</title>
<path fill="none" stroke="black" d="M219.58,-287.831C223.336,-279.877 227.826,-270.369 231.98,-261.572"/>
<polygon fill="black" stroke="black" points="235.2,-262.95 236.305,-252.413 228.87,-259.961 235.2,-262.95"/>
</g>
<!-- node149&#45;&gt;node151 -->
<g id="edge36" class="edge"><title>node149&#45;&gt;node151</title>
<path fill="none" stroke="black" d="M248.926,-215.762C254.237,-191.093 263.759,-146.86 269.978,-117.973"/>
<polygon fill="black" stroke="black" points="273.423,-118.602 272.106,-108.09 266.579,-117.129 273.423,-118.602"/>
</g>
<!-- node149&#45;&gt;node153 -->
<g id="edge38" class="edge"><title>node149&#45;&gt;node153</title>
<path fill="none" stroke="black" d="M231.121,-215.831C224.786,-207.539 217.162,-197.557 210.207,-188.453"/>
<polygon fill="black" stroke="black" points="212.917,-186.235 204.066,-180.413 207.355,-190.485 212.917,-186.235"/>
</g>
<!-- node160&#45;&gt;node151 -->
<g id="edge50" class="edge"><title>node160&#45;&gt;node151</title>
<path fill="none" stroke="black" d="M614.212,-372.55C639.568,-365.871 675.949,-351.823 693,-324 701.36,-310.358 701.55,-301.524 693,-288 606.772,-151.602 398.217,-107.278 313.106,-94.5694"/>
<polygon fill="black" stroke="black" points="313.514,-91.0921 303.119,-93.1398 312.522,-98.0215 313.514,-91.0921"/>
</g>
<!-- node180 -->
<g id="node35" class="node"><title>node180</title>
<ellipse fill="none" stroke="black" cx="825" cy="-306" rx="85.1424" ry="18"/>
<text text-anchor="middle" x="825" y="-302.7" font-family="Times Roman,serif" font-size="12.00">/usr/lib/libxalan&#45;c.so</text>
</g>
<!-- node160&#45;&gt;node180 -->
<g id="edge44" class="edge"><title>node160&#45;&gt;node180</title>
<path fill="none" stroke="black" d="M614.302,-369.741C651.198,-358.579 717.935,-338.389 766.437,-323.716"/>
<polygon fill="black" stroke="black" points="767.628,-327.013 776.186,-320.767 765.601,-320.313 767.628,-327.013"/>
</g>
<!-- node181 -->
<g id="node37" class="node"><title>node181</title>
<ellipse fill="none" stroke="black" cx="391" cy="-306" rx="93.0912" ry="18"/>
<text text-anchor="middle" x="391" y="-302.7" font-family="Times Roman,serif" font-size="12.00">/usr/lib/libxalanMsg.so</text>
</g>
<!-- node160&#45;&gt;node181 -->
<g id="edge46" class="edge"><title>node160&#45;&gt;node181</title>
<path fill="none" stroke="black" d="M559.747,-367.989C530.007,-357.064 481.655,-339.302 444.315,-325.585"/>
<polygon fill="black" stroke="black" points="445.184,-322.176 434.59,-322.013 442.77,-328.746 445.184,-322.176"/>
</g>
<!-- node182 -->
<g id="node39" class="node"><title>node182</title>
<ellipse fill="none" stroke="black" cx="593" cy="-306" rx="90.9919" ry="18"/>
<text text-anchor="middle" x="593" y="-302.7" font-family="Times Roman,serif" font-size="12.00">/usr/lib/libxerces&#45;c.so</text>
</g>
<!-- node160&#45;&gt;node182 -->
<g id="edge48" class="edge"><title>node160&#45;&gt;node182</title>
<path fill="none" stroke="black" d="M588.514,-359.831C589.156,-352.131 589.919,-342.974 590.632,-334.417"/>
<polygon fill="black" stroke="black" points="594.123,-334.669 591.466,-324.413 587.147,-334.088 594.123,-334.669"/>
</g>
<!-- node156&#45;&gt;node151 -->
<g id="edge54" class="edge"><title>node156&#45;&gt;node151</title>
<path fill="none" stroke="black" d="M1259.55,-359.764C1260.21,-339.404 1257.87,-306.847 1239,-288 1018.59,-67.8389 858.341,-205.807 553,-144 467.236,-126.64 366.322,-107.22 313.137,-97.064"/>
<polygon fill="black" stroke="black" points="313.634,-93.5957 303.155,-95.1595 312.322,-100.472 313.634,-93.5957"/>
</g>
<!-- node191 -->
<g id="node45" class="node"><title>node191</title>
<ellipse fill="none" stroke="black" cx="1423" cy="-306" rx="137.138" ry="18"/>
<text text-anchor="middle" x="1423" y="-302.7" font-family="Times Roman,serif" font-size="12.00">/usr/lib/x86_64&#45;linux&#45;gnu/libssl.so</text>
</g>
<!-- node156&#45;&gt;node191 -->
<g id="edge56" class="edge"><title>node156&#45;&gt;node191</title>
<path fill="none" stroke="black" d="M1299.64,-359.831C1322.31,-349.938 1350.49,-337.642 1374.19,-327.3"/>
<polygon fill="black" stroke="black" points="1375.6,-330.502 1383.37,-323.294 1372.8,-324.086 1375.6,-330.502"/>
</g>
<!-- node192 -->
<g id="node47" class="node"><title>node192</title>
<ellipse fill="none" stroke="black" cx="1079" cy="-306" rx="150.937" ry="18"/>
<text text-anchor="middle" x="1079" y="-302.7" font-family="Times Roman,serif" font-size="12.00">/usr/lib/x86_64&#45;linux&#45;gnu/libcrypto.so</text>
</g>
<!-- node156&#45;&gt;node192 -->
<g id="edge58" class="edge"><title>node156&#45;&gt;node192</title>
<path fill="none" stroke="black" d="M1212.83,-359.831C1188.13,-349.895 1157.39,-337.533 1131.61,-327.162"/>
<polygon fill="black" stroke="black" points="1132.58,-323.779 1122,-323.294 1129.97,-330.273 1132.58,-323.779"/>
</g>
<!-- node88&#45;&gt;node87 -->
<g id="edge68" class="edge"><title>node88&#45;&gt;node87</title>
<path fill="none" stroke="black" d="M427.102,-503.831C419.772,-495.454 410.934,-485.353 402.903,-476.175"/>
<polygon fill="black" stroke="black" points="405.331,-473.634 396.112,-468.413 400.063,-478.244 405.331,-473.634"/>
</g>
<!-- node88&#45;&gt;node151 -->
<g id="edge62" class="edge"><title>node88&#45;&gt;node151</title>
<path fill="none" stroke="black" d="M482.082,-521.287C682.756,-517.121 1588,-492.012 1588,-378 1588,-378 1588,-378 1588,-234 1588,-168.052 526.772,-104.251 313.185,-92.0778"/>
<polygon fill="black" stroke="black" points="313.284,-88.5779 303.102,-91.5056 312.887,-95.5666 313.284,-88.5779"/>
</g>
<!-- node88&#45;&gt;node55 -->
<g id="edge64" class="edge"><title>node88&#45;&gt;node55</title>
<path fill="none" stroke="black" d="M442.209,-503.77C440.387,-483.722 434.538,-451.74 416,-432 392.314,-406.778 355.804,-393.278 325.22,-386.083"/>
<polygon fill="black" stroke="black" points="325.618,-382.588 315.102,-383.877 324.127,-389.427 325.618,-382.588"/>
</g>
<!-- node88&#45;&gt;node160 -->
<g id="edge66" class="edge"><title>node88&#45;&gt;node160</title>
<path fill="none" stroke="black" d="M461.238,-503.762C486.665,-478.335 532.875,-432.125 561.643,-403.357"/>
<polygon fill="black" stroke="black" points="564.314,-405.636 568.91,-396.09 559.364,-400.686 564.314,-405.636"/>
</g>
</g>
</svg>
