<?xml version="1.0" encoding="UTF-8" standalone="no"?>
<!DOCTYPE svg PUBLIC "-//W3C//DTD SVG 1.1//EN"
 "http://www.w3.org/Graphics/SVG/1.1/DTD/svg11.dtd">
<!-- Generated by graphviz version 2.26.3 (20100126.1600)
 -->
<!-- Title: GG Pages: 1 -->
<svg width="311pt" height="332pt"
 viewBox="0.00 0.00 311.00 332.00" xmlns="http://www.w3.org/2000/svg" xmlns:xlink="http://www.w3.org/1999/xlink">
<g id="graph1" class="graph" transform="scale(1 1) rotate(0) translate(4 328)">
<title>GG</title>
<polygon fill="white" stroke="white" points="-4,5 -4,-328 308,-328 308,5 -4,5"/>
<!-- node41 -->
<g id="node1" class="node"><title>node41</title>
<polygon fill="none" stroke="black" points="204.078,-311.562 162,-324 119.922,-311.562 119.961,-291.438 204.039,-291.438 204.078,-311.562"/>
<text text-anchor="middle" x="162" y="-302.7" font-family="Times Roman,serif" font-size="12.00">keydiff</text>
</g>
<!-- node151 -->
<g id="node2" class="node"><title>node151</title>
<polygon fill="none" stroke="black" points="189,-108 135,-108 135,-72 189,-72 189,-108"/>
<text text-anchor="middle" x="162" y="-86.7" font-family="Times Roman,serif" font-size="12.00">jlib</text>
</g>
<!-- node41&#45;&gt;node151 -->
<g id="edge2" class="edge"><title>node41&#45;&gt;node151</title>
<path fill="none" stroke="black" d="M145.61,-291.332C122.927,-269.69 83.3623,-226.692 71,-180 66.9049,-164.533 63.083,-157.904 71,-144 82.6396,-123.558 105.402,-110.056 125.248,-101.665"/>
<polygon fill="black" stroke="black" points="126.671,-104.867 134.695,-97.9486 124.108,-98.3526 126.671,-104.867"/>
</g>
<!-- node150 -->
<g id="node12" class="node"><title>node150</title>
<polygon fill="none" stroke="black" points="134,-180 80,-180 80,-144 134,-144 134,-180"/>
<text text-anchor="middle" x="107" y="-158.7" font-family="Times Roman,serif" font-size="12.00">jhtree</text>
</g>
<!-- node41&#45;&gt;node150 -->
<g id="edge12" class="edge"><title>node41&#45;&gt;node150</title>
<path fill="none" stroke="black" d="M149.947,-291.294C142.017,-280.905 132.027,-266.333 126,-252 117.669,-232.188 112.847,-208.332 110.146,-190.16"/>
<polygon fill="black" stroke="black" points="113.606,-189.629 108.79,-180.192 106.67,-190.572 113.606,-189.629"/>
</g>
<!-- node153 -->
<g id="node15" class="node"><title>node153</title>
<polygon fill="none" stroke="black" points="244,-180 190,-180 190,-144 244,-144 244,-180"/>
<text text-anchor="middle" x="217" y="-158.7" font-family="Times Roman,serif" font-size="12.00">mp</text>
</g>
<!-- node41&#45;&gt;node153 -->
<g id="edge16" class="edge"><title>node41&#45;&gt;node153</title>
<path fill="none" stroke="black" d="M174.053,-291.294C181.983,-280.905 191.973,-266.333 198,-252 206.331,-232.188 211.153,-208.332 213.854,-190.16"/>
<polygon fill="black" stroke="black" points="217.33,-190.572 215.21,-180.192 210.394,-189.629 217.33,-190.572"/>
</g>
<!-- node149 -->
<g id="node18" class="node"><title>node149</title>
<polygon fill="none" stroke="black" points="189,-252 135,-252 135,-216 189,-216 189,-252"/>
<text text-anchor="middle" x="162" y="-230.7" font-family="Times Roman,serif" font-size="12.00">hrpc</text>
</g>
<!-- node41&#45;&gt;node149 -->
<g id="edge20" class="edge"><title>node41&#45;&gt;node149</title>
<path fill="none" stroke="black" d="M162,-291.43C162,-283.101 162,-272.366 162,-262.436"/>
<polygon fill="black" stroke="black" points="165.5,-262.128 162,-252.128 158.5,-262.128 165.5,-262.128"/>
</g>
<!-- node59 -->
<g id="node22" class="node"><title>node59</title>
<polygon fill="none" stroke="black" points="303,-252 245,-252 245,-216 303,-216 303,-252"/>
<text text-anchor="middle" x="274" y="-230.7" font-family="Times Roman,serif" font-size="12.00">remote</text>
</g>
<!-- node41&#45;&gt;node59 -->
<g id="edge26" class="edge"><title>node41&#45;&gt;node59</title>
<path fill="none" stroke="black" d="M184.665,-291.43C199.688,-281.772 219.743,-268.879 237.045,-257.757"/>
<polygon fill="black" stroke="black" points="239.282,-260.48 245.801,-252.128 235.496,-254.591 239.282,-260.48"/>
</g>
<!-- node152 -->
<g id="node4" class="node"><title>node152</title>
<polygon fill="none" stroke="black" points="40,-36 0.0563759,-18 40,-3.55271e-15 79.9436,-18 40,-36"/>
<text text-anchor="middle" x="40" y="-14.7" font-family="Times Roman,serif" font-size="12.00">lzma</text>
</g>
<!-- node151&#45;&gt;node152 -->
<g id="edge4" class="edge"><title>node151&#45;&gt;node152</title>
<path fill="none" stroke="black" d="M134.924,-74.0209C114.47,-61.9494 86.5536,-45.4743 66.293,-33.5172"/>
<polygon fill="black" stroke="black" points="67.968,-30.4417 57.577,-28.3733 64.4102,-36.4701 67.968,-30.4417"/>
</g>
<!-- node187 -->
<g id="node6" class="node"><title>node187</title>
<ellipse fill="none" stroke="black" cx="125" cy="-18" rx="27" ry="18"/>
<text text-anchor="middle" x="125" y="-14.7" font-family="Times Roman,serif" font-size="12.00">dl</text>
</g>
<!-- node151&#45;&gt;node187 -->
<g id="edge6" class="edge"><title>node151&#45;&gt;node187</title>
<path fill="none" stroke="black" d="M152.663,-71.8314C148.405,-63.5451 143.28,-53.5727 138.605,-44.4748"/>
<polygon fill="black" stroke="black" points="141.635,-42.7123 133.951,-35.4177 135.408,-45.9118 141.635,-42.7123"/>
</g>
<!-- node179 -->
<g id="node8" class="node"><title>node179</title>
<ellipse fill="none" stroke="black" cx="200" cy="-18" rx="30.0465" ry="18"/>
<text text-anchor="middle" x="200" y="-14.7" font-family="Times Roman,serif" font-size="12.00">crypt</text>
</g>
<!-- node151&#45;&gt;node179 -->
<g id="edge8" class="edge"><title>node151&#45;&gt;node179</title>
<path fill="none" stroke="black" d="M171.589,-71.8314C175.962,-63.5451 181.226,-53.5727 186.027,-44.4748"/>
<polygon fill="black" stroke="black" points="189.235,-45.8952 190.807,-35.4177 183.044,-42.6279 189.235,-45.8952"/>
</g>
<!-- node188 -->
<g id="node10" class="node"><title>node188</title>
<ellipse fill="none" stroke="black" cx="275" cy="-18" rx="27" ry="18"/>
<text text-anchor="middle" x="275" y="-14.7" font-family="Times Roman,serif" font-size="12.00">rt</text>
</g>
<!-- node151&#45;&gt;node188 -->
<g id="edge10" class="edge"><title>node151&#45;&gt;node188</title>
<path fill="none" stroke="black" d="M189.066,-72.7542C206.414,-61.7009 228.898,-47.375 246.516,-36.1494"/>
<polygon fill="black" stroke="black" points="248.679,-38.9209 255.232,-30.5955 244.918,-33.0174 248.679,-38.9209"/>
</g>
<!-- node150&#45;&gt;node151 -->
<g id="edge14" class="edge"><title>node150&#45;&gt;node151</title>
<path fill="none" stroke="black" d="M120.879,-143.831C127.214,-135.539 134.838,-125.557 141.793,-116.453"/>
<polygon fill="black" stroke="black" points="144.645,-118.485 147.934,-108.413 139.083,-114.235 144.645,-118.485"/>
</g>
<!-- node153&#45;&gt;node151 -->
<g id="edge18" class="edge"><title>node153&#45;&gt;node151</title>
<path fill="none" stroke="black" d="M203.121,-143.831C196.786,-135.539 189.162,-125.557 182.207,-116.453"/>
<polygon fill="black" stroke="black" points="184.917,-114.235 176.066,-108.413 179.355,-118.485 184.917,-114.235"/>
</g>
<!-- node149&#45;&gt;node151 -->
<g id="edge22" class="edge"><title>node149&#45;&gt;node151</title>
<path fill="none" stroke="black" d="M162,-215.762C162,-191.201 162,-147.247 162,-118.354"/>
<polygon fill="black" stroke="black" points="165.5,-118.09 162,-108.09 158.5,-118.09 165.5,-118.09"/>
</g>
<!-- node149&#45;&gt;node153 -->
<g id="edge24" class="edge"><title>node149&#45;&gt;node153</title>
<path fill="none" stroke="black" d="M175.879,-215.831C182.214,-207.539 189.838,-197.557 196.793,-188.453"/>
<polygon fill="black" stroke="black" points="199.645,-190.485 202.934,-180.413 194.083,-186.235 199.645,-190.485"/>
</g>
<!-- node59&#45;&gt;node151 -->
<g id="edge28" class="edge"><title>node59&#45;&gt;node151</title>
<path fill="none" stroke="black" d="M273.838,-215.708C272.795,-196.193 268.55,-165.227 253,-144 239.441,-125.49 217.451,-112.188 198.485,-103.418"/>
<polygon fill="black" stroke="black" points="199.751,-100.152 189.186,-99.3576 196.95,-106.567 199.751,-100.152"/>
</g>
<!-- node59&#45;&gt;node153 -->
<g id="edge30" class="edge"><title>node59&#45;&gt;node153</title>
<path fill="none" stroke="black" d="M259.616,-215.831C253.051,-207.539 245.149,-197.557 237.942,-188.453"/>
<polygon fill="black" stroke="black" points="240.528,-186.081 231.577,-180.413 235.04,-190.426 240.528,-186.081"/>
</g>
</g>
</svg>
