<?xml version="1.0" encoding="UTF-8" standalone="no"?>
<!DOCTYPE svg PUBLIC "-//W3C//DTD SVG 1.1//EN"
 "http://www.w3.org/Graphics/SVG/1.1/DTD/svg11.dtd">
<!-- Generated by graphviz version 2.26.3 (20100126.1600)
 -->
<!-- Title: GG Pages: 1 -->
<svg width="2025pt" height="620pt"
 viewBox="0.00 0.00 2024.95 620.00" xmlns="http://www.w3.org/2000/svg" xmlns:xlink="http://www.w3.org/1999/xlink">
<g id="graph1" class="graph" transform="scale(1 1) rotate(0) translate(4 616)">
<title>GG</title>
<polygon fill="white" stroke="white" points="-4,5 -4,-616 2021.95,-616 2021.95,5 -4,5"/>
<!-- node93 -->
<g id="node1" class="node"><title>node93</title>
<polygon fill="none" stroke="black" points="579.179,-599.562 513,-612 446.821,-599.562 446.883,-579.438 579.117,-579.438 579.179,-599.562"/>
<text text-anchor="middle" x="513" y="-590.7" font-family="Times Roman,serif" font-size="12.00">eclccserver</text>
</g>
<!-- node151 -->
<g id="node2" class="node"><title>node151</title>
<polygon fill="none" stroke="black" points="961,-108 907,-108 907,-72 961,-72 961,-108"/>
<text text-anchor="middle" x="934" y="-86.7" font-family="Times Roman,serif" font-size="12.00">jlib</text>
</g>
<!-- node93&#45;&gt;node151 -->
<g id="edge2" class="edge"><title>node93&#45;&gt;node151</title>
<path fill="none" stroke="black" d="M446.984,-589.365C308.431,-577.82 0,-541.811 0,-450 0,-450 0,-450 0,-234 0,-141.645 722.524,-100.353 896.603,-91.745"/>
<polygon fill="black" stroke="black" points="896.987,-95.2305 906.804,-91.2471 896.645,-88.2388 896.987,-95.2305"/>
</g>
<!-- node64 -->
<g id="node12" class="node"><title>node64</title>
<polygon fill="none" stroke="black" points="1061,-540 993,-540 993,-504 1061,-504 1061,-540"/>
<text text-anchor="middle" x="1027" y="-518.7" font-family="Times Roman,serif" font-size="12.00">workunit</text>
</g>
<!-- node93&#45;&gt;node64 -->
<g id="edge12" class="edge"><title>node93&#45;&gt;node64</title>
<path fill="none" stroke="black" d="M579.144,-584.735C685.664,-569.814 892.395,-540.855 982.838,-528.186"/>
<polygon fill="black" stroke="black" points="983.347,-531.649 992.765,-526.796 982.376,-524.717 983.347,-531.649"/>
</g>
<!-- node152 -->
<g id="node4" class="node"><title>node152</title>
<polygon fill="none" stroke="black" points="812,-36 772.056,-18 812,-3.55271e-15 851.944,-18 812,-36"/>
<text text-anchor="middle" x="812" y="-14.7" font-family="Times Roman,serif" font-size="12.00">lzma</text>
</g>
<!-- node151&#45;&gt;node152 -->
<g id="edge4" class="edge"><title>node151&#45;&gt;node152</title>
<path fill="none" stroke="black" d="M906.924,-74.0209C886.47,-61.9494 858.554,-45.4743 838.293,-33.5172"/>
<polygon fill="black" stroke="black" points="839.968,-30.4417 829.577,-28.3733 836.41,-36.4701 839.968,-30.4417"/>
</g>
<!-- node187 -->
<g id="node6" class="node"><title>node187</title>
<ellipse fill="none" stroke="black" cx="897" cy="-18" rx="27" ry="18"/>
<text text-anchor="middle" x="897" y="-14.7" font-family="Times Roman,serif" font-size="12.00">dl</text>
</g>
<!-- node151&#45;&gt;node187 -->
<g id="edge6" class="edge"><title>node151&#45;&gt;node187</title>
<path fill="none" stroke="black" d="M924.663,-71.8314C920.405,-63.5451 915.28,-53.5727 910.605,-44.4748"/>
<polygon fill="black" stroke="black" points="913.635,-42.7123 905.951,-35.4177 907.408,-45.9118 913.635,-42.7123"/>
</g>
<!-- node179 -->
<g id="node8" class="node"><title>node179</title>
<ellipse fill="none" stroke="black" cx="972" cy="-18" rx="30.0465" ry="18"/>
<text text-anchor="middle" x="972" y="-14.7" font-family="Times Roman,serif" font-size="12.00">crypt</text>
</g>
<!-- node151&#45;&gt;node179 -->
<g id="edge8" class="edge"><title>node151&#45;&gt;node179</title>
<path fill="none" stroke="black" d="M943.589,-71.8314C947.962,-63.5451 953.226,-53.5727 958.027,-44.4748"/>
<polygon fill="black" stroke="black" points="961.235,-45.8952 962.807,-35.4177 955.044,-42.6279 961.235,-45.8952"/>
</g>
<!-- node188 -->
<g id="node10" class="node"><title>node188</title>
<ellipse fill="none" stroke="black" cx="1047" cy="-18" rx="27" ry="18"/>
<text text-anchor="middle" x="1047" y="-14.7" font-family="Times Roman,serif" font-size="12.00">rt</text>
</g>
<!-- node151&#45;&gt;node188 -->
<g id="edge10" class="edge"><title>node151&#45;&gt;node188</title>
<path fill="none" stroke="black" d="M961.066,-72.7542C978.414,-61.7009 1000.9,-47.375 1018.52,-36.1494"/>
<polygon fill="black" stroke="black" points="1020.68,-38.9209 1027.23,-30.5955 1016.92,-33.0174 1020.68,-38.9209"/>
</g>
<!-- node64&#45;&gt;node151 -->
<g id="edge14" class="edge"><title>node64&#45;&gt;node151</title>
<path fill="none" stroke="black" d="M1061.18,-520.43C1229.7,-512.249 1964,-471.247 1964,-378 1964,-378 1964,-378 1964,-234 1964,-186.379 2174.73,-237.161 1755,-144 1602.44,-110.139 1110.93,-94.7127 971.306,-90.9444"/>
<polygon fill="black" stroke="black" points="971.212,-87.4407 961.122,-90.6735 971.026,-94.4382 971.212,-87.4407"/>
</g>
<!-- node66 -->
<g id="node15" class="node"><title>node66</title>
<polygon fill="none" stroke="black" points="754,-324 692,-324 692,-288 754,-288 754,-324"/>
<text text-anchor="middle" x="723" y="-302.7" font-family="Times Roman,serif" font-size="12.00">dalibase</text>
</g>
<!-- node64&#45;&gt;node66 -->
<g id="edge16" class="edge"><title>node64&#45;&gt;node66</title>
<path fill="none" stroke="black" d="M992.776,-519.996C831.834,-510.231 155.537,-465.272 95,-396 84.4714,-383.952 84.1818,-371.788 95,-360 134.621,-316.825 547.598,-308.095 681.406,-306.396"/>
<polygon fill="black" stroke="black" points="681.693,-309.893 691.65,-306.273 681.609,-302.893 681.693,-309.893"/>
</g>
<!-- node54 -->
<g id="node29" class="node"><title>node54</title>
<polygon fill="none" stroke="black" points="821,-468 755,-468 755,-432 821,-432 821,-468"/>
<text text-anchor="middle" x="788" y="-446.7" font-family="Times Roman,serif" font-size="12.00">dllserver</text>
</g>
<!-- node64&#45;&gt;node54 -->
<g id="edge36" class="edge"><title>node64&#45;&gt;node54</title>
<path fill="none" stroke="black" d="M992.757,-511.684C950.068,-498.824 877.092,-476.839 830.77,-462.885"/>
<polygon fill="black" stroke="black" points="831.611,-459.483 821.026,-459.949 829.591,-466.185 831.611,-459.483"/>
</g>
<!-- node146 -->
<g id="node36" class="node"><title>node146</title>
<polygon fill="none" stroke="black" points="1184,-396 1130,-396 1130,-360 1184,-360 1184,-396"/>
<text text-anchor="middle" x="1157" y="-374.7" font-family="Times Roman,serif" font-size="12.00">eclrtl</text>
</g>
<!-- node64&#45;&gt;node146 -->
<g id="edge82" class="edge"><title>node64&#45;&gt;node146</title>
<path fill="none" stroke="black" d="M1061.08,-512.177C1083.95,-503.912 1113.07,-489.872 1131,-468 1145.35,-450.488 1151.78,-425.406 1154.66,-406.166"/>
<polygon fill="black" stroke="black" points="1158.15,-406.524 1155.93,-396.164 1151.2,-405.647 1158.15,-406.524"/>
</g>
<!-- node147 -->
<g id="node47" class="node"><title>node147</title>
<polygon fill="none" stroke="black" points="1054,-324 1000,-324 1000,-288 1054,-288 1054,-324"/>
<text text-anchor="middle" x="1027" y="-302.7" font-family="Times Roman,serif" font-size="12.00">nbcd</text>
</g>
<!-- node64&#45;&gt;node147 -->
<g id="edge80" class="edge"><title>node64&#45;&gt;node147</title>
<path fill="none" stroke="black" d="M1027,-503.955C1027,-466.394 1027,-379.554 1027,-334.41"/>
<polygon fill="black" stroke="black" points="1030.5,-334.145 1027,-324.145 1023.5,-334.145 1030.5,-334.145"/>
</g>
<!-- node53 -->
<g id="node64" class="node"><title>node53</title>
<polygon fill="none" stroke="black" points="1122,-468 1062,-468 1062,-432 1122,-432 1122,-468"/>
<text text-anchor="middle" x="1092" y="-446.7" font-family="Times Roman,serif" font-size="12.00">deftype</text>
</g>
<!-- node64&#45;&gt;node53 -->
<g id="edge84" class="edge"><title>node64&#45;&gt;node53</title>
<path fill="none" stroke="black" d="M1043.4,-503.831C1051.04,-495.369 1060.27,-485.149 1068.62,-475.897"/>
<polygon fill="black" stroke="black" points="1071.27,-478.181 1075.38,-468.413 1066.08,-473.491 1071.27,-478.181"/>
</g>
<!-- node66&#45;&gt;node151 -->
<g id="edge18" class="edge"><title>node66&#45;&gt;node151</title>
<path fill="none" stroke="black" d="M722.356,-287.753C722.211,-254.609 726.778,-184.234 765,-144 783.167,-124.877 852.669,-107.171 896.685,-97.5461"/>
<polygon fill="black" stroke="black" points="897.697,-100.909 906.741,-95.3904 896.229,-94.0644 897.697,-100.909"/>
</g>
<!-- node153 -->
<g id="node18" class="node"><title>node153</title>
<polygon fill="none" stroke="black" points="828,-180 774,-180 774,-144 828,-144 828,-180"/>
<text text-anchor="middle" x="801" y="-158.7" font-family="Times Roman,serif" font-size="12.00">mp</text>
</g>
<!-- node66&#45;&gt;node153 -->
<g id="edge20" class="edge"><title>node66&#45;&gt;node153</title>
<path fill="none" stroke="black" d="M731.522,-287.837C740.26,-269.492 754.45,-240.447 768,-216 772.981,-207.013 778.726,-197.387 784.013,-188.786"/>
<polygon fill="black" stroke="black" points="787.002,-190.607 789.305,-180.266 781.056,-186.914 787.002,-190.607"/>
</g>
<!-- node149 -->
<g id="node21" class="node"><title>node149</title>
<polygon fill="none" stroke="black" points="678,-252 624,-252 624,-216 678,-216 678,-252"/>
<text text-anchor="middle" x="651" y="-230.7" font-family="Times Roman,serif" font-size="12.00">hrpc</text>
</g>
<!-- node66&#45;&gt;node149 -->
<g id="edge24" class="edge"><title>node66&#45;&gt;node149</title>
<path fill="none" stroke="black" d="M704.831,-287.831C696.285,-279.285 685.944,-268.944 676.62,-259.62"/>
<polygon fill="black" stroke="black" points="678.959,-257.009 669.413,-252.413 674.009,-261.959 678.959,-257.009"/>
</g>
<!-- node59 -->
<g id="node25" class="node"><title>node59</title>
<polygon fill="none" stroke="black" points="906,-252 848,-252 848,-216 906,-216 906,-252"/>
<text text-anchor="middle" x="877" y="-230.7" font-family="Times Roman,serif" font-size="12.00">remote</text>
</g>
<!-- node66&#45;&gt;node59 -->
<g id="edge30" class="edge"><title>node66&#45;&gt;node59</title>
<path fill="none" stroke="black" d="M754.164,-291.43C778.586,-280.012 812.681,-264.071 838.755,-251.881"/>
<polygon fill="black" stroke="black" points="840.389,-254.98 847.966,-247.574 837.425,-248.639 840.389,-254.98"/>
</g>
<!-- node153&#45;&gt;node151 -->
<g id="edge22" class="edge"><title>node153&#45;&gt;node151</title>
<path fill="none" stroke="black" d="M828.235,-147.256C848.318,-136.384 875.844,-121.483 897.78,-109.608"/>
<polygon fill="black" stroke="black" points="899.673,-112.563 906.801,-104.724 896.341,-106.407 899.673,-112.563"/>
</g>
<!-- node149&#45;&gt;node151 -->
<g id="edge26" class="edge"><title>node149&#45;&gt;node151</title>
<path fill="none" stroke="black" d="M654.262,-215.848C658.94,-195.252 669.597,-162.17 692,-144 723.067,-118.804 836.561,-101.732 896.435,-94.267"/>
<polygon fill="black" stroke="black" points="897.107,-97.7111 906.61,-93.0266 896.26,-90.7625 897.107,-97.7111"/>
</g>
<!-- node149&#45;&gt;node153 -->
<g id="edge28" class="edge"><title>node149&#45;&gt;node153</title>
<path fill="none" stroke="black" d="M678.164,-220.961C702.406,-209.325 738.092,-192.196 764.762,-179.394"/>
<polygon fill="black" stroke="black" points="766.285,-182.546 773.785,-175.063 763.255,-176.235 766.285,-182.546"/>
</g>
<!-- node59&#45;&gt;node151 -->
<g id="edge32" class="edge"><title>node59&#45;&gt;node151</title>
<path fill="none" stroke="black" d="M884.219,-215.762C894.027,-190.985 911.647,-146.471 923.077,-117.594"/>
<polygon fill="black" stroke="black" points="926.413,-118.676 926.84,-108.09 919.905,-116.099 926.413,-118.676"/>
</g>
<!-- node59&#45;&gt;node153 -->
<g id="edge34" class="edge"><title>node59&#45;&gt;node153</title>
<path fill="none" stroke="black" d="M857.822,-215.831C848.641,-207.134 837.499,-196.578 827.522,-187.127"/>
<polygon fill="black" stroke="black" points="829.839,-184.499 820.172,-180.163 825.024,-189.581 829.839,-184.499"/>
</g>
<!-- node54&#45;&gt;node151 -->
<g id="edge40" class="edge"><title>node54&#45;&gt;node151</title>
<path fill="none" stroke="black" d="M821.008,-445.518C853.524,-439.501 902.74,-425.876 934,-396 965.389,-366 972,-349.419 972,-306 972,-306 972,-306 972,-234 972,-192.368 956.967,-146.14 945.812,-117.567"/>
<polygon fill="black" stroke="black" points="949.037,-116.206 942.059,-108.233 942.542,-118.817 949.037,-116.206"/>
</g>
<!-- node54&#45;&gt;node66 -->
<g id="edge64" class="edge"><title>node54&#45;&gt;node66</title>
<path fill="none" stroke="black" d="M779.768,-431.762C768.535,-406.876 748.315,-362.082 735.285,-333.216"/>
<polygon fill="black" stroke="black" points="738.47,-331.764 731.165,-324.09 732.09,-334.644 738.47,-331.764"/>
</g>
<!-- node54&#45;&gt;node153 -->
<g id="edge42" class="edge"><title>node54&#45;&gt;node153</title>
<path fill="none" stroke="black" d="M788.813,-431.984C791.011,-383.294 797.082,-248.796 799.734,-190.057"/>
<polygon fill="black" stroke="black" points="803.233,-190.157 800.187,-180.009 796.24,-189.841 803.233,-190.157"/>
</g>
<!-- node54&#45;&gt;node149 -->
<g id="edge44" class="edge"><title>node54&#45;&gt;node149</title>
<path fill="none" stroke="black" d="M754.87,-448.658C619.917,-443.037 117.69,-420.527 95,-396 84.1346,-384.255 85.0145,-372.502 95,-360 160.59,-277.882 499.989,-245.298 613.771,-236.576"/>
<polygon fill="black" stroke="black" points="614.042,-240.066 623.753,-235.829 613.519,-233.086 614.042,-240.066"/>
</g>
<!-- node54&#45;&gt;node59 -->
<g id="edge62" class="edge"><title>node54&#45;&gt;node59</title>
<path fill="none" stroke="black" d="M821.268,-446.042C851.457,-440.491 894.314,-427.274 915,-396 942.533,-354.375 915.6,-295.155 895.174,-261.043"/>
<polygon fill="black" stroke="black" points="897.884,-258.773 889.636,-252.123 891.937,-262.465 897.884,-258.773"/>
</g>
<!-- node176 -->
<g id="node31" class="node"><title>node176</title>
<ellipse fill="none" stroke="black" cx="235" cy="-378" rx="130.789" ry="18"/>
<text text-anchor="middle" x="235" y="-374.7" font-family="Times Roman,serif" font-size="12.00">/usr/lib/x86_64&#45;linux&#45;gnu/libz.so</text>
</g>
<!-- node54&#45;&gt;node176 -->
<g id="edge38" class="edge"><title>node54&#45;&gt;node176</title>
<path fill="none" stroke="black" d="M754.653,-445.658C674.339,-435.201 467.435,-408.263 340.255,-391.704"/>
<polygon fill="black" stroke="black" points="340.471,-388.203 330.102,-390.382 339.567,-395.144 340.471,-388.203"/>
</g>
<!-- node54&#45;&gt;node146 -->
<g id="edge46" class="edge"><title>node54&#45;&gt;node146</title>
<path fill="none" stroke="black" d="M821.071,-443.547C889.862,-430.124 1047.94,-399.279 1120,-385.22"/>
<polygon fill="black" stroke="black" points="1120.84,-388.622 1129.98,-383.272 1119.5,-381.752 1120.84,-388.622"/>
</g>
<!-- node55 -->
<g id="node52" class="node"><title>node55</title>
<polygon fill="none" stroke="black" points="906,-396 816,-396 816,-360 906,-360 906,-396"/>
<text text-anchor="middle" x="861" y="-374.7" font-family="Times Roman,serif" font-size="12.00">environment</text>
</g>
<!-- node54&#45;&gt;node55 -->
<g id="edge66" class="edge"><title>node54&#45;&gt;node55</title>
<path fill="none" stroke="black" d="M806.421,-431.831C815.153,-423.219 825.732,-412.785 835.242,-403.405"/>
<polygon fill="black" stroke="black" points="837.923,-405.677 842.585,-396.163 833.007,-400.693 837.923,-405.677"/>
</g>
<!-- node177 -->
<g id="node58" class="node"><title>node177</title>
<ellipse fill="none" stroke="black" cx="455" cy="-378" rx="70.8437" ry="18"/>
<text text-anchor="middle" x="455" y="-374.7" font-family="Times Roman,serif" font-size="12.00">/usr/lib/libbfd.so</text>
</g>
<!-- node54&#45;&gt;node177 -->
<g id="edge76" class="edge"><title>node54&#45;&gt;node177</title>
<path fill="none" stroke="black" d="M754.822,-443.04C706.45,-432.866 613.749,-413.263 535,-396 529.611,-394.819 524.021,-393.583 518.414,-392.336"/>
<polygon fill="black" stroke="black" points="518.864,-388.85 508.342,-390.088 517.34,-395.682 518.864,-388.85"/>
</g>
<!-- node178 -->
<g id="node60" class="node"><title>node178</title>
<ellipse fill="none" stroke="black" cx="633" cy="-378" rx="89.0421" ry="18"/>
<text text-anchor="middle" x="633" y="-374.7" font-family="Times Roman,serif" font-size="12.00">/usr/lib/libiberty_pic.a</text>
</g>
<!-- node54&#45;&gt;node178 -->
<g id="edge78" class="edge"><title>node54&#45;&gt;node178</title>
<path fill="none" stroke="black" d="M754.749,-434.554C732.269,-424.112 702.319,-410.2 677.751,-398.787"/>
<polygon fill="black" stroke="black" points="679.169,-395.587 668.625,-394.548 676.22,-401.935 679.169,-395.587"/>
</g>
<!-- node146&#45;&gt;node151 -->
<g id="edge56" class="edge"><title>node146&#45;&gt;node151</title>
<path fill="none" stroke="black" d="M1184.11,-377.029C1248.33,-374.102 1406.76,-362.996 1439,-324 1449.19,-311.668 1448.02,-301.218 1439,-288 1383.22,-206.214 1078.44,-125.215 971.278,-98.875"/>
<polygon fill="black" stroke="black" points="971.792,-95.3977 961.247,-96.4275 970.132,-102.198 971.792,-95.3977"/>
</g>
<!-- node186 -->
<g id="node38" class="node"><title>node186</title>
<ellipse fill="none" stroke="black" cx="1605" cy="-306" rx="118.939" ry="18"/>
<text text-anchor="middle" x="1605" y="-302.7" font-family="Times Roman,serif" font-size="12.00">/usr/lib/libboost_regex&#45;mt.so</text>
</g>
<!-- node146&#45;&gt;node186 -->
<g id="edge48" class="edge"><title>node146&#45;&gt;node186</title>
<path fill="none" stroke="black" d="M1184.02,-373.658C1247.73,-363.419 1409.77,-337.376 1513.22,-320.75"/>
<polygon fill="black" stroke="black" points="1514.04,-324.164 1523.35,-319.122 1512.93,-317.253 1514.04,-324.164"/>
</g>
<!-- node183 -->
<g id="node40" class="node"><title>node183</title>
<ellipse fill="none" stroke="black" cx="1820" cy="-306" rx="77.9931" ry="18"/>
<text text-anchor="middle" x="1820" y="-302.7" font-family="Times Roman,serif" font-size="12.00">/usr/lib/libicuuc.so</text>
</g>
<!-- node146&#45;&gt;node183 -->
<g id="edge50" class="edge"><title>node146&#45;&gt;node183</title>
<path fill="none" stroke="black" d="M1184.12,-376.526C1266.81,-371.803 1522.92,-355.482 1733,-324 1739.76,-322.986 1746.8,-321.784 1753.8,-320.488"/>
<polygon fill="black" stroke="black" points="1754.84,-323.852 1764,-318.535 1753.52,-316.977 1754.84,-323.852"/>
</g>
<!-- node184 -->
<g id="node42" class="node"><title>node184</title>
<ellipse fill="none" stroke="black" cx="1157" cy="-306" rx="85.1424" ry="18"/>
<text text-anchor="middle" x="1157" y="-302.7" font-family="Times Roman,serif" font-size="12.00">/usr/lib/libicui18n.so</text>
</g>
<!-- node146&#45;&gt;node184 -->
<g id="edge52" class="edge"><title>node146&#45;&gt;node184</title>
<path fill="none" stroke="black" d="M1157,-359.831C1157,-352.131 1157,-342.974 1157,-334.417"/>
<polygon fill="black" stroke="black" points="1160.5,-334.413 1157,-324.413 1153.5,-334.413 1160.5,-334.413"/>
</g>
<!-- node185 -->
<g id="node44" class="node"><title>node185</title>
<ellipse fill="none" stroke="black" cx="1345" cy="-306" rx="85.1424" ry="18"/>
<text text-anchor="middle" x="1345" y="-302.7" font-family="Times Roman,serif" font-size="12.00">/usr/lib/libicudata.so</text>
</g>
<!-- node146&#45;&gt;node185 -->
<g id="edge54" class="edge"><title>node146&#45;&gt;node185</title>
<path fill="none" stroke="black" d="M1184.34,-367.531C1213.01,-356.55 1258.73,-339.041 1294.07,-325.504"/>
<polygon fill="black" stroke="black" points="1295.66,-328.644 1303.75,-321.799 1293.16,-322.107 1295.66,-328.644"/>
</g>
<!-- node146&#45;&gt;node147 -->
<g id="edge58" class="edge"><title>node146&#45;&gt;node147</title>
<path fill="none" stroke="black" d="M1129.75,-362.906C1110.42,-352.202 1084.28,-337.724 1063.2,-326.051"/>
<polygon fill="black" stroke="black" points="1064.66,-322.857 1054.22,-321.074 1061.27,-328.981 1064.66,-322.857"/>
</g>
<!-- node147&#45;&gt;node151 -->
<g id="edge60" class="edge"><title>node147&#45;&gt;node151</title>
<path fill="none" stroke="black" d="M1025.47,-287.873C1022.19,-256.695 1012.49,-191.676 986,-144 980.181,-133.529 971.825,-123.607 963.508,-115.193"/>
<polygon fill="black" stroke="black" points="965.9,-112.638 956.274,-108.211 961.039,-117.674 965.9,-112.638"/>
</g>
<!-- node55&#45;&gt;node151 -->
<g id="edge68" class="edge"><title>node55&#45;&gt;node151</title>
<path fill="none" stroke="black" d="M870.785,-359.814C883.212,-335.84 904.321,-292.01 915,-252 927.203,-206.279 931.571,-151.219 933.132,-118.494"/>
<polygon fill="black" stroke="black" points="936.638,-118.437 933.562,-108.299 929.644,-118.142 936.638,-118.437"/>
</g>
<!-- node55&#45;&gt;node66 -->
<g id="edge74" class="edge"><title>node55&#45;&gt;node66</title>
<path fill="none" stroke="black" d="M826.177,-359.831C806.928,-349.788 782.931,-337.268 762.925,-326.83"/>
<polygon fill="black" stroke="black" points="764.53,-323.72 754.045,-322.197 761.292,-329.926 764.53,-323.72"/>
</g>
<!-- node55&#45;&gt;node153 -->
<g id="edge70" class="edge"><title>node55&#45;&gt;node153</title>
<path fill="none" stroke="black" d="M855.988,-359.955C845.51,-322.235 821.227,-234.819 808.733,-189.84"/>
<polygon fill="black" stroke="black" points="812.089,-188.843 806.04,-180.145 805.344,-190.717 812.089,-188.843"/>
</g>
<!-- node55&#45;&gt;node59 -->
<g id="edge72" class="edge"><title>node55&#45;&gt;node59</title>
<path fill="none" stroke="black" d="M863.026,-359.762C865.755,-335.201 870.639,-291.247 873.85,-262.354"/>
<polygon fill="black" stroke="black" points="877.364,-262.415 874.99,-252.09 870.407,-261.642 877.364,-262.415"/>
</g>
<!-- node53&#45;&gt;node151 -->
<g id="edge86" class="edge"><title>node53&#45;&gt;node151</title>
<path fill="none" stroke="black" d="M1122.18,-448.052C1271.69,-438.007 1926,-389.293 1926,-306 1926,-306 1926,-306 1926,-234 1926,-135.569 1151.21,-98.648 971.093,-91.3948"/>
<polygon fill="black" stroke="black" points="971.179,-87.8955 961.048,-90.9964 970.901,-94.89 971.179,-87.8955"/>
</g>
<!-- node53&#45;&gt;node146 -->
<g id="edge90" class="edge"><title>node53&#45;&gt;node146</title>
<path fill="none" stroke="black" d="M1108.4,-431.831C1116.04,-423.369 1125.27,-413.149 1133.62,-403.897"/>
<polygon fill="black" stroke="black" points="1136.27,-406.181 1140.38,-396.413 1131.08,-401.491 1136.27,-406.181"/>
</g>
<!-- node53&#45;&gt;node147 -->
<g id="edge88" class="edge"><title>node53&#45;&gt;node147</title>
<path fill="none" stroke="black" d="M1083.77,-431.762C1072.53,-406.876 1052.31,-362.082 1039.29,-333.216"/>
<polygon fill="black" stroke="black" points="1042.47,-331.764 1035.17,-324.09 1036.09,-334.644 1042.47,-331.764"/>
</g>
</g>
</svg>
