<?xml version="1.0" encoding="UTF-8" standalone="no"?>
<!DOCTYPE svg PUBLIC "-//W3C//DTD SVG 1.1//EN"
 "http://www.w3.org/Graphics/SVG/1.1/DTD/svg11.dtd">
<!-- Generated by graphviz version 2.26.3 (20100126.1600)
 -->
<!-- Title: GG Pages: 1 -->
<svg width="747pt" height="188pt"
 viewBox="0.00 0.00 747.00 188.00" xmlns="http://www.w3.org/2000/svg" xmlns:xlink="http://www.w3.org/1999/xlink">
<g id="graph1" class="graph" transform="scale(1 1) rotate(0) translate(4 184)">
<title>GG</title>
<polygon fill="white" stroke="white" points="-4,5 -4,-184 744,-184 744,5 -4,5"/>
<!-- node136 -->
<g id="node1" class="node"><title>node136</title>
<polygon fill="none" stroke="black" points="412,-180 338,-180 338,-144 412,-144 412,-180"/>
<text text-anchor="middle" x="375" y="-158.7" font-family="Times Roman,serif" font-size="12.00">unicodelib</text>
</g>
<!-- node151 -->
<g id="node2" class="node"><title>node151</title>
<polygon fill="none" stroke="black" points="189,-108 135,-108 135,-72 189,-72 189,-108"/>
<text text-anchor="middle" x="162" y="-86.7" font-family="Times Roman,serif" font-size="12.00">jlib</text>
</g>
<!-- node136&#45;&gt;node151 -->
<g id="edge2" class="edge"><title>node136&#45;&gt;node151</title>
<path fill="none" stroke="black" d="M337.769,-152.594C303.57,-143.525 251.464,-128.632 198.791,-108.017"/>
<polygon fill="black" stroke="black" points="199.886,-104.686 189.301,-104.242 197.299,-111.19 199.886,-104.686"/>
</g>
<!-- node183 -->
<g id="node12" class="node"><title>node183</title>
<ellipse fill="none" stroke="black" cx="285" cy="-90" rx="77.9931" ry="18"/>
<text text-anchor="middle" x="285" y="-86.7" font-family="Times Roman,serif" font-size="12.00">/usr/lib/libicuuc.so</text>
</g>
<!-- node136&#45;&gt;node183 -->
<g id="edge12" class="edge"><title>node136&#45;&gt;node183</title>
<path fill="none" stroke="black" d="M352.289,-143.831C340.95,-134.76 327.085,-123.668 314.893,-113.915"/>
<polygon fill="black" stroke="black" points="316.767,-110.932 306.772,-107.418 312.394,-116.398 316.767,-110.932"/>
</g>
<!-- node184 -->
<g id="node14" class="node"><title>node184</title>
<ellipse fill="none" stroke="black" cx="466" cy="-90" rx="85.1424" ry="18"/>
<text text-anchor="middle" x="466" y="-86.7" font-family="Times Roman,serif" font-size="12.00">/usr/lib/libicui18n.so</text>
</g>
<!-- node136&#45;&gt;node184 -->
<g id="edge14" class="edge"><title>node136&#45;&gt;node184</title>
<path fill="none" stroke="black" d="M397.963,-143.831C409.538,-134.673 423.717,-123.455 436.129,-113.634"/>
<polygon fill="black" stroke="black" points="438.315,-116.367 443.986,-107.418 433.972,-110.878 438.315,-116.367"/>
</g>
<!-- node185 -->
<g id="node16" class="node"><title>node185</title>
<ellipse fill="none" stroke="black" cx="654" cy="-90" rx="85.1424" ry="18"/>
<text text-anchor="middle" x="654" y="-86.7" font-family="Times Roman,serif" font-size="12.00">/usr/lib/libicudata.so</text>
</g>
<!-- node136&#45;&gt;node185 -->
<g id="edge16" class="edge"><title>node136&#45;&gt;node185</title>
<path fill="none" stroke="black" d="M412.049,-152.439C457.401,-140.735 534.95,-120.723 590.021,-106.511"/>
<polygon fill="black" stroke="black" points="591.221,-109.816 600.029,-103.928 589.472,-103.038 591.221,-109.816"/>
</g>
<!-- node152 -->
<g id="node4" class="node"><title>node152</title>
<polygon fill="none" stroke="black" points="40,-36 0.0563759,-18 40,-3.55271e-15 79.9436,-18 40,-36"/>
<text text-anchor="middle" x="40" y="-14.7" font-family="Times Roman,serif" font-size="12.00">lzma</text>
</g>
<!-- node151&#45;&gt;node152 -->
<g id="edge4" class="edge"><title>node151&#45;&gt;node152</title>
<path fill="none" stroke="black" d="M134.924,-74.0209C114.47,-61.9494 86.5536,-45.4743 66.293,-33.5172"/>
<polygon fill="black" stroke="black" points="67.968,-30.4417 57.577,-28.3733 64.4102,-36.4701 67.968,-30.4417"/>
</g>
<!-- node187 -->
<g id="node6" class="node"><title>node187</title>
<ellipse fill="none" stroke="black" cx="125" cy="-18" rx="27" ry="18"/>
<text text-anchor="middle" x="125" y="-14.7" font-family="Times Roman,serif" font-size="12.00">dl</text>
</g>
<!-- node151&#45;&gt;node187 -->
<g id="edge6" class="edge"><title>node151&#45;&gt;node187</title>
<path fill="none" stroke="black" d="M152.663,-71.8314C148.405,-63.5451 143.28,-53.5727 138.605,-44.4748"/>
<polygon fill="black" stroke="black" points="141.635,-42.7123 133.951,-35.4177 135.408,-45.9118 141.635,-42.7123"/>
</g>
<!-- node179 -->
<g id="node8" class="node"><title>node179</title>
<ellipse fill="none" stroke="black" cx="200" cy="-18" rx="30.0465" ry="18"/>
<text text-anchor="middle" x="200" y="-14.7" font-family="Times Roman,serif" font-size="12.00">crypt</text>
</g>
<!-- node151&#45;&gt;node179 -->
<g id="edge8" class="edge"><title>node151&#45;&gt;node179</title>
<path fill="none" stroke="black" d="M171.589,-71.8314C175.962,-63.5451 181.226,-53.5727 186.027,-44.4748"/>
<polygon fill="black" stroke="black" points="189.235,-45.8952 190.807,-35.4177 183.044,-42.6279 189.235,-45.8952"/>
</g>
<!-- node188 -->
<g id="node10" class="node"><title>node188</title>
<ellipse fill="none" stroke="black" cx="275" cy="-18" rx="27" ry="18"/>
<text text-anchor="middle" x="275" y="-14.7" font-family="Times Roman,serif" font-size="12.00">rt</text>
</g>
<!-- node151&#45;&gt;node188 -->
<g id="edge10" class="edge"><title>node151&#45;&gt;node188</title>
<path fill="none" stroke="black" d="M189.066,-72.7542C206.414,-61.7009 228.898,-47.375 246.516,-36.1494"/>
<polygon fill="black" stroke="black" points="248.679,-38.9209 255.232,-30.5955 244.918,-33.0174 248.679,-38.9209"/>
</g>
</g>
</svg>
