<?xml version="1.0" encoding="UTF-8" standalone="no"?>
<!DOCTYPE svg PUBLIC "-//W3C//DTD SVG 1.1//EN"
 "http://www.w3.org/Graphics/SVG/1.1/DTD/svg11.dtd">
<!-- Generated by graphviz version 2.26.3 (20100126.1600)
 -->
<!-- Title: GG Pages: 1 -->
<svg width="1249pt" height="332pt"
 viewBox="0.00 0.00 1249.00 332.00" xmlns="http://www.w3.org/2000/svg" xmlns:xlink="http://www.w3.org/1999/xlink">
<g id="graph1" class="graph" transform="scale(1 1) rotate(0) translate(4 328)">
<title>GG</title>
<polygon fill="white" stroke="white" points="-4,5 -4,-328 1246,-328 1246,5 -4,5"/>
<!-- node108 -->
<g id="node1" class="node"><title>node108</title>
<polygon fill="none" stroke="black" points="502.09,-311.562 433,-324 363.91,-311.562 363.974,-291.438 502.026,-291.438 502.09,-311.562"/>
<text text-anchor="middle" x="433" y="-302.7" font-family="Times Roman,serif" font-size="12.00">wumanager</text>
</g>
<!-- node180 -->
<g id="node2" class="node"><title>node180</title>
<ellipse fill="none" stroke="black" cx="85" cy="-90" rx="85.1424" ry="18"/>
<text text-anchor="middle" x="85" y="-86.7" font-family="Times Roman,serif" font-size="12.00">/usr/lib/libxalan&#45;c.so</text>
</g>
<!-- node108&#45;&gt;node180 -->
<g id="edge2" class="edge"><title>node108&#45;&gt;node180</title>
<path fill="none" stroke="black" d="M409.354,-291.323C349.645,-254.263 192.479,-156.711 121.141,-112.433"/>
<polygon fill="black" stroke="black" points="122.815,-109.352 112.473,-107.052 119.124,-115.3 122.815,-109.352"/>
</g>
<!-- node181 -->
<g id="node4" class="node"><title>node181</title>
<ellipse fill="none" stroke="black" cx="281" cy="-90" rx="93.0912" ry="18"/>
<text text-anchor="middle" x="281" y="-86.7" font-family="Times Roman,serif" font-size="12.00">/usr/lib/libxalanMsg.so</text>
</g>
<!-- node108&#45;&gt;node181 -->
<g id="edge4" class="edge"><title>node108&#45;&gt;node181</title>
<path fill="none" stroke="black" d="M415.998,-291.405C404.514,-281.067 389.425,-266.508 378,-252 343.298,-207.931 311.65,-150.399 294.477,-117.089"/>
<polygon fill="black" stroke="black" points="297.487,-115.287 289.826,-107.969 291.251,-118.468 297.487,-115.287"/>
</g>
<!-- node182 -->
<g id="node6" class="node"><title>node182</title>
<ellipse fill="none" stroke="black" cx="483" cy="-90" rx="90.9919" ry="18"/>
<text text-anchor="middle" x="483" y="-86.7" font-family="Times Roman,serif" font-size="12.00">/usr/lib/libxerces&#45;c.so</text>
</g>
<!-- node108&#45;&gt;node182 -->
<g id="edge6" class="edge"><title>node108&#45;&gt;node182</title>
<path fill="none" stroke="black" d="M447.545,-291.354C456.616,-281.216 467.565,-266.907 473,-252 489.216,-207.522 488.454,-151.65 486.015,-118.496"/>
<polygon fill="black" stroke="black" points="489.473,-117.844 485.146,-108.173 482.497,-118.431 489.473,-117.844"/>
</g>
<!-- node151 -->
<g id="node8" class="node"><title>node151</title>
<polygon fill="none" stroke="black" points="646,-108 592,-108 592,-72 646,-72 646,-108"/>
<text text-anchor="middle" x="619" y="-86.7" font-family="Times Roman,serif" font-size="12.00">jlib</text>
</g>
<!-- node108&#45;&gt;node151 -->
<g id="edge8" class="edge"><title>node108&#45;&gt;node151</title>
<path fill="none" stroke="black" d="M450.487,-291.344C462.616,-280.862 478.883,-266.159 492,-252 533.693,-206.998 576.575,-149.507 600.305,-116.511"/>
<polygon fill="black" stroke="black" points="603.223,-118.448 606.193,-108.278 597.529,-114.376 603.223,-118.448"/>
</g>
<!-- node160 -->
<g id="node18" class="node"><title>node160</title>
<polygon fill="none" stroke="black" points="401,-180 347,-180 347,-144 401,-144 401,-180"/>
<text text-anchor="middle" x="374" y="-158.7" font-family="Times Roman,serif" font-size="12.00">xmllib</text>
</g>
<!-- node108&#45;&gt;node160 -->
<g id="edge18" class="edge"><title>node108&#45;&gt;node160</title>
<path fill="none" stroke="black" d="M419.164,-291.066C410.393,-280.806 399.51,-266.47 393,-252 384.181,-232.4 379.384,-208.534 376.816,-190.304"/>
<polygon fill="black" stroke="black" points="380.278,-189.778 375.549,-180.297 373.333,-190.657 380.278,-189.778"/>
</g>
<!-- node110 -->
<g id="node24" class="node"><title>node110</title>
<polygon fill="none" stroke="black" points="464,-252 402,-252 402,-216 464,-216 464,-252"/>
<text text-anchor="middle" x="433" y="-230.7" font-family="Times Roman,serif" font-size="12.00">esphttp</text>
</g>
<!-- node108&#45;&gt;node110 -->
<g id="edge28" class="edge"><title>node108&#45;&gt;node110</title>
<path fill="none" stroke="black" d="M433,-291.43C433,-283.101 433,-272.366 433,-262.436"/>
<polygon fill="black" stroke="black" points="436.5,-262.128 433,-252.128 429.5,-262.128 436.5,-262.128"/>
</g>
<!-- node156 -->
<g id="node31" class="node"><title>node156</title>
<polygon fill="none" stroke="black" points="767,-252 673,-252 673,-216 767,-216 767,-252"/>
<text text-anchor="middle" x="720" y="-230.7" font-family="Times Roman,serif" font-size="12.00">securesocket</text>
</g>
<!-- node108&#45;&gt;node156 -->
<g id="edge40" class="edge"><title>node108&#45;&gt;node156</title>
<path fill="none" stroke="black" d="M491.079,-291.43C541.187,-278.859 613.144,-260.807 662.95,-248.312"/>
<polygon fill="black" stroke="black" points="664.066,-251.641 672.914,-245.812 662.363,-244.851 664.066,-251.641"/>
</g>
<!-- node152 -->
<g id="node10" class="node"><title>node152</title>
<polygon fill="none" stroke="black" points="496,-36 456.056,-18 496,-3.55271e-15 535.944,-18 496,-36"/>
<text text-anchor="middle" x="496" y="-14.7" font-family="Times Roman,serif" font-size="12.00">lzma</text>
</g>
<!-- node151&#45;&gt;node152 -->
<g id="edge10" class="edge"><title>node151&#45;&gt;node152</title>
<path fill="none" stroke="black" d="M591.702,-74.0209C571.08,-61.9494 542.935,-45.4743 522.508,-33.5172"/>
<polygon fill="black" stroke="black" points="524.119,-30.4046 513.721,-28.3733 520.583,-36.4457 524.119,-30.4046"/>
</g>
<!-- node187 -->
<g id="node12" class="node"><title>node187</title>
<ellipse fill="none" stroke="black" cx="581" cy="-18" rx="27" ry="18"/>
<text text-anchor="middle" x="581" y="-14.7" font-family="Times Roman,serif" font-size="12.00">dl</text>
</g>
<!-- node151&#45;&gt;node187 -->
<g id="edge12" class="edge"><title>node151&#45;&gt;node187</title>
<path fill="none" stroke="black" d="M609.411,-71.8314C605.038,-63.5451 599.774,-53.5727 594.973,-44.4748"/>
<polygon fill="black" stroke="black" points="597.956,-42.6279 590.193,-35.4177 591.765,-45.8952 597.956,-42.6279"/>
</g>
<!-- node179 -->
<g id="node14" class="node"><title>node179</title>
<ellipse fill="none" stroke="black" cx="656" cy="-18" rx="30.0465" ry="18"/>
<text text-anchor="middle" x="656" y="-14.7" font-family="Times Roman,serif" font-size="12.00">crypt</text>
</g>
<!-- node151&#45;&gt;node179 -->
<g id="edge14" class="edge"><title>node151&#45;&gt;node179</title>
<path fill="none" stroke="black" d="M628.337,-71.8314C632.595,-63.5451 637.72,-53.5727 642.395,-44.4748"/>
<polygon fill="black" stroke="black" points="645.592,-45.9118 647.049,-35.4177 639.365,-42.7123 645.592,-45.9118"/>
</g>
<!-- node188 -->
<g id="node16" class="node"><title>node188</title>
<ellipse fill="none" stroke="black" cx="731" cy="-18" rx="27" ry="18"/>
<text text-anchor="middle" x="731" y="-14.7" font-family="Times Roman,serif" font-size="12.00">rt</text>
</g>
<!-- node151&#45;&gt;node188 -->
<g id="edge16" class="edge"><title>node151&#45;&gt;node188</title>
<path fill="none" stroke="black" d="M646.112,-72.5708C663.313,-61.5133 685.52,-47.237 702.907,-36.06"/>
<polygon fill="black" stroke="black" points="704.988,-38.8829 711.507,-30.5312 701.203,-32.9946 704.988,-38.8829"/>
</g>
<!-- node160&#45;&gt;node180 -->
<g id="edge20" class="edge"><title>node160&#45;&gt;node180</title>
<path fill="none" stroke="black" d="M346.947,-149.221C342.353,-147.312 337.584,-145.489 333,-144 300.992,-133.604 218.89,-116.39 157.867,-104.194"/>
<polygon fill="black" stroke="black" points="158.375,-100.727 147.884,-102.206 157.008,-107.592 158.375,-100.727"/>
</g>
<!-- node160&#45;&gt;node181 -->
<g id="edge22" class="edge"><title>node160&#45;&gt;node181</title>
<path fill="none" stroke="black" d="M350.532,-143.831C338.791,-134.741 324.428,-123.622 311.811,-113.854"/>
<polygon fill="black" stroke="black" points="313.867,-111.019 303.817,-107.665 309.582,-116.554 313.867,-111.019"/>
</g>
<!-- node160&#45;&gt;node182 -->
<g id="edge24" class="edge"><title>node160&#45;&gt;node182</title>
<path fill="none" stroke="black" d="M401.224,-144.017C415.456,-134.616 433.032,-123.006 448.238,-112.962"/>
<polygon fill="black" stroke="black" points="450.458,-115.69 456.873,-107.258 446.6,-109.849 450.458,-115.69"/>
</g>
<!-- node160&#45;&gt;node151 -->
<g id="edge26" class="edge"><title>node160&#45;&gt;node151</title>
<path fill="none" stroke="black" d="M401.283,-156.869C439.915,-149.196 512.725,-133.238 582.001,-107.993"/>
<polygon fill="black" stroke="black" points="583.595,-111.135 591.749,-104.37 581.156,-104.574 583.595,-111.135"/>
</g>
<!-- node110&#45;&gt;node180 -->
<g id="edge30" class="edge"><title>node110&#45;&gt;node180</title>
<path fill="none" stroke="black" d="M401.811,-221.094C340.9,-195.89 205.758,-139.969 133.227,-109.956"/>
<polygon fill="black" stroke="black" points="134.427,-106.665 123.849,-106.075 131.751,-113.133 134.427,-106.665"/>
</g>
<!-- node110&#45;&gt;node181 -->
<g id="edge32" class="edge"><title>node110&#45;&gt;node181</title>
<path fill="none" stroke="black" d="M432.958,-215.963C431.973,-196.089 427.496,-164.262 410,-144 395.139,-126.79 373.886,-114.944 352.907,-106.842"/>
<polygon fill="black" stroke="black" points="353.905,-103.482 343.311,-103.377 351.528,-110.066 353.905,-103.482"/>
</g>
<!-- node110&#45;&gt;node182 -->
<g id="edge34" class="edge"><title>node110&#45;&gt;node182</title>
<path fill="none" stroke="black" d="M439.333,-215.762C447.936,-190.985 463.392,-146.471 473.419,-117.594"/>
<polygon fill="black" stroke="black" points="476.745,-118.684 476.719,-108.09 470.132,-116.388 476.745,-118.684"/>
</g>
<!-- node110&#45;&gt;node151 -->
<g id="edge36" class="edge"><title>node110&#45;&gt;node151</title>
<path fill="none" stroke="black" d="M456.557,-215.762C489.819,-190.011 550.617,-142.942 587.659,-114.264"/>
<polygon fill="black" stroke="black" points="589.87,-116.979 595.634,-108.09 585.584,-111.444 589.87,-116.979"/>
</g>
<!-- node110&#45;&gt;node160 -->
<g id="edge38" class="edge"><title>node110&#45;&gt;node160</title>
<path fill="none" stroke="black" d="M418.112,-215.831C411.247,-207.454 402.97,-197.353 395.449,-188.175"/>
<polygon fill="black" stroke="black" points="398.134,-185.93 389.089,-180.413 392.72,-190.366 398.134,-185.93"/>
</g>
<!-- node156&#45;&gt;node151 -->
<g id="edge42" class="edge"><title>node156&#45;&gt;node151</title>
<path fill="none" stroke="black" d="M679.865,-215.976C664.582,-207.2 648.368,-195.212 638,-180 625.612,-161.825 621.054,-137.155 619.487,-118.24"/>
<polygon fill="black" stroke="black" points="622.973,-117.905 618.883,-108.131 615.986,-118.322 622.973,-117.905"/>
</g>
<!-- node191 -->
<g id="node34" class="node"><title>node191</title>
<ellipse fill="none" stroke="black" cx="784" cy="-162" rx="137.138" ry="18"/>
<text text-anchor="middle" x="784" y="-158.7" font-family="Times Roman,serif" font-size="12.00">/usr/lib/x86_64&#45;linux&#45;gnu/libssl.so</text>
</g>
<!-- node156&#45;&gt;node191 -->
<g id="edge44" class="edge"><title>node156&#45;&gt;node191</title>
<path fill="none" stroke="black" d="M736.15,-215.831C743.787,-207.239 753.036,-196.834 761.359,-187.471"/>
<polygon fill="black" stroke="black" points="764.049,-189.713 768.077,-179.913 758.817,-185.062 764.049,-189.713"/>
</g>
<!-- node192 -->
<g id="node36" class="node"><title>node192</title>
<ellipse fill="none" stroke="black" cx="1090" cy="-162" rx="150.937" ry="18"/>
<text text-anchor="middle" x="1090" y="-158.7" font-family="Times Roman,serif" font-size="12.00">/usr/lib/x86_64&#45;linux&#45;gnu/libcrypto.so</text>
</g>
<!-- node156&#45;&gt;node192 -->
<g id="edge46" class="edge"><title>node156&#45;&gt;node192</title>
<path fill="none" stroke="black" d="M767.237,-224.808C825.941,-213.384 927.341,-193.652 1000.85,-179.348"/>
<polygon fill="black" stroke="black" points="1001.88,-182.713 1011.03,-177.367 1000.54,-175.842 1001.88,-182.713"/>
</g>
</g>
</svg>
