<?xml version="1.0" encoding="UTF-8" standalone="no"?>
<!DOCTYPE svg PUBLIC "-//W3C//DTD SVG 1.1//EN"
 "http://www.w3.org/Graphics/SVG/1.1/DTD/svg11.dtd">
<!-- Generated by graphviz version 2.26.3 (20100126.1600)
 -->
<!-- Title: GG Pages: 1 -->
<svg width="936pt" height="404pt"
 viewBox="0.00 0.00 936.00 404.00" xmlns="http://www.w3.org/2000/svg" xmlns:xlink="http://www.w3.org/1999/xlink">
<g id="graph1" class="graph" transform="scale(1 1) rotate(0) translate(4 400)">
<title>GG</title>
<polygon fill="white" stroke="white" points="-4,5 -4,-400 933,-400 933,5 -4,5"/>
<!-- node82 -->
<g id="node1" class="node"><title>node82</title>
<polygon fill="none" stroke="black" points="197.128,-383.562 143,-396 88.8718,-383.562 88.9224,-363.438 197.078,-363.438 197.128,-383.562"/>
<text text-anchor="middle" x="143" y="-374.7" font-family="Times Roman,serif" font-size="12.00">daserver</text>
</g>
<!-- node151 -->
<g id="node2" class="node"><title>node151</title>
<polygon fill="none" stroke="black" points="189,-108 135,-108 135,-72 189,-72 189,-108"/>
<text text-anchor="middle" x="162" y="-86.7" font-family="Times Roman,serif" font-size="12.00">jlib</text>
</g>
<!-- node82&#45;&gt;node151 -->
<g id="edge2" class="edge"><title>node82&#45;&gt;node151</title>
<path fill="none" stroke="black" d="M118.198,-363.264C77.5092,-336.986 2.98977,-278.868 23,-216 34.8936,-178.633 45.3726,-170.8 74,-144 89.2365,-129.736 108.818,-117.276 125.639,-107.931"/>
<polygon fill="black" stroke="black" points="127.516,-110.895 134.656,-103.067 124.193,-104.734 127.516,-110.895"/>
</g>
<!-- node155 -->
<g id="node12" class="node"><title>node155</title>
<polygon fill="none" stroke="black" points="446,-324 354,-324 354,-288 446,-288 446,-324"/>
<text text-anchor="middle" x="400" y="-302.7" font-family="Times Roman,serif" font-size="12.00">LdapSecurity</text>
</g>
<!-- node82&#45;&gt;node155 -->
<g id="edge12" class="edge"><title>node82&#45;&gt;node155</title>
<path fill="none" stroke="black" d="M195.008,-363.43C238.234,-351.32 299.616,-334.123 343.931,-321.708"/>
<polygon fill="black" stroke="black" points="344.993,-325.045 353.678,-318.977 343.104,-318.305 344.993,-325.045"/>
</g>
<!-- node153 -->
<g id="node19" class="node"><title>node153</title>
<polygon fill="none" stroke="black" points="162,-180 108,-180 108,-144 162,-144 162,-180"/>
<text text-anchor="middle" x="135" y="-158.7" font-family="Times Roman,serif" font-size="12.00">mp</text>
</g>
<!-- node82&#45;&gt;node153 -->
<g id="edge20" class="edge"><title>node82&#45;&gt;node153</title>
<path fill="none" stroke="black" d="M139.553,-363.433C137.179,-352.622 134.238,-337.482 133,-324 128.703,-277.194 130.868,-222.465 132.89,-190.102"/>
<polygon fill="black" stroke="black" points="136.388,-190.238 133.56,-180.028 129.404,-189.773 136.388,-190.238"/>
</g>
<!-- node149 -->
<g id="node22" class="node"><title>node149</title>
<polygon fill="none" stroke="black" points="86,-252 32,-252 32,-216 86,-216 86,-252"/>
<text text-anchor="middle" x="59" y="-230.7" font-family="Times Roman,serif" font-size="12.00">hrpc</text>
</g>
<!-- node82&#45;&gt;node149 -->
<g id="edge24" class="edge"><title>node82&#45;&gt;node149</title>
<path fill="none" stroke="black" d="M129.524,-363.144C120.464,-352.69 108.644,-338.099 100,-324 87.8092,-304.115 77.0116,-279.992 69.5612,-261.727"/>
<polygon fill="black" stroke="black" points="72.7354,-260.238 65.7789,-252.247 66.2338,-262.832 72.7354,-260.238"/>
</g>
<!-- node59 -->
<g id="node26" class="node"><title>node59</title>
<polygon fill="none" stroke="black" points="276,-252 218,-252 218,-216 276,-216 276,-252"/>
<text text-anchor="middle" x="247" y="-230.7" font-family="Times Roman,serif" font-size="12.00">remote</text>
</g>
<!-- node82&#45;&gt;node59 -->
<g id="edge30" class="edge"><title>node82&#45;&gt;node59</title>
<path fill="none" stroke="black" d="M168.549,-363.286C183.259,-353.709 201.125,-340.035 213,-324 226.672,-305.54 235.467,-280.939 240.679,-262.123"/>
<polygon fill="black" stroke="black" points="244.093,-262.899 243.214,-252.341 237.317,-261.143 244.093,-262.899"/>
</g>
<!-- node66 -->
<g id="node30" class="node"><title>node66</title>
<polygon fill="none" stroke="black" points="204,-324 142,-324 142,-288 204,-288 204,-324"/>
<text text-anchor="middle" x="173" y="-302.7" font-family="Times Roman,serif" font-size="12.00">dalibase</text>
</g>
<!-- node82&#45;&gt;node66 -->
<g id="edge36" class="edge"><title>node82&#45;&gt;node66</title>
<path fill="none" stroke="black" d="M149.071,-363.43C152.652,-354.835 157.3,-343.679 161.547,-333.488"/>
<polygon fill="black" stroke="black" points="164.831,-334.705 165.447,-324.128 158.37,-332.013 164.831,-334.705"/>
</g>
<!-- node152 -->
<g id="node4" class="node"><title>node152</title>
<polygon fill="none" stroke="black" points="40,-36 0.0563759,-18 40,-3.55271e-15 79.9436,-18 40,-36"/>
<text text-anchor="middle" x="40" y="-14.7" font-family="Times Roman,serif" font-size="12.00">lzma</text>
</g>
<!-- node151&#45;&gt;node152 -->
<g id="edge4" class="edge"><title>node151&#45;&gt;node152</title>
<path fill="none" stroke="black" d="M134.924,-74.0209C114.47,-61.9494 86.5536,-45.4743 66.293,-33.5172"/>
<polygon fill="black" stroke="black" points="67.968,-30.4417 57.577,-28.3733 64.4102,-36.4701 67.968,-30.4417"/>
</g>
<!-- node187 -->
<g id="node6" class="node"><title>node187</title>
<ellipse fill="none" stroke="black" cx="125" cy="-18" rx="27" ry="18"/>
<text text-anchor="middle" x="125" y="-14.7" font-family="Times Roman,serif" font-size="12.00">dl</text>
</g>
<!-- node151&#45;&gt;node187 -->
<g id="edge6" class="edge"><title>node151&#45;&gt;node187</title>
<path fill="none" stroke="black" d="M152.663,-71.8314C148.405,-63.5451 143.28,-53.5727 138.605,-44.4748"/>
<polygon fill="black" stroke="black" points="141.635,-42.7123 133.951,-35.4177 135.408,-45.9118 141.635,-42.7123"/>
</g>
<!-- node179 -->
<g id="node8" class="node"><title>node179</title>
<ellipse fill="none" stroke="black" cx="200" cy="-18" rx="30.0465" ry="18"/>
<text text-anchor="middle" x="200" y="-14.7" font-family="Times Roman,serif" font-size="12.00">crypt</text>
</g>
<!-- node151&#45;&gt;node179 -->
<g id="edge8" class="edge"><title>node151&#45;&gt;node179</title>
<path fill="none" stroke="black" d="M171.589,-71.8314C175.962,-63.5451 181.226,-53.5727 186.027,-44.4748"/>
<polygon fill="black" stroke="black" points="189.235,-45.8952 190.807,-35.4177 183.044,-42.6279 189.235,-45.8952"/>
</g>
<!-- node188 -->
<g id="node10" class="node"><title>node188</title>
<ellipse fill="none" stroke="black" cx="275" cy="-18" rx="27" ry="18"/>
<text text-anchor="middle" x="275" y="-14.7" font-family="Times Roman,serif" font-size="12.00">rt</text>
</g>
<!-- node151&#45;&gt;node188 -->
<g id="edge10" class="edge"><title>node151&#45;&gt;node188</title>
<path fill="none" stroke="black" d="M189.066,-72.7542C206.414,-61.7009 228.898,-47.375 246.516,-36.1494"/>
<polygon fill="black" stroke="black" points="248.679,-38.9209 255.232,-30.5955 244.918,-33.0174 248.679,-38.9209"/>
</g>
<!-- node155&#45;&gt;node151 -->
<g id="edge14" class="edge"><title>node155&#45;&gt;node151</title>
<path fill="none" stroke="black" d="M371.019,-287.996C356.057,-278.138 337.872,-265.252 323,-252 275.053,-209.274 273.164,-188.647 227,-144 216.579,-133.922 204.519,-123.579 193.638,-114.676"/>
<polygon fill="black" stroke="black" points="195.571,-111.739 185.593,-108.178 191.173,-117.184 195.571,-111.739"/>
</g>
<!-- node189 -->
<g id="node15" class="node"><title>node189</title>
<ellipse fill="none" stroke="black" cx="481" cy="-234" rx="148.987" ry="18"/>
<text text-anchor="middle" x="481" y="-230.7" font-family="Times Roman,serif" font-size="12.00">/usr/lib/x86_64&#45;linux&#45;gnu/libldap_r.so</text>
</g>
<!-- node155&#45;&gt;node189 -->
<g id="edge16" class="edge"><title>node155&#45;&gt;node189</title>
<path fill="none" stroke="black" d="M420.44,-287.831C430.396,-278.981 442.516,-268.208 453.29,-258.631"/>
<polygon fill="black" stroke="black" points="455.699,-261.173 460.847,-251.913 451.048,-255.941 455.699,-261.173"/>
</g>
<!-- node190 -->
<g id="node17" class="node"><title>node190</title>
<ellipse fill="none" stroke="black" cx="788" cy="-234" rx="139.888" ry="18"/>
<text text-anchor="middle" x="788" y="-230.7" font-family="Times Roman,serif" font-size="12.00">/usr/lib/x86_64&#45;linux&#45;gnu/liblber.so</text>
</g>
<!-- node155&#45;&gt;node190 -->
<g id="edge18" class="edge"><title>node155&#45;&gt;node190</title>
<path fill="none" stroke="black" d="M446.032,-297.458C507.922,-285.973 619.277,-265.309 698.082,-250.686"/>
<polygon fill="black" stroke="black" points="698.815,-254.11 708.009,-248.844 697.538,-247.227 698.815,-254.11"/>
</g>
<!-- node153&#45;&gt;node151 -->
<g id="edge22" class="edge"><title>node153&#45;&gt;node151</title>
<path fill="none" stroke="black" d="M141.813,-143.831C144.764,-135.962 148.286,-126.571 151.555,-117.853"/>
<polygon fill="black" stroke="black" points="154.861,-119.006 155.095,-108.413 148.307,-116.548 154.861,-119.006"/>
</g>
<!-- node149&#45;&gt;node151 -->
<g id="edge26" class="edge"><title>node149&#45;&gt;node151</title>
<path fill="none" stroke="black" d="M64.4097,-215.847C70.6872,-196.727 82.3512,-166.352 99,-144 107.08,-133.152 117.709,-122.997 127.929,-114.486"/>
<polygon fill="black" stroke="black" points="130.368,-117.017 135.981,-108.031 125.99,-111.555 130.368,-117.017"/>
</g>
<!-- node149&#45;&gt;node153 -->
<g id="edge28" class="edge"><title>node149&#45;&gt;node153</title>
<path fill="none" stroke="black" d="M78.178,-215.831C87.3588,-207.134 98.5006,-196.578 108.478,-187.127"/>
<polygon fill="black" stroke="black" points="110.976,-189.581 115.828,-180.163 106.161,-184.499 110.976,-189.581"/>
</g>
<!-- node59&#45;&gt;node151 -->
<g id="edge32" class="edge"><title>node59&#45;&gt;node151</title>
<path fill="none" stroke="black" d="M239.684,-215.816C231.883,-197.201 218.653,-167.719 204,-144 198.134,-134.505 190.916,-124.705 184.128,-116.103"/>
<polygon fill="black" stroke="black" points="186.813,-113.857 177.81,-108.272 181.365,-118.252 186.813,-113.857"/>
</g>
<!-- node59&#45;&gt;node153 -->
<g id="edge34" class="edge"><title>node59&#45;&gt;node153</title>
<path fill="none" stroke="black" d="M218.738,-215.831C204.22,-206.498 186.374,-195.026 170.893,-185.074"/>
<polygon fill="black" stroke="black" points="172.399,-181.881 162.094,-179.418 168.613,-187.769 172.399,-181.881"/>
</g>
<!-- node66&#45;&gt;node151 -->
<g id="edge38" class="edge"><title>node66&#45;&gt;node151</title>
<path fill="none" stroke="black" d="M173.673,-287.975C174.592,-258.017 175.637,-196.111 171,-144 170.254,-135.613 168.946,-126.564 167.555,-118.315"/>
<polygon fill="black" stroke="black" points="170.989,-117.633 165.784,-108.405 164.098,-118.865 170.989,-117.633"/>
</g>
<!-- node66&#45;&gt;node153 -->
<g id="edge40" class="edge"><title>node66&#45;&gt;node153</title>
<path fill="none" stroke="black" d="M168.187,-287.762C161.677,-263.093 150.005,-218.86 142.382,-189.973"/>
<polygon fill="black" stroke="black" points="145.709,-188.866 139.774,-180.09 138.941,-190.652 145.709,-188.866"/>
</g>
<!-- node66&#45;&gt;node149 -->
<g id="edge42" class="edge"><title>node66&#45;&gt;node149</title>
<path fill="none" stroke="black" d="M144.233,-287.831C129.206,-278.341 110.678,-266.639 94.7383,-256.572"/>
<polygon fill="black" stroke="black" points="96.512,-253.552 86.1881,-251.171 92.7741,-259.471 96.512,-253.552"/>
</g>
<!-- node66&#45;&gt;node59 -->
<g id="edge44" class="edge"><title>node66&#45;&gt;node59</title>
<path fill="none" stroke="black" d="M191.673,-287.831C200.525,-279.219 211.249,-268.785 220.889,-259.405"/>
<polygon fill="black" stroke="black" points="223.606,-261.645 228.333,-252.163 218.725,-256.628 223.606,-261.645"/>
</g>
</g>
</svg>
