<?xml version="1.0" encoding="UTF-8" standalone="no"?>
<!DOCTYPE svg PUBLIC "-//W3C//DTD SVG 1.1//EN"
 "http://www.w3.org/Graphics/SVG/1.1/DTD/svg11.dtd">
<!-- Generated by graphviz version 2.26.3 (20100126.1600)
 -->
<!-- Title: GG Pages: 1 -->
<svg width="319pt" height="404pt"
 viewBox="0.00 0.00 318.83 404.00" xmlns="http://www.w3.org/2000/svg" xmlns:xlink="http://www.w3.org/1999/xlink">
<g id="graph1" class="graph" transform="scale(1 1) rotate(0) translate(4 400)">
<title>GG</title>
<polygon fill="white" stroke="white" points="-4,5 -4,-400 315.827,-400 315.827,5 -4,5"/>
<!-- node38 -->
<g id="node1" class="node"><title>node38</title>
<polygon fill="none" stroke="black" points="191,-383.562 120,-396 48.9998,-383.562 49.0661,-363.438 190.934,-363.438 191,-383.562"/>
<text text-anchor="middle" x="120" y="-374.7" font-family="Times Roman,serif" font-size="12.00">backupnode</text>
</g>
<!-- node151 -->
<g id="node2" class="node"><title>node151</title>
<polygon fill="none" stroke="black" points="189,-108 135,-108 135,-72 189,-72 189,-108"/>
<text text-anchor="middle" x="162" y="-86.7" font-family="Times Roman,serif" font-size="12.00">jlib</text>
</g>
<!-- node38&#45;&gt;node151 -->
<g id="edge2" class="edge"><title>node38&#45;&gt;node151</title>
<path fill="none" stroke="black" d="M106.994,-363.181C74.6404,-324.442 -3.54256,-218.041 44,-144 61.7021,-116.431 97.3696,-102.759 124.88,-96.0907"/>
<polygon fill="black" stroke="black" points="125.959,-99.4368 134.969,-93.8637 124.45,-92.6013 125.959,-99.4368"/>
</g>
<!-- node150 -->
<g id="node12" class="node"><title>node150</title>
<polygon fill="none" stroke="black" points="107,-180 53,-180 53,-144 107,-144 107,-180"/>
<text text-anchor="middle" x="80" y="-158.7" font-family="Times Roman,serif" font-size="12.00">jhtree</text>
</g>
<!-- node38&#45;&gt;node150 -->
<g id="edge12" class="edge"><title>node38&#45;&gt;node150</title>
<path fill="none" stroke="black" d="M114.093,-363.18C105.16,-339.937 88.5609,-293.294 82,-252 78.7353,-231.452 78.3251,-207.937 78.6836,-190.097"/>
<polygon fill="black" stroke="black" points="82.1832,-190.156 78.9774,-180.058 75.1862,-189.951 82.1832,-190.156"/>
</g>
<!-- node59 -->
<g id="node15" class="node"><title>node59</title>
<polygon fill="none" stroke="black" points="149,-252 91,-252 91,-216 149,-216 149,-252"/>
<text text-anchor="middle" x="120" y="-230.7" font-family="Times Roman,serif" font-size="12.00">remote</text>
</g>
<!-- node38&#45;&gt;node59 -->
<g id="edge16" class="edge"><title>node38&#45;&gt;node59</title>
<path fill="none" stroke="black" d="M120,-363.4C120,-339.838 120,-293.003 120,-262.613"/>
<polygon fill="black" stroke="black" points="123.5,-262.234 120,-252.234 116.5,-262.234 123.5,-262.234"/>
</g>
<!-- node153 -->
<g id="node18" class="node"><title>node153</title>
<polygon fill="none" stroke="black" points="217,-180 163,-180 163,-144 217,-144 217,-180"/>
<text text-anchor="middle" x="190" y="-158.7" font-family="Times Roman,serif" font-size="12.00">mp</text>
</g>
<!-- node38&#45;&gt;node153 -->
<g id="edge24" class="edge"><title>node38&#45;&gt;node153</title>
<path fill="none" stroke="black" d="M124.811,-363.153C136.384,-327.443 165.927,-236.282 180.943,-189.946"/>
<polygon fill="black" stroke="black" points="184.334,-190.838 184.087,-180.246 177.675,-188.68 184.334,-190.838"/>
</g>
<!-- node66 -->
<g id="node22" class="node"><title>node66</title>
<polygon fill="none" stroke="black" points="267,-324 205,-324 205,-288 267,-288 267,-324"/>
<text text-anchor="middle" x="236" y="-302.7" font-family="Times Roman,serif" font-size="12.00">dalibase</text>
</g>
<!-- node38&#45;&gt;node66 -->
<g id="edge26" class="edge"><title>node38&#45;&gt;node66</title>
<path fill="none" stroke="black" d="M143.474,-363.43C159.177,-353.683 180.187,-340.642 198.218,-329.451"/>
<polygon fill="black" stroke="black" points="200.143,-332.375 206.794,-324.128 196.452,-326.428 200.143,-332.375"/>
</g>
<!-- node152 -->
<g id="node4" class="node"><title>node152</title>
<polygon fill="none" stroke="black" points="40,-36 0.0563759,-18 40,-3.55271e-15 79.9436,-18 40,-36"/>
<text text-anchor="middle" x="40" y="-14.7" font-family="Times Roman,serif" font-size="12.00">lzma</text>
</g>
<!-- node151&#45;&gt;node152 -->
<g id="edge4" class="edge"><title>node151&#45;&gt;node152</title>
<path fill="none" stroke="black" d="M134.924,-74.0209C114.47,-61.9494 86.5536,-45.4743 66.293,-33.5172"/>
<polygon fill="black" stroke="black" points="67.968,-30.4417 57.577,-28.3733 64.4102,-36.4701 67.968,-30.4417"/>
</g>
<!-- node187 -->
<g id="node6" class="node"><title>node187</title>
<ellipse fill="none" stroke="black" cx="125" cy="-18" rx="27" ry="18"/>
<text text-anchor="middle" x="125" y="-14.7" font-family="Times Roman,serif" font-size="12.00">dl</text>
</g>
<!-- node151&#45;&gt;node187 -->
<g id="edge6" class="edge"><title>node151&#45;&gt;node187</title>
<path fill="none" stroke="black" d="M152.663,-71.8314C148.405,-63.5451 143.28,-53.5727 138.605,-44.4748"/>
<polygon fill="black" stroke="black" points="141.635,-42.7123 133.951,-35.4177 135.408,-45.9118 141.635,-42.7123"/>
</g>
<!-- node179 -->
<g id="node8" class="node"><title>node179</title>
<ellipse fill="none" stroke="black" cx="200" cy="-18" rx="30.0465" ry="18"/>
<text text-anchor="middle" x="200" y="-14.7" font-family="Times Roman,serif" font-size="12.00">crypt</text>
</g>
<!-- node151&#45;&gt;node179 -->
<g id="edge8" class="edge"><title>node151&#45;&gt;node179</title>
<path fill="none" stroke="black" d="M171.589,-71.8314C175.962,-63.5451 181.226,-53.5727 186.027,-44.4748"/>
<polygon fill="black" stroke="black" points="189.235,-45.8952 190.807,-35.4177 183.044,-42.6279 189.235,-45.8952"/>
</g>
<!-- node188 -->
<g id="node10" class="node"><title>node188</title>
<ellipse fill="none" stroke="black" cx="275" cy="-18" rx="27" ry="18"/>
<text text-anchor="middle" x="275" y="-14.7" font-family="Times Roman,serif" font-size="12.00">rt</text>
</g>
<!-- node151&#45;&gt;node188 -->
<g id="edge10" class="edge"><title>node151&#45;&gt;node188</title>
<path fill="none" stroke="black" d="M189.066,-72.7542C206.414,-61.7009 228.898,-47.375 246.516,-36.1494"/>
<polygon fill="black" stroke="black" points="248.679,-38.9209 255.232,-30.5955 244.918,-33.0174 248.679,-38.9209"/>
</g>
<!-- node150&#45;&gt;node151 -->
<g id="edge14" class="edge"><title>node150&#45;&gt;node151</title>
<path fill="none" stroke="black" d="M100.692,-143.831C110.695,-135.048 122.855,-124.371 133.7,-114.849"/>
<polygon fill="black" stroke="black" points="136.109,-117.391 141.315,-108.163 131.491,-112.131 136.109,-117.391"/>
</g>
<!-- node59&#45;&gt;node151 -->
<g id="edge18" class="edge"><title>node59&#45;&gt;node151</title>
<path fill="none" stroke="black" d="M125.319,-215.762C132.515,-191.093 145.416,-146.86 153.841,-117.973"/>
<polygon fill="black" stroke="black" points="157.284,-118.67 156.724,-108.09 150.564,-116.71 157.284,-118.67"/>
</g>
<!-- node59&#45;&gt;node153 -->
<g id="edge20" class="edge"><title>node59&#45;&gt;node153</title>
<path fill="none" stroke="black" d="M137.664,-215.831C145.973,-207.285 156.026,-196.944 165.092,-187.62"/>
<polygon fill="black" stroke="black" points="167.637,-190.023 172.098,-180.413 162.618,-185.143 167.637,-190.023"/>
</g>
<!-- node153&#45;&gt;node151 -->
<g id="edge22" class="edge"><title>node153&#45;&gt;node151</title>
<path fill="none" stroke="black" d="M182.934,-143.831C179.874,-135.962 176.222,-126.571 172.832,-117.853"/>
<polygon fill="black" stroke="black" points="176.047,-116.465 169.161,-108.413 169.523,-119.002 176.047,-116.465"/>
</g>
<!-- node66&#45;&gt;node151 -->
<g id="edge28" class="edge"><title>node66&#45;&gt;node151</title>
<path fill="none" stroke="black" d="M267.033,-290.692C281.721,-281.642 297.807,-268.667 306,-252 313.058,-237.641 311.193,-231.134 306,-216 288.409,-164.73 234.74,-127.628 198.132,-107.463"/>
<polygon fill="black" stroke="black" points="199.694,-104.329 189.224,-102.703 196.394,-110.503 199.694,-104.329"/>
</g>
<!-- node66&#45;&gt;node59 -->
<g id="edge38" class="edge"><title>node66&#45;&gt;node59</title>
<path fill="none" stroke="black" d="M206.728,-287.831C191.891,-278.622 173.698,-267.33 157.814,-257.471"/>
<polygon fill="black" stroke="black" points="159.605,-254.463 149.262,-252.163 155.913,-260.41 159.605,-254.463"/>
</g>
<!-- node66&#45;&gt;node153 -->
<g id="edge30" class="edge"><title>node66&#45;&gt;node153</title>
<path fill="none" stroke="black" d="M230.174,-287.762C222.294,-263.093 208.164,-218.86 198.936,-189.973"/>
<polygon fill="black" stroke="black" points="202.156,-188.55 195.779,-180.09 195.488,-190.68 202.156,-188.55"/>
</g>
<!-- node149 -->
<g id="node26" class="node"><title>node149</title>
<polygon fill="none" stroke="black" points="297,-252 243,-252 243,-216 297,-216 297,-252"/>
<text text-anchor="middle" x="270" y="-230.7" font-family="Times Roman,serif" font-size="12.00">hrpc</text>
</g>
<!-- node66&#45;&gt;node149 -->
<g id="edge32" class="edge"><title>node66&#45;&gt;node149</title>
<path fill="none" stroke="black" d="M244.58,-287.831C248.336,-279.877 252.826,-270.369 256.98,-261.572"/>
<polygon fill="black" stroke="black" points="260.2,-262.95 261.305,-252.413 253.87,-259.961 260.2,-262.95"/>
</g>
<!-- node149&#45;&gt;node151 -->
<g id="edge34" class="edge"><title>node149&#45;&gt;node151</title>
<path fill="none" stroke="black" d="M263.701,-215.848C256.505,-196.73 243.434,-166.355 226,-144 217.522,-133.129 206.544,-122.902 196.08,-114.334"/>
<polygon fill="black" stroke="black" points="198.243,-111.582 188.229,-108.122 193.899,-117.072 198.243,-111.582"/>
</g>
<!-- node149&#45;&gt;node153 -->
<g id="edge36" class="edge"><title>node149&#45;&gt;node153</title>
<path fill="none" stroke="black" d="M249.813,-215.831C240.149,-207.134 228.42,-196.578 217.918,-187.127"/>
<polygon fill="black" stroke="black" points="219.955,-184.251 210.181,-180.163 215.272,-189.454 219.955,-184.251"/>
</g>
</g>
</svg>
