<?xml version="1.0" encoding="UTF-8" standalone="no"?>
<!DOCTYPE svg PUBLIC "-//W3C//DTD SVG 1.1//EN"
 "http://www.w3.org/Graphics/SVG/1.1/DTD/svg11.dtd">
<!-- Generated by graphviz version 2.26.3 (20100126.1600)
 -->
<!-- Title: GG Pages: 1 -->
<svg width="4373pt" height="764pt"
 viewBox="0.00 0.00 4373.00 764.00" xmlns="http://www.w3.org/2000/svg" xmlns:xlink="http://www.w3.org/1999/xlink">
<g id="graph1" class="graph" transform="scale(1 1) rotate(0) translate(4 760)">
<title>GG</title>
<polygon fill="white" stroke="white" points="-4,5 -4,-760 4370,-760 4370,5 -4,5"/>
<!-- node124 -->
<g id="node1" class="node"><title>node124</title>
<polygon fill="none" stroke="black" points="1945,-756 1849,-756 1849,-720 1945,-720 1945,-756"/>
<text text-anchor="middle" x="1897" y="-734.7" font-family="Times Roman,serif" font-size="12.00">ws_workunits</text>
</g>
<!-- node151 -->
<g id="node2" class="node"><title>node151</title>
<polygon fill="none" stroke="black" points="1566,-108 1512,-108 1512,-72 1566,-72 1566,-108"/>
<text text-anchor="middle" x="1539" y="-86.7" font-family="Times Roman,serif" font-size="12.00">jlib</text>
</g>
<!-- node124&#45;&gt;node151 -->
<g id="edge2" class="edge"><title>node124&#45;&gt;node151</title>
<path fill="none" stroke="black" d="M1848.99,-737.369C1592.6,-733.876 390.508,-715.905 228,-684 121.098,-663.012 0,-702.942 0,-594 0,-594 0,-594 0,-234 0,-101.168 154.184,-167.056 285,-144 527.63,-101.237 1320,-91.8874 1501.65,-90.2875"/>
<polygon fill="black" stroke="black" points="1501.81,-93.7864 1511.77,-90.2009 1501.75,-86.7867 1501.81,-93.7864"/>
</g>
<!-- node153 -->
<g id="node12" class="node"><title>node153</title>
<polygon fill="none" stroke="black" points="1385,-180 1331,-180 1331,-144 1385,-144 1385,-180"/>
<text text-anchor="middle" x="1358" y="-158.7" font-family="Times Roman,serif" font-size="12.00">mp</text>
</g>
<!-- node124&#45;&gt;node153 -->
<g id="edge12" class="edge"><title>node124&#45;&gt;node153</title>
<path fill="none" stroke="black" d="M1848.9,-737.615C1676.55,-735.881 1096.39,-726.885 1026,-684 872.43,-590.442 855.972,-445.362 943,-288 965.991,-246.428 979.207,-236.63 1022,-216 1048.61,-203.17 1238.76,-177.424 1320.64,-166.777"/>
<polygon fill="black" stroke="black" points="1321.53,-170.192 1330.99,-165.437 1320.63,-163.25 1321.53,-170.192"/>
</g>
<!-- node149 -->
<g id="node15" class="node"><title>node149</title>
<polygon fill="none" stroke="black" points="1511,-252 1457,-252 1457,-216 1511,-216 1511,-252"/>
<text text-anchor="middle" x="1484" y="-230.7" font-family="Times Roman,serif" font-size="12.00">hrpc</text>
</g>
<!-- node124&#45;&gt;node149 -->
<g id="edge16" class="edge"><title>node124&#45;&gt;node149</title>
<path fill="none" stroke="black" d="M1945.26,-736.425C2099.51,-731.149 2579.44,-712.787 2732,-684 2877.01,-656.638 3065.01,-641.327 3011,-504 2963,-381.964 2929.14,-342.789 2810,-288 2749.91,-260.369 1730.71,-238.859 1521.39,-234.721"/>
<polygon fill="black" stroke="black" points="1521.28,-231.219 1511.22,-234.521 1521.15,-238.217 1521.28,-231.219"/>
</g>
<!-- node59 -->
<g id="node19" class="node"><title>node59</title>
<polygon fill="none" stroke="black" points="1232,-252 1174,-252 1174,-216 1232,-216 1232,-252"/>
<text text-anchor="middle" x="1203" y="-230.7" font-family="Times Roman,serif" font-size="12.00">remote</text>
</g>
<!-- node124&#45;&gt;node59 -->
<g id="edge22" class="edge"><title>node124&#45;&gt;node59</title>
<path fill="none" stroke="black" d="M1848.71,-736.858C1556.56,-729.641 38,-687.623 38,-594 38,-594 38,-594 38,-378 38,-261.939 960.465,-238.408 1163.7,-234.632"/>
<polygon fill="black" stroke="black" points="1163.98,-238.128 1173.91,-234.448 1163.85,-231.129 1163.98,-238.128"/>
</g>
<!-- node160 -->
<g id="node23" class="node"><title>node160</title>
<polygon fill="none" stroke="black" points="692,-468 638,-468 638,-432 692,-432 692,-468"/>
<text text-anchor="middle" x="665" y="-446.7" font-family="Times Roman,serif" font-size="12.00">xmllib</text>
</g>
<!-- node124&#45;&gt;node160 -->
<g id="edge28" class="edge"><title>node124&#45;&gt;node160</title>
<path fill="none" stroke="black" d="M1848.93,-736.913C1643.21,-732.096 845.334,-711.692 800,-684 723.238,-637.111 685.722,-529.144 671.731,-477.931"/>
<polygon fill="black" stroke="black" points="675.099,-476.974 669.17,-468.193 668.329,-478.755 675.099,-476.974"/>
</g>
<!-- node110 -->
<g id="node32" class="node"><title>node110</title>
<polygon fill="none" stroke="black" points="618,-540 556,-540 556,-504 618,-504 618,-540"/>
<text text-anchor="middle" x="587" y="-518.7" font-family="Times Roman,serif" font-size="12.00">esphttp</text>
</g>
<!-- node124&#45;&gt;node110 -->
<g id="edge38" class="edge"><title>node124&#45;&gt;node110</title>
<path fill="none" stroke="black" d="M1848.92,-737.038C1631.44,-732.532 748.057,-712.535 697,-684 644.152,-654.464 611.599,-587.625 596.68,-549.676"/>
<polygon fill="black" stroke="black" points="599.92,-548.35 593.1,-540.242 593.375,-550.833 599.92,-548.35"/>
</g>
<!-- node66 -->
<g id="node39" class="node"><title>node66</title>
<polygon fill="none" stroke="black" points="1363,-324 1301,-324 1301,-288 1363,-288 1363,-324"/>
<text text-anchor="middle" x="1332" y="-302.7" font-family="Times Roman,serif" font-size="12.00">dalibase</text>
</g>
<!-- node124&#45;&gt;node66 -->
<g id="edge50" class="edge"><title>node124&#45;&gt;node66</title>
<path fill="none" stroke="black" d="M1848.8,-737.473C1695.75,-735.382 1227.73,-725.613 1175,-684 1061.41,-594.356 1055.46,-475.218 1143,-360 1160.87,-336.485 1240.96,-320.084 1290.98,-311.925"/>
<polygon fill="black" stroke="black" points="1291.53,-315.382 1300.86,-310.357 1290.43,-308.468 1291.53,-315.382"/>
</g>
<!-- node55 -->
<g id="node45" class="node"><title>node55</title>
<polygon fill="none" stroke="black" points="1242,-396 1152,-396 1152,-360 1242,-360 1242,-396"/>
<text text-anchor="middle" x="1197" y="-374.7" font-family="Times Roman,serif" font-size="12.00">environment</text>
</g>
<!-- node124&#45;&gt;node55 -->
<g id="edge60" class="edge"><title>node124&#45;&gt;node55</title>
<path fill="none" stroke="black" d="M1848.75,-735.651C1730.9,-729.548 1431.06,-711.71 1335,-684 1249.44,-659.32 1156,-683.045 1156,-594 1156,-594 1156,-594 1156,-522 1156,-480.146 1172.22,-433.975 1184.26,-405.475"/>
<polygon fill="black" stroke="black" points="1187.53,-406.734 1188.3,-396.168 1181.11,-403.941 1187.53,-406.734"/>
</g>
<!-- node78 -->
<g id="node51" class="node"><title>node78</title>
<polygon fill="none" stroke="black" points="980,-468 926,-468 926,-432 980,-432 980,-468"/>
<text text-anchor="middle" x="953" y="-446.7" font-family="Times Roman,serif" font-size="12.00">dalift</text>
</g>
<!-- node124&#45;&gt;node78 -->
<g id="edge70" class="edge"><title>node124&#45;&gt;node78</title>
<path fill="none" stroke="black" d="M1848.97,-737.668C1681.64,-736.134 1130.97,-727.775 1066,-684 994.395,-635.755 966.697,-528.861 957.277,-477.975"/>
<polygon fill="black" stroke="black" points="960.705,-477.256 955.535,-468.008 953.809,-478.461 960.705,-477.256"/>
</g>
<!-- node54 -->
<g id="node59" class="node"><title>node54</title>
<polygon fill="none" stroke="black" points="1618,-468 1552,-468 1552,-432 1618,-432 1618,-468"/>
<text text-anchor="middle" x="1585" y="-446.7" font-family="Times Roman,serif" font-size="12.00">dllserver</text>
</g>
<!-- node124&#45;&gt;node54 -->
<g id="edge84" class="edge"><title>node124&#45;&gt;node54</title>
<path fill="none" stroke="black" d="M1848.94,-734.347C1778.3,-726.074 1648.69,-699.176 1592,-612 1565.65,-571.47 1571.5,-512.414 1578.21,-477.928"/>
<polygon fill="black" stroke="black" points="1581.65,-478.568 1580.28,-468.062 1574.8,-477.127 1581.65,-478.568"/>
</g>
<!-- node176 -->
<g id="node61" class="node"><title>node176</title>
<ellipse fill="none" stroke="black" cx="3842" cy="-378" rx="130.789" ry="18"/>
<text text-anchor="middle" x="3842" y="-374.7" font-family="Times Roman,serif" font-size="12.00">/usr/lib/x86_64&#45;linux&#45;gnu/libz.so</text>
</g>
<!-- node124&#45;&gt;node176 -->
<g id="edge310" class="edge"><title>node124&#45;&gt;node176</title>
<path fill="none" stroke="black" d="M1945.32,-736.962C2152.46,-732.367 2966.4,-712.81 3221,-684 3437.54,-659.496 3703,-811.925 3703,-594 3703,-594 3703,-594 3703,-522 3703,-466.644 3756.83,-424.419 3797.49,-400.419"/>
<polygon fill="black" stroke="black" points="3799.26,-403.438 3806.2,-395.432 3795.79,-397.363 3799.26,-403.438"/>
</g>
<!-- node146 -->
<g id="node66" class="node"><title>node146</title>
<polygon fill="none" stroke="black" points="2202,-396 2148,-396 2148,-360 2202,-360 2202,-396"/>
<text text-anchor="middle" x="2175" y="-374.7" font-family="Times Roman,serif" font-size="12.00">eclrtl</text>
</g>
<!-- node124&#45;&gt;node146 -->
<g id="edge122" class="edge"><title>node124&#45;&gt;node146</title>
<path fill="none" stroke="black" d="M1911.17,-719.653C1956.9,-660.43 2100.73,-474.175 2154.47,-404.581"/>
<polygon fill="black" stroke="black" points="2157.52,-406.364 2160.86,-396.31 2151.98,-402.086 2157.52,-406.364"/>
</g>
<!-- node147 -->
<g id="node77" class="node"><title>node147</title>
<polygon fill="none" stroke="black" points="2621,-324 2567,-324 2567,-288 2621,-288 2621,-324"/>
<text text-anchor="middle" x="2594" y="-302.7" font-family="Times Roman,serif" font-size="12.00">nbcd</text>
</g>
<!-- node124&#45;&gt;node147 -->
<g id="edge120" class="edge"><title>node124&#45;&gt;node147</title>
<path fill="none" stroke="black" d="M1945.09,-737.694C2108.72,-736.255 2637.08,-728.196 2698,-684 2765.3,-635.174 2773.1,-583.581 2749,-504 2726.86,-430.861 2662.52,-365.168 2624.05,-330.934"/>
<polygon fill="black" stroke="black" points="2626.09,-328.067 2616.26,-324.115 2621.48,-333.335 2626.09,-328.067"/>
</g>
<!-- node53 -->
<g id="node89" class="node"><title>node53</title>
<polygon fill="none" stroke="black" points="2474,-468 2414,-468 2414,-432 2474,-432 2474,-468"/>
<text text-anchor="middle" x="2444" y="-446.7" font-family="Times Roman,serif" font-size="12.00">deftype</text>
</g>
<!-- node124&#45;&gt;node53 -->
<g id="edge124" class="edge"><title>node124&#45;&gt;node53</title>
<path fill="none" stroke="black" d="M1945.13,-728.558C2069.06,-703.117 2393.32,-629.012 2449,-540 2460.48,-521.642 2458.09,-496.835 2453.47,-477.914"/>
<polygon fill="black" stroke="black" points="2456.79,-476.788 2450.75,-468.086 2450.04,-478.658 2456.79,-476.788"/>
</g>
<!-- node64 -->
<g id="node94" class="node"><title>node64</title>
<polygon fill="none" stroke="black" points="1890,-540 1822,-540 1822,-504 1890,-504 1890,-540"/>
<text text-anchor="middle" x="1856" y="-518.7" font-family="Times Roman,serif" font-size="12.00">workunit</text>
</g>
<!-- node124&#45;&gt;node64 -->
<g id="edge132" class="edge"><title>node124&#45;&gt;node64</title>
<path fill="none" stroke="black" d="M1893.57,-719.955C1886.43,-682.314 1869.89,-595.187 1861.34,-550.125"/>
<polygon fill="black" stroke="black" points="1864.75,-549.317 1859.44,-540.145 1857.87,-550.622 1864.75,-549.317"/>
</g>
<!-- node65 -->
<g id="node102" class="node"><title>node65</title>
<polygon fill="none" stroke="black" points="1515,-684 1433,-684 1433,-648 1515,-648 1515,-684"/>
<text text-anchor="middle" x="1474" y="-662.7" font-family="Times Roman,serif" font-size="12.00">wuwebview</text>
</g>
<!-- node124&#45;&gt;node65 -->
<g id="edge146" class="edge"><title>node124&#45;&gt;node65</title>
<path fill="none" stroke="black" d="M1848.81,-731.567C1781.95,-722.389 1657.35,-704.374 1552,-684 1543.28,-682.313 1534.04,-680.346 1525.1,-678.344"/>
<polygon fill="black" stroke="black" points="1525.7,-674.89 1515.17,-676.081 1524.15,-681.715 1525.7,-674.89"/>
</g>
<!-- node56 -->
<g id="node106" class="node"><title>node56</title>
<polygon fill="none" stroke="black" points="2292,-612 2228,-612 2228,-576 2292,-576 2292,-612"/>
<text text-anchor="middle" x="2260" y="-590.7" font-family="Times Roman,serif" font-size="12.00">fileview2</text>
</g>
<!-- node124&#45;&gt;node56 -->
<g id="edge306" class="edge"><title>node124&#45;&gt;node56</title>
<path fill="none" stroke="black" d="M1942.61,-719.908C2013.57,-691.757 2149.38,-637.881 2218.05,-610.643"/>
<polygon fill="black" stroke="black" points="2219.67,-613.765 2227.67,-606.824 2217.09,-607.258 2219.67,-613.765"/>
</g>
<!-- node150 -->
<g id="node114" class="node"><title>node150</title>
<polygon fill="none" stroke="black" points="3002,-540 2948,-540 2948,-504 3002,-504 3002,-540"/>
<text text-anchor="middle" x="2975" y="-518.7" font-family="Times Roman,serif" font-size="12.00">jhtree</text>
</g>
<!-- node124&#45;&gt;node150 -->
<g id="edge304" class="edge"><title>node124&#45;&gt;node150</title>
<path fill="none" stroke="black" d="M1945.14,-737.681C2157.26,-736.03 3002.88,-726.799 3113,-684 3170.19,-661.772 3236.96,-624.204 3199,-576 3176.17,-547.006 3069.88,-531.755 3012.3,-525.498"/>
<polygon fill="black" stroke="black" points="3012.46,-521.995 3002.15,-524.433 3011.73,-528.957 3012.46,-521.995"/>
</g>
<!-- node156 -->
<g id="node128" class="node"><title>node156</title>
<polygon fill="none" stroke="black" points="3155,-468 3061,-468 3061,-432 3155,-432 3155,-468"/>
<text text-anchor="middle" x="3108" y="-446.7" font-family="Times Roman,serif" font-size="12.00">securesocket</text>
</g>
<!-- node124&#45;&gt;node156 -->
<g id="edge308" class="edge"><title>node124&#45;&gt;node156</title>
<path fill="none" stroke="black" d="M1945.31,-737.299C2157.77,-734.018 3000.51,-718.841 3044,-684 3060.32,-670.927 3089.83,-537.338 3102.25,-478.065"/>
<polygon fill="black" stroke="black" points="3105.68,-478.738 3104.29,-468.235 3098.83,-477.312 3105.68,-478.738"/>
</g>
<!-- node99 -->
<g id="node135" class="node"><title>node99</title>
<polygon fill="none" stroke="black" points="2740,-540 2686,-540 2686,-504 2740,-504 2740,-540"/>
<text text-anchor="middle" x="2713" y="-518.7" font-family="Times Roman,serif" font-size="12.00">hql</text>
</g>
<!-- node124&#45;&gt;node99 -->
<g id="edge302" class="edge"><title>node124&#45;&gt;node99</title>
<path fill="none" stroke="black" d="M1945.11,-737.621C2105.03,-735.957 2611.97,-727.284 2670,-684 2711.08,-653.359 2715.99,-588.206 2715.05,-550.528"/>
<polygon fill="black" stroke="black" points="2718.54,-550.083 2714.63,-540.233 2711.54,-550.367 2718.54,-550.083"/>
</g>
<!-- node127 -->
<g id="node143" class="node"><title>node127</title>
<polygon fill="none" stroke="black" points="1276,-612 1218,-612 1218,-576 1276,-576 1276,-612"/>
<text text-anchor="middle" x="1247" y="-590.7" font-family="Times Roman,serif" font-size="12.00">SMCLib</text>
</g>
<!-- node124&#45;&gt;node127 -->
<g id="edge212" class="edge"><title>node124&#45;&gt;node127</title>
<path fill="none" stroke="black" d="M1848.81,-734.682C1744.89,-727.174 1502.76,-707.677 1424,-684 1372.63,-668.557 1318.32,-638.639 1283.62,-617.547"/>
<polygon fill="black" stroke="black" points="1285.15,-614.381 1274.8,-612.12 1281.48,-620.342 1285.15,-614.381"/>
</g>
<!-- node103 -->
<g id="node157" class="node"><title>node103</title>
<polygon fill="none" stroke="black" points="1687,-612 1601,-612 1601,-576 1687,-576 1687,-612"/>
<text text-anchor="middle" x="1644" y="-590.7" font-family="Times Roman,serif" font-size="12.00">schedulectrl</text>
</g>
<!-- node124&#45;&gt;node103 -->
<g id="edge238" class="edge"><title>node124&#45;&gt;node103</title>
<path fill="none" stroke="black" d="M1865.21,-719.908C1819.49,-693.881 1735.12,-645.864 1684.83,-617.24"/>
<polygon fill="black" stroke="black" points="1686.28,-614.036 1675.86,-612.131 1682.81,-620.12 1686.28,-614.036"/>
</g>
<!-- node60 -->
<g id="node168" class="node"><title>node60</title>
<polygon fill="none" stroke="black" points="3190,-612 3096,-612 3096,-576 3190,-576 3190,-612"/>
<text text-anchor="middle" x="3143" y="-590.7" font-family="Times Roman,serif" font-size="12.00">roxiecommlib</text>
</g>
<!-- node124&#45;&gt;node60 -->
<g id="edge258" class="edge"><title>node124&#45;&gt;node60</title>
<path fill="none" stroke="black" d="M1945.2,-737.008C2161.18,-732.408 3031.66,-712.183 3082,-684 3106.17,-670.468 3122.68,-642.874 3132.36,-621.787"/>
<polygon fill="black" stroke="black" points="3135.69,-622.907 3136.45,-612.34 3129.27,-620.125 3135.69,-622.907"/>
</g>
<!-- node62 -->
<g id="node171" class="node"><title>node62</title>
<polygon fill="none" stroke="black" points="2661,-684 2563,-684 2563,-648 2661,-648 2661,-684"/>
<text text-anchor="middle" x="2612" y="-662.7" font-family="Times Roman,serif" font-size="12.00">roxiemanager</text>
</g>
<!-- node124&#45;&gt;node62 -->
<g id="edge262" class="edge"><title>node124&#45;&gt;node62</title>
<path fill="none" stroke="black" d="M1945.36,-734.891C2048.1,-728.019 2295.63,-710.059 2502,-684 2518.53,-681.912 2536.39,-679.192 2552.82,-676.501"/>
<polygon fill="black" stroke="black" points="2553.54,-679.929 2562.83,-674.835 2552.39,-673.023 2553.54,-679.929"/>
</g>
<!-- node155 -->
<g id="node188" class="node"><title>node155</title>
<polygon fill="none" stroke="black" points="4001,-684 3909,-684 3909,-648 4001,-648 4001,-684"/>
<text text-anchor="middle" x="3955" y="-662.7" font-family="Times Roman,serif" font-size="12.00">LdapSecurity</text>
</g>
<!-- node124&#45;&gt;node155 -->
<g id="edge294" class="edge"><title>node124&#45;&gt;node155</title>
<path fill="none" stroke="black" d="M1945.19,-737.381C2155.45,-734.511 3013.44,-721.023 3717,-684 3779.26,-680.724 3850.55,-675.081 3898.75,-670.985"/>
<polygon fill="black" stroke="black" points="3899.3,-674.45 3908.97,-670.11 3898.71,-667.475 3899.3,-674.45"/>
</g>
<!-- node159 -->
<g id="node200" class="node"><title>node159</title>
<polygon fill="none" stroke="black" points="3600,-468 3546,-468 3546,-432 3600,-432 3600,-468"/>
<text text-anchor="middle" x="3573" y="-446.7" font-family="Times Roman,serif" font-size="12.00">zcrypt</text>
</g>
<!-- node124&#45;&gt;node159 -->
<g id="edge312" class="edge"><title>node124&#45;&gt;node159</title>
<path fill="none" stroke="black" d="M1945,-737.278C2161.52,-733.844 3041.72,-717.898 3160,-684 3315.8,-639.348 3475.97,-525.197 3541.84,-474.685"/>
<polygon fill="black" stroke="black" points="3544.36,-477.162 3550.13,-468.278 3540.08,-471.622 3544.36,-477.162"/>
</g>
<!-- node152 -->
<g id="node4" class="node"><title>node152</title>
<polygon fill="none" stroke="black" points="1417,-36 1377.06,-18 1417,-3.55271e-15 1456.94,-18 1417,-36"/>
<text text-anchor="middle" x="1417" y="-14.7" font-family="Times Roman,serif" font-size="12.00">lzma</text>
</g>
<!-- node151&#45;&gt;node152 -->
<g id="edge4" class="edge"><title>node151&#45;&gt;node152</title>
<path fill="none" stroke="black" d="M1511.92,-74.0209C1491.47,-61.9494 1463.55,-45.4743 1443.29,-33.5172"/>
<polygon fill="black" stroke="black" points="1444.97,-30.4417 1434.58,-28.3733 1441.41,-36.4701 1444.97,-30.4417"/>
</g>
<!-- node187 -->
<g id="node6" class="node"><title>node187</title>
<ellipse fill="none" stroke="black" cx="1502" cy="-18" rx="27" ry="18"/>
<text text-anchor="middle" x="1502" y="-14.7" font-family="Times Roman,serif" font-size="12.00">dl</text>
</g>
<!-- node151&#45;&gt;node187 -->
<g id="edge6" class="edge"><title>node151&#45;&gt;node187</title>
<path fill="none" stroke="black" d="M1529.66,-71.8314C1525.41,-63.5451 1520.28,-53.5727 1515.61,-44.4748"/>
<polygon fill="black" stroke="black" points="1518.63,-42.7123 1510.95,-35.4177 1512.41,-45.9118 1518.63,-42.7123"/>
</g>
<!-- node179 -->
<g id="node8" class="node"><title>node179</title>
<ellipse fill="none" stroke="black" cx="1577" cy="-18" rx="30.0465" ry="18"/>
<text text-anchor="middle" x="1577" y="-14.7" font-family="Times Roman,serif" font-size="12.00">crypt</text>
</g>
<!-- node151&#45;&gt;node179 -->
<g id="edge8" class="edge"><title>node151&#45;&gt;node179</title>
<path fill="none" stroke="black" d="M1548.59,-71.8314C1552.96,-63.5451 1558.23,-53.5727 1563.03,-44.4748"/>
<polygon fill="black" stroke="black" points="1566.24,-45.8952 1567.81,-35.4177 1560.04,-42.6279 1566.24,-45.8952"/>
</g>
<!-- node188 -->
<g id="node10" class="node"><title>node188</title>
<ellipse fill="none" stroke="black" cx="1652" cy="-18" rx="27" ry="18"/>
<text text-anchor="middle" x="1652" y="-14.7" font-family="Times Roman,serif" font-size="12.00">rt</text>
</g>
<!-- node151&#45;&gt;node188 -->
<g id="edge10" class="edge"><title>node151&#45;&gt;node188</title>
<path fill="none" stroke="black" d="M1566.07,-72.7542C1583.41,-61.7009 1605.9,-47.375 1623.52,-36.1494"/>
<polygon fill="black" stroke="black" points="1625.68,-38.9209 1632.23,-30.5955 1621.92,-33.0174 1625.68,-38.9209"/>
</g>
<!-- node153&#45;&gt;node151 -->
<g id="edge14" class="edge"><title>node153&#45;&gt;node151</title>
<path fill="none" stroke="black" d="M1385.1,-151.221C1416.29,-138.814 1467.67,-118.375 1502.39,-104.561"/>
<polygon fill="black" stroke="black" points="1503.72,-107.801 1511.72,-100.853 1501.13,-101.297 1503.72,-107.801"/>
</g>
<!-- node149&#45;&gt;node151 -->
<g id="edge18" class="edge"><title>node149&#45;&gt;node151</title>
<path fill="none" stroke="black" d="M1490.97,-215.762C1500.43,-190.985 1517.43,-146.471 1528.46,-117.594"/>
<polygon fill="black" stroke="black" points="1531.79,-118.68 1532.09,-108.09 1525.25,-116.183 1531.79,-118.68"/>
</g>
<!-- node149&#45;&gt;node153 -->
<g id="edge20" class="edge"><title>node149&#45;&gt;node153</title>
<path fill="none" stroke="black" d="M1456.97,-218.554C1438.66,-208.091 1414.25,-194.144 1394.26,-182.719"/>
<polygon fill="black" stroke="black" points="1395.84,-179.591 1385.42,-177.669 1392.37,-185.669 1395.84,-179.591"/>
</g>
<!-- node59&#45;&gt;node151 -->
<g id="edge24" class="edge"><title>node59&#45;&gt;node151</title>
<path fill="none" stroke="black" d="M1206.56,-215.678C1211.6,-194.922 1222.9,-161.691 1246,-144 1285.64,-113.633 1432.17,-98.3544 1501.79,-92.6789"/>
<polygon fill="black" stroke="black" points="1502.19,-96.1585 1511.88,-91.8801 1501.64,-89.1804 1502.19,-96.1585"/>
</g>
<!-- node59&#45;&gt;node153 -->
<g id="edge26" class="edge"><title>node59&#45;&gt;node153</title>
<path fill="none" stroke="black" d="M1232.15,-220.457C1257.49,-208.687 1294.31,-191.585 1321.58,-178.917"/>
<polygon fill="black" stroke="black" points="1323.2,-182.025 1330.79,-174.637 1320.25,-175.676 1323.2,-182.025"/>
</g>
<!-- node160&#45;&gt;node151 -->
<g id="edge36" class="edge"><title>node160&#45;&gt;node151</title>
<path fill="none" stroke="black" d="M673.695,-431.832C685.73,-404.972 706,-352.788 706,-306 706,-306 706,-306 706,-234 706,-192.602 698.031,-170.301 730,-144 760.155,-119.192 1345.99,-96.8146 1501.42,-91.297"/>
<polygon fill="black" stroke="black" points="1501.98,-94.7794 1511.85,-90.929 1501.73,-87.7837 1501.98,-94.7794"/>
</g>
<!-- node180 -->
<g id="node25" class="node"><title>node180</title>
<ellipse fill="none" stroke="black" cx="189" cy="-378" rx="85.1424" ry="18"/>
<text text-anchor="middle" x="189" y="-374.7" font-family="Times Roman,serif" font-size="12.00">/usr/lib/libxalan&#45;c.so</text>
</g>
<!-- node160&#45;&gt;node180 -->
<g id="edge30" class="edge"><title>node160&#45;&gt;node180</title>
<path fill="none" stroke="black" d="M637.601,-446.593C574.761,-438.678 415.473,-418.033 283,-396 275.901,-394.819 268.513,-393.523 261.138,-392.184"/>
<polygon fill="black" stroke="black" points="261.585,-388.707 251.116,-390.338 260.317,-395.591 261.585,-388.707"/>
</g>
<!-- node181 -->
<g id="node27" class="node"><title>node181</title>
<ellipse fill="none" stroke="black" cx="385" cy="-378" rx="93.0912" ry="18"/>
<text text-anchor="middle" x="385" y="-374.7" font-family="Times Roman,serif" font-size="12.00">/usr/lib/libxalanMsg.so</text>
</g>
<!-- node160&#45;&gt;node181 -->
<g id="edge32" class="edge"><title>node160&#45;&gt;node181</title>
<path fill="none" stroke="black" d="M637.898,-443.031C594.996,-431.999 510.21,-410.197 450.676,-394.888"/>
<polygon fill="black" stroke="black" points="451.537,-391.496 440.98,-392.395 449.793,-398.275 451.537,-391.496"/>
</g>
<!-- node182 -->
<g id="node29" class="node"><title>node182</title>
<ellipse fill="none" stroke="black" cx="587" cy="-378" rx="90.9919" ry="18"/>
<text text-anchor="middle" x="587" y="-374.7" font-family="Times Roman,serif" font-size="12.00">/usr/lib/libxerces&#45;c.so</text>
</g>
<!-- node160&#45;&gt;node182 -->
<g id="edge34" class="edge"><title>node160&#45;&gt;node182</title>
<path fill="none" stroke="black" d="M645.317,-431.831C635.751,-423.001 624.11,-412.256 613.752,-402.694"/>
<polygon fill="black" stroke="black" points="615.859,-399.876 606.137,-395.665 611.111,-405.02 615.859,-399.876"/>
</g>
<!-- node110&#45;&gt;node151 -->
<g id="edge46" class="edge"><title>node110&#45;&gt;node151</title>
<path fill="none" stroke="black" d="M555.804,-520.01C444.858,-512.093 76,-478.235 76,-378 76,-378 76,-378 76,-234 76,-160.122 1273.14,-102.07 1501.59,-91.6649"/>
<polygon fill="black" stroke="black" points="1501.89,-95.1548 1511.72,-91.2056 1501.57,-88.1619 1501.89,-95.1548"/>
</g>
<!-- node110&#45;&gt;node160 -->
<g id="edge48" class="edge"><title>node110&#45;&gt;node160</title>
<path fill="none" stroke="black" d="M606.683,-503.831C616.105,-495.134 627.54,-484.578 637.78,-475.127"/>
<polygon fill="black" stroke="black" points="640.35,-477.517 645.324,-468.163 635.602,-472.374 640.35,-477.517"/>
</g>
<!-- node110&#45;&gt;node180 -->
<g id="edge40" class="edge"><title>node110&#45;&gt;node180</title>
<path fill="none" stroke="black" d="M555.77,-510.701C487.817,-486.115 325.907,-427.534 241.783,-397.097"/>
<polygon fill="black" stroke="black" points="242.761,-393.729 232.167,-393.618 240.379,-400.312 242.761,-393.729"/>
</g>
<!-- node110&#45;&gt;node181 -->
<g id="edge42" class="edge"><title>node110&#45;&gt;node181</title>
<path fill="none" stroke="black" d="M561.417,-503.762C524.92,-477.745 457.901,-429.969 417.8,-401.382"/>
<polygon fill="black" stroke="black" points="419.605,-398.37 409.43,-395.416 415.541,-404.07 419.605,-398.37"/>
</g>
<!-- node110&#45;&gt;node182 -->
<g id="edge44" class="edge"><title>node110&#45;&gt;node182</title>
<path fill="none" stroke="black" d="M587,-503.762C587,-479.201 587,-435.247 587,-406.354"/>
<polygon fill="black" stroke="black" points="590.5,-406.09 587,-396.09 583.5,-406.09 590.5,-406.09"/>
</g>
<!-- node66&#45;&gt;node151 -->
<g id="edge52" class="edge"><title>node66&#45;&gt;node151</title>
<path fill="none" stroke="black" d="M1323.88,-287.917C1310.62,-255.349 1288.94,-186.293 1322,-144 1343.9,-115.983 1445.58,-100.412 1501.64,-93.8205"/>
<polygon fill="black" stroke="black" points="1502.34,-97.2639 1511.88,-92.6571 1501.55,-90.3087 1502.34,-97.2639"/>
</g>
<!-- node66&#45;&gt;node153 -->
<g id="edge54" class="edge"><title>node66&#45;&gt;node153</title>
<path fill="none" stroke="black" d="M1335.29,-287.762C1339.75,-263.093 1347.73,-218.86 1352.95,-189.973"/>
<polygon fill="black" stroke="black" points="1356.4,-190.552 1354.73,-180.09 1349.51,-189.309 1356.4,-190.552"/>
</g>
<!-- node66&#45;&gt;node149 -->
<g id="edge56" class="edge"><title>node66&#45;&gt;node149</title>
<path fill="none" stroke="black" d="M1363.13,-291.256C1387.73,-279.604 1422.1,-263.323 1447.9,-251.1"/>
<polygon fill="black" stroke="black" points="1449.45,-254.24 1456.99,-246.796 1446.45,-247.914 1449.45,-254.24"/>
</g>
<!-- node66&#45;&gt;node59 -->
<g id="edge58" class="edge"><title>node66&#45;&gt;node59</title>
<path fill="none" stroke="black" d="M1300.77,-288.571C1282.75,-278.511 1259.95,-265.787 1240.9,-255.156"/>
<polygon fill="black" stroke="black" points="1242.61,-252.099 1232.17,-250.282 1239.2,-258.212 1242.61,-252.099"/>
</g>
<!-- node55&#45;&gt;node151 -->
<g id="edge62" class="edge"><title>node55&#45;&gt;node151</title>
<path fill="none" stroke="black" d="M1187.5,-359.684C1173.05,-329.306 1148.83,-266.812 1165,-216 1176.89,-178.633 1182.78,-164.833 1216,-144 1263.12,-114.456 1426.84,-98.5316 1501.44,-92.6638"/>
<polygon fill="black" stroke="black" points="1502.08,-96.1257 1511.78,-91.8706 1501.54,-89.1462 1502.08,-96.1257"/>
</g>
<!-- node55&#45;&gt;node153 -->
<g id="edge64" class="edge"><title>node55&#45;&gt;node153</title>
<path fill="none" stroke="black" d="M1210.45,-359.955C1238.86,-321.838 1305.1,-232.973 1338.3,-188.434"/>
<polygon fill="black" stroke="black" points="1341.31,-190.255 1344.48,-180.145 1335.69,-186.071 1341.31,-190.255"/>
</g>
<!-- node55&#45;&gt;node59 -->
<g id="edge66" class="edge"><title>node55&#45;&gt;node59</title>
<path fill="none" stroke="black" d="M1197.76,-359.762C1198.78,-335.201 1200.61,-291.247 1201.82,-262.354"/>
<polygon fill="black" stroke="black" points="1205.33,-262.227 1202.25,-252.09 1198.33,-261.935 1205.33,-262.227"/>
</g>
<!-- node55&#45;&gt;node66 -->
<g id="edge68" class="edge"><title>node55&#45;&gt;node66</title>
<path fill="none" stroke="black" d="M1231.07,-359.831C1249.54,-349.977 1272.49,-337.739 1291.83,-327.422"/>
<polygon fill="black" stroke="black" points="1293.54,-330.476 1300.72,-322.682 1290.25,-324.3 1293.54,-330.476"/>
</g>
<!-- node78&#45;&gt;node151 -->
<g id="edge72" class="edge"><title>node78&#45;&gt;node151</title>
<path fill="none" stroke="black" d="M943.751,-431.668C935.649,-412.936 926.654,-383.362 937,-360 994.843,-229.39 1045.89,-205.119 1175,-144 1232.47,-116.794 1420.66,-99.2472 1501.52,-92.788"/>
<polygon fill="black" stroke="black" points="1502.05,-96.2575 1511.74,-91.9851 1501.5,-89.279 1502.05,-96.2575"/>
</g>
<!-- node78&#45;&gt;node153 -->
<g id="edge74" class="edge"><title>node78&#45;&gt;node153</title>
<path fill="none" stroke="black" d="M948.165,-431.969C940.481,-398.862 929.794,-328.108 966,-288 1014.67,-234.087 1233.06,-186.374 1321.07,-168.988"/>
<polygon fill="black" stroke="black" points="1321.75,-172.421 1330.89,-167.067 1320.41,-165.551 1321.75,-172.421"/>
</g>
<!-- node78&#45;&gt;node149 -->
<g id="edge76" class="edge"><title>node78&#45;&gt;node149</title>
<path fill="none" stroke="black" d="M960.307,-431.924C969.534,-411.399 987.362,-378.385 1013,-360 1084.18,-308.957 1348.1,-258.095 1446.61,-240.481"/>
<polygon fill="black" stroke="black" points="1447.46,-243.883 1456.7,-238.689 1446.24,-236.991 1447.46,-243.883"/>
</g>
<!-- node78&#45;&gt;node59 -->
<g id="edge78" class="edge"><title>node78&#45;&gt;node59</title>
<path fill="none" stroke="black" d="M951.534,-431.733C949.897,-397.246 951.986,-322.883 996,-288 1021.86,-267.508 1111.52,-249.452 1163.97,-240.319"/>
<polygon fill="black" stroke="black" points="1164.67,-243.751 1173.94,-238.614 1163.49,-236.851 1164.67,-243.751"/>
</g>
<!-- node78&#45;&gt;node66 -->
<g id="edge80" class="edge"><title>node78&#45;&gt;node66</title>
<path fill="none" stroke="black" d="M971.471,-431.784C993.509,-411.127 1032.38,-377.989 1072,-360 1144.61,-327.037 1237.8,-313.966 1290.6,-308.954"/>
<polygon fill="black" stroke="black" points="1290.96,-312.436 1300.61,-308.056 1290.34,-305.464 1290.96,-312.436"/>
</g>
<!-- node78&#45;&gt;node55 -->
<g id="edge82" class="edge"><title>node78&#45;&gt;node55</title>
<path fill="none" stroke="black" d="M980.045,-442.02C1018.9,-430.555 1091.37,-409.169 1141.81,-394.284"/>
<polygon fill="black" stroke="black" points="1142.99,-397.586 1151.59,-391.399 1141.01,-390.872 1142.99,-397.586"/>
</g>
<!-- node54&#45;&gt;node151 -->
<g id="edge88" class="edge"><title>node54&#45;&gt;node151</title>
<path fill="none" stroke="black" d="M1618.46,-444.558C1679.68,-434.266 1804.62,-411.586 1817,-396 1826.95,-383.469 1827.71,-371.888 1817,-360 1765.56,-302.892 1533.23,-371.756 1473,-324 1434.4,-293.388 1432.84,-262.879 1448,-216 1460.68,-176.786 1490.62,-139.513 1512.71,-115.824"/>
<polygon fill="black" stroke="black" points="1515.5,-117.978 1519.87,-108.328 1510.43,-113.145 1515.5,-117.978"/>
</g>
<!-- node54&#45;&gt;node153 -->
<g id="edge90" class="edge"><title>node54&#45;&gt;node153</title>
<path fill="none" stroke="black" d="M1618.18,-447.504C1690.36,-440.914 1850.96,-419.288 1797,-360 1739.61,-296.944 1482.19,-376.494 1415,-324 1373.73,-291.756 1362.26,-227.487 1359.12,-190.324"/>
<polygon fill="black" stroke="black" points="1362.6,-189.901 1358.42,-180.168 1355.62,-190.386 1362.6,-189.901"/>
</g>
<!-- node54&#45;&gt;node149 -->
<g id="edge92" class="edge"><title>node54&#45;&gt;node149</title>
<path fill="none" stroke="black" d="M1618.07,-436.23C1622.69,-434.63 1627.43,-433.159 1632,-432 1754.05,-401.069 1991.1,-452.801 1906,-360 1843.44,-291.774 1556.16,-389.747 1491,-324 1475.38,-308.243 1474.9,-282.393 1477.58,-262.43"/>
<polygon fill="black" stroke="black" points="1481.07,-262.77 1479.27,-252.33 1474.17,-261.617 1481.07,-262.77"/>
</g>
<!-- node54&#45;&gt;node59 -->
<g id="edge110" class="edge"><title>node54&#45;&gt;node59</title>
<path fill="none" stroke="black" d="M1551.78,-443.725C1513.48,-435.747 1449.24,-420.052 1398,-396 1346.45,-371.799 1335.78,-360.419 1292,-324 1268.05,-304.081 1243.34,-278.627 1226.05,-259.875"/>
<polygon fill="black" stroke="black" points="1228.44,-257.308 1219.12,-252.284 1223.28,-262.029 1228.44,-257.308"/>
</g>
<!-- node54&#45;&gt;node66 -->
<g id="edge112" class="edge"><title>node54&#45;&gt;node66</title>
<path fill="none" stroke="black" d="M1551.85,-441.064C1521.71,-432.146 1476.64,-416.779 1441,-396 1419.47,-383.445 1417.2,-375.892 1398,-360 1386.34,-350.353 1373.48,-339.803 1362.22,-330.608"/>
<polygon fill="black" stroke="black" points="1364.31,-327.796 1354.35,-324.184 1359.89,-333.219 1364.31,-327.796"/>
</g>
<!-- node54&#45;&gt;node55 -->
<g id="edge114" class="edge"><title>node54&#45;&gt;node55</title>
<path fill="none" stroke="black" d="M1551.92,-443.861C1485.16,-431.472 1333.71,-403.369 1251.9,-388.187"/>
<polygon fill="black" stroke="black" points="1252.5,-384.74 1242.03,-386.357 1251.23,-391.622 1252.5,-384.74"/>
</g>
<!-- node54&#45;&gt;node176 -->
<g id="edge86" class="edge"><title>node54&#45;&gt;node176</title>
<path fill="none" stroke="black" d="M1618.09,-449.253C1878.72,-443.355 3593.63,-404.327 3702,-396 3714.75,-395.02 3728.13,-393.691 3741.34,-392.197"/>
<polygon fill="black" stroke="black" points="3741.86,-395.659 3751.39,-391.025 3741.05,-388.706 3741.86,-395.659"/>
</g>
<!-- node54&#45;&gt;node146 -->
<g id="edge94" class="edge"><title>node54&#45;&gt;node146</title>
<path fill="none" stroke="black" d="M1618.03,-436.095C1622.66,-434.516 1627.41,-433.087 1632,-432 1681,-420.401 2023.15,-390.821 2137.72,-381.128"/>
<polygon fill="black" stroke="black" points="2138.1,-384.609 2147.77,-380.279 2137.51,-377.633 2138.1,-384.609"/>
</g>
<!-- node177 -->
<g id="node83" class="node"><title>node177</title>
<ellipse fill="none" stroke="black" cx="1717" cy="-378" rx="70.8437" ry="18"/>
<text text-anchor="middle" x="1717" y="-374.7" font-family="Times Roman,serif" font-size="12.00">/usr/lib/libbfd.so</text>
</g>
<!-- node54&#45;&gt;node177 -->
<g id="edge116" class="edge"><title>node54&#45;&gt;node177</title>
<path fill="none" stroke="black" d="M1618.31,-431.831C1636.42,-421.95 1658.94,-409.672 1677.88,-399.337"/>
<polygon fill="black" stroke="black" points="1679.76,-402.3 1686.86,-394.439 1676.41,-396.155 1679.76,-402.3"/>
</g>
<!-- node178 -->
<g id="node85" class="node"><title>node178</title>
<ellipse fill="none" stroke="black" cx="1539" cy="-378" rx="89.0421" ry="18"/>
<text text-anchor="middle" x="1539" y="-374.7" font-family="Times Roman,serif" font-size="12.00">/usr/lib/libiberty_pic.a</text>
</g>
<!-- node54&#45;&gt;node178 -->
<g id="edge118" class="edge"><title>node54&#45;&gt;node178</title>
<path fill="none" stroke="black" d="M1573.39,-431.831C1568.12,-423.583 1561.79,-413.664 1555.99,-404.599"/>
<polygon fill="black" stroke="black" points="1558.78,-402.456 1550.44,-395.913 1552.88,-406.225 1558.78,-402.456"/>
</g>
<!-- node146&#45;&gt;node151 -->
<g id="edge104" class="edge"><title>node146&#45;&gt;node151</title>
<path fill="none" stroke="black" d="M2202.08,-372.313C2252.77,-361.399 2357.83,-337.41 2368,-324 2377.67,-311.253 2377.91,-300.559 2368,-288 2266.93,-159.954 1725.03,-105.6 1576.61,-92.982"/>
<polygon fill="black" stroke="black" points="1576.47,-89.4587 1566.22,-92.1127 1575.89,-96.4344 1576.47,-89.4587"/>
</g>
<!-- node186 -->
<g id="node68" class="node"><title>node186</title>
<ellipse fill="none" stroke="black" cx="1878" cy="-306" rx="118.939" ry="18"/>
<text text-anchor="middle" x="1878" y="-302.7" font-family="Times Roman,serif" font-size="12.00">/usr/lib/libboost_regex&#45;mt.so</text>
</g>
<!-- node146&#45;&gt;node186 -->
<g id="edge96" class="edge"><title>node146&#45;&gt;node186</title>
<path fill="none" stroke="black" d="M2147.96,-365.195C2143.36,-363.29 2138.59,-361.474 2134,-360 2080.9,-342.944 2019.84,-329.826 1970.68,-320.793"/>
<polygon fill="black" stroke="black" points="1971.15,-317.322 1960.69,-318.984 1969.91,-324.21 1971.15,-317.322"/>
</g>
<!-- node183 -->
<g id="node70" class="node"><title>node183</title>
<ellipse fill="none" stroke="black" cx="2093" cy="-306" rx="77.9931" ry="18"/>
<text text-anchor="middle" x="2093" y="-302.7" font-family="Times Roman,serif" font-size="12.00">/usr/lib/libicuuc.so</text>
</g>
<!-- node146&#45;&gt;node183 -->
<g id="edge98" class="edge"><title>node146&#45;&gt;node183</title>
<path fill="none" stroke="black" d="M2154.31,-359.831C2144.08,-350.847 2131.59,-339.881 2120.56,-330.196"/>
<polygon fill="black" stroke="black" points="2122.66,-327.386 2112.84,-323.418 2118.04,-332.646 2122.66,-327.386"/>
</g>
<!-- node184 -->
<g id="node72" class="node"><title>node184</title>
<ellipse fill="none" stroke="black" cx="2274" cy="-306" rx="85.1424" ry="18"/>
<text text-anchor="middle" x="2274" y="-302.7" font-family="Times Roman,serif" font-size="12.00">/usr/lib/libicui18n.so</text>
</g>
<!-- node146&#45;&gt;node184 -->
<g id="edge100" class="edge"><title>node146&#45;&gt;node184</title>
<path fill="none" stroke="black" d="M2199.98,-359.831C2212.69,-350.586 2228.29,-339.241 2241.89,-329.354"/>
<polygon fill="black" stroke="black" points="2244.02,-332.13 2250.05,-323.418 2239.9,-326.469 2244.02,-332.13"/>
</g>
<!-- node185 -->
<g id="node74" class="node"><title>node185</title>
<ellipse fill="none" stroke="black" cx="1656" cy="-306" rx="85.1424" ry="18"/>
<text text-anchor="middle" x="1656" y="-302.7" font-family="Times Roman,serif" font-size="12.00">/usr/lib/libicudata.so</text>
</g>
<!-- node146&#45;&gt;node185 -->
<g id="edge102" class="edge"><title>node146&#45;&gt;node185</title>
<path fill="none" stroke="black" d="M2147.64,-364.561C2143.17,-362.781 2138.52,-361.17 2134,-360 1968.07,-316.996 1919.71,-348.147 1750,-324 1742.57,-322.942 1734.83,-321.697 1727.12,-320.363"/>
<polygon fill="black" stroke="black" points="1727.5,-316.876 1717.04,-318.567 1726.27,-323.767 1727.5,-316.876"/>
</g>
<!-- node146&#45;&gt;node147 -->
<g id="edge106" class="edge"><title>node146&#45;&gt;node147</title>
<path fill="none" stroke="black" d="M2202.41,-364.752C2206.88,-362.947 2211.51,-361.279 2216,-360 2248.39,-350.763 2467.6,-322.158 2556.58,-310.759"/>
<polygon fill="black" stroke="black" points="2557.29,-314.197 2566.76,-309.456 2556.4,-307.253 2557.29,-314.197"/>
</g>
<!-- node147&#45;&gt;node151 -->
<g id="edge108" class="edge"><title>node147&#45;&gt;node151</title>
<path fill="none" stroke="black" d="M2595.63,-287.856C2597.59,-253.578 2596.25,-179.558 2553,-144 2514.55,-112.39 1754.49,-94.5204 1576.2,-90.7537"/>
<polygon fill="black" stroke="black" points="1576.08,-87.2506 1566.01,-90.5405 1575.94,-94.249 1576.08,-87.2506"/>
</g>
<!-- node53&#45;&gt;node151 -->
<g id="edge126" class="edge"><title>node53&#45;&gt;node151</title>
<path fill="none" stroke="black" d="M2474.39,-443.9C2532.36,-430.301 2653,-391.703 2653,-306 2653,-306 2653,-306 2653,-234 2653,-182.775 2626.58,-167.378 2581,-144 2490.18,-97.4163 1751.53,-91.0015 1576.22,-90.1335"/>
<polygon fill="black" stroke="black" points="1576.21,-86.6335 1566.19,-90.0869 1576.18,-93.6334 1576.21,-86.6335"/>
</g>
<!-- node53&#45;&gt;node146 -->
<g id="edge130" class="edge"><title>node53&#45;&gt;node146</title>
<path fill="none" stroke="black" d="M2413.93,-441.95C2364.34,-428.678 2265.58,-402.244 2211.86,-387.867"/>
<polygon fill="black" stroke="black" points="2212.63,-384.449 2202.07,-385.244 2210.82,-391.211 2212.63,-384.449"/>
</g>
<!-- node53&#45;&gt;node147 -->
<g id="edge128" class="edge"><title>node53&#45;&gt;node147</title>
<path fill="none" stroke="black" d="M2463,-431.762C2489.48,-406.335 2537.62,-360.125 2567.59,-331.357"/>
<polygon fill="black" stroke="black" points="2570.37,-333.54 2575.16,-324.09 2565.52,-328.49 2570.37,-333.54"/>
</g>
<!-- node64&#45;&gt;node151 -->
<g id="edge134" class="edge"><title>node64&#45;&gt;node151</title>
<path fill="none" stroke="black" d="M1887.94,-503.982C1938.59,-473.242 2027.18,-409.216 1982,-360 1918.65,-290.991 1627.05,-391.405 1562,-324 1548.09,-309.591 1556.03,-163.795 1553,-144 1551.7,-135.518 1549.63,-126.44 1547.47,-118.194"/>
<polygon fill="black" stroke="black" points="1550.77,-117.01 1544.74,-108.301 1544.02,-118.872 1550.77,-117.01"/>
</g>
<!-- node64&#45;&gt;node66 -->
<g id="edge136" class="edge"><title>node64&#45;&gt;node66</title>
<path fill="none" stroke="black" d="M1855.28,-503.902C1852.85,-469.701 1842.33,-395.809 1797,-360 1780.43,-346.915 1484.39,-319.493 1373.49,-309.631"/>
<polygon fill="black" stroke="black" points="1373.62,-306.129 1363.35,-308.732 1373,-313.102 1373.62,-306.129"/>
</g>
<!-- node64&#45;&gt;node54 -->
<g id="edge138" class="edge"><title>node64&#45;&gt;node54</title>
<path fill="none" stroke="black" d="M1821.95,-512.954C1772.81,-499.897 1681.99,-475.77 1628.19,-461.475"/>
<polygon fill="black" stroke="black" points="1628.84,-458.025 1618.27,-458.84 1627.04,-464.79 1628.84,-458.025"/>
</g>
<!-- node64&#45;&gt;node146 -->
<g id="edge142" class="edge"><title>node64&#45;&gt;node146</title>
<path fill="none" stroke="black" d="M1890.21,-509.886C1916.17,-500.095 1952.33,-485.153 1982,-468 2005.09,-454.653 2006.45,-444.512 2030,-432 2073.2,-409.05 2088.46,-413.846 2134,-396 2135.4,-395.45 2136.83,-394.881 2138.26,-394.298"/>
<polygon fill="black" stroke="black" points="2139.91,-397.404 2147.78,-390.314 2137.21,-390.947 2139.91,-397.404"/>
</g>
<!-- node64&#45;&gt;node147 -->
<g id="edge140" class="edge"><title>node64&#45;&gt;node147</title>
<path fill="none" stroke="black" d="M1890.33,-505.802C1891.9,-505.173 1893.46,-504.569 1895,-504 1903.14,-500.989 2414.51,-356.645 2557.32,-316.349"/>
<polygon fill="black" stroke="black" points="2558.28,-319.715 2566.95,-313.631 2556.38,-312.978 2558.28,-319.715"/>
</g>
<!-- node64&#45;&gt;node53 -->
<g id="edge144" class="edge"><title>node64&#45;&gt;node53</title>
<path fill="none" stroke="black" d="M1890.18,-516.774C1915.06,-513.033 1949.59,-507.976 1980,-504 2136.42,-483.549 2323.02,-463 2403.63,-454.309"/>
<polygon fill="black" stroke="black" points="2404.27,-457.761 2413.84,-453.212 2403.52,-450.801 2404.27,-457.761"/>
</g>
<!-- node65&#45;&gt;node151 -->
<g id="edge148" class="edge"><title>node65&#45;&gt;node151</title>
<path fill="none" stroke="black" d="M1432.96,-658.485C1380.73,-648.726 1287.8,-630.713 1209,-612 1149.63,-597.9 1000.23,-563.72 944,-540 885.99,-515.527 865.449,-513.565 822,-468 766.853,-410.167 744,-385.911 744,-306 744,-306 744,-306 744,-234 744,-209.228 678.054,-211.62 888,-144 1003.53,-106.791 1380.95,-94.0537 1501.58,-90.8777"/>
<polygon fill="black" stroke="black" points="1501.87,-94.3713 1511.78,-90.6159 1501.7,-87.3736 1501.87,-94.3713"/>
</g>
<!-- node65&#45;&gt;node160 -->
<g id="edge210" class="edge"><title>node65&#45;&gt;node160</title>
<path fill="none" stroke="black" d="M1432.94,-662.824C1364.08,-656.874 1221.33,-641.862 1104,-612 950.294,-572.88 775.703,-499.207 701.48,-466.437"/>
<polygon fill="black" stroke="black" points="702.661,-463.132 692.101,-462.277 699.823,-469.531 702.661,-463.132"/>
</g>
<!-- node65&#45;&gt;node54 -->
<g id="edge208" class="edge"><title>node65&#45;&gt;node54</title>
<path fill="none" stroke="black" d="M1482.08,-647.724C1495.64,-617.404 1524.23,-554.991 1552,-504 1556.91,-494.977 1562.64,-485.34 1567.93,-476.742"/>
<polygon fill="black" stroke="black" points="1570.92,-478.566 1573.23,-468.227 1564.98,-474.865 1570.92,-478.566"/>
</g>
<!-- node65&#45;&gt;node64 -->
<g id="edge150" class="edge"><title>node65&#45;&gt;node64</title>
<path fill="none" stroke="black" d="M1515.13,-659.48C1560.49,-651.497 1635.11,-636.002 1696,-612 1741.12,-594.212 1789.14,-565.765 1820.67,-545.62"/>
<polygon fill="black" stroke="black" points="1822.6,-548.537 1829.11,-540.174 1818.81,-542.656 1822.6,-548.537"/>
</g>
<!-- node65&#45;&gt;node56 -->
<g id="edge152" class="edge"><title>node65&#45;&gt;node56</title>
<path fill="none" stroke="black" d="M1515.15,-662.23C1650.45,-649.836 2080.69,-610.425 2217.68,-597.877"/>
<polygon fill="black" stroke="black" points="2218.14,-601.35 2227.78,-596.952 2217.5,-594.379 2218.14,-601.35"/>
</g>
<!-- node56&#45;&gt;node151 -->
<g id="edge154" class="edge"><title>node56&#45;&gt;node151</title>
<path fill="none" stroke="black" d="M2277.37,-575.675C2286.62,-565.521 2297.93,-552.462 2307,-540 2339.96,-494.699 2422.01,-377.98 2437,-324 2441.28,-308.583 2445.19,-301.745 2437,-288 2346.14,-135.494 1735.46,-98.5329 1576.67,-91.4564"/>
<polygon fill="black" stroke="black" points="1576.6,-87.9499 1566.46,-91.0149 1576.29,-94.9434 1576.6,-87.9499"/>
</g>
<!-- node56&#45;&gt;node153 -->
<g id="edge156" class="edge"><title>node56&#45;&gt;node153</title>
<path fill="none" stroke="black" d="M2268.13,-575.688C2291.96,-522.142 2360.41,-369.036 2368,-360 2385.85,-338.756 2406.24,-348.634 2419,-324 2426.36,-309.794 2429.63,-299.962 2419,-288 2349.36,-209.602 1574.96,-171.395 1395.14,-163.545"/>
<polygon fill="black" stroke="black" points="1395.25,-160.046 1385.11,-163.112 1394.95,-167.04 1395.25,-160.046"/>
</g>
<!-- node56&#45;&gt;node149 -->
<g id="edge158" class="edge"><title>node56&#45;&gt;node149</title>
<path fill="none" stroke="black" d="M2262.71,-575.659C2267.5,-545.244 2278.64,-482.698 2296,-432 2307.46,-398.52 2305.33,-385.372 2330,-360 2354.66,-334.634 2382.48,-354.148 2401,-324 2409.37,-310.366 2412.07,-299.554 2401,-288 2368.76,-254.35 1609.18,-258.201 1563,-252 1549.25,-250.154 1534.37,-247.058 1521.27,-243.95"/>
<polygon fill="black" stroke="black" points="1521.74,-240.463 1511.2,-241.478 1520.08,-247.261 1521.74,-240.463"/>
</g>
<!-- node56&#45;&gt;node59 -->
<g id="edge160" class="edge"><title>node56&#45;&gt;node59</title>
<path fill="none" stroke="black" d="M2257.98,-575.856C2254.25,-533.187 2250.9,-425.171 2303,-360 2323.62,-334.206 2351.23,-352.451 2368,-324 2376.12,-310.215 2379.09,-299.533 2368,-288 2332.55,-251.131 1499.07,-254.874 1448,-252 1375.2,-247.903 1290.38,-241.251 1242.05,-237.283"/>
<polygon fill="black" stroke="black" points="1242.27,-233.79 1232.02,-236.455 1241.7,-240.766 1242.27,-233.79"/>
</g>
<!-- node56&#45;&gt;node66 -->
<g id="edge170" class="edge"><title>node56&#45;&gt;node66</title>
<path fill="none" stroke="black" d="M2232.95,-575.876C2219.32,-566.082 2202.97,-553.291 2190,-540 2120.71,-469.003 2144.81,-408.018 2058,-360 1961.3,-306.509 1672.2,-332.311 1562,-324 1496.05,-319.026 1419.48,-312.979 1373.43,-309.313"/>
<polygon fill="black" stroke="black" points="1373.49,-305.807 1363.25,-308.502 1372.94,-312.785 1373.49,-305.807"/>
</g>
<!-- node56&#45;&gt;node55 -->
<g id="edge172" class="edge"><title>node56&#45;&gt;node55</title>
<path fill="none" stroke="black" d="M2227.79,-591.632C2153.94,-585.871 1966.95,-569.398 1813,-540 1602.87,-499.872 1358.54,-427.877 1251.7,-395.096"/>
<polygon fill="black" stroke="black" points="1252.69,-391.739 1242.11,-392.143 1250.63,-398.429 1252.69,-391.739"/>
</g>
<!-- node56&#45;&gt;node54 -->
<g id="edge174" class="edge"><title>node56&#45;&gt;node54</title>
<path fill="none" stroke="black" d="M2227.83,-585.126C2164.97,-567.981 2021.31,-529.726 1899,-504 1802.8,-483.766 1688.84,-465.601 1628.14,-456.384"/>
<polygon fill="black" stroke="black" points="1628.56,-452.908 1618.15,-454.875 1627.52,-459.83 1628.56,-452.908"/>
</g>
<!-- node56&#45;&gt;node146 -->
<g id="edge164" class="edge"><title>node56&#45;&gt;node146</title>
<path fill="none" stroke="black" d="M2237.45,-575.937C2226.95,-566.343 2215.2,-553.711 2208,-540 2185.35,-496.896 2178.23,-439.781 2176,-406.153"/>
<polygon fill="black" stroke="black" points="2179.49,-405.894 2175.44,-396.107 2172.5,-406.288 2179.49,-405.894"/>
</g>
<!-- node56&#45;&gt;node147 -->
<g id="edge162" class="edge"><title>node56&#45;&gt;node147</title>
<path fill="none" stroke="black" d="M2292.2,-580.221C2310.88,-570.976 2333.84,-557.321 2350,-540 2386.74,-500.613 2370.65,-473.492 2405,-432 2438.33,-391.735 2454.44,-388.891 2498,-360 2517.22,-347.252 2539.64,-334.528 2557.98,-324.637"/>
<polygon fill="black" stroke="black" points="2559.72,-327.677 2566.89,-319.879 2556.42,-321.502 2559.72,-327.677"/>
</g>
<!-- node56&#45;&gt;node53 -->
<g id="edge176" class="edge"><title>node56&#45;&gt;node53</title>
<path fill="none" stroke="black" d="M2292.21,-587.551C2335.23,-578.287 2408.13,-560.099 2426,-540 2440.83,-523.322 2444.82,-497.953 2445.39,-478.396"/>
<polygon fill="black" stroke="black" points="2448.89,-478.225 2445.41,-468.221 2441.89,-478.216 2448.89,-478.225"/>
</g>
<!-- node56&#45;&gt;node64 -->
<g id="edge178" class="edge"><title>node56&#45;&gt;node64</title>
<path fill="none" stroke="black" d="M2227.96,-588.29C2156.1,-575.484 1981.97,-544.45 1900.02,-529.845"/>
<polygon fill="black" stroke="black" points="1900.49,-526.373 1890.03,-528.064 1899.26,-533.265 1900.49,-526.373"/>
</g>
<!-- node56&#45;&gt;node150 -->
<g id="edge166" class="edge"><title>node56&#45;&gt;node150</title>
<path fill="none" stroke="black" d="M2292.11,-590.766C2409.08,-578.988 2812.05,-538.408 2937.45,-525.781"/>
<polygon fill="black" stroke="black" points="2938.1,-529.234 2947.69,-524.75 2937.39,-522.269 2938.1,-529.234"/>
</g>
<!-- node63 -->
<g id="node122" class="node"><title>node63</title>
<polygon fill="none" stroke="black" points="2630,-540 2554,-540 2554,-504 2630,-504 2630,-540"/>
<text text-anchor="middle" x="2592" y="-518.7" font-family="Times Roman,serif" font-size="12.00">thorhelper</text>
</g>
<!-- node56&#45;&gt;node63 -->
<g id="edge180" class="edge"><title>node56&#45;&gt;node63</title>
<path fill="none" stroke="black" d="M2292.14,-587.031C2350.64,-574.342 2474.85,-547.406 2543.63,-532.489"/>
<polygon fill="black" stroke="black" points="2544.74,-535.83 2553.77,-530.29 2543.26,-528.989 2544.74,-535.83"/>
</g>
<!-- node56&#45;&gt;node99 -->
<g id="edge198" class="edge"><title>node56&#45;&gt;node99</title>
<path fill="none" stroke="black" d="M2292.12,-590.491C2357.66,-583.095 2511.4,-564.548 2639,-540 2651.05,-537.682 2664.09,-534.678 2675.82,-531.791"/>
<polygon fill="black" stroke="black" points="2676.88,-535.133 2685.73,-529.305 2675.18,-528.344 2676.88,-535.133"/>
</g>
<!-- node150&#45;&gt;node151 -->
<g id="edge168" class="edge"><title>node150&#45;&gt;node151</title>
<path fill="none" stroke="black" d="M2988.42,-503.778C2995.36,-493.655 3003.51,-480.592 3009,-468 3025.55,-430.054 3033,-419.398 3033,-378 3033,-378 3033,-378 3033,-234 3033,-192.602 3041.36,-169.819 3009,-144 2951.34,-97.9903 1799.93,-91.0437 1576.41,-90.1275"/>
<polygon fill="black" stroke="black" points="1576.19,-86.6267 1566.18,-90.0871 1576.17,-93.6266 1576.19,-86.6267"/>
</g>
<!-- node63&#45;&gt;node151 -->
<g id="edge182" class="edge"><title>node63&#45;&gt;node151</title>
<path fill="none" stroke="black" d="M2602.21,-503.843C2637.48,-438.663 2745.47,-216.508 2622,-144 2575.97,-116.968 1761.14,-95.4419 1576.15,-90.8897"/>
<polygon fill="black" stroke="black" points="1576.18,-87.3895 1566.1,-90.6439 1576.01,-94.3874 1576.18,-87.3895"/>
</g>
<!-- node63&#45;&gt;node146 -->
<g id="edge186" class="edge"><title>node63&#45;&gt;node146</title>
<path fill="none" stroke="black" d="M2569.65,-503.816C2556.84,-493.372 2540.48,-479.988 2526,-468 2506.8,-452.108 2505.6,-442.51 2483,-432 2435.36,-409.845 2283.68,-390.321 2212.52,-382.116"/>
<polygon fill="black" stroke="black" points="2212.56,-378.597 2202.23,-380.943 2211.77,-385.552 2212.56,-378.597"/>
</g>
<!-- node63&#45;&gt;node147 -->
<g id="edge184" class="edge"><title>node63&#45;&gt;node147</title>
<path fill="none" stroke="black" d="M2592.17,-503.955C2592.51,-466.394 2593.32,-379.554 2593.74,-334.41"/>
<polygon fill="black" stroke="black" points="2597.24,-334.177 2593.83,-324.145 2590.24,-334.112 2597.24,-334.177"/>
</g>
<!-- node63&#45;&gt;node53 -->
<g id="edge188" class="edge"><title>node63&#45;&gt;node53</title>
<path fill="none" stroke="black" d="M2554.65,-503.831C2532.92,-493.26 2505.55,-479.945 2483.47,-469.202"/>
<polygon fill="black" stroke="black" points="2484.89,-465.999 2474.36,-464.771 2481.82,-472.293 2484.89,-465.999"/>
</g>
<!-- node63&#45;&gt;node156 -->
<g id="edge190" class="edge"><title>node63&#45;&gt;node156</title>
<path fill="none" stroke="black" d="M2630.37,-513.159C2644.93,-509.995 2661.68,-506.577 2677,-504 2810.32,-481.573 2968.28,-464.075 3050.99,-455.601"/>
<polygon fill="black" stroke="black" points="3051.34,-459.083 3060.94,-454.588 3050.63,-452.119 3051.34,-459.083"/>
</g>
<!-- node156&#45;&gt;node151 -->
<g id="edge192" class="edge"><title>node156&#45;&gt;node151</title>
<path fill="none" stroke="black" d="M3100.15,-431.746C3089.29,-404.778 3071,-352.462 3071,-306 3071,-306 3071,-306 3071,-234 3071,-192.602 3079.37,-169.804 3047,-144 2987.73,-96.7562 1802.98,-90.7992 1576.31,-90.0911"/>
<polygon fill="black" stroke="black" points="1576.26,-86.5911 1566.24,-90.0613 1576.23,-93.591 1576.26,-86.5911"/>
</g>
<!-- node191 -->
<g id="node131" class="node"><title>node191</title>
<ellipse fill="none" stroke="black" cx="3556" cy="-378" rx="137.138" ry="18"/>
<text text-anchor="middle" x="3556" y="-374.7" font-family="Times Roman,serif" font-size="12.00">/usr/lib/x86_64&#45;linux&#45;gnu/libssl.so</text>
</g>
<!-- node156&#45;&gt;node191 -->
<g id="edge194" class="edge"><title>node156&#45;&gt;node191</title>
<path fill="none" stroke="black" d="M3155.1,-442.431C3226.84,-430.9 3365.07,-408.686 3458.92,-393.602"/>
<polygon fill="black" stroke="black" points="3459.68,-397.025 3469,-391.983 3458.57,-390.114 3459.68,-397.025"/>
</g>
<!-- node192 -->
<g id="node133" class="node"><title>node192</title>
<ellipse fill="none" stroke="black" cx="3250" cy="-378" rx="150.937" ry="18"/>
<text text-anchor="middle" x="3250" y="-374.7" font-family="Times Roman,serif" font-size="12.00">/usr/lib/x86_64&#45;linux&#45;gnu/libcrypto.so</text>
</g>
<!-- node156&#45;&gt;node192 -->
<g id="edge196" class="edge"><title>node156&#45;&gt;node192</title>
<path fill="none" stroke="black" d="M3143.83,-431.831C3162.78,-422.222 3186.21,-410.344 3206.23,-400.193"/>
<polygon fill="black" stroke="black" points="3207.82,-403.309 3215.16,-395.665 3204.66,-397.066 3207.82,-403.309"/>
</g>
<!-- node99&#45;&gt;node151 -->
<g id="edge200" class="edge"><title>node99&#45;&gt;node151</title>
<path fill="none" stroke="black" d="M2740.04,-518.879C2803.57,-509.892 2957,-477.852 2957,-378 2957,-378 2957,-378 2957,-234 2957,-93.9443 2793.06,-167.556 2655,-144 2440.66,-107.429 1745.83,-93.4975 1576.48,-90.6001"/>
<polygon fill="black" stroke="black" points="1576.37,-87.0979 1566.32,-90.4288 1576.26,-94.0969 1576.37,-87.0979"/>
</g>
<!-- node99&#45;&gt;node146 -->
<g id="edge204" class="edge"><title>node99&#45;&gt;node146</title>
<path fill="none" stroke="black" d="M2685.7,-506.346C2649,-486.013 2581.17,-450.893 2519,-432 2410.51,-399.03 2276.34,-385.385 2212.35,-380.446"/>
<polygon fill="black" stroke="black" points="2212.57,-376.952 2202.34,-379.7 2212.05,-383.933 2212.57,-376.952"/>
</g>
<!-- node99&#45;&gt;node147 -->
<g id="edge202" class="edge"><title>node99&#45;&gt;node147</title>
<path fill="none" stroke="black" d="M2704.34,-503.652C2689.79,-473.229 2659.08,-410.67 2629,-360 2623.67,-351.016 2617.56,-341.39 2611.96,-332.79"/>
<polygon fill="black" stroke="black" points="2614.77,-330.7 2606.35,-324.269 2608.92,-334.547 2614.77,-330.7"/>
</g>
<!-- node99&#45;&gt;node53 -->
<g id="edge206" class="edge"><title>node99&#45;&gt;node53</title>
<path fill="none" stroke="black" d="M2685.98,-514.767C2638.44,-502.043 2539.65,-475.601 2484.12,-460.739"/>
<polygon fill="black" stroke="black" points="2484.84,-457.309 2474.28,-458.105 2483.03,-464.071 2484.84,-457.309"/>
</g>
<!-- node127&#45;&gt;node151 -->
<g id="edge214" class="edge"><title>node127&#45;&gt;node151</title>
<path fill="none" stroke="black" d="M1217.96,-589.277C1176.63,-581.949 1098.99,-565.923 1037,-540 895.088,-480.659 782,-459.82 782,-306 782,-306 782,-306 782,-234 782,-159.941 1348.38,-106.261 1501.33,-93.1161"/>
<polygon fill="black" stroke="black" points="1501.94,-96.5763 1511.61,-92.24 1501.35,-89.6016 1501.94,-96.5763"/>
</g>
<!-- node127&#45;&gt;node59 -->
<g id="edge216" class="edge"><title>node127&#45;&gt;node59</title>
<path fill="none" stroke="black" d="M1228.6,-575.909C1197,-543.396 1133.55,-471.414 1110,-396 1095.69,-350.181 1086.05,-329.599 1110,-288 1121.69,-267.699 1144.26,-254.326 1164.24,-245.967"/>
<polygon fill="black" stroke="black" points="1165.72,-249.143 1173.78,-242.257 1163.19,-242.619 1165.72,-249.143"/>
</g>
<!-- node127&#45;&gt;node160 -->
<g id="edge218" class="edge"><title>node127&#45;&gt;node160</title>
<path fill="none" stroke="black" d="M1217.93,-588.634C1170.13,-579.644 1072.05,-560.5 990,-540 934.325,-526.09 921.269,-519.445 866,-504 808.856,-488.031 742.322,-470.33 701.955,-459.69"/>
<polygon fill="black" stroke="black" points="702.593,-456.239 692.031,-457.078 700.811,-463.008 702.593,-456.239"/>
</g>
<!-- node127&#45;&gt;node110 -->
<g id="edge220" class="edge"><title>node127&#45;&gt;node110</title>
<path fill="none" stroke="black" d="M1217.79,-590.813C1112.34,-579.31 751.097,-539.901 628.266,-526.502"/>
<polygon fill="black" stroke="black" points="628.466,-523.003 618.146,-525.398 627.707,-529.962 628.466,-523.003"/>
</g>
<!-- node127&#45;&gt;node66 -->
<g id="edge222" class="edge"><title>node127&#45;&gt;node66</title>
<path fill="none" stroke="black" d="M1248.09,-575.936C1251.06,-535.636 1261.37,-435.955 1294,-360 1298.1,-350.463 1304.05,-340.917 1310.03,-332.561"/>
<polygon fill="black" stroke="black" points="1313,-334.435 1316.2,-324.335 1307.4,-330.235 1313,-334.435"/>
</g>
<!-- node127&#45;&gt;node55 -->
<g id="edge224" class="edge"><title>node127&#45;&gt;node55</title>
<path fill="none" stroke="black" d="M1242.04,-575.546C1239.29,-565.131 1235.86,-551.864 1233,-540 1221.73,-493.19 1209.84,-438.463 1202.93,-406.101"/>
<polygon fill="black" stroke="black" points="1206.29,-405.08 1200.79,-396.027 1199.45,-406.536 1206.29,-405.08"/>
</g>
<!-- node127&#45;&gt;node78 -->
<g id="edge226" class="edge"><title>node127&#45;&gt;node78</title>
<path fill="none" stroke="black" d="M1217.89,-584.694C1188.54,-574.925 1142.25,-558.441 1104,-540 1062.97,-520.215 1018.45,-492.905 988.46,-473.571"/>
<polygon fill="black" stroke="black" points="990.314,-470.602 980.021,-468.094 986.503,-476.474 990.314,-470.602"/>
</g>
<!-- node127&#45;&gt;node54 -->
<g id="edge228" class="edge"><title>node127&#45;&gt;node54</title>
<path fill="none" stroke="black" d="M1276.25,-577.314C1310.65,-558.094 1369.83,-526.305 1423,-504 1462.52,-487.422 1509.06,-472.349 1542.09,-462.367"/>
<polygon fill="black" stroke="black" points="1543.31,-465.656 1551.88,-459.436 1541.3,-458.95 1543.31,-465.656"/>
</g>
<!-- node127&#45;&gt;node146 -->
<g id="edge232" class="edge"><title>node127&#45;&gt;node146</title>
<path fill="none" stroke="black" d="M1276.02,-585.736C1365.21,-560.512 1643.39,-483.13 1877,-432 1970.32,-411.574 2081.29,-392.941 2137.84,-383.845"/>
<polygon fill="black" stroke="black" points="2138.43,-387.295 2147.75,-382.259 2137.32,-380.383 2138.43,-387.295"/>
</g>
<!-- node127&#45;&gt;node147 -->
<g id="edge230" class="edge"><title>node127&#45;&gt;node147</title>
<path fill="none" stroke="black" d="M1255.32,-575.881C1277.63,-529.73 1343.77,-408.017 1441,-360 1533.42,-314.359 2265.1,-330.093 2368,-324 2434.57,-320.058 2512.01,-313.45 2556.78,-309.431"/>
<polygon fill="black" stroke="black" points="2557.25,-312.903 2566.89,-308.518 2556.62,-305.932 2557.25,-312.903"/>
</g>
<!-- node127&#45;&gt;node53 -->
<g id="edge234" class="edge"><title>node127&#45;&gt;node53</title>
<path fill="none" stroke="black" d="M1276.28,-592.497C1386.62,-586.69 1777.13,-564.808 1899,-540 1948.99,-529.824 1958.22,-515.189 2008,-504 2151.39,-471.768 2325.93,-457.464 2403.5,-452.361"/>
<polygon fill="black" stroke="black" points="2404.03,-455.834 2413.79,-451.701 2403.58,-448.848 2404.03,-455.834"/>
</g>
<!-- node127&#45;&gt;node64 -->
<g id="edge236" class="edge"><title>node127&#45;&gt;node64</title>
<path fill="none" stroke="black" d="M1276.37,-590.527C1374.86,-578.884 1693.76,-541.181 1811.65,-527.243"/>
<polygon fill="black" stroke="black" points="1812.25,-530.697 1821.77,-526.047 1811.43,-523.746 1812.25,-530.697"/>
</g>
<!-- node103&#45;&gt;node151 -->
<g id="edge240" class="edge"><title>node103&#45;&gt;node151</title>
<path fill="none" stroke="black" d="M1653.73,-575.653C1664.54,-556.372 1683.35,-525.863 1705,-504 1744.56,-464.052 1758.31,-456.319 1809,-432 1859.59,-407.729 1896.46,-440.976 1930,-396 1939.57,-383.174 1940.77,-371.837 1930,-360 1873.08,-297.413 1609.51,-385.108 1551,-324 1523.51,-295.283 1531,-173.996 1536.08,-118.245"/>
<polygon fill="black" stroke="black" points="1539.59,-118.302 1537.06,-108.015 1532.63,-117.639 1539.59,-118.302"/>
</g>
<!-- node103&#45;&gt;node59 -->
<g id="edge242" class="edge"><title>node103&#45;&gt;node59</title>
<path fill="none" stroke="black" d="M1600.94,-589.304C1548.88,-582.65 1459.26,-568.037 1387,-540 1269.61,-494.45 1205.44,-505.351 1143,-396 1117.36,-351.1 1153.46,-293.21 1179.78,-260.185"/>
<polygon fill="black" stroke="black" points="1182.57,-262.297 1186.21,-252.348 1177.16,-257.855 1182.57,-262.297"/>
</g>
<!-- node103&#45;&gt;node66 -->
<g id="edge244" class="edge"><title>node103&#45;&gt;node66</title>
<path fill="none" stroke="black" d="M1615.89,-575.858C1567.14,-543.543 1465.3,-472.214 1394,-396 1375.84,-376.591 1358.99,-351.476 1347.46,-332.71"/>
<polygon fill="black" stroke="black" points="1350.4,-330.815 1342.24,-324.061 1344.41,-334.431 1350.4,-330.815"/>
</g>
<!-- node103&#45;&gt;node55 -->
<g id="edge246" class="edge"><title>node103&#45;&gt;node55</title>
<path fill="none" stroke="black" d="M1600.91,-584.167C1563.23,-574.893 1507.41,-559.515 1461,-540 1400.47,-514.552 1388.03,-502.237 1332,-468 1297.08,-446.662 1258.32,-420.558 1231.32,-401.969"/>
<polygon fill="black" stroke="black" points="1233.2,-399.017 1222.99,-396.214 1229.23,-404.777 1233.2,-399.017"/>
</g>
<!-- node103&#45;&gt;node54 -->
<g id="edge248" class="edge"><title>node103&#45;&gt;node54</title>
<path fill="none" stroke="black" d="M1636.53,-575.762C1626.38,-550.985 1608.14,-506.471 1596.31,-477.594"/>
<polygon fill="black" stroke="black" points="1599.44,-476.016 1592.41,-468.09 1592.96,-478.67 1599.44,-476.016"/>
</g>
<!-- node103&#45;&gt;node146 -->
<g id="edge252" class="edge"><title>node103&#45;&gt;node146</title>
<path fill="none" stroke="black" d="M1687.18,-577.059C1717.62,-564.824 1755.45,-548.939 1770,-540 1791.24,-526.952 1791.81,-517.118 1813,-504 1881.03,-461.89 1902.56,-458.645 1978,-432 2032.75,-412.662 2098.06,-395.969 2138.02,-386.45"/>
<polygon fill="black" stroke="black" points="2138.93,-389.832 2147.86,-384.13 2137.32,-383.019 2138.93,-389.832"/>
</g>
<!-- node103&#45;&gt;node147 -->
<g id="edge250" class="edge"><title>node103&#45;&gt;node147</title>
<path fill="none" stroke="black" d="M1664.59,-575.825C1703.41,-542.481 1791.25,-471.352 1877,-432 1931.88,-406.816 2079.74,-371.591 2139,-360 2292.41,-329.993 2478.4,-314.235 2556.56,-308.532"/>
<polygon fill="black" stroke="black" points="2557.13,-312 2566.86,-307.793 2556.63,-305.018 2557.13,-312"/>
</g>
<!-- node103&#45;&gt;node53 -->
<g id="edge254" class="edge"><title>node103&#45;&gt;node53</title>
<path fill="none" stroke="black" d="M1687.27,-588.383C1755.6,-579.333 1892.57,-560.459 2008,-540 2154.46,-514.041 2327.11,-476.25 2403.81,-459.086"/>
<polygon fill="black" stroke="black" points="2404.99,-462.408 2413.98,-456.805 2403.46,-455.578 2404.99,-462.408"/>
</g>
<!-- node103&#45;&gt;node64 -->
<g id="edge256" class="edge"><title>node103&#45;&gt;node64</title>
<path fill="none" stroke="black" d="M1687.32,-580.265C1720.48,-569.626 1767.28,-554.331 1808,-540 1809.42,-539.501 1810.86,-538.99 1812.31,-538.47"/>
<polygon fill="black" stroke="black" points="1813.77,-541.662 1821.97,-534.955 1811.38,-535.083 1813.77,-541.662"/>
</g>
<!-- node60&#45;&gt;node151 -->
<g id="edge260" class="edge"><title>node60&#45;&gt;node151</title>
<path fill="none" stroke="black" d="M3190.06,-589.45C3350.01,-573.025 3869.14,-511.572 3982,-396 4010.56,-366.752 4001,-346.882 4001,-306 4001,-306 4001,-306 4001,-234 4001,-106.991 1885.35,-91.7133 1576.45,-90.1596"/>
<polygon fill="black" stroke="black" points="1576.25,-86.6587 1566.23,-90.11 1576.21,-93.6586 1576.25,-86.6587"/>
</g>
<!-- node62&#45;&gt;node151 -->
<g id="edge264" class="edge"><title>node62&#45;&gt;node151</title>
<path fill="none" stroke="black" d="M2661.26,-658.182C2718.19,-648.455 2807.68,-630.816 2836,-612 2882.36,-581.201 2995,-419.989 2995,-378 2995,-378 2995,-378 2995,-234 2995,-194.127 3135.1,-220.948 2812,-144 2689.18,-114.75 1773.01,-94.724 1576.17,-90.7325"/>
<polygon fill="black" stroke="black" points="1576.12,-87.2308 1566.05,-90.5285 1575.98,-94.2294 1576.12,-87.2308"/>
</g>
<!-- node62&#45;&gt;node153 -->
<g id="edge268" class="edge"><title>node62&#45;&gt;node153</title>
<path fill="none" stroke="black" d="M2661.26,-656.587C2710.45,-646.418 2781.84,-629.331 2804,-612 2917.45,-523.281 2930.2,-367.342 2810,-288 2688.45,-207.766 1611.07,-169.935 1395.46,-163.134"/>
<polygon fill="black" stroke="black" points="1395.39,-159.63 1385.29,-162.816 1395.17,-166.626 1395.39,-159.63"/>
</g>
<!-- node62&#45;&gt;node149 -->
<g id="edge270" class="edge"><title>node62&#45;&gt;node149</title>
<path fill="none" stroke="black" d="M2661.18,-656.386C2704.72,-646.79 2763.54,-630.794 2778,-612 2865.82,-497.875 2881.05,-391.577 2781,-288 2736.08,-241.496 1729.24,-234.973 1521.35,-234.121"/>
<polygon fill="black" stroke="black" points="1521.25,-230.621 1511.24,-234.082 1521.22,-237.621 1521.25,-230.621"/>
</g>
<!-- node62&#45;&gt;node59 -->
<g id="edge272" class="edge"><title>node62&#45;&gt;node59</title>
<path fill="none" stroke="black" d="M2647.01,-647.849C2682,-627.266 2732.84,-589.964 2749,-540 2783.66,-432.823 2701.02,-331.429 2630,-288 2573.95,-253.726 1513.61,-255.408 1448,-252 1375.19,-248.218 1290.36,-241.46 1242.04,-237.387"/>
<polygon fill="black" stroke="black" points="1242.27,-233.895 1232.01,-236.537 1241.68,-240.87 1242.27,-233.895"/>
</g>
<!-- node62&#45;&gt;node66 -->
<g id="edge274" class="edge"><title>node62&#45;&gt;node66</title>
<path fill="none" stroke="black" d="M2562.63,-662.706C2465.84,-655.761 2254.67,-638.082 2187,-612 2004.42,-541.626 2009.18,-428.774 1826,-360 1804.88,-352.07 1488.33,-321.034 1373.34,-309.956"/>
<polygon fill="black" stroke="black" points="1373.47,-306.452 1363.18,-308.978 1372.8,-313.42 1373.47,-306.452"/>
</g>
<!-- node62&#45;&gt;node55 -->
<g id="edge276" class="edge"><title>node62&#45;&gt;node55</title>
<path fill="none" stroke="black" d="M2562.7,-664.368C2444.63,-659.954 2148.59,-645.766 2056,-612 1976.43,-582.984 1975.96,-539.357 1899,-504 1785.37,-451.794 1749.76,-455.844 1627,-432 1493.66,-406.101 1334.55,-389.876 1252.32,-382.56"/>
<polygon fill="black" stroke="black" points="1252.46,-379.059 1242.19,-381.67 1251.85,-386.032 1252.46,-379.059"/>
</g>
<!-- node62&#45;&gt;node54 -->
<g id="edge278" class="edge"><title>node62&#45;&gt;node54</title>
<path fill="none" stroke="black" d="M2562.87,-664.628C2424.86,-660.391 2035.8,-645.713 1913,-612 1799.99,-580.974 1679.48,-510.506 1621,-473.576"/>
<polygon fill="black" stroke="black" points="1622.81,-470.579 1612.49,-468.164 1619.05,-476.485 1622.81,-470.579"/>
</g>
<!-- node62&#45;&gt;node146 -->
<g id="edge282" class="edge"><title>node62&#45;&gt;node146</title>
<path fill="none" stroke="black" d="M2562.88,-662.008C2463.5,-653.538 2245.72,-632.829 2219,-612 2156.76,-563.474 2162.88,-457.179 2170.02,-406.271"/>
<polygon fill="black" stroke="black" points="2173.49,-406.701 2171.53,-396.289 2166.57,-405.651 2173.49,-406.701"/>
</g>
<!-- node62&#45;&gt;node147 -->
<g id="edge280" class="edge"><title>node62&#45;&gt;node147</title>
<path fill="none" stroke="black" d="M2617.16,-647.833C2623.77,-623.517 2634.88,-578.932 2639,-540 2646.99,-464.59 2620.47,-377.199 2604.76,-333.648"/>
<polygon fill="black" stroke="black" points="2607.96,-332.216 2601.21,-324.048 2601.39,-334.641 2607.96,-332.216"/>
</g>
<!-- node62&#45;&gt;node53 -->
<g id="edge284" class="edge"><title>node62&#45;&gt;node53</title>
<path fill="none" stroke="black" d="M2601.5,-647.804C2583.21,-616.8 2543.49,-552.39 2502,-504 2493.31,-493.863 2482.87,-483.651 2473.26,-474.878"/>
<polygon fill="black" stroke="black" points="2475.56,-472.242 2465.78,-468.179 2470.89,-477.457 2475.56,-472.242"/>
</g>
<!-- node62&#45;&gt;node64 -->
<g id="edge286" class="edge"><title>node62&#45;&gt;node64</title>
<path fill="none" stroke="black" d="M2562.88,-665.282C2433.17,-662.839 2084.08,-652.574 1977,-612 1939.77,-597.894 1904.07,-568.789 1881.23,-547.481"/>
<polygon fill="black" stroke="black" points="1883.35,-544.673 1873.7,-540.307 1878.52,-549.74 1883.35,-544.673"/>
</g>
<!-- node62&#45;&gt;node56 -->
<g id="edge292" class="edge"><title>node62&#45;&gt;node56</title>
<path fill="none" stroke="black" d="M2562.69,-655.913C2493.18,-641.696 2367.6,-616.009 2302.19,-602.629"/>
<polygon fill="black" stroke="black" points="2302.72,-599.166 2292.22,-600.591 2301.32,-606.024 2302.72,-599.166"/>
</g>
<!-- node62&#45;&gt;node150 -->
<g id="edge288" class="edge"><title>node62&#45;&gt;node150</title>
<path fill="none" stroke="black" d="M2661.26,-663.027C2739.65,-657.423 2888.21,-642.962 2930,-612 2950.29,-596.964 2962.02,-570.207 2968.38,-549.763"/>
<polygon fill="black" stroke="black" points="2971.78,-550.605 2971.16,-540.029 2965.05,-548.683 2971.78,-550.605"/>
</g>
<!-- node62&#45;&gt;node99 -->
<g id="edge290" class="edge"><title>node62&#45;&gt;node99</title>
<path fill="none" stroke="black" d="M2636.39,-647.954C2648.25,-638.274 2662.06,-625.562 2672,-612 2686.03,-592.869 2696.86,-568.172 2703.85,-549.49"/>
<polygon fill="black" stroke="black" points="2707.15,-550.662 2707.25,-540.067 2700.57,-548.287 2707.15,-550.662"/>
</g>
<!-- node62&#45;&gt;node60 -->
<g id="edge266" class="edge"><title>node62&#45;&gt;node60</title>
<path fill="none" stroke="black" d="M2661,-659.355C2759.4,-646.014 2980.54,-616.028 3085.55,-601.79"/>
<polygon fill="black" stroke="black" points="3086.2,-605.233 3095.64,-600.421 3085.26,-598.297 3086.2,-605.233"/>
</g>
<!-- node155&#45;&gt;node151 -->
<g id="edge296" class="edge"><title>node155&#45;&gt;node151</title>
<path fill="none" stroke="black" d="M3984.84,-647.807C3997.53,-638.595 4011.36,-626.321 4020,-612 4041.12,-576.995 4039,-562.882 4039,-522 4039,-522 4039,-522 4039,-234 4039,-145.003 4880.26,-290.741 3695,-144 3476.82,-116.988 1844.31,-94.0887 1576.21,-90.4912"/>
<polygon fill="black" stroke="black" points="1576.24,-86.9915 1566.2,-90.3574 1576.15,-93.9909 1576.24,-86.9915"/>
</g>
<!-- node189 -->
<g id="node191" class="node"><title>node189</title>
<ellipse fill="none" stroke="black" cx="4216" cy="-594" rx="148.987" ry="18"/>
<text text-anchor="middle" x="4216" y="-590.7" font-family="Times Roman,serif" font-size="12.00">/usr/lib/x86_64&#45;linux&#45;gnu/libldap_r.so</text>
</g>
<!-- node155&#45;&gt;node189 -->
<g id="edge298" class="edge"><title>node155&#45;&gt;node189</title>
<path fill="none" stroke="black" d="M4001.06,-653.294C4041.28,-642.198 4100.25,-625.93 4146.26,-613.239"/>
<polygon fill="black" stroke="black" points="4147.45,-616.54 4156.16,-610.507 4145.59,-609.792 4147.45,-616.54"/>
</g>
<!-- node190 -->
<g id="node193" class="node"><title>node190</title>
<ellipse fill="none" stroke="black" cx="3871" cy="-594" rx="139.888" ry="18"/>
<text text-anchor="middle" x="3871" y="-590.7" font-family="Times Roman,serif" font-size="12.00">/usr/lib/x86_64&#45;linux&#45;gnu/liblber.so</text>
</g>
<!-- node155&#45;&gt;node190 -->
<g id="edge300" class="edge"><title>node155&#45;&gt;node190</title>
<path fill="none" stroke="black" d="M3933.8,-647.831C3923.48,-638.981 3910.91,-628.208 3899.74,-618.631"/>
<polygon fill="black" stroke="black" points="3901.77,-615.764 3891.9,-611.913 3897.21,-621.079 3901.77,-615.764"/>
</g>
<!-- node159&#45;&gt;node176 -->
<g id="edge314" class="edge"><title>node159&#45;&gt;node176</title>
<path fill="none" stroke="black" d="M3600.24,-441.412C3610.21,-438.345 3621.59,-434.926 3632,-432 3676.86,-419.395 3727.44,-406.353 3767.72,-396.245"/>
<polygon fill="black" stroke="black" points="3768.61,-399.63 3777.47,-393.806 3766.91,-392.839 3768.61,-399.63"/>
</g>
<!-- node159&#45;&gt;node191 -->
<g id="edge316" class="edge"><title>node159&#45;&gt;node191</title>
<path fill="none" stroke="black" d="M3568.71,-431.831C3566.89,-424.131 3564.73,-414.974 3562.71,-406.417"/>
<polygon fill="black" stroke="black" points="3566.05,-405.341 3560.35,-396.413 3559.24,-406.95 3566.05,-405.341"/>
</g>
<!-- node159&#45;&gt;node192 -->
<g id="edge318" class="edge"><title>node159&#45;&gt;node192</title>
<path fill="none" stroke="black" d="M3545.74,-443.923C3498.99,-433.502 3401.78,-411.833 3331.55,-396.178"/>
<polygon fill="black" stroke="black" points="3331.91,-392.673 3321.39,-393.914 3330.39,-399.506 3331.91,-392.673"/>
</g>
</g>
</svg>
