<?xml version="1.0" encoding="UTF-8" standalone="no"?>
<!DOCTYPE svg PUBLIC "-//W3C//DTD SVG 1.1//EN"
 "http://www.w3.org/Graphics/SVG/1.1/DTD/svg11.dtd">
<!-- Generated by graphviz version 2.26.3 (20100126.1600)
 -->
<!-- Title: GG Pages: 1 -->
<svg width="3032pt" height="836pt"
 viewBox="0.00 0.00 3032.00 836.00" xmlns="http://www.w3.org/2000/svg" xmlns:xlink="http://www.w3.org/1999/xlink">
<g id="graph1" class="graph" transform="scale(1 1) rotate(0) translate(4 832)">
<title>GG</title>
<polygon fill="white" stroke="white" points="-4,5 -4,-832 3029,-832 3029,5 -4,5"/>
<!-- node162 -->
<g id="node1" class="node"><title>node162</title>
<polygon fill="none" stroke="black" points="1722,-828 1598,-828 1598,-792 1722,-792 1722,-828"/>
<text text-anchor="middle" x="1660" y="-806.7" font-family="Times Roman,serif" font-size="12.00">activitymasters_lcr</text>
</g>
<!-- node151 -->
<g id="node2" class="node"><title>node151</title>
<polygon fill="none" stroke="black" points="1167,-108 1113,-108 1113,-72 1167,-72 1167,-108"/>
<text text-anchor="middle" x="1140" y="-86.7" font-family="Times Roman,serif" font-size="12.00">jlib</text>
</g>
<!-- node162&#45;&gt;node151 -->
<g id="edge2" class="edge"><title>node162&#45;&gt;node151</title>
<path fill="none" stroke="black" d="M1597.87,-809.294C1370.38,-806.424 583.21,-793.919 335,-756 182.6,-732.718 0,-820.168 0,-666 0,-666 0,-666 0,-234 0,-189.078 8.27285,-168.385 46,-144 91.3102,-114.713 916.221,-94.9107 1102.73,-90.796"/>
<polygon fill="black" stroke="black" points="1102.94,-94.2923 1112.86,-90.5741 1102.79,-87.294 1102.94,-94.2923"/>
</g>
<!-- node59 -->
<g id="node12" class="node"><title>node59</title>
<polygon fill="none" stroke="black" points="2627,-252 2569,-252 2569,-216 2627,-216 2627,-252"/>
<text text-anchor="middle" x="2598" y="-230.7" font-family="Times Roman,serif" font-size="12.00">remote</text>
</g>
<!-- node162&#45;&gt;node59 -->
<g id="edge12" class="edge"><title>node162&#45;&gt;node59</title>
<path fill="none" stroke="black" d="M1722.3,-808.862C1953.02,-804.419 2751.2,-786.946 2861,-756 2940.65,-733.551 3024,-748.754 3024,-666 3024,-666 3024,-666 3024,-378 3024,-296.78 2742.58,-252.46 2637.21,-238.712"/>
<polygon fill="black" stroke="black" points="2637.64,-235.239 2627.28,-237.44 2636.75,-242.183 2637.64,-235.239"/>
</g>
<!-- node169 -->
<g id="node18" class="node"><title>node169</title>
<polygon fill="none" stroke="black" points="1379,-684 1293,-684 1293,-648 1379,-648 1379,-684"/>
<text text-anchor="middle" x="1336" y="-662.7" font-family="Times Roman,serif" font-size="12.00">thorsort_lcr</text>
</g>
<!-- node162&#45;&gt;node169 -->
<g id="edge20" class="edge"><title>node162&#45;&gt;node169</title>
<path fill="none" stroke="black" d="M1619.29,-791.908C1560.04,-765.575 1450.15,-716.732 1386.04,-688.239"/>
<polygon fill="black" stroke="black" points="1387.1,-684.881 1376.54,-684.018 1384.26,-691.278 1387.1,-684.881"/>
</g>
<!-- node146 -->
<g id="node21" class="node"><title>node146</title>
<polygon fill="none" stroke="black" points="1302,-396 1248,-396 1248,-360 1302,-360 1302,-396"/>
<text text-anchor="middle" x="1275" y="-374.7" font-family="Times Roman,serif" font-size="12.00">eclrtl</text>
</g>
<!-- node162&#45;&gt;node146 -->
<g id="edge158" class="edge"><title>node162&#45;&gt;node146</title>
<path fill="none" stroke="black" d="M1597.68,-800.707C1491.11,-783.385 1281.25,-742.537 1239,-684 1177.29,-598.513 1231.94,-463.275 1260.36,-405.567"/>
<polygon fill="black" stroke="black" points="1263.63,-406.861 1265,-396.355 1257.38,-403.711 1263.63,-406.861"/>
</g>
<!-- node147 -->
<g id="node32" class="node"><title>node147</title>
<polygon fill="none" stroke="black" points="1036,-324 982,-324 982,-288 1036,-288 1036,-324"/>
<text text-anchor="middle" x="1009" y="-302.7" font-family="Times Roman,serif" font-size="12.00">nbcd</text>
</g>
<!-- node162&#45;&gt;node147 -->
<g id="edge156" class="edge"><title>node162&#45;&gt;node147</title>
<path fill="none" stroke="black" d="M1597.96,-807.532C1309.58,-795.658 114,-741.857 114,-666 114,-666 114,-666 114,-450 114,-368.411 195.885,-383.554 274,-360 406.704,-319.985 841.242,-309.023 971.663,-306.599"/>
<polygon fill="black" stroke="black" points="971.993,-310.094 981.928,-306.414 971.867,-303.095 971.993,-310.094"/>
</g>
<!-- node52 -->
<g id="node35" class="node"><title>node52</title>
<polygon fill="none" stroke="black" points="980,-540 894,-540 894,-504 980,-504 980,-540"/>
<text text-anchor="middle" x="937" y="-518.7" font-family="Times Roman,serif" font-size="12.00">commonext</text>
</g>
<!-- node162&#45;&gt;node52 -->
<g id="edge152" class="edge"><title>node162&#45;&gt;node52</title>
<path fill="none" stroke="black" d="M1597.77,-807.907C1451.8,-802.513 1096.29,-786.387 1052,-756 980.736,-707.11 951.805,-600.994 941.701,-550.201"/>
<polygon fill="black" stroke="black" points="945.115,-549.42 939.822,-540.242 938.237,-550.717 945.115,-549.42"/>
</g>
<!-- node63 -->
<g id="node38" class="node"><title>node63</title>
<polygon fill="none" stroke="black" points="1150,-540 1074,-540 1074,-504 1150,-504 1150,-540"/>
<text text-anchor="middle" x="1112" y="-518.7" font-family="Times Roman,serif" font-size="12.00">thorhelper</text>
</g>
<!-- node162&#45;&gt;node63 -->
<g id="edge162" class="edge"><title>node162&#45;&gt;node63</title>
<path fill="none" stroke="black" d="M1597.79,-808.892C1454.3,-805.692 1109.73,-794.082 1075,-756 1022.26,-698.163 1068.38,-596.998 1095.52,-548.889"/>
<polygon fill="black" stroke="black" points="1098.69,-550.412 1100.66,-540.003 1092.63,-546.907 1098.69,-550.412"/>
</g>
<!-- node53 -->
<g id="node43" class="node"><title>node53</title>
<polygon fill="none" stroke="black" points="1112,-468 1052,-468 1052,-432 1112,-432 1112,-468"/>
<text text-anchor="middle" x="1082" y="-446.7" font-family="Times Roman,serif" font-size="12.00">deftype</text>
</g>
<!-- node162&#45;&gt;node53 -->
<g id="edge160" class="edge"><title>node162&#45;&gt;node53</title>
<path fill="none" stroke="black" d="M1597.84,-808.002C1445.27,-802.65 1061.12,-786.299 1012,-756 905.254,-690.157 808.936,-603.72 885,-504 903.914,-479.204 989.828,-462.99 1041.75,-455.27"/>
<polygon fill="black" stroke="black" points="1042.57,-458.689 1051.96,-453.796 1041.57,-451.761 1042.57,-458.689"/>
</g>
<!-- node66 -->
<g id="node56" class="node"><title>node66</title>
<polygon fill="none" stroke="black" points="2356,-324 2294,-324 2294,-288 2356,-288 2356,-324"/>
<text text-anchor="middle" x="2325" y="-302.7" font-family="Times Roman,serif" font-size="12.00">dalibase</text>
</g>
<!-- node162&#45;&gt;node66 -->
<g id="edge164" class="edge"><title>node162&#45;&gt;node66</title>
<path fill="none" stroke="black" d="M1722.26,-808.523C1956.19,-802.793 2771.76,-781.093 2821,-756 2866.64,-732.743 2893,-717.225 2893,-666 2893,-666 2893,-666 2893,-594 2893,-357.713 2497.15,-315.226 2366.38,-307.637"/>
<polygon fill="black" stroke="black" points="2366.52,-304.14 2356.35,-307.094 2366.14,-311.13 2366.52,-304.14"/>
</g>
<!-- node164 -->
<g id="node65" class="node"><title>node164</title>
<polygon fill="none" stroke="black" points="1767,-612 1697,-612 1697,-576 1767,-576 1767,-612"/>
<text text-anchor="middle" x="1732" y="-590.7" font-family="Times Roman,serif" font-size="12.00">graph_lcr</text>
</g>
<!-- node162&#45;&gt;node164 -->
<g id="edge196" class="edge"><title>node162&#45;&gt;node164</title>
<path fill="none" stroke="black" d="M1658.26,-791.931C1656.05,-760.841 1654.95,-695.95 1678,-648 1683.2,-637.186 1691.47,-627.27 1699.99,-618.968"/>
<polygon fill="black" stroke="black" points="1702.47,-621.445 1707.47,-612.106 1697.74,-616.286 1702.47,-621.445"/>
</g>
<!-- node150 -->
<g id="node68" class="node"><title>node150</title>
<polygon fill="none" stroke="black" points="2751,-540 2697,-540 2697,-504 2751,-504 2751,-540"/>
<text text-anchor="middle" x="2724" y="-518.7" font-family="Times Roman,serif" font-size="12.00">jhtree</text>
</g>
<!-- node162&#45;&gt;node150 -->
<g id="edge154" class="edge"><title>node162&#45;&gt;node150</title>
<path fill="none" stroke="black" d="M1722.34,-808.797C1938.23,-804.362 2642.84,-787.519 2679,-756 2738.27,-704.341 2734.34,-600.414 2728.38,-550.299"/>
<polygon fill="black" stroke="black" points="2731.82,-549.642 2727.06,-540.179 2724.88,-550.547 2731.82,-549.642"/>
</g>
<!-- node55 -->
<g id="node73" class="node"><title>node55</title>
<polygon fill="none" stroke="black" points="2540,-396 2450,-396 2450,-360 2540,-360 2540,-396"/>
<text text-anchor="middle" x="2495" y="-374.7" font-family="Times Roman,serif" font-size="12.00">environment</text>
</g>
<!-- node162&#45;&gt;node55 -->
<g id="edge166" class="edge"><title>node162&#45;&gt;node55</title>
<path fill="none" stroke="black" d="M1722.22,-809.717C1933.99,-808.353 2618.47,-800.51 2706,-756 2751.91,-732.654 2779,-717.504 2779,-666 2779,-666 2779,-666 2779,-594 2779,-553.118 2788.46,-533.346 2760,-504 2712.87,-455.406 2673.04,-497.272 2612,-468 2577.48,-451.446 2543.41,-423.565 2521.01,-403.214"/>
<polygon fill="black" stroke="black" points="2523.32,-400.577 2513.6,-396.36 2518.57,-405.718 2523.32,-400.577"/>
</g>
<!-- node54 -->
<g id="node79" class="node"><title>node54</title>
<polygon fill="none" stroke="black" points="2066,-468 2000,-468 2000,-432 2066,-432 2066,-468"/>
<text text-anchor="middle" x="2033" y="-446.7" font-family="Times Roman,serif" font-size="12.00">dllserver</text>
</g>
<!-- node162&#45;&gt;node54 -->
<g id="edge168" class="edge"><title>node162&#45;&gt;node54</title>
<path fill="none" stroke="black" d="M1722.25,-805.196C1906.48,-790.352 2439.23,-742.661 2489,-684 2612.01,-539.012 2211.96,-473.033 2076.34,-455.183"/>
<polygon fill="black" stroke="black" points="2076.66,-451.695 2066.3,-453.885 2075.77,-458.637 2076.66,-451.695"/>
</g>
<!-- node64 -->
<g id="node97" class="node"><title>node64</title>
<polygon fill="none" stroke="black" points="1641,-540 1573,-540 1573,-504 1641,-504 1641,-540"/>
<text text-anchor="middle" x="1607" y="-518.7" font-family="Times Roman,serif" font-size="12.00">workunit</text>
</g>
<!-- node162&#45;&gt;node64 -->
<g id="edge170" class="edge"><title>node162&#45;&gt;node64</title>
<path fill="none" stroke="black" d="M1654.82,-791.889C1645.14,-757.264 1624.35,-679.141 1614,-612 1610.82,-591.38 1609.06,-567.868 1608.09,-550.047"/>
<polygon fill="black" stroke="black" points="1611.59,-549.839 1607.6,-540.021 1604.6,-550.18 1611.59,-549.839"/>
</g>
<!-- node171 -->
<g id="node117" class="node"><title>node171</title>
<polygon fill="none" stroke="black" points="1795,-684 1687,-684 1687,-648 1795,-648 1795,-684"/>
<text text-anchor="middle" x="1741" y="-662.7" font-family="Times Roman,serif" font-size="12.00">thorcodectx_lcr</text>
</g>
<!-- node162&#45;&gt;node171 -->
<g id="edge172" class="edge"><title>node162&#45;&gt;node171</title>
<path fill="none" stroke="black" d="M1670.26,-791.762C1684.32,-766.768 1709.67,-721.692 1725.9,-692.841"/>
<polygon fill="black" stroke="black" points="1728.97,-694.521 1730.82,-684.09 1722.87,-691.089 1728.97,-694.521"/>
</g>
<!-- node78 -->
<g id="node131" class="node"><title>node78</title>
<polygon fill="none" stroke="black" points="2675,-468 2621,-468 2621,-432 2675,-432 2675,-468"/>
<text text-anchor="middle" x="2648" y="-446.7" font-family="Times Roman,serif" font-size="12.00">dalift</text>
</g>
<!-- node162&#45;&gt;node78 -->
<g id="edge198" class="edge"><title>node162&#45;&gt;node78</title>
<path fill="none" stroke="black" d="M1722.23,-809.383C1954,-806.783 2755.82,-794.993 2793,-756 2870.29,-674.941 2856.9,-595.983 2793,-504 2780.34,-485.773 2723.61,-468.579 2684.98,-458.677"/>
<polygon fill="black" stroke="black" points="2685.65,-455.238 2675.1,-456.202 2683.95,-462.028 2685.65,-455.238"/>
</g>
<!-- node168 -->
<g id="node139" class="node"><title>node168</title>
<polygon fill="none" stroke="black" points="2232,-684 2116,-684 2116,-648 2232,-648 2232,-684"/>
<text text-anchor="middle" x="2174" y="-662.7" font-family="Times Roman,serif" font-size="12.00">mfilemanager_lcr</text>
</g>
<!-- node162&#45;&gt;node168 -->
<g id="edge212" class="edge"><title>node162&#45;&gt;node168</title>
<path fill="none" stroke="black" d="M1722,-806.035C1791.05,-800.273 1905.27,-786.697 1999,-756 2049.22,-739.553 2102.64,-710.125 2137.06,-689.406"/>
<polygon fill="black" stroke="black" points="2139.09,-692.265 2145.82,-684.076 2135.45,-686.286 2139.09,-692.265"/>
</g>
<!-- node165 -->
<g id="node154" class="node"><title>node165</title>
<polygon fill="none" stroke="black" points="1990,-756 1878,-756 1878,-720 1990,-720 1990,-756"/>
<text text-anchor="middle" x="1934" y="-734.7" font-family="Times Roman,serif" font-size="12.00">graphmaster_lcr</text>
</g>
<!-- node162&#45;&gt;node165 -->
<g id="edge240" class="edge"><title>node162&#45;&gt;node165</title>
<path fill="none" stroke="black" d="M1722.17,-793.662C1765.63,-782.244 1823.56,-767.021 1867.86,-755.38"/>
<polygon fill="black" stroke="black" points="1868.88,-758.731 1877.66,-752.804 1867.1,-751.96 1868.88,-758.731"/>
</g>
<!-- node152 -->
<g id="node4" class="node"><title>node152</title>
<polygon fill="none" stroke="black" points="1018,-36 978.056,-18 1018,-3.55271e-15 1057.94,-18 1018,-36"/>
<text text-anchor="middle" x="1018" y="-14.7" font-family="Times Roman,serif" font-size="12.00">lzma</text>
</g>
<!-- node151&#45;&gt;node152 -->
<g id="edge4" class="edge"><title>node151&#45;&gt;node152</title>
<path fill="none" stroke="black" d="M1112.92,-74.0209C1092.47,-61.9494 1064.55,-45.4743 1044.29,-33.5172"/>
<polygon fill="black" stroke="black" points="1045.97,-30.4417 1035.58,-28.3733 1042.41,-36.4701 1045.97,-30.4417"/>
</g>
<!-- node187 -->
<g id="node6" class="node"><title>node187</title>
<ellipse fill="none" stroke="black" cx="1103" cy="-18" rx="27" ry="18"/>
<text text-anchor="middle" x="1103" y="-14.7" font-family="Times Roman,serif" font-size="12.00">dl</text>
</g>
<!-- node151&#45;&gt;node187 -->
<g id="edge6" class="edge"><title>node151&#45;&gt;node187</title>
<path fill="none" stroke="black" d="M1130.66,-71.8314C1126.41,-63.5451 1121.28,-53.5727 1116.61,-44.4748"/>
<polygon fill="black" stroke="black" points="1119.63,-42.7123 1111.95,-35.4177 1113.41,-45.9118 1119.63,-42.7123"/>
</g>
<!-- node179 -->
<g id="node8" class="node"><title>node179</title>
<ellipse fill="none" stroke="black" cx="1178" cy="-18" rx="30.0465" ry="18"/>
<text text-anchor="middle" x="1178" y="-14.7" font-family="Times Roman,serif" font-size="12.00">crypt</text>
</g>
<!-- node151&#45;&gt;node179 -->
<g id="edge8" class="edge"><title>node151&#45;&gt;node179</title>
<path fill="none" stroke="black" d="M1149.59,-71.8314C1153.96,-63.5451 1159.23,-53.5727 1164.03,-44.4748"/>
<polygon fill="black" stroke="black" points="1167.24,-45.8952 1168.81,-35.4177 1161.04,-42.6279 1167.24,-45.8952"/>
</g>
<!-- node188 -->
<g id="node10" class="node"><title>node188</title>
<ellipse fill="none" stroke="black" cx="1253" cy="-18" rx="27" ry="18"/>
<text text-anchor="middle" x="1253" y="-14.7" font-family="Times Roman,serif" font-size="12.00">rt</text>
</g>
<!-- node151&#45;&gt;node188 -->
<g id="edge10" class="edge"><title>node151&#45;&gt;node188</title>
<path fill="none" stroke="black" d="M1167.07,-72.7542C1184.41,-61.7009 1206.9,-47.375 1224.52,-36.1494"/>
<polygon fill="black" stroke="black" points="1226.68,-38.9209 1233.23,-30.5955 1222.92,-33.0174 1226.68,-38.9209"/>
</g>
<!-- node59&#45;&gt;node151 -->
<g id="edge14" class="edge"><title>node59&#45;&gt;node151</title>
<path fill="none" stroke="black" d="M2595.03,-215.829C2590.49,-194.554 2579.6,-160.173 2555,-144 2495.82,-105.089 1396.22,-92.4715 1177.61,-90.3428"/>
<polygon fill="black" stroke="black" points="1177.33,-86.8401 1167.3,-90.2439 1177.26,-93.8397 1177.33,-86.8401"/>
</g>
<!-- node153 -->
<g id="node15" class="node"><title>node153</title>
<polygon fill="none" stroke="black" points="2352,-180 2298,-180 2298,-144 2352,-144 2352,-180"/>
<text text-anchor="middle" x="2325" y="-158.7" font-family="Times Roman,serif" font-size="12.00">mp</text>
</g>
<!-- node59&#45;&gt;node153 -->
<g id="edge16" class="edge"><title>node59&#45;&gt;node153</title>
<path fill="none" stroke="black" d="M2568.78,-226.295C2518.8,-213.112 2416.97,-186.255 2362.06,-171.775"/>
<polygon fill="black" stroke="black" points="2362.94,-168.387 2352.38,-169.221 2361.16,-175.155 2362.94,-168.387"/>
</g>
<!-- node153&#45;&gt;node151 -->
<g id="edge18" class="edge"><title>node153&#45;&gt;node151</title>
<path fill="none" stroke="black" d="M2297.88,-158.074C2268.61,-153.973 2220.6,-147.641 2179,-144 1788.32,-109.808 1312.96,-94.771 1177.58,-90.9923"/>
<polygon fill="black" stroke="black" points="1177.43,-87.4869 1167.34,-90.7099 1177.24,-94.4843 1177.43,-87.4869"/>
</g>
<!-- node169&#45;&gt;node151 -->
<g id="edge22" class="edge"><title>node169&#45;&gt;node151</title>
<path fill="none" stroke="black" d="M1292.81,-663.528C1067.59,-650.358 38,-586.618 38,-522 38,-522 38,-522 38,-234 38,-188.242 49.1702,-168.209 88,-144 131.912,-116.623 920.707,-95.44 1102.74,-90.9027"/>
<polygon fill="black" stroke="black" points="1102.97,-94.3981 1112.88,-90.6515 1102.8,-87.4002 1102.97,-94.3981"/>
</g>
<!-- node169&#45;&gt;node153 -->
<g id="edge68" class="edge"><title>node169&#45;&gt;node153</title>
<path fill="none" stroke="black" d="M1338.1,-647.67C1345.82,-590.372 1378.41,-415.175 1493,-360 1682.56,-268.728 1766.01,-392.303 1965,-324 2047.2,-295.787 2048.88,-251.939 2128,-216 2181.17,-191.85 2247.44,-176.426 2287.97,-168.494"/>
<polygon fill="black" stroke="black" points="2288.77,-171.904 2297.94,-166.592 2287.46,-165.028 2288.77,-171.904"/>
</g>
<!-- node169&#45;&gt;node146 -->
<g id="edge24" class="edge"><title>node169&#45;&gt;node146</title>
<path fill="none" stroke="black" d="M1332.18,-647.984C1321.87,-599.294 1293.38,-464.796 1280.94,-406.057"/>
<polygon fill="black" stroke="black" points="1284.31,-405.067 1278.81,-396.009 1277.46,-406.517 1284.31,-405.067"/>
</g>
<!-- node169&#45;&gt;node52 -->
<g id="edge40" class="edge"><title>node169&#45;&gt;node52</title>
<path fill="none" stroke="black" d="M1292.77,-661.145C1221.16,-652.616 1081.41,-633.766 1037,-612 1005.57,-596.595 976.671,-568.385 958.109,-547.641"/>
<polygon fill="black" stroke="black" points="960.733,-545.325 951.517,-540.099 955.462,-549.932 960.733,-545.325"/>
</g>
<!-- node169&#45;&gt;node63 -->
<g id="edge44" class="edge"><title>node169&#45;&gt;node63</title>
<path fill="none" stroke="black" d="M1292.71,-656.348C1261.87,-648.043 1220.47,-633.885 1189,-612 1164.59,-595.025 1143.19,-568.512 1129.18,-548.652"/>
<polygon fill="black" stroke="black" points="1132.01,-546.588 1123.47,-540.324 1126.24,-550.55 1132.01,-546.588"/>
</g>
<!-- node169&#45;&gt;node66 -->
<g id="edge70" class="edge"><title>node169&#45;&gt;node66</title>
<path fill="none" stroke="black" d="M1347.32,-647.514C1353.69,-637.089 1361.8,-623.823 1369,-612 1437.16,-500.099 1410.03,-428.055 1522,-360 1538.45,-350.003 2121.83,-317.191 2283.71,-308.261"/>
<polygon fill="black" stroke="black" points="2283.96,-311.753 2293.75,-307.708 2283.58,-304.763 2283.96,-311.753"/>
</g>
<!-- node169&#45;&gt;node164 -->
<g id="edge84" class="edge"><title>node169&#45;&gt;node164</title>
<path fill="none" stroke="black" d="M1379.13,-658.158C1454.72,-644.415 1610.36,-616.116 1687.15,-602.155"/>
<polygon fill="black" stroke="black" points="1687.78,-605.597 1697,-600.364 1686.53,-598.71 1687.78,-605.597"/>
</g>
<!-- node146&#45;&gt;node151 -->
<g id="edge34" class="edge"><title>node146&#45;&gt;node151</title>
<path fill="none" stroke="black" d="M1247.93,-365.802C1214.09,-350.496 1160.39,-325.994 1159,-324 1115.47,-261.464 1125.38,-165.482 1133.9,-118.247"/>
<polygon fill="black" stroke="black" points="1137.39,-118.616 1135.84,-108.136 1130.52,-117.298 1137.39,-118.616"/>
</g>
<!-- node186 -->
<g id="node23" class="node"><title>node186</title>
<ellipse fill="none" stroke="black" cx="1663" cy="-306" rx="118.939" ry="18"/>
<text text-anchor="middle" x="1663" y="-302.7" font-family="Times Roman,serif" font-size="12.00">/usr/lib/libboost_regex&#45;mt.so</text>
</g>
<!-- node146&#45;&gt;node186 -->
<g id="edge26" class="edge"><title>node146&#45;&gt;node186</title>
<path fill="none" stroke="black" d="M1302.43,-364.801C1306.89,-362.99 1311.52,-361.307 1316,-360 1339.65,-353.097 1471.73,-333.389 1565.91,-319.794"/>
<polygon fill="black" stroke="black" points="1566.65,-323.224 1576.05,-318.334 1565.65,-316.296 1566.65,-323.224"/>
</g>
<!-- node183 -->
<g id="node25" class="node"><title>node183</title>
<ellipse fill="none" stroke="black" cx="1878" cy="-306" rx="77.9931" ry="18"/>
<text text-anchor="middle" x="1878" y="-302.7" font-family="Times Roman,serif" font-size="12.00">/usr/lib/libicuuc.so</text>
</g>
<!-- node146&#45;&gt;node183 -->
<g id="edge28" class="edge"><title>node146&#45;&gt;node183</title>
<path fill="none" stroke="black" d="M1302.34,-364.49C1306.82,-362.719 1311.47,-361.13 1316,-360 1521.41,-308.715 1581.35,-353.508 1791,-324 1797.77,-323.047 1804.81,-321.884 1811.82,-320.612"/>
<polygon fill="black" stroke="black" points="1812.85,-323.979 1822.02,-318.683 1811.55,-317.101 1812.85,-323.979"/>
</g>
<!-- node184 -->
<g id="node27" class="node"><title>node184</title>
<ellipse fill="none" stroke="black" cx="1253" cy="-306" rx="85.1424" ry="18"/>
<text text-anchor="middle" x="1253" y="-302.7" font-family="Times Roman,serif" font-size="12.00">/usr/lib/libicui18n.so</text>
</g>
<!-- node146&#45;&gt;node184 -->
<g id="edge30" class="edge"><title>node146&#45;&gt;node184</title>
<path fill="none" stroke="black" d="M1269.45,-359.831C1267.07,-352.046 1264.24,-342.773 1261.6,-334.135"/>
<polygon fill="black" stroke="black" points="1264.9,-332.954 1258.63,-324.413 1258.2,-335 1264.9,-332.954"/>
</g>
<!-- node185 -->
<g id="node29" class="node"><title>node185</title>
<ellipse fill="none" stroke="black" cx="1441" cy="-306" rx="85.1424" ry="18"/>
<text text-anchor="middle" x="1441" y="-302.7" font-family="Times Roman,serif" font-size="12.00">/usr/lib/libicudata.so</text>
</g>
<!-- node146&#45;&gt;node185 -->
<g id="edge32" class="edge"><title>node146&#45;&gt;node185</title>
<path fill="none" stroke="black" d="M1302.34,-365.972C1306.9,-363.973 1311.58,-361.924 1316,-360 1341.72,-348.8 1370.45,-336.382 1393.87,-326.281"/>
<polygon fill="black" stroke="black" points="1395.43,-329.42 1403.23,-322.247 1392.66,-322.991 1395.43,-329.42"/>
</g>
<!-- node146&#45;&gt;node147 -->
<g id="edge36" class="edge"><title>node146&#45;&gt;node147</title>
<path fill="none" stroke="black" d="M1247.54,-370.566C1199.52,-357.571 1100.31,-330.715 1046.19,-316.067"/>
<polygon fill="black" stroke="black" points="1046.88,-312.628 1036.32,-313.394 1045.05,-319.385 1046.88,-312.628"/>
</g>
<!-- node147&#45;&gt;node151 -->
<g id="edge38" class="edge"><title>node147&#45;&gt;node151</title>
<path fill="none" stroke="black" d="M1009.22,-287.817C1010.5,-255.692 1017.21,-188.126 1050,-144 1063.48,-125.859 1085.03,-112.62 1103.66,-103.791"/>
<polygon fill="black" stroke="black" points="1105.11,-106.978 1112.8,-99.6921 1102.24,-100.591 1105.11,-106.978"/>
</g>
<!-- node52&#45;&gt;node151 -->
<g id="edge42" class="edge"><title>node52&#45;&gt;node151</title>
<path fill="none" stroke="black" d="M893.764,-521.262C736.951,-518.287 203.85,-505.487 138,-468 95.788,-443.97 76,-426.573 76,-378 76,-378 76,-378 76,-234 76,-185.427 95.6251,-167.742 138,-144 180.867,-119.983 926.601,-96.3519 1102.87,-91.0849"/>
<polygon fill="black" stroke="black" points="1103.06,-94.581 1112.95,-90.7852 1102.85,-87.5841 1103.06,-94.581"/>
</g>
<!-- node63&#45;&gt;node151 -->
<g id="edge46" class="edge"><title>node63&#45;&gt;node151</title>
<path fill="none" stroke="black" d="M1073.64,-513.231C1057.73,-509.883 1039.05,-506.317 1022,-504 836.706,-478.819 190,-564.997 190,-378 190,-378 190,-378 190,-234 190,-214.884 142.088,-205.265 319,-144 393.64,-118.152 952.212,-96.6574 1102.73,-91.2899"/>
<polygon fill="black" stroke="black" points="1102.98,-94.7834 1112.85,-90.9315 1102.73,-87.7878 1102.98,-94.7834"/>
</g>
<!-- node63&#45;&gt;node146 -->
<g id="edge50" class="edge"><title>node63&#45;&gt;node146</title>
<path fill="none" stroke="black" d="M1077.06,-503.777C1063.85,-494.908 1050.26,-482.906 1043,-468 1035.99,-453.616 1033.05,-444.531 1043,-432 1066.89,-401.905 1178.36,-387.047 1237.66,-381.163"/>
<polygon fill="black" stroke="black" points="1238.13,-384.635 1247.75,-380.199 1237.46,-377.667 1238.13,-384.635"/>
</g>
<!-- node63&#45;&gt;node147 -->
<g id="edge48" class="edge"><title>node63&#45;&gt;node147</title>
<path fill="none" stroke="black" d="M1073.68,-504.458C1058.64,-495.64 1042.69,-483.492 1033,-468 1007.28,-426.896 1005.18,-368.662 1006.64,-334.363"/>
<polygon fill="black" stroke="black" points="1010.15,-334.301 1007.21,-324.12 1003.16,-333.909 1010.15,-334.301"/>
</g>
<!-- node63&#45;&gt;node53 -->
<g id="edge52" class="edge"><title>node63&#45;&gt;node53</title>
<path fill="none" stroke="black" d="M1104.43,-503.831C1101.15,-495.962 1097.24,-486.571 1093.61,-477.853"/>
<polygon fill="black" stroke="black" points="1096.75,-476.298 1089.67,-468.413 1090.29,-478.99 1096.75,-476.298"/>
</g>
<!-- node156 -->
<g id="node48" class="node"><title>node156</title>
<polygon fill="none" stroke="black" points="631,-468 537,-468 537,-432 631,-432 631,-468"/>
<text text-anchor="middle" x="584" y="-446.7" font-family="Times Roman,serif" font-size="12.00">securesocket</text>
</g>
<!-- node63&#45;&gt;node156 -->
<g id="edge60" class="edge"><title>node63&#45;&gt;node156</title>
<path fill="none" stroke="black" d="M1073.94,-507.757C1069.29,-506.334 1064.57,-505.036 1060,-504 911.224,-470.246 731.269,-457.139 641.199,-452.42"/>
<polygon fill="black" stroke="black" points="641.357,-448.924 631.192,-451.912 641.002,-455.915 641.357,-448.924"/>
</g>
<!-- node53&#45;&gt;node151 -->
<g id="edge54" class="edge"><title>node53&#45;&gt;node151</title>
<path fill="none" stroke="black" d="M1051.99,-433.652C1014.16,-410.595 954,-364.703 954,-306 954,-306 954,-306 954,-234 954,-159.224 1049.15,-117.747 1103.34,-100.189"/>
<polygon fill="black" stroke="black" points="1104.45,-103.51 1112.95,-97.1865 1102.37,-96.8284 1104.45,-103.51"/>
</g>
<!-- node53&#45;&gt;node146 -->
<g id="edge58" class="edge"><title>node53&#45;&gt;node146</title>
<path fill="none" stroke="black" d="M1112.16,-438.75C1146.17,-426.061 1201.5,-405.42 1238.07,-391.776"/>
<polygon fill="black" stroke="black" points="1239.71,-394.9 1247.86,-388.125 1237.27,-388.341 1239.71,-394.9"/>
</g>
<!-- node53&#45;&gt;node147 -->
<g id="edge56" class="edge"><title>node53&#45;&gt;node147</title>
<path fill="none" stroke="black" d="M1072.34,-431.54C1066.92,-421.124 1060.04,-407.857 1054,-396 1043.37,-375.116 1031.52,-351.404 1022.65,-333.563"/>
<polygon fill="black" stroke="black" points="1025.64,-331.712 1018.06,-324.311 1019.37,-334.824 1025.64,-331.712"/>
</g>
<!-- node156&#45;&gt;node151 -->
<g id="edge62" class="edge"><title>node156&#45;&gt;node151</title>
<path fill="none" stroke="black" d="M536.803,-446.103C463.227,-439.27 325.423,-423.209 285,-396 245.722,-369.561 228,-353.347 228,-306 228,-306 228,-306 228,-234 228,-143.917 931.205,-101.005 1102.65,-91.8819"/>
<polygon fill="black" stroke="black" points="1102.9,-95.3734 1112.71,-91.3532 1102.54,-88.383 1102.9,-95.3734"/>
</g>
<!-- node191 -->
<g id="node51" class="node"><title>node191</title>
<ellipse fill="none" stroke="black" cx="431" cy="-378" rx="137.138" ry="18"/>
<text text-anchor="middle" x="431" y="-374.7" font-family="Times Roman,serif" font-size="12.00">/usr/lib/x86_64&#45;linux&#45;gnu/libssl.so</text>
</g>
<!-- node156&#45;&gt;node191 -->
<g id="edge64" class="edge"><title>node156&#45;&gt;node191</title>
<path fill="none" stroke="black" d="M545.392,-431.831C524.632,-422.062 498.893,-409.95 477.09,-399.689"/>
<polygon fill="black" stroke="black" points="478.551,-396.509 468.013,-395.418 475.571,-402.843 478.551,-396.509"/>
</g>
<!-- node192 -->
<g id="node53" class="node"><title>node192</title>
<ellipse fill="none" stroke="black" cx="737" cy="-378" rx="150.937" ry="18"/>
<text text-anchor="middle" x="737" y="-374.7" font-family="Times Roman,serif" font-size="12.00">/usr/lib/x86_64&#45;linux&#45;gnu/libcrypto.so</text>
</g>
<!-- node156&#45;&gt;node192 -->
<g id="edge66" class="edge"><title>node156&#45;&gt;node192</title>
<path fill="none" stroke="black" d="M622.608,-431.831C643.29,-422.099 668.915,-410.04 690.666,-399.804"/>
<polygon fill="black" stroke="black" points="692.167,-402.966 699.725,-395.541 689.186,-396.632 692.167,-402.966"/>
</g>
<!-- node66&#45;&gt;node151 -->
<g id="edge72" class="edge"><title>node66&#45;&gt;node151</title>
<path fill="none" stroke="black" d="M2337.97,-287.923C2360.08,-254.74 2399.14,-183.866 2361,-144 2319.05,-100.155 1376.92,-91.5489 1177.05,-90.2146"/>
<polygon fill="black" stroke="black" points="1177.07,-86.7147 1167.04,-90.1498 1177.02,-93.7146 1177.07,-86.7147"/>
</g>
<!-- node66&#45;&gt;node59 -->
<g id="edge82" class="edge"><title>node66&#45;&gt;node59</title>
<path fill="none" stroke="black" d="M2356.06,-299.01C2414.38,-285.839 2536.13,-258.119 2555,-252 2556.4,-251.548 2557.81,-251.069 2559.23,-250.57"/>
<polygon fill="black" stroke="black" points="2560.5,-253.833 2568.63,-247.049 2558.04,-247.278 2560.5,-253.833"/>
</g>
<!-- node66&#45;&gt;node153 -->
<g id="edge74" class="edge"><title>node66&#45;&gt;node153</title>
<path fill="none" stroke="black" d="M2325,-287.762C2325,-263.201 2325,-219.247 2325,-190.354"/>
<polygon fill="black" stroke="black" points="2328.5,-190.09 2325,-180.09 2321.5,-190.09 2328.5,-190.09"/>
</g>
<!-- node149 -->
<g id="node60" class="node"><title>node149</title>
<polygon fill="none" stroke="black" points="2297,-252 2243,-252 2243,-216 2297,-216 2297,-252"/>
<text text-anchor="middle" x="2270" y="-230.7" font-family="Times Roman,serif" font-size="12.00">hrpc</text>
</g>
<!-- node66&#45;&gt;node149 -->
<g id="edge76" class="edge"><title>node66&#45;&gt;node149</title>
<path fill="none" stroke="black" d="M2311.12,-287.831C2304.79,-279.539 2297.16,-269.557 2290.21,-260.453"/>
<polygon fill="black" stroke="black" points="2292.92,-258.235 2284.07,-252.413 2287.35,-262.485 2292.92,-258.235"/>
</g>
<!-- node149&#45;&gt;node151 -->
<g id="edge78" class="edge"><title>node149&#45;&gt;node151</title>
<path fill="none" stroke="black" d="M2242.76,-220.339C2199.97,-199.624 2113.84,-160.891 2036,-144 1868.3,-107.609 1325.99,-93.8658 1177.75,-90.7364"/>
<polygon fill="black" stroke="black" points="1177.45,-87.2294 1167.37,-90.5213 1177.3,-94.2279 1177.45,-87.2294"/>
</g>
<!-- node149&#45;&gt;node153 -->
<g id="edge80" class="edge"><title>node149&#45;&gt;node153</title>
<path fill="none" stroke="black" d="M2283.88,-215.831C2290.21,-207.539 2297.84,-197.557 2304.79,-188.453"/>
<polygon fill="black" stroke="black" points="2307.65,-190.485 2310.93,-180.413 2302.08,-186.235 2307.65,-190.485"/>
</g>
<!-- node164&#45;&gt;node151 -->
<g id="edge86" class="edge"><title>node164&#45;&gt;node151</title>
<path fill="none" stroke="black" d="M1715.54,-575.861C1691.75,-549.66 1650.52,-504.296 1650,-504 1578.98,-463.843 1548.94,-488.619 1470,-468 1419.82,-454.892 1408.51,-447.452 1359,-432 1305.85,-415.41 1288.02,-422.413 1239,-396 1217.06,-384.177 1216.19,-374.609 1196,-360 1171.42,-342.217 1155.22,-348.977 1138,-324 1092.43,-257.911 1110.81,-223.346 1123,-144 1124.34,-135.298 1126.82,-126.074 1129.48,-117.759"/>
<polygon fill="black" stroke="black" points="1132.84,-118.758 1132.76,-108.163 1126.22,-116.498 1132.84,-118.758"/>
</g>
<!-- node164&#45;&gt;node59 -->
<g id="edge92" class="edge"><title>node164&#45;&gt;node59</title>
<path fill="none" stroke="black" d="M1767.23,-589.977C1937.61,-570.444 2668.47,-485.72 2684,-468 2706.32,-442.531 2753.86,-427.079 2676,-288 2667.14,-272.171 2651.46,-259.967 2636.48,-251.199"/>
<polygon fill="black" stroke="black" points="2637.76,-247.909 2627.31,-246.182 2634.4,-254.051 2637.76,-247.909"/>
</g>
<!-- node164&#45;&gt;node146 -->
<g id="edge130" class="edge"><title>node164&#45;&gt;node146</title>
<path fill="none" stroke="black" d="M1726.65,-575.795C1719.77,-555.465 1705.9,-522.934 1683,-504 1653.54,-479.641 1406.76,-412.755 1311.92,-387.672"/>
<polygon fill="black" stroke="black" points="1312.74,-384.268 1302.18,-385.1 1310.95,-391.036 1312.74,-384.268"/>
</g>
<!-- node164&#45;&gt;node147 -->
<g id="edge128" class="edge"><title>node164&#45;&gt;node147</title>
<path fill="none" stroke="black" d="M1696.95,-586.901C1661.82,-578.848 1606.92,-563.673 1564,-540 1542.17,-527.963 1543.87,-513.913 1521,-504 1399.41,-451.293 1348.98,-514.815 1225,-468 1172.06,-448.011 1164.01,-431.568 1120,-396 1101.91,-381.376 1099.83,-374.945 1082,-360 1069.73,-349.715 1055.71,-339.091 1043.25,-330.016"/>
<polygon fill="black" stroke="black" points="1045.08,-327.018 1034.92,-324.005 1040.98,-332.695 1045.08,-327.018"/>
</g>
<!-- node164&#45;&gt;node52 -->
<g id="edge148" class="edge"><title>node164&#45;&gt;node52</title>
<path fill="none" stroke="black" d="M1696.86,-591.887C1597.49,-585.756 1306.05,-566.683 1065,-540 1040.32,-537.269 1013.07,-533.536 990.078,-530.179"/>
<polygon fill="black" stroke="black" points="990.575,-526.714 980.172,-528.717 989.554,-533.639 990.575,-526.714"/>
</g>
<!-- node164&#45;&gt;node63 -->
<g id="edge150" class="edge"><title>node164&#45;&gt;node63</title>
<path fill="none" stroke="black" d="M1696.89,-589.923C1591.97,-577.739 1280.65,-541.585 1160.27,-527.606"/>
<polygon fill="black" stroke="black" points="1160.58,-524.118 1150.24,-526.441 1159.77,-531.071 1160.58,-524.118"/>
</g>
<!-- node164&#45;&gt;node53 -->
<g id="edge132" class="edge"><title>node164&#45;&gt;node53</title>
<path fill="none" stroke="black" d="M1696.59,-586.156C1584.85,-561.402 1240.15,-485.036 1122.12,-458.889"/>
<polygon fill="black" stroke="black" points="1122.59,-455.407 1112.07,-456.662 1121.08,-462.242 1122.59,-455.407"/>
</g>
<!-- node164&#45;&gt;node66 -->
<g id="edge94" class="edge"><title>node164&#45;&gt;node66</title>
<path fill="none" stroke="black" d="M1764.54,-575.848C1801.5,-555.87 1864.06,-523.95 1921,-504 1987.34,-480.756 2012.12,-499.415 2075,-468 2097.3,-456.86 2095.96,-443.633 2118,-432 2170.26,-404.418 2196,-427.505 2246,-396 2271.59,-379.876 2293.61,-353.015 2307.85,-332.826"/>
<polygon fill="black" stroke="black" points="2310.88,-334.587 2313.65,-324.358 2305.11,-330.632 2310.88,-334.587"/>
</g>
<!-- node164&#45;&gt;node150 -->
<g id="edge88" class="edge"><title>node164&#45;&gt;node150</title>
<path fill="none" stroke="black" d="M1767.01,-591.459C1920.03,-580.352 2529.39,-536.125 2686.76,-524.703"/>
<polygon fill="black" stroke="black" points="2687.16,-528.183 2696.88,-523.968 2686.65,-521.202 2687.16,-528.183"/>
</g>
<!-- node164&#45;&gt;node55 -->
<g id="edge96" class="edge"><title>node164&#45;&gt;node55</title>
<path fill="none" stroke="black" d="M1767.02,-584.086C1888.46,-549.707 2292.14,-435.429 2440.06,-393.553"/>
<polygon fill="black" stroke="black" points="2441.18,-396.874 2449.85,-390.783 2439.27,-390.139 2441.18,-396.874"/>
</g>
<!-- node164&#45;&gt;node54 -->
<g id="edge106" class="edge"><title>node164&#45;&gt;node54</title>
<path fill="none" stroke="black" d="M1736.9,-575.749C1743.44,-555.058 1757.06,-521.889 1781,-504 1813.51,-479.71 1926.48,-462.73 1989.56,-454.896"/>
<polygon fill="black" stroke="black" points="1990.1,-458.356 1999.61,-453.673 1989.26,-451.407 1990.1,-458.356"/>
</g>
<!-- node164&#45;&gt;node64 -->
<g id="edge134" class="edge"><title>node164&#45;&gt;node64</title>
<path fill="none" stroke="black" d="M1700.46,-575.831C1684.32,-566.537 1664.5,-555.121 1647.27,-545.197"/>
<polygon fill="black" stroke="black" points="1648.94,-542.121 1638.53,-540.163 1645.45,-548.187 1648.94,-542.121"/>
</g>
<!-- node150&#45;&gt;node151 -->
<g id="edge90" class="edge"><title>node150&#45;&gt;node151</title>
<path fill="none" stroke="black" d="M2751.28,-517.985C2799.91,-510.299 2898.75,-492.102 2923,-468 2952.44,-438.733 2948,-419.515 2948,-378 2948,-378 2948,-378 2948,-234 2948,-192.602 2956.44,-169.715 2924,-144 2888.52,-115.878 1430.25,-94.0876 1177.23,-90.5148"/>
<polygon fill="black" stroke="black" points="1177.13,-87.0131 1167.08,-90.3722 1177.03,-94.0124 1177.13,-87.0131"/>
</g>
<!-- node55&#45;&gt;node151 -->
<g id="edge98" class="edge"><title>node55&#45;&gt;node151</title>
<path fill="none" stroke="black" d="M2528.62,-359.85C2563.16,-339.028 2614.79,-301.308 2636,-252 2657.2,-202.701 2629.54,-168.894 2582,-144 2517.96,-110.467 1396.88,-93.5009 1177.18,-90.4904"/>
<polygon fill="black" stroke="black" points="1177.17,-86.99 1167.12,-90.3537 1177.07,-93.9893 1177.17,-86.99"/>
</g>
<!-- node55&#45;&gt;node59 -->
<g id="edge102" class="edge"><title>node55&#45;&gt;node59</title>
<path fill="none" stroke="black" d="M2508.05,-359.762C2526,-334.66 2558.44,-289.302 2579.07,-260.467"/>
<polygon fill="black" stroke="black" points="2582.09,-262.259 2585.06,-252.09 2576.4,-258.187 2582.09,-262.259"/>
</g>
<!-- node55&#45;&gt;node153 -->
<g id="edge100" class="edge"><title>node55&#45;&gt;node153</title>
<path fill="none" stroke="black" d="M2480.8,-359.955C2450.74,-321.759 2380.57,-232.603 2345.59,-188.156"/>
<polygon fill="black" stroke="black" points="2348.22,-185.839 2339.28,-180.145 2342.72,-190.168 2348.22,-185.839"/>
</g>
<!-- node55&#45;&gt;node66 -->
<g id="edge104" class="edge"><title>node55&#45;&gt;node66</title>
<path fill="none" stroke="black" d="M2452.1,-359.831C2425.47,-348.552 2391.46,-334.149 2365.33,-323.079"/>
<polygon fill="black" stroke="black" points="2366.65,-319.841 2356.08,-319.164 2363.92,-326.287 2366.65,-319.841"/>
</g>
<!-- node54&#45;&gt;node151 -->
<g id="edge110" class="edge"><title>node54&#45;&gt;node151</title>
<path fill="none" stroke="black" d="M1999.74,-436.632C1994.22,-434.819 1988.5,-433.18 1983,-432 1932,-421.069 1550.44,-434.266 1515,-396 1375.25,-245.088 2092.34,-449.519 1965,-288 1864.47,-160.483 1325.15,-105.746 1177.43,-93.0126"/>
<polygon fill="black" stroke="black" points="1177.35,-89.4932 1167.09,-92.135 1176.76,-96.4682 1177.35,-89.4932"/>
</g>
<!-- node54&#45;&gt;node59 -->
<g id="edge118" class="edge"><title>node54&#45;&gt;node59</title>
<path fill="none" stroke="black" d="M2066.12,-437.3C2070.78,-435.517 2075.51,-433.711 2080,-432 2122.19,-415.926 2137.62,-421.328 2175,-396 2192.97,-383.824 2192.73,-375.424 2208,-360 2240.97,-326.707 2243.05,-308.857 2285,-288 2332.53,-264.369 2485.61,-245.739 2558.59,-237.954"/>
<polygon fill="black" stroke="black" points="2559.17,-241.412 2568.75,-236.885 2558.44,-234.451 2559.17,-241.412"/>
</g>
<!-- node54&#45;&gt;node153 -->
<g id="edge112" class="edge"><title>node54&#45;&gt;node153</title>
<path fill="none" stroke="black" d="M1999.99,-436.005C1995.35,-434.44 1990.6,-433.039 1986,-432 1936.1,-420.736 1561.73,-433.561 1527,-396 1516.14,-384.252 1516.09,-371.706 1527,-360 1565.65,-318.519 1984.1,-346.833 2036,-324 2057.29,-314.631 2054.96,-301.362 2074,-288 2144.72,-238.379 2237.79,-197.086 2288.39,-176.364"/>
<polygon fill="black" stroke="black" points="2289.97,-179.499 2297.92,-172.498 2287.34,-173.013 2289.97,-179.499"/>
</g>
<!-- node54&#45;&gt;node146 -->
<g id="edge116" class="edge"><title>node54&#45;&gt;node146</title>
<path fill="none" stroke="black" d="M1999.75,-435.827C1995.2,-434.312 1990.53,-432.971 1986,-432 1710.91,-372.987 1632.57,-435.388 1354,-396 1340.26,-394.058 1325.38,-390.94 1312.28,-387.841"/>
<polygon fill="black" stroke="black" points="1312.76,-384.354 1302.21,-385.383 1311.1,-391.154 1312.76,-384.354"/>
</g>
<!-- node54&#45;&gt;node66 -->
<g id="edge120" class="edge"><title>node54&#45;&gt;node66</title>
<path fill="none" stroke="black" d="M2066.24,-436.837C2070.84,-435.143 2075.52,-433.484 2080,-432 2136.1,-413.413 2155.18,-422.496 2208,-396 2212.76,-393.61 2260.77,-356.303 2293.79,-330.48"/>
<polygon fill="black" stroke="black" points="2296.1,-333.11 2301.82,-324.19 2291.79,-327.597 2296.1,-333.11"/>
</g>
<!-- node54&#45;&gt;node149 -->
<g id="edge114" class="edge"><title>node54&#45;&gt;node149</title>
<path fill="none" stroke="black" d="M1999.99,-436.014C1995.35,-434.448 1990.6,-433.044 1986,-432 1937.41,-420.978 1572.79,-432.62 1539,-396 1528.15,-384.241 1528.07,-371.687 1539,-360 1579.69,-316.48 2016.26,-338.672 2074,-324 2132.96,-309.018 2196.03,-276.801 2234.24,-255.261"/>
<polygon fill="black" stroke="black" points="2235.99,-258.295 2242.94,-250.3 2232.52,-252.215 2235.99,-258.295"/>
</g>
<!-- node54&#45;&gt;node55 -->
<g id="edge122" class="edge"><title>node54&#45;&gt;node55</title>
<path fill="none" stroke="black" d="M2066.23,-444.822C2144.86,-432.568 2343,-401.688 2439.91,-386.585"/>
<polygon fill="black" stroke="black" points="2440.47,-390.041 2449.81,-385.042 2439.39,-383.124 2440.47,-390.041"/>
</g>
<!-- node176 -->
<g id="node81" class="node"><title>node176</title>
<ellipse fill="none" stroke="black" cx="1679" cy="-378" rx="130.789" ry="18"/>
<text text-anchor="middle" x="1679" y="-374.7" font-family="Times Roman,serif" font-size="12.00">/usr/lib/x86_64&#45;linux&#45;gnu/libz.so</text>
</g>
<!-- node54&#45;&gt;node176 -->
<g id="edge108" class="edge"><title>node54&#45;&gt;node176</title>
<path fill="none" stroke="black" d="M1999.89,-436.415C1995.27,-434.787 1990.55,-433.258 1986,-432 1920.55,-413.89 1845.49,-400.56 1785.98,-391.674"/>
<polygon fill="black" stroke="black" points="1786.22,-388.171 1775.81,-390.176 1785.2,-395.096 1786.22,-388.171"/>
</g>
<!-- node177 -->
<g id="node90" class="node"><title>node177</title>
<ellipse fill="none" stroke="black" cx="1899" cy="-378" rx="70.8437" ry="18"/>
<text text-anchor="middle" x="1899" y="-374.7" font-family="Times Roman,serif" font-size="12.00">/usr/lib/libbfd.so</text>
</g>
<!-- node54&#45;&gt;node177 -->
<g id="edge124" class="edge"><title>node54&#45;&gt;node177</title>
<path fill="none" stroke="black" d="M1999.88,-432.202C1981.28,-422.208 1957.95,-409.674 1938.41,-399.178"/>
<polygon fill="black" stroke="black" points="1939.92,-396.012 1929.45,-394.362 1936.6,-402.178 1939.92,-396.012"/>
</g>
<!-- node178 -->
<g id="node92" class="node"><title>node178</title>
<ellipse fill="none" stroke="black" cx="2077" cy="-378" rx="89.0421" ry="18"/>
<text text-anchor="middle" x="2077" y="-374.7" font-family="Times Roman,serif" font-size="12.00">/usr/lib/libiberty_pic.a</text>
</g>
<!-- node54&#45;&gt;node178 -->
<g id="edge126" class="edge"><title>node54&#45;&gt;node178</title>
<path fill="none" stroke="black" d="M2044.1,-431.831C2049.14,-423.583 2055.21,-413.664 2060.74,-404.599"/>
<polygon fill="black" stroke="black" points="2063.82,-406.271 2066.05,-395.913 2057.85,-402.621 2063.82,-406.271"/>
</g>
<!-- node64&#45;&gt;node151 -->
<g id="edge136" class="edge"><title>node64&#45;&gt;node151</title>
<path fill="none" stroke="black" d="M1572.75,-509.045C1567.51,-507.244 1562.14,-505.5 1557,-504 1487.45,-483.691 1467.42,-488.768 1398,-468 1354.34,-454.938 1245.96,-417.892 1206,-396 1182.61,-383.189 1180.6,-374.148 1158,-360 1128.35,-341.439 1106.22,-353.863 1088,-324 1046.33,-255.71 1058.08,-218.196 1088,-144 1092.32,-133.28 1099.9,-123.498 1107.96,-115.295"/>
<polygon fill="black" stroke="black" points="1110.57,-117.644 1115.42,-108.223 1105.76,-112.565 1110.57,-117.644"/>
</g>
<!-- node64&#45;&gt;node146 -->
<g id="edge144" class="edge"><title>node64&#45;&gt;node146</title>
<path fill="none" stroke="black" d="M1572.72,-507.132C1509.84,-479.86 1376.6,-422.068 1311.86,-393.985"/>
<polygon fill="black" stroke="black" points="1313.01,-390.672 1302.44,-389.904 1310.23,-397.094 1313.01,-390.672"/>
</g>
<!-- node64&#45;&gt;node147 -->
<g id="edge142" class="edge"><title>node64&#45;&gt;node147</title>
<path fill="none" stroke="black" d="M1572.94,-508.222C1568.3,-506.644 1563.57,-505.18 1559,-504 1453.29,-476.679 1420.3,-500.257 1316,-468 1246.12,-446.388 1230.43,-434.118 1168,-396 1145.24,-382.104 1142.76,-373.896 1120,-360 1106.62,-351.834 1072.3,-335.373 1045.33,-322.761"/>
<polygon fill="black" stroke="black" points="1046.69,-319.531 1036.15,-318.48 1043.73,-325.876 1046.69,-319.531"/>
</g>
<!-- node64&#45;&gt;node53 -->
<g id="edge146" class="edge"><title>node64&#45;&gt;node53</title>
<path fill="none" stroke="black" d="M1572.8,-516.939C1547.91,-513.279 1513.38,-508.25 1483,-504 1351.05,-485.539 1194.5,-464.791 1122.23,-455.279"/>
<polygon fill="black" stroke="black" points="1122.57,-451.793 1112.2,-453.958 1121.65,-458.733 1122.57,-451.793"/>
</g>
<!-- node64&#45;&gt;node66 -->
<g id="edge138" class="edge"><title>node64&#45;&gt;node66</title>
<path fill="none" stroke="black" d="M1588.14,-503.953C1556.36,-471.441 1499.35,-402.472 1539,-360 1545.42,-353.121 2122.28,-318.126 2283.54,-308.47"/>
<polygon fill="black" stroke="black" points="2284.21,-311.936 2293.99,-307.846 2283.8,-304.949 2284.21,-311.936"/>
</g>
<!-- node64&#45;&gt;node54 -->
<g id="edge140" class="edge"><title>node64&#45;&gt;node54</title>
<path fill="none" stroke="black" d="M1641.14,-516.23C1718.09,-503.224 1904.95,-471.642 1989.81,-457.301"/>
<polygon fill="black" stroke="black" points="1990.6,-460.716 1999.87,-455.599 1989.43,-453.814 1990.6,-460.716"/>
</g>
<!-- node171&#45;&gt;node151 -->
<g id="edge176" class="edge"><title>node171&#45;&gt;node151</title>
<path fill="none" stroke="black" d="M1686.8,-662.707C1547.4,-654.025 1183.71,-629.942 1132,-612 1076.8,-592.845 1066.53,-577.83 1022,-540 1005.46,-525.947 1008.66,-513.198 989,-504 832.637,-430.845 363.599,-552.387 213,-468 170.845,-444.379 152,-426.322 152,-378 152,-378 152,-378 152,-234 152,-181.646 181.189,-167.446 228,-144 307.02,-104.422 939.725,-92.8279 1102.12,-90.4903"/>
<polygon fill="black" stroke="black" points="1102.61,-93.9839 1112.56,-90.3436 1102.51,-86.9846 1102.61,-93.9839"/>
</g>
<!-- node171&#45;&gt;node59 -->
<g id="edge186" class="edge"><title>node171&#45;&gt;node59</title>
<path fill="none" stroke="black" d="M1795.27,-653.295C1836.02,-643.304 1892.99,-628.374 1942,-612 2023.33,-584.827 2044.51,-578.756 2121,-540 2297.2,-450.726 2490.4,-313.28 2565.57,-258.122"/>
<polygon fill="black" stroke="black" points="2567.75,-260.865 2573.73,-252.119 2563.6,-255.227 2567.75,-260.865"/>
</g>
<!-- node171&#45;&gt;node146 -->
<g id="edge180" class="edge"><title>node171&#45;&gt;node146</title>
<path fill="none" stroke="black" d="M1756.55,-647.846C1764,-637.947 1772.13,-625.07 1776,-612 1780.54,-596.657 1781.74,-590.934 1776,-576 1760.52,-535.762 1746.04,-529.111 1711,-504 1576.25,-407.446 1516.28,-429.849 1354,-396 1340.17,-393.116 1325.04,-389.725 1311.75,-386.669"/>
<polygon fill="black" stroke="black" points="1312.53,-383.258 1302,-384.411 1310.96,-390.077 1312.53,-383.258"/>
</g>
<!-- node171&#45;&gt;node147 -->
<g id="edge178" class="edge"><title>node171&#45;&gt;node147</title>
<path fill="none" stroke="black" d="M1686.9,-664.322C1596.64,-660.558 1410.15,-648.657 1257,-612 1168.37,-590.785 1143.73,-585.907 1065,-540 1043.47,-527.445 1045.1,-513.358 1022,-504 868.583,-441.853 384.034,-528.633 285,-396 275.427,-383.18 274.115,-371.727 285,-360 308.58,-334.596 826.299,-312.976 971.463,-307.397"/>
<polygon fill="black" stroke="black" points="971.788,-310.887 981.648,-307.008 971.521,-303.892 971.788,-310.887"/>
</g>
<!-- node171&#45;&gt;node63 -->
<g id="edge184" class="edge"><title>node171&#45;&gt;node63</title>
<path fill="none" stroke="black" d="M1686.76,-660.937C1615.46,-653.594 1486.64,-637.953 1379,-612 1300.66,-593.11 1212.57,-561.26 1159.73,-540.954"/>
<polygon fill="black" stroke="black" points="1160.87,-537.643 1150.28,-537.302 1158.35,-544.172 1160.87,-537.643"/>
</g>
<!-- node171&#45;&gt;node53 -->
<g id="edge182" class="edge"><title>node171&#45;&gt;node53</title>
<path fill="none" stroke="black" d="M1686.74,-659.051C1628.64,-650.85 1534.13,-635.31 1455,-612 1373.53,-588.002 1351.91,-581.823 1278,-540 1254.79,-526.868 1253.55,-516.512 1230,-504 1186.8,-481.05 1171.76,-485.267 1126,-468 1124.6,-467.472 1123.18,-466.928 1121.74,-466.374"/>
<polygon fill="black" stroke="black" points="1122.8,-463.027 1112.21,-462.614 1120.23,-469.539 1122.8,-463.027"/>
</g>
<!-- node171&#45;&gt;node66 -->
<g id="edge188" class="edge"><title>node171&#45;&gt;node66</title>
<path fill="none" stroke="black" d="M1794.73,-647.879C1822.12,-638.133 1855.74,-625.385 1885,-612 2067.31,-528.598 2142.44,-540.888 2281,-396 2297.89,-378.339 2309.49,-352.952 2316.53,-333.641"/>
<polygon fill="black" stroke="black" points="2319.84,-334.765 2319.79,-324.17 2313.22,-332.483 2319.84,-334.765"/>
</g>
<!-- node171&#45;&gt;node164 -->
<g id="edge174" class="edge"><title>node171&#45;&gt;node164</title>
<path fill="none" stroke="black" d="M1738.73,-647.831C1737.77,-640.131 1736.62,-630.974 1735.55,-622.417"/>
<polygon fill="black" stroke="black" points="1739.02,-621.902 1734.3,-612.413 1732.07,-622.77 1739.02,-621.902"/>
</g>
<!-- node171&#45;&gt;node55 -->
<g id="edge190" class="edge"><title>node171&#45;&gt;node55</title>
<path fill="none" stroke="black" d="M1795.05,-661.322C1915.82,-648.62 2212.76,-604.698 2414,-468 2427.61,-458.755 2454.86,-427.163 2473.99,-404.011"/>
<polygon fill="black" stroke="black" points="2476.74,-406.176 2480.37,-396.225 2471.33,-401.735 2476.74,-406.176"/>
</g>
<!-- node171&#45;&gt;node54 -->
<g id="edge192" class="edge"><title>node171&#45;&gt;node54</title>
<path fill="none" stroke="black" d="M1782.08,-647.973C1802.29,-638.388 1826.63,-625.752 1847,-612 1909.36,-569.897 1973.74,-509.271 2007.99,-475.385"/>
<polygon fill="black" stroke="black" points="2010.62,-477.711 2015.23,-468.175 2005.68,-472.751 2010.62,-477.711"/>
</g>
<!-- node171&#45;&gt;node64 -->
<g id="edge194" class="edge"><title>node171&#45;&gt;node64</title>
<path fill="none" stroke="black" d="M1722.65,-647.697C1712.35,-637.33 1699.34,-624.06 1688,-612 1668.02,-590.747 1645.91,-566.094 1629.84,-547.97"/>
<polygon fill="black" stroke="black" points="1632.16,-545.309 1622.91,-540.137 1626.91,-549.947 1632.16,-545.309"/>
</g>
<!-- node78&#45;&gt;node151 -->
<g id="edge200" class="edge"><title>node78&#45;&gt;node151</title>
<path fill="none" stroke="black" d="M2662.24,-431.642C2669.05,-421.687 2676.49,-408.822 2680,-396 2684.23,-380.569 2681.48,-375.931 2680,-360 2670.77,-260.673 2702.27,-198.923 2619,-144 2557.04,-103.136 1401.76,-92.045 1177.52,-90.2736"/>
<polygon fill="black" stroke="black" points="1177.29,-86.7718 1167.27,-90.194 1177.24,-93.7716 1177.29,-86.7718"/>
</g>
<!-- node78&#45;&gt;node59 -->
<g id="edge206" class="edge"><title>node78&#45;&gt;node59</title>
<path fill="none" stroke="black" d="M2654.38,-431.778C2664.14,-400.733 2679.5,-336.265 2658,-288 2652.97,-276.698 2644.27,-266.77 2635.03,-258.611"/>
<polygon fill="black" stroke="black" points="2637.17,-255.832 2627.22,-252.183 2632.72,-261.238 2637.17,-255.832"/>
</g>
<!-- node78&#45;&gt;node153 -->
<g id="edge202" class="edge"><title>node78&#45;&gt;node153</title>
<path fill="none" stroke="black" d="M2644.3,-431.836C2639.63,-412.429 2630.07,-381.556 2613,-360 2542.57,-271.044 2421.36,-206.399 2361.14,-178.013"/>
<polygon fill="black" stroke="black" points="2362.56,-174.813 2352.02,-173.77 2359.61,-181.16 2362.56,-174.813"/>
</g>
<!-- node78&#45;&gt;node66 -->
<g id="edge208" class="edge"><title>node78&#45;&gt;node66</title>
<path fill="none" stroke="black" d="M2629.01,-431.792C2602.93,-406.929 2558.19,-364.866 2549,-360 2490.01,-328.749 2412.74,-315.294 2366.09,-309.714"/>
<polygon fill="black" stroke="black" points="2366.39,-306.225 2356.06,-308.579 2365.6,-313.181 2366.39,-306.225"/>
</g>
<!-- node78&#45;&gt;node149 -->
<g id="edge204" class="edge"><title>node78&#45;&gt;node149</title>
<path fill="none" stroke="black" d="M2638.89,-431.761C2628.05,-411.706 2608.2,-379.718 2583,-360 2496.69,-292.462 2369.37,-256.345 2307.07,-241.794"/>
<polygon fill="black" stroke="black" points="2307.82,-238.374 2297.29,-239.562 2306.26,-245.199 2307.82,-238.374"/>
</g>
<!-- node78&#45;&gt;node55 -->
<g id="edge210" class="edge"><title>node78&#45;&gt;node55</title>
<path fill="none" stroke="black" d="M2621,-437.294C2599.38,-427.118 2568.51,-412.592 2542.74,-400.464"/>
<polygon fill="black" stroke="black" points="2544.04,-397.209 2533.5,-396.117 2541.06,-403.542 2544.04,-397.209"/>
</g>
<!-- node168&#45;&gt;node151 -->
<g id="edge214" class="edge"><title>node168&#45;&gt;node151</title>
<path fill="none" stroke="black" d="M2232.16,-657.749C2295.97,-648.311 2401.28,-631.604 2491,-612 2728.73,-560.053 2986,-621.343 2986,-378 2986,-378 2986,-378 2986,-234 2986,-190.752 2984.56,-168.609 2949,-144 2911.23,-117.865 1432.45,-94.4104 1177.3,-90.554"/>
<polygon fill="black" stroke="black" points="1177.13,-87.051 1167.07,-90.4 1177.02,-94.0502 1177.13,-87.051"/>
</g>
<!-- node168&#45;&gt;node59 -->
<g id="edge216" class="edge"><title>node168&#45;&gt;node59</title>
<path fill="none" stroke="black" d="M2232.36,-652.895C2272.88,-643.174 2327.84,-628.741 2375,-612 2485.99,-572.599 2508.11,-548.887 2617,-504 2658.74,-486.792 2682.44,-502.135 2712,-468 2764.5,-407.363 2752.57,-347.697 2699,-288 2682.26,-269.348 2657.52,-255.973 2636.72,-247.199"/>
<polygon fill="black" stroke="black" points="2637.76,-243.847 2627.18,-243.375 2635.16,-250.344 2637.76,-243.847"/>
</g>
<!-- node168&#45;&gt;node146 -->
<g id="edge228" class="edge"><title>node168&#45;&gt;node146</title>
<path fill="none" stroke="black" d="M2157.68,-647.63C2110.4,-594.633 1975,-444.435 1948,-432 1827.89,-376.673 1484.91,-414.752 1354,-396 1340.27,-394.033 1325.39,-390.909 1312.29,-387.813"/>
<polygon fill="black" stroke="black" points="1312.76,-384.326 1302.21,-385.358 1311.1,-391.127 1312.76,-384.326"/>
</g>
<!-- node168&#45;&gt;node147 -->
<g id="edge226" class="edge"><title>node168&#45;&gt;node147</title>
<path fill="none" stroke="black" d="M2115.91,-662.717C2024.27,-656.827 1840.83,-642.159 1688,-612 1517,-578.257 1479.62,-548.096 1311,-504 1243.83,-486.436 1220.08,-501.007 1159,-468 1138.53,-456.939 1137.99,-447.89 1121,-432 1103.77,-415.888 1097.96,-413.369 1082,-396 1068.28,-381.075 1066.71,-375.788 1054,-360 1046.62,-350.83 1038.41,-340.903 1031.04,-332.092"/>
<polygon fill="black" stroke="black" points="1033.67,-329.781 1024.57,-324.367 1028.31,-334.279 1033.67,-329.781"/>
</g>
<!-- node168&#45;&gt;node52 -->
<g id="edge236" class="edge"><title>node168&#45;&gt;node52</title>
<path fill="none" stroke="black" d="M2115.56,-663.536C1992.83,-657.94 1699.41,-642.338 1455,-612 1284.09,-590.786 1083.73,-551.954 990.171,-532.998"/>
<polygon fill="black" stroke="black" points="990.603,-529.514 980.106,-530.951 989.209,-536.374 990.603,-529.514"/>
</g>
<!-- node168&#45;&gt;node53 -->
<g id="edge230" class="edge"><title>node168&#45;&gt;node53</title>
<path fill="none" stroke="black" d="M2115.78,-662.578C1961.96,-653.369 1552.41,-627.693 1493,-612 1456.47,-602.353 1450.66,-591.021 1416,-576 1376.47,-558.87 1364.45,-559.434 1326,-540 1298.92,-526.314 1295.92,-515.868 1268,-504 1208.08,-478.532 1187.84,-488.376 1126,-468 1124.58,-467.532 1123.14,-467.04 1121.69,-466.529"/>
<polygon fill="black" stroke="black" points="1122.68,-463.164 1112.09,-462.958 1120.24,-469.725 1122.68,-463.164"/>
</g>
<!-- node168&#45;&gt;node66 -->
<g id="edge218" class="edge"><title>node168&#45;&gt;node66</title>
<path fill="none" stroke="black" d="M2188.09,-647.695C2219.31,-605.906 2293.75,-499.112 2322,-396 2327.5,-375.927 2328.09,-352.393 2327.39,-334.426"/>
<polygon fill="black" stroke="black" points="2330.88,-334.094 2326.84,-324.299 2323.89,-334.474 2330.88,-334.094"/>
</g>
<!-- node168&#45;&gt;node164 -->
<g id="edge238" class="edge"><title>node168&#45;&gt;node164</title>
<path fill="none" stroke="black" d="M2115.99,-661.958C2038.65,-655.682 1897.94,-641.151 1781,-612 1779.57,-611.644 1778.13,-611.26 1776.67,-610.854"/>
<polygon fill="black" stroke="black" points="1777.63,-607.488 1767.04,-607.902 1775.58,-614.18 1777.63,-607.488"/>
</g>
<!-- node168&#45;&gt;node150 -->
<g id="edge234" class="edge"><title>node168&#45;&gt;node150</title>
<path fill="none" stroke="black" d="M2232.19,-653.866C2280.72,-643.502 2351.62,-627.801 2413,-612 2512.62,-586.356 2628.75,-551.381 2686.87,-533.522"/>
<polygon fill="black" stroke="black" points="2688.17,-536.785 2696.69,-530.496 2686.11,-530.095 2688.17,-536.785"/>
</g>
<!-- node168&#45;&gt;node55 -->
<g id="edge220" class="edge"><title>node168&#45;&gt;node55</title>
<path fill="none" stroke="black" d="M2226.87,-647.923C2249.97,-638.845 2276.8,-626.643 2299,-612 2318.42,-599.191 2320.08,-591.963 2337,-576 2388.01,-527.889 2410.62,-524.605 2452,-468 2466.03,-448.803 2477.38,-424.305 2484.89,-405.716"/>
<polygon fill="black" stroke="black" points="2488.18,-406.92 2488.56,-396.332 2481.66,-404.371 2488.18,-406.92"/>
</g>
<!-- node168&#45;&gt;node54 -->
<g id="edge224" class="edge"><title>node168&#45;&gt;node54</title>
<path fill="none" stroke="black" d="M2169.14,-647.944C2159.97,-616.307 2137.78,-549.865 2102,-504 2093.28,-492.818 2081.76,-482.618 2070.63,-474.168"/>
<polygon fill="black" stroke="black" points="2072.4,-471.124 2062.25,-468.061 2068.27,-476.78 2072.4,-471.124"/>
</g>
<!-- node168&#45;&gt;node64 -->
<g id="edge232" class="edge"><title>node168&#45;&gt;node64</title>
<path fill="none" stroke="black" d="M2115.99,-651.266C2002.33,-622.402 1752.63,-558.984 1651.17,-533.217"/>
<polygon fill="black" stroke="black" points="1651.8,-529.767 1641.25,-530.698 1650.08,-536.552 1651.8,-529.767"/>
</g>
<!-- node168&#45;&gt;node78 -->
<g id="edge222" class="edge"><title>node168&#45;&gt;node78</title>
<path fill="none" stroke="black" d="M2232.04,-651.722C2264.02,-642.649 2303.84,-629.333 2337,-612 2360.63,-599.646 2362.93,-590.962 2385,-576 2435.85,-541.53 2447.74,-530.843 2503,-504 2538.71,-486.653 2581.52,-471.338 2611.32,-461.49"/>
<polygon fill="black" stroke="black" points="2612.48,-464.793 2620.9,-458.365 2610.31,-458.138 2612.48,-464.793"/>
</g>
<!-- node165&#45;&gt;node151 -->
<g id="edge242" class="edge"><title>node165&#45;&gt;node151</title>
<path fill="none" stroke="black" d="M1990.09,-734.233C2136.35,-724.25 2519.77,-696.992 2544,-684 2634.29,-635.588 2608.51,-568.632 2688,-504 2715.45,-481.68 2730.73,-489.268 2759,-468 2837.66,-408.834 2910,-404.427 2910,-306 2910,-306 2910,-306 2910,-234 2910,-112.557 2771.36,-166.419 2652,-144 2503.17,-116.045 1395.55,-94.6356 1177.29,-90.6634"/>
<polygon fill="black" stroke="black" points="1177.06,-87.1588 1167,-90.4772 1176.94,-94.1577 1177.06,-87.1588"/>
</g>
<!-- node165&#45;&gt;node59 -->
<g id="edge256" class="edge"><title>node165&#45;&gt;node59</title>
<path fill="none" stroke="black" d="M1990.21,-734.215C2131.94,-724.479 2494.21,-698.33 2516,-684 2561.7,-653.95 2541.08,-618.906 2575,-576 2604.67,-538.476 2614.81,-529.944 2655,-504 2688.44,-482.413 2710.74,-497.912 2737,-468 2758.99,-442.95 2753.29,-428.998 2758,-396 2765.08,-346.44 2761.73,-323.062 2726,-288 2701.54,-264.004 2664.82,-250.012 2636.97,-242.309"/>
<polygon fill="black" stroke="black" points="2637.71,-238.885 2627.15,-239.749 2635.94,-245.659 2637.71,-238.885"/>
</g>
<!-- node165&#45;&gt;node146 -->
<g id="edge250" class="edge"><title>node165&#45;&gt;node146</title>
<path fill="none" stroke="black" d="M1934,-719.815C1934,-692.498 1934,-639.25 1934,-594 1934,-594 1934,-594 1934,-522 1934,-390.105 1483.8,-419.391 1354,-396 1340.35,-393.539 1325.49,-390.303 1312.38,-387.254"/>
<polygon fill="black" stroke="black" points="1312.83,-383.765 1302.29,-384.867 1311.22,-390.576 1312.83,-383.765"/>
</g>
<!-- node165&#45;&gt;node147 -->
<g id="edge248" class="edge"><title>node165&#45;&gt;node147</title>
<path fill="none" stroke="black" d="M1877.95,-736.14C1701.8,-730.055 1166.71,-709.647 1093,-684 986.808,-647.052 937.183,-639.594 885,-540 844.979,-463.617 930.161,-373.552 978.568,-330.854"/>
<polygon fill="black" stroke="black" points="981.014,-333.366 986.283,-324.174 976.432,-328.074 981.014,-333.366"/>
</g>
<!-- node165&#45;&gt;node52 -->
<g id="edge244" class="edge"><title>node165&#45;&gt;node52</title>
<path fill="none" stroke="black" d="M1877.98,-735.747C1713.13,-728.878 1237.12,-707.249 1171,-684 1086,-654.115 1003.37,-584.614 962.858,-547.093"/>
<polygon fill="black" stroke="black" points="965.018,-544.321 955.328,-540.037 960.232,-549.429 965.018,-544.321"/>
</g>
<!-- node165&#45;&gt;node63 -->
<g id="edge254" class="edge"><title>node165&#45;&gt;node63</title>
<path fill="none" stroke="black" d="M1877.79,-735.809C1720.95,-729.403 1286.12,-709.531 1227,-684 1183.39,-665.166 1175.06,-651.043 1148,-612 1134.81,-592.978 1125.41,-568.419 1119.52,-549.762"/>
<polygon fill="black" stroke="black" points="1122.84,-548.648 1116.61,-540.077 1116.14,-550.661 1122.84,-548.648"/>
</g>
<!-- node165&#45;&gt;node53 -->
<g id="edge252" class="edge"><title>node165&#45;&gt;node53</title>
<path fill="none" stroke="black" d="M1877.79,-736.061C1729.37,-730.56 1334.82,-713.322 1284,-684 1199.64,-635.322 1227.71,-573.03 1159,-504 1147.57,-492.514 1133.42,-481.817 1120.39,-473.024"/>
<polygon fill="black" stroke="black" points="1122.31,-470.094 1112.03,-467.531 1118.46,-475.946 1122.31,-470.094"/>
</g>
<!-- node165&#45;&gt;node66 -->
<g id="edge258" class="edge"><title>node165&#45;&gt;node66</title>
<path fill="none" stroke="black" d="M1990.26,-734.808C2068.3,-729.283 2204.01,-715.368 2241,-684 2344.02,-596.649 2318.9,-529.708 2338,-396 2340.26,-380.161 2339.89,-375.889 2338,-360 2336.99,-351.517 2335.13,-342.438 2333.12,-334.191"/>
<polygon fill="black" stroke="black" points="2336.45,-333.097 2330.54,-324.299 2329.67,-334.858 2336.45,-333.097"/>
</g>
<!-- node165&#45;&gt;node164 -->
<g id="edge268" class="edge"><title>node165&#45;&gt;node164</title>
<path fill="none" stroke="black" d="M1908.42,-719.762C1872.14,-693.903 1805.71,-646.546 1765.53,-617.903"/>
<polygon fill="black" stroke="black" points="1767.55,-615.044 1757.38,-612.09 1763.49,-620.744 1767.55,-615.044"/>
</g>
<!-- node165&#45;&gt;node150 -->
<g id="edge246" class="edge"><title>node165&#45;&gt;node150</title>
<path fill="none" stroke="black" d="M1990.15,-736.108C2141.47,-730.64 2549.97,-713.31 2603,-684 2657.71,-653.759 2694.86,-587.196 2712.4,-549.48"/>
<polygon fill="black" stroke="black" points="2715.71,-550.661 2716.63,-540.107 2709.33,-547.781 2715.71,-550.661"/>
</g>
<!-- node165&#45;&gt;node55 -->
<g id="edge260" class="edge"><title>node165&#45;&gt;node55</title>
<path fill="none" stroke="black" d="M1990.14,-733.985C2120.63,-724.407 2434.54,-699.837 2451,-684 2527.81,-610.111 2511.93,-466.733 2500.95,-406.128"/>
<polygon fill="black" stroke="black" points="2504.35,-405.307 2499.04,-396.14 2497.48,-406.619 2504.35,-405.307"/>
</g>
<!-- node165&#45;&gt;node54 -->
<g id="edge262" class="edge"><title>node165&#45;&gt;node54</title>
<path fill="none" stroke="black" d="M1940.19,-719.984C1956.96,-671.193 2003.36,-536.238 2023.48,-477.693"/>
<polygon fill="black" stroke="black" points="2026.87,-478.604 2026.81,-468.009 2020.25,-476.328 2026.87,-478.604"/>
</g>
<!-- node165&#45;&gt;node64 -->
<g id="edge264" class="edge"><title>node165&#45;&gt;node64</title>
<path fill="none" stroke="black" d="M1877.75,-732.164C1811.93,-724.32 1708.09,-708.469 1678,-684 1636.26,-650.053 1618.4,-586.692 1611.28,-550.079"/>
<polygon fill="black" stroke="black" points="1614.69,-549.292 1609.47,-540.073 1607.81,-550.536 1614.69,-549.292"/>
</g>
<!-- node165&#45;&gt;node171 -->
<g id="edge266" class="edge"><title>node165&#45;&gt;node171</title>
<path fill="none" stroke="black" d="M1885.3,-719.831C1859.03,-710.031 1826.43,-697.871 1798.87,-687.589"/>
<polygon fill="black" stroke="black" points="1799.94,-684.254 1789.35,-684.038 1797.5,-690.813 1799.94,-684.254"/>
</g>
<!-- node165&#45;&gt;node78 -->
<g id="edge270" class="edge"><title>node165&#45;&gt;node78</title>
<path fill="none" stroke="black" d="M1990.39,-735.71C2123.52,-729.854 2449.15,-712.738 2489,-684 2531.6,-653.276 2508.65,-620.217 2537,-576 2561.53,-537.748 2597.34,-499.364 2621.6,-475.191"/>
<polygon fill="black" stroke="black" points="2624.07,-477.674 2628.73,-468.162 2619.15,-472.688 2624.07,-477.674"/>
</g>
<!-- node165&#45;&gt;node168 -->
<g id="edge272" class="edge"><title>node165&#45;&gt;node168</title>
<path fill="none" stroke="black" d="M1990.27,-721.119C2024.99,-710.703 2069.74,-697.278 2106.38,-686.286"/>
<polygon fill="black" stroke="black" points="2107.42,-689.627 2116,-683.401 2105.41,-682.922 2107.42,-689.627"/>
</g>
</g>
</svg>
