<?xml version="1.0" encoding="UTF-8" standalone="no"?>
<!DOCTYPE svg PUBLIC "-//W3C//DTD SVG 1.1//EN"
 "http://www.w3.org/Graphics/SVG/1.1/DTD/svg11.dtd">
<!-- Generated by graphviz version 2.26.3 (20100126.1600)
 -->
<!-- Title: GG Pages: 1 -->
<svg width="4589pt" height="692pt"
 viewBox="0.00 0.00 4589.00 692.00" xmlns="http://www.w3.org/2000/svg" xmlns:xlink="http://www.w3.org/1999/xlink">
<g id="graph1" class="graph" transform="scale(1 1) rotate(0) translate(4 688)">
<title>GG</title>
<polygon fill="white" stroke="white" points="-4,5 -4,-688 4586,-688 4586,5 -4,5"/>
<!-- node116 -->
<g id="node1" class="node"><title>node116</title>
<polygon fill="none" stroke="black" points="1897,-684 1839,-684 1839,-648 1897,-648 1897,-684"/>
<text text-anchor="middle" x="1868" y="-662.7" font-family="Times Roman,serif" font-size="12.00">ws_dfu</text>
</g>
<!-- node151 -->
<g id="node2" class="node"><title>node151</title>
<polygon fill="none" stroke="black" points="1849,-108 1795,-108 1795,-72 1849,-72 1849,-108"/>
<text text-anchor="middle" x="1822" y="-86.7" font-family="Times Roman,serif" font-size="12.00">jlib</text>
</g>
<!-- node116&#45;&gt;node151 -->
<g id="edge2" class="edge"><title>node116&#45;&gt;node151</title>
<path fill="none" stroke="black" d="M1838.99,-665.952C1612.17,-665.475 129.7,-660.503 50,-612 10.9111,-588.212 0,-567.758 0,-522 0,-522 0,-522 0,-234 0,-176.161 40.6693,-166.388 94,-144 174.616,-110.158 1540.35,-93.182 1784.73,-90.4087"/>
<polygon fill="black" stroke="black" points="1784.91,-93.9069 1794.87,-90.2944 1784.83,-86.9073 1784.91,-93.9069"/>
</g>
<!-- node153 -->
<g id="node12" class="node"><title>node153</title>
<polygon fill="none" stroke="black" points="635,-180 581,-180 581,-144 635,-144 635,-180"/>
<text text-anchor="middle" x="608" y="-158.7" font-family="Times Roman,serif" font-size="12.00">mp</text>
</g>
<!-- node116&#45;&gt;node153 -->
<g id="edge12" class="edge"><title>node116&#45;&gt;node153</title>
<path fill="none" stroke="black" d="M1838.74,-665.53C1640.94,-662.277 502.797,-642.343 352,-612 241.134,-589.692 114,-635.088 114,-522 114,-522 114,-522 114,-306 114,-240.395 170.548,-241.486 231,-216 291.994,-190.285 488.196,-171.762 570.796,-164.911"/>
<polygon fill="black" stroke="black" points="571.301,-168.382 580.982,-164.078 570.73,-161.405 571.301,-168.382"/>
</g>
<!-- node149 -->
<g id="node15" class="node"><title>node149</title>
<polygon fill="none" stroke="black" points="326,-252 272,-252 272,-216 326,-216 326,-252"/>
<text text-anchor="middle" x="299" y="-230.7" font-family="Times Roman,serif" font-size="12.00">hrpc</text>
</g>
<!-- node116&#45;&gt;node149 -->
<g id="edge16" class="edge"><title>node116&#45;&gt;node149</title>
<path fill="none" stroke="black" d="M1838.77,-665.857C1614.97,-664.666 179.542,-655.356 100,-612 57.3513,-588.754 38,-570.573 38,-522 38,-522 38,-522 38,-378 38,-277.129 189.303,-246.384 261.51,-237.454"/>
<polygon fill="black" stroke="black" points="262.031,-240.917 271.562,-236.289 261.225,-233.964 262.031,-240.917"/>
</g>
<!-- node59 -->
<g id="node19" class="node"><title>node59</title>
<polygon fill="none" stroke="black" points="973,-252 915,-252 915,-216 973,-216 973,-252"/>
<text text-anchor="middle" x="944" y="-230.7" font-family="Times Roman,serif" font-size="12.00">remote</text>
</g>
<!-- node116&#45;&gt;node59 -->
<g id="edge22" class="edge"><title>node116&#45;&gt;node59</title>
<path fill="none" stroke="black" d="M1838.52,-664.397C1684.79,-655.654 982,-610.828 982,-522 982,-522 982,-522 982,-378 982,-336.368 966.967,-290.14 955.812,-261.567"/>
<polygon fill="black" stroke="black" points="959.037,-260.206 952.059,-252.233 952.542,-262.817 959.037,-260.206"/>
</g>
<!-- node147 -->
<g id="node23" class="node"><title>node147</title>
<polygon fill="none" stroke="black" points="2364,-324 2310,-324 2310,-288 2364,-288 2364,-324"/>
<text text-anchor="middle" x="2337" y="-302.7" font-family="Times Roman,serif" font-size="12.00">nbcd</text>
</g>
<!-- node116&#45;&gt;node147 -->
<g id="edge28" class="edge"><title>node116&#45;&gt;node147</title>
<path fill="none" stroke="black" d="M1897,-664.289C1980.74,-659.043 2221.48,-641.711 2294,-612 2355.03,-586.995 2412,-587.958 2412,-522 2412,-522 2412,-522 2412,-450 2412,-404.785 2382.55,-359.696 2360.56,-332.328"/>
<polygon fill="black" stroke="black" points="2363.09,-329.893 2354.02,-324.422 2357.7,-334.357 2363.09,-329.893"/>
</g>
<!-- node146 -->
<g id="node26" class="node"><title>node146</title>
<polygon fill="none" stroke="black" points="2080,-396 2026,-396 2026,-360 2080,-360 2080,-396"/>
<text text-anchor="middle" x="2053" y="-374.7" font-family="Times Roman,serif" font-size="12.00">eclrtl</text>
</g>
<!-- node116&#45;&gt;node146 -->
<g id="edge32" class="edge"><title>node116&#45;&gt;node146</title>
<path fill="none" stroke="black" d="M1897.28,-655.56C1918.12,-646.801 1945.43,-632.42 1963,-612 2016.18,-550.193 2039.72,-453.54 2048.53,-406.136"/>
<polygon fill="black" stroke="black" points="2051.98,-406.719 2050.28,-396.261 2045.09,-405.497 2051.98,-406.719"/>
</g>
<!-- node150 -->
<g id="node38" class="node"><title>node150</title>
<polygon fill="none" stroke="black" points="3211,-540 3157,-540 3157,-504 3211,-504 3211,-540"/>
<text text-anchor="middle" x="3184" y="-518.7" font-family="Times Roman,serif" font-size="12.00">jhtree</text>
</g>
<!-- node116&#45;&gt;node150 -->
<g id="edge46" class="edge"><title>node116&#45;&gt;node150</title>
<path fill="none" stroke="black" d="M1897.14,-664.439C2063.69,-655.32 2896.14,-607.024 3143,-540 3144.27,-539.656 3145.54,-539.28 3146.82,-538.876"/>
<polygon fill="black" stroke="black" points="3148.4,-542.03 3156.62,-535.348 3146.02,-535.445 3148.4,-542.03"/>
</g>
<!-- node66 -->
<g id="node41" class="node"><title>node66</title>
<polygon fill="none" stroke="black" points="698,-324 636,-324 636,-288 698,-288 698,-324"/>
<text text-anchor="middle" x="667" y="-302.7" font-family="Times Roman,serif" font-size="12.00">dalibase</text>
</g>
<!-- node116&#45;&gt;node66 -->
<g id="edge50" class="edge"><title>node116&#45;&gt;node66</title>
<path fill="none" stroke="black" d="M1838.98,-665.41C1655.83,-661.603 666.108,-639.796 609,-612 561.667,-588.962 532,-574.642 532,-522 532,-522 532,-522 532,-450 532,-393.928 587.151,-350.707 626.952,-326.815"/>
<polygon fill="black" stroke="black" points="628.808,-329.785 635.689,-321.729 625.286,-323.735 628.808,-329.785"/>
</g>
<!-- node55 -->
<g id="node47" class="node"><title>node55</title>
<polygon fill="none" stroke="black" points="878,-396 788,-396 788,-360 878,-360 878,-396"/>
<text text-anchor="middle" x="833" y="-374.7" font-family="Times Roman,serif" font-size="12.00">environment</text>
</g>
<!-- node116&#45;&gt;node55 -->
<g id="edge60" class="edge"><title>node116&#45;&gt;node55</title>
<path fill="none" stroke="black" d="M1838.9,-665.84C1692.89,-664.825 1044.14,-657.754 968,-612 890.899,-565.67 853.552,-457.424 839.667,-406.037"/>
<polygon fill="black" stroke="black" points="843.03,-405.062 837.127,-396.264 836.256,-406.823 843.03,-405.062"/>
</g>
<!-- node54 -->
<g id="node53" class="node"><title>node54</title>
<polygon fill="none" stroke="black" points="1380,-468 1314,-468 1314,-432 1380,-432 1380,-468"/>
<text text-anchor="middle" x="1347" y="-446.7" font-family="Times Roman,serif" font-size="12.00">dllserver</text>
</g>
<!-- node116&#45;&gt;node54 -->
<g id="edge70" class="edge"><title>node116&#45;&gt;node54</title>
<path fill="none" stroke="black" d="M1838.98,-657.002C1778.49,-637.921 1634.87,-590.952 1519,-540 1472.7,-519.639 1421.57,-492.217 1387.18,-473.013"/>
<polygon fill="black" stroke="black" points="1388.82,-469.915 1378.38,-468.072 1385.39,-476.019 1388.82,-469.915"/>
</g>
<!-- node53 -->
<g id="node68" class="node"><title>node53</title>
<polygon fill="none" stroke="black" points="2246,-468 2186,-468 2186,-432 2246,-432 2246,-468"/>
<text text-anchor="middle" x="2216" y="-446.7" font-family="Times Roman,serif" font-size="12.00">deftype</text>
</g>
<!-- node116&#45;&gt;node53 -->
<g id="edge92" class="edge"><title>node116&#45;&gt;node53</title>
<path fill="none" stroke="black" d="M1897.23,-659.781C1973.57,-642.895 2175.67,-593.831 2214,-540 2226.62,-522.276 2226.11,-497.213 2223.01,-478.034"/>
<polygon fill="black" stroke="black" points="2226.42,-477.227 2221.09,-468.069 2219.55,-478.55 2226.42,-477.227"/>
</g>
<!-- node64 -->
<g id="node73" class="node"><title>node64</title>
<polygon fill="none" stroke="black" points="1902,-540 1834,-540 1834,-504 1902,-504 1902,-540"/>
<text text-anchor="middle" x="1868" y="-518.7" font-family="Times Roman,serif" font-size="12.00">workunit</text>
</g>
<!-- node116&#45;&gt;node64 -->
<g id="edge100" class="edge"><title>node116&#45;&gt;node64</title>
<path fill="none" stroke="black" d="M1868,-647.762C1868,-623.201 1868,-579.247 1868,-550.354"/>
<polygon fill="black" stroke="black" points="1871.5,-550.09 1868,-540.09 1864.5,-550.09 1871.5,-550.09"/>
</g>
<!-- node99 -->
<g id="node81" class="node"><title>node99</title>
<polygon fill="none" stroke="black" points="2334,-540 2280,-540 2280,-504 2334,-504 2334,-540"/>
<text text-anchor="middle" x="2307" y="-518.7" font-family="Times Roman,serif" font-size="12.00">hql</text>
</g>
<!-- node116&#45;&gt;node99 -->
<g id="edge114" class="edge"><title>node116&#45;&gt;node99</title>
<path fill="none" stroke="black" d="M1897.11,-665.609C1978.7,-663.972 2207.44,-655.516 2266,-612 2285.92,-597.194 2296.42,-570.407 2301.78,-549.893"/>
<polygon fill="black" stroke="black" points="2305.2,-550.657 2304.08,-540.122 2298.39,-549.054 2305.2,-550.657"/>
</g>
<!-- node56 -->
<g id="node87" class="node"><title>node56</title>
<polygon fill="none" stroke="black" points="1840,-612 1776,-612 1776,-576 1840,-576 1840,-612"/>
<text text-anchor="middle" x="1808" y="-590.7" font-family="Times Roman,serif" font-size="12.00">fileview2</text>
</g>
<!-- node116&#45;&gt;node56 -->
<g id="edge124" class="edge"><title>node116&#45;&gt;node56</title>
<path fill="none" stroke="black" d="M1852.86,-647.831C1845.88,-639.454 1837.46,-629.353 1829.81,-620.175"/>
<polygon fill="black" stroke="black" points="1832.44,-617.855 1823.34,-612.413 1827.06,-622.336 1832.44,-617.855"/>
</g>
<!-- node156 -->
<g id="node107" class="node"><title>node156</title>
<polygon fill="none" stroke="black" points="2624,-468 2530,-468 2530,-432 2624,-432 2624,-468"/>
<text text-anchor="middle" x="2577" y="-446.7" font-family="Times Roman,serif" font-size="12.00">securesocket</text>
</g>
<!-- node116&#45;&gt;node156 -->
<g id="edge268" class="edge"><title>node116&#45;&gt;node156</title>
<path fill="none" stroke="black" d="M1897.34,-664.378C2005.54,-658.232 2378.33,-635.531 2426,-612 2487.66,-581.566 2536.86,-514.59 2560.92,-476.983"/>
<polygon fill="black" stroke="black" points="2564.15,-478.427 2566.49,-468.094 2558.21,-474.712 2564.15,-478.427"/>
</g>
<!-- node160 -->
<g id="node115" class="node"><title>node160</title>
<polygon fill="none" stroke="black" points="3456,-468 3402,-468 3402,-432 3456,-432 3456,-468"/>
<text text-anchor="middle" x="3429" y="-446.7" font-family="Times Roman,serif" font-size="12.00">xmllib</text>
</g>
<!-- node116&#45;&gt;node160 -->
<g id="edge170" class="edge"><title>node116&#45;&gt;node160</title>
<path fill="none" stroke="black" d="M1897.01,-665.73C2021.88,-664.316 2525.89,-656.033 2937,-612 3133.16,-590.99 3211.81,-650.846 3375,-540 3396.89,-525.13 3411.32,-498.166 3419.72,-477.615"/>
<polygon fill="black" stroke="black" points="3423.04,-478.713 3423.36,-468.123 3416.51,-476.207 3423.04,-478.713"/>
</g>
<!-- node110 -->
<g id="node124" class="node"><title>node110</title>
<polygon fill="none" stroke="black" points="3329,-540 3267,-540 3267,-504 3329,-504 3329,-540"/>
<text text-anchor="middle" x="3298" y="-518.7" font-family="Times Roman,serif" font-size="12.00">esphttp</text>
</g>
<!-- node116&#45;&gt;node110 -->
<g id="edge180" class="edge"><title>node116&#45;&gt;node110</title>
<path fill="none" stroke="black" d="M1897.22,-665.524C2012.69,-663.387 2448.25,-652.914 2804,-612 2990.41,-590.562 3036.07,-577.11 3220,-540 3232.01,-537.576 3245,-534.687 3256.87,-531.94"/>
<polygon fill="black" stroke="black" points="3258.02,-535.266 3266.96,-529.578 3256.43,-528.45 3258.02,-535.266"/>
</g>
<!-- node78 -->
<g id="node131" class="node"><title>node78</title>
<polygon fill="none" stroke="black" points="711,-468 657,-468 657,-432 711,-432 711,-468"/>
<text text-anchor="middle" x="684" y="-446.7" font-family="Times Roman,serif" font-size="12.00">dalift</text>
</g>
<!-- node116&#45;&gt;node78 -->
<g id="edge192" class="edge"><title>node116&#45;&gt;node78</title>
<path fill="none" stroke="black" d="M1838.88,-665.853C1656.25,-664.795 675.096,-657.02 632,-612 598.808,-577.326 614.05,-548.518 632,-504 636.323,-493.28 643.904,-483.498 651.964,-475.295"/>
<polygon fill="black" stroke="black" points="654.573,-477.644 659.42,-468.223 649.756,-472.565 654.573,-477.644"/>
</g>
<!-- node127 -->
<g id="node139" class="node"><title>node127</title>
<polygon fill="none" stroke="black" points="1954,-612 1896,-612 1896,-576 1954,-576 1954,-612"/>
<text text-anchor="middle" x="1925" y="-590.7" font-family="Times Roman,serif" font-size="12.00">SMCLib</text>
</g>
<!-- node116&#45;&gt;node127 -->
<g id="edge206" class="edge"><title>node116&#45;&gt;node127</title>
<path fill="none" stroke="black" d="M1882.38,-647.831C1888.95,-639.539 1896.85,-629.557 1904.06,-620.453"/>
<polygon fill="black" stroke="black" points="1906.96,-622.426 1910.42,-612.413 1901.47,-618.081 1906.96,-622.426"/>
</g>
<!-- node77 -->
<g id="node153" class="node"><title>node77</title>
<polygon fill="none" stroke="black" points="382,-468 302,-468 302,-432 382,-432 382,-468"/>
<text text-anchor="middle" x="342" y="-446.7" font-family="Times Roman,serif" font-size="12.00">dfuXRefLib</text>
</g>
<!-- node116&#45;&gt;node77 -->
<g id="edge232" class="edge"><title>node116&#45;&gt;node77</title>
<path fill="none" stroke="black" d="M1838.91,-665.929C1636.19,-665.316 440.658,-659.68 382,-612 342.512,-579.902 338.382,-515.579 339.679,-478.367"/>
<polygon fill="black" stroke="black" points="343.183,-478.361 340.192,-468.197 336.192,-478.007 343.183,-478.361"/>
</g>
<!-- node155 -->
<g id="node161" class="node"><title>node155</title>
<polygon fill="none" stroke="black" points="4091,-612 3999,-612 3999,-576 4091,-576 4091,-612"/>
<text text-anchor="middle" x="4045" y="-590.7" font-family="Times Roman,serif" font-size="12.00">LdapSecurity</text>
</g>
<!-- node116&#45;&gt;node155 -->
<g id="edge246" class="edge"><title>node116&#45;&gt;node155</title>
<path fill="none" stroke="black" d="M1897.32,-665.597C2115,-662.549 3482.61,-642.406 3896,-612 3926.78,-609.736 3960.98,-605.713 3988.84,-602.044"/>
<polygon fill="black" stroke="black" points="3989.35,-605.507 3998.8,-600.712 3988.42,-598.569 3989.35,-605.507"/>
</g>
<!-- node74 -->
<g id="node168" class="node"><title>node74</title>
<polygon fill="none" stroke="black" points="445,-612 391,-612 391,-576 445,-576 445,-612"/>
<text text-anchor="middle" x="418" y="-590.7" font-family="Times Roman,serif" font-size="12.00">dfuwu</text>
</g>
<!-- node116&#45;&gt;node74 -->
<g id="edge254" class="edge"><title>node116&#45;&gt;node74</title>
<path fill="none" stroke="black" d="M1838.76,-665.381C1666.94,-661.66 786.874,-641.434 518,-612 496.99,-609.7 473.743,-605.61 454.953,-601.91"/>
<polygon fill="black" stroke="black" points="455.511,-598.452 445.016,-599.908 454.128,-605.314 455.511,-598.452"/>
</g>
<!-- node60 -->
<g id="node177" class="node"><title>node60</title>
<polygon fill="none" stroke="black" points="3929,-180 3835,-180 3835,-144 3929,-144 3929,-180"/>
<text text-anchor="middle" x="3882" y="-158.7" font-family="Times Roman,serif" font-size="12.00">roxiecommlib</text>
</g>
<!-- node116&#45;&gt;node60 -->
<g id="edge270" class="edge"><title>node116&#45;&gt;node60</title>
<path fill="none" stroke="black" d="M1897.25,-665.497C2144.92,-661.054 3882,-626.178 3882,-522 3882,-522 3882,-522 3882,-306 3882,-265.876 3882,-219.463 3882,-190.418"/>
<polygon fill="black" stroke="black" points="3885.5,-190.185 3882,-180.185 3878.5,-190.185 3885.5,-190.185"/>
</g>
<!-- node152 -->
<g id="node4" class="node"><title>node152</title>
<polygon fill="none" stroke="black" points="1700,-36 1660.06,-18 1700,-3.55271e-15 1739.94,-18 1700,-36"/>
<text text-anchor="middle" x="1700" y="-14.7" font-family="Times Roman,serif" font-size="12.00">lzma</text>
</g>
<!-- node151&#45;&gt;node152 -->
<g id="edge4" class="edge"><title>node151&#45;&gt;node152</title>
<path fill="none" stroke="black" d="M1794.92,-74.0209C1774.47,-61.9494 1746.55,-45.4743 1726.29,-33.5172"/>
<polygon fill="black" stroke="black" points="1727.97,-30.4417 1717.58,-28.3733 1724.41,-36.4701 1727.97,-30.4417"/>
</g>
<!-- node187 -->
<g id="node6" class="node"><title>node187</title>
<ellipse fill="none" stroke="black" cx="1785" cy="-18" rx="27" ry="18"/>
<text text-anchor="middle" x="1785" y="-14.7" font-family="Times Roman,serif" font-size="12.00">dl</text>
</g>
<!-- node151&#45;&gt;node187 -->
<g id="edge6" class="edge"><title>node151&#45;&gt;node187</title>
<path fill="none" stroke="black" d="M1812.66,-71.8314C1808.41,-63.5451 1803.28,-53.5727 1798.61,-44.4748"/>
<polygon fill="black" stroke="black" points="1801.63,-42.7123 1793.95,-35.4177 1795.41,-45.9118 1801.63,-42.7123"/>
</g>
<!-- node179 -->
<g id="node8" class="node"><title>node179</title>
<ellipse fill="none" stroke="black" cx="1860" cy="-18" rx="30.0465" ry="18"/>
<text text-anchor="middle" x="1860" y="-14.7" font-family="Times Roman,serif" font-size="12.00">crypt</text>
</g>
<!-- node151&#45;&gt;node179 -->
<g id="edge8" class="edge"><title>node151&#45;&gt;node179</title>
<path fill="none" stroke="black" d="M1831.59,-71.8314C1835.96,-63.5451 1841.23,-53.5727 1846.03,-44.4748"/>
<polygon fill="black" stroke="black" points="1849.24,-45.8952 1850.81,-35.4177 1843.04,-42.6279 1849.24,-45.8952"/>
</g>
<!-- node188 -->
<g id="node10" class="node"><title>node188</title>
<ellipse fill="none" stroke="black" cx="1935" cy="-18" rx="27" ry="18"/>
<text text-anchor="middle" x="1935" y="-14.7" font-family="Times Roman,serif" font-size="12.00">rt</text>
</g>
<!-- node151&#45;&gt;node188 -->
<g id="edge10" class="edge"><title>node151&#45;&gt;node188</title>
<path fill="none" stroke="black" d="M1849.07,-72.7542C1866.41,-61.7009 1888.9,-47.375 1906.52,-36.1494"/>
<polygon fill="black" stroke="black" points="1908.68,-38.9209 1915.23,-30.5955 1904.92,-33.0174 1908.68,-38.9209"/>
</g>
<!-- node153&#45;&gt;node151 -->
<g id="edge14" class="edge"><title>node153&#45;&gt;node151</title>
<path fill="none" stroke="black" d="M635.035,-159.315C674.074,-155.505 748.517,-148.496 812,-144 1191.45,-117.124 1651.96,-97.065 1784.61,-91.5315"/>
<polygon fill="black" stroke="black" points="1784.82,-95.0262 1794.66,-91.114 1784.52,-88.0322 1784.82,-95.0262"/>
</g>
<!-- node149&#45;&gt;node151 -->
<g id="edge18" class="edge"><title>node149&#45;&gt;node151</title>
<path fill="none" stroke="black" d="M326.171,-221.56C330.752,-219.611 335.485,-217.686 340,-216 441.144,-178.24 465.631,-162.483 572,-144 813.96,-101.956 1603.72,-92.0553 1784.78,-90.3169"/>
<polygon fill="black" stroke="black" points="1784.9,-93.816 1794.86,-90.2225 1784.83,-86.8163 1784.9,-93.816"/>
</g>
<!-- node149&#45;&gt;node153 -->
<g id="edge20" class="edge"><title>node149&#45;&gt;node153</title>
<path fill="none" stroke="black" d="M326.033,-221.159C330.63,-219.258 335.405,-217.453 340,-216 420.441,-190.564 518.383,-174.416 570.739,-166.922"/>
<polygon fill="black" stroke="black" points="571.475,-170.353 580.89,-165.496 570.501,-163.421 571.475,-170.353"/>
</g>
<!-- node59&#45;&gt;node151 -->
<g id="edge24" class="edge"><title>node59&#45;&gt;node151</title>
<path fill="none" stroke="black" d="M973.145,-220.8C1019.35,-200.521 1112.71,-162.149 1196,-144 1309.56,-119.256 1667.82,-98.2892 1784.72,-91.9567"/>
<polygon fill="black" stroke="black" points="1785.15,-95.4387 1794.94,-91.4067 1784.77,-88.4488 1785.15,-95.4387"/>
</g>
<!-- node59&#45;&gt;node153 -->
<g id="edge26" class="edge"><title>node59&#45;&gt;node153</title>
<path fill="none" stroke="black" d="M914.77,-227.736C853.694,-214.649 712.638,-184.422 645.209,-169.973"/>
<polygon fill="black" stroke="black" points="645.554,-166.468 635.042,-167.795 644.087,-173.312 645.554,-166.468"/>
</g>
<!-- node147&#45;&gt;node151 -->
<g id="edge30" class="edge"><title>node147&#45;&gt;node151</title>
<path fill="none" stroke="black" d="M2338.45,-287.826C2340.05,-253.831 2338.05,-180.748 2296,-144 2263.29,-115.416 1965.85,-97.4154 1859.55,-91.8489"/>
<polygon fill="black" stroke="black" points="1859.46,-88.3396 1849.3,-91.3194 1859.1,-95.3303 1859.46,-88.3396"/>
</g>
<!-- node146&#45;&gt;node151 -->
<g id="edge42" class="edge"><title>node146&#45;&gt;node151</title>
<path fill="none" stroke="black" d="M2080.12,-365.432C2084.71,-363.498 2089.46,-361.612 2094,-360 2150.91,-339.81 2188.4,-372.02 2225,-324 2234.7,-311.275 2233.46,-301.581 2225,-288 2142.4,-155.381 1942.11,-109.055 1859.05,-95.192"/>
<polygon fill="black" stroke="black" points="1859.48,-91.7167 1849.05,-93.5872 1858.37,-98.6282 1859.48,-91.7167"/>
</g>
<!-- node146&#45;&gt;node147 -->
<g id="edge44" class="edge"><title>node146&#45;&gt;node147</title>
<path fill="none" stroke="black" d="M2080.23,-371.096C2131.44,-358.114 2242.13,-330.052 2300.02,-315.375"/>
<polygon fill="black" stroke="black" points="2301.02,-318.733 2309.85,-312.883 2299.3,-311.948 2301.02,-318.733"/>
</g>
<!-- node186 -->
<g id="node28" class="node"><title>node186</title>
<ellipse fill="none" stroke="black" cx="1923" cy="-306" rx="118.939" ry="18"/>
<text text-anchor="middle" x="1923" y="-302.7" font-family="Times Roman,serif" font-size="12.00">/usr/lib/libboost_regex&#45;mt.so</text>
</g>
<!-- node146&#45;&gt;node186 -->
<g id="edge34" class="edge"><title>node146&#45;&gt;node186</title>
<path fill="none" stroke="black" d="M2025.75,-362.906C2007.8,-352.965 1983.97,-339.77 1963.78,-328.588"/>
<polygon fill="black" stroke="black" points="1965.24,-325.394 1954.8,-323.611 1961.85,-331.518 1965.24,-325.394"/>
</g>
<!-- node183 -->
<g id="node30" class="node"><title>node183</title>
<ellipse fill="none" stroke="black" cx="2138" cy="-306" rx="77.9931" ry="18"/>
<text text-anchor="middle" x="2138" y="-302.7" font-family="Times Roman,serif" font-size="12.00">/usr/lib/libicuuc.so</text>
</g>
<!-- node146&#45;&gt;node183 -->
<g id="edge36" class="edge"><title>node146&#45;&gt;node183</title>
<path fill="none" stroke="black" d="M2074.45,-359.831C2085.16,-350.76 2098.25,-339.668 2109.77,-329.915"/>
<polygon fill="black" stroke="black" points="2112.07,-332.552 2117.44,-323.418 2107.54,-327.211 2112.07,-332.552"/>
</g>
<!-- node184 -->
<g id="node32" class="node"><title>node184</title>
<ellipse fill="none" stroke="black" cx="1513" cy="-306" rx="85.1424" ry="18"/>
<text text-anchor="middle" x="1513" y="-302.7" font-family="Times Roman,serif" font-size="12.00">/usr/lib/libicui18n.so</text>
</g>
<!-- node146&#45;&gt;node184 -->
<g id="edge38" class="edge"><title>node146&#45;&gt;node184</title>
<path fill="none" stroke="black" d="M2025.65,-364.541C2021.17,-362.764 2016.52,-361.159 2012,-360 1836.96,-315.086 1785.97,-349.025 1607,-324 1599.56,-322.96 1591.82,-321.726 1584.12,-320.4"/>
<polygon fill="black" stroke="black" points="1584.49,-316.912 1574.03,-318.61 1583.27,-323.804 1584.49,-316.912"/>
</g>
<!-- node185 -->
<g id="node34" class="node"><title>node185</title>
<ellipse fill="none" stroke="black" cx="1701" cy="-306" rx="85.1424" ry="18"/>
<text text-anchor="middle" x="1701" y="-302.7" font-family="Times Roman,serif" font-size="12.00">/usr/lib/libicudata.so</text>
</g>
<!-- node146&#45;&gt;node185 -->
<g id="edge40" class="edge"><title>node146&#45;&gt;node185</title>
<path fill="none" stroke="black" d="M2025.56,-364.841C2021.1,-363.025 2016.47,-361.329 2012,-360 1918.29,-332.134 1891.24,-341.195 1795,-324 1788.03,-322.754 1780.77,-321.424 1773.52,-320.073"/>
<polygon fill="black" stroke="black" points="1774.13,-316.627 1763.66,-318.222 1772.84,-323.507 1774.13,-316.627"/>
</g>
<!-- node150&#45;&gt;node151 -->
<g id="edge48" class="edge"><title>node150&#45;&gt;node151</title>
<path fill="none" stroke="black" d="M3182.34,-503.833C3180,-476.539 3176,-423.32 3176,-378 3176,-378 3176,-378 3176,-234 3176,-192.602 3184.31,-169.882 3152,-144 3100.2,-102.506 2070.1,-91.9967 1859.44,-90.278"/>
<polygon fill="black" stroke="black" points="1859.23,-86.7763 1849.2,-90.1962 1859.17,-93.7761 1859.23,-86.7763"/>
</g>
<!-- node66&#45;&gt;node151 -->
<g id="edge52" class="edge"><title>node66&#45;&gt;node151</title>
<path fill="none" stroke="black" d="M698.029,-289.745C764.592,-255.758 926.922,-177.559 1073,-144 1210.8,-112.343 1652.78,-95.565 1784.57,-91.1787"/>
<polygon fill="black" stroke="black" points="1785.05,-94.6647 1794.93,-90.8381 1784.82,-87.6685 1785.05,-94.6647"/>
</g>
<!-- node66&#45;&gt;node153 -->
<g id="edge54" class="edge"><title>node66&#45;&gt;node153</title>
<path fill="none" stroke="black" d="M659.528,-287.762C649.376,-262.985 631.138,-218.471 619.306,-189.594"/>
<polygon fill="black" stroke="black" points="622.442,-188.016 615.412,-180.09 615.964,-190.67 622.442,-188.016"/>
</g>
<!-- node66&#45;&gt;node149 -->
<g id="edge56" class="edge"><title>node66&#45;&gt;node149</title>
<path fill="none" stroke="black" d="M635.942,-299.923C568.557,-286.739 409.16,-255.553 336.394,-241.316"/>
<polygon fill="black" stroke="black" points="336.794,-237.828 326.308,-239.343 335.449,-244.698 336.794,-237.828"/>
</g>
<!-- node66&#45;&gt;node59 -->
<g id="edge58" class="edge"><title>node66&#45;&gt;node59</title>
<path fill="none" stroke="black" d="M698.237,-297.881C749.119,-284.655 849.767,-258.494 905.171,-244.093"/>
<polygon fill="black" stroke="black" points="906.169,-247.45 914.967,-241.546 904.408,-240.675 906.169,-247.45"/>
</g>
<!-- node55&#45;&gt;node151 -->
<g id="edge62" class="edge"><title>node55&#45;&gt;node151</title>
<path fill="none" stroke="black" d="M858.15,-359.944C922.97,-314.481 1102.54,-195.272 1272,-144 1368.54,-114.792 1677.49,-97.1366 1784.83,-91.759"/>
<polygon fill="black" stroke="black" points="1785.05,-95.2524 1794.87,-91.2627 1784.71,-88.2609 1785.05,-95.2524"/>
</g>
<!-- node55&#45;&gt;node153 -->
<g id="edge64" class="edge"><title>node55&#45;&gt;node153</title>
<path fill="none" stroke="black" d="M814.204,-359.955C774.167,-321.52 680.384,-231.488 634.385,-187.33"/>
<polygon fill="black" stroke="black" points="636.539,-184.546 626.901,-180.145 631.691,-189.595 636.539,-184.546"/>
</g>
<!-- node55&#45;&gt;node59 -->
<g id="edge66" class="edge"><title>node55&#45;&gt;node59</title>
<path fill="none" stroke="black" d="M847.058,-359.762C866.491,-334.552 901.673,-288.91 923.885,-260.095"/>
<polygon fill="black" stroke="black" points="926.723,-262.147 930.056,-252.09 921.179,-257.873 926.723,-262.147"/>
</g>
<!-- node55&#45;&gt;node66 -->
<g id="edge68" class="edge"><title>node55&#45;&gt;node66</title>
<path fill="none" stroke="black" d="M791.111,-359.831C765.476,-348.712 732.841,-334.557 707.47,-323.553"/>
<polygon fill="black" stroke="black" points="708.699,-320.271 698.132,-319.503 705.913,-326.693 708.699,-320.271"/>
</g>
<!-- node54&#45;&gt;node151 -->
<g id="edge74" class="edge"><title>node54&#45;&gt;node151</title>
<path fill="none" stroke="black" d="M1380.11,-449.316C1494.45,-446.616 1867.72,-434.87 1903,-396 1913.75,-384.152 1913.94,-371.674 1903,-360 1818.48,-269.823 1432.52,-414.177 1348,-324 1293.29,-265.629 1294.73,-203.684 1348,-144 1376.99,-111.521 1678.08,-95.9676 1784.77,-91.4456"/>
<polygon fill="black" stroke="black" points="1784.92,-94.9426 1794.77,-91.0304 1784.63,-87.9486 1784.92,-94.9426"/>
</g>
<!-- node54&#45;&gt;node153 -->
<g id="edge76" class="edge"><title>node54&#45;&gt;node153</title>
<path fill="none" stroke="black" d="M1315.79,-431.992C1300.31,-422.322 1281.81,-409.606 1267,-396 1221.62,-354.293 1230.14,-323.85 1180,-288 1103.83,-233.538 1072.82,-238.811 982,-216 860.905,-185.584 713.156,-170.547 645.311,-164.833"/>
<polygon fill="black" stroke="black" points="645.378,-161.327 635.125,-163.996 644.804,-168.304 645.378,-161.327"/>
</g>
<!-- node54&#45;&gt;node149 -->
<g id="edge78" class="edge"><title>node54&#45;&gt;node149</title>
<path fill="none" stroke="black" d="M1313.96,-445.072C1256.72,-436.361 1135.49,-417.155 1034,-396 968.151,-382.274 953.068,-372.629 887,-360 772.417,-338.097 741.27,-347.484 627,-324 520.106,-302.032 396.61,-264.878 336.19,-245.913"/>
<polygon fill="black" stroke="black" points="336.942,-242.48 326.352,-242.81 334.836,-249.156 336.942,-242.48"/>
</g>
<!-- node54&#45;&gt;node59 -->
<g id="edge82" class="edge"><title>node54&#45;&gt;node59</title>
<path fill="none" stroke="black" d="M1313.85,-438.751C1290.06,-429.633 1258.08,-415.155 1234,-396 1185.98,-357.798 1199.37,-321.552 1148,-288 1097.13,-254.78 1026.57,-241.939 983.168,-237.015"/>
<polygon fill="black" stroke="black" points="983.323,-233.512 973.013,-235.951 982.594,-240.474 983.323,-233.512"/>
</g>
<!-- node54&#45;&gt;node146 -->
<g id="edge80" class="edge"><title>node54&#45;&gt;node146</title>
<path fill="none" stroke="black" d="M1380.29,-447.666C1470.13,-441.212 1725.02,-421.876 1936,-396 1962.71,-392.724 1992.71,-388.09 2015.64,-384.344"/>
<polygon fill="black" stroke="black" points="2016.35,-387.775 2025.64,-382.694 2015.21,-380.869 2016.35,-387.775"/>
</g>
<!-- node54&#45;&gt;node66 -->
<g id="edge84" class="edge"><title>node54&#45;&gt;node66</title>
<path fill="none" stroke="black" d="M1313.56,-438.782C1256.72,-420.074 1137.34,-382.355 1034,-360 917.191,-334.732 776.883,-317.722 708.524,-310.275"/>
<polygon fill="black" stroke="black" points="708.502,-306.752 698.185,-309.162 707.753,-313.712 708.502,-306.752"/>
</g>
<!-- node54&#45;&gt;node55 -->
<g id="edge86" class="edge"><title>node54&#45;&gt;node55</title>
<path fill="none" stroke="black" d="M1313.67,-445.331C1227.14,-433.211 994.684,-400.648 887.949,-385.697"/>
<polygon fill="black" stroke="black" points="888.411,-382.228 878.022,-384.307 887.44,-389.16 888.411,-382.228"/>
</g>
<!-- node176 -->
<g id="node55" class="node"><title>node176</title>
<ellipse fill="none" stroke="black" cx="1763" cy="-378" rx="130.789" ry="18"/>
<text text-anchor="middle" x="1763" y="-374.7" font-family="Times Roman,serif" font-size="12.00">/usr/lib/x86_64&#45;linux&#45;gnu/libz.so</text>
</g>
<!-- node54&#45;&gt;node176 -->
<g id="edge72" class="edge"><title>node54&#45;&gt;node176</title>
<path fill="none" stroke="black" d="M1380.34,-444.23C1442.84,-433.412 1579.61,-409.741 1671.54,-393.83"/>
<polygon fill="black" stroke="black" points="1672.14,-397.277 1681.4,-392.123 1670.95,-390.38 1672.14,-397.277"/>
</g>
<!-- node177 -->
<g id="node64" class="node"><title>node177</title>
<ellipse fill="none" stroke="black" cx="1347" cy="-378" rx="70.8437" ry="18"/>
<text text-anchor="middle" x="1347" y="-374.7" font-family="Times Roman,serif" font-size="12.00">/usr/lib/libbfd.so</text>
</g>
<!-- node54&#45;&gt;node177 -->
<g id="edge88" class="edge"><title>node54&#45;&gt;node177</title>
<path fill="none" stroke="black" d="M1347,-431.831C1347,-424.131 1347,-414.974 1347,-406.417"/>
<polygon fill="black" stroke="black" points="1350.5,-406.413 1347,-396.413 1343.5,-406.413 1350.5,-406.413"/>
</g>
<!-- node178 -->
<g id="node66" class="node"><title>node178</title>
<ellipse fill="none" stroke="black" cx="1525" cy="-378" rx="89.0421" ry="18"/>
<text text-anchor="middle" x="1525" y="-374.7" font-family="Times Roman,serif" font-size="12.00">/usr/lib/libiberty_pic.a</text>
</g>
<!-- node54&#45;&gt;node178 -->
<g id="edge90" class="edge"><title>node54&#45;&gt;node178</title>
<path fill="none" stroke="black" d="M1380.06,-436.626C1406.83,-425.801 1444.94,-410.385 1475.36,-398.078"/>
<polygon fill="black" stroke="black" points="1476.99,-401.196 1484.95,-394.201 1474.36,-394.707 1476.99,-401.196"/>
</g>
<!-- node53&#45;&gt;node151 -->
<g id="edge94" class="edge"><title>node53&#45;&gt;node151</title>
<path fill="none" stroke="black" d="M2246.32,-436.249C2284.15,-417.192 2347.03,-378.796 2373,-324 2408.56,-248.969 2388.61,-194.887 2323,-144 2286.5,-115.688 1969.18,-97.3351 1859.28,-91.7802"/>
<polygon fill="black" stroke="black" points="1859.17,-88.2705 1849.01,-91.268 1858.82,-95.2618 1859.17,-88.2705"/>
</g>
<!-- node53&#45;&gt;node147 -->
<g id="edge96" class="edge"><title>node53&#45;&gt;node147</title>
<path fill="none" stroke="black" d="M2228.64,-431.882C2241.82,-413.32 2263.41,-383.879 2284,-360 2292.31,-350.362 2301.92,-340.286 2310.66,-331.483"/>
<polygon fill="black" stroke="black" points="2313.13,-333.963 2317.74,-324.426 2308.19,-329.003 2313.13,-333.963"/>
</g>
<!-- node53&#45;&gt;node146 -->
<g id="edge98" class="edge"><title>node53&#45;&gt;node146</title>
<path fill="none" stroke="black" d="M2185.72,-436.626C2158.51,-424.605 2118.48,-406.924 2089.51,-394.125"/>
<polygon fill="black" stroke="black" points="2090.7,-390.826 2080.14,-389.987 2087.87,-397.229 2090.7,-390.826"/>
</g>
<!-- node64&#45;&gt;node151 -->
<g id="edge102" class="edge"><title>node64&#45;&gt;node151</title>
<path fill="none" stroke="black" d="M1859.89,-503.882C1852.45,-484.23 1844.7,-452.877 1860,-432 1891.41,-389.144 1942.59,-438.856 1974,-396 1983.46,-383.095 1984.94,-371.674 1974,-360 1889.48,-269.823 1503.52,-414.177 1419,-324 1300.06,-197.094 1665.1,-118.31 1785.12,-96.3225"/>
<polygon fill="black" stroke="black" points="1785.75,-99.7649 1794.97,-94.5449 1784.51,-92.8762 1785.75,-99.7649"/>
</g>
<!-- node64&#45;&gt;node147 -->
<g id="edge108" class="edge"><title>node64&#45;&gt;node147</title>
<path fill="none" stroke="black" d="M1897.05,-503.9C1949.82,-471.606 2065.61,-403.384 2170,-360 2213.6,-341.878 2265.61,-325.908 2299.87,-316.126"/>
<polygon fill="black" stroke="black" points="2301.23,-319.378 2309.91,-313.293 2299.33,-312.642 2301.23,-319.378"/>
</g>
<!-- node64&#45;&gt;node146 -->
<g id="edge110" class="edge"><title>node64&#45;&gt;node146</title>
<path fill="none" stroke="black" d="M1864.54,-503.792C1861.84,-483.764 1861,-451.8 1878,-432 1918.17,-385.214 1953.82,-416.453 2012,-396 2013.42,-395.5 2014.86,-394.973 2016.31,-394.426"/>
<polygon fill="black" stroke="black" points="2017.9,-397.559 2025.88,-390.59 2015.3,-391.061 2017.9,-397.559"/>
</g>
<!-- node64&#45;&gt;node66 -->
<g id="edge104" class="edge"><title>node64&#45;&gt;node66</title>
<path fill="none" stroke="black" d="M1833.8,-520.594C1745.6,-516.564 1503.49,-502.937 1305,-468 1116.03,-434.737 1073.07,-406.871 887,-360 824.73,-344.314 752.395,-326.67 708.167,-315.947"/>
<polygon fill="black" stroke="black" points="708.904,-312.524 698.361,-313.571 707.256,-319.327 708.904,-312.524"/>
</g>
<!-- node64&#45;&gt;node54 -->
<g id="edge106" class="edge"><title>node64&#45;&gt;node54</title>
<path fill="none" stroke="black" d="M1833.97,-508.078C1829.33,-506.522 1824.59,-505.104 1820,-504 1664.72,-466.622 1474.36,-454.905 1390.35,-451.406"/>
<polygon fill="black" stroke="black" points="1390.3,-447.901 1380.17,-451.001 1390.02,-454.896 1390.3,-447.901"/>
</g>
<!-- node64&#45;&gt;node53 -->
<g id="edge112" class="edge"><title>node64&#45;&gt;node53</title>
<path fill="none" stroke="black" d="M1902,-514.965C1966.58,-501.603 2106.7,-472.613 2175.81,-458.316"/>
<polygon fill="black" stroke="black" points="2176.79,-461.688 2185.87,-456.234 2175.37,-454.833 2176.79,-461.688"/>
</g>
<!-- node99&#45;&gt;node151 -->
<g id="edge116" class="edge"><title>node99&#45;&gt;node151</title>
<path fill="none" stroke="black" d="M2334.3,-520.002C2473.74,-509.442 3100,-457.582 3100,-378 3100,-378 3100,-378 3100,-234 3100,-193.658 3244.94,-222.976 2915,-144 2810.61,-119.012 2038.71,-96.0584 1859.22,-91.0216"/>
<polygon fill="black" stroke="black" points="1859.3,-87.5226 1849.2,-90.742 1859.1,-94.5199 1859.3,-87.5226"/>
</g>
<!-- node99&#45;&gt;node147 -->
<g id="edge118" class="edge"><title>node99&#45;&gt;node147</title>
<path fill="none" stroke="black" d="M2307.62,-503.877C2308.89,-473.777 2312.51,-411.672 2322,-360 2323.57,-351.427 2325.88,-342.242 2328.22,-333.923"/>
<polygon fill="black" stroke="black" points="2331.59,-334.885 2331.04,-324.304 2324.87,-332.918 2331.59,-334.885"/>
</g>
<!-- node99&#45;&gt;node146 -->
<g id="edge120" class="edge"><title>node99&#45;&gt;node146</title>
<path fill="none" stroke="black" d="M2301.32,-503.946C2293.94,-483.44 2279.06,-450.445 2255,-432 2229.26,-412.268 2141.04,-393.772 2090.1,-384.401"/>
<polygon fill="black" stroke="black" points="2090.6,-380.935 2080.13,-382.597 2089.35,-387.823 2090.6,-380.935"/>
</g>
<!-- node99&#45;&gt;node53 -->
<g id="edge122" class="edge"><title>node99&#45;&gt;node53</title>
<path fill="none" stroke="black" d="M2284.04,-503.831C2272.83,-494.963 2259.18,-484.164 2247.06,-474.572"/>
<polygon fill="black" stroke="black" points="2248.97,-471.623 2238.96,-468.163 2244.63,-477.112 2248.97,-471.623"/>
</g>
<!-- node56&#45;&gt;node151 -->
<g id="edge126" class="edge"><title>node56&#45;&gt;node151</title>
<path fill="none" stroke="black" d="M1807.42,-575.805C1807.37,-543.057 1811.88,-473.722 1848,-432 1871.94,-404.35 1902.6,-427.007 1922,-396 1930.49,-382.436 1932.92,-371.692 1922,-360 1841.72,-274.058 1474.28,-409.942 1394,-324 1331.96,-257.591 1407.66,-180.246 1491,-144 1543.29,-121.257 1709.33,-101.705 1784.45,-93.7741"/>
<polygon fill="black" stroke="black" points="1785.26,-97.2081 1794.85,-92.6893 1784.54,-90.2458 1785.26,-97.2081"/>
</g>
<!-- node56&#45;&gt;node153 -->
<g id="edge128" class="edge"><title>node56&#45;&gt;node153</title>
<path fill="none" stroke="black" d="M1775.86,-593.525C1606.96,-590.88 825.885,-576.732 725,-540 675.219,-521.875 656.056,-514.128 630,-468 578.813,-377.38 592.951,-246.815 602.511,-190.084"/>
<polygon fill="black" stroke="black" points="605.988,-190.523 604.284,-180.066 599.095,-189.303 605.988,-190.523"/>
</g>
<!-- node56&#45;&gt;node149 -->
<g id="edge130" class="edge"><title>node56&#45;&gt;node149</title>
<path fill="none" stroke="black" d="M1775.81,-593.088C1614.49,-588.425 892.808,-566.428 670,-540 500.604,-519.907 401.72,-599.449 293,-468 244.034,-408.798 270.662,-309.421 287.937,-261.493"/>
<polygon fill="black" stroke="black" points="291.233,-262.672 291.451,-252.079 284.675,-260.224 291.233,-262.672"/>
</g>
<!-- node56&#45;&gt;node59 -->
<g id="edge132" class="edge"><title>node56&#45;&gt;node59</title>
<path fill="none" stroke="black" d="M1775.77,-591.293C1632.22,-578.812 1058,-524.249 1058,-450 1058,-450 1058,-450 1058,-378 1058,-327.147 1013.76,-283.767 980.394,-258.286"/>
<polygon fill="black" stroke="black" points="982.298,-255.341 972.18,-252.2 978.131,-260.966 982.298,-255.341"/>
</g>
<!-- node56&#45;&gt;node147 -->
<g id="edge134" class="edge"><title>node56&#45;&gt;node147</title>
<path fill="none" stroke="black" d="M1840.05,-582.681C1866.85,-572.746 1905.78,-557.222 1938,-540 2001.6,-506.009 2144.45,-394.079 2208,-360 2238.07,-343.874 2274.01,-329.179 2300.3,-319.204"/>
<polygon fill="black" stroke="black" points="2301.74,-322.403 2309.88,-315.618 2299.28,-315.848 2301.74,-322.403"/>
</g>
<!-- node56&#45;&gt;node146 -->
<g id="edge136" class="edge"><title>node56&#45;&gt;node146</title>
<path fill="none" stroke="black" d="M1840.34,-582.8C1862.34,-573.903 1890.99,-559.674 1911,-540 1950.01,-501.657 1932.84,-472.132 1970,-432 1983.28,-417.66 2001.13,-405.407 2016.88,-396.215"/>
<polygon fill="black" stroke="black" points="2018.86,-399.118 2025.86,-391.164 2015.43,-393.017 2018.86,-399.118"/>
</g>
<!-- node56&#45;&gt;node150 -->
<g id="edge138" class="edge"><title>node56&#45;&gt;node150</title>
<path fill="none" stroke="black" d="M1840.04,-585.302C1854.31,-581.792 1871.38,-578.086 1887,-576 2140.23,-542.167 2962.23,-525.906 3146.93,-522.63"/>
<polygon fill="black" stroke="black" points="3147.02,-526.129 3156.95,-522.454 3146.89,-519.13 3147.02,-526.129"/>
</g>
<!-- node56&#45;&gt;node66 -->
<g id="edge140" class="edge"><title>node56&#45;&gt;node66</title>
<path fill="none" stroke="black" d="M1775.91,-593.153C1596.28,-588.071 720.736,-558.735 648,-468 617.158,-429.526 637.064,-368.441 652.95,-333.304"/>
<polygon fill="black" stroke="black" points="656.18,-334.66 657.279,-324.122 649.848,-331.675 656.18,-334.66"/>
</g>
<!-- node56&#45;&gt;node55 -->
<g id="edge142" class="edge"><title>node56&#45;&gt;node55</title>
<path fill="none" stroke="black" d="M1775.6,-593.805C1648.38,-592.717 1183.14,-585.637 1044,-540 963.905,-513.729 890.766,-442.572 855.377,-403.887"/>
<polygon fill="black" stroke="black" points="857.703,-401.239 848.409,-396.152 852.502,-405.925 857.703,-401.239"/>
</g>
<!-- node56&#45;&gt;node54 -->
<g id="edge144" class="edge"><title>node56&#45;&gt;node54</title>
<path fill="none" stroke="black" d="M1775.95,-583.989C1694.86,-558.66 1481.52,-492.018 1389.85,-463.386"/>
<polygon fill="black" stroke="black" points="1390.66,-459.971 1380.07,-460.33 1388.57,-466.652 1390.66,-459.971"/>
</g>
<!-- node56&#45;&gt;node53 -->
<g id="edge146" class="edge"><title>node56&#45;&gt;node53</title>
<path fill="none" stroke="black" d="M1840.15,-585.973C1854.44,-582.589 1871.49,-578.794 1887,-576 2006.14,-554.53 2054.53,-604.464 2157,-540 2169.29,-532.271 2188.39,-500.771 2201.51,-477.202"/>
<polygon fill="black" stroke="black" points="2204.65,-478.76 2206.39,-468.309 2198.51,-475.393 2204.65,-478.76"/>
</g>
<!-- node56&#45;&gt;node64 -->
<g id="edge148" class="edge"><title>node56&#45;&gt;node64</title>
<path fill="none" stroke="black" d="M1823.14,-575.831C1830.12,-567.454 1838.54,-557.353 1846.19,-548.175"/>
<polygon fill="black" stroke="black" points="1848.94,-550.336 1852.66,-540.413 1843.56,-545.855 1848.94,-550.336"/>
</g>
<!-- node56&#45;&gt;node99 -->
<g id="edge168" class="edge"><title>node56&#45;&gt;node99</title>
<path fill="none" stroke="black" d="M1840.13,-585.868C1854.41,-582.464 1871.48,-578.683 1887,-576 2020.63,-552.904 2055.63,-558.313 2190,-540 2216.66,-536.366 2246.66,-531.74 2269.61,-528.088"/>
<polygon fill="black" stroke="black" points="2270.3,-531.522 2279.62,-526.485 2269.19,-524.61 2270.3,-531.522"/>
</g>
<!-- node63 -->
<g id="node101" class="node"><title>node63</title>
<polygon fill="none" stroke="black" points="2148,-540 2072,-540 2072,-504 2148,-504 2148,-540"/>
<text text-anchor="middle" x="2110" y="-518.7" font-family="Times Roman,serif" font-size="12.00">thorhelper</text>
</g>
<!-- node56&#45;&gt;node63 -->
<g id="edge150" class="edge"><title>node56&#45;&gt;node63</title>
<path fill="none" stroke="black" d="M1840.26,-586.523C1854.57,-583.24 1871.61,-579.373 1887,-576 1962.87,-559.373 1983.16,-560.744 2058,-540 2059.41,-539.609 2060.84,-539.201 2062.27,-538.778"/>
<polygon fill="black" stroke="black" points="2063.31,-542.12 2071.83,-535.822 2061.25,-535.433 2063.31,-542.12"/>
</g>
<!-- node63&#45;&gt;node151 -->
<g id="edge152" class="edge"><title>node63&#45;&gt;node151</title>
<path fill="none" stroke="black" d="M2114.72,-503.873C2120.1,-485.044 2130,-455.154 2144,-432 2166.16,-395.364 2178.85,-391.357 2208,-360 2223.19,-343.657 2234.61,-344.676 2243,-324 2249.02,-309.175 2247.64,-303.313 2243,-288 2194.94,-129.266 1953.12,-97.7868 1859.29,-91.5442"/>
<polygon fill="black" stroke="black" points="1859.32,-88.0393 1849.12,-90.929 1858.89,-95.0265 1859.32,-88.0393"/>
</g>
<!-- node63&#45;&gt;node147 -->
<g id="edge154" class="edge"><title>node63&#45;&gt;node147</title>
<path fill="none" stroke="black" d="M2122.23,-503.705C2135.04,-485.001 2156.18,-455.45 2177,-432 2207.9,-397.209 2216.38,-388.706 2253,-360 2268.06,-348.198 2285.74,-336.537 2300.99,-327.089"/>
<polygon fill="black" stroke="black" points="2302.94,-329.999 2309.64,-321.797 2299.29,-324.026 2302.94,-329.999"/>
</g>
<!-- node63&#45;&gt;node146 -->
<g id="edge156" class="edge"><title>node63&#45;&gt;node146</title>
<path fill="none" stroke="black" d="M2102.78,-503.762C2092.97,-478.985 2075.35,-434.471 2063.92,-405.594"/>
<polygon fill="black" stroke="black" points="2067.1,-404.099 2060.16,-396.09 2060.59,-406.676 2067.1,-404.099"/>
</g>
<!-- node63&#45;&gt;node53 -->
<g id="edge158" class="edge"><title>node63&#45;&gt;node53</title>
<path fill="none" stroke="black" d="M2136.75,-503.831C2150.06,-494.793 2166.32,-483.748 2180.64,-474.02"/>
<polygon fill="black" stroke="black" points="2182.95,-476.677 2189.26,-468.163 2179.02,-470.886 2182.95,-476.677"/>
</g>
<!-- node63&#45;&gt;node156 -->
<g id="edge160" class="edge"><title>node63&#45;&gt;node156</title>
<path fill="none" stroke="black" d="M2148.22,-516.108C2230.16,-503.474 2423.17,-473.717 2519.79,-458.82"/>
<polygon fill="black" stroke="black" points="2520.33,-462.279 2529.68,-457.296 2519.26,-455.36 2520.33,-462.279"/>
</g>
<!-- node156&#45;&gt;node151 -->
<g id="edge162" class="edge"><title>node156&#45;&gt;node151</title>
<path fill="none" stroke="black" d="M2624.31,-447.617C2736.65,-441.527 3012.41,-423.876 3043,-396 3073.22,-368.463 3062,-346.882 3062,-306 3062,-306 3062,-306 3062,-234 3062,-109.649 2065.35,-92.5246 1859.09,-90.3121"/>
<polygon fill="black" stroke="black" points="1859.09,-86.812 1849.05,-90.2097 1859.02,-93.8117 1859.09,-86.812"/>
</g>
<!-- node191 -->
<g id="node110" class="node"><title>node191</title>
<ellipse fill="none" stroke="black" cx="2577" cy="-378" rx="137.138" ry="18"/>
<text text-anchor="middle" x="2577" y="-374.7" font-family="Times Roman,serif" font-size="12.00">/usr/lib/x86_64&#45;linux&#45;gnu/libssl.so</text>
</g>
<!-- node156&#45;&gt;node191 -->
<g id="edge164" class="edge"><title>node156&#45;&gt;node191</title>
<path fill="none" stroke="black" d="M2577,-431.831C2577,-424.131 2577,-414.974 2577,-406.417"/>
<polygon fill="black" stroke="black" points="2580.5,-406.413 2577,-396.413 2573.5,-406.413 2580.5,-406.413"/>
</g>
<!-- node192 -->
<g id="node112" class="node"><title>node192</title>
<ellipse fill="none" stroke="black" cx="2883" cy="-378" rx="150.937" ry="18"/>
<text text-anchor="middle" x="2883" y="-374.7" font-family="Times Roman,serif" font-size="12.00">/usr/lib/x86_64&#45;linux&#45;gnu/libcrypto.so</text>
</g>
<!-- node156&#45;&gt;node192 -->
<g id="edge166" class="edge"><title>node156&#45;&gt;node192</title>
<path fill="none" stroke="black" d="M2624.14,-438.908C2672.14,-427.614 2747.4,-409.905 2804.43,-396.487"/>
<polygon fill="black" stroke="black" points="2805.56,-399.817 2814.49,-394.119 2803.96,-393.003 2805.56,-399.817"/>
</g>
<!-- node160&#45;&gt;node151 -->
<g id="edge178" class="edge"><title>node160&#45;&gt;node151</title>
<path fill="none" stroke="black" d="M3456.11,-448.336C3541.48,-442.823 3800.65,-423.901 3825,-396 3835.52,-383.946 3834.19,-373.098 3825,-360 3662.94,-129.018 3504.94,-198.057 3228,-144 3090.36,-117.134 2068.36,-95.0166 1859.29,-90.7456"/>
<polygon fill="black" stroke="black" points="1859.2,-87.2431 1849.14,-90.539 1859.06,-94.2416 1859.2,-87.2431"/>
</g>
<!-- node180 -->
<g id="node117" class="node"><title>node180</title>
<ellipse fill="none" stroke="black" cx="3731" cy="-378" rx="85.1424" ry="18"/>
<text text-anchor="middle" x="3731" y="-374.7" font-family="Times Roman,serif" font-size="12.00">/usr/lib/libxalan&#45;c.so</text>
</g>
<!-- node160&#45;&gt;node180 -->
<g id="edge172" class="edge"><title>node160&#45;&gt;node180</title>
<path fill="none" stroke="black" d="M3456.07,-443.547C3502.61,-432.45 3599.11,-409.445 3664.47,-393.862"/>
<polygon fill="black" stroke="black" points="3665.36,-397.247 3674.28,-391.523 3663.74,-390.438 3665.36,-397.247"/>
</g>
<!-- node181 -->
<g id="node119" class="node"><title>node181</title>
<ellipse fill="none" stroke="black" cx="3335" cy="-378" rx="93.0912" ry="18"/>
<text text-anchor="middle" x="3335" y="-374.7" font-family="Times Roman,serif" font-size="12.00">/usr/lib/libxalanMsg.so</text>
</g>
<!-- node160&#45;&gt;node181 -->
<g id="edge174" class="edge"><title>node160&#45;&gt;node181</title>
<path fill="none" stroke="black" d="M3405.28,-431.831C3393.41,-422.741 3378.9,-411.622 3366.14,-401.854"/>
<polygon fill="black" stroke="black" points="3368.13,-398.967 3358.06,-395.665 3363.87,-404.524 3368.13,-398.967"/>
</g>
<!-- node182 -->
<g id="node121" class="node"><title>node182</title>
<ellipse fill="none" stroke="black" cx="3537" cy="-378" rx="90.9919" ry="18"/>
<text text-anchor="middle" x="3537" y="-374.7" font-family="Times Roman,serif" font-size="12.00">/usr/lib/libxerces&#45;c.so</text>
</g>
<!-- node160&#45;&gt;node182 -->
<g id="edge176" class="edge"><title>node160&#45;&gt;node182</title>
<path fill="none" stroke="black" d="M3456.25,-431.831C3470.25,-422.498 3487.46,-411.026 3502.39,-401.074"/>
<polygon fill="black" stroke="black" points="3504.49,-403.877 3510.87,-395.418 3500.61,-398.053 3504.49,-403.877"/>
</g>
<!-- node110&#45;&gt;node151 -->
<g id="edge188" class="edge"><title>node110&#45;&gt;node151</title>
<path fill="none" stroke="black" d="M3278.94,-503.96C3254.16,-478.456 3214,-429.228 3214,-378 3214,-378 3214,-378 3214,-234 3214,-190.752 3212.44,-168.786 3177,-144 3121.5,-105.189 2070.94,-92.5196 1859.06,-90.3542"/>
<polygon fill="black" stroke="black" points="1859.09,-86.8545 1849.05,-90.2535 1859.02,-93.8541 1859.09,-86.8545"/>
</g>
<!-- node110&#45;&gt;node160 -->
<g id="edge190" class="edge"><title>node110&#45;&gt;node160</title>
<path fill="none" stroke="black" d="M3329.05,-504.937C3348.2,-494.407 3372.86,-480.855 3392.89,-469.846"/>
<polygon fill="black" stroke="black" points="3394.65,-472.871 3401.73,-464.987 3391.28,-466.736 3394.65,-472.871"/>
</g>
<!-- node110&#45;&gt;node180 -->
<g id="edge182" class="edge"><title>node110&#45;&gt;node180</title>
<path fill="none" stroke="black" d="M3318.14,-503.97C3329.64,-493.576 3344.26,-480.191 3357,-468 3373.35,-452.358 3372.78,-442.166 3393,-432 3490.93,-382.752 3528.92,-414.312 3637,-396 3644.04,-394.807 3651.36,-393.508 3658.68,-392.171"/>
<polygon fill="black" stroke="black" points="3659.43,-395.593 3668.62,-390.332 3658.15,-388.709 3659.43,-395.593"/>
</g>
<!-- node110&#45;&gt;node181 -->
<g id="edge184" class="edge"><title>node110&#45;&gt;node181</title>
<path fill="none" stroke="black" d="M3302.69,-503.762C3309.02,-479.093 3320.39,-434.86 3327.81,-405.973"/>
<polygon fill="black" stroke="black" points="3331.25,-406.646 3330.35,-396.09 3324.47,-404.904 3331.25,-406.646"/>
</g>
<!-- node110&#45;&gt;node182 -->
<g id="edge186" class="edge"><title>node110&#45;&gt;node182</title>
<path fill="none" stroke="black" d="M3306,-503.716C3315.84,-483.312 3334.43,-450.715 3360,-432 3377.52,-419.176 3425.88,-404.84 3467.63,-394.164"/>
<polygon fill="black" stroke="black" points="3468.69,-397.508 3477.53,-391.67 3466.98,-390.72 3468.69,-397.508"/>
</g>
<!-- node78&#45;&gt;node151 -->
<g id="edge194" class="edge"><title>node78&#45;&gt;node151</title>
<path fill="none" stroke="black" d="M711.086,-446.549C755.006,-440.321 843.906,-425.063 914,-396 1012.09,-355.329 1219.59,-178.543 1320,-144 1406.26,-114.326 1684.08,-97.209 1784.96,-91.8454"/>
<polygon fill="black" stroke="black" points="1785.19,-95.3384 1794.99,-91.32 1784.82,-88.348 1785.19,-95.3384"/>
</g>
<!-- node78&#45;&gt;node153 -->
<g id="edge196" class="edge"><title>node78&#45;&gt;node153</title>
<path fill="none" stroke="black" d="M673.642,-431.889C660.491,-407.996 638.175,-364.254 627,-324 614.342,-278.403 610.113,-223.305 608.703,-190.539"/>
<polygon fill="black" stroke="black" points="612.193,-190.193 608.325,-180.329 605.197,-190.452 612.193,-190.193"/>
</g>
<!-- node78&#45;&gt;node149 -->
<g id="edge198" class="edge"><title>node78&#45;&gt;node149</title>
<path fill="none" stroke="black" d="M656.928,-434.811C589,-396.701 411.325,-297.019 334.853,-254.115"/>
<polygon fill="black" stroke="black" points="336.476,-251.012 326.043,-249.172 333.051,-257.117 336.476,-251.012"/>
</g>
<!-- node78&#45;&gt;node59 -->
<g id="edge200" class="edge"><title>node78&#45;&gt;node59</title>
<path fill="none" stroke="black" d="M711.283,-445.958C760.487,-438.162 861.361,-419.706 887,-396 925.092,-360.781 937.735,-298.598 941.927,-262.375"/>
<polygon fill="black" stroke="black" points="945.449,-262.328 942.975,-252.026 938.485,-261.622 945.449,-262.328"/>
</g>
<!-- node78&#45;&gt;node66 -->
<g id="edge202" class="edge"><title>node78&#45;&gt;node66</title>
<path fill="none" stroke="black" d="M691.18,-431.837C697.42,-413.491 704.518,-384.447 698,-360 695.505,-350.642 690.959,-341.22 686.104,-332.925"/>
<polygon fill="black" stroke="black" points="689.061,-331.052 680.796,-324.423 683.123,-334.759 689.061,-331.052"/>
</g>
<!-- node78&#45;&gt;node55 -->
<g id="edge204" class="edge"><title>node78&#45;&gt;node55</title>
<path fill="none" stroke="black" d="M711.329,-436.794C732.337,-426.643 761.846,-412.383 786.542,-400.45"/>
<polygon fill="black" stroke="black" points="788.262,-403.505 795.743,-396.003 785.217,-397.203 788.262,-403.505"/>
</g>
<!-- node127&#45;&gt;node151 -->
<g id="edge208" class="edge"><title>node127&#45;&gt;node151</title>
<path fill="none" stroke="black" d="M1954.09,-591.996C2138.55,-578.908 3138,-502.264 3138,-378 3138,-378 3138,-378 3138,-234 3138,-211.101 3194.79,-205.336 3001,-144 2890.09,-108.897 2048.19,-93.5792 1859.46,-90.5674"/>
<polygon fill="black" stroke="black" points="1859.28,-87.0641 1849.22,-90.4058 1859.17,-94.0632 1859.28,-87.0641"/>
</g>
<!-- node127&#45;&gt;node59 -->
<g id="edge210" class="edge"><title>node127&#45;&gt;node59</title>
<path fill="none" stroke="black" d="M1895.92,-586.342C1881.83,-582.829 1864.61,-578.826 1849,-576 1606.45,-532.087 1528.42,-572.124 1305,-468 1253.71,-444.098 1246.64,-428.035 1200,-396 1130.19,-348.052 1115.16,-332.337 1043,-288 1031.81,-281.123 1005.15,-266.619 982.312,-254.373"/>
<polygon fill="black" stroke="black" points="983.933,-251.271 973.464,-249.639 980.63,-257.443 983.933,-251.271"/>
</g>
<!-- node127&#45;&gt;node147 -->
<g id="edge224" class="edge"><title>node127&#45;&gt;node147</title>
<path fill="none" stroke="black" d="M1954.24,-592.418C2044.99,-587.214 2317.27,-569.264 2343,-540 2393.73,-482.299 2366.26,-382.206 2348.42,-333.801"/>
<polygon fill="black" stroke="black" points="2351.63,-332.386 2344.8,-324.29 2345.09,-334.881 2351.63,-332.386"/>
</g>
<!-- node127&#45;&gt;node146 -->
<g id="edge226" class="edge"><title>node127&#45;&gt;node146</title>
<path fill="none" stroke="black" d="M1931.36,-575.761C1944.46,-538.766 1974.65,-456.352 1992,-432 1999.71,-421.185 2009.97,-411.038 2019.87,-402.525"/>
<polygon fill="black" stroke="black" points="2022.21,-405.137 2027.68,-396.067 2017.74,-399.742 2022.21,-405.137"/>
</g>
<!-- node127&#45;&gt;node66 -->
<g id="edge216" class="edge"><title>node127&#45;&gt;node66</title>
<path fill="none" stroke="black" d="M1896,-585.866C1881.92,-582.244 1864.7,-578.288 1849,-576 1570.6,-535.423 1494,-589.239 1217,-540 1108.61,-520.733 1084.52,-502.572 980,-468 889.909,-438.199 861.796,-442.361 779,-396 746.822,-377.982 714.456,-350.759 692.851,-330.971"/>
<polygon fill="black" stroke="black" points="695.107,-328.29 685.399,-324.048 690.343,-333.419 695.107,-328.29"/>
</g>
<!-- node127&#45;&gt;node55 -->
<g id="edge218" class="edge"><title>node127&#45;&gt;node55</title>
<path fill="none" stroke="black" d="M1895.98,-585.993C1881.9,-582.4 1864.68,-578.431 1849,-576 1638.47,-543.349 1580.47,-578.896 1371,-540 1190.19,-506.425 983.918,-434.445 887.741,-398.833"/>
<polygon fill="black" stroke="black" points="888.82,-395.5 878.227,-395.295 886.38,-402.061 888.82,-395.5"/>
</g>
<!-- node127&#45;&gt;node54 -->
<g id="edge222" class="edge"><title>node127&#45;&gt;node54</title>
<path fill="none" stroke="black" d="M1895.94,-586.76C1801.37,-563.2 1502.05,-488.628 1389.95,-460.699"/>
<polygon fill="black" stroke="black" points="1390.56,-457.244 1380.01,-458.223 1388.86,-464.037 1390.56,-457.244"/>
</g>
<!-- node127&#45;&gt;node53 -->
<g id="edge228" class="edge"><title>node127&#45;&gt;node53</title>
<path fill="none" stroke="black" d="M1954.38,-591.795C2016,-586.587 2155.84,-571.524 2190,-540 2207.02,-524.293 2213.15,-498.211 2215.24,-478.157"/>
<polygon fill="black" stroke="black" points="2218.74,-478.262 2216.01,-468.024 2211.76,-477.728 2218.74,-478.262"/>
</g>
<!-- node127&#45;&gt;node64 -->
<g id="edge230" class="edge"><title>node127&#45;&gt;node64</title>
<path fill="none" stroke="black" d="M1910.62,-575.831C1904.05,-567.539 1896.15,-557.557 1888.94,-548.453"/>
<polygon fill="black" stroke="black" points="1891.53,-546.081 1882.58,-540.413 1886.04,-550.426 1891.53,-546.081"/>
</g>
<!-- node127&#45;&gt;node160 -->
<g id="edge212" class="edge"><title>node127&#45;&gt;node160</title>
<path fill="none" stroke="black" d="M1954.3,-593.482C2150.91,-589.934 3272.26,-568.498 3338,-540 3368.78,-526.659 3394.9,-497.756 3411.16,-476.283"/>
<polygon fill="black" stroke="black" points="3414.01,-478.314 3417.1,-468.179 3408.36,-474.176 3414.01,-478.314"/>
</g>
<!-- node127&#45;&gt;node110 -->
<g id="edge214" class="edge"><title>node127&#45;&gt;node110</title>
<path fill="none" stroke="black" d="M1954.15,-593.519C2121.68,-590.64 2963.41,-574.652 3220,-540 3232.04,-538.374 3244.95,-535.761 3256.73,-533.023"/>
<polygon fill="black" stroke="black" points="3257.84,-536.355 3266.74,-530.607 3256.2,-529.55 3257.84,-536.355"/>
</g>
<!-- node127&#45;&gt;node78 -->
<g id="edge220" class="edge"><title>node127&#45;&gt;node78</title>
<path fill="none" stroke="black" d="M1895.65,-585.704C1881.64,-582.092 1864.58,-578.191 1849,-576 1511.06,-528.47 1420.18,-585.811 1082,-540 947.176,-521.736 790.643,-480.222 720.856,-460.622"/>
<polygon fill="black" stroke="black" points="721.776,-457.245 711.201,-457.895 719.873,-463.982 721.776,-457.245"/>
</g>
<!-- node77&#45;&gt;node151 -->
<g id="edge234" class="edge"><title>node77&#45;&gt;node151</title>
<path fill="none" stroke="black" d="M325.798,-431.894C290.939,-390.657 215.674,-287.771 263,-216 307.719,-148.182 351.756,-161.874 431,-144 566.268,-113.489 1577.01,-94.283 1784.74,-90.6349"/>
<polygon fill="black" stroke="black" points="1784.91,-94.1327 1794.84,-90.4587 1784.78,-87.1338 1784.91,-94.1327"/>
</g>
<!-- node77&#45;&gt;node153 -->
<g id="edge236" class="edge"><title>node77&#45;&gt;node153</title>
<path fill="none" stroke="black" d="M344.039,-431.77C346.886,-412.587 353.447,-382.159 368,-360 421.679,-278.267 519.452,-213.118 572.116,-181.969"/>
<polygon fill="black" stroke="black" points="573.914,-184.972 580.785,-176.908 570.385,-178.927 573.914,-184.972"/>
</g>
<!-- node77&#45;&gt;node149 -->
<g id="edge238" class="edge"><title>node77&#45;&gt;node149</title>
<path fill="none" stroke="black" d="M336.854,-431.59C334.041,-421.189 330.608,-407.921 328,-396 317.794,-349.357 308.556,-294.578 303.37,-262.161"/>
<polygon fill="black" stroke="black" points="306.793,-261.398 301.771,-252.068 299.879,-262.493 306.793,-261.398"/>
</g>
<!-- node77&#45;&gt;node59 -->
<g id="edge240" class="edge"><title>node77&#45;&gt;node59</title>
<path fill="none" stroke="black" d="M382.108,-436.601C449.458,-414.001 589.455,-366.596 707,-324 777.31,-298.521 858.693,-267.216 905.476,-249.043"/>
<polygon fill="black" stroke="black" points="906.866,-252.258 914.918,-245.372 904.329,-245.734 906.866,-252.258"/>
</g>
<!-- node77&#45;&gt;node66 -->
<g id="edge242" class="edge"><title>node77&#45;&gt;node66</title>
<path fill="none" stroke="black" d="M349.521,-431.647C359.029,-410.862 377.425,-377.603 404,-360 439.891,-336.226 560.914,-318.646 625.53,-310.699"/>
<polygon fill="black" stroke="black" points="626.264,-314.136 635.772,-309.462 625.425,-307.186 626.264,-314.136"/>
</g>
<!-- node77&#45;&gt;node55 -->
<g id="edge244" class="edge"><title>node77&#45;&gt;node55</title>
<path fill="none" stroke="black" d="M382.181,-444.108C469.667,-431.279 677.541,-400.796 777.475,-386.142"/>
<polygon fill="black" stroke="black" points="778.283,-389.561 787.669,-384.647 777.267,-382.635 778.283,-389.561"/>
</g>
<!-- node155&#45;&gt;node151 -->
<g id="edge248" class="edge"><title>node155&#45;&gt;node151</title>
<path fill="none" stroke="black" d="M4012.97,-575.93C3999.6,-566.818 3985.09,-554.587 3976,-540 3954.37,-505.307 3957,-490.882 3957,-450 3957,-450 3957,-450 3957,-234 3957,-193.118 3969.42,-170.153 3938,-144 3896.41,-109.385 2139.24,-92.7471 1859.39,-90.3148"/>
<polygon fill="black" stroke="black" points="1859.37,-86.8145 1849.34,-90.228 1859.31,-93.8142 1859.37,-86.8145"/>
</g>
<!-- node189 -->
<g id="node164" class="node"><title>node189</title>
<ellipse fill="none" stroke="black" cx="4134" cy="-522" rx="148.987" ry="18"/>
<text text-anchor="middle" x="4134" y="-518.7" font-family="Times Roman,serif" font-size="12.00">/usr/lib/x86_64&#45;linux&#45;gnu/libldap_r.so</text>
</g>
<!-- node155&#45;&gt;node189 -->
<g id="edge250" class="edge"><title>node155&#45;&gt;node189</title>
<path fill="none" stroke="black" d="M4067.46,-575.831C4078.5,-566.896 4091.97,-555.999 4103.9,-546.352"/>
<polygon fill="black" stroke="black" points="4106.28,-548.924 4111.86,-539.913 4101.88,-543.482 4106.28,-548.924"/>
</g>
<!-- node190 -->
<g id="node166" class="node"><title>node190</title>
<ellipse fill="none" stroke="black" cx="4441" cy="-522" rx="139.888" ry="18"/>
<text text-anchor="middle" x="4441" y="-518.7" font-family="Times Roman,serif" font-size="12.00">/usr/lib/x86_64&#45;linux&#45;gnu/liblber.so</text>
</g>
<!-- node155&#45;&gt;node190 -->
<g id="edge252" class="edge"><title>node155&#45;&gt;node190</title>
<path fill="none" stroke="black" d="M4091.2,-585.6C4154.4,-574.109 4269.16,-553.244 4349.96,-538.553"/>
<polygon fill="black" stroke="black" points="4350.92,-541.935 4360.13,-536.703 4349.67,-535.048 4350.92,-541.935"/>
</g>
<!-- node74&#45;&gt;node151 -->
<g id="edge258" class="edge"><title>node74&#45;&gt;node151</title>
<path fill="none" stroke="black" d="M390.878,-588.694C309.988,-572.101 76,-518.208 76,-450 76,-450 76,-450 76,-234 76,-129.59 190.976,-166.197 293,-144 442.786,-111.411 1565.71,-93.6865 1784.95,-90.5178"/>
<polygon fill="black" stroke="black" points="1785.04,-94.017 1794.99,-90.3738 1784.94,-87.0177 1785.04,-94.017"/>
</g>
<!-- node74&#45;&gt;node153 -->
<g id="edge260" class="edge"><title>node74&#45;&gt;node153</title>
<path fill="none" stroke="black" d="M390.993,-577.843C357.817,-556.651 302.012,-516.415 270,-468 224.519,-399.214 205.173,-368.043 225,-288 233.7,-252.878 233.556,-237.03 263,-216 311.826,-181.127 491.403,-167.898 570.346,-163.692"/>
<polygon fill="black" stroke="black" points="570.986,-167.164 580.794,-163.157 570.628,-160.173 570.986,-167.164"/>
</g>
<!-- node74&#45;&gt;node149 -->
<g id="edge262" class="edge"><title>node74&#45;&gt;node149</title>
<path fill="none" stroke="black" d="M390.767,-582.094C351.192,-563.434 278.046,-523.6 237,-468 207.852,-428.517 202.2,-407.637 214,-360 223.69,-320.88 252.074,-283.589 273.396,-259.87"/>
<polygon fill="black" stroke="black" points="276.112,-262.087 280.319,-252.363 270.966,-257.341 276.112,-262.087"/>
</g>
<!-- node74&#45;&gt;node59 -->
<g id="edge264" class="edge"><title>node74&#45;&gt;node59</title>
<path fill="none" stroke="black" d="M443.386,-575.819C485.626,-545.636 573.105,-483.415 648,-432 741.137,-368.063 852.119,-294.524 908.022,-257.664"/>
<polygon fill="black" stroke="black" points="910.086,-260.496 916.51,-252.071 906.234,-254.651 910.086,-260.496"/>
</g>
<!-- node74&#45;&gt;node66 -->
<g id="edge266" class="edge"><title>node74&#45;&gt;node66</title>
<path fill="none" stroke="black" d="M420.704,-575.986C428.135,-532.65 452.828,-421.61 518,-360 547.588,-332.028 592.758,-318.351 625.608,-311.789"/>
<polygon fill="black" stroke="black" points="626.611,-315.163 635.806,-309.899 625.335,-308.28 626.611,-315.163"/>
</g>
<!-- node74&#45;&gt;node64 -->
<g id="edge256" class="edge"><title>node74&#45;&gt;node64</title>
<path fill="none" stroke="black" d="M445.035,-592.658C620.88,-583.926 1601.89,-535.214 1823.51,-524.209"/>
<polygon fill="black" stroke="black" points="1823.96,-527.691 1833.78,-523.699 1823.62,-520.7 1823.96,-527.691"/>
</g>
<!-- node60&#45;&gt;node151 -->
<g id="edge272" class="edge"><title>node60&#45;&gt;node151</title>
<path fill="none" stroke="black" d="M3834.99,-146.814C3830.3,-145.697 3825.58,-144.725 3821,-144 3620.49,-112.265 2117.74,-93.443 1859.67,-90.4286"/>
<polygon fill="black" stroke="black" points="1859.37,-86.925 1849.33,-90.3085 1859.29,-93.9245 1859.37,-86.925"/>
</g>
</g>
</svg>
