<?xml version="1.0" encoding="UTF-8" standalone="no"?>
<!DOCTYPE svg PUBLIC "-//W3C//DTD SVG 1.1//EN"
 "http://www.w3.org/Graphics/SVG/1.1/DTD/svg11.dtd">
<!-- Generated by graphviz version 2.26.3 (20100126.1600)
 -->
<!-- Title: GG Pages: 1 -->
<svg width="766pt" height="260pt"
 viewBox="0.00 0.00 766.00 260.00" xmlns="http://www.w3.org/2000/svg" xmlns:xlink="http://www.w3.org/1999/xlink">
<g id="graph1" class="graph" transform="scale(1 1) rotate(0) translate(4 256)">
<title>GG</title>
<polygon fill="white" stroke="white" points="-4,5 -4,-256 763,-256 763,5 -4,5"/>
<!-- node110 -->
<g id="node1" class="node"><title>node110</title>
<polygon fill="none" stroke="black" points="401,-252 339,-252 339,-216 401,-216 401,-252"/>
<text text-anchor="middle" x="370" y="-230.7" font-family="Times Roman,serif" font-size="12.00">esphttp</text>
</g>
<!-- node180 -->
<g id="node2" class="node"><title>node180</title>
<ellipse fill="none" stroke="black" cx="85" cy="-90" rx="85.1424" ry="18"/>
<text text-anchor="middle" x="85" y="-86.7" font-family="Times Roman,serif" font-size="12.00">/usr/lib/libxalan&#45;c.so</text>
</g>
<!-- node110&#45;&gt;node180 -->
<g id="edge2" class="edge"><title>node110&#45;&gt;node180</title>
<path fill="none" stroke="black" d="M338.957,-218.315C287.71,-192.422 185.329,-140.693 127.436,-111.441"/>
<polygon fill="black" stroke="black" points="128.701,-108.159 118.197,-106.773 125.544,-114.407 128.701,-108.159"/>
</g>
<!-- node181 -->
<g id="node4" class="node"><title>node181</title>
<ellipse fill="none" stroke="black" cx="281" cy="-90" rx="93.0912" ry="18"/>
<text text-anchor="middle" x="281" y="-86.7" font-family="Times Roman,serif" font-size="12.00">/usr/lib/libxalanMsg.so</text>
</g>
<!-- node110&#45;&gt;node181 -->
<g id="edge4" class="edge"><title>node110&#45;&gt;node181</title>
<path fill="none" stroke="black" d="M357.413,-215.672C350.381,-205.297 341.542,-192.028 334,-180 320.874,-159.069 306.707,-134.924 296.325,-116.916"/>
<polygon fill="black" stroke="black" points="299.282,-115.036 291.267,-108.107 293.212,-118.522 299.282,-115.036"/>
</g>
<!-- node182 -->
<g id="node6" class="node"><title>node182</title>
<ellipse fill="none" stroke="black" cx="483" cy="-90" rx="90.9919" ry="18"/>
<text text-anchor="middle" x="483" y="-86.7" font-family="Times Roman,serif" font-size="12.00">/usr/lib/libxerces&#45;c.so</text>
</g>
<!-- node110&#45;&gt;node182 -->
<g id="edge6" class="edge"><title>node110&#45;&gt;node182</title>
<path fill="none" stroke="black" d="M384.312,-215.762C404.095,-190.552 439.911,-144.91 462.523,-116.095"/>
<polygon fill="black" stroke="black" points="465.385,-118.117 468.805,-108.09 459.878,-113.796 465.385,-118.117"/>
</g>
<!-- node151 -->
<g id="node8" class="node"><title>node151</title>
<polygon fill="none" stroke="black" points="646,-108 592,-108 592,-72 646,-72 646,-108"/>
<text text-anchor="middle" x="619" y="-86.7" font-family="Times Roman,serif" font-size="12.00">jlib</text>
</g>
<!-- node110&#45;&gt;node151 -->
<g id="edge8" class="edge"><title>node110&#45;&gt;node151</title>
<path fill="none" stroke="black" d="M401.033,-216.053C447.302,-189.295 534.159,-139.065 583.102,-110.76"/>
<polygon fill="black" stroke="black" points="584.877,-113.777 591.781,-105.741 581.372,-107.718 584.877,-113.777"/>
</g>
<!-- node160 -->
<g id="node18" class="node"><title>node160</title>
<polygon fill="none" stroke="black" points="397,-180 343,-180 343,-144 397,-144 397,-180"/>
<text text-anchor="middle" x="370" y="-158.7" font-family="Times Roman,serif" font-size="12.00">xmllib</text>
</g>
<!-- node110&#45;&gt;node160 -->
<g id="edge18" class="edge"><title>node110&#45;&gt;node160</title>
<path fill="none" stroke="black" d="M370,-215.831C370,-208.131 370,-198.974 370,-190.417"/>
<polygon fill="black" stroke="black" points="373.5,-190.413 370,-180.413 366.5,-190.413 373.5,-190.413"/>
</g>
<!-- node152 -->
<g id="node10" class="node"><title>node152</title>
<polygon fill="none" stroke="black" points="496,-36 456.056,-18 496,-3.55271e-15 535.944,-18 496,-36"/>
<text text-anchor="middle" x="496" y="-14.7" font-family="Times Roman,serif" font-size="12.00">lzma</text>
</g>
<!-- node151&#45;&gt;node152 -->
<g id="edge10" class="edge"><title>node151&#45;&gt;node152</title>
<path fill="none" stroke="black" d="M591.702,-74.0209C571.08,-61.9494 542.935,-45.4743 522.508,-33.5172"/>
<polygon fill="black" stroke="black" points="524.119,-30.4046 513.721,-28.3733 520.583,-36.4457 524.119,-30.4046"/>
</g>
<!-- node187 -->
<g id="node12" class="node"><title>node187</title>
<ellipse fill="none" stroke="black" cx="581" cy="-18" rx="27" ry="18"/>
<text text-anchor="middle" x="581" y="-14.7" font-family="Times Roman,serif" font-size="12.00">dl</text>
</g>
<!-- node151&#45;&gt;node187 -->
<g id="edge12" class="edge"><title>node151&#45;&gt;node187</title>
<path fill="none" stroke="black" d="M609.411,-71.8314C605.038,-63.5451 599.774,-53.5727 594.973,-44.4748"/>
<polygon fill="black" stroke="black" points="597.956,-42.6279 590.193,-35.4177 591.765,-45.8952 597.956,-42.6279"/>
</g>
<!-- node179 -->
<g id="node14" class="node"><title>node179</title>
<ellipse fill="none" stroke="black" cx="656" cy="-18" rx="30.0465" ry="18"/>
<text text-anchor="middle" x="656" y="-14.7" font-family="Times Roman,serif" font-size="12.00">crypt</text>
</g>
<!-- node151&#45;&gt;node179 -->
<g id="edge14" class="edge"><title>node151&#45;&gt;node179</title>
<path fill="none" stroke="black" d="M628.337,-71.8314C632.595,-63.5451 637.72,-53.5727 642.395,-44.4748"/>
<polygon fill="black" stroke="black" points="645.592,-45.9118 647.049,-35.4177 639.365,-42.7123 645.592,-45.9118"/>
</g>
<!-- node188 -->
<g id="node16" class="node"><title>node188</title>
<ellipse fill="none" stroke="black" cx="731" cy="-18" rx="27" ry="18"/>
<text text-anchor="middle" x="731" y="-14.7" font-family="Times Roman,serif" font-size="12.00">rt</text>
</g>
<!-- node151&#45;&gt;node188 -->
<g id="edge16" class="edge"><title>node151&#45;&gt;node188</title>
<path fill="none" stroke="black" d="M646.112,-72.5708C663.313,-61.5133 685.52,-47.237 702.907,-36.06"/>
<polygon fill="black" stroke="black" points="704.988,-38.8829 711.507,-30.5312 701.203,-32.9946 704.988,-38.8829"/>
</g>
<!-- node160&#45;&gt;node180 -->
<g id="edge20" class="edge"><title>node160&#45;&gt;node180</title>
<path fill="none" stroke="black" d="M342.931,-155.162C298.904,-144.039 210.584,-121.726 149.656,-106.334"/>
<polygon fill="black" stroke="black" points="150.3,-102.887 139.748,-103.831 148.586,-109.674 150.3,-102.887"/>
</g>
<!-- node160&#45;&gt;node181 -->
<g id="edge22" class="edge"><title>node160&#45;&gt;node181</title>
<path fill="none" stroke="black" d="M347.542,-143.831C336.412,-134.828 322.822,-123.833 310.832,-114.133"/>
<polygon fill="black" stroke="black" points="312.812,-111.233 302.836,-107.665 308.409,-116.676 312.812,-111.233"/>
</g>
<!-- node160&#45;&gt;node182 -->
<g id="edge24" class="edge"><title>node160&#45;&gt;node182</title>
<path fill="none" stroke="black" d="M397.066,-144.754C412.051,-135.206 430.868,-123.217 447.071,-112.893"/>
<polygon fill="black" stroke="black" points="449.21,-115.68 455.763,-107.355 445.449,-109.776 449.21,-115.68"/>
</g>
<!-- node160&#45;&gt;node151 -->
<g id="edge26" class="edge"><title>node160&#45;&gt;node151</title>
<path fill="none" stroke="black" d="M397.129,-157.073C436.397,-149.527 511.302,-133.579 582.228,-107.901"/>
<polygon fill="black" stroke="black" points="583.586,-111.131 591.754,-104.383 581.161,-104.564 583.586,-111.131"/>
</g>
</g>
</svg>
