<?xml version="1.0" encoding="UTF-8" standalone="no"?>
<!DOCTYPE svg PUBLIC "-//W3C//DTD SVG 1.1//EN"
 "http://www.w3.org/Graphics/SVG/1.1/DTD/svg11.dtd">
<!-- Generated by graphviz version 2.26.3 (20100126.1600)
 -->
<!-- Title: GG Pages: 1 -->
<svg width="766pt" height="332pt"
 viewBox="0.00 0.00 766.00 332.00" xmlns="http://www.w3.org/2000/svg" xmlns:xlink="http://www.w3.org/1999/xlink">
<g id="graph1" class="graph" transform="scale(1 1) rotate(0) translate(4 328)">
<title>GG</title>
<polygon fill="white" stroke="white" points="-4,5 -4,-328 763,-328 763,5 -4,5"/>
<!-- node106 -->
<g id="node1" class="node"><title>node106</title>
<polygon fill="none" stroke="black" points="409,-324 321,-324 321,-288 409,-288 409,-324"/>
<text text-anchor="middle" x="365" y="-302.7" font-family="Times Roman,serif" font-size="12.00">loggingclient</text>
</g>
<!-- node180 -->
<g id="node2" class="node"><title>node180</title>
<ellipse fill="none" stroke="black" cx="85" cy="-90" rx="85.1424" ry="18"/>
<text text-anchor="middle" x="85" y="-86.7" font-family="Times Roman,serif" font-size="12.00">/usr/lib/libxalan&#45;c.so</text>
</g>
<!-- node106&#45;&gt;node180 -->
<g id="edge2" class="edge"><title>node106&#45;&gt;node180</title>
<path fill="none" stroke="black" d="M341.609,-287.955C291.227,-249.089 172.451,-157.462 115.931,-113.861"/>
<polygon fill="black" stroke="black" points="117.792,-110.876 107.737,-107.54 113.517,-116.419 117.792,-110.876"/>
</g>
<!-- node181 -->
<g id="node4" class="node"><title>node181</title>
<ellipse fill="none" stroke="black" cx="281" cy="-90" rx="93.0912" ry="18"/>
<text text-anchor="middle" x="281" y="-86.7" font-family="Times Roman,serif" font-size="12.00">/usr/lib/libxalanMsg.so</text>
</g>
<!-- node106&#45;&gt;node181 -->
<g id="edge4" class="edge"><title>node106&#45;&gt;node181</title>
<path fill="none" stroke="black" d="M354.197,-287.819C340.361,-263.851 316.45,-220.027 302,-180 294.713,-159.815 289.308,-136.155 285.808,-118.161"/>
<polygon fill="black" stroke="black" points="289.241,-117.479 283.967,-108.29 282.36,-118.762 289.241,-117.479"/>
</g>
<!-- node182 -->
<g id="node6" class="node"><title>node182</title>
<ellipse fill="none" stroke="black" cx="483" cy="-90" rx="90.9919" ry="18"/>
<text text-anchor="middle" x="483" y="-86.7" font-family="Times Roman,serif" font-size="12.00">/usr/lib/libxerces&#45;c.so</text>
</g>
<!-- node106&#45;&gt;node182 -->
<g id="edge6" class="edge"><title>node106&#45;&gt;node182</title>
<path fill="none" stroke="black" d="M396.588,-287.91C410.144,-278.719 425.107,-266.432 435,-252 463.284,-210.737 475.186,-152.555 479.98,-118.31"/>
<polygon fill="black" stroke="black" points="483.491,-118.45 481.298,-108.084 476.548,-117.554 483.491,-118.45"/>
</g>
<!-- node151 -->
<g id="node8" class="node"><title>node151</title>
<polygon fill="none" stroke="black" points="646,-108 592,-108 592,-72 646,-72 646,-108"/>
<text text-anchor="middle" x="619" y="-86.7" font-family="Times Roman,serif" font-size="12.00">jlib</text>
</g>
<!-- node106&#45;&gt;node151 -->
<g id="edge8" class="edge"><title>node106&#45;&gt;node151</title>
<path fill="none" stroke="black" d="M401.706,-287.902C419.7,-278.3 441.259,-265.67 459,-252 513.788,-209.783 568.427,-149.597 597.526,-115.726"/>
<polygon fill="black" stroke="black" points="600.195,-117.991 604.019,-108.11 594.868,-113.449 600.195,-117.991"/>
</g>
<!-- node160 -->
<g id="node18" class="node"><title>node160</title>
<polygon fill="none" stroke="black" points="365,-180 311,-180 311,-144 365,-144 365,-180"/>
<text text-anchor="middle" x="338" y="-158.7" font-family="Times Roman,serif" font-size="12.00">xmllib</text>
</g>
<!-- node106&#45;&gt;node160 -->
<g id="edge18" class="edge"><title>node106&#45;&gt;node160</title>
<path fill="none" stroke="black" d="M361.58,-287.762C356.955,-263.093 348.661,-218.86 343.245,-189.973"/>
<polygon fill="black" stroke="black" points="346.675,-189.273 341.392,-180.09 339.795,-190.563 346.675,-189.273"/>
</g>
<!-- node110 -->
<g id="node24" class="node"><title>node110</title>
<polygon fill="none" stroke="black" points="426,-252 364,-252 364,-216 426,-216 426,-252"/>
<text text-anchor="middle" x="395" y="-230.7" font-family="Times Roman,serif" font-size="12.00">esphttp</text>
</g>
<!-- node106&#45;&gt;node110 -->
<g id="edge28" class="edge"><title>node106&#45;&gt;node110</title>
<path fill="none" stroke="black" d="M372.57,-287.831C375.849,-279.962 379.762,-270.571 383.394,-261.853"/>
<polygon fill="black" stroke="black" points="386.712,-262.99 387.328,-252.413 380.251,-260.298 386.712,-262.99"/>
</g>
<!-- node152 -->
<g id="node10" class="node"><title>node152</title>
<polygon fill="none" stroke="black" points="496,-36 456.056,-18 496,-3.55271e-15 535.944,-18 496,-36"/>
<text text-anchor="middle" x="496" y="-14.7" font-family="Times Roman,serif" font-size="12.00">lzma</text>
</g>
<!-- node151&#45;&gt;node152 -->
<g id="edge10" class="edge"><title>node151&#45;&gt;node152</title>
<path fill="none" stroke="black" d="M591.702,-74.0209C571.08,-61.9494 542.935,-45.4743 522.508,-33.5172"/>
<polygon fill="black" stroke="black" points="524.119,-30.4046 513.721,-28.3733 520.583,-36.4457 524.119,-30.4046"/>
</g>
<!-- node187 -->
<g id="node12" class="node"><title>node187</title>
<ellipse fill="none" stroke="black" cx="581" cy="-18" rx="27" ry="18"/>
<text text-anchor="middle" x="581" y="-14.7" font-family="Times Roman,serif" font-size="12.00">dl</text>
</g>
<!-- node151&#45;&gt;node187 -->
<g id="edge12" class="edge"><title>node151&#45;&gt;node187</title>
<path fill="none" stroke="black" d="M609.411,-71.8314C605.038,-63.5451 599.774,-53.5727 594.973,-44.4748"/>
<polygon fill="black" stroke="black" points="597.956,-42.6279 590.193,-35.4177 591.765,-45.8952 597.956,-42.6279"/>
</g>
<!-- node179 -->
<g id="node14" class="node"><title>node179</title>
<ellipse fill="none" stroke="black" cx="656" cy="-18" rx="30.0465" ry="18"/>
<text text-anchor="middle" x="656" y="-14.7" font-family="Times Roman,serif" font-size="12.00">crypt</text>
</g>
<!-- node151&#45;&gt;node179 -->
<g id="edge14" class="edge"><title>node151&#45;&gt;node179</title>
<path fill="none" stroke="black" d="M628.337,-71.8314C632.595,-63.5451 637.72,-53.5727 642.395,-44.4748"/>
<polygon fill="black" stroke="black" points="645.592,-45.9118 647.049,-35.4177 639.365,-42.7123 645.592,-45.9118"/>
</g>
<!-- node188 -->
<g id="node16" class="node"><title>node188</title>
<ellipse fill="none" stroke="black" cx="731" cy="-18" rx="27" ry="18"/>
<text text-anchor="middle" x="731" y="-14.7" font-family="Times Roman,serif" font-size="12.00">rt</text>
</g>
<!-- node151&#45;&gt;node188 -->
<g id="edge16" class="edge"><title>node151&#45;&gt;node188</title>
<path fill="none" stroke="black" d="M646.112,-72.5708C663.313,-61.5133 685.52,-47.237 702.907,-36.06"/>
<polygon fill="black" stroke="black" points="704.988,-38.8829 711.507,-30.5312 701.203,-32.9946 704.988,-38.8829"/>
</g>
<!-- node160&#45;&gt;node180 -->
<g id="edge20" class="edge"><title>node160&#45;&gt;node180</title>
<path fill="none" stroke="black" d="M310.901,-149.359C306.312,-147.434 301.557,-145.569 297,-144 250.621,-128.033 197.082,-114.434 155.412,-104.876"/>
<polygon fill="black" stroke="black" points="156.155,-101.456 145.628,-102.656 154.606,-108.282 156.155,-101.456"/>
</g>
<!-- node160&#45;&gt;node181 -->
<g id="edge22" class="edge"><title>node160&#45;&gt;node181</title>
<path fill="none" stroke="black" d="M323.616,-143.831C316.95,-135.411 308.906,-125.249 301.61,-116.034"/>
<polygon fill="black" stroke="black" points="304.133,-113.581 295.181,-107.913 298.644,-117.926 304.133,-113.581"/>
</g>
<!-- node160&#45;&gt;node182 -->
<g id="edge24" class="edge"><title>node160&#45;&gt;node182</title>
<path fill="none" stroke="black" d="M365.273,-148.457C386.369,-137.982 415.971,-123.283 440.213,-111.246"/>
<polygon fill="black" stroke="black" points="441.813,-114.359 449.213,-106.777 438.699,-108.09 441.813,-114.359"/>
</g>
<!-- node160&#45;&gt;node151 -->
<g id="edge26" class="edge"><title>node160&#45;&gt;node151</title>
<path fill="none" stroke="black" d="M365.068,-158.271C409.183,-151.72 499.214,-136.38 582.224,-107.836"/>
<polygon fill="black" stroke="black" points="583.513,-111.093 591.788,-104.476 581.193,-104.488 583.513,-111.093"/>
</g>
<!-- node110&#45;&gt;node180 -->
<g id="edge30" class="edge"><title>node110&#45;&gt;node180</title>
<path fill="none" stroke="black" d="M363.857,-219.533C308.653,-193.89 193.468,-140.385 129.766,-110.795"/>
<polygon fill="black" stroke="black" points="130.922,-107.472 120.378,-106.434 127.973,-113.821 130.922,-107.472"/>
</g>
<!-- node110&#45;&gt;node181 -->
<g id="edge32" class="edge"><title>node110&#45;&gt;node181</title>
<path fill="none" stroke="black" d="M394.877,-215.68C393.867,-196.14 389.65,-165.153 374,-144 363.701,-130.079 348.657,-119.157 333.658,-110.888"/>
<polygon fill="black" stroke="black" points="334.858,-107.568 324.368,-106.08 331.64,-113.785 334.858,-107.568"/>
</g>
<!-- node110&#45;&gt;node182 -->
<g id="edge34" class="edge"><title>node110&#45;&gt;node182</title>
<path fill="none" stroke="black" d="M406.145,-215.762C421.419,-190.768 448.966,-145.692 466.597,-116.841"/>
<polygon fill="black" stroke="black" points="469.717,-118.448 471.945,-108.09 463.744,-114.797 469.717,-118.448"/>
</g>
<!-- node110&#45;&gt;node151 -->
<g id="edge36" class="edge"><title>node110&#45;&gt;node151</title>
<path fill="none" stroke="black" d="M423.37,-215.762C464.095,-189.582 539.096,-141.367 583.463,-112.845"/>
<polygon fill="black" stroke="black" points="585.39,-115.767 591.909,-107.416 581.604,-109.879 585.39,-115.767"/>
</g>
<!-- node110&#45;&gt;node160 -->
<g id="edge38" class="edge"><title>node110&#45;&gt;node160</title>
<path fill="none" stroke="black" d="M380.616,-215.831C374.051,-207.539 366.149,-197.557 358.942,-188.453"/>
<polygon fill="black" stroke="black" points="361.528,-186.081 352.577,-180.413 356.04,-190.426 361.528,-186.081"/>
</g>
</g>
</svg>
