<?xml version="1.0" encoding="UTF-8" standalone="no"?>
<!DOCTYPE svg PUBLIC "-//W3C//DTD SVG 1.1//EN"
 "http://www.w3.org/Graphics/SVG/1.1/DTD/svg11.dtd">
<!-- Generated by graphviz version 2.26.3 (20100126.1600)
 -->
<!-- Title: GG Pages: 1 -->
<svg width="1636pt" height="548pt"
 viewBox="0.00 0.00 1636.00 548.00" xmlns="http://www.w3.org/2000/svg" xmlns:xlink="http://www.w3.org/1999/xlink">
<g id="graph1" class="graph" transform="scale(1 1) rotate(0) translate(4 544)">
<title>GG</title>
<polygon fill="white" stroke="white" points="-4,5 -4,-544 1633,-544 1633,5 -4,5"/>
<!-- node86 -->
<g id="node1" class="node"><title>node86</title>
<polygon fill="none" stroke="black" points="377.95,-527.562 319,-540 260.05,-527.562 260.105,-507.438 377.895,-507.438 377.95,-527.562"/>
<text text-anchor="middle" x="319" y="-518.7" font-family="Times Roman,serif" font-size="12.00">configgen</text>
</g>
<!-- node87 -->
<g id="node2" class="node"><title>node87</title>
<polygon fill="none" stroke="black" points="365,-468 311,-468 311,-432 365,-432 365,-468"/>
<text text-anchor="middle" x="338" y="-446.7" font-family="Times Roman,serif" font-size="12.00">deploy</text>
</g>
<!-- node86&#45;&gt;node87 -->
<g id="edge2" class="edge"><title>node86&#45;&gt;node87</title>
<path fill="none" stroke="black" d="M322.845,-507.43C325.09,-498.924 327.996,-487.909 330.663,-477.803"/>
<polygon fill="black" stroke="black" points="334.049,-478.69 333.216,-468.128 327.28,-476.904 334.049,-478.69"/>
</g>
<!-- node151 -->
<g id="node4" class="node"><title>node151</title>
<polygon fill="none" stroke="black" points="289,-108 235,-108 235,-72 289,-72 289,-108"/>
<text text-anchor="middle" x="262" y="-86.7" font-family="Times Roman,serif" font-size="12.00">jlib</text>
</g>
<!-- node86&#45;&gt;node151 -->
<g id="edge60" class="edge"><title>node86&#45;&gt;node151</title>
<path fill="none" stroke="black" d="M259.746,-508.075C167.494,-484.649 0,-434.358 0,-378 0,-378 0,-378 0,-234 0,-132.585 152.626,-102.093 224.896,-93.3391"/>
<polygon fill="black" stroke="black" points="225.406,-96.8038 234.948,-92.1994 224.618,-89.8483 225.406,-96.8038"/>
</g>
<!-- node55 -->
<g id="node14" class="node"><title>node55</title>
<polygon fill="none" stroke="black" points="281,-396 191,-396 191,-360 281,-360 281,-396"/>
<text text-anchor="middle" x="236" y="-374.7" font-family="Times Roman,serif" font-size="12.00">environment</text>
</g>
<!-- node86&#45;&gt;node55 -->
<g id="edge62" class="edge"><title>node86&#45;&gt;node55</title>
<path fill="none" stroke="black" d="M310.585,-507.4C296.766,-483.425 269.057,-435.352 251.579,-405.029"/>
<polygon fill="black" stroke="black" points="254.536,-403.15 246.51,-396.234 248.471,-406.646 254.536,-403.15"/>
</g>
<!-- node156 -->
<g id="node42" class="node"><title>node156</title>
<polygon fill="none" stroke="black" points="1194,-396 1100,-396 1100,-360 1194,-360 1194,-396"/>
<text text-anchor="middle" x="1147" y="-374.7" font-family="Times Roman,serif" font-size="12.00">securesocket</text>
</g>
<!-- node86&#45;&gt;node156 -->
<g id="edge64" class="edge"><title>node86&#45;&gt;node156</title>
<path fill="none" stroke="black" d="M378.215,-511.702C531.356,-485.068 939.02,-414.17 1089.85,-387.94"/>
<polygon fill="black" stroke="black" points="1090.58,-391.365 1099.83,-386.203 1089.38,-384.469 1090.58,-391.365"/>
</g>
<!-- node87&#45;&gt;node151 -->
<g id="edge4" class="edge"><title>node87&#45;&gt;node151</title>
<path fill="none" stroke="black" d="M338,-431.815C338,-404.498 338,-351.25 338,-306 338,-306 338,-306 338,-234 338,-188.656 308.162,-143.6 285.877,-116.273"/>
<polygon fill="black" stroke="black" points="288.359,-113.786 279.246,-108.381 282.999,-118.289 288.359,-113.786"/>
</g>
<!-- node87&#45;&gt;node55 -->
<g id="edge14" class="edge"><title>node87&#45;&gt;node55</title>
<path fill="none" stroke="black" d="M312.261,-431.831C299.456,-422.793 283.809,-411.748 270.028,-402.02"/>
<polygon fill="black" stroke="black" points="271.919,-399.07 261.731,-396.163 267.882,-404.789 271.919,-399.07"/>
</g>
<!-- node160 -->
<g id="node33" class="node"><title>node160</title>
<polygon fill="none" stroke="black" points="674,-396 620,-396 620,-360 674,-360 674,-396"/>
<text text-anchor="middle" x="647" y="-374.7" font-family="Times Roman,serif" font-size="12.00">xmllib</text>
</g>
<!-- node87&#45;&gt;node160 -->
<g id="edge42" class="edge"><title>node87&#45;&gt;node160</title>
<path fill="none" stroke="black" d="M365.151,-443.674C420.533,-430.769 546.614,-401.391 609.659,-386.701"/>
<polygon fill="black" stroke="black" points="610.634,-390.067 619.579,-384.389 609.045,-383.25 610.634,-390.067"/>
</g>
<!-- node87&#45;&gt;node156 -->
<g id="edge52" class="edge"><title>node87&#45;&gt;node156</title>
<path fill="none" stroke="black" d="M365.38,-447.563C480.839,-437.287 929.384,-397.368 1089.67,-383.103"/>
<polygon fill="black" stroke="black" points="1090.15,-386.574 1099.8,-382.201 1089.53,-379.601 1090.15,-386.574"/>
</g>
<!-- node152 -->
<g id="node6" class="node"><title>node152</title>
<polygon fill="none" stroke="black" points="140,-36 100.056,-18 140,-3.55271e-15 179.944,-18 140,-36"/>
<text text-anchor="middle" x="140" y="-14.7" font-family="Times Roman,serif" font-size="12.00">lzma</text>
</g>
<!-- node151&#45;&gt;node152 -->
<g id="edge6" class="edge"><title>node151&#45;&gt;node152</title>
<path fill="none" stroke="black" d="M234.924,-74.0209C214.47,-61.9494 186.554,-45.4743 166.293,-33.5172"/>
<polygon fill="black" stroke="black" points="167.968,-30.4417 157.577,-28.3733 164.41,-36.4701 167.968,-30.4417"/>
</g>
<!-- node187 -->
<g id="node8" class="node"><title>node187</title>
<ellipse fill="none" stroke="black" cx="225" cy="-18" rx="27" ry="18"/>
<text text-anchor="middle" x="225" y="-14.7" font-family="Times Roman,serif" font-size="12.00">dl</text>
</g>
<!-- node151&#45;&gt;node187 -->
<g id="edge8" class="edge"><title>node151&#45;&gt;node187</title>
<path fill="none" stroke="black" d="M252.663,-71.8314C248.405,-63.5451 243.28,-53.5727 238.605,-44.4748"/>
<polygon fill="black" stroke="black" points="241.635,-42.7123 233.951,-35.4177 235.408,-45.9118 241.635,-42.7123"/>
</g>
<!-- node179 -->
<g id="node10" class="node"><title>node179</title>
<ellipse fill="none" stroke="black" cx="300" cy="-18" rx="30.0465" ry="18"/>
<text text-anchor="middle" x="300" y="-14.7" font-family="Times Roman,serif" font-size="12.00">crypt</text>
</g>
<!-- node151&#45;&gt;node179 -->
<g id="edge10" class="edge"><title>node151&#45;&gt;node179</title>
<path fill="none" stroke="black" d="M271.589,-71.8314C275.962,-63.5451 281.226,-53.5727 286.027,-44.4748"/>
<polygon fill="black" stroke="black" points="289.235,-45.8952 290.807,-35.4177 283.044,-42.6279 289.235,-45.8952"/>
</g>
<!-- node188 -->
<g id="node12" class="node"><title>node188</title>
<ellipse fill="none" stroke="black" cx="375" cy="-18" rx="27" ry="18"/>
<text text-anchor="middle" x="375" y="-14.7" font-family="Times Roman,serif" font-size="12.00">rt</text>
</g>
<!-- node151&#45;&gt;node188 -->
<g id="edge12" class="edge"><title>node151&#45;&gt;node188</title>
<path fill="none" stroke="black" d="M289.066,-72.7542C306.414,-61.7009 328.898,-47.375 346.516,-36.1494"/>
<polygon fill="black" stroke="black" points="348.679,-38.9209 355.232,-30.5955 344.918,-33.0174 348.679,-38.9209"/>
</g>
<!-- node55&#45;&gt;node151 -->
<g id="edge16" class="edge"><title>node55&#45;&gt;node151</title>
<path fill="none" stroke="black" d="M242.578,-359.879C256.025,-320.674 284.61,-224.979 275,-144 273.993,-135.517 272.126,-126.438 270.115,-118.191"/>
<polygon fill="black" stroke="black" points="273.447,-117.097 267.545,-108.299 266.672,-118.858 273.447,-117.097"/>
</g>
<!-- node153 -->
<g id="node17" class="node"><title>node153</title>
<polygon fill="none" stroke="black" points="179,-180 125,-180 125,-144 179,-144 179,-180"/>
<text text-anchor="middle" x="152" y="-158.7" font-family="Times Roman,serif" font-size="12.00">mp</text>
</g>
<!-- node55&#45;&gt;node153 -->
<g id="edge18" class="edge"><title>node55&#45;&gt;node153</title>
<path fill="none" stroke="black" d="M203.134,-359.979C189.77,-350.946 175.5,-338.765 167,-324 143.093,-282.475 144.284,-224.847 147.807,-190.692"/>
<polygon fill="black" stroke="black" points="151.317,-190.817 149.005,-180.477 144.364,-190.002 151.317,-190.817"/>
</g>
<!-- node59 -->
<g id="node20" class="node"><title>node59</title>
<polygon fill="none" stroke="black" points="86,-252 28,-252 28,-216 86,-216 86,-252"/>
<text text-anchor="middle" x="57" y="-230.7" font-family="Times Roman,serif" font-size="12.00">remote</text>
</g>
<!-- node55&#45;&gt;node59 -->
<g id="edge22" class="edge"><title>node55&#45;&gt;node59</title>
<path fill="none" stroke="black" d="M190.687,-368.992C161.778,-361.254 125.151,-347.502 100,-324 82.1145,-307.287 70.8702,-281.59 64.3861,-261.926"/>
<polygon fill="black" stroke="black" points="67.7027,-260.803 61.4193,-252.272 61.0116,-262.859 67.7027,-260.803"/>
</g>
<!-- node66 -->
<g id="node24" class="node"><title>node66</title>
<polygon fill="none" stroke="black" points="238,-324 176,-324 176,-288 238,-288 238,-324"/>
<text text-anchor="middle" x="207" y="-302.7" font-family="Times Roman,serif" font-size="12.00">dalibase</text>
</g>
<!-- node55&#45;&gt;node66 -->
<g id="edge28" class="edge"><title>node55&#45;&gt;node66</title>
<path fill="none" stroke="black" d="M228.682,-359.831C225.512,-351.962 221.73,-342.571 218.219,-333.853"/>
<polygon fill="black" stroke="black" points="221.399,-332.381 214.416,-324.413 214.906,-334.997 221.399,-332.381"/>
</g>
<!-- node153&#45;&gt;node151 -->
<g id="edge20" class="edge"><title>node153&#45;&gt;node151</title>
<path fill="none" stroke="black" d="M179.191,-144.202C193.338,-134.943 210.816,-123.502 226.063,-113.522"/>
<polygon fill="black" stroke="black" points="228.29,-116.248 234.741,-107.843 224.457,-110.391 228.29,-116.248"/>
</g>
<!-- node59&#45;&gt;node151 -->
<g id="edge24" class="edge"><title>node59&#45;&gt;node151</title>
<path fill="none" stroke="black" d="M64.584,-215.977C73.9202,-195.812 91.5905,-163.434 116,-144 148.008,-118.517 193.216,-104.289 224.819,-96.9163"/>
<polygon fill="black" stroke="black" points="225.967,-100.247 234.976,-94.6724 224.457,-93.412 225.967,-100.247"/>
</g>
<!-- node59&#45;&gt;node153 -->
<g id="edge26" class="edge"><title>node59&#45;&gt;node153</title>
<path fill="none" stroke="black" d="M80.9725,-215.831C92.7861,-206.878 107.197,-195.956 119.943,-186.295"/>
<polygon fill="black" stroke="black" points="122.18,-188.992 128.035,-180.163 117.951,-183.414 122.18,-188.992"/>
</g>
<!-- node66&#45;&gt;node151 -->
<g id="edge30" class="edge"><title>node66&#45;&gt;node151</title>
<path fill="none" stroke="black" d="M222.365,-287.708C229.857,-277.77 238.256,-264.902 243,-252 259.42,-207.347 262.471,-151.53 262.629,-118.434"/>
<polygon fill="black" stroke="black" points="266.127,-118.116 262.586,-108.131 259.128,-118.145 266.127,-118.116"/>
</g>
<!-- node66&#45;&gt;node153 -->
<g id="edge32" class="edge"><title>node66&#45;&gt;node153</title>
<path fill="none" stroke="black" d="M192.115,-287.518C184.754,-277.53 176.328,-264.672 171,-252 162.669,-232.188 157.847,-208.332 155.146,-190.16"/>
<polygon fill="black" stroke="black" points="158.606,-189.629 153.79,-180.192 151.67,-190.572 158.606,-189.629"/>
</g>
<!-- node66&#45;&gt;node59 -->
<g id="edge40" class="edge"><title>node66&#45;&gt;node59</title>
<path fill="none" stroke="black" d="M175.92,-291.082C152.484,-279.832 120.213,-264.342 95.2018,-252.337"/>
<polygon fill="black" stroke="black" points="96.5347,-249.094 86.0048,-247.922 93.5055,-255.405 96.5347,-249.094"/>
</g>
<!-- node149 -->
<g id="node28" class="node"><title>node149</title>
<polygon fill="none" stroke="black" points="234,-252 180,-252 180,-216 234,-216 234,-252"/>
<text text-anchor="middle" x="207" y="-230.7" font-family="Times Roman,serif" font-size="12.00">hrpc</text>
</g>
<!-- node66&#45;&gt;node149 -->
<g id="edge34" class="edge"><title>node66&#45;&gt;node149</title>
<path fill="none" stroke="black" d="M207,-287.831C207,-280.131 207,-270.974 207,-262.417"/>
<polygon fill="black" stroke="black" points="210.5,-262.413 207,-252.413 203.5,-262.413 210.5,-262.413"/>
</g>
<!-- node149&#45;&gt;node151 -->
<g id="edge36" class="edge"><title>node149&#45;&gt;node151</title>
<path fill="none" stroke="black" d="M213.966,-215.762C223.429,-190.985 240.431,-146.471 251.461,-117.594"/>
<polygon fill="black" stroke="black" points="254.792,-118.68 255.091,-108.09 248.253,-116.183 254.792,-118.68"/>
</g>
<!-- node149&#45;&gt;node153 -->
<g id="edge38" class="edge"><title>node149&#45;&gt;node153</title>
<path fill="none" stroke="black" d="M193.121,-215.831C186.786,-207.539 179.162,-197.557 172.207,-188.453"/>
<polygon fill="black" stroke="black" points="174.917,-186.235 166.066,-180.413 169.355,-190.485 174.917,-186.235"/>
</g>
<!-- node160&#45;&gt;node151 -->
<g id="edge50" class="edge"><title>node160&#45;&gt;node151</title>
<path fill="none" stroke="black" d="M674.01,-377.409C741.38,-375.307 913.958,-365.863 949,-324 959.27,-311.731 958.62,-300.785 949,-288 867.978,-180.328 430.219,-112.87 299.119,-94.8633"/>
<polygon fill="black" stroke="black" points="299.536,-91.3879 289.156,-93.5093 298.593,-98.3241 299.536,-91.3879"/>
</g>
<!-- node180 -->
<g id="node35" class="node"><title>node180</title>
<ellipse fill="none" stroke="black" cx="451" cy="-306" rx="85.1424" ry="18"/>
<text text-anchor="middle" x="451" y="-302.7" font-family="Times Roman,serif" font-size="12.00">/usr/lib/libxalan&#45;c.so</text>
</g>
<!-- node160&#45;&gt;node180 -->
<g id="edge44" class="edge"><title>node160&#45;&gt;node180</title>
<path fill="none" stroke="black" d="M619.747,-367.989C589.718,-356.957 540.711,-338.955 503.227,-325.186"/>
<polygon fill="black" stroke="black" points="504.07,-321.766 493.476,-321.604 501.656,-328.337 504.07,-321.766"/>
</g>
<!-- node181 -->
<g id="node37" class="node"><title>node181</title>
<ellipse fill="none" stroke="black" cx="647" cy="-306" rx="93.0912" ry="18"/>
<text text-anchor="middle" x="647" y="-302.7" font-family="Times Roman,serif" font-size="12.00">/usr/lib/libxalanMsg.so</text>
</g>
<!-- node160&#45;&gt;node181 -->
<g id="edge46" class="edge"><title>node160&#45;&gt;node181</title>
<path fill="none" stroke="black" d="M647,-359.831C647,-352.131 647,-342.974 647,-334.417"/>
<polygon fill="black" stroke="black" points="650.5,-334.413 647,-324.413 643.5,-334.413 650.5,-334.413"/>
</g>
<!-- node182 -->
<g id="node39" class="node"><title>node182</title>
<ellipse fill="none" stroke="black" cx="849" cy="-306" rx="90.9919" ry="18"/>
<text text-anchor="middle" x="849" y="-302.7" font-family="Times Roman,serif" font-size="12.00">/usr/lib/libxerces&#45;c.so</text>
</g>
<!-- node160&#45;&gt;node182 -->
<g id="edge48" class="edge"><title>node160&#45;&gt;node182</title>
<path fill="none" stroke="black" d="M674.243,-368.29C705.118,-357.285 756.212,-339.073 795.2,-325.176"/>
<polygon fill="black" stroke="black" points="796.588,-328.397 804.832,-321.743 794.237,-321.804 796.588,-328.397"/>
</g>
<!-- node156&#45;&gt;node151 -->
<g id="edge54" class="edge"><title>node156&#45;&gt;node151</title>
<path fill="none" stroke="black" d="M1194.37,-369.96C1253.27,-357.918 1342.03,-331.807 1307,-288 1177.38,-125.915 469.641,-95.8139 299.021,-90.8837"/>
<polygon fill="black" stroke="black" points="299.114,-87.3851 289.021,-90.6062 298.92,-94.3824 299.114,-87.3851"/>
</g>
<!-- node191 -->
<g id="node45" class="node"><title>node191</title>
<ellipse fill="none" stroke="black" cx="1491" cy="-306" rx="137.138" ry="18"/>
<text text-anchor="middle" x="1491" y="-302.7" font-family="Times Roman,serif" font-size="12.00">/usr/lib/x86_64&#45;linux&#45;gnu/libssl.so</text>
</g>
<!-- node156&#45;&gt;node191 -->
<g id="edge56" class="edge"><title>node156&#45;&gt;node191</title>
<path fill="none" stroke="black" d="M1194.11,-368.14C1249.07,-356.637 1340.93,-337.409 1407.95,-323.383"/>
<polygon fill="black" stroke="black" points="1408.99,-326.74 1418.06,-321.266 1407.56,-319.889 1408.99,-326.74"/>
</g>
<!-- node192 -->
<g id="node47" class="node"><title>node192</title>
<ellipse fill="none" stroke="black" cx="1147" cy="-306" rx="150.937" ry="18"/>
<text text-anchor="middle" x="1147" y="-302.7" font-family="Times Roman,serif" font-size="12.00">/usr/lib/x86_64&#45;linux&#45;gnu/libcrypto.so</text>
</g>
<!-- node156&#45;&gt;node192 -->
<g id="edge58" class="edge"><title>node156&#45;&gt;node192</title>
<path fill="none" stroke="black" d="M1147,-359.831C1147,-352.131 1147,-342.974 1147,-334.417"/>
<polygon fill="black" stroke="black" points="1150.5,-334.413 1147,-324.413 1143.5,-334.413 1150.5,-334.413"/>
</g>
</g>
</svg>
