<?xml version="1.0" encoding="UTF-8" standalone="no"?>
<!DOCTYPE svg PUBLIC "-//W3C//DTD SVG 1.1//EN"
 "http://www.w3.org/Graphics/SVG/1.1/DTD/svg11.dtd">
<!-- Generated by graphviz version 2.26.3 (20100126.1600)
 -->
<!-- Title: GG Pages: 1 -->
<svg width="2728pt" height="836pt"
 viewBox="0.00 0.00 2728.00 836.00" xmlns="http://www.w3.org/2000/svg" xmlns:xlink="http://www.w3.org/1999/xlink">
<g id="graph1" class="graph" transform="scale(1 1) rotate(0) translate(4 832)">
<title>GG</title>
<polygon fill="white" stroke="white" points="-4,5 -4,-832 2725,-832 2725,5 -4,5"/>
<!-- node163 -->
<g id="node1" class="node"><title>node163</title>
<polygon fill="none" stroke="black" points="1689,-828 1577,-828 1577,-792 1689,-792 1689,-828"/>
<text text-anchor="middle" x="1633" y="-806.7" font-family="Times Roman,serif" font-size="12.00">activityslaves_lcr</text>
</g>
<!-- node151 -->
<g id="node2" class="node"><title>node151</title>
<polygon fill="none" stroke="black" points="1938,-108 1884,-108 1884,-72 1938,-72 1938,-108"/>
<text text-anchor="middle" x="1911" y="-86.7" font-family="Times Roman,serif" font-size="12.00">jlib</text>
</g>
<!-- node163&#45;&gt;node151 -->
<g id="edge2" class="edge"><title>node163&#45;&gt;node151</title>
<path fill="none" stroke="black" d="M1576.78,-809.553C1303.36,-807.192 123.072,-794.779 56,-756 15.2151,-732.419 0,-713.111 0,-666 0,-666 0,-666 0,-234 0,-175.839 41.2963,-166.33 95,-144 180.059,-108.632 1622.53,-92.8424 1873.82,-90.3544"/>
<polygon fill="black" stroke="black" points="1873.94,-93.8535 1883.9,-90.2554 1873.87,-86.8538 1873.94,-93.8535"/>
</g>
<!-- node169 -->
<g id="node12" class="node"><title>node169</title>
<polygon fill="none" stroke="black" points="2177,-684 2091,-684 2091,-648 2177,-648 2177,-684"/>
<text text-anchor="middle" x="2134" y="-662.7" font-family="Times Roman,serif" font-size="12.00">thorsort_lcr</text>
</g>
<!-- node163&#45;&gt;node169 -->
<g id="edge12" class="edge"><title>node163&#45;&gt;node169</title>
<path fill="none" stroke="black" d="M1689.1,-798.124C1735.46,-787.971 1802.87,-772.433 1861,-756 1938.47,-734.1 2026.71,-704.064 2081.38,-684.841"/>
<polygon fill="black" stroke="black" points="2082.59,-688.126 2090.86,-681.499 2080.26,-681.524 2082.59,-688.126"/>
</g>
<!-- node146 -->
<g id="node15" class="node"><title>node146</title>
<polygon fill="none" stroke="black" points="1150,-396 1096,-396 1096,-360 1150,-360 1150,-396"/>
<text text-anchor="middle" x="1123" y="-374.7" font-family="Times Roman,serif" font-size="12.00">eclrtl</text>
</g>
<!-- node163&#45;&gt;node146 -->
<g id="edge154" class="edge"><title>node163&#45;&gt;node146</title>
<path fill="none" stroke="black" d="M1576.9,-806.077C1481.05,-797.206 1282.3,-769.209 1140,-684 1057.72,-634.731 988.994,-594.404 1021,-504 1035.32,-463.542 1068.78,-426.574 1093.49,-403.295"/>
<polygon fill="black" stroke="black" points="1096.18,-405.576 1101.17,-396.231 1091.44,-400.424 1096.18,-405.576"/>
</g>
<!-- node147 -->
<g id="node26" class="node"><title>node147</title>
<polygon fill="none" stroke="black" points="255,-324 201,-324 201,-288 255,-288 255,-324"/>
<text text-anchor="middle" x="228" y="-302.7" font-family="Times Roman,serif" font-size="12.00">nbcd</text>
</g>
<!-- node163&#45;&gt;node147 -->
<g id="edge152" class="edge"><title>node163&#45;&gt;node147</title>
<path fill="none" stroke="black" d="M1576.65,-809.123C1331.71,-805.133 365.946,-787.524 234,-756 140.768,-733.725 38,-761.856 38,-666 38,-666 38,-666 38,-450 38,-374.02 135.701,-332.962 190.982,-315.811"/>
<polygon fill="black" stroke="black" points="192.198,-319.101 200.778,-312.884 190.194,-312.394 192.198,-319.101"/>
</g>
<!-- node52 -->
<g id="node29" class="node"><title>node52</title>
<polygon fill="none" stroke="black" points="2567,-540 2481,-540 2481,-504 2567,-504 2567,-540"/>
<text text-anchor="middle" x="2524" y="-518.7" font-family="Times Roman,serif" font-size="12.00">commonext</text>
</g>
<!-- node163&#45;&gt;node52 -->
<g id="edge150" class="edge"><title>node163&#45;&gt;node52</title>
<path fill="none" stroke="black" d="M1689.04,-808.139C1828.12,-803.094 2186.17,-787.376 2301,-756 2371.56,-736.72 2397.77,-736.218 2449,-684 2486.47,-645.804 2507.51,-585.45 2517.24,-550.194"/>
<polygon fill="black" stroke="black" points="2520.73,-550.673 2519.9,-540.111 2513.97,-548.886 2520.73,-550.673"/>
</g>
<!-- node63 -->
<g id="node32" class="node"><title>node63</title>
<polygon fill="none" stroke="black" points="720,-540 644,-540 644,-504 720,-504 720,-540"/>
<text text-anchor="middle" x="682" y="-518.7" font-family="Times Roman,serif" font-size="12.00">thorhelper</text>
</g>
<!-- node163&#45;&gt;node63 -->
<g id="edge158" class="edge"><title>node163&#45;&gt;node63</title>
<path fill="none" stroke="black" d="M1576.97,-808.984C1375,-805.053 694.565,-789.371 663,-756 609.808,-699.764 645.995,-598.183 668.222,-549.486"/>
<polygon fill="black" stroke="black" points="671.497,-550.746 672.583,-540.207 665.162,-547.768 671.497,-550.746"/>
</g>
<!-- node53 -->
<g id="node37" class="node"><title>node53</title>
<polygon fill="none" stroke="black" points="316,-468 256,-468 256,-432 316,-432 316,-468"/>
<text text-anchor="middle" x="286" y="-446.7" font-family="Times Roman,serif" font-size="12.00">deftype</text>
</g>
<!-- node163&#45;&gt;node53 -->
<g id="edge156" class="edge"><title>node163&#45;&gt;node53</title>
<path fill="none" stroke="black" d="M1576.95,-808.147C1395.06,-801.946 822.455,-780.904 639,-756 453.705,-730.846 228,-852.995 228,-666 228,-666 228,-666 228,-594 228,-550.656 250.889,-504.942 267.909,-476.94"/>
<polygon fill="black" stroke="black" points="271.072,-478.485 273.415,-468.152 265.14,-474.768 271.072,-478.485"/>
</g>
<!-- node66 -->
<g id="node52" class="node"><title>node66</title>
<polygon fill="none" stroke="black" points="2094,-324 2032,-324 2032,-288 2094,-288 2094,-324"/>
<text text-anchor="middle" x="2063" y="-302.7" font-family="Times Roman,serif" font-size="12.00">dalibase</text>
</g>
<!-- node163&#45;&gt;node66 -->
<g id="edge162" class="edge"><title>node163&#45;&gt;node66</title>
<path fill="none" stroke="black" d="M1689.18,-808.181C1905.28,-800.451 2671,-766.007 2671,-666 2671,-666 2671,-666 2671,-594 2671,-506.468 2630.72,-482.183 2559,-432 2484.06,-379.563 2208.82,-329.97 2103.95,-312.565"/>
<polygon fill="black" stroke="black" points="2104.49,-309.107 2094.06,-310.934 2103.36,-316.014 2104.49,-309.107"/>
</g>
<!-- node59 -->
<g id="node60" class="node"><title>node59</title>
<polygon fill="none" stroke="black" points="2265,-252 2207,-252 2207,-216 2265,-216 2265,-252"/>
<text text-anchor="middle" x="2236" y="-230.7" font-family="Times Roman,serif" font-size="12.00">remote</text>
</g>
<!-- node163&#45;&gt;node59 -->
<g id="edge160" class="edge"><title>node163&#45;&gt;node59</title>
<path fill="none" stroke="black" d="M1689.08,-809.089C1857.53,-805.956 2357.1,-793.655 2515,-756 2611.79,-732.918 2720,-765.505 2720,-666 2720,-666 2720,-666 2720,-522 2720,-315.533 2390.71,-253.727 2275.35,-238.409"/>
<polygon fill="black" stroke="black" points="2275.55,-234.906 2265.19,-237.108 2274.66,-241.85 2275.55,-234.906"/>
</g>
<!-- node164 -->
<g id="node64" class="node"><title>node164</title>
<polygon fill="none" stroke="black" points="1891,-612 1821,-612 1821,-576 1891,-576 1891,-612"/>
<text text-anchor="middle" x="1856" y="-590.7" font-family="Times Roman,serif" font-size="12.00">graph_lcr</text>
</g>
<!-- node163&#45;&gt;node164 -->
<g id="edge196" class="edge"><title>node163&#45;&gt;node164</title>
<path fill="none" stroke="black" d="M1689.32,-796.992C1715.58,-788.703 1745.84,-775.71 1768,-756 1809.58,-719.026 1835.27,-657.565 1847.47,-621.923"/>
<polygon fill="black" stroke="black" points="1850.88,-622.765 1850.7,-612.171 1844.24,-620.568 1850.88,-622.765"/>
</g>
<!-- node150 -->
<g id="node67" class="node"><title>node150</title>
<polygon fill="none" stroke="black" points="2463,-540 2409,-540 2409,-504 2463,-504 2463,-540"/>
<text text-anchor="middle" x="2436" y="-518.7" font-family="Times Roman,serif" font-size="12.00">jhtree</text>
</g>
<!-- node163&#45;&gt;node150 -->
<g id="edge194" class="edge"><title>node163&#45;&gt;node150</title>
<path fill="none" stroke="black" d="M1689.06,-808.196C1850,-801.942 2309.16,-776.226 2422,-684 2460.31,-652.69 2454.83,-625.132 2449,-576 2447.99,-567.517 2446.13,-558.438 2444.12,-550.191"/>
<polygon fill="black" stroke="black" points="2447.45,-549.097 2441.54,-540.299 2440.67,-550.858 2447.45,-549.097"/>
</g>
<!-- node55 -->
<g id="node72" class="node"><title>node55</title>
<polygon fill="none" stroke="black" points="2274,-396 2184,-396 2184,-360 2274,-360 2274,-396"/>
<text text-anchor="middle" x="2229" y="-374.7" font-family="Times Roman,serif" font-size="12.00">environment</text>
</g>
<!-- node163&#45;&gt;node55 -->
<g id="edge164" class="edge"><title>node163&#45;&gt;node55</title>
<path fill="none" stroke="black" d="M1689.04,-808.139C1828.12,-803.094 2186.17,-787.376 2301,-756 2450.92,-715.037 2521.05,-685.378 2576,-540 2622.11,-417.999 2393.79,-387.848 2284.55,-380.418"/>
<polygon fill="black" stroke="black" points="2284.57,-376.912 2274.37,-379.768 2284.12,-383.898 2284.57,-376.912"/>
</g>
<!-- node54 -->
<g id="node78" class="node"><title>node54</title>
<polygon fill="none" stroke="black" points="1742,-468 1676,-468 1676,-432 1742,-432 1742,-468"/>
<text text-anchor="middle" x="1709" y="-446.7" font-family="Times Roman,serif" font-size="12.00">dllserver</text>
</g>
<!-- node163&#45;&gt;node54 -->
<g id="edge166" class="edge"><title>node163&#45;&gt;node54</title>
<path fill="none" stroke="black" d="M1615.75,-791.619C1593.33,-765.719 1557,-716.035 1557,-666 1557,-666 1557,-666 1557,-594 1557,-533.423 1621.41,-490.692 1666.37,-468.243"/>
<polygon fill="black" stroke="black" points="1668.16,-471.265 1675.64,-463.761 1665.12,-464.963 1668.16,-471.265"/>
</g>
<!-- node64 -->
<g id="node96" class="node"><title>node64</title>
<polygon fill="none" stroke="black" points="1098,-540 1030,-540 1030,-504 1098,-504 1098,-540"/>
<text text-anchor="middle" x="1064" y="-518.7" font-family="Times Roman,serif" font-size="12.00">workunit</text>
</g>
<!-- node163&#45;&gt;node64 -->
<g id="edge168" class="edge"><title>node163&#45;&gt;node64</title>
<path fill="none" stroke="black" d="M1576.99,-808.902C1378.33,-804.74 717.693,-788.495 687,-756 576.365,-638.869 898.158,-556.937 1019.63,-530.873"/>
<polygon fill="black" stroke="black" points="1020.67,-534.231 1029.73,-528.737 1019.22,-527.383 1020.67,-534.231"/>
</g>
<!-- node171 -->
<g id="node116" class="node"><title>node171</title>
<polygon fill="none" stroke="black" points="1384,-684 1276,-684 1276,-648 1384,-648 1384,-684"/>
<text text-anchor="middle" x="1330" y="-662.7" font-family="Times Roman,serif" font-size="12.00">thorcodectx_lcr</text>
</g>
<!-- node163&#45;&gt;node171 -->
<g id="edge170" class="edge"><title>node163&#45;&gt;node171</title>
<path fill="none" stroke="black" d="M1594.93,-791.908C1539.71,-765.665 1437.45,-717.065 1377.41,-688.532"/>
<polygon fill="black" stroke="black" points="1378.69,-685.262 1368.15,-684.131 1375.68,-691.585 1378.69,-685.262"/>
</g>
<!-- node166 -->
<g id="node131" class="node"><title>node166</title>
<polygon fill="none" stroke="black" points="1759,-756 1659,-756 1659,-720 1759,-720 1759,-756"/>
<text text-anchor="middle" x="1709" y="-734.7" font-family="Times Roman,serif" font-size="12.00">graphslave_lcr</text>
</g>
<!-- node163&#45;&gt;node166 -->
<g id="edge198" class="edge"><title>node163&#45;&gt;node166</title>
<path fill="none" stroke="black" d="M1652.18,-791.831C1661.36,-783.134 1672.5,-772.578 1682.48,-763.127"/>
<polygon fill="black" stroke="black" points="1684.98,-765.581 1689.83,-756.163 1680.16,-760.499 1684.98,-765.581"/>
</g>
<!-- node152 -->
<g id="node4" class="node"><title>node152</title>
<polygon fill="none" stroke="black" points="1789,-36 1749.06,-18 1789,-3.55271e-15 1828.94,-18 1789,-36"/>
<text text-anchor="middle" x="1789" y="-14.7" font-family="Times Roman,serif" font-size="12.00">lzma</text>
</g>
<!-- node151&#45;&gt;node152 -->
<g id="edge4" class="edge"><title>node151&#45;&gt;node152</title>
<path fill="none" stroke="black" d="M1883.92,-74.0209C1863.47,-61.9494 1835.55,-45.4743 1815.29,-33.5172"/>
<polygon fill="black" stroke="black" points="1816.97,-30.4417 1806.58,-28.3733 1813.41,-36.4701 1816.97,-30.4417"/>
</g>
<!-- node187 -->
<g id="node6" class="node"><title>node187</title>
<ellipse fill="none" stroke="black" cx="1874" cy="-18" rx="27" ry="18"/>
<text text-anchor="middle" x="1874" y="-14.7" font-family="Times Roman,serif" font-size="12.00">dl</text>
</g>
<!-- node151&#45;&gt;node187 -->
<g id="edge6" class="edge"><title>node151&#45;&gt;node187</title>
<path fill="none" stroke="black" d="M1901.66,-71.8314C1897.41,-63.5451 1892.28,-53.5727 1887.61,-44.4748"/>
<polygon fill="black" stroke="black" points="1890.63,-42.7123 1882.95,-35.4177 1884.41,-45.9118 1890.63,-42.7123"/>
</g>
<!-- node179 -->
<g id="node8" class="node"><title>node179</title>
<ellipse fill="none" stroke="black" cx="1949" cy="-18" rx="30.0465" ry="18"/>
<text text-anchor="middle" x="1949" y="-14.7" font-family="Times Roman,serif" font-size="12.00">crypt</text>
</g>
<!-- node151&#45;&gt;node179 -->
<g id="edge8" class="edge"><title>node151&#45;&gt;node179</title>
<path fill="none" stroke="black" d="M1920.59,-71.8314C1924.96,-63.5451 1930.23,-53.5727 1935.03,-44.4748"/>
<polygon fill="black" stroke="black" points="1938.24,-45.8952 1939.81,-35.4177 1932.04,-42.6279 1938.24,-45.8952"/>
</g>
<!-- node188 -->
<g id="node10" class="node"><title>node188</title>
<ellipse fill="none" stroke="black" cx="2024" cy="-18" rx="27" ry="18"/>
<text text-anchor="middle" x="2024" y="-14.7" font-family="Times Roman,serif" font-size="12.00">rt</text>
</g>
<!-- node151&#45;&gt;node188 -->
<g id="edge10" class="edge"><title>node151&#45;&gt;node188</title>
<path fill="none" stroke="black" d="M1938.07,-72.7542C1955.41,-61.7009 1977.9,-47.375 1995.52,-36.1494"/>
<polygon fill="black" stroke="black" points="1997.68,-38.9209 2004.23,-30.5955 1993.92,-33.0174 1997.68,-38.9209"/>
</g>
<!-- node169&#45;&gt;node151 -->
<g id="edge14" class="edge"><title>node169&#45;&gt;node151</title>
<path fill="none" stroke="black" d="M2177,-663.594C2306.19,-653.832 2682,-605.852 2682,-378 2682,-378 2682,-378 2682,-234 2682,-182.775 2655.28,-167.953 2610,-144 2551.34,-112.968 2085.31,-95.6179 1948.58,-91.1601"/>
<polygon fill="black" stroke="black" points="1948.32,-87.65 1938.21,-90.8263 1948.09,-94.6464 1948.32,-87.65"/>
</g>
<!-- node169&#45;&gt;node146 -->
<g id="edge16" class="edge"><title>node169&#45;&gt;node146</title>
<path fill="none" stroke="black" d="M2090.9,-647.973C2044.29,-628.823 1967.58,-598.296 1900,-576 1672.26,-500.868 1614.15,-483.784 1380,-432 1284.97,-410.984 1257.28,-423.776 1164,-396 1162.74,-395.626 1161.47,-395.222 1160.2,-394.796"/>
<polygon fill="black" stroke="black" points="1161.03,-391.371 1150.44,-391.156 1158.58,-397.93 1161.03,-391.371"/>
</g>
<!-- node169&#45;&gt;node52 -->
<g id="edge32" class="edge"><title>node169&#45;&gt;node52</title>
<path fill="none" stroke="black" d="M2168.06,-647.914C2206.36,-628.145 2270.81,-596.551 2329,-576 2387.9,-555.197 2407.38,-558.367 2471.21,-540.079"/>
<polygon fill="black" stroke="black" points="2472.35,-543.392 2480.96,-537.219 2470.38,-536.675 2472.35,-543.392"/>
</g>
<!-- node169&#45;&gt;node63 -->
<g id="edge36" class="edge"><title>node169&#45;&gt;node63</title>
<path fill="none" stroke="black" d="M2090.87,-663.666C1921.83,-654.171 1288.37,-615.309 772,-540 758.43,-538.021 743.812,-535.338 730.385,-532.649"/>
<polygon fill="black" stroke="black" points="730.885,-529.178 720.386,-530.602 729.481,-536.036 730.885,-529.178"/>
</g>
<!-- node153 -->
<g id="node49" class="node"><title>node153</title>
<polygon fill="none" stroke="black" points="2090,-180 2036,-180 2036,-144 2090,-144 2090,-180"/>
<text text-anchor="middle" x="2063" y="-158.7" font-family="Times Roman,serif" font-size="12.00">mp</text>
</g>
<!-- node169&#45;&gt;node153 -->
<g id="edge60" class="edge"><title>node169&#45;&gt;node153</title>
<path fill="none" stroke="black" d="M2154.68,-647.957C2220.69,-590.259 2422.49,-413.022 2430,-396 2449.38,-352.087 2455.87,-328.432 2430,-288 2393.32,-230.668 2185.88,-185.339 2100.11,-168.786"/>
<polygon fill="black" stroke="black" points="2100.52,-165.3 2090.04,-166.866 2099.21,-172.176 2100.52,-165.3"/>
</g>
<!-- node169&#45;&gt;node66 -->
<g id="edge64" class="edge"><title>node169&#45;&gt;node66</title>
<path fill="none" stroke="black" d="M2130.46,-647.711C2121.27,-600.222 2095.81,-469.093 2074,-360 2072.34,-351.688 2070.51,-342.662 2068.83,-334.411"/>
<polygon fill="black" stroke="black" points="2072.23,-333.585 2066.8,-324.488 2065.37,-334.986 2072.23,-333.585"/>
</g>
<!-- node169&#45;&gt;node164 -->
<g id="edge82" class="edge"><title>node169&#45;&gt;node164</title>
<path fill="none" stroke="black" d="M2090.87,-654.829C2039.29,-641.47 1953.37,-619.218 1900.99,-605.651"/>
<polygon fill="black" stroke="black" points="1901.85,-602.26 1891.29,-603.141 1900.1,-609.036 1901.85,-602.26"/>
</g>
<!-- node146&#45;&gt;node151 -->
<g id="edge26" class="edge"><title>node146&#45;&gt;node151</title>
<path fill="none" stroke="black" d="M1095.93,-363.058C1092.98,-361.856 1089.97,-360.8 1087,-360 1025.3,-343.378 556.749,-370.579 513,-324 502.046,-312.338 502.723,-300.263 513,-288 603.582,-179.918 1660.9,-106.159 1873.79,-92.3485"/>
<polygon fill="black" stroke="black" points="1874.09,-95.8367 1883.84,-91.7004 1873.64,-88.8512 1874.09,-95.8367"/>
</g>
<!-- node186 -->
<g id="node17" class="node"><title>node186</title>
<ellipse fill="none" stroke="black" cx="829" cy="-306" rx="118.939" ry="18"/>
<text text-anchor="middle" x="829" y="-302.7" font-family="Times Roman,serif" font-size="12.00">/usr/lib/libboost_regex&#45;mt.so</text>
</g>
<!-- node146&#45;&gt;node186 -->
<g id="edge18" class="edge"><title>node146&#45;&gt;node186</title>
<path fill="none" stroke="black" d="M1095.8,-363.492C1092.87,-362.206 1089.9,-361.011 1087,-360 1034.94,-341.879 974.756,-328.855 925.614,-320.144"/>
<polygon fill="black" stroke="black" points="926.073,-316.672 915.621,-318.405 924.873,-323.568 926.073,-316.672"/>
</g>
<!-- node183 -->
<g id="node19" class="node"><title>node183</title>
<ellipse fill="none" stroke="black" cx="1044" cy="-306" rx="77.9931" ry="18"/>
<text text-anchor="middle" x="1044" y="-302.7" font-family="Times Roman,serif" font-size="12.00">/usr/lib/libicuuc.so</text>
</g>
<!-- node146&#45;&gt;node183 -->
<g id="edge20" class="edge"><title>node146&#45;&gt;node183</title>
<path fill="none" stroke="black" d="M1103.06,-359.831C1093.28,-350.914 1081.35,-340.045 1070.79,-330.414"/>
<polygon fill="black" stroke="black" points="1073.13,-327.814 1063.38,-323.665 1068.42,-332.988 1073.13,-327.814"/>
</g>
<!-- node184 -->
<g id="node21" class="node"><title>node184</title>
<ellipse fill="none" stroke="black" cx="1225" cy="-306" rx="85.1424" ry="18"/>
<text text-anchor="middle" x="1225" y="-302.7" font-family="Times Roman,serif" font-size="12.00">/usr/lib/libicui18n.so</text>
</g>
<!-- node146&#45;&gt;node184 -->
<g id="edge22" class="edge"><title>node146&#45;&gt;node184</title>
<path fill="none" stroke="black" d="M1148.74,-359.831C1161.84,-350.586 1177.91,-339.241 1191.92,-329.354"/>
<polygon fill="black" stroke="black" points="1194.17,-332.044 1200.32,-323.418 1190.14,-326.325 1194.17,-332.044"/>
</g>
<!-- node185 -->
<g id="node23" class="node"><title>node185</title>
<ellipse fill="none" stroke="black" cx="607" cy="-306" rx="85.1424" ry="18"/>
<text text-anchor="middle" x="607" y="-302.7" font-family="Times Roman,serif" font-size="12.00">/usr/lib/libicudata.so</text>
</g>
<!-- node146&#45;&gt;node185 -->
<g id="edge24" class="edge"><title>node146&#45;&gt;node185</title>
<path fill="none" stroke="black" d="M1095.91,-363.15C1092.96,-361.931 1089.96,-360.845 1087,-360 921.33,-312.662 871.588,-348.23 701,-324 693.565,-322.944 685.825,-321.7 678.121,-320.367"/>
<polygon fill="black" stroke="black" points="678.499,-316.879 668.04,-318.572 677.272,-323.771 678.499,-316.879"/>
</g>
<!-- node146&#45;&gt;node147 -->
<g id="edge28" class="edge"><title>node146&#45;&gt;node147</title>
<path fill="none" stroke="black" d="M1095.94,-363.047C1092.98,-361.848 1089.97,-360.795 1087,-360 956.466,-325.073 614.838,-332.814 480,-324 403.749,-319.016 314.573,-312.479 265.377,-308.811"/>
<polygon fill="black" stroke="black" points="265.448,-305.307 255.215,-308.052 264.926,-312.287 265.448,-305.307"/>
</g>
<!-- node147&#45;&gt;node151 -->
<g id="edge30" class="edge"><title>node147&#45;&gt;node151</title>
<path fill="none" stroke="black" d="M228.797,-287.795C231.409,-253.07 242.55,-177.824 290,-144 356.581,-96.5388 1637.13,-90.7478 1873.62,-90.0824"/>
<polygon fill="black" stroke="black" points="1873.78,-93.5821 1883.77,-90.0552 1873.77,-86.5821 1873.78,-93.5821"/>
</g>
<!-- node52&#45;&gt;node151 -->
<g id="edge34" class="edge"><title>node52&#45;&gt;node151</title>
<path fill="none" stroke="black" d="M2542.49,-503.966C2576.15,-469.101 2644,-388.58 2644,-306 2644,-306 2644,-306 2644,-234 2644,-181.932 2615.21,-167.997 2569,-144 2513.84,-115.356 2079.79,-96.4853 1948.5,-91.3895"/>
<polygon fill="black" stroke="black" points="1948.28,-87.8789 1938.16,-90.9925 1948.01,-94.8737 1948.28,-87.8789"/>
</g>
<!-- node63&#45;&gt;node151 -->
<g id="edge38" class="edge"><title>node63&#45;&gt;node151</title>
<path fill="none" stroke="black" d="M643.815,-508.672C638.531,-507.003 633.151,-505.396 628,-504 553.038,-483.687 518.744,-515.113 457,-468 393.624,-419.641 380,-385.719 380,-306 380,-306 380,-306 380,-234 380,-189.859 385.204,-168.382 422,-144 484.321,-102.703 1648.69,-91.9537 1873.58,-90.2592"/>
<polygon fill="black" stroke="black" points="1873.89,-93.7571 1883.86,-90.1832 1873.84,-86.7573 1873.89,-93.7571"/>
</g>
<!-- node63&#45;&gt;node146 -->
<g id="edge42" class="edge"><title>node63&#45;&gt;node146</title>
<path fill="none" stroke="black" d="M686.942,-503.995C693.764,-482.884 708.243,-448.664 734,-432 797.747,-390.757 995.811,-415.95 1085.97,-395.409"/>
<polygon fill="black" stroke="black" points="1087.1,-398.73 1095.9,-392.823 1085.34,-391.956 1087.1,-398.73"/>
</g>
<!-- node63&#45;&gt;node147 -->
<g id="edge40" class="edge"><title>node63&#45;&gt;node147</title>
<path fill="none" stroke="black" d="M643.726,-520.451C537.075,-515.744 242.468,-499.941 214,-468 181.208,-431.207 199.654,-369.253 214.703,-333.569"/>
<polygon fill="black" stroke="black" points="217.983,-334.805 218.812,-324.243 211.577,-331.983 217.983,-334.805"/>
</g>
<!-- node63&#45;&gt;node53 -->
<g id="edge44" class="edge"><title>node63&#45;&gt;node53</title>
<path fill="none" stroke="black" d="M643.934,-507.786C639.282,-506.358 634.562,-505.05 630,-504 499.135,-473.864 459.985,-501.728 330,-468 328.742,-467.674 327.472,-467.319 326.196,-466.941"/>
<polygon fill="black" stroke="black" points="327.007,-463.522 316.413,-463.667 324.785,-470.16 327.007,-463.522"/>
</g>
<!-- node156 -->
<g id="node42" class="node"><title>node156</title>
<polygon fill="none" stroke="black" points="682,-468 588,-468 588,-432 682,-432 682,-468"/>
<text text-anchor="middle" x="635" y="-446.7" font-family="Times Roman,serif" font-size="12.00">securesocket</text>
</g>
<!-- node63&#45;&gt;node156 -->
<g id="edge52" class="edge"><title>node63&#45;&gt;node156</title>
<path fill="none" stroke="black" d="M670.14,-503.831C664.837,-495.708 658.476,-485.964 652.633,-477.012"/>
<polygon fill="black" stroke="black" points="655.417,-474.874 647.02,-468.413 649.555,-478.7 655.417,-474.874"/>
</g>
<!-- node53&#45;&gt;node151 -->
<g id="edge46" class="edge"><title>node53&#45;&gt;node151</title>
<path fill="none" stroke="black" d="M289.73,-431.905C295.002,-404.705 304,-351.602 304,-306 304,-306 304,-306 304,-234 304,-185.427 323.403,-167.34 366,-144 434.17,-106.648 1644.53,-92.6742 1873.72,-90.3577"/>
<polygon fill="black" stroke="black" points="1873.91,-93.856 1883.88,-90.2562 1873.84,-86.8563 1873.91,-93.856"/>
</g>
<!-- node53&#45;&gt;node146 -->
<g id="edge50" class="edge"><title>node53&#45;&gt;node146</title>
<path fill="none" stroke="black" d="M316.114,-448.132C451.641,-439.708 1001.73,-405.306 1086.05,-394.57"/>
<polygon fill="black" stroke="black" points="1086.64,-398.02 1095.93,-392.928 1085.49,-391.115 1086.64,-398.02"/>
</g>
<!-- node53&#45;&gt;node147 -->
<g id="edge48" class="edge"><title>node53&#45;&gt;node147</title>
<path fill="none" stroke="black" d="M278.654,-431.762C268.674,-406.985 250.745,-362.471 239.114,-333.594"/>
<polygon fill="black" stroke="black" points="242.269,-332.058 235.286,-324.09 235.776,-334.673 242.269,-332.058"/>
</g>
<!-- node156&#45;&gt;node151 -->
<g id="edge54" class="edge"><title>node156&#45;&gt;node151</title>
<path fill="none" stroke="black" d="M587.786,-439.542C546.283,-429.404 490.193,-413.091 475,-396 447.839,-365.446 456,-346.882 456,-306 456,-306 456,-306 456,-234 456,-6.89411 733.443,-170.479 959,-144 1313.22,-102.417 1745.49,-92.5791 1873.56,-90.5055"/>
<polygon fill="black" stroke="black" points="1873.69,-94.0041 1883.63,-90.3485 1873.58,-87.0049 1873.69,-94.0041"/>
</g>
<!-- node191 -->
<g id="node45" class="node"><title>node191</title>
<ellipse fill="none" stroke="black" cx="941" cy="-378" rx="137.138" ry="18"/>
<text text-anchor="middle" x="941" y="-374.7" font-family="Times Roman,serif" font-size="12.00">/usr/lib/x86_64&#45;linux&#45;gnu/libssl.so</text>
</g>
<!-- node156&#45;&gt;node191 -->
<g id="edge56" class="edge"><title>node156&#45;&gt;node191</title>
<path fill="none" stroke="black" d="M682.198,-435.718C686.85,-434.417 691.509,-433.156 696,-432 748.867,-418.392 808.694,-405.165 855.993,-395.207"/>
<polygon fill="black" stroke="black" points="856.82,-398.61 865.889,-393.133 855.384,-391.759 856.82,-398.61"/>
</g>
<!-- node192 -->
<g id="node47" class="node"><title>node192</title>
<ellipse fill="none" stroke="black" cx="635" cy="-378" rx="150.937" ry="18"/>
<text text-anchor="middle" x="635" y="-374.7" font-family="Times Roman,serif" font-size="12.00">/usr/lib/x86_64&#45;linux&#45;gnu/libcrypto.so</text>
</g>
<!-- node156&#45;&gt;node192 -->
<g id="edge58" class="edge"><title>node156&#45;&gt;node192</title>
<path fill="none" stroke="black" d="M635,-431.831C635,-424.131 635,-414.974 635,-406.417"/>
<polygon fill="black" stroke="black" points="638.5,-406.413 635,-396.413 631.5,-406.413 638.5,-406.413"/>
</g>
<!-- node153&#45;&gt;node151 -->
<g id="edge62" class="edge"><title>node153&#45;&gt;node151</title>
<path fill="none" stroke="black" d="M2035.83,-149.128C2011.15,-137.441 1974.57,-120.114 1947.39,-107.235"/>
<polygon fill="black" stroke="black" points="1948.73,-104 1938.2,-102.882 1945.73,-110.326 1948.73,-104"/>
</g>
<!-- node66&#45;&gt;node151 -->
<g id="edge66" class="edge"><title>node66&#45;&gt;node151</title>
<path fill="none" stroke="black" d="M2050.3,-287.955C2023.48,-249.838 1960.94,-160.973 1929.6,-116.434"/>
<polygon fill="black" stroke="black" points="1932.39,-114.309 1923.77,-108.145 1926.66,-118.337 1932.39,-114.309"/>
</g>
<!-- node66&#45;&gt;node153 -->
<g id="edge68" class="edge"><title>node66&#45;&gt;node153</title>
<path fill="none" stroke="black" d="M2063,-287.762C2063,-263.201 2063,-219.247 2063,-190.354"/>
<polygon fill="black" stroke="black" points="2066.5,-190.09 2063,-180.09 2059.5,-190.09 2066.5,-190.09"/>
</g>
<!-- node149 -->
<g id="node56" class="node"><title>node149</title>
<polygon fill="none" stroke="black" points="1938,-252 1884,-252 1884,-216 1938,-216 1938,-252"/>
<text text-anchor="middle" x="1911" y="-230.7" font-family="Times Roman,serif" font-size="12.00">hrpc</text>
</g>
<!-- node66&#45;&gt;node149 -->
<g id="edge70" class="edge"><title>node66&#45;&gt;node149</title>
<path fill="none" stroke="black" d="M2031.87,-291.256C2007.27,-279.604 1972.9,-263.323 1947.1,-251.1"/>
<polygon fill="black" stroke="black" points="1948.55,-247.914 1938.01,-246.796 1945.55,-254.24 1948.55,-247.914"/>
</g>
<!-- node66&#45;&gt;node59 -->
<g id="edge76" class="edge"><title>node66&#45;&gt;node59</title>
<path fill="none" stroke="black" d="M2094.33,-292.961C2123.24,-280.931 2166.25,-263.029 2197.29,-250.109"/>
<polygon fill="black" stroke="black" points="2199.03,-253.177 2206.92,-246.103 2196.34,-246.714 2199.03,-253.177"/>
</g>
<!-- node149&#45;&gt;node151 -->
<g id="edge72" class="edge"><title>node149&#45;&gt;node151</title>
<path fill="none" stroke="black" d="M1911,-215.762C1911,-191.201 1911,-147.247 1911,-118.354"/>
<polygon fill="black" stroke="black" points="1914.5,-118.09 1911,-108.09 1907.5,-118.09 1914.5,-118.09"/>
</g>
<!-- node149&#45;&gt;node153 -->
<g id="edge74" class="edge"><title>node149&#45;&gt;node153</title>
<path fill="none" stroke="black" d="M1938.17,-221.128C1962.85,-209.441 1999.43,-192.114 2026.61,-179.235"/>
<polygon fill="black" stroke="black" points="2028.27,-182.326 2035.8,-174.882 2025.27,-176 2028.27,-182.326"/>
</g>
<!-- node59&#45;&gt;node151 -->
<g id="edge78" class="edge"><title>node59&#45;&gt;node151</title>
<path fill="none" stroke="black" d="M2228.48,-215.647C2218.97,-194.862 2200.57,-161.603 2174,-144 2137.28,-119.678 2011.45,-101.838 1948.09,-94.1643"/>
<polygon fill="black" stroke="black" points="1948.46,-90.6834 1938.11,-92.9779 1947.63,-97.6345 1948.46,-90.6834"/>
</g>
<!-- node59&#45;&gt;node153 -->
<g id="edge80" class="edge"><title>node59&#45;&gt;node153</title>
<path fill="none" stroke="black" d="M2206.65,-221.786C2177.12,-209.497 2131.51,-190.513 2099.63,-177.244"/>
<polygon fill="black" stroke="black" points="2100.78,-173.934 2090.21,-173.323 2098.09,-180.397 2100.78,-173.934"/>
</g>
<!-- node164&#45;&gt;node151 -->
<g id="edge84" class="edge"><title>node164&#45;&gt;node151</title>
<path fill="none" stroke="black" d="M1891.15,-577.602C1892.78,-577.027 1894.4,-576.489 1896,-576 1986.57,-548.349 2017.09,-572.601 2106,-540 2135.56,-529.162 2139.44,-519.205 2167,-504 2197.63,-487.102 2209.35,-489.438 2237,-468 2270.83,-441.764 2277.98,-432.097 2301,-396 2324.44,-359.246 2340,-349.594 2340,-306 2340,-306 2340,-306 2340,-234 2340,-161.519 2271.22,-171.115 2204,-144 2116.62,-108.751 2005.24,-96.3244 1948.26,-92.0883"/>
<polygon fill="black" stroke="black" points="1948.49,-88.5961 1938.27,-91.389 1948,-95.579 1948.49,-88.5961"/>
</g>
<!-- node164&#45;&gt;node146 -->
<g id="edge128" class="edge"><title>node164&#45;&gt;node146</title>
<path fill="none" stroke="black" d="M1820.74,-583.107C1733.68,-556.318 1501.37,-485.517 1306,-432 1243.21,-414.799 1225.57,-417.159 1164,-396 1162.58,-395.511 1161.13,-394.992 1159.68,-394.452"/>
<polygon fill="black" stroke="black" points="1160.68,-391.084 1150.1,-390.646 1158.1,-397.59 1160.68,-391.084"/>
</g>
<!-- node164&#45;&gt;node147 -->
<g id="edge126" class="edge"><title>node164&#45;&gt;node147</title>
<path fill="none" stroke="black" d="M1820.88,-593.072C1648.97,-588.411 900.394,-566.726 800,-540 765.811,-530.898 763.08,-513.502 729,-504 677.268,-489.577 285.768,-505.165 247,-468 211.278,-433.755 215.472,-370.776 221.732,-334.248"/>
<polygon fill="black" stroke="black" points="225.202,-334.732 223.61,-324.258 218.323,-333.439 225.202,-334.732"/>
</g>
<!-- node164&#45;&gt;node52 -->
<g id="edge146" class="edge"><title>node164&#45;&gt;node52</title>
<path fill="none" stroke="black" d="M1891.23,-592.053C2001.69,-585.775 2341.11,-565.114 2470.75,-539.898"/>
<polygon fill="black" stroke="black" points="2471.72,-543.272 2480.81,-537.839 2470.32,-536.414 2471.72,-543.272"/>
</g>
<!-- node164&#45;&gt;node63 -->
<g id="edge148" class="edge"><title>node164&#45;&gt;node63</title>
<path fill="none" stroke="black" d="M1820.91,-590.494C1779.41,-586.461 1708.24,-579.895 1647,-576 1258.57,-551.295 1158.45,-586.307 772,-540 758.384,-538.368 743.751,-535.8 730.324,-533.108"/>
<polygon fill="black" stroke="black" points="730.83,-529.639 720.328,-531.039 729.411,-536.493 730.83,-529.639"/>
</g>
<!-- node164&#45;&gt;node53 -->
<g id="edge130" class="edge"><title>node164&#45;&gt;node53</title>
<path fill="none" stroke="black" d="M1820.89,-592.948C1705.85,-589.24 1329.89,-575.063 1021,-540 922.118,-528.776 898.814,-515.811 800,-504 591.98,-479.136 533.869,-516.247 330,-468 328.735,-467.701 327.459,-467.37 326.179,-467.013"/>
<polygon fill="black" stroke="black" points="326.961,-463.588 316.369,-463.844 324.809,-470.249 326.961,-463.588"/>
</g>
<!-- node164&#45;&gt;node66 -->
<g id="edge92" class="edge"><title>node164&#45;&gt;node66</title>
<path fill="none" stroke="black" d="M1884.48,-575.931C1930,-545.253 2017.89,-478.231 2056,-396 2064.93,-376.744 2066.37,-352.676 2065.74,-334.275"/>
<polygon fill="black" stroke="black" points="2069.23,-333.964 2065.18,-324.175 2062.24,-334.354 2069.23,-333.964"/>
</g>
<!-- node164&#45;&gt;node59 -->
<g id="edge90" class="edge"><title>node164&#45;&gt;node59</title>
<path fill="none" stroke="black" d="M1891.22,-587.752C1931.85,-579.801 2000.11,-564.129 2055,-540 2109.86,-515.885 2254.07,-448.482 2283,-396 2307.4,-351.739 2277.54,-293.532 2255.49,-260.296"/>
<polygon fill="black" stroke="black" points="2258.35,-258.281 2249.81,-252.012 2252.58,-262.239 2258.35,-258.281"/>
</g>
<!-- node164&#45;&gt;node150 -->
<g id="edge86" class="edge"><title>node164&#45;&gt;node150</title>
<path fill="none" stroke="black" d="M1891.41,-589.604C1994.37,-576.823 2293.03,-539.748 2398.54,-526.65"/>
<polygon fill="black" stroke="black" points="2399.22,-530.093 2408.71,-525.388 2398.36,-523.146 2399.22,-530.093"/>
</g>
<!-- node164&#45;&gt;node55 -->
<g id="edge94" class="edge"><title>node164&#45;&gt;node55</title>
<path fill="none" stroke="black" d="M1891.12,-585.557C1924.25,-576.8 1974.69,-561.379 2015,-540 2053.51,-519.575 2150.02,-442.484 2199.2,-402.458"/>
<polygon fill="black" stroke="black" points="2201.41,-405.167 2206.95,-396.134 2196.99,-399.742 2201.41,-405.167"/>
</g>
<!-- node164&#45;&gt;node54 -->
<g id="edge104" class="edge"><title>node164&#45;&gt;node54</title>
<path fill="none" stroke="black" d="M1856.86,-575.673C1856.81,-555.838 1853.77,-524.325 1837,-504 1815.88,-478.4 1780.48,-464.719 1752.26,-457.54"/>
<polygon fill="black" stroke="black" points="1752.76,-454.063 1742.23,-455.179 1751.16,-460.877 1752.76,-454.063"/>
</g>
<!-- node164&#45;&gt;node64 -->
<g id="edge132" class="edge"><title>node164&#45;&gt;node64</title>
<path fill="none" stroke="black" d="M1820.95,-590.813C1692.88,-579.171 1250.38,-538.944 1108.3,-526.027"/>
<polygon fill="black" stroke="black" points="1108.48,-522.529 1098.2,-525.109 1107.84,-529.5 1108.48,-522.529"/>
</g>
<!-- node150&#45;&gt;node151 -->
<g id="edge88" class="edge"><title>node150&#45;&gt;node151</title>
<path fill="none" stroke="black" d="M2463.12,-507.788C2485.74,-495.537 2515.72,-478.251 2525,-468 2554.75,-435.131 2568,-422.331 2568,-378 2568,-378 2568,-378 2568,-234 2568,-192.602 2575.73,-170.595 2544,-144 2498.27,-105.664 2077.48,-93.5531 1948.44,-90.7243"/>
<polygon fill="black" stroke="black" points="1948.34,-87.2214 1938.27,-90.5073 1948.19,-94.2198 1948.34,-87.2214"/>
</g>
<!-- node55&#45;&gt;node151 -->
<g id="edge96" class="edge"><title>node55&#45;&gt;node151</title>
<path fill="none" stroke="black" d="M2224.18,-359.938C2211.51,-316.004 2173.03,-202.855 2099,-144 2075.66,-125.444 1995.87,-106.935 1948.07,-97.1405"/>
<polygon fill="black" stroke="black" points="1948.59,-93.6755 1938.09,-95.1287 1947.2,-100.537 1948.59,-93.6755"/>
</g>
<!-- node55&#45;&gt;node153 -->
<g id="edge98" class="edge"><title>node55&#45;&gt;node153</title>
<path fill="none" stroke="black" d="M2192.42,-359.781C2176.7,-350.639 2159.01,-338.427 2146,-324 2109.5,-283.521 2084.51,-224.052 2072.08,-189.555"/>
<polygon fill="black" stroke="black" points="2075.39,-188.391 2068.77,-180.112 2068.78,-190.707 2075.39,-188.391"/>
</g>
<!-- node55&#45;&gt;node66 -->
<g id="edge102" class="edge"><title>node55&#45;&gt;node66</title>
<path fill="none" stroke="black" d="M2187.11,-359.831C2161.48,-348.712 2128.84,-334.557 2103.47,-323.553"/>
<polygon fill="black" stroke="black" points="2104.7,-320.271 2094.13,-319.503 2101.91,-326.693 2104.7,-320.271"/>
</g>
<!-- node55&#45;&gt;node59 -->
<g id="edge100" class="edge"><title>node55&#45;&gt;node59</title>
<path fill="none" stroke="black" d="M2229.89,-359.762C2231.08,-335.201 2233.22,-291.247 2234.62,-262.354"/>
<polygon fill="black" stroke="black" points="2238.13,-262.248 2235.12,-252.09 2231.14,-261.908 2238.13,-262.248"/>
</g>
<!-- node54&#45;&gt;node151 -->
<g id="edge108" class="edge"><title>node54&#45;&gt;node151</title>
<path fill="none" stroke="black" d="M1675.78,-448.055C1583.21,-442.299 1327.51,-423.983 1303,-396 1292.46,-383.964 1296.98,-374.825 1303,-360 1319.79,-318.647 1335.57,-312.312 1373,-288 1542.98,-177.59 1782.98,-117.543 1874.03,-97.6016"/>
<polygon fill="black" stroke="black" points="1874.85,-101.006 1883.88,-95.4742 1873.37,-94.1642 1874.85,-101.006"/>
</g>
<!-- node54&#45;&gt;node146 -->
<g id="edge114" class="edge"><title>node54&#45;&gt;node146</title>
<path fill="none" stroke="black" d="M1675.99,-435.979C1671.36,-434.418 1666.61,-433.025 1662,-432 1445.39,-383.799 1379.4,-449.379 1164,-396 1162.73,-395.684 1161.44,-395.332 1160.16,-394.95"/>
<polygon fill="black" stroke="black" points="1160.93,-391.514 1150.34,-391.524 1158.63,-398.123 1160.93,-391.514"/>
</g>
<!-- node54&#45;&gt;node153 -->
<g id="edge110" class="edge"><title>node54&#45;&gt;node153</title>
<path fill="none" stroke="black" d="M1742.09,-436.338C1746.71,-434.721 1751.44,-433.217 1756,-432 1855.54,-405.43 1906.37,-462.568 1985,-396 1989.09,-392.534 2034.58,-251.092 2054.14,-189.823"/>
<polygon fill="black" stroke="black" points="2057.56,-190.627 2057.26,-180.037 2050.89,-188.5 2057.56,-190.627"/>
</g>
<!-- node54&#45;&gt;node66 -->
<g id="edge118" class="edge"><title>node54&#45;&gt;node66</title>
<path fill="none" stroke="black" d="M1675.95,-436.161C1671.32,-434.572 1666.58,-433.122 1662,-432 1523.35,-398.051 1251.95,-464.672 1349,-360 1372.01,-335.186 1872.56,-313.512 2021.53,-307.593"/>
<polygon fill="black" stroke="black" points="2021.79,-311.086 2031.64,-307.194 2021.51,-304.091 2021.79,-311.086"/>
</g>
<!-- node54&#45;&gt;node149 -->
<g id="edge112" class="edge"><title>node54&#45;&gt;node149</title>
<path fill="none" stroke="black" d="M1675.96,-436.126C1671.33,-434.543 1666.59,-433.104 1662,-432 1513.09,-396.177 1228.75,-479.139 1325,-360 1394.82,-273.566 1755.94,-243.656 1873.77,-236.114"/>
<polygon fill="black" stroke="black" points="1874,-239.607 1883.76,-235.492 1873.56,-232.621 1874,-239.607"/>
</g>
<!-- node54&#45;&gt;node59 -->
<g id="edge116" class="edge"><title>node54&#45;&gt;node59</title>
<path fill="none" stroke="black" d="M1742.02,-442.611C1757.73,-439.198 1776.8,-435.202 1794,-432 1893.13,-413.55 1925.1,-435.194 2018,-396 2096.28,-362.975 2172.36,-296.185 2210.56,-259.521"/>
<polygon fill="black" stroke="black" points="2213.39,-261.655 2218.12,-252.177 2208.51,-256.632 2213.39,-261.655"/>
</g>
<!-- node54&#45;&gt;node55 -->
<g id="edge120" class="edge"><title>node54&#45;&gt;node55</title>
<path fill="none" stroke="black" d="M1742.35,-442.025C1757.96,-438.527 1776.85,-434.628 1794,-432 1959.94,-406.57 2005.33,-428.658 2170,-396 2171.27,-395.748 2172.55,-395.48 2173.84,-395.197"/>
<polygon fill="black" stroke="black" points="2174.92,-398.538 2183.82,-392.787 2173.27,-391.734 2174.92,-398.538"/>
</g>
<!-- node176 -->
<g id="node80" class="node"><title>node176</title>
<ellipse fill="none" stroke="black" cx="1489" cy="-378" rx="130.789" ry="18"/>
<text text-anchor="middle" x="1489" y="-374.7" font-family="Times Roman,serif" font-size="12.00">/usr/lib/x86_64&#45;linux&#45;gnu/libz.so</text>
</g>
<!-- node54&#45;&gt;node176 -->
<g id="edge106" class="edge"><title>node54&#45;&gt;node176</title>
<path fill="none" stroke="black" d="M1675.97,-437.05C1671.3,-435.306 1666.54,-433.576 1662,-432 1626.71,-419.749 1586.95,-407.248 1554.45,-397.363"/>
<polygon fill="black" stroke="black" points="1555.19,-393.931 1544.61,-394.382 1553.16,-400.631 1555.19,-393.931"/>
</g>
<!-- node177 -->
<g id="node89" class="node"><title>node177</title>
<ellipse fill="none" stroke="black" cx="1709" cy="-378" rx="70.8437" ry="18"/>
<text text-anchor="middle" x="1709" y="-374.7" font-family="Times Roman,serif" font-size="12.00">/usr/lib/libbfd.so</text>
</g>
<!-- node54&#45;&gt;node177 -->
<g id="edge122" class="edge"><title>node54&#45;&gt;node177</title>
<path fill="none" stroke="black" d="M1709,-431.831C1709,-424.131 1709,-414.974 1709,-406.417"/>
<polygon fill="black" stroke="black" points="1712.5,-406.413 1709,-396.413 1705.5,-406.413 1712.5,-406.413"/>
</g>
<!-- node178 -->
<g id="node91" class="node"><title>node178</title>
<ellipse fill="none" stroke="black" cx="1887" cy="-378" rx="89.0421" ry="18"/>
<text text-anchor="middle" x="1887" y="-374.7" font-family="Times Roman,serif" font-size="12.00">/usr/lib/libiberty_pic.a</text>
</g>
<!-- node54&#45;&gt;node178 -->
<g id="edge124" class="edge"><title>node54&#45;&gt;node178</title>
<path fill="none" stroke="black" d="M1742.06,-436.626C1768.83,-425.801 1806.94,-410.385 1837.36,-398.078"/>
<polygon fill="black" stroke="black" points="1838.99,-401.196 1846.95,-394.201 1836.36,-394.707 1838.99,-401.196"/>
</g>
<!-- node64&#45;&gt;node151 -->
<g id="edge134" class="edge"><title>node64&#45;&gt;node151</title>
<path fill="none" stroke="black" d="M1029.76,-517.322C1001.64,-513.54 960.771,-508.176 925,-504 684.725,-475.947 418,-547.907 418,-306 418,-306 418,-306 418,-234 418,-189.859 423.216,-168.4 460,-144 520.649,-103.77 1652.97,-92.1766 1873.83,-90.294"/>
<polygon fill="black" stroke="black" points="1873.97,-93.7931 1883.94,-90.2092 1873.91,-86.7933 1873.97,-93.7931"/>
</g>
<!-- node64&#45;&gt;node146 -->
<g id="edge142" class="edge"><title>node64&#45;&gt;node146</title>
<path fill="none" stroke="black" d="M1071.47,-503.762C1081.62,-478.985 1099.86,-434.471 1111.69,-405.594"/>
<polygon fill="black" stroke="black" points="1115.04,-406.67 1115.59,-396.09 1108.56,-404.016 1115.04,-406.67"/>
</g>
<!-- node64&#45;&gt;node147 -->
<g id="edge140" class="edge"><title>node64&#45;&gt;node147</title>
<path fill="none" stroke="black" d="M1029.79,-516.993C1001.7,-513.02 960.837,-507.56 925,-504 809.956,-492.571 512.312,-513.427 406,-468 370.008,-452.621 291.37,-372.995 251.777,-331.39"/>
<polygon fill="black" stroke="black" points="254.277,-328.939 244.858,-324.088 249.195,-333.754 254.277,-328.939"/>
</g>
<!-- node64&#45;&gt;node53 -->
<g id="edge144" class="edge"><title>node64&#45;&gt;node53</title>
<path fill="none" stroke="black" d="M1029.96,-516.765C1002.71,-512.744 963.479,-507.33 929,-504 663.533,-478.359 590.029,-527.288 330,-468 328.733,-467.711 327.455,-467.389 326.172,-467.04"/>
<polygon fill="black" stroke="black" points="326.944,-463.613 316.354,-463.912 324.819,-470.283 326.944,-463.613"/>
</g>
<!-- node64&#45;&gt;node66 -->
<g id="edge136" class="edge"><title>node64&#45;&gt;node66</title>
<path fill="none" stroke="black" d="M1080.42,-503.947C1113.69,-468.785 1193.12,-391.786 1278,-360 1347.81,-333.858 1869.2,-313.04 2021.4,-307.47"/>
<polygon fill="black" stroke="black" points="2021.85,-310.957 2031.71,-307.096 2021.59,-303.961 2021.85,-310.957"/>
</g>
<!-- node64&#45;&gt;node54 -->
<g id="edge138" class="edge"><title>node64&#45;&gt;node54</title>
<path fill="none" stroke="black" d="M1098.22,-518.18C1207.04,-506.033 1545,-468.307 1665.65,-454.839"/>
<polygon fill="black" stroke="black" points="1666.09,-458.312 1675.64,-453.724 1665.31,-451.355 1666.09,-458.312"/>
</g>
<!-- node171&#45;&gt;node151 -->
<g id="edge174" class="edge"><title>node171&#45;&gt;node151</title>
<path fill="none" stroke="black" d="M1275.7,-664.258C1083.32,-657.386 435.839,-628.07 251,-540 155.318,-494.41 76,-483.988 76,-378 76,-378 76,-378 76,-234 76,-144.557 169.297,-165.967 256,-144 417.42,-103.104 1642.34,-92.0013 1873.45,-90.2619"/>
<polygon fill="black" stroke="black" points="1873.72,-93.7601 1883.7,-90.186 1873.67,-86.7602 1873.72,-93.7601"/>
</g>
<!-- node171&#45;&gt;node146 -->
<g id="edge178" class="edge"><title>node171&#45;&gt;node146</title>
<path fill="none" stroke="black" d="M1317.05,-647.984C1281.69,-598.789 1183.37,-461.997 1141.87,-404.254"/>
<polygon fill="black" stroke="black" points="1144.62,-402.086 1135.94,-396.009 1138.94,-406.172 1144.62,-402.086"/>
</g>
<!-- node171&#45;&gt;node147 -->
<g id="edge176" class="edge"><title>node171&#45;&gt;node147</title>
<path fill="none" stroke="black" d="M1275.74,-664.985C1156.69,-662.05 876.411,-651.08 791,-612 769.845,-602.32 773.693,-586.632 753,-576 640.465,-518.181 274.532,-565.58 194,-468 163.447,-430.979 180.691,-406.118 194,-360 196.752,-350.464 201.742,-340.988 207.067,-332.699"/>
<polygon fill="black" stroke="black" points="210.111,-334.448 212.886,-324.223 204.341,-330.486 210.111,-334.448"/>
</g>
<!-- node171&#45;&gt;node63 -->
<g id="edge182" class="edge"><title>node171&#45;&gt;node63</title>
<path fill="none" stroke="black" d="M1275.87,-653.97C1151.73,-626.384 848.181,-558.929 730.101,-532.689"/>
<polygon fill="black" stroke="black" points="730.779,-529.254 720.258,-530.502 729.261,-536.088 730.779,-529.254"/>
</g>
<!-- node171&#45;&gt;node53 -->
<g id="edge180" class="edge"><title>node171&#45;&gt;node53</title>
<path fill="none" stroke="black" d="M1275.91,-661.045C1197.9,-653.389 1049.5,-636.915 925,-612 864.532,-599.899 850.831,-590.936 791,-576 721.963,-558.766 698.699,-571.711 635,-540 612.687,-528.892 614.728,-514.23 592,-504 493.645,-459.728 457.545,-490.228 352,-468 343.48,-466.206 334.427,-463.963 325.845,-461.675"/>
<polygon fill="black" stroke="black" points="326.616,-458.258 316.047,-458.994 324.768,-465.01 326.616,-458.258"/>
</g>
<!-- node171&#45;&gt;node66 -->
<g id="edge186" class="edge"><title>node171&#45;&gt;node66</title>
<path fill="none" stroke="black" d="M1322.22,-647.827C1301.07,-595.281 1249.04,-441.725 1325,-360 1348.89,-334.299 1869.65,-313.131 2021.68,-307.482"/>
<polygon fill="black" stroke="black" points="2022.12,-310.968 2031.98,-307.102 2021.86,-303.973 2022.12,-310.968"/>
</g>
<!-- node171&#45;&gt;node59 -->
<g id="edge184" class="edge"><title>node171&#45;&gt;node59</title>
<path fill="none" stroke="black" d="M1384.25,-663.913C1486.06,-659.323 1712.44,-645.922 1900,-612 2020.94,-590.126 2053,-585.927 2167,-540 2228.62,-515.174 2262.99,-524.466 2298,-468 2340.17,-399.979 2328.64,-359.657 2293,-288 2287.5,-276.939 2278.75,-266.942 2269.74,-258.642"/>
<polygon fill="black" stroke="black" points="2272.03,-255.991 2262.18,-252.083 2267.44,-261.279 2272.03,-255.991"/>
</g>
<!-- node171&#45;&gt;node164 -->
<g id="edge172" class="edge"><title>node171&#45;&gt;node164</title>
<path fill="none" stroke="black" d="M1384.31,-658.566C1488.4,-644.318 1714.2,-613.409 1810.74,-600.195"/>
<polygon fill="black" stroke="black" points="1811.34,-603.646 1820.77,-598.822 1810.39,-596.711 1811.34,-603.646"/>
</g>
<!-- node171&#45;&gt;node55 -->
<g id="edge188" class="edge"><title>node171&#45;&gt;node55</title>
<path fill="none" stroke="black" d="M1384.21,-648.633C1544.19,-597.382 2013.15,-447.149 2174.06,-395.6"/>
<polygon fill="black" stroke="black" points="2175.3,-398.877 2183.76,-392.493 2173.17,-392.211 2175.3,-398.877"/>
</g>
<!-- node171&#45;&gt;node54 -->
<g id="edge190" class="edge"><title>node171&#45;&gt;node54</title>
<path fill="none" stroke="black" d="M1349.02,-647.933C1384.51,-615.081 1464.39,-545.163 1543,-504 1582.59,-483.272 1631.64,-468.507 1666.12,-459.713"/>
<polygon fill="black" stroke="black" points="1667.03,-463.095 1675.88,-457.283 1665.34,-456.302 1667.03,-463.095"/>
</g>
<!-- node171&#45;&gt;node64 -->
<g id="edge192" class="edge"><title>node171&#45;&gt;node64</title>
<path fill="none" stroke="black" d="M1275.62,-659.06C1235.85,-652.026 1181.92,-638.27 1141,-612 1115.83,-595.84 1094.4,-568.984 1080.59,-548.806"/>
<polygon fill="black" stroke="black" points="1083.42,-546.739 1074.97,-540.343 1077.59,-550.611 1083.42,-546.739"/>
</g>
<!-- node166&#45;&gt;node151 -->
<g id="edge200" class="edge"><title>node166&#45;&gt;node151</title>
<path fill="none" stroke="black" d="M1759.37,-737.402C1876.91,-735.308 2165.86,-725.92 2252,-684 2291.85,-664.606 2293.07,-646.417 2321,-612 2333.97,-596.014 2530,-326.587 2530,-306 2530,-306 2530,-306 2530,-234 2530,-113.952 2082.74,-93.9454 1948.59,-90.6447"/>
<polygon fill="black" stroke="black" points="1948.47,-87.1412 1938.4,-90.4116 1948.31,-94.1394 1948.47,-87.1412"/>
</g>
<!-- node166&#45;&gt;node146 -->
<g id="edge206" class="edge"><title>node166&#45;&gt;node146</title>
<path fill="none" stroke="black" d="M1679.54,-719.901C1581.44,-659.634 1266.01,-465.858 1158.95,-400.083"/>
<polygon fill="black" stroke="black" points="1160.48,-396.917 1150.13,-394.664 1156.81,-402.881 1160.48,-396.917"/>
</g>
<!-- node166&#45;&gt;node147 -->
<g id="edge204" class="edge"><title>node166&#45;&gt;node147</title>
<path fill="none" stroke="black" d="M1658.85,-735.93C1500.9,-729.236 1014.94,-707.249 859,-684 584.338,-643.05 495.733,-671.232 251,-540 209.709,-517.859 192.653,-510.979 174,-468 166.832,-451.484 172.404,-375.466 179,-360 183.487,-349.48 190.909,-339.66 198.636,-331.356"/>
<polygon fill="black" stroke="black" points="201.194,-333.747 205.743,-324.179 196.22,-328.822 201.194,-333.747"/>
</g>
<!-- node166&#45;&gt;node52 -->
<g id="edge202" class="edge"><title>node166&#45;&gt;node52</title>
<path fill="none" stroke="black" d="M1759.14,-736.793C1912.06,-732.756 2365.54,-718.013 2422,-684 2472.48,-653.586 2501.97,-587.577 2515.32,-549.878"/>
<polygon fill="black" stroke="black" points="2518.76,-550.643 2518.67,-540.049 2512.13,-548.389 2518.76,-550.643"/>
</g>
<!-- node166&#45;&gt;node63 -->
<g id="edge210" class="edge"><title>node166&#45;&gt;node63</title>
<path fill="none" stroke="black" d="M1658.58,-734.807C1538.51,-726.946 1238.35,-705.714 1140,-684 985.675,-649.927 811.888,-578.94 729.812,-543.333"/>
<polygon fill="black" stroke="black" points="730.83,-539.959 720.265,-539.171 728.033,-546.376 730.83,-539.959"/>
</g>
<!-- node166&#45;&gt;node53 -->
<g id="edge208" class="edge"><title>node166&#45;&gt;node53</title>
<path fill="none" stroke="black" d="M1658.95,-735.685C1520.25,-729.026 1132.98,-708.705 1008,-684 740.374,-631.1 433.398,-510.715 325.762,-466.6"/>
<polygon fill="black" stroke="black" points="326.851,-463.264 316.271,-462.696 324.188,-469.737 326.851,-463.264"/>
</g>
<!-- node166&#45;&gt;node66 -->
<g id="edge214" class="edge"><title>node166&#45;&gt;node66</title>
<path fill="none" stroke="black" d="M1718.88,-719.778C1729,-701.386 1745.42,-672.306 1761,-648 1782.16,-614.988 1786.19,-605.526 1812,-576 1889.19,-487.684 1929.77,-485.987 2005,-396 2021.52,-376.236 2037.15,-351.495 2048.02,-332.958"/>
<polygon fill="black" stroke="black" points="2051.13,-334.559 2053.1,-324.147 2045.07,-331.063 2051.13,-334.559"/>
</g>
<!-- node166&#45;&gt;node59 -->
<g id="edge212" class="edge"><title>node166&#45;&gt;node59</title>
<path fill="none" stroke="black" d="M1759.13,-735.408C1879.78,-728.784 2179.1,-709.912 2216,-684 2341.8,-595.663 2359.71,-512.028 2337,-360 2332.06,-326.907 2334.82,-314.96 2315,-288 2304.41,-273.589 2288.75,-261.749 2274.17,-252.866"/>
<polygon fill="black" stroke="black" points="2275.69,-249.701 2265.28,-247.721 2272.18,-255.76 2275.69,-249.701"/>
</g>
<!-- node166&#45;&gt;node164 -->
<g id="edge226" class="edge"><title>node166&#45;&gt;node164</title>
<path fill="none" stroke="black" d="M1727.62,-719.762C1753.57,-694.335 1800.75,-648.125 1830.11,-619.357"/>
<polygon fill="black" stroke="black" points="1832.84,-621.588 1837.53,-612.09 1827.94,-616.587 1832.84,-621.588"/>
</g>
<!-- node166&#45;&gt;node150 -->
<g id="edge224" class="edge"><title>node166&#45;&gt;node150</title>
<path fill="none" stroke="black" d="M1759.07,-737.373C1908.94,-735.042 2346.66,-724.777 2395,-684 2433.95,-651.141 2438.75,-587.101 2437.93,-550.142"/>
<polygon fill="black" stroke="black" points="2441.42,-549.906 2437.55,-540.045 2434.43,-550.17 2441.42,-549.906"/>
</g>
<!-- node166&#45;&gt;node55 -->
<g id="edge216" class="edge"><title>node166&#45;&gt;node55</title>
<path fill="none" stroke="black" d="M1759.14,-735.065C1874.55,-727.922 2151.72,-708.417 2186,-684 2222.11,-658.282 2229,-638.331 2229,-594 2229,-594 2229,-594 2229,-522 2229,-481.876 2229,-435.463 2229,-406.418"/>
<polygon fill="black" stroke="black" points="2232.5,-406.185 2229,-396.185 2225.5,-406.185 2232.5,-406.185"/>
</g>
<!-- node166&#45;&gt;node54 -->
<g id="edge218" class="edge"><title>node166&#45;&gt;node54</title>
<path fill="none" stroke="black" d="M1709,-719.984C1709,-671.294 1709,-536.796 1709,-478.057"/>
<polygon fill="black" stroke="black" points="1712.5,-478.009 1709,-468.009 1705.5,-478.009 1712.5,-478.009"/>
</g>
<!-- node166&#45;&gt;node64 -->
<g id="edge220" class="edge"><title>node166&#45;&gt;node64</title>
<path fill="none" stroke="black" d="M1658.74,-736.474C1575.8,-732.936 1405.65,-721.364 1267,-684 1188.56,-662.863 1155.46,-670.41 1099,-612 1082.61,-595.038 1073.66,-569.532 1068.93,-549.999"/>
<polygon fill="black" stroke="black" points="1072.32,-549.149 1066.76,-540.13 1065.49,-550.647 1072.32,-549.149"/>
</g>
<!-- node166&#45;&gt;node171 -->
<g id="edge222" class="edge"><title>node166&#45;&gt;node171</title>
<path fill="none" stroke="black" d="M1658.67,-728.439C1590.59,-715.506 1469.11,-692.426 1394.43,-678.24"/>
<polygon fill="black" stroke="black" points="1394.69,-674.728 1384.22,-676.3 1393.39,-681.605 1394.69,-674.728"/>
</g>
</g>
</svg>
