<?xml version="1.0" encoding="UTF-8" standalone="no"?>
<!DOCTYPE svg PUBLIC "-//W3C//DTD SVG 1.1//EN"
 "http://www.w3.org/Graphics/SVG/1.1/DTD/svg11.dtd">
<!-- Generated by graphviz version 2.26.3 (20100126.1600)
 -->
<!-- Title: GG Pages: 1 -->
<svg width="2552pt" height="692pt"
 viewBox="0.00 0.00 2552.00 692.00" xmlns="http://www.w3.org/2000/svg" xmlns:xlink="http://www.w3.org/1999/xlink">
<g id="graph1" class="graph" transform="scale(1 1) rotate(0) translate(4 688)">
<title>GG</title>
<polygon fill="white" stroke="white" points="-4,5 -4,-688 2549,-688 2549,5 -4,5"/>
<!-- node57 -->
<g id="node1" class="node"><title>node57</title>
<polygon fill="none" stroke="black" points="1259.22,-671.562 1207,-684 1154.78,-671.562 1154.83,-651.438 1259.17,-651.438 1259.22,-671.562"/>
<text text-anchor="middle" x="1207" y="-662.7" font-family="Times Roman,serif" font-size="12.00">fvserver</text>
</g>
<!-- node151 -->
<g id="node2" class="node"><title>node151</title>
<polygon fill="none" stroke="black" points="1339,-108 1285,-108 1285,-72 1339,-72 1339,-108"/>
<text text-anchor="middle" x="1312" y="-86.7" font-family="Times Roman,serif" font-size="12.00">jlib</text>
</g>
<!-- node57&#45;&gt;node151 -->
<g id="edge2" class="edge"><title>node57&#45;&gt;node151</title>
<path fill="none" stroke="black" d="M1154.85,-664.792C937.593,-659.599 113.462,-638.241 65,-612 21.6112,-588.506 0,-571.341 0,-522 0,-522 0,-522 0,-234 0,-184.397 22.2496,-167.374 66,-144 120.644,-114.806 1073.77,-94.6461 1274.92,-90.7056"/>
<polygon fill="black" stroke="black" points="1275.05,-94.2037 1284.98,-90.5097 1274.92,-87.2051 1275.05,-94.2037"/>
</g>
<!-- node153 -->
<g id="node12" class="node"><title>node153</title>
<polygon fill="none" stroke="black" points="602,-180 548,-180 548,-144 602,-144 602,-180"/>
<text text-anchor="middle" x="575" y="-158.7" font-family="Times Roman,serif" font-size="12.00">mp</text>
</g>
<!-- node57&#45;&gt;node153 -->
<g id="edge12" class="edge"><title>node57&#45;&gt;node153</title>
<path fill="none" stroke="black" d="M1154.81,-654.749C1001.56,-620.55 558.465,-512.989 477,-396 429.296,-327.494 505.948,-232.161 548.966,-187.276"/>
<polygon fill="black" stroke="black" points="551.581,-189.608 556.063,-180.008 546.573,-184.717 551.581,-189.608"/>
</g>
<!-- node149 -->
<g id="node15" class="node"><title>node149</title>
<polygon fill="none" stroke="black" points="1231,-252 1177,-252 1177,-216 1231,-216 1231,-252"/>
<text text-anchor="middle" x="1204" y="-230.7" font-family="Times Roman,serif" font-size="12.00">hrpc</text>
</g>
<!-- node57&#45;&gt;node149 -->
<g id="edge16" class="edge"><title>node57&#45;&gt;node149</title>
<path fill="none" stroke="black" d="M1221.12,-651.416C1243.35,-626.854 1284,-574.73 1284,-522 1284,-522 1284,-522 1284,-450 1284,-378.027 1244.46,-300.491 1220.97,-260.789"/>
<polygon fill="black" stroke="black" points="1223.97,-258.975 1215.8,-252.22 1217.97,-262.591 1223.97,-258.975"/>
</g>
<!-- node59 -->
<g id="node19" class="node"><title>node59</title>
<polygon fill="none" stroke="black" points="274,-252 216,-252 216,-216 274,-216 274,-252"/>
<text text-anchor="middle" x="245" y="-230.7" font-family="Times Roman,serif" font-size="12.00">remote</text>
</g>
<!-- node57&#45;&gt;node59 -->
<g id="edge22" class="edge"><title>node57&#45;&gt;node59</title>
<path fill="none" stroke="black" d="M1154.88,-664.673C956.594,-659.428 258.503,-639.103 220,-612 122.627,-543.456 117.583,-478.53 129,-360 132.126,-327.551 123.585,-314.187 143,-288 158.419,-267.203 184.258,-253.643 206.07,-245.313"/>
<polygon fill="black" stroke="black" points="207.521,-248.511 215.757,-241.846 205.162,-241.92 207.521,-248.511"/>
</g>
<!-- node66 -->
<g id="node23" class="node"><title>node66</title>
<polygon fill="none" stroke="black" points="384,-324 322,-324 322,-288 384,-288 384,-324"/>
<text text-anchor="middle" x="353" y="-302.7" font-family="Times Roman,serif" font-size="12.00">dalibase</text>
</g>
<!-- node57&#45;&gt;node66 -->
<g id="edge28" class="edge"><title>node57&#45;&gt;node66</title>
<path fill="none" stroke="black" d="M1154.9,-664.631C982.939,-659.841 440.305,-642.446 368,-612 312.892,-588.795 268,-581.794 268,-522 268,-522 268,-522 268,-450 268,-403.497 301.281,-358.809 326.193,-331.872"/>
<polygon fill="black" stroke="black" points="328.921,-334.083 333.286,-324.43 323.853,-329.254 328.921,-334.083"/>
</g>
<!-- node55 -->
<g id="node29" class="node"><title>node55</title>
<polygon fill="none" stroke="black" points="240,-396 150,-396 150,-360 240,-360 240,-396"/>
<text text-anchor="middle" x="195" y="-374.7" font-family="Times Roman,serif" font-size="12.00">environment</text>
</g>
<!-- node57&#45;&gt;node55 -->
<g id="edge38" class="edge"><title>node57&#45;&gt;node55</title>
<path fill="none" stroke="black" d="M1154.89,-664.744C960.775,-659.846 288.962,-640.867 254,-612 192.599,-561.302 189.848,-456.909 192.505,-406.491"/>
<polygon fill="black" stroke="black" points="196.011,-406.509 193.156,-396.306 189.025,-406.063 196.011,-406.509"/>
</g>
<!-- node54 -->
<g id="node35" class="node"><title>node54</title>
<polygon fill="none" stroke="black" points="1104,-468 1038,-468 1038,-432 1104,-432 1104,-468"/>
<text text-anchor="middle" x="1071" y="-446.7" font-family="Times Roman,serif" font-size="12.00">dllserver</text>
</g>
<!-- node57&#45;&gt;node54 -->
<g id="edge48" class="edge"><title>node57&#45;&gt;node54</title>
<path fill="none" stroke="black" d="M1197.65,-651.153C1174.98,-615.143 1116.8,-522.746 1087.87,-476.788"/>
<polygon fill="black" stroke="black" points="1090.78,-474.843 1082.49,-468.246 1084.85,-478.573 1090.78,-474.843"/>
</g>
<!-- node146 -->
<g id="node42" class="node"><title>node146</title>
<polygon fill="none" stroke="black" points="2172,-396 2118,-396 2118,-360 2172,-360 2172,-396"/>
<text text-anchor="middle" x="2145" y="-374.7" font-family="Times Roman,serif" font-size="12.00">eclrtl</text>
</g>
<!-- node57&#45;&gt;node146 -->
<g id="edge90" class="edge"><title>node57&#45;&gt;node146</title>
<path fill="none" stroke="black" d="M1259.21,-662.838C1449.97,-650.791 2101.57,-605.142 2166,-540 2199.93,-505.697 2189.75,-478.533 2177,-432 2174.42,-422.584 2169.73,-413.144 2164.71,-404.851"/>
<polygon fill="black" stroke="black" points="2167.6,-402.864 2159.24,-396.358 2161.71,-406.659 2167.6,-402.864"/>
</g>
<!-- node147 -->
<g id="node53" class="node"><title>node147</title>
<polygon fill="none" stroke="black" points="2476,-324 2422,-324 2422,-288 2476,-288 2476,-324"/>
<text text-anchor="middle" x="2449" y="-302.7" font-family="Times Roman,serif" font-size="12.00">nbcd</text>
</g>
<!-- node57&#45;&gt;node147 -->
<g id="edge88" class="edge"><title>node57&#45;&gt;node147</title>
<path fill="none" stroke="black" d="M1259.36,-664.875C1480.46,-659.958 2328.46,-639.382 2378,-612 2469.48,-561.437 2464.51,-500.318 2471,-396 2471.99,-380.031 2474.08,-375.702 2471,-360 2469.27,-351.146 2466.07,-341.912 2462.65,-333.635"/>
<polygon fill="black" stroke="black" points="2465.83,-332.177 2458.59,-324.44 2459.42,-335.002 2465.83,-332.177"/>
</g>
<!-- node150 -->
<g id="node63" class="node"><title>node150</title>
<polygon fill="none" stroke="black" points="82,-540 28,-540 28,-504 82,-504 82,-540"/>
<text text-anchor="middle" x="55" y="-518.7" font-family="Times Roman,serif" font-size="12.00">jhtree</text>
</g>
<!-- node57&#45;&gt;node150 -->
<g id="edge84" class="edge"><title>node57&#45;&gt;node150</title>
<path fill="none" stroke="black" d="M1154.68,-664.965C940.558,-660.536 140.275,-642.028 96,-612 75.3343,-597.984 64.9168,-570.848 59.773,-550.021"/>
<polygon fill="black" stroke="black" points="63.1576,-549.116 57.5936,-540.1 56.3206,-550.618 63.1576,-549.116"/>
</g>
<!-- node53 -->
<g id="node68" class="node"><title>node53</title>
<polygon fill="none" stroke="black" points="2326,-468 2266,-468 2266,-432 2326,-432 2326,-468"/>
<text text-anchor="middle" x="2296" y="-446.7" font-family="Times Roman,serif" font-size="12.00">deftype</text>
</g>
<!-- node57&#45;&gt;node53 -->
<g id="edge92" class="edge"><title>node57&#45;&gt;node53</title>
<path fill="none" stroke="black" d="M1259.11,-664.993C1465.07,-660.799 2213,-643.448 2252,-612 2291.85,-579.865 2297.73,-515.555 2297.49,-478.356"/>
<polygon fill="black" stroke="black" points="2300.99,-478.111 2297.27,-468.189 2293.99,-478.263 2300.99,-478.111"/>
</g>
<!-- node64 -->
<g id="node73" class="node"><title>node64</title>
<polygon fill="none" stroke="black" points="2040,-540 1972,-540 1972,-504 2040,-504 2040,-540"/>
<text text-anchor="middle" x="2006" y="-518.7" font-family="Times Roman,serif" font-size="12.00">workunit</text>
</g>
<!-- node57&#45;&gt;node64 -->
<g id="edge100" class="edge"><title>node57&#45;&gt;node64</title>
<path fill="none" stroke="black" d="M1259.18,-660.748C1382.4,-647.59 1700.41,-609.213 1958,-540 1959.42,-539.617 1960.86,-539.209 1962.31,-538.78"/>
<polygon fill="black" stroke="black" points="1963.46,-542.087 1971.91,-535.696 1961.32,-535.422 1963.46,-542.087"/>
</g>
<!-- node99 -->
<g id="node81" class="node"><title>node99</title>
<polygon fill="none" stroke="black" points="2419,-540 2365,-540 2365,-504 2419,-504 2419,-540"/>
<text text-anchor="middle" x="2392" y="-518.7" font-family="Times Roman,serif" font-size="12.00">hql</text>
</g>
<!-- node57&#45;&gt;node99 -->
<g id="edge114" class="edge"><title>node57&#45;&gt;node99</title>
<path fill="none" stroke="black" d="M1259.02,-665.047C1476.7,-660.867 2305.26,-642.973 2351,-612 2371.68,-597.999 2382.09,-570.861 2387.23,-550.03"/>
<polygon fill="black" stroke="black" points="2390.69,-550.623 2389.41,-540.105 2383.85,-549.123 2390.69,-550.623"/>
</g>
<!-- node56 -->
<g id="node87" class="node"><title>node56</title>
<polygon fill="none" stroke="black" points="1376,-612 1312,-612 1312,-576 1376,-576 1376,-612"/>
<text text-anchor="middle" x="1344" y="-590.7" font-family="Times Roman,serif" font-size="12.00">fileview2</text>
</g>
<!-- node57&#45;&gt;node56 -->
<g id="edge124" class="edge"><title>node57&#45;&gt;node56</title>
<path fill="none" stroke="black" d="M1234.72,-651.43C1254.29,-641.147 1280.84,-627.196 1302.86,-615.62"/>
<polygon fill="black" stroke="black" points="1304.77,-618.572 1311.99,-610.821 1301.51,-612.375 1304.77,-618.572"/>
</g>
<!-- node152 -->
<g id="node4" class="node"><title>node152</title>
<polygon fill="none" stroke="black" points="1190,-36 1150.06,-18 1190,-3.55271e-15 1229.94,-18 1190,-36"/>
<text text-anchor="middle" x="1190" y="-14.7" font-family="Times Roman,serif" font-size="12.00">lzma</text>
</g>
<!-- node151&#45;&gt;node152 -->
<g id="edge4" class="edge"><title>node151&#45;&gt;node152</title>
<path fill="none" stroke="black" d="M1284.92,-74.0209C1264.47,-61.9494 1236.55,-45.4743 1216.29,-33.5172"/>
<polygon fill="black" stroke="black" points="1217.97,-30.4417 1207.58,-28.3733 1214.41,-36.4701 1217.97,-30.4417"/>
</g>
<!-- node187 -->
<g id="node6" class="node"><title>node187</title>
<ellipse fill="none" stroke="black" cx="1275" cy="-18" rx="27" ry="18"/>
<text text-anchor="middle" x="1275" y="-14.7" font-family="Times Roman,serif" font-size="12.00">dl</text>
</g>
<!-- node151&#45;&gt;node187 -->
<g id="edge6" class="edge"><title>node151&#45;&gt;node187</title>
<path fill="none" stroke="black" d="M1302.66,-71.8314C1298.41,-63.5451 1293.28,-53.5727 1288.61,-44.4748"/>
<polygon fill="black" stroke="black" points="1291.63,-42.7123 1283.95,-35.4177 1285.41,-45.9118 1291.63,-42.7123"/>
</g>
<!-- node179 -->
<g id="node8" class="node"><title>node179</title>
<ellipse fill="none" stroke="black" cx="1350" cy="-18" rx="30.0465" ry="18"/>
<text text-anchor="middle" x="1350" y="-14.7" font-family="Times Roman,serif" font-size="12.00">crypt</text>
</g>
<!-- node151&#45;&gt;node179 -->
<g id="edge8" class="edge"><title>node151&#45;&gt;node179</title>
<path fill="none" stroke="black" d="M1321.59,-71.8314C1325.96,-63.5451 1331.23,-53.5727 1336.03,-44.4748"/>
<polygon fill="black" stroke="black" points="1339.24,-45.8952 1340.81,-35.4177 1333.04,-42.6279 1339.24,-45.8952"/>
</g>
<!-- node188 -->
<g id="node10" class="node"><title>node188</title>
<ellipse fill="none" stroke="black" cx="1425" cy="-18" rx="27" ry="18"/>
<text text-anchor="middle" x="1425" y="-14.7" font-family="Times Roman,serif" font-size="12.00">rt</text>
</g>
<!-- node151&#45;&gt;node188 -->
<g id="edge10" class="edge"><title>node151&#45;&gt;node188</title>
<path fill="none" stroke="black" d="M1339.07,-72.7542C1356.41,-61.7009 1378.9,-47.375 1396.52,-36.1494"/>
<polygon fill="black" stroke="black" points="1398.68,-38.9209 1405.23,-30.5955 1394.92,-33.0174 1398.68,-38.9209"/>
</g>
<!-- node153&#45;&gt;node151 -->
<g id="edge14" class="edge"><title>node153&#45;&gt;node151</title>
<path fill="none" stroke="black" d="M602.104,-159.352C714.509,-148.371 1144.2,-106.393 1274.39,-93.674"/>
<polygon fill="black" stroke="black" points="1275.04,-97.1278 1284.65,-92.672 1274.36,-90.161 1275.04,-97.1278"/>
</g>
<!-- node149&#45;&gt;node151 -->
<g id="edge18" class="edge"><title>node149&#45;&gt;node151</title>
<path fill="none" stroke="black" d="M1211.09,-215.958C1219.08,-196.931 1233.3,-166.633 1251,-144 1259.25,-133.451 1269.74,-123.318 1279.69,-114.736"/>
<polygon fill="black" stroke="black" points="1282.07,-117.308 1287.5,-108.209 1277.58,-111.938 1282.07,-117.308"/>
</g>
<!-- node149&#45;&gt;node153 -->
<g id="edge20" class="edge"><title>node149&#45;&gt;node153</title>
<path fill="none" stroke="black" d="M1176.97,-222.434C1170.23,-219.949 1162.94,-217.594 1156,-216 1051.62,-192.032 723.352,-170.82 612.21,-164.161"/>
<polygon fill="black" stroke="black" points="612.337,-160.662 602.147,-163.562 611.921,-167.65 612.337,-160.662"/>
</g>
<!-- node59&#45;&gt;node151 -->
<g id="edge24" class="edge"><title>node59&#45;&gt;node151</title>
<path fill="none" stroke="black" d="M248.01,-215.889C252.59,-194.674 263.52,-160.351 288,-144 329.8,-116.08 1095.09,-95.3886 1274.56,-90.9069"/>
<polygon fill="black" stroke="black" points="1274.9,-94.3995 1284.81,-90.6526 1274.73,-87.4017 1274.9,-94.3995"/>
</g>
<!-- node59&#45;&gt;node153 -->
<g id="edge26" class="edge"><title>node59&#45;&gt;node153</title>
<path fill="none" stroke="black" d="M274.236,-227.465C289.633,-224.033 308.834,-219.769 326,-216 401.069,-199.519 488.94,-180.535 537.654,-170.037"/>
<polygon fill="black" stroke="black" points="538.686,-173.395 547.725,-167.867 537.212,-166.552 538.686,-173.395"/>
</g>
<!-- node66&#45;&gt;node151 -->
<g id="edge30" class="edge"><title>node66&#45;&gt;node151</title>
<path fill="none" stroke="black" d="M357.858,-287.706C363.923,-267.9 376.007,-236.412 396,-216 445.791,-165.166 470.385,-162.849 539,-144 680.143,-105.227 1139.86,-93.3528 1274.58,-90.6632"/>
<polygon fill="black" stroke="black" points="1274.87,-94.1583 1284.8,-90.4645 1274.73,-87.1597 1274.87,-94.1583"/>
</g>
<!-- node66&#45;&gt;node153 -->
<g id="edge32" class="edge"><title>node66&#45;&gt;node153</title>
<path fill="none" stroke="black" d="M367.737,-287.648C384.472,-267.79 413.442,-236.259 444,-216 473.399,-196.509 510.964,-181.911 538.323,-172.84"/>
<polygon fill="black" stroke="black" points="539.463,-176.149 547.906,-169.749 537.315,-169.487 539.463,-176.149"/>
</g>
<!-- node66&#45;&gt;node149 -->
<g id="edge34" class="edge"><title>node66&#45;&gt;node149</title>
<path fill="none" stroke="black" d="M384.043,-303.374C515.276,-292.27 1024.3,-249.203 1166.76,-237.15"/>
<polygon fill="black" stroke="black" points="1167.09,-240.635 1176.76,-236.305 1166.5,-233.66 1167.09,-240.635"/>
</g>
<!-- node66&#45;&gt;node59 -->
<g id="edge36" class="edge"><title>node66&#45;&gt;node59</title>
<path fill="none" stroke="black" d="M325.747,-287.831C312.061,-278.707 295.309,-267.539 280.617,-257.745"/>
<polygon fill="black" stroke="black" points="282.506,-254.798 272.244,-252.163 278.623,-260.622 282.506,-254.798"/>
</g>
<!-- node55&#45;&gt;node151 -->
<g id="edge40" class="edge"><title>node55&#45;&gt;node151</title>
<path fill="none" stroke="black" d="M192.484,-359.902C187.085,-312.687 180.43,-186.486 256,-144 301.278,-118.544 1092.15,-95.8849 1274.64,-90.98"/>
<polygon fill="black" stroke="black" points="1274.91,-94.4741 1284.82,-90.7081 1274.73,-87.4766 1274.91,-94.4741"/>
</g>
<!-- node55&#45;&gt;node153 -->
<g id="edge42" class="edge"><title>node55&#45;&gt;node153</title>
<path fill="none" stroke="black" d="M212.394,-359.961C245.278,-326.84 320.097,-256.066 396,-216 442.05,-191.693 500.674,-176.645 538.032,-168.796"/>
<polygon fill="black" stroke="black" points="538.876,-172.197 547.977,-166.772 537.48,-165.337 538.876,-172.197"/>
</g>
<!-- node55&#45;&gt;node59 -->
<g id="edge44" class="edge"><title>node55&#45;&gt;node59</title>
<path fill="none" stroke="black" d="M201.333,-359.762C209.936,-334.985 225.392,-290.471 235.419,-261.594"/>
<polygon fill="black" stroke="black" points="238.745,-262.684 238.719,-252.09 232.132,-260.388 238.745,-262.684"/>
</g>
<!-- node55&#45;&gt;node66 -->
<g id="edge46" class="edge"><title>node55&#45;&gt;node66</title>
<path fill="none" stroke="black" d="M234.87,-359.831C258.678,-348.982 288.83,-335.242 312.711,-324.359"/>
<polygon fill="black" stroke="black" points="314.213,-327.522 321.861,-320.19 311.31,-321.152 314.213,-327.522"/>
</g>
<!-- node54&#45;&gt;node151 -->
<g id="edge52" class="edge"><title>node54&#45;&gt;node151</title>
<path fill="none" stroke="black" d="M1104.13,-439.341C1126.57,-430.692 1155.56,-416.537 1175,-396 1253.73,-312.828 1292.37,-176.749 1306.03,-118.218"/>
<polygon fill="black" stroke="black" points="1309.5,-118.748 1308.3,-108.222 1302.67,-117.201 1309.5,-118.748"/>
</g>
<!-- node54&#45;&gt;node153 -->
<g id="edge54" class="edge"><title>node54&#45;&gt;node153</title>
<path fill="none" stroke="black" d="M1037.92,-448.649C959.34,-444.878 764.066,-432.04 711,-396 672.772,-370.037 613.004,-245.835 587.361,-189.679"/>
<polygon fill="black" stroke="black" points="590.442,-187.997 583.124,-180.336 584.067,-190.889 590.442,-187.997"/>
</g>
<!-- node54&#45;&gt;node149 -->
<g id="edge56" class="edge"><title>node54&#45;&gt;node149</title>
<path fill="none" stroke="black" d="M1104.09,-434.288C1120.24,-425.131 1138.78,-412.183 1151,-396 1181.49,-355.614 1194.89,-296.903 1200.43,-262.365"/>
<polygon fill="black" stroke="black" points="1203.96,-262.461 1201.97,-252.055 1197.03,-261.431 1203.96,-262.461"/>
</g>
<!-- node54&#45;&gt;node59 -->
<g id="edge74" class="edge"><title>node54&#45;&gt;node59</title>
<path fill="none" stroke="black" d="M1037.68,-448.517C919.726,-443.055 526.35,-422.973 477,-396 423.641,-366.835 442.143,-323.816 393,-288 360.19,-264.088 315.671,-249.751 284.052,-241.924"/>
<polygon fill="black" stroke="black" points="284.808,-238.506 274.27,-239.608 283.195,-245.318 284.808,-238.506"/>
</g>
<!-- node54&#45;&gt;node66 -->
<g id="edge76" class="edge"><title>node54&#45;&gt;node66</title>
<path fill="none" stroke="black" d="M1037.58,-449.078C910.248,-445.324 459.86,-429.753 406,-396 383.552,-381.933 369.465,-354.61 361.506,-333.743"/>
<polygon fill="black" stroke="black" points="364.727,-332.356 358.082,-324.104 358.131,-334.699 364.727,-332.356"/>
</g>
<!-- node54&#45;&gt;node55 -->
<g id="edge78" class="edge"><title>node54&#45;&gt;node55</title>
<path fill="none" stroke="black" d="M1037.67,-447.761C936.743,-440.912 625.537,-419.285 368,-396 328.617,-392.439 284.257,-387.811 250.317,-384.14"/>
<polygon fill="black" stroke="black" points="250.455,-380.634 240.135,-383.033 249.699,-387.593 250.455,-380.634"/>
</g>
<!-- node176 -->
<g id="node37" class="node"><title>node176</title>
<ellipse fill="none" stroke="black" cx="851" cy="-378" rx="130.789" ry="18"/>
<text text-anchor="middle" x="851" y="-374.7" font-family="Times Roman,serif" font-size="12.00">/usr/lib/x86_64&#45;linux&#45;gnu/libz.so</text>
</g>
<!-- node54&#45;&gt;node176 -->
<g id="edge50" class="edge"><title>node54&#45;&gt;node176</title>
<path fill="none" stroke="black" d="M1037.59,-439.065C1004.2,-428.139 952.133,-411.098 911.474,-397.791"/>
<polygon fill="black" stroke="black" points="912.523,-394.452 901.93,-394.668 910.346,-401.105 912.523,-394.452"/>
</g>
<!-- node54&#45;&gt;node146 -->
<g id="edge58" class="edge"><title>node54&#45;&gt;node146</title>
<path fill="none" stroke="black" d="M1104.05,-448.751C1223.61,-444.084 1644.74,-426.373 1991,-396 2030.99,-392.492 2076.65,-386.962 2107.81,-382.957"/>
<polygon fill="black" stroke="black" points="2108.32,-386.42 2117.79,-381.662 2107.42,-379.478 2108.32,-386.42"/>
</g>
<!-- node177 -->
<g id="node59" class="node"><title>node177</title>
<ellipse fill="none" stroke="black" cx="1071" cy="-378" rx="70.8437" ry="18"/>
<text text-anchor="middle" x="1071" y="-374.7" font-family="Times Roman,serif" font-size="12.00">/usr/lib/libbfd.so</text>
</g>
<!-- node54&#45;&gt;node177 -->
<g id="edge80" class="edge"><title>node54&#45;&gt;node177</title>
<path fill="none" stroke="black" d="M1071,-431.831C1071,-424.131 1071,-414.974 1071,-406.417"/>
<polygon fill="black" stroke="black" points="1074.5,-406.413 1071,-396.413 1067.5,-406.413 1074.5,-406.413"/>
</g>
<!-- node178 -->
<g id="node61" class="node"><title>node178</title>
<ellipse fill="none" stroke="black" cx="575" cy="-378" rx="89.0421" ry="18"/>
<text text-anchor="middle" x="575" y="-374.7" font-family="Times Roman,serif" font-size="12.00">/usr/lib/libiberty_pic.a</text>
</g>
<!-- node54&#45;&gt;node178 -->
<g id="edge82" class="edge"><title>node54&#45;&gt;node178</title>
<path fill="none" stroke="black" d="M1037.82,-445.855C970.074,-437.303 811.032,-416.757 678,-396 669.464,-394.668 660.543,-393.21 651.674,-391.717"/>
<polygon fill="black" stroke="black" points="652.151,-388.248 641.706,-390.023 650.978,-395.149 652.151,-388.248"/>
</g>
<!-- node146&#45;&gt;node151 -->
<g id="edge68" class="edge"><title>node146&#45;&gt;node151</title>
<path fill="none" stroke="black" d="M2172.36,-374.367C2220.49,-367.355 2317.08,-350.29 2337,-324 2346.66,-311.246 2347.18,-300.34 2337,-288 2207.68,-131.309 1518.75,-97.2086 1349.55,-91.1536"/>
<polygon fill="black" stroke="black" points="1349.51,-87.6501 1339.39,-90.8018 1349.26,-94.6459 1349.51,-87.6501"/>
</g>
<!-- node186 -->
<g id="node44" class="node"><title>node186</title>
<ellipse fill="none" stroke="black" cx="1847" cy="-306" rx="118.939" ry="18"/>
<text text-anchor="middle" x="1847" y="-302.7" font-family="Times Roman,serif" font-size="12.00">/usr/lib/libboost_regex&#45;mt.so</text>
</g>
<!-- node146&#45;&gt;node186 -->
<g id="edge60" class="edge"><title>node146&#45;&gt;node186</title>
<path fill="none" stroke="black" d="M2117.66,-366.204C2111.89,-363.959 2105.8,-361.764 2100,-360 2046.64,-343.762 1985.51,-330.57 1936.7,-321.29"/>
<polygon fill="black" stroke="black" points="1937.27,-317.836 1926.8,-319.428 1935.98,-324.716 1937.27,-317.836"/>
</g>
<!-- node183 -->
<g id="node46" class="node"><title>node183</title>
<ellipse fill="none" stroke="black" cx="2062" cy="-306" rx="77.9931" ry="18"/>
<text text-anchor="middle" x="2062" y="-302.7" font-family="Times Roman,serif" font-size="12.00">/usr/lib/libicuuc.so</text>
</g>
<!-- node146&#45;&gt;node183 -->
<g id="edge62" class="edge"><title>node146&#45;&gt;node183</title>
<path fill="none" stroke="black" d="M2124.06,-359.831C2113.7,-350.847 2101.06,-339.881 2089.89,-330.196"/>
<polygon fill="black" stroke="black" points="2091.93,-327.327 2082.08,-323.418 2087.34,-332.614 2091.93,-327.327"/>
</g>
<!-- node184 -->
<g id="node48" class="node"><title>node184</title>
<ellipse fill="none" stroke="black" cx="2243" cy="-306" rx="85.1424" ry="18"/>
<text text-anchor="middle" x="2243" y="-302.7" font-family="Times Roman,serif" font-size="12.00">/usr/lib/libicui18n.so</text>
</g>
<!-- node146&#45;&gt;node184 -->
<g id="edge64" class="edge"><title>node146&#45;&gt;node184</title>
<path fill="none" stroke="black" d="M2169.73,-359.831C2182.31,-350.586 2197.76,-339.241 2211.21,-329.354"/>
<polygon fill="black" stroke="black" points="2213.31,-332.159 2219.29,-323.418 2209.16,-326.518 2213.31,-332.159"/>
</g>
<!-- node185 -->
<g id="node50" class="node"><title>node185</title>
<ellipse fill="none" stroke="black" cx="1625" cy="-306" rx="85.1424" ry="18"/>
<text text-anchor="middle" x="1625" y="-302.7" font-family="Times Roman,serif" font-size="12.00">/usr/lib/libicudata.so</text>
</g>
<!-- node146&#45;&gt;node185 -->
<g id="edge66" class="edge"><title>node146&#45;&gt;node185</title>
<path fill="none" stroke="black" d="M2117.8,-365.678C2112.02,-363.472 2105.89,-361.425 2100,-360 1934.68,-320.006 1887.38,-348.021 1719,-324 1711.57,-322.939 1703.83,-321.692 1696.12,-320.358"/>
<polygon fill="black" stroke="black" points="1696.5,-316.87 1686.04,-318.561 1695.27,-323.761 1696.5,-316.87"/>
</g>
<!-- node146&#45;&gt;node147 -->
<g id="edge70" class="edge"><title>node146&#45;&gt;node147</title>
<path fill="none" stroke="black" d="M2172.03,-365.137C2176.62,-363.239 2181.4,-361.44 2186,-360 2265.52,-335.1 2288.48,-341.258 2370,-324 2383.82,-321.075 2398.95,-317.675 2412.24,-314.623"/>
<polygon fill="black" stroke="black" points="2413.03,-318.032 2421.99,-312.371 2411.46,-311.212 2413.03,-318.032"/>
</g>
<!-- node147&#45;&gt;node151 -->
<g id="edge72" class="edge"><title>node147&#45;&gt;node151</title>
<path fill="none" stroke="black" d="M2450.64,-287.84C2452.63,-253.535 2451.32,-179.472 2408,-144 2366.16,-109.741 1536.1,-93.7699 1349.17,-90.5997"/>
<polygon fill="black" stroke="black" points="1349.08,-87.0977 1339.02,-90.4295 1348.96,-94.0968 1349.08,-87.0977"/>
</g>
<!-- node150&#45;&gt;node151 -->
<g id="edge86" class="edge"><title>node150&#45;&gt;node151</title>
<path fill="none" stroke="black" d="M53.1352,-503.837C50.499,-476.55 46,-423.338 46,-378 46,-378 46,-378 46,-234 46,-149.294 132.374,-166.633 214,-144 317.968,-115.173 1094.92,-95.1405 1274.87,-90.857"/>
<polygon fill="black" stroke="black" points="1274.99,-94.3553 1284.9,-90.6199 1274.82,-87.3573 1274.99,-94.3553"/>
</g>
<!-- node53&#45;&gt;node151 -->
<g id="edge94" class="edge"><title>node53&#45;&gt;node151</title>
<path fill="none" stroke="black" d="M2301.84,-431.96C2308.09,-413.46 2318.78,-384.068 2331,-360 2339.59,-343.07 2348.68,-342.225 2354,-324 2358.49,-308.642 2360.46,-302.636 2354,-288 2334.81,-244.543 2316.28,-239.505 2275,-216 2179.7,-161.74 2146.79,-164.186 2039,-144 1904.54,-118.819 1478.77,-97.6601 1349.55,-91.6859"/>
<polygon fill="black" stroke="black" points="1349.52,-88.1808 1339.37,-91.2183 1349.2,-95.1735 1349.52,-88.1808"/>
</g>
<!-- node53&#45;&gt;node146 -->
<g id="edge98" class="edge"><title>node53&#45;&gt;node146</title>
<path fill="none" stroke="black" d="M2265.81,-435.603C2241.43,-423.98 2207.06,-407.59 2181.21,-395.263"/>
<polygon fill="black" stroke="black" points="2182.63,-392.067 2172.1,-390.922 2179.62,-398.385 2182.63,-392.067"/>
</g>
<!-- node53&#45;&gt;node147 -->
<g id="edge96" class="edge"><title>node53&#45;&gt;node147</title>
<path fill="none" stroke="black" d="M2308.08,-431.724C2321.34,-412.501 2343.96,-382.041 2368,-360 2381.62,-347.515 2398.37,-335.846 2413.11,-326.573"/>
<polygon fill="black" stroke="black" points="2415.29,-329.342 2421.97,-321.123 2411.62,-323.379 2415.29,-329.342"/>
</g>
<!-- node64&#45;&gt;node151 -->
<g id="edge102" class="edge"><title>node64&#45;&gt;node151</title>
<path fill="none" stroke="black" d="M2015.9,-503.873C2032.57,-470.608 2060.99,-399.605 2024,-360 1944.03,-274.372 1588.42,-398.512 1498,-324 1434.11,-271.345 1505.16,-205.741 1450,-144 1424.05,-114.957 1380.53,-101.379 1349.3,-95.1326"/>
<polygon fill="black" stroke="black" points="1349.69,-91.6458 1339.22,-93.2835 1348.43,-98.5308 1349.69,-91.6458"/>
</g>
<!-- node64&#45;&gt;node66 -->
<g id="edge104" class="edge"><title>node64&#45;&gt;node66</title>
<path fill="none" stroke="black" d="M1971.71,-521.86C1747.13,-520.623 491.813,-508.679 370,-396 353.377,-380.623 349.987,-354.504 350.252,-334.352"/>
<polygon fill="black" stroke="black" points="353.757,-334.304 350.693,-324.162 346.764,-334.001 353.757,-334.304"/>
</g>
<!-- node64&#45;&gt;node54 -->
<g id="edge106" class="edge"><title>node64&#45;&gt;node54</title>
<path fill="none" stroke="black" d="M1971.89,-519.374C1828.54,-508.335 1274.9,-465.701 1114.67,-453.363"/>
<polygon fill="black" stroke="black" points="1114.5,-449.839 1104.26,-452.561 1113.96,-456.819 1114.5,-449.839"/>
</g>
<!-- node64&#45;&gt;node146 -->
<g id="edge110" class="edge"><title>node64&#45;&gt;node146</title>
<path fill="none" stroke="black" d="M2023.6,-503.762C2048.15,-478.335 2092.75,-432.125 2120.52,-403.357"/>
<polygon fill="black" stroke="black" points="2123.11,-405.715 2127.54,-396.09 2118.08,-400.854 2123.11,-405.715"/>
</g>
<!-- node64&#45;&gt;node147 -->
<g id="edge108" class="edge"><title>node64&#45;&gt;node147</title>
<path fill="none" stroke="black" d="M2040.45,-504.358C2099.58,-474.18 2224.34,-410.969 2331,-360 2358.16,-347.023 2389.1,-332.884 2412.49,-322.33"/>
<polygon fill="black" stroke="black" points="2414.02,-325.482 2421.7,-318.185 2411.14,-319.099 2414.02,-325.482"/>
</g>
<!-- node64&#45;&gt;node53 -->
<g id="edge112" class="edge"><title>node64&#45;&gt;node53</title>
<path fill="none" stroke="black" d="M2040.06,-507.085C2043.06,-505.973 2046.07,-504.925 2049,-504 2120.58,-481.415 2140.68,-484.047 2214,-468 2227.62,-465.02 2242.5,-461.755 2255.81,-458.834"/>
<polygon fill="black" stroke="black" points="2256.61,-462.24 2265.63,-456.677 2255.11,-455.403 2256.61,-462.24"/>
</g>
<!-- node99&#45;&gt;node151 -->
<g id="edge116" class="edge"><title>node99&#45;&gt;node151</title>
<path fill="none" stroke="black" d="M2419.31,-505.198C2433.34,-495.581 2449.97,-482.546 2462,-468 2513.44,-405.821 2544,-386.698 2544,-306 2544,-306 2544,-306 2544,-234 2544,-171.176 2493.59,-166.667 2435,-144 2331.92,-104.124 1532.23,-92.5387 1349.22,-90.3976"/>
<polygon fill="black" stroke="black" points="1349.07,-86.8957 1339.03,-90.2808 1348.99,-93.8953 1349.07,-86.8957"/>
</g>
<!-- node99&#45;&gt;node146 -->
<g id="edge120" class="edge"><title>node99&#45;&gt;node146</title>
<path fill="none" stroke="black" d="M2385.25,-503.999C2376.66,-483.544 2359.89,-450.595 2335,-432 2289.51,-398.018 2223.37,-385.404 2182.34,-380.733"/>
<polygon fill="black" stroke="black" points="2182.53,-377.234 2172.22,-379.685 2181.8,-384.197 2182.53,-377.234"/>
</g>
<!-- node99&#45;&gt;node147 -->
<g id="edge118" class="edge"><title>node99&#45;&gt;node147</title>
<path fill="none" stroke="black" d="M2416.11,-503.94C2426.72,-494.519 2438.09,-482.033 2444,-468 2462.48,-424.127 2458.72,-367.486 2454.04,-334.117"/>
<polygon fill="black" stroke="black" points="2457.49,-333.502 2452.52,-324.146 2450.57,-334.56 2457.49,-333.502"/>
</g>
<!-- node99&#45;&gt;node53 -->
<g id="edge122" class="edge"><title>node99&#45;&gt;node53</title>
<path fill="none" stroke="black" d="M2367.78,-503.831C2355.84,-494.878 2341.27,-483.956 2328.39,-474.295"/>
<polygon fill="black" stroke="black" points="2330.32,-471.363 2320.22,-468.163 2326.12,-476.963 2330.32,-471.363"/>
</g>
<!-- node56&#45;&gt;node151 -->
<g id="edge126" class="edge"><title>node56&#45;&gt;node151</title>
<path fill="none" stroke="black" d="M1376.08,-588.529C1518.46,-563.604 2082.29,-457.791 1991,-360 1911.5,-274.843 1567.47,-384.644 1468,-324 1388.15,-275.314 1414.13,-219.551 1359,-144 1352.05,-134.468 1343.78,-124.579 1336.14,-115.91"/>
<polygon fill="black" stroke="black" points="1338.64,-113.446 1329.36,-108.335 1333.42,-118.118 1338.64,-113.446"/>
</g>
<!-- node56&#45;&gt;node153 -->
<g id="edge128" class="edge"><title>node56&#45;&gt;node153</title>
<path fill="none" stroke="black" d="M1333.91,-575.895C1308.74,-532.355 1238.86,-420.898 1151,-360 972.157,-236.036 708.643,-183.426 612.148,-167.557"/>
<polygon fill="black" stroke="black" points="612.442,-164.059 602.013,-165.925 611.329,-170.97 612.442,-164.059"/>
</g>
<!-- node56&#45;&gt;node149 -->
<g id="edge130" class="edge"><title>node56&#45;&gt;node149</title>
<path fill="none" stroke="black" d="M1339.44,-575.95C1333,-548.806 1322,-495.775 1322,-450 1322,-450 1322,-450 1322,-378 1322,-325.409 1274.33,-281.499 1239.59,-256.479"/>
<polygon fill="black" stroke="black" points="1241.27,-253.387 1231.07,-250.532 1237.27,-259.127 1241.27,-253.387"/>
</g>
<!-- node56&#45;&gt;node59 -->
<g id="edge132" class="edge"><title>node56&#45;&gt;node59</title>
<path fill="none" stroke="black" d="M1311.88,-593.209C1153.07,-589.166 455.814,-569.837 364,-540 251.797,-503.537 197.429,-499.609 141,-396 113.408,-345.338 170.304,-289.346 210.299,-258.243"/>
<polygon fill="black" stroke="black" points="212.441,-261.012 218.292,-252.179 208.209,-255.436 212.441,-261.012"/>
</g>
<!-- node56&#45;&gt;node66 -->
<g id="edge140" class="edge"><title>node56&#45;&gt;node66</title>
<path fill="none" stroke="black" d="M1311.84,-591.247C1172.77,-579.062 622.922,-527.937 461,-468 405.153,-447.328 376.641,-448.211 348,-396 337.649,-377.13 339.863,-352.56 344.128,-333.86"/>
<polygon fill="black" stroke="black" points="347.524,-334.707 346.643,-324.149 340.748,-332.952 347.524,-334.707"/>
</g>
<!-- node56&#45;&gt;node55 -->
<g id="edge142" class="edge"><title>node56&#45;&gt;node55</title>
<path fill="none" stroke="black" d="M1311.75,-593.695C1156.22,-592.02 487.835,-582.387 406,-540 351.516,-511.779 368.733,-469.283 320,-432 299.136,-416.038 272.832,-403.759 249.742,-394.972"/>
<polygon fill="black" stroke="black" points="250.662,-391.582 240.068,-391.42 248.249,-398.153 250.662,-391.582"/>
</g>
<!-- node56&#45;&gt;node54 -->
<g id="edge144" class="edge"><title>node56&#45;&gt;node54</title>
<path fill="none" stroke="black" d="M1311.86,-585.343C1280.7,-576.286 1232.61,-560.528 1194,-540 1159.52,-521.667 1123.91,-494.557 1099.94,-474.885"/>
<polygon fill="black" stroke="black" points="1101.89,-471.959 1091.96,-468.263 1097.42,-477.344 1101.89,-471.959"/>
</g>
<!-- node56&#45;&gt;node146 -->
<g id="edge136" class="edge"><title>node56&#45;&gt;node146</title>
<path fill="none" stroke="black" d="M1376.1,-593.036C1521.93,-588.502 2116.18,-568.338 2143,-540 2176.7,-504.392 2165.44,-442.177 2154.82,-406.091"/>
<polygon fill="black" stroke="black" points="2158.06,-404.721 2151.73,-396.219 2151.37,-406.808 2158.06,-404.721"/>
</g>
<!-- node56&#45;&gt;node147 -->
<g id="edge134" class="edge"><title>node56&#45;&gt;node147</title>
<path fill="none" stroke="black" d="M1376.16,-593.731C1514.01,-592.316 2055.3,-584.011 2219,-540 2323.04,-512.028 2362.96,-490.876 2414,-396 2424.74,-376.037 2433.9,-352.054 2440.15,-333.867"/>
<polygon fill="black" stroke="black" points="2443.54,-334.757 2443.4,-324.163 2436.91,-332.534 2443.54,-334.757"/>
</g>
<!-- node56&#45;&gt;node150 -->
<g id="edge138" class="edge"><title>node56&#45;&gt;node150</title>
<path fill="none" stroke="black" d="M1311.7,-592.631C1182.97,-587.115 693.979,-565.578 292,-540 221.512,-535.515 139.331,-528.98 92.6064,-525.142"/>
<polygon fill="black" stroke="black" points="92.609,-521.631 82.3551,-524.297 92.0335,-528.607 92.609,-521.631"/>
</g>
<!-- node56&#45;&gt;node53 -->
<g id="edge146" class="edge"><title>node56&#45;&gt;node53</title>
<path fill="none" stroke="black" d="M1376.19,-592.997C1519.99,-588.372 2099.97,-568.111 2176,-540 2213.36,-526.185 2248.92,-496.747 2271.49,-475.288"/>
<polygon fill="black" stroke="black" points="2274.18,-477.551 2278.91,-468.07 2269.3,-472.532 2274.18,-477.551"/>
</g>
<!-- node56&#45;&gt;node64 -->
<g id="edge148" class="edge"><title>node56&#45;&gt;node64</title>
<path fill="none" stroke="black" d="M1376.03,-592.331C1485.67,-586.439 1845.3,-565.587 1958,-540 1959.44,-539.674 1960.89,-539.314 1962.35,-538.927"/>
<polygon fill="black" stroke="black" points="1963.42,-542.259 1972,-536.035 1961.41,-535.554 1963.42,-542.259"/>
</g>
<!-- node56&#45;&gt;node99 -->
<g id="edge168" class="edge"><title>node56&#45;&gt;node99</title>
<path fill="none" stroke="black" d="M1376.39,-592.929C1523.05,-587.968 2125.92,-566.334 2313,-540 2326.74,-538.066 2341.62,-534.95 2354.72,-531.851"/>
<polygon fill="black" stroke="black" points="2355.91,-535.164 2364.79,-529.391 2354.24,-528.364 2355.91,-535.164"/>
</g>
<!-- node63 -->
<g id="node101" class="node"><title>node63</title>
<polygon fill="none" stroke="black" points="2134,-540 2058,-540 2058,-504 2134,-504 2134,-540"/>
<text text-anchor="middle" x="2096" y="-518.7" font-family="Times Roman,serif" font-size="12.00">thorhelper</text>
</g>
<!-- node56&#45;&gt;node63 -->
<g id="edge150" class="edge"><title>node56&#45;&gt;node63</title>
<path fill="none" stroke="black" d="M1376.12,-592.773C1493.42,-588.104 1899.21,-570.27 2047.97,-539.784"/>
<polygon fill="black" stroke="black" points="2048.77,-543.191 2057.81,-537.662 2047.29,-536.348 2048.77,-543.191"/>
</g>
<!-- node63&#45;&gt;node151 -->
<g id="edge152" class="edge"><title>node63&#45;&gt;node151</title>
<path fill="none" stroke="black" d="M2096.49,-503.81C2096.32,-469.453 2090.51,-395.304 2046,-360 1956.12,-288.703 1621.32,-394.74 1531,-324 1464.83,-272.173 1532.08,-203.785 1473,-144 1439.99,-110.599 1385.74,-97.8571 1349.45,-92.9966"/>
<polygon fill="black" stroke="black" points="1349.61,-89.4911 1339.26,-91.7754 1348.78,-96.4413 1349.61,-89.4911"/>
</g>
<!-- node63&#45;&gt;node146 -->
<g id="edge156" class="edge"><title>node63&#45;&gt;node146</title>
<path fill="none" stroke="black" d="M2102.21,-503.762C2110.64,-478.985 2125.78,-434.471 2135.61,-405.594"/>
<polygon fill="black" stroke="black" points="2138.94,-406.684 2138.84,-396.09 2132.31,-404.429 2138.94,-406.684"/>
</g>
<!-- node63&#45;&gt;node147 -->
<g id="edge154" class="edge"><title>node63&#45;&gt;node147</title>
<path fill="none" stroke="black" d="M2134.36,-516.754C2193.24,-508.142 2302.48,-489.77 2335,-468 2348.4,-459.029 2403.37,-376.229 2431.79,-332.609"/>
<polygon fill="black" stroke="black" points="2434.75,-334.48 2437.27,-324.189 2428.88,-330.665 2434.75,-334.48"/>
</g>
<!-- node63&#45;&gt;node53 -->
<g id="edge158" class="edge"><title>node63&#45;&gt;node53</title>
<path fill="none" stroke="black" d="M2134.09,-508.288C2169.1,-495.682 2220.82,-477.066 2256.33,-464.283"/>
<polygon fill="black" stroke="black" points="2257.66,-467.522 2265.88,-460.842 2255.29,-460.936 2257.66,-467.522"/>
</g>
<!-- node156 -->
<g id="node107" class="node"><title>node156</title>
<polygon fill="none" stroke="black" points="1725,-468 1631,-468 1631,-432 1725,-432 1725,-468"/>
<text text-anchor="middle" x="1678" y="-446.7" font-family="Times Roman,serif" font-size="12.00">securesocket</text>
</g>
<!-- node63&#45;&gt;node156 -->
<g id="edge160" class="edge"><title>node63&#45;&gt;node156</title>
<path fill="none" stroke="black" d="M2057.75,-506.56C2054.81,-505.618 2051.87,-504.75 2049,-504 1939.97,-475.563 1808.76,-460.893 1735.21,-454.374"/>
<polygon fill="black" stroke="black" points="1735.49,-450.885 1725.22,-453.508 1734.88,-457.859 1735.49,-450.885"/>
</g>
<!-- node156&#45;&gt;node151 -->
<g id="edge162" class="edge"><title>node156&#45;&gt;node151</title>
<path fill="none" stroke="black" d="M1630.75,-447.743C1555.71,-443.161 1414.15,-430.129 1379,-396 1349.67,-367.52 1360,-346.882 1360,-306 1360,-306 1360,-306 1360,-234 1360,-191.804 1341.22,-146.058 1327.16,-117.71"/>
<polygon fill="black" stroke="black" points="1330.09,-115.752 1322.42,-108.443 1323.85,-118.94 1330.09,-115.752"/>
</g>
<!-- node191 -->
<g id="node110" class="node"><title>node191</title>
<ellipse fill="none" stroke="black" cx="1525" cy="-378" rx="137.138" ry="18"/>
<text text-anchor="middle" x="1525" y="-374.7" font-family="Times Roman,serif" font-size="12.00">/usr/lib/x86_64&#45;linux&#45;gnu/libssl.so</text>
</g>
<!-- node156&#45;&gt;node191 -->
<g id="edge164" class="edge"><title>node156&#45;&gt;node191</title>
<path fill="none" stroke="black" d="M1639.39,-431.831C1618.63,-422.062 1592.89,-409.95 1571.09,-399.689"/>
<polygon fill="black" stroke="black" points="1572.55,-396.509 1562.01,-395.418 1569.57,-402.843 1572.55,-396.509"/>
</g>
<!-- node192 -->
<g id="node112" class="node"><title>node192</title>
<ellipse fill="none" stroke="black" cx="1831" cy="-378" rx="150.937" ry="18"/>
<text text-anchor="middle" x="1831" y="-374.7" font-family="Times Roman,serif" font-size="12.00">/usr/lib/x86_64&#45;linux&#45;gnu/libcrypto.so</text>
</g>
<!-- node156&#45;&gt;node192 -->
<g id="edge166" class="edge"><title>node156&#45;&gt;node192</title>
<path fill="none" stroke="black" d="M1716.61,-431.831C1737.29,-422.099 1762.92,-410.04 1784.67,-399.804"/>
<polygon fill="black" stroke="black" points="1786.17,-402.966 1793.72,-395.541 1783.19,-396.632 1786.17,-402.966"/>
</g>
</g>
</svg>
