<?xml version="1.0" encoding="UTF-8" standalone="no"?>
<!DOCTYPE svg PUBLIC "-//W3C//DTD SVG 1.1//EN"
 "http://www.w3.org/Graphics/SVG/1.1/DTD/svg11.dtd">
<!-- Generated by graphviz version 2.26.3 (20100126.1600)
 -->
<!-- Title: GG Pages: 1 -->
<svg width="2503pt" height="692pt"
 viewBox="0.00 0.00 2502.69 692.00" xmlns="http://www.w3.org/2000/svg" xmlns:xlink="http://www.w3.org/1999/xlink">
<g id="graph1" class="graph" transform="scale(1 1) rotate(0) translate(4 688)">
<title>GG</title>
<polygon fill="white" stroke="white" points="-4,5 -4,-688 2499.69,-688 2499.69,5 -4,5"/>
<!-- node139 -->
<g id="node1" class="node"><title>node139</title>
<polygon fill="none" stroke="black" points="1992.71,-671.562 1955.75,-684 1918.8,-671.562 1918.83,-651.438 1992.68,-651.438 1992.71,-671.562"/>
<text text-anchor="middle" x="1955.75" y="-662.7" font-family="Times Roman,serif" font-size="12.00">roxie</text>
</g>
<!-- node138 -->
<g id="node2" class="node"><title>node138</title>
<polygon fill="none" stroke="black" points="1494.75,-612 1440.75,-612 1440.75,-576 1494.75,-576 1494.75,-612"/>
<text text-anchor="middle" x="1467.75" y="-590.7" font-family="Times Roman,serif" font-size="12.00">ccd</text>
</g>
<!-- node139&#45;&gt;node138 -->
<g id="edge2" class="edge"><title>node139&#45;&gt;node138</title>
<path fill="none" stroke="black" d="M1918.67,-660.529C1827.96,-647.145 1595.64,-612.868 1504.88,-599.477"/>
<polygon fill="black" stroke="black" points="1505.18,-595.984 1494.78,-597.987 1504.16,-602.91 1505.18,-595.984"/>
</g>
<!-- node151 -->
<g id="node4" class="node"><title>node151</title>
<polygon fill="none" stroke="black" points="1802.75,-108 1748.75,-108 1748.75,-72 1802.75,-72 1802.75,-108"/>
<text text-anchor="middle" x="1775.75" y="-86.7" font-family="Times Roman,serif" font-size="12.00">jlib</text>
</g>
<!-- node139&#45;&gt;node151 -->
<g id="edge154" class="edge"><title>node139&#45;&gt;node151</title>
<path fill="none" stroke="black" d="M1993.02,-664.047C2114.57,-656.675 2491.75,-625.461 2491.75,-522 2491.75,-522 2491.75,-522 2491.75,-234 2491.75,-193.118 2503.49,-170.958 2472.75,-144 2422.9,-100.271 1950.15,-91.8494 1812.93,-90.3213"/>
<polygon fill="black" stroke="black" points="1812.93,-86.8213 1802.9,-90.2154 1812.86,-93.8209 1812.93,-86.8213"/>
</g>
<!-- node138&#45;&gt;node151 -->
<g id="edge4" class="edge"><title>node138&#45;&gt;node151</title>
<path fill="none" stroke="black" d="M1495.11,-593.819C1631,-592.711 2229.56,-585.274 2297.75,-540 2327.56,-520.212 2325.53,-502.82 2333.75,-468 2368.41,-321.201 2368.7,-209.344 2232.75,-144 2158.67,-108.388 1908.39,-95.136 1813.05,-91.3074"/>
<polygon fill="black" stroke="black" points="1813.13,-87.8079 1803,-90.9158 1812.86,-94.8025 1813.13,-87.8079"/>
</g>
<!-- node147 -->
<g id="node14" class="node"><title>node147</title>
<polygon fill="none" stroke="black" points="758.755,-252 704.755,-252 704.755,-216 758.755,-216 758.755,-252"/>
<text text-anchor="middle" x="731.755" y="-230.7" font-family="Times Roman,serif" font-size="12.00">nbcd</text>
</g>
<!-- node138&#45;&gt;node147 -->
<g id="edge14" class="edge"><title>node138&#45;&gt;node147</title>
<path fill="none" stroke="black" d="M1440.64,-592.637C1328,-586.84 900.254,-563.459 844.755,-540 788.451,-516.201 740.755,-511.127 740.755,-450 740.755,-450 740.755,-450 740.755,-378 740.755,-337.798 737.217,-291.405 734.578,-262.385"/>
<polygon fill="black" stroke="black" points="738.038,-261.792 733.62,-252.163 731.068,-262.446 738.038,-261.792"/>
</g>
<!-- node142 -->
<g id="node17" class="node"><title>node142</title>
<polygon fill="none" stroke="black" points="1310.75,-468 1236.75,-468 1236.75,-432 1310.75,-432 1310.75,-468"/>
<text text-anchor="middle" x="1273.75" y="-446.7" font-family="Times Roman,serif" font-size="12.00">roxiemem</text>
</g>
<!-- node138&#45;&gt;node142 -->
<g id="edge18" class="edge"><title>node138&#45;&gt;node142</title>
<path fill="none" stroke="black" d="M1443.18,-575.762C1408.49,-550.011 1345.08,-502.942 1306.44,-474.264"/>
<polygon fill="black" stroke="black" points="1308.24,-471.239 1298.13,-468.09 1304.07,-476.86 1308.24,-471.239"/>
</g>
<!-- node144 -->
<g id="node20" class="node"><title>node144</title>
<polygon fill="none" stroke="black" points="2258.75,-540 2204.75,-540 2204.75,-504 2258.75,-504 2258.75,-540"/>
<text text-anchor="middle" x="2231.75" y="-518.7" font-family="Times Roman,serif" font-size="12.00">udplib</text>
</g>
<!-- node138&#45;&gt;node144 -->
<g id="edge22" class="edge"><title>node138&#45;&gt;node144</title>
<path fill="none" stroke="black" d="M1495.06,-593.195C1610.04,-589.614 2055.03,-573.808 2190.75,-540 2192.03,-539.683 2193.31,-539.329 2194.6,-538.946"/>
<polygon fill="black" stroke="black" points="2196.13,-542.118 2204.41,-535.515 2193.82,-535.51 2196.13,-542.118"/>
</g>
<!-- node59 -->
<g id="node24" class="node"><title>node59</title>
<polygon fill="none" stroke="black" points="2224.75,-252 2166.75,-252 2166.75,-216 2224.75,-216 2224.75,-252"/>
<text text-anchor="middle" x="2195.75" y="-230.7" font-family="Times Roman,serif" font-size="12.00">remote</text>
</g>
<!-- node138&#45;&gt;node59 -->
<g id="edge28" class="edge"><title>node138&#45;&gt;node59</title>
<path fill="none" stroke="black" d="M1495.06,-593.054C1631.87,-588.2 2237.46,-565.344 2267.75,-540 2330.33,-487.654 2332.06,-436.517 2303.75,-360 2288.54,-318.86 2253.22,-282.088 2227.09,-259.039"/>
<polygon fill="black" stroke="black" points="2229.17,-256.212 2219.31,-252.337 2224.61,-261.516 2229.17,-256.212"/>
</g>
<!-- node146 -->
<g id="node30" class="node"><title>node146</title>
<polygon fill="none" stroke="black" points="1062.75,-324 1008.75,-324 1008.75,-288 1062.75,-288 1062.75,-324"/>
<text text-anchor="middle" x="1035.75" y="-302.7" font-family="Times Roman,serif" font-size="12.00">eclrtl</text>
</g>
<!-- node138&#45;&gt;node146 -->
<g id="edge36" class="edge"><title>node138&#45;&gt;node146</title>
<path fill="none" stroke="black" d="M1440.62,-592.542C1350.47,-587.438 1065.05,-569.09 1036.75,-540 982.94,-484.672 1008.45,-382.587 1025.18,-333.618"/>
<polygon fill="black" stroke="black" points="1028.55,-334.605 1028.59,-324.01 1021.95,-332.266 1028.55,-334.605"/>
</g>
<!-- node66 -->
<g id="node42" class="node"><title>node66</title>
<polygon fill="none" stroke="black" points="2072.75,-324 2010.75,-324 2010.75,-288 2072.75,-288 2072.75,-324"/>
<text text-anchor="middle" x="2041.75" y="-302.7" font-family="Times Roman,serif" font-size="12.00">dalibase</text>
</g>
<!-- node138&#45;&gt;node66 -->
<g id="edge50" class="edge"><title>node138&#45;&gt;node66</title>
<path fill="none" stroke="black" d="M1494.86,-589.25C1601.86,-569.894 1992.55,-493.353 2062.75,-396 2075.98,-377.659 2068.28,-352.234 2058.68,-333.085"/>
<polygon fill="black" stroke="black" points="2061.74,-331.378 2053.91,-324.247 2055.58,-334.708 2061.74,-331.378"/>
</g>
<!-- node53 -->
<g id="node51" class="node"><title>node53</title>
<polygon fill="none" stroke="black" points="838.755,-396 778.755,-396 778.755,-360 838.755,-360 838.755,-396"/>
<text text-anchor="middle" x="808.755" y="-374.7" font-family="Times Roman,serif" font-size="12.00">deftype</text>
</g>
<!-- node138&#45;&gt;node53 -->
<g id="edge64" class="edge"><title>node138&#45;&gt;node53</title>
<path fill="none" stroke="black" d="M1440.55,-592.59C1333.3,-586.874 943.163,-564.561 893.755,-540 854.883,-520.677 847.608,-506.604 827.755,-468 817.864,-448.768 813.121,-424.698 810.847,-406.291"/>
<polygon fill="black" stroke="black" points="814.31,-405.76 809.773,-396.186 807.35,-406.5 814.31,-405.76"/>
</g>
<!-- node156 -->
<g id="node56" class="node"><title>node156</title>
<polygon fill="none" stroke="black" points="506.755,-396 412.755,-396 412.755,-360 506.755,-360 506.755,-396"/>
<text text-anchor="middle" x="459.755" y="-374.7" font-family="Times Roman,serif" font-size="12.00">securesocket</text>
</g>
<!-- node138&#45;&gt;node156 -->
<g id="edge72" class="edge"><title>node138&#45;&gt;node156</title>
<path fill="none" stroke="black" d="M1440.43,-593.715C1323.32,-592.234 863.608,-583.695 726.755,-540 631.985,-509.741 535.905,-439.637 489.077,-402.349"/>
<polygon fill="black" stroke="black" points="491.172,-399.542 481.185,-396.003 486.785,-404.997 491.172,-399.542"/>
</g>
<!-- node63 -->
<g id="node63" class="node"><title>node63</title>
<polygon fill="none" stroke="black" points="912.755,-468 836.755,-468 836.755,-432 912.755,-432 912.755,-468"/>
<text text-anchor="middle" x="874.755" y="-446.7" font-family="Times Roman,serif" font-size="12.00">thorhelper</text>
</g>
<!-- node138&#45;&gt;node63 -->
<g id="edge80" class="edge"><title>node138&#45;&gt;node63</title>
<path fill="none" stroke="black" d="M1440.67,-592.705C1337.44,-587.58 972.338,-567.636 928.755,-540 906.273,-525.744 891.864,-498.449 883.637,-477.639"/>
<polygon fill="black" stroke="black" points="886.835,-476.197 880.086,-468.03 880.269,-478.623 886.835,-476.197"/>
</g>
<!-- node150 -->
<g id="node70" class="node"><title>node150</title>
<polygon fill="none" stroke="black" points="2463.75,-180 2409.75,-180 2409.75,-144 2463.75,-144 2463.75,-180"/>
<text text-anchor="middle" x="2436.75" y="-158.7" font-family="Times Roman,serif" font-size="12.00">jhtree</text>
</g>
<!-- node138&#45;&gt;node150 -->
<g id="edge92" class="edge"><title>node138&#45;&gt;node150</title>
<path fill="none" stroke="black" d="M1494.86,-593.341C1645.71,-589.563 2376.21,-569.776 2412.75,-540 2444.85,-513.852 2436.75,-491.398 2436.75,-450 2436.75,-450 2436.75,-450 2436.75,-306 2436.75,-265.876 2436.75,-219.463 2436.75,-190.418"/>
<polygon fill="black" stroke="black" points="2440.25,-190.185 2436.75,-180.185 2433.25,-190.185 2440.25,-190.185"/>
</g>
<!-- node55 -->
<g id="node73" class="node"><title>node55</title>
<polygon fill="none" stroke="black" points="2294.75,-396 2204.75,-396 2204.75,-360 2294.75,-360 2294.75,-396"/>
<text text-anchor="middle" x="2249.75" y="-374.7" font-family="Times Roman,serif" font-size="12.00">environment</text>
</g>
<!-- node138&#45;&gt;node55 -->
<g id="edge96" class="edge"><title>node138&#45;&gt;node55</title>
<path fill="none" stroke="black" d="M1494.93,-593.319C1615.18,-590.111 2096.04,-575.161 2152.75,-540 2202.16,-509.37 2229.66,-443.444 2241.9,-405.817"/>
<polygon fill="black" stroke="black" points="2245.32,-406.595 2244.95,-396.007 2238.64,-404.516 2245.32,-406.595"/>
</g>
<!-- node54 -->
<g id="node79" class="node"><title>node54</title>
<polygon fill="none" stroke="black" points="1693.75,-468 1627.75,-468 1627.75,-432 1693.75,-432 1693.75,-468"/>
<text text-anchor="middle" x="1660.75" y="-446.7" font-family="Times Roman,serif" font-size="12.00">dllserver</text>
</g>
<!-- node138&#45;&gt;node54 -->
<g id="edge106" class="edge"><title>node138&#45;&gt;node54</title>
<path fill="none" stroke="black" d="M1492.2,-575.762C1526.71,-550.011 1589.8,-502.942 1628.23,-474.264"/>
<polygon fill="black" stroke="black" points="1630.59,-476.875 1636.51,-468.09 1626.4,-471.264 1630.59,-476.875"/>
</g>
<!-- node61 -->
<g id="node94" class="node"><title>node61</title>
<polygon fill="none" stroke="black" points="1127.75,-540 1045.75,-540 1045.75,-504 1127.75,-504 1127.75,-540"/>
<text text-anchor="middle" x="1086.75" y="-518.7" font-family="Times Roman,serif" font-size="12.00">roxiehelper</text>
</g>
<!-- node138&#45;&gt;node61 -->
<g id="edge128" class="edge"><title>node138&#45;&gt;node61</title>
<path fill="none" stroke="black" d="M1440.6,-589.586C1387.61,-580.873 1266.75,-560.524 1165.75,-540 1156.74,-538.169 1147.19,-536.1 1137.95,-534.033"/>
<polygon fill="black" stroke="black" points="1138.61,-530.595 1128.09,-531.803 1137.07,-537.423 1138.61,-530.595"/>
</g>
<!-- node64 -->
<g id="node101" class="node"><title>node64</title>
<polygon fill="none" stroke="black" points="1242.75,-540 1174.75,-540 1174.75,-504 1242.75,-504 1242.75,-540"/>
<text text-anchor="middle" x="1208.75" y="-518.7" font-family="Times Roman,serif" font-size="12.00">workunit</text>
</g>
<!-- node138&#45;&gt;node64 -->
<g id="edge140" class="edge"><title>node138&#45;&gt;node64</title>
<path fill="none" stroke="black" d="M1440.53,-586.431C1395.87,-574.017 1306.66,-549.218 1252.88,-534.268"/>
<polygon fill="black" stroke="black" points="1253.52,-530.812 1242.95,-531.506 1251.65,-537.556 1253.52,-530.812"/>
</g>
<!-- node152 -->
<g id="node6" class="node"><title>node152</title>
<polygon fill="none" stroke="black" points="1653.75,-36 1613.81,-18 1653.75,-3.55271e-15 1693.7,-18 1653.75,-36"/>
<text text-anchor="middle" x="1653.75" y="-14.7" font-family="Times Roman,serif" font-size="12.00">lzma</text>
</g>
<!-- node151&#45;&gt;node152 -->
<g id="edge6" class="edge"><title>node151&#45;&gt;node152</title>
<path fill="none" stroke="black" d="M1748.68,-74.0209C1728.22,-61.9494 1700.31,-45.4743 1680.05,-33.5172"/>
<polygon fill="black" stroke="black" points="1681.72,-30.4417 1671.33,-28.3733 1678.17,-36.4701 1681.72,-30.4417"/>
</g>
<!-- node187 -->
<g id="node8" class="node"><title>node187</title>
<ellipse fill="none" stroke="black" cx="1738.75" cy="-18" rx="27" ry="18"/>
<text text-anchor="middle" x="1738.75" y="-14.7" font-family="Times Roman,serif" font-size="12.00">dl</text>
</g>
<!-- node151&#45;&gt;node187 -->
<g id="edge8" class="edge"><title>node151&#45;&gt;node187</title>
<path fill="none" stroke="black" d="M1766.42,-71.8314C1762.16,-63.5451 1757.04,-53.5727 1752.36,-44.4748"/>
<polygon fill="black" stroke="black" points="1755.39,-42.7123 1747.71,-35.4177 1749.16,-45.9118 1755.39,-42.7123"/>
</g>
<!-- node179 -->
<g id="node10" class="node"><title>node179</title>
<ellipse fill="none" stroke="black" cx="1813.75" cy="-18" rx="30.0465" ry="18"/>
<text text-anchor="middle" x="1813.75" y="-14.7" font-family="Times Roman,serif" font-size="12.00">crypt</text>
</g>
<!-- node151&#45;&gt;node179 -->
<g id="edge10" class="edge"><title>node151&#45;&gt;node179</title>
<path fill="none" stroke="black" d="M1785.34,-71.8314C1789.72,-63.5451 1794.98,-53.5727 1799.78,-44.4748"/>
<polygon fill="black" stroke="black" points="1802.99,-45.8952 1804.56,-35.4177 1796.8,-42.6279 1802.99,-45.8952"/>
</g>
<!-- node188 -->
<g id="node12" class="node"><title>node188</title>
<ellipse fill="none" stroke="black" cx="1888.75" cy="-18" rx="27" ry="18"/>
<text text-anchor="middle" x="1888.75" y="-14.7" font-family="Times Roman,serif" font-size="12.00">rt</text>
</g>
<!-- node151&#45;&gt;node188 -->
<g id="edge12" class="edge"><title>node151&#45;&gt;node188</title>
<path fill="none" stroke="black" d="M1802.82,-72.7542C1820.17,-61.7009 1842.65,-47.375 1860.27,-36.1494"/>
<polygon fill="black" stroke="black" points="1862.43,-38.9209 1868.99,-30.5955 1858.67,-33.0174 1862.43,-38.9209"/>
</g>
<!-- node147&#45;&gt;node151 -->
<g id="edge16" class="edge"><title>node147&#45;&gt;node151</title>
<path fill="none" stroke="black" d="M758.88,-219.26C761.821,-218.019 764.814,-216.898 767.755,-216 1005.65,-143.367 1075.93,-174.721 1322.75,-144 1477.01,-124.8 1661.01,-103.3 1738.47,-94.3118"/>
<polygon fill="black" stroke="black" points="1739.15,-97.7566 1748.68,-93.1281 1738.34,-90.8032 1739.15,-97.7566"/>
</g>
<!-- node142&#45;&gt;node151 -->
<g id="edge20" class="edge"><title>node142&#45;&gt;node151</title>
<path fill="none" stroke="black" d="M1284.24,-431.878C1305.34,-397.296 1356.5,-322.287 1421.75,-288 1525.41,-233.532 1585.67,-317.476 1682.75,-252 1707.46,-235.338 1744.62,-159.119 1763.62,-117.434"/>
<polygon fill="black" stroke="black" points="1766.9,-118.678 1767.83,-108.123 1760.52,-115.797 1766.9,-118.678"/>
</g>
<!-- node144&#45;&gt;node151 -->
<g id="edge24" class="edge"><title>node144&#45;&gt;node151</title>
<path fill="none" stroke="black" d="M2246.33,-503.733C2263.95,-480.364 2292.63,-437.883 2303.75,-396 2335.21,-277.542 2299.64,-202.166 2191.75,-144 2126.61,-108.878 1902.71,-95.4876 1813.18,-91.4601"/>
<polygon fill="black" stroke="black" points="1813.09,-87.953 1802.95,-91.0145 1812.79,-94.9464 1813.09,-87.953"/>
</g>
<!-- node144&#45;&gt;node142 -->
<g id="edge26" class="edge"><title>node144&#45;&gt;node142</title>
<path fill="none" stroke="black" d="M2204.63,-519.961C2072.05,-509.997 1491.83,-466.389 1321.14,-453.562"/>
<polygon fill="black" stroke="black" points="1321.2,-450.056 1310.97,-452.797 1320.68,-457.037 1321.2,-450.056"/>
</g>
<!-- node59&#45;&gt;node151 -->
<g id="edge30" class="edge"><title>node59&#45;&gt;node151</title>
<path fill="none" stroke="black" d="M2184.48,-215.765C2170.44,-194.764 2144.41,-160.98 2112.75,-144 2061.33,-116.413 1889.51,-99.308 1813.03,-92.8879"/>
<polygon fill="black" stroke="black" points="1813.14,-89.3857 1802.89,-92.0529 1812.57,-96.3621 1813.14,-89.3857"/>
</g>
<!-- node153 -->
<g id="node27" class="node"><title>node153</title>
<polygon fill="none" stroke="black" points="2103.75,-180 2049.75,-180 2049.75,-144 2103.75,-144 2103.75,-180"/>
<text text-anchor="middle" x="2076.75" y="-158.7" font-family="Times Roman,serif" font-size="12.00">mp</text>
</g>
<!-- node59&#45;&gt;node153 -->
<g id="edge32" class="edge"><title>node59&#45;&gt;node153</title>
<path fill="none" stroke="black" d="M2166.64,-216.387C2150.35,-206.531 2129.91,-194.162 2112.64,-183.711"/>
<polygon fill="black" stroke="black" points="2114.3,-180.626 2103.93,-178.444 2110.68,-186.615 2114.3,-180.626"/>
</g>
<!-- node153&#45;&gt;node151 -->
<g id="edge34" class="edge"><title>node153&#45;&gt;node151</title>
<path fill="none" stroke="black" d="M2049.51,-155.483C1995.48,-142.558 1874.65,-113.657 1813.2,-98.9565"/>
<polygon fill="black" stroke="black" points="1813.69,-95.4762 1803.15,-96.5537 1812.06,-102.284 1813.69,-95.4762"/>
</g>
<!-- node146&#45;&gt;node151 -->
<g id="edge46" class="edge"><title>node146&#45;&gt;node151</title>
<path fill="none" stroke="black" d="M1063.03,-296.995C1073.22,-293.85 1084.94,-290.487 1095.75,-288 1193.17,-265.591 1228.17,-296.337 1317.75,-252 1338.61,-241.681 1335.62,-227.659 1355.75,-216 1484.9,-141.214 1662.53,-107.08 1738.67,-95.1918"/>
<polygon fill="black" stroke="black" points="1739.36,-98.6263 1748.72,-93.6601 1738.31,-91.7062 1739.36,-98.6263"/>
</g>
<!-- node146&#45;&gt;node147 -->
<g id="edge48" class="edge"><title>node146&#45;&gt;node147</title>
<path fill="none" stroke="black" d="M1008.33,-292.813C1003.86,-291 999.23,-289.314 994.755,-288 899.803,-260.131 867.068,-281.76 768.641,-251.726"/>
<polygon fill="black" stroke="black" points="769.496,-248.326 758.907,-248.655 767.39,-255.002 769.496,-248.326"/>
</g>
<!-- node186 -->
<g id="node32" class="node"><title>node186</title>
<ellipse fill="none" stroke="black" cx="1483.75" cy="-234" rx="118.939" ry="18"/>
<text text-anchor="middle" x="1483.75" y="-230.7" font-family="Times Roman,serif" font-size="12.00">/usr/lib/libboost_regex&#45;mt.so</text>
</g>
<!-- node146&#45;&gt;node186 -->
<g id="edge38" class="edge"><title>node146&#45;&gt;node186</title>
<path fill="none" stroke="black" d="M1063,-296.863C1073.19,-293.703 1084.92,-290.365 1095.75,-288 1109.79,-284.937 1274.34,-262.391 1384.59,-247.416"/>
<polygon fill="black" stroke="black" points="1385.31,-250.85 1394.75,-246.037 1384.37,-243.914 1385.31,-250.85"/>
</g>
<!-- node183 -->
<g id="node34" class="node"><title>node183</title>
<ellipse fill="none" stroke="black" cx="854.755" cy="-234" rx="77.9931" ry="18"/>
<text text-anchor="middle" x="854.755" y="-230.7" font-family="Times Roman,serif" font-size="12.00">/usr/lib/libicuuc.so</text>
</g>
<!-- node146&#45;&gt;node183 -->
<g id="edge40" class="edge"><title>node146&#45;&gt;node183</title>
<path fill="none" stroke="black" d="M1008.48,-293.82C1003.91,-291.839 999.211,-289.836 994.755,-288 965.366,-275.889 932.189,-263.055 905.51,-252.939"/>
<polygon fill="black" stroke="black" points="906.586,-249.604 895.994,-249.342 904.11,-256.152 906.586,-249.604"/>
</g>
<!-- node184 -->
<g id="node36" class="node"><title>node184</title>
<ellipse fill="none" stroke="black" cx="1035.75" cy="-234" rx="85.1424" ry="18"/>
<text text-anchor="middle" x="1035.75" y="-230.7" font-family="Times Roman,serif" font-size="12.00">/usr/lib/libicui18n.so</text>
</g>
<!-- node146&#45;&gt;node184 -->
<g id="edge42" class="edge"><title>node146&#45;&gt;node184</title>
<path fill="none" stroke="black" d="M1035.75,-287.831C1035.75,-280.131 1035.75,-270.974 1035.75,-262.417"/>
<polygon fill="black" stroke="black" points="1039.25,-262.413 1035.75,-252.413 1032.25,-262.413 1039.25,-262.413"/>
</g>
<!-- node185 -->
<g id="node38" class="node"><title>node185</title>
<ellipse fill="none" stroke="black" cx="1223.75" cy="-234" rx="85.1424" ry="18"/>
<text text-anchor="middle" x="1223.75" y="-230.7" font-family="Times Roman,serif" font-size="12.00">/usr/lib/libicudata.so</text>
</g>
<!-- node146&#45;&gt;node185 -->
<g id="edge44" class="edge"><title>node146&#45;&gt;node185</title>
<path fill="none" stroke="black" d="M1063.09,-295.531C1091.76,-284.55 1137.48,-267.041 1172.83,-253.504"/>
<polygon fill="black" stroke="black" points="1174.41,-256.644 1182.5,-249.799 1171.91,-250.107 1174.41,-256.644"/>
</g>
<!-- node66&#45;&gt;node151 -->
<g id="edge52" class="edge"><title>node66&#45;&gt;node151</title>
<path fill="none" stroke="black" d="M2019.53,-287.955C1971.91,-249.282 1859.95,-158.37 1805.94,-114.514"/>
<polygon fill="black" stroke="black" points="1808.07,-111.732 1798.1,-108.145 1803.66,-117.166 1808.07,-111.732"/>
</g>
<!-- node66&#45;&gt;node59 -->
<g id="edge62" class="edge"><title>node66&#45;&gt;node59</title>
<path fill="none" stroke="black" d="M2072.92,-291.43C2097.34,-280.012 2131.44,-264.071 2157.51,-251.881"/>
<polygon fill="black" stroke="black" points="2159.14,-254.98 2166.72,-247.574 2156.18,-248.639 2159.14,-254.98"/>
</g>
<!-- node66&#45;&gt;node153 -->
<g id="edge54" class="edge"><title>node66&#45;&gt;node153</title>
<path fill="none" stroke="black" d="M2046.19,-287.762C2052.18,-263.093 2062.93,-218.86 2069.96,-189.973"/>
<polygon fill="black" stroke="black" points="2073.4,-190.633 2072.36,-180.09 2066.6,-188.98 2073.4,-190.633"/>
</g>
<!-- node149 -->
<g id="node46" class="node"><title>node149</title>
<polygon fill="none" stroke="black" points="1859.75,-252 1805.75,-252 1805.75,-216 1859.75,-216 1859.75,-252"/>
<text text-anchor="middle" x="1832.75" y="-230.7" font-family="Times Roman,serif" font-size="12.00">hrpc</text>
</g>
<!-- node66&#45;&gt;node149 -->
<g id="edge56" class="edge"><title>node66&#45;&gt;node149</title>
<path fill="none" stroke="black" d="M2010.47,-295.221C1972.78,-282.238 1909.56,-260.459 1869.56,-246.681"/>
<polygon fill="black" stroke="black" points="1870.52,-243.309 1859.93,-243.361 1868.24,-249.927 1870.52,-243.309"/>
</g>
<!-- node149&#45;&gt;node151 -->
<g id="edge58" class="edge"><title>node149&#45;&gt;node151</title>
<path fill="none" stroke="black" d="M1825.54,-215.762C1815.73,-190.985 1798.11,-146.471 1786.68,-117.594"/>
<polygon fill="black" stroke="black" points="1789.85,-116.099 1782.92,-108.09 1783.34,-118.676 1789.85,-116.099"/>
</g>
<!-- node149&#45;&gt;node153 -->
<g id="edge60" class="edge"><title>node149&#45;&gt;node153</title>
<path fill="none" stroke="black" d="M1859.8,-226.02C1903.68,-213.072 1990.44,-187.469 2039.92,-172.869"/>
<polygon fill="black" stroke="black" points="2040.99,-176.203 2049.59,-170.016 2039.01,-169.489 2040.99,-176.203"/>
</g>
<!-- node53&#45;&gt;node151 -->
<g id="edge66" class="edge"><title>node53&#45;&gt;node151</title>
<path fill="none" stroke="black" d="M779.664,-359.893C735.012,-329.815 658.461,-267.742 695.755,-216 754.923,-133.908 812.423,-163.318 911.755,-144 1073.85,-112.475 1594.3,-95.2821 1738.44,-91.0453"/>
<polygon fill="black" stroke="black" points="1738.65,-94.5408 1748.54,-90.7515 1738.45,-87.5437 1738.65,-94.5408"/>
</g>
<!-- node53&#45;&gt;node147 -->
<g id="edge68" class="edge"><title>node53&#45;&gt;node147</title>
<path fill="none" stroke="black" d="M799.003,-359.762C785.696,-334.876 761.743,-290.082 746.308,-261.216"/>
<polygon fill="black" stroke="black" points="749.23,-259.258 741.428,-252.09 743.057,-262.558 749.23,-259.258"/>
</g>
<!-- node53&#45;&gt;node146 -->
<g id="edge70" class="edge"><title>node53&#45;&gt;node146</title>
<path fill="none" stroke="black" d="M838.899,-368.439C880.272,-355.316 954.579,-331.747 999.113,-317.622"/>
<polygon fill="black" stroke="black" points="1000.2,-320.948 1008.68,-314.588 998.089,-314.275 1000.2,-320.948"/>
</g>
<!-- node156&#45;&gt;node151 -->
<g id="edge74" class="edge"><title>node156&#45;&gt;node151</title>
<path fill="none" stroke="black" d="M412.672,-375.851C302.335,-370.335 34.3473,-353.959 7.75479,-324 -2.86669,-312.034 -2.19047,-300.534 7.75479,-288 182.786,-67.4148 345.843,-182.759 624.755,-144 847.46,-113.051 1566.54,-94.8175 1738.54,-90.832"/>
<polygon fill="black" stroke="black" points="1738.7,-94.3294 1748.62,-90.6004 1738.54,-87.3312 1738.7,-94.3294"/>
</g>
<!-- node191 -->
<g id="node59" class="node"><title>node191</title>
<ellipse fill="none" stroke="black" cx="153.755" cy="-306" rx="137.138" ry="18"/>
<text text-anchor="middle" x="153.755" y="-302.7" font-family="Times Roman,serif" font-size="12.00">/usr/lib/x86_64&#45;linux&#45;gnu/libssl.so</text>
</g>
<!-- node156&#45;&gt;node191 -->
<g id="edge76" class="edge"><title>node156&#45;&gt;node191</title>
<path fill="none" stroke="black" d="M412.613,-366.908C364.039,-355.479 287.545,-337.48 230.285,-324.007"/>
<polygon fill="black" stroke="black" points="231.085,-320.6 220.55,-321.716 229.482,-327.414 231.085,-320.6"/>
</g>
<!-- node192 -->
<g id="node61" class="node"><title>node192</title>
<ellipse fill="none" stroke="black" cx="459.755" cy="-306" rx="150.937" ry="18"/>
<text text-anchor="middle" x="459.755" y="-302.7" font-family="Times Roman,serif" font-size="12.00">/usr/lib/x86_64&#45;linux&#45;gnu/libcrypto.so</text>
</g>
<!-- node156&#45;&gt;node192 -->
<g id="edge78" class="edge"><title>node156&#45;&gt;node192</title>
<path fill="none" stroke="black" d="M459.755,-359.831C459.755,-352.131 459.755,-342.974 459.755,-334.417"/>
<polygon fill="black" stroke="black" points="463.255,-334.413 459.755,-324.413 456.255,-334.413 463.255,-334.413"/>
</g>
<!-- node63&#45;&gt;node151 -->
<g id="edge82" class="edge"><title>node63&#45;&gt;node151</title>
<path fill="none" stroke="black" d="M836.575,-444.547C769.782,-432.62 638.755,-397.554 638.755,-306 638.755,-306 638.755,-306 638.755,-234 638.755,-177.745 676.417,-167.002 727.755,-144 821.491,-102.001 1563.36,-92.0924 1738.71,-90.3281"/>
<polygon fill="black" stroke="black" points="1738.77,-93.8278 1748.73,-90.23 1738.7,-86.8281 1738.77,-93.8278"/>
</g>
<!-- node63&#45;&gt;node147 -->
<g id="edge84" class="edge"><title>node63&#45;&gt;node147</title>
<path fill="none" stroke="black" d="M871.68,-431.862C867.959,-413.024 860.544,-383.126 847.755,-360 825.587,-319.913 788.088,-282.442 761.74,-258.956"/>
<polygon fill="black" stroke="black" points="763.778,-256.088 753.951,-252.129 759.164,-261.352 763.778,-256.088"/>
</g>
<!-- node63&#45;&gt;node146 -->
<g id="edge86" class="edge"><title>node63&#45;&gt;node146</title>
<path fill="none" stroke="black" d="M882.026,-431.728C890.666,-411.94 906.733,-380.469 928.755,-360 948.935,-341.243 976.863,-327.443 999.127,-318.49"/>
<polygon fill="black" stroke="black" points="1000.53,-321.701 1008.6,-314.834 998.006,-315.171 1000.53,-321.701"/>
</g>
<!-- node63&#45;&gt;node53 -->
<g id="edge88" class="edge"><title>node63&#45;&gt;node53</title>
<path fill="none" stroke="black" d="M858.1,-431.831C850.343,-423.369 840.975,-413.149 832.494,-403.897"/>
<polygon fill="black" stroke="black" points="834.971,-401.42 825.634,-396.413 829.811,-406.15 834.971,-401.42"/>
</g>
<!-- node63&#45;&gt;node156 -->
<g id="edge90" class="edge"><title>node63&#45;&gt;node156</title>
<path fill="none" stroke="black" d="M836.456,-443.355C763.185,-430.643 602.819,-402.821 516.858,-387.907"/>
<polygon fill="black" stroke="black" points="517.206,-384.415 506.755,-386.154 516.01,-391.312 517.206,-384.415"/>
</g>
<!-- node150&#45;&gt;node151 -->
<g id="edge94" class="edge"><title>node150&#45;&gt;node151</title>
<path fill="none" stroke="black" d="M2409.4,-148.534C2404.93,-146.758 2400.27,-145.155 2395.75,-144 2284.35,-115.519 1929.58,-97.0679 1813.16,-91.6575"/>
<polygon fill="black" stroke="black" points="1813.12,-88.152 1802.97,-91.1891 1812.79,-95.1446 1813.12,-88.152"/>
</g>
<!-- node55&#45;&gt;node151 -->
<g id="edge98" class="edge"><title>node55&#45;&gt;node151</title>
<path fill="none" stroke="black" d="M2252.22,-359.725C2255.57,-328.324 2258.58,-262.977 2233.75,-216 2210.47,-171.926 2193.26,-164.353 2147.75,-144 2088.26,-117.388 1895.13,-99.4295 1813.13,-92.8217"/>
<polygon fill="black" stroke="black" points="1813.25,-89.3205 1803.01,-92.0184 1812.7,-96.2986 1813.25,-89.3205"/>
</g>
<!-- node55&#45;&gt;node59 -->
<g id="edge102" class="edge"><title>node55&#45;&gt;node59</title>
<path fill="none" stroke="black" d="M2242.92,-359.762C2233.62,-334.985 2216.93,-290.471 2206.1,-261.594"/>
<polygon fill="black" stroke="black" points="2209.33,-260.224 2202.54,-252.09 2202.77,-262.682 2209.33,-260.224"/>
</g>
<!-- node55&#45;&gt;node153 -->
<g id="edge100" class="edge"><title>node55&#45;&gt;node153</title>
<path fill="none" stroke="black" d="M2235.3,-359.955C2204.71,-321.759 2133.3,-232.603 2097.7,-188.156"/>
<polygon fill="black" stroke="black" points="2100.27,-185.762 2091.29,-180.145 2094.81,-190.138 2100.27,-185.762"/>
</g>
<!-- node55&#45;&gt;node66 -->
<g id="edge104" class="edge"><title>node55&#45;&gt;node66</title>
<path fill="none" stroke="black" d="M2204.62,-362.377C2168.25,-349.788 2117.57,-332.242 2082.44,-320.082"/>
<polygon fill="black" stroke="black" points="2083.56,-316.768 2072.97,-316.804 2081.27,-323.383 2083.56,-316.768"/>
</g>
<!-- node54&#45;&gt;node151 -->
<g id="edge110" class="edge"><title>node54&#45;&gt;node151</title>
<path fill="none" stroke="black" d="M1627.35,-448.25C1562.97,-444.106 1425.52,-431.247 1396.75,-396 1386.64,-383.604 1389.03,-374.013 1396.75,-360 1425.68,-307.518 1454.81,-309.477 1510.75,-288 1599.16,-254.062 1648.73,-313.484 1720.75,-252 1760.33,-218.212 1771.5,-154.793 1774.6,-118.127"/>
<polygon fill="black" stroke="black" points="1778.1,-118.326 1775.31,-108.105 1771.12,-117.835 1778.1,-118.326"/>
</g>
<!-- node54&#45;&gt;node59 -->
<g id="edge118" class="edge"><title>node54&#45;&gt;node59</title>
<path fill="none" stroke="black" d="M1694.03,-447.86C1792.94,-441.25 2080.42,-420.138 2114.75,-396 2159.94,-364.232 2181.25,-299.786 2190.18,-262.465"/>
<polygon fill="black" stroke="black" points="2193.7,-262.787 2192.47,-252.263 2186.87,-261.252 2193.7,-262.787"/>
</g>
<!-- node54&#45;&gt;node153 -->
<g id="edge112" class="edge"><title>node54&#45;&gt;node153</title>
<path fill="none" stroke="black" d="M1693.97,-447.646C1785.28,-440.883 2035.2,-420.319 2062.75,-396 2120.87,-344.707 2100.26,-240.221 2085.9,-190.078"/>
<polygon fill="black" stroke="black" points="2089.18,-188.821 2082.96,-180.242 2082.47,-190.825 2089.18,-188.821"/>
</g>
<!-- node54&#45;&gt;node146 -->
<g id="edge116" class="edge"><title>node54&#45;&gt;node146</title>
<path fill="none" stroke="black" d="M1627.37,-445.842C1568.31,-438.176 1441.75,-420.345 1336.75,-396 1240.02,-373.569 1128.63,-337.521 1072.36,-318.571"/>
<polygon fill="black" stroke="black" points="1073.43,-315.238 1062.84,-315.349 1071.19,-321.869 1073.43,-315.238"/>
</g>
<!-- node54&#45;&gt;node66 -->
<g id="edge120" class="edge"><title>node54&#45;&gt;node66</title>
<path fill="none" stroke="black" d="M1694,-447.774C1782.9,-441.487 2020.88,-422.327 2043.75,-396 2058.25,-379.323 2056.12,-353.622 2051.32,-333.948"/>
<polygon fill="black" stroke="black" points="2054.68,-332.986 2048.63,-324.288 2047.94,-334.86 2054.68,-332.986"/>
</g>
<!-- node54&#45;&gt;node149 -->
<g id="edge114" class="edge"><title>node54&#45;&gt;node149</title>
<path fill="none" stroke="black" d="M1627.28,-447.92C1564.97,-443.276 1435.02,-429.694 1407.75,-396 1397.69,-383.561 1398.18,-372.821 1407.75,-360 1419.76,-343.921 1694.35,-270.395 1795.65,-243.711"/>
<polygon fill="black" stroke="black" points="1796.68,-247.06 1805.46,-241.131 1794.9,-240.29 1796.68,-247.06"/>
</g>
<!-- node54&#45;&gt;node55 -->
<g id="edge122" class="edge"><title>node54&#45;&gt;node55</title>
<path fill="none" stroke="black" d="M1693.96,-448.859C1777.95,-445.49 2005.34,-433.359 2190.75,-396 2192.02,-395.744 2193.31,-395.472 2194.59,-395.187"/>
<polygon fill="black" stroke="black" points="2195.68,-398.525 2204.56,-392.758 2194.02,-391.724 2195.68,-398.525"/>
</g>
<!-- node176 -->
<g id="node81" class="node"><title>node176</title>
<ellipse fill="none" stroke="black" cx="1547.75" cy="-378" rx="130.789" ry="18"/>
<text text-anchor="middle" x="1547.75" y="-374.7" font-family="Times Roman,serif" font-size="12.00">/usr/lib/x86_64&#45;linux&#45;gnu/libz.so</text>
</g>
<!-- node54&#45;&gt;node176 -->
<g id="edge108" class="edge"><title>node54&#45;&gt;node176</title>
<path fill="none" stroke="black" d="M1632.24,-431.831C1617.7,-422.568 1599.86,-411.198 1584.32,-401.297"/>
<polygon fill="black" stroke="black" points="1585.79,-398.087 1575.48,-395.665 1582.03,-403.99 1585.79,-398.087"/>
</g>
<!-- node177 -->
<g id="node90" class="node"><title>node177</title>
<ellipse fill="none" stroke="black" cx="1767.75" cy="-378" rx="70.8437" ry="18"/>
<text text-anchor="middle" x="1767.75" y="-374.7" font-family="Times Roman,serif" font-size="12.00">/usr/lib/libbfd.so</text>
</g>
<!-- node54&#45;&gt;node177 -->
<g id="edge124" class="edge"><title>node54&#45;&gt;node177</title>
<path fill="none" stroke="black" d="M1687.76,-431.831C1701.83,-422.359 1719.18,-410.684 1734.12,-400.63"/>
<polygon fill="black" stroke="black" points="1736.26,-403.413 1742.6,-394.926 1732.35,-397.605 1736.26,-403.413"/>
</g>
<!-- node178 -->
<g id="node92" class="node"><title>node178</title>
<ellipse fill="none" stroke="black" cx="1945.75" cy="-378" rx="89.0421" ry="18"/>
<text text-anchor="middle" x="1945.75" y="-374.7" font-family="Times Roman,serif" font-size="12.00">/usr/lib/libiberty_pic.a</text>
</g>
<!-- node54&#45;&gt;node178 -->
<g id="edge126" class="edge"><title>node54&#45;&gt;node178</title>
<path fill="none" stroke="black" d="M1694.01,-441.6C1739.46,-430.115 1821.99,-409.266 1880.14,-394.576"/>
<polygon fill="black" stroke="black" points="1881.14,-397.934 1889.98,-392.091 1879.42,-391.147 1881.14,-397.934"/>
</g>
<!-- node61&#45;&gt;node151 -->
<g id="edge130" class="edge"><title>node61&#45;&gt;node151</title>
<path fill="none" stroke="black" d="M1096.87,-503.934C1123.78,-457.908 1202.19,-336.47 1305.75,-288 1429.78,-229.952 1491.54,-317.571 1611.75,-252 1625.41,-244.554 1689.41,-154.631 1700.75,-144 1712.76,-132.752 1727.18,-121.851 1740.16,-112.824"/>
<polygon fill="black" stroke="black" points="1742.15,-115.704 1748.43,-107.178 1738.2,-109.921 1742.15,-115.704"/>
</g>
<!-- node61&#45;&gt;node142 -->
<g id="edge136" class="edge"><title>node61&#45;&gt;node142</title>
<path fill="none" stroke="black" d="M1127.79,-506.199C1157.09,-494.919 1196.55,-479.726 1227.05,-467.981"/>
<polygon fill="black" stroke="black" points="1228.54,-471.158 1236.62,-464.298 1226.03,-464.625 1228.54,-471.158"/>
</g>
<!-- node61&#45;&gt;node146 -->
<g id="edge132" class="edge"><title>node61&#45;&gt;node146</title>
<path fill="none" stroke="black" d="M1067.06,-503.956C1057.9,-494.277 1047.91,-481.564 1042.75,-468 1025.94,-423.793 1028.18,-367.836 1031.71,-334.592"/>
<polygon fill="black" stroke="black" points="1035.23,-334.58 1032.93,-324.239 1028.28,-333.761 1035.23,-334.58"/>
</g>
<!-- node61&#45;&gt;node66 -->
<g id="edge138" class="edge"><title>node61&#45;&gt;node66</title>
<path fill="none" stroke="black" d="M1108.94,-503.924C1154.12,-468.362 1261.47,-390.147 1366.75,-360 1486.85,-325.611 1872.75,-311.103 2000.36,-307.168"/>
<polygon fill="black" stroke="black" points="2000.61,-310.662 2010.49,-306.861 2000.39,-303.665 2000.61,-310.662"/>
</g>
<!-- node61&#45;&gt;node63 -->
<g id="edge134" class="edge"><title>node61&#45;&gt;node63</title>
<path fill="none" stroke="black" d="M1045.63,-508.032C1010.37,-496.057 959.546,-478.797 922.497,-466.214"/>
<polygon fill="black" stroke="black" points="923.51,-462.862 912.916,-462.96 921.259,-469.49 923.51,-462.862"/>
</g>
<!-- node64&#45;&gt;node151 -->
<g id="edge142" class="edge"><title>node64&#45;&gt;node151</title>
<path fill="none" stroke="black" d="M1209.6,-503.725C1211.15,-484.775 1215.51,-454.787 1227.75,-432 1270.31,-352.83 1289.27,-328.007 1369.75,-288 1480.14,-233.135 1537.61,-312.936 1644.75,-252 1671.3,-236.902 1710.4,-167.629 1729.75,-144 1737.28,-134.808 1745.67,-124.876 1753.2,-116.066"/>
<polygon fill="black" stroke="black" points="1755.97,-118.214 1759.82,-108.345 1750.65,-113.656 1755.97,-118.214"/>
</g>
<!-- node64&#45;&gt;node147 -->
<g id="edge148" class="edge"><title>node64&#45;&gt;node147</title>
<path fill="none" stroke="black" d="M1179.27,-503.997C1114.76,-464.631 956.156,-368.013 822.755,-288 804.677,-277.157 784.522,-265.185 767.784,-255.274"/>
<polygon fill="black" stroke="black" points="769.26,-252.081 758.871,-250.001 765.695,-258.105 769.26,-252.081"/>
</g>
<!-- node64&#45;&gt;node146 -->
<g id="edge150" class="edge"><title>node64&#45;&gt;node146</title>
<path fill="none" stroke="black" d="M1194.3,-503.955C1163.71,-465.759 1092.3,-376.603 1056.7,-332.156"/>
<polygon fill="black" stroke="black" points="1059.27,-329.762 1050.29,-324.145 1053.81,-334.138 1059.27,-329.762"/>
</g>
<!-- node64&#45;&gt;node66 -->
<g id="edge144" class="edge"><title>node64&#45;&gt;node66</title>
<path fill="none" stroke="black" d="M1242.99,-509.862C1266.13,-500.62 1296.57,-486.363 1319.75,-468 1368.29,-429.554 1353.01,-388.922 1407.75,-360 1460,-332.399 1867.77,-313.215 2000.3,-307.658"/>
<polygon fill="black" stroke="black" points="2000.6,-311.148 2010.45,-307.236 2000.31,-304.154 2000.6,-311.148"/>
</g>
<!-- node64&#45;&gt;node53 -->
<g id="edge152" class="edge"><title>node64&#45;&gt;node53</title>
<path fill="none" stroke="black" d="M1174.65,-509.723C1100.91,-483.176 926.965,-420.556 848.443,-392.288"/>
<polygon fill="black" stroke="black" points="849.501,-388.949 838.907,-388.855 847.13,-395.535 849.501,-388.949"/>
</g>
<!-- node64&#45;&gt;node54 -->
<g id="edge146" class="edge"><title>node64&#45;&gt;node54</title>
<path fill="none" stroke="black" d="M1243.1,-516.529C1324.35,-503.587 1528.24,-471.109 1617.62,-456.87"/>
<polygon fill="black" stroke="black" points="1618.36,-460.297 1627.69,-455.267 1617.26,-453.384 1618.36,-460.297"/>
</g>
</g>
</svg>
