<?xml version="1.0" encoding="UTF-8" standalone="no"?>
<!DOCTYPE svg PUBLIC "-//W3C//DTD SVG 1.1//EN"
 "http://www.w3.org/Graphics/SVG/1.1/DTD/svg11.dtd">
<!-- Generated by graphviz version 2.26.3 (20100126.1600)
 -->
<!-- Title: GG Pages: 1 -->
<svg width="882pt" height="116pt"
 viewBox="0.00 0.00 882.00 116.00" xmlns="http://www.w3.org/2000/svg" xmlns:xlink="http://www.w3.org/1999/xlink">
<g id="graph1" class="graph" transform="scale(1 1) rotate(0) translate(4 112)">
<title>GG</title>
<polygon fill="white" stroke="white" points="-4,5 -4,-112 879,-112 879,5 -4,5"/>
<!-- node159 -->
<g id="node1" class="node"><title>node159</title>
<polygon fill="none" stroke="black" points="444,-108 390,-108 390,-72 444,-72 444,-108"/>
<text text-anchor="middle" x="417" y="-86.7" font-family="Times Roman,serif" font-size="12.00">zcrypt</text>
</g>
<!-- node176 -->
<g id="node2" class="node"><title>node176</title>
<ellipse fill="none" stroke="black" cx="131" cy="-18" rx="130.789" ry="18"/>
<text text-anchor="middle" x="131" y="-14.7" font-family="Times Roman,serif" font-size="12.00">/usr/lib/x86_64&#45;linux&#45;gnu/libz.so</text>
</g>
<!-- node159&#45;&gt;node176 -->
<g id="edge2" class="edge"><title>node159&#45;&gt;node176</title>
<path fill="none" stroke="black" d="M389.836,-83.1615C347.504,-72.5045 264.366,-51.5746 203.699,-36.3019"/>
<polygon fill="black" stroke="black" points="204.339,-32.8538 193.787,-33.8065 202.63,-39.642 204.339,-32.8538"/>
</g>
<!-- node191 -->
<g id="node4" class="node"><title>node191</title>
<ellipse fill="none" stroke="black" cx="417" cy="-18" rx="137.138" ry="18"/>
<text text-anchor="middle" x="417" y="-14.7" font-family="Times Roman,serif" font-size="12.00">/usr/lib/x86_64&#45;linux&#45;gnu/libssl.so</text>
</g>
<!-- node159&#45;&gt;node191 -->
<g id="edge4" class="edge"><title>node159&#45;&gt;node191</title>
<path fill="none" stroke="black" d="M417,-71.8314C417,-64.131 417,-54.9743 417,-46.4166"/>
<polygon fill="black" stroke="black" points="420.5,-46.4132 417,-36.4133 413.5,-46.4133 420.5,-46.4132"/>
</g>
<!-- node192 -->
<g id="node6" class="node"><title>node192</title>
<ellipse fill="none" stroke="black" cx="723" cy="-18" rx="150.937" ry="18"/>
<text text-anchor="middle" x="723" y="-14.7" font-family="Times Roman,serif" font-size="12.00">/usr/lib/x86_64&#45;linux&#45;gnu/libcrypto.so</text>
</g>
<!-- node159&#45;&gt;node192 -->
<g id="edge6" class="edge"><title>node159&#45;&gt;node192</title>
<path fill="none" stroke="black" d="M444.155,-83.6105C488.676,-73.135 578.809,-51.9272 644.59,-36.4495"/>
<polygon fill="black" stroke="black" points="645.586,-39.8108 654.518,-34.1134 643.982,-32.9969 645.586,-39.8108"/>
</g>
</g>
</svg>
