<?xml version="1.0" encoding="UTF-8" standalone="no"?>
<!DOCTYPE svg PUBLIC "-//W3C//DTD SVG 1.1//EN"
 "http://www.w3.org/Graphics/SVG/1.1/DTD/svg11.dtd">
<!-- Generated by graphviz version 2.26.3 (20100126.1600)
 -->
<!-- Title: GG Pages: 1 -->
<svg width="2977pt" height="908pt"
 viewBox="0.00 0.00 2977.00 908.00" xmlns="http://www.w3.org/2000/svg" xmlns:xlink="http://www.w3.org/1999/xlink">
<g id="graph1" class="graph" transform="scale(1 1) rotate(0) translate(4 904)">
<title>GG</title>
<polygon fill="white" stroke="white" points="-4,5 -4,-904 2974,-904 2974,5 -4,5"/>
<!-- node170 -->
<g id="node1" class="node"><title>node170</title>
<polygon fill="none" stroke="black" points="1612.11,-887.562 1539,-900 1465.89,-887.562 1465.96,-867.438 1612.04,-867.438 1612.11,-887.562"/>
<text text-anchor="middle" x="1539" y="-878.7" font-family="Times Roman,serif" font-size="12.00">thorslave_lcr</text>
</g>
<!-- node151 -->
<g id="node2" class="node"><title>node151</title>
<polygon fill="none" stroke="black" points="1816,-108 1762,-108 1762,-72 1816,-72 1816,-108"/>
<text text-anchor="middle" x="1789" y="-86.7" font-family="Times Roman,serif" font-size="12.00">jlib</text>
</g>
<!-- node170&#45;&gt;node151 -->
<g id="edge2" class="edge"><title>node170&#45;&gt;node151</title>
<path fill="none" stroke="black" d="M1465.89,-880.745C1180.57,-875.656 154.558,-855.517 91,-828 38.7985,-805.4 0,-794.884 0,-738 0,-738 0,-738 0,-234 0,-188.667 9.49324,-167.924 48,-144 122.863,-97.4889 1505.54,-90.9065 1751.68,-90.1021"/>
<polygon fill="black" stroke="black" points="1751.91,-93.6015 1761.9,-90.07 1751.89,-86.6016 1751.91,-93.6015"/>
</g>
<!-- node59 -->
<g id="node12" class="node"><title>node59</title>
<polygon fill="none" stroke="black" points="375,-252 317,-252 317,-216 375,-216 375,-252"/>
<text text-anchor="middle" x="346" y="-230.7" font-family="Times Roman,serif" font-size="12.00">remote</text>
</g>
<!-- node170&#45;&gt;node59 -->
<g id="edge12" class="edge"><title>node170&#45;&gt;node59</title>
<path fill="none" stroke="black" d="M1465.89,-880.144C1218.91,-873.687 424.621,-851.317 312,-828 202.074,-805.241 76,-850.257 76,-738 76,-738 76,-738 76,-378 76,-274.62 232.012,-245.202 306.852,-237.037"/>
<polygon fill="black" stroke="black" points="307.254,-240.514 316.849,-236.02 306.546,-233.55 307.254,-240.514"/>
</g>
<!-- node52 -->
<g id="node18" class="node"><title>node52</title>
<polygon fill="none" stroke="black" points="2535,-540 2449,-540 2449,-504 2535,-504 2535,-540"/>
<text text-anchor="middle" x="2492" y="-518.7" font-family="Times Roman,serif" font-size="12.00">commonext</text>
</g>
<!-- node170&#45;&gt;node52 -->
<g id="edge20" class="edge"><title>node170&#45;&gt;node52</title>
<path fill="none" stroke="black" d="M1612.03,-879.661C1777.95,-873.897 2179.11,-857.312 2311,-828 2411.72,-805.616 2525,-841.18 2525,-738 2525,-738 2525,-738 2525,-666 2525,-624.883 2512.06,-578.793 2502.38,-550.082"/>
<polygon fill="black" stroke="black" points="2505.59,-548.63 2499,-540.332 2498.97,-550.927 2505.59,-548.63"/>
</g>
<!-- node66 -->
<g id="node21" class="node"><title>node66</title>
<polygon fill="none" stroke="black" points="822,-324 760,-324 760,-288 822,-288 822,-324"/>
<text text-anchor="middle" x="791" y="-302.7" font-family="Times Roman,serif" font-size="12.00">dalibase</text>
</g>
<!-- node170&#45;&gt;node66 -->
<g id="edge24" class="edge"><title>node170&#45;&gt;node66</title>
<path fill="none" stroke="black" d="M1465.87,-880.661C1210.96,-875.037 377,-848.215 377,-738 377,-738 377,-738 377,-666 377,-518.236 391.962,-452.738 507,-360 543.794,-330.339 680.156,-315.094 749.674,-309.107"/>
<polygon fill="black" stroke="black" points="750.155,-312.579 759.829,-308.257 749.572,-305.603 750.155,-312.579"/>
</g>
<!-- node55 -->
<g id="node30" class="node"><title>node55</title>
<polygon fill="none" stroke="black" points="346,-396 256,-396 256,-360 346,-360 346,-396"/>
<text text-anchor="middle" x="301" y="-374.7" font-family="Times Roman,serif" font-size="12.00">environment</text>
</g>
<!-- node170&#45;&gt;node55 -->
<g id="edge38" class="edge"><title>node170&#45;&gt;node55</title>
<path fill="none" stroke="black" d="M1465.81,-880.428C1216.22,-874.836 411.277,-854.797 363,-828 320.531,-804.427 301,-786.573 301,-738 301,-738 301,-738 301,-522 301,-481.876 301,-435.463 301,-406.418"/>
<polygon fill="black" stroke="black" points="304.5,-406.185 301,-396.185 297.5,-406.185 304.5,-406.185"/>
</g>
<!-- node54 -->
<g id="node36" class="node"><title>node54</title>
<polygon fill="none" stroke="black" points="1078,-468 1012,-468 1012,-432 1078,-432 1078,-468"/>
<text text-anchor="middle" x="1045" y="-446.7" font-family="Times Roman,serif" font-size="12.00">dllserver</text>
</g>
<!-- node170&#45;&gt;node54 -->
<g id="edge48" class="edge"><title>node170&#45;&gt;node54</title>
<path fill="none" stroke="black" d="M1465.94,-877.664C1334.26,-869.348 1067.37,-850.018 1031,-828 928.471,-765.934 910.804,-693.384 935,-576 942.034,-541.877 943.853,-530.895 966,-504 976.222,-491.586 990.009,-480.84 1003.2,-472.274"/>
<polygon fill="black" stroke="black" points="1005.1,-475.217 1011.74,-466.965 1001.4,-469.272 1005.1,-475.217"/>
</g>
<!-- node146 -->
<g id="node43" class="node"><title>node146</title>
<polygon fill="none" stroke="black" points="1599,-396 1545,-396 1545,-360 1599,-360 1599,-396"/>
<text text-anchor="middle" x="1572" y="-374.7" font-family="Times Roman,serif" font-size="12.00">eclrtl</text>
</g>
<!-- node170&#45;&gt;node146 -->
<g id="edge86" class="edge"><title>node170&#45;&gt;node146</title>
<path fill="none" stroke="black" d="M1482.06,-867.346C1455.92,-858.753 1425.58,-845.98 1402,-828 1370.19,-803.749 1362.47,-793.29 1348,-756 1307.48,-651.587 1308.45,-609.159 1347,-504 1360.95,-465.937 1369.76,-455.208 1403,-432 1443.11,-403.995 1498.5,-389.954 1534.77,-383.33"/>
<polygon fill="black" stroke="black" points="1535.66,-386.728 1544.92,-381.579 1534.47,-379.83 1535.66,-386.728"/>
</g>
<!-- node147 -->
<g id="node54" class="node"><title>node147</title>
<polygon fill="none" stroke="black" points="1966,-324 1912,-324 1912,-288 1966,-288 1966,-324"/>
<text text-anchor="middle" x="1939" y="-302.7" font-family="Times Roman,serif" font-size="12.00">nbcd</text>
</g>
<!-- node170&#45;&gt;node147 -->
<g id="edge84" class="edge"><title>node170&#45;&gt;node147</title>
<path fill="none" stroke="black" d="M1612.04,-879.393C1763.27,-873.584 2121.59,-857.693 2421,-828 2666.61,-803.642 2969,-984.818 2969,-738 2969,-738 2969,-738 2969,-522 2969,-359.809 2798.39,-402.998 2642,-360 2514.84,-325.038 2103.71,-310.675 1976.72,-307.003"/>
<polygon fill="black" stroke="black" points="1976.45,-303.494 1966.36,-306.709 1976.25,-310.491 1976.45,-303.494"/>
</g>
<!-- node53 -->
<g id="node66" class="node"><title>node53</title>
<polygon fill="none" stroke="black" points="1901,-468 1841,-468 1841,-432 1901,-432 1901,-468"/>
<text text-anchor="middle" x="1871" y="-446.7" font-family="Times Roman,serif" font-size="12.00">deftype</text>
</g>
<!-- node170&#45;&gt;node53 -->
<g id="edge88" class="edge"><title>node170&#45;&gt;node53</title>
<path fill="none" stroke="black" d="M1612.09,-877.662C1790.92,-866.005 2245.41,-829.767 2376,-756 2481.89,-696.183 2507.11,-655.89 2544,-540 2548.85,-524.754 2554.85,-515.757 2544,-504 2541.29,-501.069 2056.06,-464.039 1911.3,-453.053"/>
<polygon fill="black" stroke="black" points="1911.32,-449.544 1901.09,-452.278 1910.8,-456.524 1911.32,-449.544"/>
</g>
<!-- node64 -->
<g id="node71" class="node"><title>node64</title>
<polygon fill="none" stroke="black" points="1597,-540 1529,-540 1529,-504 1597,-504 1597,-540"/>
<text text-anchor="middle" x="1563" y="-518.7" font-family="Times Roman,serif" font-size="12.00">workunit</text>
</g>
<!-- node170&#45;&gt;node64 -->
<g id="edge96" class="edge"><title>node170&#45;&gt;node64</title>
<path fill="none" stroke="black" d="M1511.32,-867.349C1448.8,-832.226 1305.89,-739.337 1356,-648 1390.15,-585.755 1469.22,-550.822 1519.15,-534.241"/>
<polygon fill="black" stroke="black" points="1520.28,-537.555 1528.73,-531.166 1518.14,-530.89 1520.28,-537.555"/>
</g>
<!-- node63 -->
<g id="node79" class="node"><title>node63</title>
<polygon fill="none" stroke="black" points="2147,-540 2071,-540 2071,-504 2147,-504 2147,-540"/>
<text text-anchor="middle" x="2109" y="-518.7" font-family="Times Roman,serif" font-size="12.00">thorhelper</text>
</g>
<!-- node170&#45;&gt;node63 -->
<g id="edge110" class="edge"><title>node170&#45;&gt;node63</title>
<path fill="none" stroke="black" d="M1612.33,-875.908C1713,-866.934 1888.44,-848.943 1949,-828 2067.64,-786.969 2129.85,-793.074 2192,-684 2203.88,-663.151 2185.46,-585.046 2180,-576 2172.92,-564.271 2162.26,-554.201 2151.34,-546.043"/>
<polygon fill="black" stroke="black" points="2153.18,-543.061 2142.98,-540.181 2149.16,-548.791 2153.18,-543.061"/>
</g>
<!-- node171 -->
<g id="node92" class="node"><title>node171</title>
<polygon fill="none" stroke="black" points="1473,-684 1365,-684 1365,-648 1473,-648 1473,-684"/>
<text text-anchor="middle" x="1419" y="-662.7" font-family="Times Roman,serif" font-size="12.00">thorcodectx_lcr</text>
</g>
<!-- node170&#45;&gt;node171 -->
<g id="edge128" class="edge"><title>node170&#45;&gt;node171</title>
<path fill="none" stroke="black" d="M1524.97,-867.342C1504.35,-845.04 1465.95,-800.465 1444,-756 1434.34,-736.429 1427.93,-712.561 1424.02,-694.323"/>
<polygon fill="black" stroke="black" points="1427.41,-693.422 1422,-684.311 1420.54,-694.805 1427.41,-693.422"/>
</g>
<!-- node164 -->
<g id="node94" class="node"><title>node164</title>
<polygon fill="none" stroke="black" points="1751,-612 1681,-612 1681,-576 1751,-576 1751,-612"/>
<text text-anchor="middle" x="1716" y="-590.7" font-family="Times Roman,serif" font-size="12.00">graph_lcr</text>
</g>
<!-- node170&#45;&gt;node164 -->
<g id="edge180" class="edge"><title>node170&#45;&gt;node164</title>
<path fill="none" stroke="black" d="M1612.41,-869.001C1655.87,-859.644 1704.93,-845.589 1718,-828 1763.59,-766.625 1741.07,-669.032 1725.94,-621.637"/>
<polygon fill="black" stroke="black" points="1729.23,-620.438 1722.76,-612.049 1722.59,-622.643 1729.23,-620.438"/>
</g>
<!-- node150 -->
<g id="node97" class="node"><title>node150</title>
<polygon fill="none" stroke="black" points="2431,-540 2377,-540 2377,-504 2431,-504 2431,-540"/>
<text text-anchor="middle" x="2404" y="-518.7" font-family="Times Roman,serif" font-size="12.00">jhtree</text>
</g>
<!-- node170&#45;&gt;node150 -->
<g id="edge178" class="edge"><title>node170&#45;&gt;node150</title>
<path fill="none" stroke="black" d="M1612.21,-878.58C1834.57,-867.227 2487,-826.386 2487,-738 2487,-738 2487,-738 2487,-666 2487,-619.514 2454.13,-574.51 2429.76,-547.531"/>
<polygon fill="black" stroke="black" points="2432.21,-545.022 2422.83,-540.084 2427.08,-549.79 2432.21,-545.022"/>
</g>
<!-- node166 -->
<g id="node122" class="node"><title>node166</title>
<polygon fill="none" stroke="black" points="1589,-756 1489,-756 1489,-720 1589,-720 1589,-756"/>
<text text-anchor="middle" x="1539" y="-734.7" font-family="Times Roman,serif" font-size="12.00">graphslave_lcr</text>
</g>
<!-- node170&#45;&gt;node166 -->
<g id="edge182" class="edge"><title>node170&#45;&gt;node166</title>
<path fill="none" stroke="black" d="M1539,-867.4C1539,-843.838 1539,-797.003 1539,-766.613"/>
<polygon fill="black" stroke="black" points="1542.5,-766.234 1539,-756.234 1535.5,-766.234 1542.5,-766.234"/>
</g>
<!-- node169 -->
<g id="node138" class="node"><title>node169</title>
<polygon fill="none" stroke="black" points="2055,-684 1969,-684 1969,-648 2055,-648 2055,-684"/>
<text text-anchor="middle" x="2012" y="-662.7" font-family="Times Roman,serif" font-size="12.00">thorsort_lcr</text>
</g>
<!-- node170&#45;&gt;node169 -->
<g id="edge212" class="edge"><title>node170&#45;&gt;node169</title>
<path fill="none" stroke="black" d="M1612.07,-879.023C1707.61,-873.881 1868.49,-860.558 1917,-828 1964.76,-795.944 1991.81,-731.137 2004.01,-693.941"/>
<polygon fill="black" stroke="black" points="2007.4,-694.822 2007.06,-684.233 2000.73,-692.722 2007.4,-694.822"/>
</g>
<!-- node163 -->
<g id="node147" class="node"><title>node163</title>
<polygon fill="none" stroke="black" points="1709,-828 1597,-828 1597,-792 1709,-792 1709,-828"/>
<text text-anchor="middle" x="1653" y="-806.7" font-family="Times Roman,serif" font-size="12.00">activityslaves_lcr</text>
</g>
<!-- node170&#45;&gt;node163 -->
<g id="edge228" class="edge"><title>node170&#45;&gt;node163</title>
<path fill="none" stroke="black" d="M1562.07,-867.43C1577.36,-857.772 1597.77,-844.879 1615.39,-833.757"/>
<polygon fill="black" stroke="black" points="1617.71,-836.427 1624.3,-828.128 1613.97,-830.509 1617.71,-836.427"/>
</g>
<!-- node152 -->
<g id="node4" class="node"><title>node152</title>
<polygon fill="none" stroke="black" points="1667,-36 1627.06,-18 1667,-3.55271e-15 1706.94,-18 1667,-36"/>
<text text-anchor="middle" x="1667" y="-14.7" font-family="Times Roman,serif" font-size="12.00">lzma</text>
</g>
<!-- node151&#45;&gt;node152 -->
<g id="edge4" class="edge"><title>node151&#45;&gt;node152</title>
<path fill="none" stroke="black" d="M1761.92,-74.0209C1741.47,-61.9494 1713.55,-45.4743 1693.29,-33.5172"/>
<polygon fill="black" stroke="black" points="1694.97,-30.4417 1684.58,-28.3733 1691.41,-36.4701 1694.97,-30.4417"/>
</g>
<!-- node187 -->
<g id="node6" class="node"><title>node187</title>
<ellipse fill="none" stroke="black" cx="1752" cy="-18" rx="27" ry="18"/>
<text text-anchor="middle" x="1752" y="-14.7" font-family="Times Roman,serif" font-size="12.00">dl</text>
</g>
<!-- node151&#45;&gt;node187 -->
<g id="edge6" class="edge"><title>node151&#45;&gt;node187</title>
<path fill="none" stroke="black" d="M1779.66,-71.8314C1775.41,-63.5451 1770.28,-53.5727 1765.61,-44.4748"/>
<polygon fill="black" stroke="black" points="1768.63,-42.7123 1760.95,-35.4177 1762.41,-45.9118 1768.63,-42.7123"/>
</g>
<!-- node179 -->
<g id="node8" class="node"><title>node179</title>
<ellipse fill="none" stroke="black" cx="1827" cy="-18" rx="30.0465" ry="18"/>
<text text-anchor="middle" x="1827" y="-14.7" font-family="Times Roman,serif" font-size="12.00">crypt</text>
</g>
<!-- node151&#45;&gt;node179 -->
<g id="edge8" class="edge"><title>node151&#45;&gt;node179</title>
<path fill="none" stroke="black" d="M1798.59,-71.8314C1802.96,-63.5451 1808.23,-53.5727 1813.03,-44.4748"/>
<polygon fill="black" stroke="black" points="1816.24,-45.8952 1817.81,-35.4177 1810.04,-42.6279 1816.24,-45.8952"/>
</g>
<!-- node188 -->
<g id="node10" class="node"><title>node188</title>
<ellipse fill="none" stroke="black" cx="1902" cy="-18" rx="27" ry="18"/>
<text text-anchor="middle" x="1902" y="-14.7" font-family="Times Roman,serif" font-size="12.00">rt</text>
</g>
<!-- node151&#45;&gt;node188 -->
<g id="edge10" class="edge"><title>node151&#45;&gt;node188</title>
<path fill="none" stroke="black" d="M1816.07,-72.7542C1833.41,-61.7009 1855.9,-47.375 1873.52,-36.1494"/>
<polygon fill="black" stroke="black" points="1875.68,-38.9209 1882.23,-30.5955 1871.92,-33.0174 1875.68,-38.9209"/>
</g>
<!-- node59&#45;&gt;node151 -->
<g id="edge14" class="edge"><title>node59&#45;&gt;node151</title>
<path fill="none" stroke="black" d="M375.276,-223.589C431.909,-203.98 560.782,-161.933 673,-144 887.716,-109.688 1582.26,-94.0587 1751.54,-90.7047"/>
<polygon fill="black" stroke="black" points="1751.77,-94.201 1761.7,-90.5057 1751.63,-87.2023 1751.77,-94.201"/>
</g>
<!-- node153 -->
<g id="node15" class="node"><title>node153</title>
<polygon fill="none" stroke="black" points="759,-180 705,-180 705,-144 759,-144 759,-180"/>
<text text-anchor="middle" x="732" y="-158.7" font-family="Times Roman,serif" font-size="12.00">mp</text>
</g>
<!-- node59&#45;&gt;node153 -->
<g id="edge16" class="edge"><title>node59&#45;&gt;node153</title>
<path fill="none" stroke="black" d="M375.159,-228.038C392.763,-224.471 415.654,-219.89 436,-216 528.787,-198.259 638.195,-178.635 694.436,-168.642"/>
<polygon fill="black" stroke="black" points="695.395,-172.027 704.629,-166.833 694.172,-165.135 695.395,-172.027"/>
</g>
<!-- node153&#45;&gt;node151 -->
<g id="edge18" class="edge"><title>node153&#45;&gt;node151</title>
<path fill="none" stroke="black" d="M759.122,-158.133C788.395,-154.083 836.416,-147.792 878,-144 1216.44,-113.138 1627.3,-96.0828 1751.62,-91.3642"/>
<polygon fill="black" stroke="black" points="1751.89,-94.8566 1761.75,-90.983 1751.63,-87.8615 1751.89,-94.8566"/>
</g>
<!-- node52&#45;&gt;node151 -->
<g id="edge22" class="edge"><title>node52&#45;&gt;node151</title>
<path fill="none" stroke="black" d="M2535.23,-520.461C2619.28,-516.681 2800.81,-504.424 2850,-468 2885.63,-441.618 2893,-422.331 2893,-378 2893,-378 2893,-378 2893,-234 2893,-192.602 2901.19,-170.033 2869,-144 2827.61,-110.524 2011.55,-93.9743 1826.22,-90.639"/>
<polygon fill="black" stroke="black" points="1826.21,-87.1384 1816.15,-90.4597 1826.09,-94.1373 1826.21,-87.1384"/>
</g>
<!-- node66&#45;&gt;node151 -->
<g id="edge26" class="edge"><title>node66&#45;&gt;node151</title>
<path fill="none" stroke="black" d="M798.731,-287.779C814.725,-252.676 855.118,-176.294 916,-144 990.583,-104.439 1594.4,-92.8605 1751.67,-90.5022"/>
<polygon fill="black" stroke="black" points="1751.84,-94.0002 1761.79,-90.354 1751.74,-87.0009 1751.84,-94.0002"/>
</g>
<!-- node66&#45;&gt;node59 -->
<g id="edge36" class="edge"><title>node66&#45;&gt;node59</title>
<path fill="none" stroke="black" d="M759.708,-300.937C680.529,-288.126 472.34,-254.442 385.218,-240.345"/>
<polygon fill="black" stroke="black" points="385.641,-236.868 375.21,-238.726 384.523,-243.779 385.641,-236.868"/>
</g>
<!-- node66&#45;&gt;node153 -->
<g id="edge28" class="edge"><title>node66&#45;&gt;node153</title>
<path fill="none" stroke="black" d="M783.528,-287.762C773.376,-262.985 755.138,-218.471 743.306,-189.594"/>
<polygon fill="black" stroke="black" points="746.442,-188.016 739.412,-180.09 739.964,-190.67 746.442,-188.016"/>
</g>
<!-- node149 -->
<g id="node25" class="node"><title>node149</title>
<polygon fill="none" stroke="black" points="704,-252 650,-252 650,-216 704,-216 704,-252"/>
<text text-anchor="middle" x="677" y="-230.7" font-family="Times Roman,serif" font-size="12.00">hrpc</text>
</g>
<!-- node66&#45;&gt;node149 -->
<g id="edge30" class="edge"><title>node66&#45;&gt;node149</title>
<path fill="none" stroke="black" d="M762.233,-287.831C747.206,-278.341 728.678,-266.639 712.738,-256.572"/>
<polygon fill="black" stroke="black" points="714.512,-253.552 704.188,-251.171 710.774,-259.471 714.512,-253.552"/>
</g>
<!-- node149&#45;&gt;node151 -->
<g id="edge32" class="edge"><title>node149&#45;&gt;node151</title>
<path fill="none" stroke="black" d="M674.976,-215.949C673.762,-195.125 675.464,-161.511 696,-144 737.015,-109.027 1564.46,-93.6209 1751.6,-90.5766"/>
<polygon fill="black" stroke="black" points="1751.82,-94.0735 1761.77,-90.4132 1751.71,-87.0744 1751.82,-94.0735"/>
</g>
<!-- node149&#45;&gt;node153 -->
<g id="edge34" class="edge"><title>node149&#45;&gt;node153</title>
<path fill="none" stroke="black" d="M690.879,-215.831C697.214,-207.539 704.838,-197.557 711.793,-188.453"/>
<polygon fill="black" stroke="black" points="714.645,-190.485 717.934,-180.413 709.083,-186.235 714.645,-190.485"/>
</g>
<!-- node55&#45;&gt;node151 -->
<g id="edge40" class="edge"><title>node55&#45;&gt;node151</title>
<path fill="none" stroke="black" d="M295.79,-359.806C287.682,-327.364 276.074,-258.914 308,-216 366.141,-137.849 419.32,-162.257 515,-144 761.123,-97.036 1568.1,-90.9054 1751.63,-90.1153"/>
<polygon fill="black" stroke="black" points="1751.86,-93.6145 1761.85,-90.0742 1751.83,-86.6146 1751.86,-93.6145"/>
</g>
<!-- node55&#45;&gt;node59 -->
<g id="edge44" class="edge"><title>node55&#45;&gt;node59</title>
<path fill="none" stroke="black" d="M306.699,-359.762C314.408,-335.093 328.231,-290.86 337.258,-261.973"/>
<polygon fill="black" stroke="black" points="340.705,-262.678 340.347,-252.09 334.023,-260.59 340.705,-262.678"/>
</g>
<!-- node55&#45;&gt;node153 -->
<g id="edge42" class="edge"><title>node55&#45;&gt;node153</title>
<path fill="none" stroke="black" d="M337.005,-359.955C418.076,-319.326 614.192,-221.041 695.618,-180.233"/>
<polygon fill="black" stroke="black" points="697.592,-183.159 704.964,-175.549 694.456,-176.901 697.592,-183.159"/>
</g>
<!-- node55&#45;&gt;node66 -->
<g id="edge46" class="edge"><title>node55&#45;&gt;node66</title>
<path fill="none" stroke="black" d="M346.22,-371.355C440.893,-357.444 658.717,-325.438 749.792,-312.055"/>
<polygon fill="black" stroke="black" points="750.358,-315.51 759.743,-310.593 749.341,-308.584 750.358,-315.51"/>
</g>
<!-- node54&#45;&gt;node151 -->
<g id="edge52" class="edge"><title>node54&#45;&gt;node151</title>
<path fill="none" stroke="black" d="M1078.26,-443.395C1132.53,-431.215 1230.5,-402.513 1193,-360 1108.26,-263.919 991.745,-420.081 907,-324 896.416,-312.001 897.002,-300.491 907,-288 1015.7,-152.196 1597.51,-103.118 1751.55,-92.3994"/>
<polygon fill="black" stroke="black" points="1752.16,-95.8666 1761.89,-91.6933 1751.68,-88.8828 1752.16,-95.8666"/>
</g>
<!-- node54&#45;&gt;node59 -->
<g id="edge74" class="edge"><title>node54&#45;&gt;node59</title>
<path fill="none" stroke="black" d="M1011.91,-447.451C895.911,-438.428 513.405,-407.906 490,-396 474.167,-387.946 403.344,-303.633 367.268,-259.942"/>
<polygon fill="black" stroke="black" points="369.811,-257.524 360.75,-252.033 364.409,-261.976 369.811,-257.524"/>
</g>
<!-- node54&#45;&gt;node153 -->
<g id="edge54" class="edge"><title>node54&#45;&gt;node153</title>
<path fill="none" stroke="black" d="M1078.19,-436.115C1103.65,-424.709 1135.64,-408.46 1143,-396 1151.14,-382.224 1153.78,-371.82 1143,-360 1084.04,-295.377 813.63,-385.073 751,-324 715.571,-289.452 719.658,-226.583 725.82,-190.157"/>
<polygon fill="black" stroke="black" points="729.286,-190.666 727.67,-180.195 722.403,-189.388 729.286,-190.666"/>
</g>
<!-- node54&#45;&gt;node66 -->
<g id="edge76" class="edge"><title>node54&#45;&gt;node66</title>
<path fill="none" stroke="black" d="M1078.1,-438.521C1114.98,-425.404 1170.22,-404.637 1176,-396 1184.9,-382.704 1186.7,-371.894 1176,-360 1125.18,-303.518 909.746,-342.281 836,-324 834.571,-323.646 833.127,-323.256 831.676,-322.837"/>
<polygon fill="black" stroke="black" points="832.7,-319.489 822.108,-319.717 830.53,-326.144 832.7,-319.489"/>
</g>
<!-- node54&#45;&gt;node149 -->
<g id="edge56" class="edge"><title>node54&#45;&gt;node149</title>
<path fill="none" stroke="black" d="M1011.94,-447.279C896.167,-437.677 515.541,-405.441 507,-396 454.58,-338.055 575.939,-276.07 640.251,-248.574"/>
<polygon fill="black" stroke="black" points="641.808,-251.716 649.673,-244.617 639.098,-245.262 641.808,-251.716"/>
</g>
<!-- node54&#45;&gt;node55 -->
<g id="edge78" class="edge"><title>node54&#45;&gt;node55</title>
<path fill="none" stroke="black" d="M1011.88,-448.41C916.328,-443.572 632.045,-427.402 398,-396 384.473,-394.185 369.968,-391.756 356.405,-389.271"/>
<polygon fill="black" stroke="black" points="356.723,-385.769 346.249,-387.369 355.434,-392.65 356.723,-385.769"/>
</g>
<!-- node176 -->
<g id="node38" class="node"><title>node176</title>
<ellipse fill="none" stroke="black" cx="647" cy="-378" rx="130.789" ry="18"/>
<text text-anchor="middle" x="647" y="-374.7" font-family="Times Roman,serif" font-size="12.00">/usr/lib/x86_64&#45;linux&#45;gnu/libz.so</text>
</g>
<!-- node54&#45;&gt;node176 -->
<g id="edge50" class="edge"><title>node54&#45;&gt;node176</title>
<path fill="none" stroke="black" d="M1011.75,-443.985C951.757,-433.132 823.535,-409.936 736.27,-394.149"/>
<polygon fill="black" stroke="black" points="736.833,-390.694 726.369,-392.358 735.587,-397.583 736.833,-390.694"/>
</g>
<!-- node54&#45;&gt;node146 -->
<g id="edge58" class="edge"><title>node54&#45;&gt;node146</title>
<path fill="none" stroke="black" d="M1078.2,-445.511C1146.38,-436.287 1307.1,-414.513 1442,-396 1473.25,-391.712 1508.71,-386.798 1534.7,-383.189"/>
<polygon fill="black" stroke="black" points="1535.44,-386.62 1544.86,-381.777 1534.48,-379.686 1535.44,-386.62"/>
</g>
<!-- node177 -->
<g id="node60" class="node"><title>node177</title>
<ellipse fill="none" stroke="black" cx="867" cy="-378" rx="70.8437" ry="18"/>
<text text-anchor="middle" x="867" y="-374.7" font-family="Times Roman,serif" font-size="12.00">/usr/lib/libbfd.so</text>
</g>
<!-- node54&#45;&gt;node177 -->
<g id="edge80" class="edge"><title>node54&#45;&gt;node177</title>
<path fill="none" stroke="black" d="M1011.94,-436.626C984.539,-425.544 945.248,-409.651 914.485,-397.207"/>
<polygon fill="black" stroke="black" points="915.405,-393.804 904.822,-393.299 912.78,-400.293 915.405,-393.804"/>
</g>
<!-- node178 -->
<g id="node62" class="node"><title>node178</title>
<ellipse fill="none" stroke="black" cx="1045" cy="-378" rx="89.0421" ry="18"/>
<text text-anchor="middle" x="1045" y="-374.7" font-family="Times Roman,serif" font-size="12.00">/usr/lib/libiberty_pic.a</text>
</g>
<!-- node54&#45;&gt;node178 -->
<g id="edge82" class="edge"><title>node54&#45;&gt;node178</title>
<path fill="none" stroke="black" d="M1045,-431.831C1045,-424.131 1045,-414.974 1045,-406.417"/>
<polygon fill="black" stroke="black" points="1048.5,-406.413 1045,-396.413 1041.5,-406.413 1048.5,-406.413"/>
</g>
<!-- node146&#45;&gt;node151 -->
<g id="edge68" class="edge"><title>node146&#45;&gt;node151</title>
<path fill="none" stroke="black" d="M1599.2,-369.108C1637.93,-356.22 1705.18,-332.919 1713,-324 1767.22,-262.151 1724.61,-220.027 1756,-144 1759.82,-134.752 1765.1,-125.251 1770.31,-116.846"/>
<polygon fill="black" stroke="black" points="1773.39,-118.522 1775.87,-108.221 1767.51,-114.728 1773.39,-118.522"/>
</g>
<!-- node186 -->
<g id="node45" class="node"><title>node186</title>
<ellipse fill="none" stroke="black" cx="1223" cy="-306" rx="118.939" ry="18"/>
<text text-anchor="middle" x="1223" y="-302.7" font-family="Times Roman,serif" font-size="12.00">/usr/lib/libboost_regex&#45;mt.so</text>
</g>
<!-- node146&#45;&gt;node186 -->
<g id="edge60" class="edge"><title>node146&#45;&gt;node186</title>
<path fill="none" stroke="black" d="M1544.95,-366.644C1538.49,-364.211 1531.57,-361.827 1525,-360 1486.59,-349.314 1389.82,-332.659 1316.09,-320.671"/>
<polygon fill="black" stroke="black" points="1316.28,-317.156 1305.85,-319.011 1315.16,-324.066 1316.28,-317.156"/>
</g>
<!-- node183 -->
<g id="node47" class="node"><title>node183</title>
<ellipse fill="none" stroke="black" cx="1438" cy="-306" rx="77.9931" ry="18"/>
<text text-anchor="middle" x="1438" y="-302.7" font-family="Times Roman,serif" font-size="12.00">/usr/lib/libicuuc.so</text>
</g>
<!-- node146&#45;&gt;node183 -->
<g id="edge62" class="edge"><title>node146&#45;&gt;node183</title>
<path fill="none" stroke="black" d="M1544.88,-363.43C1525.61,-353.075 1499.42,-339.001 1477.79,-327.377"/>
<polygon fill="black" stroke="black" points="1479.29,-324.214 1468.83,-322.563 1475.98,-330.38 1479.29,-324.214"/>
</g>
<!-- node184 -->
<g id="node49" class="node"><title>node184</title>
<ellipse fill="none" stroke="black" cx="1619" cy="-306" rx="85.1424" ry="18"/>
<text text-anchor="middle" x="1619" y="-302.7" font-family="Times Roman,serif" font-size="12.00">/usr/lib/libicui18n.so</text>
</g>
<!-- node146&#45;&gt;node184 -->
<g id="edge64" class="edge"><title>node146&#45;&gt;node184</title>
<path fill="none" stroke="black" d="M1583.86,-359.831C1589.3,-351.497 1595.85,-341.457 1601.82,-332.316"/>
<polygon fill="black" stroke="black" points="1604.77,-334.2 1607.31,-323.913 1598.91,-330.374 1604.77,-334.2"/>
</g>
<!-- node185 -->
<g id="node51" class="node"><title>node185</title>
<ellipse fill="none" stroke="black" cx="1001" cy="-306" rx="85.1424" ry="18"/>
<text text-anchor="middle" x="1001" y="-302.7" font-family="Times Roman,serif" font-size="12.00">/usr/lib/libicudata.so</text>
</g>
<!-- node146&#45;&gt;node185 -->
<g id="edge66" class="edge"><title>node146&#45;&gt;node185</title>
<path fill="none" stroke="black" d="M1544.57,-366.011C1538.25,-363.667 1531.47,-361.479 1525,-360 1338.04,-317.281 1285,-350.071 1095,-324 1087.42,-322.96 1079.52,-321.711 1071.67,-320.363"/>
<polygon fill="black" stroke="black" points="1072.23,-316.908 1061.78,-318.61 1071.01,-323.801 1072.23,-316.908"/>
</g>
<!-- node146&#45;&gt;node147 -->
<g id="edge70" class="edge"><title>node146&#45;&gt;node147</title>
<path fill="none" stroke="black" d="M1599.28,-372.647C1664.18,-359.917 1827.79,-327.817 1901.72,-313.314"/>
<polygon fill="black" stroke="black" points="1902.4,-316.748 1911.54,-311.388 1901.05,-309.879 1902.4,-316.748"/>
</g>
<!-- node147&#45;&gt;node151 -->
<g id="edge72" class="edge"><title>node147&#45;&gt;node151</title>
<path fill="none" stroke="black" d="M1939.14,-287.8C1938.44,-255.349 1932.63,-186.884 1898,-144 1879.89,-121.573 1850.1,-107.71 1826.24,-99.6542"/>
<polygon fill="black" stroke="black" points="1827.02,-96.2292 1816.43,-96.5492 1824.91,-102.903 1827.02,-96.2292"/>
</g>
<!-- node53&#45;&gt;node151 -->
<g id="edge90" class="edge"><title>node53&#45;&gt;node151</title>
<path fill="none" stroke="black" d="M1870.77,-431.75C1869.93,-367.768 1866.64,-156.802 1860,-144 1852.28,-129.113 1838.39,-117.158 1824.93,-108.319"/>
<polygon fill="black" stroke="black" points="1826.57,-105.217 1816.21,-102.961 1822.9,-111.18 1826.57,-105.217"/>
</g>
<!-- node53&#45;&gt;node146 -->
<g id="edge94" class="edge"><title>node53&#45;&gt;node146</title>
<path fill="none" stroke="black" d="M1840.96,-442.767C1785.94,-429.519 1669.16,-401.397 1609.21,-386.961"/>
<polygon fill="black" stroke="black" points="1609.94,-383.537 1599.4,-384.599 1608.3,-390.342 1609.94,-383.537"/>
</g>
<!-- node53&#45;&gt;node147 -->
<g id="edge92" class="edge"><title>node53&#45;&gt;node147</title>
<path fill="none" stroke="black" d="M1871.17,-431.774C1872.02,-412.863 1875.33,-382.907 1887,-360 1892.39,-349.416 1900.55,-339.516 1908.81,-331.156"/>
<polygon fill="black" stroke="black" points="1911.24,-333.676 1916.04,-324.228 1906.4,-328.624 1911.24,-333.676"/>
</g>
<!-- node64&#45;&gt;node151 -->
<g id="edge98" class="edge"><title>node64&#45;&gt;node151</title>
<path fill="none" stroke="black" d="M1580.91,-503.738C1611.45,-472.907 1676.06,-409.097 1735,-360 1755.76,-342.704 1771.54,-347.979 1784,-324 1818.85,-256.932 1805.7,-163.786 1795.9,-117.868"/>
<polygon fill="black" stroke="black" points="1799.3,-117.025 1793.69,-108.032 1792.47,-118.556 1799.3,-117.025"/>
</g>
<!-- node64&#45;&gt;node66 -->
<g id="edge100" class="edge"><title>node64&#45;&gt;node66</title>
<path fill="none" stroke="black" d="M1528.73,-516.353C1481.55,-507.856 1400.23,-490.367 1381,-468 1349.4,-431.255 1401.36,-393.136 1366,-360 1326,-322.521 928.251,-331.828 874,-324 860.278,-322.02 845.438,-319.066 832.153,-316.121"/>
<polygon fill="black" stroke="black" points="832.869,-312.694 822.341,-313.886 831.314,-319.52 832.869,-312.694"/>
</g>
<!-- node64&#45;&gt;node54 -->
<g id="edge102" class="edge"><title>node64&#45;&gt;node54</title>
<path fill="none" stroke="black" d="M1528.81,-514.171C1513.08,-510.745 1494.15,-506.862 1477,-504 1335.66,-480.416 1166.74,-462.147 1088.6,-454.256"/>
<polygon fill="black" stroke="black" points="1088.49,-450.727 1078.19,-453.212 1087.8,-457.692 1088.49,-450.727"/>
</g>
<!-- node64&#45;&gt;node146 -->
<g id="edge106" class="edge"><title>node64&#45;&gt;node146</title>
<path fill="none" stroke="black" d="M1564.14,-503.762C1565.67,-479.201 1568.42,-435.247 1570.23,-406.354"/>
<polygon fill="black" stroke="black" points="1573.74,-406.288 1570.87,-396.09 1566.75,-405.852 1573.74,-406.288"/>
</g>
<!-- node64&#45;&gt;node147 -->
<g id="edge104" class="edge"><title>node64&#45;&gt;node147</title>
<path fill="none" stroke="black" d="M1597.19,-512.644C1628.35,-503.439 1675.14,-487.888 1713,-468 1752.98,-446.997 1855.22,-370.173 1907.38,-330.333"/>
<polygon fill="black" stroke="black" points="1909.79,-332.896 1915.6,-324.039 1905.53,-327.337 1909.79,-332.896"/>
</g>
<!-- node64&#45;&gt;node53 -->
<g id="edge108" class="edge"><title>node64&#45;&gt;node53</title>
<path fill="none" stroke="black" d="M1597.14,-514.02C1654.44,-500.625 1769.67,-473.687 1830.8,-459.398"/>
<polygon fill="black" stroke="black" points="1831.9,-462.735 1840.84,-457.051 1830.3,-455.919 1831.9,-462.735"/>
</g>
<!-- node63&#45;&gt;node151 -->
<g id="edge112" class="edge"><title>node63&#45;&gt;node151</title>
<path fill="none" stroke="black" d="M2147.06,-516.285C2238.27,-502.583 2462.12,-468.922 2466,-468 2591.12,-438.281 2741,-506.601 2741,-378 2741,-378 2741,-378 2741,-234 2741,-187.231 2945.7,-237.622 2534,-144 2397.02,-112.85 1958.28,-95.7476 1826.67,-91.2269"/>
<polygon fill="black" stroke="black" points="1826.42,-87.7167 1816.31,-90.8754 1826.19,-94.7126 1826.42,-87.7167"/>
</g>
<!-- node63&#45;&gt;node146 -->
<g id="edge116" class="edge"><title>node63&#45;&gt;node146</title>
<path fill="none" stroke="black" d="M2076.25,-503.899C2037.65,-483.349 1971.01,-450.312 1910,-432 1803.74,-400.107 1672.7,-386.012 1609.54,-380.718"/>
<polygon fill="black" stroke="black" points="1609.52,-377.205 1599.27,-379.885 1608.96,-384.182 1609.52,-377.205"/>
</g>
<!-- node63&#45;&gt;node147 -->
<g id="edge114" class="edge"><title>node63&#45;&gt;node147</title>
<path fill="none" stroke="black" d="M2147.15,-515.136C2258.83,-494.669 2579.04,-433.184 2608,-396 2617.83,-383.377 2618.85,-371.76 2608,-360 2586.41,-336.602 2114.08,-313.797 1976.36,-307.626"/>
<polygon fill="black" stroke="black" points="1976.44,-304.126 1966.3,-307.178 1976.13,-311.119 1976.44,-304.126"/>
</g>
<!-- node63&#45;&gt;node53 -->
<g id="edge118" class="edge"><title>node63&#45;&gt;node53</title>
<path fill="none" stroke="black" d="M2070.76,-510.432C2026.91,-497.165 1955.34,-475.515 1910.83,-462.049"/>
<polygon fill="black" stroke="black" points="1911.8,-458.687 1901.22,-459.141 1909.77,-465.387 1911.8,-458.687"/>
</g>
<!-- node156 -->
<g id="node85" class="node"><title>node156</title>
<polygon fill="none" stroke="black" points="2218,-468 2124,-468 2124,-432 2218,-432 2218,-468"/>
<text text-anchor="middle" x="2171" y="-446.7" font-family="Times Roman,serif" font-size="12.00">securesocket</text>
</g>
<!-- node63&#45;&gt;node156 -->
<g id="edge120" class="edge"><title>node63&#45;&gt;node156</title>
<path fill="none" stroke="black" d="M2124.65,-503.831C2131.86,-495.454 2140.56,-485.353 2148.46,-476.175"/>
<polygon fill="black" stroke="black" points="2151.27,-478.275 2155.14,-468.413 2145.97,-473.707 2151.27,-478.275"/>
</g>
<!-- node156&#45;&gt;node151 -->
<g id="edge122" class="edge"><title>node156&#45;&gt;node151</title>
<path fill="none" stroke="black" d="M2218.33,-447.873C2316.7,-442.856 2539.72,-428.199 2608,-396 2660.6,-371.192 2703,-364.161 2703,-306 2703,-306 2703,-306 2703,-234 2703,-143.724 1998.25,-100.958 1826.43,-91.8733"/>
<polygon fill="black" stroke="black" points="1826.52,-88.3733 1816.35,-91.3468 1826.16,-95.3637 1826.52,-88.3733"/>
</g>
<!-- node191 -->
<g id="node88" class="node"><title>node191</title>
<ellipse fill="none" stroke="black" cx="2462" cy="-378" rx="137.138" ry="18"/>
<text text-anchor="middle" x="2462" y="-374.7" font-family="Times Roman,serif" font-size="12.00">/usr/lib/x86_64&#45;linux&#45;gnu/libssl.so</text>
</g>
<!-- node156&#45;&gt;node191 -->
<g id="edge124" class="edge"><title>node156&#45;&gt;node191</title>
<path fill="none" stroke="black" d="M2218.08,-438.352C2263.96,-426.999 2334.43,-409.564 2387.85,-396.347"/>
<polygon fill="black" stroke="black" points="2388.75,-399.73 2397.61,-393.931 2387.07,-392.935 2388.75,-399.73"/>
</g>
<!-- node192 -->
<g id="node90" class="node"><title>node192</title>
<ellipse fill="none" stroke="black" cx="2156" cy="-378" rx="150.937" ry="18"/>
<text text-anchor="middle" x="2156" y="-374.7" font-family="Times Roman,serif" font-size="12.00">/usr/lib/x86_64&#45;linux&#45;gnu/libcrypto.so</text>
</g>
<!-- node156&#45;&gt;node192 -->
<g id="edge126" class="edge"><title>node156&#45;&gt;node192</title>
<path fill="none" stroke="black" d="M2167.21,-431.831C2165.61,-424.131 2163.7,-414.974 2161.92,-406.417"/>
<polygon fill="black" stroke="black" points="2165.3,-405.489 2159.84,-396.413 2158.45,-406.917 2165.3,-405.489"/>
</g>
<!-- node171&#45;&gt;node151 -->
<g id="edge158" class="edge"><title>node171&#45;&gt;node151</title>
<path fill="none" stroke="black" d="M1428.39,-647.735C1438.04,-629.31 1453.77,-600.205 1469,-576 1489.89,-542.811 1493.54,-532.94 1520,-504 1586.59,-431.175 1611.63,-421.253 1689,-360 1710.19,-343.226 1722.94,-346.439 1738,-324 1781.21,-259.62 1788.53,-164.873 1789.32,-118.158"/>
<polygon fill="black" stroke="black" points="1792.82,-118.18 1789.4,-108.152 1785.82,-118.124 1792.82,-118.18"/>
</g>
<!-- node171&#45;&gt;node59 -->
<g id="edge168" class="edge"><title>node171&#45;&gt;node59</title>
<path fill="none" stroke="black" d="M1364.92,-662.699C1152.37,-648.442 379.445,-584.128 247,-396 213.894,-348.975 271.903,-290.798 312.205,-258.514"/>
<polygon fill="black" stroke="black" points="314.528,-261.141 320.247,-252.223 310.215,-255.628 314.528,-261.141"/>
</g>
<!-- node171&#45;&gt;node66 -->
<g id="edge170" class="edge"><title>node171&#45;&gt;node66</title>
<path fill="none" stroke="black" d="M1405.24,-647.785C1380.66,-614.219 1329.5,-539.481 1305,-468 1289.29,-422.157 1325.14,-393.37 1290,-360 1256.36,-328.052 919.874,-330.931 874,-324 860.291,-321.929 845.455,-318.951 832.169,-316.011"/>
<polygon fill="black" stroke="black" points="832.882,-312.584 822.356,-313.787 831.335,-319.411 832.882,-312.584"/>
</g>
<!-- node171&#45;&gt;node55 -->
<g id="edge172" class="edge"><title>node171&#45;&gt;node55</title>
<path fill="none" stroke="black" d="M1364.91,-652.963C1319.74,-642.061 1253.66,-626.078 1196,-612 935.88,-548.491 868.007,-543.123 611,-468 563.244,-454.041 552.742,-446.007 505,-432 441.285,-413.307 424,-413.694 360,-396 358.581,-395.608 357.144,-395.205 355.695,-394.796"/>
<polygon fill="black" stroke="black" points="356.605,-391.416 346.027,-392.004 354.663,-398.141 356.605,-391.416"/>
</g>
<!-- node171&#45;&gt;node54 -->
<g id="edge174" class="edge"><title>node171&#45;&gt;node54</title>
<path fill="none" stroke="black" d="M1364.99,-652.483C1333.11,-643.368 1292.56,-629.758 1259,-612 1185.75,-573.236 1110.99,-510.145 1072.17,-475.237"/>
<polygon fill="black" stroke="black" points="1074.21,-472.358 1064.45,-468.234 1069.51,-477.544 1074.21,-472.358"/>
</g>
<!-- node171&#45;&gt;node146 -->
<g id="edge162" class="edge"><title>node171&#45;&gt;node146</title>
<path fill="none" stroke="black" d="M1412.92,-647.962C1403.56,-616.919 1388.88,-552.096 1411,-504 1416.14,-492.832 1485.29,-439.538 1495,-432 1508.23,-421.734 1523.21,-411.028 1536.42,-401.882"/>
<polygon fill="black" stroke="black" points="1538.55,-404.665 1544.81,-396.117 1534.59,-398.896 1538.55,-404.665"/>
</g>
<!-- node171&#45;&gt;node147 -->
<g id="edge160" class="edge"><title>node171&#45;&gt;node147</title>
<path fill="none" stroke="black" d="M1473.2,-660.199C1555.71,-650.9 1708.65,-631.694 1760,-612 1814.9,-590.942 1827.18,-579.208 1871,-540 1901.83,-512.415 1915,-506.557 1930,-468 1947.16,-423.895 1945.67,-367.906 1942.62,-334.628"/>
<polygon fill="black" stroke="black" points="1946.06,-333.851 1941.55,-324.263 1939.1,-334.57 1946.06,-333.851"/>
</g>
<!-- node171&#45;&gt;node53 -->
<g id="edge164" class="edge"><title>node171&#45;&gt;node53</title>
<path fill="none" stroke="black" d="M1456.76,-647.955C1541.43,-607.495 1745.74,-509.859 1831.77,-468.746"/>
<polygon fill="black" stroke="black" points="1833.42,-471.837 1840.94,-464.367 1830.4,-465.521 1833.42,-471.837"/>
</g>
<!-- node171&#45;&gt;node64 -->
<g id="edge176" class="edge"><title>node171&#45;&gt;node64</title>
<path fill="none" stroke="black" d="M1437.24,-647.762C1462.66,-622.335 1508.87,-576.125 1537.64,-547.357"/>
<polygon fill="black" stroke="black" points="1540.31,-549.636 1544.91,-540.09 1535.36,-544.686 1540.31,-549.636"/>
</g>
<!-- node171&#45;&gt;node63 -->
<g id="edge166" class="edge"><title>node171&#45;&gt;node63</title>
<path fill="none" stroke="black" d="M1473.08,-663.688C1558.34,-659.113 1728.72,-646.195 1869,-612 1937.76,-595.239 2013.72,-564.567 2061.39,-543.738"/>
<polygon fill="black" stroke="black" points="2063.09,-546.815 2070.83,-539.581 2060.26,-540.408 2063.09,-546.815"/>
</g>
<!-- node171&#45;&gt;node164 -->
<g id="edge130" class="edge"><title>node171&#45;&gt;node164</title>
<path fill="none" stroke="black" d="M1473.13,-652.878C1529.87,-639.122 1618.01,-617.756 1671.05,-604.898"/>
<polygon fill="black" stroke="black" points="1671.95,-608.279 1680.85,-602.522 1670.3,-601.477 1671.95,-608.279"/>
</g>
<!-- node164&#45;&gt;node151 -->
<g id="edge132" class="edge"><title>node164&#45;&gt;node151</title>
<path fill="none" stroke="black" d="M1724.11,-575.97C1746.05,-525.886 1805.78,-380.3 1819,-252 1821.21,-230.513 1818.32,-149.103 1817,-144 1814.62,-134.789 1810.44,-125.373 1806.04,-117.037"/>
<polygon fill="black" stroke="black" points="1808.99,-115.155 1801.04,-108.153 1802.89,-118.585 1808.99,-115.155"/>
</g>
<!-- node164&#45;&gt;node59 -->
<g id="edge138" class="edge"><title>node164&#45;&gt;node59</title>
<path fill="none" stroke="black" d="M1680.81,-589.966C1608.56,-581.577 1438.33,-561.254 1296,-540 1201.69,-525.917 532.831,-443.234 450,-396 398.516,-366.641 368.456,-300.225 354.842,-262.177"/>
<polygon fill="black" stroke="black" points="357.992,-260.573 351.435,-252.252 351.372,-262.847 357.992,-260.573"/>
</g>
<!-- node164&#45;&gt;node52 -->
<g id="edge154" class="edge"><title>node164&#45;&gt;node52</title>
<path fill="none" stroke="black" d="M1751.09,-592.586C1874.19,-587.444 2286.66,-568.621 2438.76,-539.88"/>
<polygon fill="black" stroke="black" points="2439.7,-543.262 2448.82,-537.883 2438.33,-536.396 2439.7,-543.262"/>
</g>
<!-- node164&#45;&gt;node66 -->
<g id="edge140" class="edge"><title>node164&#45;&gt;node66</title>
<path fill="none" stroke="black" d="M1694.24,-575.733C1667.4,-553.285 1623.21,-516.62 1606,-504 1511.76,-434.902 1496.75,-397.302 1386,-360 1169.82,-287.186 1099.83,-356.257 874,-324 860.275,-322.039 845.434,-319.091 832.15,-316.144"/>
<polygon fill="black" stroke="black" points="832.866,-312.718 822.338,-313.908 831.31,-319.543 832.866,-312.718"/>
</g>
<!-- node164&#45;&gt;node55 -->
<g id="edge142" class="edge"><title>node164&#45;&gt;node55</title>
<path fill="none" stroke="black" d="M1680.82,-589.881C1608.6,-581.336 1438.41,-560.742 1296,-540 936.66,-487.662 506.203,-413.748 355.949,-387.611"/>
<polygon fill="black" stroke="black" points="356.492,-384.153 346.04,-385.886 355.291,-391.049 356.492,-384.153"/>
</g>
<!-- node164&#45;&gt;node54 -->
<g id="edge144" class="edge"><title>node164&#45;&gt;node54</title>
<path fill="none" stroke="black" d="M1680.87,-586.461C1567.56,-562.145 1211.97,-485.832 1088.08,-459.245"/>
<polygon fill="black" stroke="black" points="1088.7,-455.799 1078.19,-457.123 1087.23,-462.643 1088.7,-455.799"/>
</g>
<!-- node164&#45;&gt;node146 -->
<g id="edge148" class="edge"><title>node164&#45;&gt;node146</title>
<path fill="none" stroke="black" d="M1703.97,-575.955C1678.61,-537.917 1619.56,-449.343 1589.81,-404.713"/>
<polygon fill="black" stroke="black" points="1592.56,-402.524 1584.1,-396.145 1586.73,-406.407 1592.56,-402.524"/>
</g>
<!-- node164&#45;&gt;node147 -->
<g id="edge146" class="edge"><title>node164&#45;&gt;node147</title>
<path fill="none" stroke="black" d="M1751.03,-581.801C1795.92,-564.198 1872.4,-527.137 1910,-468 1936,-427.107 1915.57,-407.534 1925,-360 1926.67,-351.584 1928.86,-342.525 1931.01,-334.277"/>
<polygon fill="black" stroke="black" points="1934.46,-334.938 1933.67,-324.373 1927.7,-333.122 1934.46,-334.938"/>
</g>
<!-- node164&#45;&gt;node53 -->
<g id="edge150" class="edge"><title>node164&#45;&gt;node53</title>
<path fill="none" stroke="black" d="M1731.52,-575.957C1748,-557.197 1775.18,-527.361 1801,-504 1812.36,-493.724 1825.49,-483.255 1837.3,-474.304"/>
<polygon fill="black" stroke="black" points="1839.71,-476.874 1845.62,-468.08 1835.51,-471.27 1839.71,-476.874"/>
</g>
<!-- node164&#45;&gt;node64 -->
<g id="edge152" class="edge"><title>node164&#45;&gt;node64</title>
<path fill="none" stroke="black" d="M1680.9,-577.482C1658.7,-567.036 1629.85,-553.459 1606.24,-542.35"/>
<polygon fill="black" stroke="black" points="1607.69,-539.161 1597.15,-538.07 1604.71,-545.495 1607.69,-539.161"/>
</g>
<!-- node164&#45;&gt;node63 -->
<g id="edge156" class="edge"><title>node164&#45;&gt;node63</title>
<path fill="none" stroke="black" d="M1751.22,-587.547C1821.72,-574.631 1980.28,-545.582 2060.52,-530.882"/>
<polygon fill="black" stroke="black" points="2061.64,-534.236 2070.84,-528.991 2060.37,-527.35 2061.64,-534.236"/>
</g>
<!-- node164&#45;&gt;node150 -->
<g id="edge134" class="edge"><title>node164&#45;&gt;node150</title>
<path fill="none" stroke="black" d="M1751.06,-590.331C1868.29,-578.063 2245.93,-538.542 2366.57,-525.917"/>
<polygon fill="black" stroke="black" points="2367.2,-529.37 2376.78,-524.848 2366.47,-522.408 2367.2,-529.37"/>
</g>
<!-- node150&#45;&gt;node151 -->
<g id="edge136" class="edge"><title>node150&#45;&gt;node151</title>
<path fill="none" stroke="black" d="M2431.2,-507.503C2434.13,-506.214 2437.1,-505.016 2440,-504 2591.71,-450.887 2779,-538.737 2779,-378 2779,-378 2779,-378 2779,-234 2779,-204.609 2861.93,-213.336 2624,-144 2471.25,-99.4869 1968.58,-91.6137 1826.63,-90.2682"/>
<polygon fill="black" stroke="black" points="1826.31,-86.7653 1816.28,-90.1758 1826.25,-93.7651 1826.31,-86.7653"/>
</g>
<!-- node166&#45;&gt;node151 -->
<g id="edge184" class="edge"><title>node166&#45;&gt;node151</title>
<path fill="none" stroke="black" d="M1488.7,-735.612C1235.67,-723.273 114,-664.595 114,-594 114,-594 114,-594 114,-522 114,-420.231 38,-407.769 38,-306 38,-306 38,-306 38,-234 38,-93.9443 201.811,-166.789 340,-144 623.528,-97.2427 1553.75,-90.9351 1751.73,-90.1176"/>
<polygon fill="black" stroke="black" points="1751.92,-93.617 1761.91,-90.0778 1751.9,-86.617 1751.92,-93.617"/>
</g>
<!-- node166&#45;&gt;node59 -->
<g id="edge196" class="edge"><title>node166&#45;&gt;node59</title>
<path fill="none" stroke="black" d="M1488.86,-733.313C1403.32,-725.066 1223.81,-706.668 1073,-684 776.531,-639.438 681.79,-674.791 414,-540 322.178,-493.782 277.656,-488.591 233,-396 221.639,-372.444 243.087,-292.019 246,-288 260.861,-267.496 285.955,-253.978 307.287,-245.596"/>
<polygon fill="black" stroke="black" points="308.601,-248.842 316.773,-242.099 306.18,-242.274 308.601,-248.842"/>
</g>
<!-- node166&#45;&gt;node52 -->
<g id="edge186" class="edge"><title>node166&#45;&gt;node52</title>
<path fill="none" stroke="black" d="M1589.14,-735.062C1707.76,-727.806 2002.91,-707.879 2099,-684 2231.63,-651.042 2378.03,-580.995 2448.87,-544.764"/>
<polygon fill="black" stroke="black" points="2450.65,-547.782 2457.94,-540.095 2447.45,-541.557 2450.65,-547.782"/>
</g>
<!-- node166&#45;&gt;node66 -->
<g id="edge198" class="edge"><title>node166&#45;&gt;node66</title>
<path fill="none" stroke="black" d="M1488.65,-728.634C1441.29,-718.877 1374.9,-702.458 1356,-684 1328.95,-657.583 1281.46,-383.703 1252,-360 1186.26,-307.102 957.378,-336.965 874,-324 860.3,-321.87 845.466,-318.876 832.18,-315.94"/>
<polygon fill="black" stroke="black" points="832.891,-312.513 822.366,-313.722 831.348,-319.341 832.891,-312.513"/>
</g>
<!-- node166&#45;&gt;node55 -->
<g id="edge200" class="edge"><title>node166&#45;&gt;node55</title>
<path fill="none" stroke="black" d="M1488.97,-730.713C1428.8,-721.567 1324.91,-704.559 1237,-684 906.711,-606.753 813.363,-609.316 505,-468 477.761,-455.517 474.879,-445.24 448,-432 418.437,-417.438 383.915,-404.56 355.756,-395.036"/>
<polygon fill="black" stroke="black" points="356.674,-391.653 346.081,-391.81 354.46,-398.293 356.674,-391.653"/>
</g>
<!-- node166&#45;&gt;node54 -->
<g id="edge202" class="edge"><title>node166&#45;&gt;node54</title>
<path fill="none" stroke="black" d="M1488.68,-728.84C1444.26,-719.953 1378.17,-704.765 1323,-684 1257.52,-659.352 1240.84,-651.379 1183,-612 1142.91,-584.704 1132.37,-576.987 1101,-540 1084.5,-520.55 1069.46,-495.783 1059.12,-477.156"/>
<polygon fill="black" stroke="black" points="1062.16,-475.409 1054.31,-468.296 1056.01,-478.753 1062.16,-475.409"/>
</g>
<!-- node166&#45;&gt;node146 -->
<g id="edge190" class="edge"><title>node166&#45;&gt;node146</title>
<path fill="none" stroke="black" d="M1534.17,-719.899C1524.36,-680.339 1504.27,-583.362 1520,-504 1527.07,-468.343 1544.38,-430.111 1557.09,-405.233"/>
<polygon fill="black" stroke="black" points="1560.35,-406.553 1561.88,-396.069 1554.15,-403.313 1560.35,-406.553"/>
</g>
<!-- node166&#45;&gt;node147 -->
<g id="edge188" class="edge"><title>node166&#45;&gt;node147</title>
<path fill="none" stroke="black" d="M1589.33,-724.651C1621.52,-715.238 1663.71,-701.251 1699,-684 1799.03,-635.106 1829.09,-622.379 1904,-540 1949.98,-489.429 1953.29,-464.189 1958,-396 1959.1,-380.038 1960.69,-375.772 1958,-360 1956.5,-351.224 1953.72,-341.979 1950.75,-333.666"/>
<polygon fill="black" stroke="black" points="1953.93,-332.178 1947.09,-324.083 1947.39,-334.674 1953.93,-332.178"/>
</g>
<!-- node166&#45;&gt;node53 -->
<g id="edge192" class="edge"><title>node166&#45;&gt;node53</title>
<path fill="none" stroke="black" d="M1583.47,-719.886C1631,-698.973 1706.71,-661.06 1760,-612 1803.56,-571.895 1839.1,-511.647 1857.46,-477.044"/>
<polygon fill="black" stroke="black" points="1860.65,-478.487 1862.17,-468.002 1854.45,-475.251 1860.65,-478.487"/>
</g>
<!-- node166&#45;&gt;node64 -->
<g id="edge204" class="edge"><title>node166&#45;&gt;node64</title>
<path fill="none" stroke="black" d="M1541,-719.955C1545.19,-682.314 1554.87,-595.187 1559.88,-550.125"/>
<polygon fill="black" stroke="black" points="1563.36,-550.47 1560.98,-540.145 1556.4,-549.697 1563.36,-550.47"/>
</g>
<!-- node166&#45;&gt;node63 -->
<g id="edge194" class="edge"><title>node166&#45;&gt;node63</title>
<path fill="none" stroke="black" d="M1589.15,-732.856C1670.51,-724.041 1827.36,-704.961 1879,-684 1960.88,-650.764 2041.91,-583.583 2082.39,-547.043"/>
<polygon fill="black" stroke="black" points="2084.91,-549.488 2089.94,-540.163 2080.19,-544.316 2084.91,-549.488"/>
</g>
<!-- node166&#45;&gt;node171 -->
<g id="edge206" class="edge"><title>node166&#45;&gt;node171</title>
<path fill="none" stroke="black" d="M1508.72,-719.831C1493.37,-710.622 1474.55,-699.33 1458.12,-689.471"/>
<polygon fill="black" stroke="black" points="1459.65,-686.307 1449.27,-684.163 1456.05,-692.309 1459.65,-686.307"/>
</g>
<!-- node166&#45;&gt;node164 -->
<g id="edge210" class="edge"><title>node166&#45;&gt;node164</title>
<path fill="none" stroke="black" d="M1547.88,-719.643C1558.27,-699.782 1577.12,-668.247 1601,-648 1621.53,-630.588 1648.63,-617.504 1671.37,-608.579"/>
<polygon fill="black" stroke="black" points="1672.69,-611.819 1680.81,-605.008 1670.22,-605.271 1672.69,-611.819"/>
</g>
<!-- node166&#45;&gt;node150 -->
<g id="edge208" class="edge"><title>node166&#45;&gt;node150</title>
<path fill="none" stroke="black" d="M1589.11,-736.571C1703.22,-732.721 1979.07,-719.884 2064,-684 2086.96,-674.299 2085.74,-661.009 2107,-648 2194.66,-594.36 2309.23,-552.884 2367.11,-533.691"/>
<polygon fill="black" stroke="black" points="2368.49,-536.92 2376.9,-530.477 2366.31,-530.269 2368.49,-536.92"/>
</g>
<!-- node169&#45;&gt;node151 -->
<g id="edge214" class="edge"><title>node169&#45;&gt;node151</title>
<path fill="none" stroke="black" d="M2041.65,-647.885C2073.81,-628.66 2126.98,-598.07 2175,-576 2258.19,-537.77 2279.35,-526.887 2368,-504 2472.86,-476.926 2505.69,-500.479 2609,-468 2677.64,-446.422 2694.39,-436.293 2754,-396 2803.81,-362.33 2855,-366.125 2855,-306 2855,-306 2855,-306 2855,-234 2855,-152.411 2773.28,-167.015 2695,-144 2610.77,-119.234 1986.47,-96.6606 1826.34,-91.2341"/>
<polygon fill="black" stroke="black" points="1826.16,-87.7262 1816.05,-90.8874 1825.93,-94.7223 1826.16,-87.7262"/>
</g>
<!-- node169&#45;&gt;node153 -->
<g id="edge222" class="edge"><title>node169&#45;&gt;node153</title>
<path fill="none" stroke="black" d="M1982.34,-647.96C1882.24,-587.425 1556.65,-393.458 1440,-360 1325.89,-327.269 1016.01,-371.009 907,-324 871.463,-308.675 794.501,-229.338 755.57,-187.654"/>
<polygon fill="black" stroke="black" points="757.911,-185.031 748.538,-180.091 752.784,-189.798 757.911,-185.031"/>
</g>
<!-- node169&#45;&gt;node52 -->
<g id="edge218" class="edge"><title>node169&#45;&gt;node52</title>
<path fill="none" stroke="black" d="M2055.21,-651.474C2110.85,-632.977 2210.64,-600.484 2297,-576 2357.1,-558.962 2375.49,-558.72 2439.22,-540.103"/>
<polygon fill="black" stroke="black" points="2440.37,-543.414 2448.96,-537.219 2438.38,-536.702 2440.37,-543.414"/>
</g>
<!-- node169&#45;&gt;node66 -->
<g id="edge224" class="edge"><title>node169&#45;&gt;node66</title>
<path fill="none" stroke="black" d="M1968.99,-663.074C1903.6,-657.76 1775.82,-643.964 1672,-612 1528.35,-567.772 1473.54,-573.01 1366,-468 1327.6,-430.507 1356.46,-390.061 1312,-360 1231.1,-305.294 970.597,-338.38 874,-324 860.287,-321.958 845.449,-318.988 832.164,-316.047"/>
<polygon fill="black" stroke="black" points="832.878,-312.62 822.351,-313.819 831.328,-319.446 832.878,-312.62"/>
</g>
<!-- node169&#45;&gt;node146 -->
<g id="edge216" class="edge"><title>node169&#45;&gt;node146</title>
<path fill="none" stroke="black" d="M2004.53,-647.747C1990.1,-614.592 1955.28,-544.2 1905,-504 1880.81,-484.66 1690.38,-418.37 1608.84,-390.501"/>
<polygon fill="black" stroke="black" points="1609.6,-387.059 1599,-387.142 1607.33,-393.684 1609.6,-387.059"/>
</g>
<!-- node169&#45;&gt;node63 -->
<g id="edge220" class="edge"><title>node169&#45;&gt;node63</title>
<path fill="none" stroke="black" d="M2029.54,-647.799C2038.85,-637.681 2050.15,-624.617 2059,-612 2073.07,-591.937 2086.41,-567.55 2095.77,-549.225"/>
<polygon fill="black" stroke="black" points="2098.92,-550.756 2100.28,-540.25 2092.66,-547.612 2098.92,-550.756"/>
</g>
<!-- node169&#45;&gt;node164 -->
<g id="edge226" class="edge"><title>node169&#45;&gt;node164</title>
<path fill="none" stroke="black" d="M1968.96,-655.531C1913.56,-642.056 1817.74,-618.748 1761.28,-605.014"/>
<polygon fill="black" stroke="black" points="1761.76,-601.528 1751.21,-602.566 1760.1,-608.33 1761.76,-601.528"/>
</g>
<!-- node163&#45;&gt;node151 -->
<g id="edge230" class="edge"><title>node163&#45;&gt;node151</title>
<path fill="none" stroke="black" d="M1709.15,-809.663C1955.8,-807.454 2931,-790.827 2931,-666 2931,-666 2931,-666 2931,-234 2931,-190.752 2929.33,-168.945 2894,-144 2849.46,-112.553 2014.41,-94.4049 1826.39,-90.7072"/>
<polygon fill="black" stroke="black" points="1826.24,-87.2039 1816.18,-90.5082 1826.11,-94.2026 1826.24,-87.2039"/>
</g>
<!-- node163&#45;&gt;node59 -->
<g id="edge244" class="edge"><title>node163&#45;&gt;node59</title>
<path fill="none" stroke="black" d="M1596.94,-808.1C1443.72,-802.584 1020.29,-785.085 884,-756 580.932,-691.323 422.667,-724.658 249,-468 203.968,-401.448 185.791,-353.74 232,-288 249.455,-263.167 281.426,-249.395 307.078,-241.986"/>
<polygon fill="black" stroke="black" points="308.152,-245.322 316.91,-239.361 306.346,-238.559 308.152,-245.322"/>
</g>
<!-- node163&#45;&gt;node52 -->
<g id="edge234" class="edge"><title>node163&#45;&gt;node52</title>
<path fill="none" stroke="black" d="M1709.16,-808.42C1863.68,-803.682 2287.22,-787.9 2341,-756 2420.75,-708.692 2465.76,-600.934 2483.32,-549.852"/>
<polygon fill="black" stroke="black" points="2486.71,-550.734 2486.56,-540.14 2480.07,-548.518 2486.71,-550.734"/>
</g>
<!-- node163&#45;&gt;node66 -->
<g id="edge246" class="edge"><title>node163&#45;&gt;node66</title>
<path fill="none" stroke="black" d="M1596.72,-804.671C1526.43,-797.062 1411.23,-781.156 1377,-756 1220.62,-641.07 1349.68,-474.522 1193,-360 1135.41,-317.903 944.394,-335.575 874,-324 860.319,-321.75 845.49,-318.725 832.203,-315.797"/>
<polygon fill="black" stroke="black" points="832.911,-312.369 822.387,-313.592 831.376,-319.199 832.911,-312.369"/>
</g>
<!-- node163&#45;&gt;node55 -->
<g id="edge248" class="edge"><title>node163&#45;&gt;node55</title>
<path fill="none" stroke="black" d="M1596.93,-807.857C1459.97,-802.225 1111.43,-785.378 999,-756 850.065,-717.084 820.211,-683.711 684,-612 552.026,-542.52 403.294,-446.125 336.64,-401.905"/>
<polygon fill="black" stroke="black" points="338.432,-398.893 328.167,-396.271 334.557,-404.722 338.432,-398.893"/>
</g>
<!-- node163&#45;&gt;node54 -->
<g id="edge250" class="edge"><title>node163&#45;&gt;node54</title>
<path fill="none" stroke="black" d="M1596.91,-809.005C1445.4,-804.985 1033.98,-784.814 955,-684 903.998,-618.895 978.285,-521.527 1019.97,-475.653"/>
<polygon fill="black" stroke="black" points="1022.63,-477.941 1026.85,-468.225 1017.49,-473.185 1022.63,-477.941"/>
</g>
<!-- node163&#45;&gt;node146 -->
<g id="edge238" class="edge"><title>node163&#45;&gt;node146</title>
<path fill="none" stroke="black" d="M1596.98,-802.286C1553.5,-794.733 1492.63,-780.66 1444,-756 1398.93,-733.146 1377.64,-729.666 1356,-684 1305.01,-576.392 1354.84,-507.411 1447,-432 1472.96,-410.76 1508.53,-396.477 1535.1,-387.964"/>
<polygon fill="black" stroke="black" points="1536.27,-391.265 1544.8,-384.981 1534.21,-384.574 1536.27,-391.265"/>
</g>
<!-- node163&#45;&gt;node147 -->
<g id="edge236" class="edge"><title>node163&#45;&gt;node147</title>
<path fill="none" stroke="black" d="M1709.19,-806.183C1809.81,-798.817 2016.51,-781.122 2084,-756 2242.15,-697.136 2226.33,-595.678 2368,-504 2472.02,-436.689 2557.85,-500.123 2625,-396 2633.67,-382.554 2635.86,-371.749 2625,-360 2602.8,-335.98 2116.36,-313.531 1976.37,-307.549"/>
<polygon fill="black" stroke="black" points="1976.29,-304.043 1966.15,-307.116 1976,-311.037 1976.29,-304.043"/>
</g>
<!-- node163&#45;&gt;node53 -->
<g id="edge240" class="edge"><title>node163&#45;&gt;node53</title>
<path fill="none" stroke="black" d="M1709.23,-801.114C1811.51,-783.68 2021.4,-741.61 2064,-684 2119.3,-609.203 2050.67,-614.902 1936,-504 1925.58,-493.922 1913.52,-483.579 1902.64,-474.676"/>
<polygon fill="black" stroke="black" points="1904.57,-471.739 1894.59,-468.178 1900.17,-477.184 1904.57,-471.739"/>
</g>
<!-- node163&#45;&gt;node64 -->
<g id="edge252" class="edge"><title>node163&#45;&gt;node64</title>
<path fill="none" stroke="black" d="M1647.37,-791.984C1632.12,-743.193 1589.95,-608.238 1571.65,-549.693"/>
<polygon fill="black" stroke="black" points="1574.95,-548.51 1568.63,-540.009 1568.27,-550.598 1574.95,-548.51"/>
</g>
<!-- node163&#45;&gt;node63 -->
<g id="edge242" class="edge"><title>node163&#45;&gt;node63</title>
<path fill="none" stroke="black" d="M1709.45,-804.949C1831.95,-792.697 2115.8,-756.896 2173,-684 2205.66,-642.373 2163.78,-581.97 2133.99,-547.903"/>
<polygon fill="black" stroke="black" points="2136.39,-545.34 2127.11,-540.241 2131.19,-550.019 2136.39,-545.34"/>
</g>
<!-- node163&#45;&gt;node171 -->
<g id="edge254" class="edge"><title>node163&#45;&gt;node171</title>
<path fill="none" stroke="black" d="M1596.84,-802.267C1560.69,-795.06 1514.23,-781.421 1480,-756 1458.15,-739.774 1441.57,-713.28 1431.25,-693.23"/>
<polygon fill="black" stroke="black" points="1434.38,-691.673 1426.82,-684.255 1428.1,-694.771 1434.38,-691.673"/>
</g>
<!-- node163&#45;&gt;node164 -->
<g id="edge258" class="edge"><title>node163&#45;&gt;node164</title>
<path fill="none" stroke="black" d="M1658.26,-791.955C1669.26,-754.235 1694.76,-666.819 1707.88,-621.84"/>
<polygon fill="black" stroke="black" points="1711.27,-622.725 1710.71,-612.145 1704.55,-620.765 1711.27,-622.725"/>
</g>
<!-- node163&#45;&gt;node150 -->
<g id="edge256" class="edge"><title>node163&#45;&gt;node150</title>
<path fill="none" stroke="black" d="M1709.21,-808.743C1859.62,-804.913 2263.15,-791.417 2311,-756 2377.94,-706.449 2396.76,-601.047 2402,-550.37"/>
<polygon fill="black" stroke="black" points="2405.51,-550.423 2402.95,-540.142 2398.54,-549.776 2405.51,-550.423"/>
</g>
<!-- node163&#45;&gt;node166 -->
<g id="edge260" class="edge"><title>node163&#45;&gt;node166</title>
<path fill="none" stroke="black" d="M1624.23,-791.831C1609.79,-782.707 1592.1,-771.539 1576.6,-761.745"/>
<polygon fill="black" stroke="black" points="1578.08,-758.544 1567.76,-756.163 1574.34,-764.462 1578.08,-758.544"/>
</g>
<!-- node163&#45;&gt;node169 -->
<g id="edge232" class="edge"><title>node163&#45;&gt;node169</title>
<path fill="none" stroke="black" d="M1689.73,-791.925C1729.12,-772.871 1793.73,-742.55 1851,-720 1870.98,-712.133 1920.34,-695.737 1959.19,-683.064"/>
<polygon fill="black" stroke="black" points="1960.39,-686.355 1968.81,-679.93 1958.22,-679.699 1960.39,-686.355"/>
</g>
</g>
</svg>
