<?xml version="1.0" encoding="UTF-8" standalone="no"?>
<!DOCTYPE svg PUBLIC "-//W3C//DTD SVG 1.1//EN"
 "http://www.w3.org/Graphics/SVG/1.1/DTD/svg11.dtd">
<!-- Generated by graphviz version 2.26.3 (20100126.1600)
 -->
<!-- Title: GG Pages: 1 -->
<svg width="932pt" height="404pt"
 viewBox="0.00 0.00 932.32 404.00" xmlns="http://www.w3.org/2000/svg" xmlns:xlink="http://www.w3.org/1999/xlink">
<g id="graph1" class="graph" transform="scale(1 1) rotate(0) translate(4 400)">
<title>GG</title>
<polygon fill="white" stroke="white" points="-4,5 -4,-400 929.321,-400 929.321,5 -4,5"/>
<!-- node99 -->
<g id="node1" class="node"><title>node99</title>
<polygon fill="none" stroke="black" points="601.321,-396 547.321,-396 547.321,-360 601.321,-360 601.321,-396"/>
<text text-anchor="middle" x="574.321" y="-374.7" font-family="Times Roman,serif" font-size="12.00">hql</text>
</g>
<!-- node151 -->
<g id="node2" class="node"><title>node151</title>
<polygon fill="none" stroke="black" points="447.321,-108 393.321,-108 393.321,-72 447.321,-72 447.321,-108"/>
<text text-anchor="middle" x="420.321" y="-86.7" font-family="Times Roman,serif" font-size="12.00">jlib</text>
</g>
<!-- node99&#45;&gt;node151 -->
<g id="edge2" class="edge"><title>node99&#45;&gt;node151</title>
<path fill="none" stroke="black" d="M547.245,-377.096C467.411,-373.284 228.421,-353.536 66.3207,-252 31.0195,-229.888 20.501,-219.167 6.3207,-180 0.873892,-164.956 -4.23604,-156.023 6.3207,-144 31.0399,-115.847 285.86,-97.9465 382.992,-92.1009"/>
<polygon fill="black" stroke="black" points="383.455,-95.5797 393.231,-91.4944 383.041,-88.592 383.455,-95.5797"/>
</g>
<!-- node147 -->
<g id="node12" class="node"><title>node147</title>
<polygon fill="none" stroke="black" points="924.321,-180 870.321,-180 870.321,-144 924.321,-144 924.321,-180"/>
<text text-anchor="middle" x="897.321" y="-158.7" font-family="Times Roman,serif" font-size="12.00">nbcd</text>
</g>
<!-- node99&#45;&gt;node147 -->
<g id="edge12" class="edge"><title>node99&#45;&gt;node147</title>
<path fill="none" stroke="black" d="M601.304,-359.955C659.491,-321.044 796.76,-229.248 861.868,-185.709"/>
<polygon fill="black" stroke="black" points="863.82,-188.613 870.187,-180.145 859.929,-182.795 863.82,-188.613"/>
</g>
<!-- node146 -->
<g id="node15" class="node"><title>node146</title>
<polygon fill="none" stroke="black" points="601.321,-252 547.321,-252 547.321,-216 601.321,-216 601.321,-252"/>
<text text-anchor="middle" x="574.321" y="-230.7" font-family="Times Roman,serif" font-size="12.00">eclrtl</text>
</g>
<!-- node99&#45;&gt;node146 -->
<g id="edge16" class="edge"><title>node99&#45;&gt;node146</title>
<path fill="none" stroke="black" d="M578.588,-359.622C580.783,-349.231 583.222,-335.963 584.321,-324 585.784,-308.067 585.784,-303.933 584.321,-288 583.548,-279.588 582.113,-270.532 580.566,-262.284"/>
<polygon fill="black" stroke="black" points="583.979,-261.499 578.588,-252.378 577.114,-262.87 583.979,-261.499"/>
</g>
<!-- node53 -->
<g id="node27" class="node"><title>node53</title>
<polygon fill="none" stroke="black" points="575.321,-324 515.321,-324 515.321,-288 575.321,-288 575.321,-324"/>
<text text-anchor="middle" x="545.321" y="-302.7" font-family="Times Roman,serif" font-size="12.00">deftype</text>
</g>
<!-- node99&#45;&gt;node53 -->
<g id="edge30" class="edge"><title>node99&#45;&gt;node53</title>
<path fill="none" stroke="black" d="M567.003,-359.831C563.833,-351.962 560.051,-342.571 556.539,-333.853"/>
<polygon fill="black" stroke="black" points="559.72,-332.381 552.737,-324.413 553.227,-334.997 559.72,-332.381"/>
</g>
<!-- node152 -->
<g id="node4" class="node"><title>node152</title>
<polygon fill="none" stroke="black" points="298.321,-36 258.377,-18 298.321,-3.55271e-15 338.264,-18 298.321,-36"/>
<text text-anchor="middle" x="298.321" y="-14.7" font-family="Times Roman,serif" font-size="12.00">lzma</text>
</g>
<!-- node151&#45;&gt;node152 -->
<g id="edge4" class="edge"><title>node151&#45;&gt;node152</title>
<path fill="none" stroke="black" d="M393.245,-74.0209C372.791,-61.9494 344.874,-45.4743 324.614,-33.5172"/>
<polygon fill="black" stroke="black" points="326.289,-30.4417 315.898,-28.3733 322.731,-36.4701 326.289,-30.4417"/>
</g>
<!-- node187 -->
<g id="node6" class="node"><title>node187</title>
<ellipse fill="none" stroke="black" cx="383.321" cy="-18" rx="27" ry="18"/>
<text text-anchor="middle" x="383.321" y="-14.7" font-family="Times Roman,serif" font-size="12.00">dl</text>
</g>
<!-- node151&#45;&gt;node187 -->
<g id="edge6" class="edge"><title>node151&#45;&gt;node187</title>
<path fill="none" stroke="black" d="M410.984,-71.8314C406.726,-63.5451 401.601,-53.5727 396.926,-44.4748"/>
<polygon fill="black" stroke="black" points="399.955,-42.7123 392.271,-35.4177 393.729,-45.9118 399.955,-42.7123"/>
</g>
<!-- node179 -->
<g id="node8" class="node"><title>node179</title>
<ellipse fill="none" stroke="black" cx="458.321" cy="-18" rx="30.0465" ry="18"/>
<text text-anchor="middle" x="458.321" y="-14.7" font-family="Times Roman,serif" font-size="12.00">crypt</text>
</g>
<!-- node151&#45;&gt;node179 -->
<g id="edge8" class="edge"><title>node151&#45;&gt;node179</title>
<path fill="none" stroke="black" d="M429.91,-71.8314C434.283,-63.5451 439.546,-53.5727 444.348,-44.4748"/>
<polygon fill="black" stroke="black" points="447.556,-45.8952 449.128,-35.4177 441.365,-42.6279 447.556,-45.8952"/>
</g>
<!-- node188 -->
<g id="node10" class="node"><title>node188</title>
<ellipse fill="none" stroke="black" cx="533.321" cy="-18" rx="27" ry="18"/>
<text text-anchor="middle" x="533.321" y="-14.7" font-family="Times Roman,serif" font-size="12.00">rt</text>
</g>
<!-- node151&#45;&gt;node188 -->
<g id="edge10" class="edge"><title>node151&#45;&gt;node188</title>
<path fill="none" stroke="black" d="M447.387,-72.7542C464.735,-61.7009 487.218,-47.375 504.836,-36.1494"/>
<polygon fill="black" stroke="black" points="507,-38.9209 513.553,-30.5955 503.238,-33.0174 507,-38.9209"/>
</g>
<!-- node147&#45;&gt;node151 -->
<g id="edge14" class="edge"><title>node147&#45;&gt;node151</title>
<path fill="none" stroke="black" d="M869.93,-148.678C865.459,-146.883 860.818,-145.237 856.321,-144 712.334,-104.39 533.562,-93.7816 457.435,-90.9829"/>
<polygon fill="black" stroke="black" points="457.503,-87.4832 447.388,-90.6376 457.262,-94.4791 457.503,-87.4832"/>
</g>
<!-- node146&#45;&gt;node151 -->
<g id="edge26" class="edge"><title>node146&#45;&gt;node151</title>
<path fill="none" stroke="black" d="M601.479,-229.052C664.582,-217.431 816.292,-188.716 823.321,-180 833.364,-167.545 833.856,-156.042 823.321,-144 799.379,-116.636 552.955,-98.3416 457.659,-92.2417"/>
<polygon fill="black" stroke="black" points="457.799,-88.7436 447.598,-91.6072 457.358,-95.7298 457.799,-88.7436"/>
</g>
<!-- node146&#45;&gt;node147 -->
<g id="edge28" class="edge"><title>node146&#45;&gt;node147</title>
<path fill="none" stroke="black" d="M601.495,-229.155C667.386,-217.357 832.045,-187.548 856.321,-180 857.759,-179.553 859.214,-179.07 860.676,-178.56"/>
<polygon fill="black" stroke="black" points="862.21,-181.721 870.3,-174.879 859.709,-175.183 862.21,-181.721"/>
</g>
<!-- node186 -->
<g id="node17" class="node"><title>node186</title>
<ellipse fill="none" stroke="black" cx="145.321" cy="-162" rx="118.939" ry="18"/>
<text text-anchor="middle" x="145.321" y="-158.7" font-family="Times Roman,serif" font-size="12.00">/usr/lib/libboost_regex&#45;mt.so</text>
</g>
<!-- node146&#45;&gt;node186 -->
<g id="edge18" class="edge"><title>node146&#45;&gt;node186</title>
<path fill="none" stroke="black" d="M547.159,-229.441C485.725,-219.131 333.797,-193.632 235.352,-177.11"/>
<polygon fill="black" stroke="black" points="235.845,-173.644 225.404,-175.441 234.687,-180.548 235.845,-173.644"/>
</g>
<!-- node183 -->
<g id="node19" class="node"><title>node183</title>
<ellipse fill="none" stroke="black" cx="360.321" cy="-162" rx="77.9931" ry="18"/>
<text text-anchor="middle" x="360.321" y="-158.7" font-family="Times Roman,serif" font-size="12.00">/usr/lib/libicuuc.so</text>
</g>
<!-- node146&#45;&gt;node183 -->
<g id="edge20" class="edge"><title>node146&#45;&gt;node183</title>
<path fill="none" stroke="black" d="M547.217,-224.881C513.932,-213.682 456.682,-194.421 414.293,-180.159"/>
<polygon fill="black" stroke="black" points="415.27,-176.795 404.676,-176.923 413.038,-183.429 415.27,-176.795"/>
</g>
<!-- node184 -->
<g id="node21" class="node"><title>node184</title>
<ellipse fill="none" stroke="black" cx="541.321" cy="-162" rx="85.1424" ry="18"/>
<text text-anchor="middle" x="541.321" y="-158.7" font-family="Times Roman,serif" font-size="12.00">/usr/lib/libicui18n.so</text>
</g>
<!-- node146&#45;&gt;node184 -->
<g id="edge22" class="edge"><title>node146&#45;&gt;node184</title>
<path fill="none" stroke="black" d="M565.993,-215.831C562.348,-207.877 557.99,-198.369 553.958,-189.572"/>
<polygon fill="black" stroke="black" points="557.108,-188.046 549.76,-180.413 550.745,-190.962 557.108,-188.046"/>
</g>
<!-- node185 -->
<g id="node23" class="node"><title>node185</title>
<ellipse fill="none" stroke="black" cx="729.321" cy="-162" rx="85.1424" ry="18"/>
<text text-anchor="middle" x="729.321" y="-158.7" font-family="Times Roman,serif" font-size="12.00">/usr/lib/libicudata.so</text>
</g>
<!-- node146&#45;&gt;node185 -->
<g id="edge24" class="edge"><title>node146&#45;&gt;node185</title>
<path fill="none" stroke="black" d="M601.675,-221.294C624.609,-210.64 657.81,-195.218 684.603,-182.772"/>
<polygon fill="black" stroke="black" points="686.191,-185.894 693.786,-178.507 683.242,-179.545 686.191,-185.894"/>
</g>
<!-- node53&#45;&gt;node151 -->
<g id="edge32" class="edge"><title>node53&#45;&gt;node151</title>
<path fill="none" stroke="black" d="M515.296,-303.584C412.919,-294.666 80.3865,-259.886 17.3207,-180 7.40662,-167.442 6.78502,-156.042 17.3207,-144 41.2623,-116.636 287.687,-98.3416 382.983,-92.2417"/>
<polygon fill="black" stroke="black" points="383.283,-95.7298 393.043,-91.6072 382.843,-88.7436 383.283,-95.7298"/>
</g>
<!-- node53&#45;&gt;node147 -->
<g id="edge34" class="edge"><title>node53&#45;&gt;node147</title>
<path fill="none" stroke="black" d="M575.332,-293.723C639.8,-267.349 791.303,-205.371 861.033,-176.845"/>
<polygon fill="black" stroke="black" points="862.381,-180.075 870.312,-173.049 859.731,-173.596 862.381,-180.075"/>
</g>
<!-- node53&#45;&gt;node146 -->
<g id="edge36" class="edge"><title>node53&#45;&gt;node146</title>
<path fill="none" stroke="black" d="M552.639,-287.831C555.808,-279.962 559.591,-270.571 563.102,-261.853"/>
<polygon fill="black" stroke="black" points="566.415,-262.997 566.904,-252.413 559.922,-260.381 566.415,-262.997"/>
</g>
</g>
</svg>
