<?xml version="1.0" encoding="UTF-8" standalone="no"?>
<!DOCTYPE svg PUBLIC "-//W3C//DTD SVG 1.1//EN"
 "http://www.w3.org/Graphics/SVG/1.1/DTD/svg11.dtd">
<!-- Generated by graphviz version 2.26.3 (20100126.1600)
 -->
<!-- Title: GG Pages: 1 -->
<svg width="2512pt" height="692pt"
 viewBox="0.00 0.00 2511.99 692.00" xmlns="http://www.w3.org/2000/svg" xmlns:xlink="http://www.w3.org/1999/xlink">
<g id="graph1" class="graph" transform="scale(1 1) rotate(0) translate(4 688)">
<title>GG</title>
<polygon fill="white" stroke="white" points="-4,5 -4,-688 2508.99,-688 2508.99,5 -4,5"/>
<!-- node171 -->
<g id="node1" class="node"><title>node171</title>
<polygon fill="none" stroke="black" points="1273,-684 1165,-684 1165,-648 1273,-648 1273,-684"/>
<text text-anchor="middle" x="1219" y="-662.7" font-family="Times Roman,serif" font-size="12.00">thorcodectx_lcr</text>
</g>
<!-- node164 -->
<g id="node2" class="node"><title>node164</title>
<polygon fill="none" stroke="black" points="1254,-612 1184,-612 1184,-576 1254,-576 1254,-612"/>
<text text-anchor="middle" x="1219" y="-590.7" font-family="Times Roman,serif" font-size="12.00">graph_lcr</text>
</g>
<!-- node171&#45;&gt;node164 -->
<g id="edge2" class="edge"><title>node171&#45;&gt;node164</title>
<path fill="none" stroke="black" d="M1219,-647.831C1219,-640.131 1219,-630.974 1219,-622.417"/>
<polygon fill="black" stroke="black" points="1222.5,-622.413 1219,-612.413 1215.5,-622.413 1222.5,-622.413"/>
</g>
<!-- node151 -->
<g id="node4" class="node"><title>node151</title>
<polygon fill="none" stroke="black" points="1212,-108 1158,-108 1158,-72 1212,-72 1212,-108"/>
<text text-anchor="middle" x="1185" y="-86.7" font-family="Times Roman,serif" font-size="12.00">jlib</text>
</g>
<!-- node171&#45;&gt;node151 -->
<g id="edge134" class="edge"><title>node171&#45;&gt;node151</title>
<path fill="none" stroke="black" d="M1164.85,-665.584C954.029,-663.666 194.911,-653.889 96,-612 42.1458,-589.193 0,-580.485 0,-522 0,-522 0,-522 0,-234 0,-115.467 946.412,-93.7875 1147.66,-90.5175"/>
<polygon fill="black" stroke="black" points="1147.79,-94.0159 1157.74,-90.3592 1147.68,-87.0168 1147.79,-94.0159"/>
</g>
<!-- node59 -->
<g id="node17" class="node"><title>node59</title>
<polygon fill="none" stroke="black" points="289,-252 231,-252 231,-216 289,-216 289,-252"/>
<text text-anchor="middle" x="260" y="-230.7" font-family="Times Roman,serif" font-size="12.00">remote</text>
</g>
<!-- node171&#45;&gt;node59 -->
<g id="edge144" class="edge"><title>node171&#45;&gt;node59</title>
<path fill="none" stroke="black" d="M1164.95,-664.355C973.534,-658.341 334.53,-636.613 246,-612 163.633,-589.101 76,-607.491 76,-522 76,-522 76,-522 76,-378 76,-304.871 167.249,-263.327 221.229,-245.148"/>
<polygon fill="black" stroke="black" points="222.416,-248.443 230.845,-242.024 220.252,-241.786 222.416,-248.443"/>
</g>
<!-- node66 -->
<g id="node23" class="node"><title>node66</title>
<polygon fill="none" stroke="black" points="565,-324 503,-324 503,-288 565,-288 565,-324"/>
<text text-anchor="middle" x="534" y="-302.7" font-family="Times Roman,serif" font-size="12.00">dalibase</text>
</g>
<!-- node171&#45;&gt;node66 -->
<g id="edge146" class="edge"><title>node171&#45;&gt;node66</title>
<path fill="none" stroke="black" d="M1164.83,-663.29C967.404,-652.705 298,-610.303 298,-522 298,-522 298,-522 298,-450 298,-405.078 309.286,-388.511 344,-360 366.699,-341.357 444.105,-323.483 492.833,-313.698"/>
<polygon fill="black" stroke="black" points="493.633,-317.107 502.765,-311.735 492.276,-310.24 493.633,-317.107"/>
</g>
<!-- node55 -->
<g id="node32" class="node"><title>node55</title>
<polygon fill="none" stroke="black" points="232,-396 142,-396 142,-360 232,-360 232,-396"/>
<text text-anchor="middle" x="187" y="-374.7" font-family="Times Roman,serif" font-size="12.00">environment</text>
</g>
<!-- node171&#45;&gt;node55 -->
<g id="edge148" class="edge"><title>node171&#45;&gt;node55</title>
<path fill="none" stroke="black" d="M1164.7,-664.451C970.503,-658.705 320.057,-637.619 284,-612 215.557,-563.369 195.25,-457.126 189.349,-406.251"/>
<polygon fill="black" stroke="black" points="192.827,-405.853 188.297,-396.276 185.866,-406.588 192.827,-405.853"/>
</g>
<!-- node54 -->
<g id="node38" class="node"><title>node54</title>
<polygon fill="none" stroke="black" points="1081,-468 1015,-468 1015,-432 1081,-432 1081,-468"/>
<text text-anchor="middle" x="1048" y="-446.7" font-family="Times Roman,serif" font-size="12.00">dllserver</text>
</g>
<!-- node171&#45;&gt;node54 -->
<g id="edge150" class="edge"><title>node171&#45;&gt;node54</title>
<path fill="none" stroke="black" d="M1200.33,-647.734C1176.58,-624.027 1134.93,-580.844 1104,-540 1088.7,-519.795 1073.65,-495.28 1063.01,-476.941"/>
<polygon fill="black" stroke="black" points="1066.03,-475.162 1058.02,-468.225 1059.96,-478.642 1066.03,-475.162"/>
</g>
<!-- node146 -->
<g id="node45" class="node"><title>node146</title>
<polygon fill="none" stroke="black" points="1486,-396 1432,-396 1432,-360 1486,-360 1486,-396"/>
<text text-anchor="middle" x="1459" y="-374.7" font-family="Times Roman,serif" font-size="12.00">eclrtl</text>
</g>
<!-- node171&#45;&gt;node146 -->
<g id="edge138" class="edge"><title>node171&#45;&gt;node146</title>
<path fill="none" stroke="black" d="M1268.54,-647.883C1314.7,-628.392 1381.84,-592.888 1419,-540 1447.48,-499.467 1455.76,-440.805 1458.12,-406.316"/>
<polygon fill="black" stroke="black" points="1461.63,-406.202 1458.69,-396.022 1454.64,-405.811 1461.63,-406.202"/>
</g>
<!-- node147 -->
<g id="node56" class="node"><title>node147</title>
<polygon fill="none" stroke="black" points="2240,-324 2186,-324 2186,-288 2240,-288 2240,-324"/>
<text text-anchor="middle" x="2213" y="-302.7" font-family="Times Roman,serif" font-size="12.00">nbcd</text>
</g>
<!-- node171&#45;&gt;node147 -->
<g id="edge136" class="edge"><title>node171&#45;&gt;node147</title>
<path fill="none" stroke="black" d="M1273.24,-663.656C1414.34,-656.088 1782,-626.358 1782,-522 1782,-522 1782,-522 1782,-450 1782,-409.118 1770.51,-387.235 1801,-360 1861.4,-306.047 2080.17,-344.254 2175.94,-323.368"/>
<polygon fill="black" stroke="black" points="2177.07,-326.692 2185.9,-320.842 2175.35,-319.906 2177.07,-326.692"/>
</g>
<!-- node53 -->
<g id="node68" class="node"><title>node53</title>
<polygon fill="none" stroke="black" points="1640,-468 1580,-468 1580,-432 1640,-432 1640,-468"/>
<text text-anchor="middle" x="1610" y="-446.7" font-family="Times Roman,serif" font-size="12.00">deftype</text>
</g>
<!-- node171&#45;&gt;node53 -->
<g id="edge140" class="edge"><title>node171&#45;&gt;node53</title>
<path fill="none" stroke="black" d="M1273.15,-662.34C1350.71,-656.144 1488.45,-641.298 1528,-612 1572.49,-579.038 1594.53,-515.036 1603.99,-478.112"/>
<polygon fill="black" stroke="black" points="1607.48,-478.567 1606.43,-468.024 1600.67,-476.921 1607.48,-478.567"/>
</g>
<!-- node64 -->
<g id="node73" class="node"><title>node64</title>
<polygon fill="none" stroke="black" points="1410,-540 1342,-540 1342,-504 1410,-504 1410,-540"/>
<text text-anchor="middle" x="1376" y="-518.7" font-family="Times Roman,serif" font-size="12.00">workunit</text>
</g>
<!-- node171&#45;&gt;node64 -->
<g id="edge152" class="edge"><title>node171&#45;&gt;node64</title>
<path fill="none" stroke="black" d="M1238.88,-647.762C1266.72,-622.227 1317.42,-575.732 1348.75,-546.991"/>
<polygon fill="black" stroke="black" points="1351.27,-549.428 1356.28,-540.09 1346.54,-544.27 1351.27,-549.428"/>
</g>
<!-- node63 -->
<g id="node84" class="node"><title>node63</title>
<polygon fill="none" stroke="black" points="1706,-540 1630,-540 1630,-504 1706,-504 1706,-540"/>
<text text-anchor="middle" x="1668" y="-518.7" font-family="Times Roman,serif" font-size="12.00">thorhelper</text>
</g>
<!-- node171&#45;&gt;node63 -->
<g id="edge142" class="edge"><title>node171&#45;&gt;node63</title>
<path fill="none" stroke="black" d="M1273.14,-662.812C1362.77,-656.769 1537.41,-641.526 1591,-612 1617.51,-597.391 1639,-569.822 1652.47,-549.029"/>
<polygon fill="black" stroke="black" points="1655.59,-550.644 1657.91,-540.307 1649.65,-546.937 1655.59,-550.644"/>
</g>
<!-- node164&#45;&gt;node151 -->
<g id="edge4" class="edge"><title>node164&#45;&gt;node151</title>
<path fill="none" stroke="black" d="M1220.69,-575.791C1225.4,-521.048 1237.19,-353.268 1219,-216 1214.42,-181.453 1203.07,-142.936 1194.74,-117.689"/>
<polygon fill="black" stroke="black" points="1198,-116.414 1191.49,-108.055 1191.37,-118.649 1198,-116.414"/>
</g>
<!-- node150 -->
<g id="node14" class="node"><title>node150</title>
<polygon fill="none" stroke="black" points="1286,-180 1232,-180 1232,-144 1286,-144 1286,-180"/>
<text text-anchor="middle" x="1259" y="-158.7" font-family="Times Roman,serif" font-size="12.00">jhtree</text>
</g>
<!-- node164&#45;&gt;node150 -->
<g id="edge14" class="edge"><title>node164&#45;&gt;node150</title>
<path fill="none" stroke="black" d="M1222.88,-575.82C1230.1,-541.078 1245.47,-462.766 1252,-396 1259.22,-322.166 1259.7,-234.659 1259.39,-190.513"/>
<polygon fill="black" stroke="black" points="1262.88,-190.225 1259.29,-180.258 1255.88,-190.29 1262.88,-190.225"/>
</g>
<!-- node164&#45;&gt;node59 -->
<g id="edge18" class="edge"><title>node164&#45;&gt;node59</title>
<path fill="none" stroke="black" d="M1183.85,-593.282C1025.33,-589.864 381.119,-573.977 298,-540 207.904,-503.17 173.277,-484.609 133,-396 107.09,-338.998 176.134,-284.138 222.295,-255.189"/>
<polygon fill="black" stroke="black" points="224.2,-258.126 230.903,-249.921 220.546,-252.155 224.2,-258.126"/>
</g>
<!-- node164&#45;&gt;node66 -->
<g id="edge26" class="edge"><title>node164&#45;&gt;node66</title>
<path fill="none" stroke="black" d="M1183.97,-591.594C1035.59,-580.614 461.683,-529.897 355,-396 345.03,-383.486 345.459,-372.844 355,-360 371.5,-337.788 445.414,-321.211 492.951,-312.615"/>
<polygon fill="black" stroke="black" points="493.715,-316.034 502.956,-310.853 492.5,-309.14 493.715,-316.034"/>
</g>
<!-- node164&#45;&gt;node55 -->
<g id="edge40" class="edge"><title>node164&#45;&gt;node55</title>
<path fill="none" stroke="black" d="M1183.93,-593.192C1032.2,-589.509 436.521,-573.047 360,-540 291.981,-510.624 234.058,-442.425 205.68,-404.551"/>
<polygon fill="black" stroke="black" points="208.18,-402.043 199.435,-396.062 202.542,-406.191 208.18,-402.043"/>
</g>
<!-- node164&#45;&gt;node54 -->
<g id="edge50" class="edge"><title>node164&#45;&gt;node54</title>
<path fill="none" stroke="black" d="M1194.3,-575.994C1180.46,-565.719 1163.03,-552.444 1148,-540 1122.43,-518.829 1094.43,-493.424 1074.58,-475.012"/>
<polygon fill="black" stroke="black" points="1076.83,-472.329 1067.13,-468.076 1072.06,-477.452 1076.83,-472.329"/>
</g>
<!-- node164&#45;&gt;node146 -->
<g id="edge88" class="edge"><title>node164&#45;&gt;node146</title>
<path fill="none" stroke="black" d="M1239.05,-575.955C1281.84,-537.441 1382.2,-447.116 1431.16,-403.056"/>
<polygon fill="black" stroke="black" points="1433.75,-405.436 1438.84,-396.145 1429.06,-400.233 1433.75,-405.436"/>
</g>
<!-- node164&#45;&gt;node147 -->
<g id="edge86" class="edge"><title>node164&#45;&gt;node147</title>
<path fill="none" stroke="black" d="M1254.23,-590.518C1296.12,-585.075 1366.91,-571.67 1419,-540 1437.55,-528.724 1435.92,-518.574 1452,-504 1531.04,-432.378 1544,-397.123 1644,-360 1863.54,-278.497 1945.64,-383.366 2176.25,-323.512"/>
<polygon fill="black" stroke="black" points="2177.17,-326.89 2185.93,-320.928 2175.36,-320.127 2177.17,-326.89"/>
</g>
<!-- node164&#45;&gt;node53 -->
<g id="edge90" class="edge"><title>node164&#45;&gt;node53</title>
<path fill="none" stroke="black" d="M1254.29,-589.089C1300.77,-581.892 1384.52,-566.389 1452,-540 1496.69,-522.525 1544.01,-494.074 1575.08,-473.841"/>
<polygon fill="black" stroke="black" points="1577.36,-476.53 1583.79,-468.108 1573.51,-470.683 1577.36,-476.53"/>
</g>
<!-- node164&#45;&gt;node64 -->
<g id="edge98" class="edge"><title>node164&#45;&gt;node64</title>
<path fill="none" stroke="black" d="M1254.23,-577.842C1277.48,-567.18 1308.09,-553.142 1332.81,-541.808"/>
<polygon fill="black" stroke="black" points="1334.33,-544.96 1341.96,-537.61 1331.41,-538.597 1334.33,-544.96"/>
</g>
<!-- node52 -->
<g id="node81" class="node"><title>node52</title>
<polygon fill="none" stroke="black" points="1210,-252 1124,-252 1124,-216 1210,-216 1210,-252"/>
<text text-anchor="middle" x="1167" y="-230.7" font-family="Times Roman,serif" font-size="12.00">commonext</text>
</g>
<!-- node164&#45;&gt;node52 -->
<g id="edge112" class="edge"><title>node164&#45;&gt;node52</title>
<path fill="none" stroke="black" d="M1206,-575.724C1199.27,-565.585 1191.36,-552.524 1186,-540 1169.7,-501.944 1162,-491.398 1162,-450 1162,-450 1162,-450 1162,-378 1162,-337.852 1163.97,-291.445 1165.43,-262.408"/>
<polygon fill="black" stroke="black" points="1168.94,-262.347 1165.96,-252.178 1161.95,-261.983 1168.94,-262.347"/>
</g>
<!-- node164&#45;&gt;node63 -->
<g id="edge116" class="edge"><title>node164&#45;&gt;node63</title>
<path fill="none" stroke="black" d="M1254.23,-588.35C1334.06,-575.55 1528.8,-544.321 1619.74,-529.739"/>
<polygon fill="black" stroke="black" points="1620.46,-533.168 1629.78,-528.129 1619.35,-526.257 1620.46,-533.168"/>
</g>
<!-- node152 -->
<g id="node6" class="node"><title>node152</title>
<polygon fill="none" stroke="black" points="1063,-36 1023.06,-18 1063,-3.55271e-15 1102.94,-18 1063,-36"/>
<text text-anchor="middle" x="1063" y="-14.7" font-family="Times Roman,serif" font-size="12.00">lzma</text>
</g>
<!-- node151&#45;&gt;node152 -->
<g id="edge6" class="edge"><title>node151&#45;&gt;node152</title>
<path fill="none" stroke="black" d="M1157.92,-74.0209C1137.47,-61.9494 1109.55,-45.4743 1089.29,-33.5172"/>
<polygon fill="black" stroke="black" points="1090.97,-30.4417 1080.58,-28.3733 1087.41,-36.4701 1090.97,-30.4417"/>
</g>
<!-- node187 -->
<g id="node8" class="node"><title>node187</title>
<ellipse fill="none" stroke="black" cx="1148" cy="-18" rx="27" ry="18"/>
<text text-anchor="middle" x="1148" y="-14.7" font-family="Times Roman,serif" font-size="12.00">dl</text>
</g>
<!-- node151&#45;&gt;node187 -->
<g id="edge8" class="edge"><title>node151&#45;&gt;node187</title>
<path fill="none" stroke="black" d="M1175.66,-71.8314C1171.41,-63.5451 1166.28,-53.5727 1161.61,-44.4748"/>
<polygon fill="black" stroke="black" points="1164.63,-42.7123 1156.95,-35.4177 1158.41,-45.9118 1164.63,-42.7123"/>
</g>
<!-- node179 -->
<g id="node10" class="node"><title>node179</title>
<ellipse fill="none" stroke="black" cx="1223" cy="-18" rx="30.0465" ry="18"/>
<text text-anchor="middle" x="1223" y="-14.7" font-family="Times Roman,serif" font-size="12.00">crypt</text>
</g>
<!-- node151&#45;&gt;node179 -->
<g id="edge10" class="edge"><title>node151&#45;&gt;node179</title>
<path fill="none" stroke="black" d="M1194.59,-71.8314C1198.96,-63.5451 1204.23,-53.5727 1209.03,-44.4748"/>
<polygon fill="black" stroke="black" points="1212.24,-45.8952 1213.81,-35.4177 1206.04,-42.6279 1212.24,-45.8952"/>
</g>
<!-- node188 -->
<g id="node12" class="node"><title>node188</title>
<ellipse fill="none" stroke="black" cx="1298" cy="-18" rx="27" ry="18"/>
<text text-anchor="middle" x="1298" y="-14.7" font-family="Times Roman,serif" font-size="12.00">rt</text>
</g>
<!-- node151&#45;&gt;node188 -->
<g id="edge12" class="edge"><title>node151&#45;&gt;node188</title>
<path fill="none" stroke="black" d="M1212.07,-72.7542C1229.41,-61.7009 1251.9,-47.375 1269.52,-36.1494"/>
<polygon fill="black" stroke="black" points="1271.68,-38.9209 1278.23,-30.5955 1267.92,-33.0174 1271.68,-38.9209"/>
</g>
<!-- node150&#45;&gt;node151 -->
<g id="edge16" class="edge"><title>node150&#45;&gt;node151</title>
<path fill="none" stroke="black" d="M1240.33,-143.831C1231.48,-135.219 1220.75,-124.785 1211.11,-115.405"/>
<polygon fill="black" stroke="black" points="1213.28,-112.628 1203.67,-108.163 1208.39,-117.645 1213.28,-112.628"/>
</g>
<!-- node59&#45;&gt;node151 -->
<g id="edge20" class="edge"><title>node59&#45;&gt;node151</title>
<path fill="none" stroke="black" d="M289.192,-227.152C359.965,-210.753 546.469,-168.759 704,-144 868.452,-118.153 1066.43,-99.9718 1147.56,-93.0704"/>
<polygon fill="black" stroke="black" points="1148.1,-96.5376 1157.77,-92.2094 1147.51,-89.5624 1148.1,-96.5376"/>
</g>
<!-- node153 -->
<g id="node20" class="node"><title>node153</title>
<polygon fill="none" stroke="black" points="906,-180 852,-180 852,-144 906,-144 906,-180"/>
<text text-anchor="middle" x="879" y="-158.7" font-family="Times Roman,serif" font-size="12.00">mp</text>
</g>
<!-- node59&#45;&gt;node153 -->
<g id="edge22" class="edge"><title>node59&#45;&gt;node153</title>
<path fill="none" stroke="black" d="M289.044,-229.395C313.735,-225.558 350.145,-220.079 382,-216 553.341,-194.06 758.663,-173.596 841.567,-165.573"/>
<polygon fill="black" stroke="black" points="842.132,-169.035 851.75,-164.591 841.46,-162.067 842.132,-169.035"/>
</g>
<!-- node153&#45;&gt;node151 -->
<g id="edge24" class="edge"><title>node153&#45;&gt;node151</title>
<path fill="none" stroke="black" d="M906.155,-155.61C961.162,-142.668 1085.8,-113.342 1148.1,-98.6818"/>
<polygon fill="black" stroke="black" points="1148.97,-102.073 1157.91,-96.3752 1147.37,-95.2587 1148.97,-102.073"/>
</g>
<!-- node66&#45;&gt;node151 -->
<g id="edge28" class="edge"><title>node66&#45;&gt;node151</title>
<path fill="none" stroke="black" d="M561.173,-287.807C613.368,-253.782 732.31,-180.65 843,-144 950.028,-108.563 1083.81,-96.0659 1147.69,-91.9166"/>
<polygon fill="black" stroke="black" points="1147.92,-95.4087 1157.69,-91.2987 1147.49,-88.4221 1147.92,-95.4087"/>
</g>
<!-- node66&#45;&gt;node59 -->
<g id="edge38" class="edge"><title>node66&#45;&gt;node59</title>
<path fill="none" stroke="black" d="M502.835,-297.811C452.526,-284.591 353.532,-258.578 298.753,-244.183"/>
<polygon fill="black" stroke="black" points="299.622,-240.793 289.061,-241.636 297.843,-247.563 299.622,-240.793"/>
</g>
<!-- node66&#45;&gt;node153 -->
<g id="edge30" class="edge"><title>node66&#45;&gt;node153</title>
<path fill="none" stroke="black" d="M565.099,-300.361C604.885,-292.513 675.414,-276.447 732,-252 773.45,-234.092 817.107,-206.028 845.969,-186.001"/>
<polygon fill="black" stroke="black" points="848.256,-188.672 854.432,-180.064 844.236,-182.941 848.256,-188.672"/>
</g>
<!-- node149 -->
<g id="node27" class="node"><title>node149</title>
<polygon fill="none" stroke="black" points="1068,-252 1014,-252 1014,-216 1068,-216 1068,-252"/>
<text text-anchor="middle" x="1041" y="-230.7" font-family="Times Roman,serif" font-size="12.00">hrpc</text>
</g>
<!-- node66&#45;&gt;node149 -->
<g id="edge32" class="edge"><title>node66&#45;&gt;node149</title>
<path fill="none" stroke="black" d="M565.333,-301.55C654.292,-288.917 908.149,-252.866 1003.87,-239.273"/>
<polygon fill="black" stroke="black" points="1004.54,-242.713 1013.95,-237.841 1003.56,-235.782 1004.54,-242.713"/>
</g>
<!-- node149&#45;&gt;node151 -->
<g id="edge34" class="edge"><title>node149&#45;&gt;node151</title>
<path fill="none" stroke="black" d="M1045.48,-215.77C1051.13,-196.019 1062.53,-164.58 1082,-144 1100.17,-124.794 1126.7,-111.108 1148.28,-102.319"/>
<polygon fill="black" stroke="black" points="1149.75,-105.505 1157.81,-98.6238 1147.22,-98.9794 1149.75,-105.505"/>
</g>
<!-- node149&#45;&gt;node153 -->
<g id="edge36" class="edge"><title>node149&#45;&gt;node153</title>
<path fill="none" stroke="black" d="M1013.88,-221.949C986.901,-209.956 945.315,-191.474 915.454,-178.202"/>
<polygon fill="black" stroke="black" points="916.763,-174.954 906.204,-174.09 913.92,-181.35 916.763,-174.954"/>
</g>
<!-- node55&#45;&gt;node151 -->
<g id="edge42" class="edge"><title>node55&#45;&gt;node151</title>
<path fill="none" stroke="black" d="M185.262,-359.884C183.141,-326.638 183.752,-255.665 222,-216 312.088,-122.576 376.961,-165.214 505,-144 747.891,-103.758 1044.73,-93.2638 1147.72,-90.7408"/>
<polygon fill="black" stroke="black" points="1148,-94.2353 1157.91,-90.5019 1147.83,-87.2373 1148,-94.2353"/>
</g>
<!-- node55&#45;&gt;node59 -->
<g id="edge46" class="edge"><title>node55&#45;&gt;node59</title>
<path fill="none" stroke="black" d="M196.246,-359.762C208.861,-334.876 231.569,-290.082 246.203,-261.216"/>
<polygon fill="black" stroke="black" points="249.43,-262.592 250.83,-252.09 243.186,-259.426 249.43,-262.592"/>
</g>
<!-- node55&#45;&gt;node153 -->
<g id="edge44" class="edge"><title>node55&#45;&gt;node153</title>
<path fill="none" stroke="black" d="M232.137,-363.911C360.293,-323.909 724.687,-210.167 842.074,-173.526"/>
<polygon fill="black" stroke="black" points="843.193,-176.843 851.696,-170.523 841.107,-170.161 843.193,-176.843"/>
</g>
<!-- node55&#45;&gt;node66 -->
<g id="edge48" class="edge"><title>node55&#45;&gt;node66</title>
<path fill="none" stroke="black" d="M232.008,-368.661C299.894,-354.575 427.488,-328.1 492.958,-314.516"/>
<polygon fill="black" stroke="black" points="493.833,-317.909 502.914,-312.45 492.411,-311.055 493.833,-317.909"/>
</g>
<!-- node54&#45;&gt;node151 -->
<g id="edge54" class="edge"><title>node54&#45;&gt;node151</title>
<path fill="none" stroke="black" d="M1059.12,-431.561C1064.85,-421.374 1071.56,-408.319 1076,-396 1103.75,-318.991 1086.15,-292.602 1115,-216 1128.59,-179.918 1151.18,-141.626 1167.01,-116.855"/>
<polygon fill="black" stroke="black" points="1170.01,-118.666 1172.51,-108.37 1164.13,-114.859 1170.01,-118.666"/>
</g>
<!-- node54&#45;&gt;node59 -->
<g id="edge76" class="edge"><title>node54&#45;&gt;node59</title>
<path fill="none" stroke="black" d="M1014.97,-449.208C884.768,-445.848 411.394,-431.285 355,-396 305.987,-365.333 279.293,-299.421 267.515,-261.806"/>
<polygon fill="black" stroke="black" points="270.801,-260.578 264.582,-252 264.094,-262.584 270.801,-260.578"/>
</g>
<!-- node54&#45;&gt;node153 -->
<g id="edge56" class="edge"><title>node54&#45;&gt;node153</title>
<path fill="none" stroke="black" d="M1046.5,-431.68C1044.44,-412.956 1039.68,-383.389 1029,-360 997.452,-290.883 938.286,-223.124 904.455,-187.587"/>
<polygon fill="black" stroke="black" points="906.695,-184.867 897.237,-180.091 901.652,-189.722 906.695,-184.867"/>
</g>
<!-- node54&#45;&gt;node66 -->
<g id="edge78" class="edge"><title>node54&#45;&gt;node66</title>
<path fill="none" stroke="black" d="M1014.8,-448.606C909.398,-443.88 587.247,-427.002 553,-396 536.14,-380.738 532.159,-354.606 531.944,-334.42"/>
<polygon fill="black" stroke="black" points="535.448,-334.276 532.141,-324.21 528.449,-334.141 535.448,-334.276"/>
</g>
<!-- node54&#45;&gt;node149 -->
<g id="edge58" class="edge"><title>node54&#45;&gt;node149</title>
<path fill="none" stroke="black" d="M1053.97,-431.732C1057.04,-421.376 1060.46,-408.105 1062,-396 1067.96,-349.241 1057.33,-294.91 1049.14,-262.55"/>
<polygon fill="black" stroke="black" points="1052.41,-261.24 1046.48,-252.461 1045.64,-263.023 1052.41,-261.24"/>
</g>
<!-- node54&#45;&gt;node55 -->
<g id="edge80" class="edge"><title>node54&#45;&gt;node55</title>
<path fill="none" stroke="black" d="M1014.74,-448.776C882.961,-443.771 397.323,-423.798 246,-396 244.726,-395.766 243.441,-395.514 242.148,-395.246"/>
<polygon fill="black" stroke="black" points="242.692,-391.779 232.159,-392.919 241.104,-398.597 242.692,-391.779"/>
</g>
<!-- node176 -->
<g id="node40" class="node"><title>node176</title>
<ellipse fill="none" stroke="black" cx="889" cy="-378" rx="130.789" ry="18"/>
<text text-anchor="middle" x="889" y="-374.7" font-family="Times Roman,serif" font-size="12.00">/usr/lib/x86_64&#45;linux&#45;gnu/libz.so</text>
</g>
<!-- node54&#45;&gt;node176 -->
<g id="edge52" class="edge"><title>node54&#45;&gt;node176</title>
<path fill="none" stroke="black" d="M1014.67,-434.906C992.059,-424.668 961.827,-410.978 936.68,-399.591"/>
<polygon fill="black" stroke="black" points="937.872,-396.289 927.318,-395.352 934.984,-402.665 937.872,-396.289"/>
</g>
<!-- node54&#45;&gt;node146 -->
<g id="edge60" class="edge"><title>node54&#45;&gt;node146</title>
<path fill="none" stroke="black" d="M1081.29,-444.169C1157.09,-430.889 1342.17,-398.466 1421.69,-384.536"/>
<polygon fill="black" stroke="black" points="1422.5,-387.948 1431.74,-382.775 1421.29,-381.053 1422.5,-387.948"/>
</g>
<!-- node177 -->
<g id="node62" class="node"><title>node177</title>
<ellipse fill="none" stroke="black" cx="435" cy="-378" rx="70.8437" ry="18"/>
<text text-anchor="middle" x="435" y="-374.7" font-family="Times Roman,serif" font-size="12.00">/usr/lib/libbfd.so</text>
</g>
<!-- node54&#45;&gt;node177 -->
<g id="edge82" class="edge"><title>node54&#45;&gt;node177</title>
<path fill="none" stroke="black" d="M1014.79,-447.841C931.283,-442.144 705.941,-425.111 520,-396 512.828,-394.877 505.349,-393.54 497.931,-392.11"/>
<polygon fill="black" stroke="black" points="498.38,-388.63 487.889,-390.112 497.014,-395.496 498.38,-388.63"/>
</g>
<!-- node178 -->
<g id="node64" class="node"><title>node178</title>
<ellipse fill="none" stroke="black" cx="651" cy="-378" rx="89.0421" ry="18"/>
<text text-anchor="middle" x="651" y="-374.7" font-family="Times Roman,serif" font-size="12.00">/usr/lib/libiberty_pic.a</text>
</g>
<!-- node54&#45;&gt;node178 -->
<g id="edge84" class="edge"><title>node54&#45;&gt;node178</title>
<path fill="none" stroke="black" d="M1014.81,-444.039C959.628,-434.121 845.526,-413.581 749,-396 741.782,-394.685 734.265,-393.312 726.747,-391.936"/>
<polygon fill="black" stroke="black" points="727.356,-388.489 716.889,-390.13 726.094,-395.375 727.356,-388.489"/>
</g>
<!-- node146&#45;&gt;node151 -->
<g id="edge70" class="edge"><title>node146&#45;&gt;node151</title>
<path fill="none" stroke="black" d="M1486.25,-361.713C1487.83,-361.071 1489.42,-360.493 1491,-360 1660.12,-307.317 1989.8,-429.316 1883,-288 1800.46,-178.786 1354.88,-112.29 1222.26,-94.7058"/>
<polygon fill="black" stroke="black" points="1222.56,-91.2149 1212.19,-93.3849 1221.65,-98.1555 1222.56,-91.2149"/>
</g>
<!-- node186 -->
<g id="node47" class="node"><title>node186</title>
<ellipse fill="none" stroke="black" cx="2049" cy="-306" rx="118.939" ry="18"/>
<text text-anchor="middle" x="2049" y="-302.7" font-family="Times Roman,serif" font-size="12.00">/usr/lib/libboost_regex&#45;mt.so</text>
</g>
<!-- node146&#45;&gt;node186 -->
<g id="edge62" class="edge"><title>node146&#45;&gt;node186</title>
<path fill="none" stroke="black" d="M1486.35,-364.532C1490.83,-362.756 1495.48,-361.154 1500,-360 1679.81,-314.086 1731.55,-344.451 1916,-324 1927.67,-322.706 1939.9,-321.224 1952.01,-319.678"/>
<polygon fill="black" stroke="black" points="1952.68,-323.121 1962.15,-318.368 1951.78,-316.179 1952.68,-323.121"/>
</g>
<!-- node183 -->
<g id="node49" class="node"><title>node183</title>
<ellipse fill="none" stroke="black" cx="1420" cy="-306" rx="77.9931" ry="18"/>
<text text-anchor="middle" x="1420" y="-302.7" font-family="Times Roman,serif" font-size="12.00">/usr/lib/libicuuc.so</text>
</g>
<!-- node146&#45;&gt;node183 -->
<g id="edge64" class="edge"><title>node146&#45;&gt;node183</title>
<path fill="none" stroke="black" d="M1449.16,-359.831C1444.74,-351.669 1439.43,-341.87 1434.56,-332.883"/>
<polygon fill="black" stroke="black" points="1437.54,-331.039 1429.7,-323.913 1431.39,-334.373 1437.54,-331.039"/>
</g>
<!-- node184 -->
<g id="node51" class="node"><title>node184</title>
<ellipse fill="none" stroke="black" cx="1601" cy="-306" rx="85.1424" ry="18"/>
<text text-anchor="middle" x="1601" y="-302.7" font-family="Times Roman,serif" font-size="12.00">/usr/lib/libicui18n.so</text>
</g>
<!-- node146&#45;&gt;node184 -->
<g id="edge66" class="edge"><title>node146&#45;&gt;node184</title>
<path fill="none" stroke="black" d="M1486.04,-364.288C1506.64,-353.842 1535.39,-339.269 1558.98,-327.308"/>
<polygon fill="black" stroke="black" points="1560.73,-330.343 1568.07,-322.699 1557.56,-324.099 1560.73,-330.343"/>
</g>
<!-- node185 -->
<g id="node53" class="node"><title>node185</title>
<ellipse fill="none" stroke="black" cx="1789" cy="-306" rx="85.1424" ry="18"/>
<text text-anchor="middle" x="1789" y="-302.7" font-family="Times Roman,serif" font-size="12.00">/usr/lib/libicudata.so</text>
</g>
<!-- node146&#45;&gt;node185 -->
<g id="edge68" class="edge"><title>node146&#45;&gt;node185</title>
<path fill="none" stroke="black" d="M1486.01,-365.095C1490.61,-363.201 1495.39,-361.416 1500,-360 1584.24,-334.113 1608.39,-340.288 1695,-324 1701.75,-322.731 1708.77,-321.403 1715.79,-320.068"/>
<polygon fill="black" stroke="black" points="1716.89,-323.421 1726.06,-318.112 1715.58,-316.545 1716.89,-323.421"/>
</g>
<!-- node146&#45;&gt;node147 -->
<g id="edge72" class="edge"><title>node146&#45;&gt;node147</title>
<path fill="none" stroke="black" d="M1486.32,-364.4C1490.8,-362.641 1495.46,-361.079 1500,-360 1789.85,-291.091 1883.58,-398.529 2175.9,-323.596"/>
<polygon fill="black" stroke="black" points="2177.15,-326.887 2185.94,-320.971 2175.38,-320.115 2177.15,-326.887"/>
</g>
<!-- node147&#45;&gt;node151 -->
<g id="edge74" class="edge"><title>node147&#45;&gt;node151</title>
<path fill="none" stroke="black" d="M2188.41,-287.763C2139.5,-252.633 2025.3,-176.205 1916,-144 1783.91,-105.081 1352.74,-93.3726 1222.55,-90.6824"/>
<polygon fill="black" stroke="black" points="1222.37,-87.1781 1212.3,-90.4765 1222.23,-94.1767 1222.37,-87.1781"/>
</g>
<!-- node53&#45;&gt;node151 -->
<g id="edge92" class="edge"><title>node53&#45;&gt;node151</title>
<path fill="none" stroke="black" d="M1639.47,-431.971C1675.94,-410.665 1740.61,-376.083 1801,-360 1849.26,-347.149 2215.13,-360.699 2249,-324 2259.85,-312.242 2257.12,-301.785 2249,-288 2179.36,-169.816 2108.31,-180.233 1976,-144 1831.23,-104.354 1359.03,-93.067 1222.37,-90.5935"/>
<polygon fill="black" stroke="black" points="1222.08,-87.088 1212.02,-90.4116 1221.96,-94.0869 1222.08,-87.088"/>
</g>
<!-- node53&#45;&gt;node146 -->
<g id="edge96" class="edge"><title>node53&#45;&gt;node146</title>
<path fill="none" stroke="black" d="M1579.81,-435.603C1555.43,-423.98 1521.06,-407.59 1495.21,-395.263"/>
<polygon fill="black" stroke="black" points="1496.63,-392.067 1486.1,-390.922 1493.62,-398.385 1496.63,-392.067"/>
</g>
<!-- node53&#45;&gt;node147 -->
<g id="edge94" class="edge"><title>node53&#45;&gt;node147</title>
<path fill="none" stroke="black" d="M1620.61,-431.678C1634.13,-410.254 1659.69,-375.727 1692,-360 1786.42,-314.041 2056.89,-350.513 2175.91,-323.44"/>
<polygon fill="black" stroke="black" points="2177.09,-326.753 2185.92,-320.907 2175.37,-319.967 2177.09,-326.753"/>
</g>
<!-- node64&#45;&gt;node151 -->
<g id="edge100" class="edge"><title>node64&#45;&gt;node151</title>
<path fill="none" stroke="black" d="M1362.55,-503.978C1344.31,-477.712 1314,-426.722 1314,-378 1314,-378 1314,-378 1314,-234 1314,-193.118 1320.11,-176.265 1295,-144 1276.97,-120.832 1246.42,-106.95 1222.08,-99.0758"/>
<polygon fill="black" stroke="black" points="1223.01,-95.7001 1212.43,-96.1544 1220.98,-102.4 1223.01,-95.7001"/>
</g>
<!-- node64&#45;&gt;node66 -->
<g id="edge102" class="edge"><title>node64&#45;&gt;node66</title>
<path fill="none" stroke="black" d="M1346.2,-503.943C1287.74,-469.474 1152.89,-394.652 1029,-360 943.683,-336.137 677.682,-315.871 575.008,-308.738"/>
<polygon fill="black" stroke="black" points="575.238,-305.246 565.021,-308.05 574.757,-312.229 575.238,-305.246"/>
</g>
<!-- node64&#45;&gt;node54 -->
<g id="edge104" class="edge"><title>node64&#45;&gt;node54</title>
<path fill="none" stroke="black" d="M1341.83,-514.498C1281.71,-501.302 1157.16,-473.962 1091.19,-459.48"/>
<polygon fill="black" stroke="black" points="1091.64,-455.996 1081.12,-457.27 1090.14,-462.833 1091.64,-455.996"/>
</g>
<!-- node64&#45;&gt;node146 -->
<g id="edge108" class="edge"><title>node64&#45;&gt;node146</title>
<path fill="none" stroke="black" d="M1386.51,-503.762C1400.92,-478.768 1426.9,-433.692 1443.53,-404.841"/>
<polygon fill="black" stroke="black" points="1446.61,-406.501 1448.57,-396.09 1440.55,-403.006 1446.61,-406.501"/>
</g>
<!-- node64&#45;&gt;node147 -->
<g id="edge106" class="edge"><title>node64&#45;&gt;node147</title>
<path fill="none" stroke="black" d="M1394.65,-503.817C1405.33,-493.373 1418.96,-479.99 1431,-468 1454.94,-444.165 1507.2,-373.873 1538,-360 1664.89,-302.85 2023.69,-358.079 2176.2,-323.379"/>
<polygon fill="black" stroke="black" points="2177.08,-326.767 2185.94,-320.962 2175.39,-319.973 2177.08,-326.767"/>
</g>
<!-- node64&#45;&gt;node53 -->
<g id="edge110" class="edge"><title>node64&#45;&gt;node53</title>
<path fill="none" stroke="black" d="M1410.03,-511.531C1452.45,-498.477 1524.86,-476.197 1569.93,-462.331"/>
<polygon fill="black" stroke="black" points="1571.13,-465.623 1579.66,-459.337 1569.07,-458.932 1571.13,-465.623"/>
</g>
<!-- node52&#45;&gt;node151 -->
<g id="edge114" class="edge"><title>node52&#45;&gt;node151</title>
<path fill="none" stroke="black" d="M1169.28,-215.762C1172.35,-191.201 1177.84,-147.247 1181.46,-118.354"/>
<polygon fill="black" stroke="black" points="1184.97,-118.447 1182.74,-108.09 1178.03,-117.578 1184.97,-118.447"/>
</g>
<!-- node63&#45;&gt;node151 -->
<g id="edge118" class="edge"><title>node63&#45;&gt;node151</title>
<path fill="none" stroke="black" d="M1706.14,-519.25C1865.53,-507.259 2470,-456.6 2470,-378 2470,-378 2470,-378 2470,-234 2470,-192.983 2619.88,-223.781 2283,-144 2178.01,-119.136 1401.84,-96.0657 1222.09,-91.019"/>
<polygon fill="black" stroke="black" points="1222.16,-87.5198 1212.07,-90.739 1221.97,-94.517 1222.16,-87.5198"/>
</g>
<!-- node63&#45;&gt;node146 -->
<g id="edge122" class="edge"><title>node63&#45;&gt;node146</title>
<path fill="none" stroke="black" d="M1669.31,-503.999C1669.74,-483.855 1667.2,-451.496 1649,-432 1628.3,-409.825 1545.47,-392.509 1496.27,-383.927"/>
<polygon fill="black" stroke="black" points="1496.76,-380.461 1486.31,-382.23 1495.58,-387.361 1496.76,-380.461"/>
</g>
<!-- node63&#45;&gt;node147 -->
<g id="edge120" class="edge"><title>node63&#45;&gt;node147</title>
<path fill="none" stroke="black" d="M1673.24,-503.752C1684.29,-468.951 1713.57,-393.58 1768,-360 1843.15,-313.638 2073.68,-346.559 2176.11,-323.373"/>
<polygon fill="black" stroke="black" points="2177.09,-326.736 2185.91,-320.865 2175.36,-319.955 2177.09,-326.736"/>
</g>
<!-- node63&#45;&gt;node53 -->
<g id="edge124" class="edge"><title>node63&#45;&gt;node53</title>
<path fill="none" stroke="black" d="M1653.36,-503.831C1646.68,-495.539 1638.64,-485.557 1631.31,-476.453"/>
<polygon fill="black" stroke="black" points="1633.83,-474.005 1624.83,-468.413 1628.38,-478.396 1633.83,-474.005"/>
</g>
<!-- node156 -->
<g id="node90" class="node"><title>node156</title>
<polygon fill="none" stroke="black" points="2147,-468 2053,-468 2053,-432 2147,-432 2147,-468"/>
<text text-anchor="middle" x="2100" y="-446.7" font-family="Times Roman,serif" font-size="12.00">securesocket</text>
</g>
<!-- node63&#45;&gt;node156 -->
<g id="edge126" class="edge"><title>node63&#45;&gt;node156</title>
<path fill="none" stroke="black" d="M1706.34,-515.61C1782.49,-502.918 1953.18,-474.47 2042.71,-459.549"/>
<polygon fill="black" stroke="black" points="2043.4,-462.982 2052.68,-457.886 2042.25,-456.078 2043.4,-462.982"/>
</g>
<!-- node156&#45;&gt;node151 -->
<g id="edge128" class="edge"><title>node156&#45;&gt;node151</title>
<path fill="none" stroke="black" d="M2147.24,-448.175C2225.17,-444.163 2375.77,-431.869 2413,-396 2442.44,-367.635 2432,-346.882 2432,-306 2432,-306 2432,-306 2432,-234 2432,-108.956 1429.72,-92.3813 1222.29,-90.2898"/>
<polygon fill="black" stroke="black" points="1222.24,-86.7892 1212.21,-90.1934 1222.17,-93.7889 1222.24,-86.7892"/>
</g>
<!-- node191 -->
<g id="node93" class="node"><title>node191</title>
<ellipse fill="none" stroke="black" cx="1947" cy="-378" rx="137.138" ry="18"/>
<text text-anchor="middle" x="1947" y="-374.7" font-family="Times Roman,serif" font-size="12.00">/usr/lib/x86_64&#45;linux&#45;gnu/libssl.so</text>
</g>
<!-- node156&#45;&gt;node191 -->
<g id="edge130" class="edge"><title>node156&#45;&gt;node191</title>
<path fill="none" stroke="black" d="M2061.39,-431.831C2040.63,-422.062 2014.89,-409.95 1993.09,-399.689"/>
<polygon fill="black" stroke="black" points="1994.55,-396.509 1984.01,-395.418 1991.57,-402.843 1994.55,-396.509"/>
</g>
<!-- node192 -->
<g id="node95" class="node"><title>node192</title>
<ellipse fill="none" stroke="black" cx="2253" cy="-378" rx="150.937" ry="18"/>
<text text-anchor="middle" x="2253" y="-374.7" font-family="Times Roman,serif" font-size="12.00">/usr/lib/x86_64&#45;linux&#45;gnu/libcrypto.so</text>
</g>
<!-- node156&#45;&gt;node192 -->
<g id="edge132" class="edge"><title>node156&#45;&gt;node192</title>
<path fill="none" stroke="black" d="M2138.61,-431.831C2159.29,-422.099 2184.92,-410.04 2206.67,-399.804"/>
<polygon fill="black" stroke="black" points="2208.17,-402.966 2215.72,-395.541 2205.19,-396.632 2208.17,-402.966"/>
</g>
</g>
</svg>
