<?xml version="1.0" encoding="UTF-8" standalone="no"?>
<!DOCTYPE svg PUBLIC "-//W3C//DTD SVG 1.1//EN"
 "http://www.w3.org/Graphics/SVG/1.1/DTD/svg11.dtd">
<!-- Generated by graphviz version 2.26.3 (20100126.1600)
 -->
<!-- Title: GG Pages: 1 -->
<svg width="811pt" height="260pt"
 viewBox="0.00 0.00 811.00 260.00" xmlns="http://www.w3.org/2000/svg" xmlns:xlink="http://www.w3.org/1999/xlink">
<g id="graph1" class="graph" transform="scale(1 1) rotate(0) translate(4 256)">
<title>GG</title>
<polygon fill="white" stroke="white" points="-4,5 -4,-256 808,-256 808,5 -4,5"/>
<!-- node157 -->
<g id="node1" class="node"><title>node157</title>
<polygon fill="none" stroke="black" points="346.872,-239.562 259,-252 171.128,-239.562 171.21,-219.438 346.79,-219.438 346.872,-239.562"/>
<text text-anchor="middle" x="259" y="-230.7" font-family="Times Roman,serif" font-size="12.00">ldapsecuritytest</text>
</g>
<!-- node151 -->
<g id="node2" class="node"><title>node151</title>
<polygon fill="none" stroke="black" points="189,-108 135,-108 135,-72 189,-72 189,-108"/>
<text text-anchor="middle" x="162" y="-86.7" font-family="Times Roman,serif" font-size="12.00">jlib</text>
</g>
<!-- node157&#45;&gt;node151 -->
<g id="edge2" class="edge"><title>node157&#45;&gt;node151</title>
<path fill="none" stroke="black" d="M249.165,-219.4C232.946,-195.321 200.354,-146.938 179.943,-116.638"/>
<polygon fill="black" stroke="black" points="182.773,-114.573 174.283,-108.234 176.967,-118.484 182.773,-114.573"/>
</g>
<!-- node155 -->
<g id="node12" class="node"><title>node155</title>
<polygon fill="none" stroke="black" points="372,-180 280,-180 280,-144 372,-144 372,-180"/>
<text text-anchor="middle" x="326" y="-158.7" font-family="Times Roman,serif" font-size="12.00">LdapSecurity</text>
</g>
<!-- node157&#45;&gt;node155 -->
<g id="edge12" class="edge"><title>node157&#45;&gt;node155</title>
<path fill="none" stroke="black" d="M272.558,-219.43C281.051,-210.304 292.231,-198.289 302.17,-187.609"/>
<polygon fill="black" stroke="black" points="304.881,-189.833 309.131,-180.128 299.756,-185.064 304.881,-189.833"/>
</g>
<!-- node152 -->
<g id="node4" class="node"><title>node152</title>
<polygon fill="none" stroke="black" points="40,-36 0.0563759,-18 40,-3.55271e-15 79.9436,-18 40,-36"/>
<text text-anchor="middle" x="40" y="-14.7" font-family="Times Roman,serif" font-size="12.00">lzma</text>
</g>
<!-- node151&#45;&gt;node152 -->
<g id="edge4" class="edge"><title>node151&#45;&gt;node152</title>
<path fill="none" stroke="black" d="M134.924,-74.0209C114.47,-61.9494 86.5536,-45.4743 66.293,-33.5172"/>
<polygon fill="black" stroke="black" points="67.968,-30.4417 57.577,-28.3733 64.4102,-36.4701 67.968,-30.4417"/>
</g>
<!-- node187 -->
<g id="node6" class="node"><title>node187</title>
<ellipse fill="none" stroke="black" cx="125" cy="-18" rx="27" ry="18"/>
<text text-anchor="middle" x="125" y="-14.7" font-family="Times Roman,serif" font-size="12.00">dl</text>
</g>
<!-- node151&#45;&gt;node187 -->
<g id="edge6" class="edge"><title>node151&#45;&gt;node187</title>
<path fill="none" stroke="black" d="M152.663,-71.8314C148.405,-63.5451 143.28,-53.5727 138.605,-44.4748"/>
<polygon fill="black" stroke="black" points="141.635,-42.7123 133.951,-35.4177 135.408,-45.9118 141.635,-42.7123"/>
</g>
<!-- node179 -->
<g id="node8" class="node"><title>node179</title>
<ellipse fill="none" stroke="black" cx="200" cy="-18" rx="30.0465" ry="18"/>
<text text-anchor="middle" x="200" y="-14.7" font-family="Times Roman,serif" font-size="12.00">crypt</text>
</g>
<!-- node151&#45;&gt;node179 -->
<g id="edge8" class="edge"><title>node151&#45;&gt;node179</title>
<path fill="none" stroke="black" d="M171.589,-71.8314C175.962,-63.5451 181.226,-53.5727 186.027,-44.4748"/>
<polygon fill="black" stroke="black" points="189.235,-45.8952 190.807,-35.4177 183.044,-42.6279 189.235,-45.8952"/>
</g>
<!-- node188 -->
<g id="node10" class="node"><title>node188</title>
<ellipse fill="none" stroke="black" cx="275" cy="-18" rx="27" ry="18"/>
<text text-anchor="middle" x="275" y="-14.7" font-family="Times Roman,serif" font-size="12.00">rt</text>
</g>
<!-- node151&#45;&gt;node188 -->
<g id="edge10" class="edge"><title>node151&#45;&gt;node188</title>
<path fill="none" stroke="black" d="M189.066,-72.7542C206.414,-61.7009 228.898,-47.375 246.516,-36.1494"/>
<polygon fill="black" stroke="black" points="248.679,-38.9209 255.232,-30.5955 244.918,-33.0174 248.679,-38.9209"/>
</g>
<!-- node155&#45;&gt;node151 -->
<g id="edge14" class="edge"><title>node155&#45;&gt;node151</title>
<path fill="none" stroke="black" d="M281.264,-143.955C258.67,-134.652 230.694,-122.849 198.292,-108.016"/>
<polygon fill="black" stroke="black" points="199.583,-104.758 189.036,-103.752 196.654,-111.115 199.583,-104.758"/>
</g>
<!-- node189 -->
<g id="node15" class="node"><title>node189</title>
<ellipse fill="none" stroke="black" cx="356" cy="-90" rx="148.987" ry="18"/>
<text text-anchor="middle" x="356" y="-86.7" font-family="Times Roman,serif" font-size="12.00">/usr/lib/x86_64&#45;linux&#45;gnu/libldap_r.so</text>
</g>
<!-- node155&#45;&gt;node189 -->
<g id="edge16" class="edge"><title>node155&#45;&gt;node189</title>
<path fill="none" stroke="black" d="M333.57,-143.831C336.849,-135.962 340.762,-126.571 344.394,-117.853"/>
<polygon fill="black" stroke="black" points="347.712,-118.99 348.328,-108.413 341.251,-116.298 347.712,-118.99"/>
</g>
<!-- node190 -->
<g id="node17" class="node"><title>node190</title>
<ellipse fill="none" stroke="black" cx="663" cy="-90" rx="139.888" ry="18"/>
<text text-anchor="middle" x="663" y="-86.7" font-family="Times Roman,serif" font-size="12.00">/usr/lib/x86_64&#45;linux&#45;gnu/liblber.so</text>
</g>
<!-- node155&#45;&gt;node190 -->
<g id="edge18" class="edge"><title>node155&#45;&gt;node190</title>
<path fill="none" stroke="black" d="M372.152,-152.14C425.734,-140.692 515.129,-121.593 580.695,-107.584"/>
<polygon fill="black" stroke="black" points="581.548,-110.981 590.596,-105.469 580.085,-104.136 581.548,-110.981"/>
</g>
</g>
</svg>
