<?xml version="1.0" encoding="UTF-8" standalone="no"?>
<!DOCTYPE svg PUBLIC "-//W3C//DTD SVG 1.1//EN"
 "http://www.w3.org/Graphics/SVG/1.1/DTD/svg11.dtd">
<!-- Generated by graphviz version 2.26.3 (20100126.1600)
 -->
<!-- Title: GG Pages: 1 -->
<svg width="2403pt" height="692pt"
 viewBox="0.00 0.00 2403.22 692.00" xmlns="http://www.w3.org/2000/svg" xmlns:xlink="http://www.w3.org/1999/xlink">
<g id="graph1" class="graph" transform="scale(1 1) rotate(0) translate(4 688)">
<title>GG</title>
<polygon fill="white" stroke="white" points="-4,5 -4,-688 2400.22,-688 2400.22,5 -4,5"/>
<!-- node73 -->
<g id="node1" class="node"><title>node73</title>
<polygon fill="none" stroke="black" points="736.95,-671.562 678,-684 619.05,-671.562 619.105,-651.438 736.895,-651.438 736.95,-671.562"/>
<text text-anchor="middle" x="678" y="-662.7" font-family="Times Roman,serif" font-size="12.00">dfuserver</text>
</g>
<!-- node151 -->
<g id="node2" class="node"><title>node151</title>
<polygon fill="none" stroke="black" points="857,-108 803,-108 803,-72 857,-72 857,-108"/>
<text text-anchor="middle" x="830" y="-86.7" font-family="Times Roman,serif" font-size="12.00">jlib</text>
</g>
<!-- node73&#45;&gt;node151 -->
<g id="edge2" class="edge"><title>node73&#45;&gt;node151</title>
<path fill="none" stroke="black" d="M618.658,-664.543C493.063,-660.778 204.48,-648.336 114,-612 54.0967,-587.944 0,-586.553 0,-522 0,-522 0,-522 0,-234 0,-187.122 14.9355,-168.339 55,-144 118.468,-105.444 646.331,-93.2611 792.57,-90.6097"/>
<polygon fill="black" stroke="black" points="792.883,-94.1048 802.819,-90.4283 792.759,-87.1059 792.883,-94.1048"/>
</g>
<!-- node153 -->
<g id="node12" class="node"><title>node153</title>
<polygon fill="none" stroke="black" points="428,-180 374,-180 374,-144 428,-144 428,-180"/>
<text text-anchor="middle" x="401" y="-158.7" font-family="Times Roman,serif" font-size="12.00">mp</text>
</g>
<!-- node73&#45;&gt;node153 -->
<g id="edge12" class="edge"><title>node73&#45;&gt;node153</title>
<path fill="none" stroke="black" d="M618.906,-664.365C467.229,-658.574 76,-632.888 76,-522 76,-522 76,-522 76,-378 76,-241.099 278.495,-185.74 363.809,-168.492"/>
<polygon fill="black" stroke="black" points="364.707,-171.883 373.85,-166.53 363.364,-165.013 364.707,-171.883"/>
</g>
<!-- node149 -->
<g id="node15" class="node"><title>node149</title>
<polygon fill="none" stroke="black" points="314,-252 260,-252 260,-216 314,-216 314,-252"/>
<text text-anchor="middle" x="287" y="-230.7" font-family="Times Roman,serif" font-size="12.00">hrpc</text>
</g>
<!-- node73&#45;&gt;node149 -->
<g id="edge16" class="edge"><title>node73&#45;&gt;node149</title>
<path fill="none" stroke="black" d="M618.892,-663.43C526.734,-658.451 354.067,-644.923 303,-612 227.489,-563.318 201.789,-521.37 211,-432 217.702,-366.97 212.242,-346.709 241,-288 245.927,-277.942 253.157,-268.216 260.434,-259.855"/>
<polygon fill="black" stroke="black" points="263.186,-262.033 267.351,-252.291 258.02,-257.309 263.186,-262.033"/>
</g>
<!-- node59 -->
<g id="node19" class="node"><title>node59</title>
<polygon fill="none" stroke="black" points="637,-252 579,-252 579,-216 637,-216 637,-252"/>
<text text-anchor="middle" x="608" y="-230.7" font-family="Times Roman,serif" font-size="12.00">remote</text>
</g>
<!-- node73&#45;&gt;node59 -->
<g id="edge22" class="edge"><title>node73&#45;&gt;node59</title>
<path fill="none" stroke="black" d="M664.754,-651.336C631.095,-612.939 542.837,-504.877 513,-396 498.441,-342.872 544.479,-289.308 577.47,-259.025"/>
<polygon fill="black" stroke="black" points="579.984,-261.472 585.115,-252.202 575.323,-256.249 579.984,-261.472"/>
</g>
<!-- node66 -->
<g id="node23" class="node"><title>node66</title>
<polygon fill="none" stroke="black" points="698,-324 636,-324 636,-288 698,-288 698,-324"/>
<text text-anchor="middle" x="667" y="-302.7" font-family="Times Roman,serif" font-size="12.00">dalibase</text>
</g>
<!-- node73&#45;&gt;node66 -->
<g id="edge28" class="edge"><title>node73&#45;&gt;node66</title>
<path fill="none" stroke="black" d="M678,-651.282C678,-625.221 678,-569.25 678,-522 678,-522 678,-522 678,-450 678,-409.759 673.676,-363.376 670.451,-334.369"/>
<polygon fill="black" stroke="black" points="673.895,-333.688 669.279,-324.151 666.941,-334.485 673.895,-333.688"/>
</g>
<!-- node55 -->
<g id="node29" class="node"><title>node55</title>
<polygon fill="none" stroke="black" points="612,-396 522,-396 522,-360 612,-360 612,-396"/>
<text text-anchor="middle" x="567" y="-374.7" font-family="Times Roman,serif" font-size="12.00">environment</text>
</g>
<!-- node73&#45;&gt;node55 -->
<g id="edge38" class="edge"><title>node73&#45;&gt;node55</title>
<path fill="none" stroke="black" d="M672.343,-651.322C654.761,-605.703 600.864,-465.864 577.731,-405.842"/>
<polygon fill="black" stroke="black" points="580.9,-404.332 574.038,-396.26 574.368,-406.85 580.9,-404.332"/>
</g>
<!-- node54 -->
<g id="node35" class="node"><title>node54</title>
<polygon fill="none" stroke="black" points="1102,-468 1036,-468 1036,-432 1102,-432 1102,-468"/>
<text text-anchor="middle" x="1069" y="-446.7" font-family="Times Roman,serif" font-size="12.00">dllserver</text>
</g>
<!-- node73&#45;&gt;node54 -->
<g id="edge48" class="edge"><title>node73&#45;&gt;node54</title>
<path fill="none" stroke="black" d="M704.568,-651.323C771.348,-614.432 946.632,-517.6 1027.29,-473.042"/>
<polygon fill="black" stroke="black" points="1029.12,-476.028 1036.18,-468.129 1025.74,-469.901 1029.12,-476.028"/>
</g>
<!-- node146 -->
<g id="node42" class="node"><title>node146</title>
<polygon fill="none" stroke="black" points="1770,-396 1716,-396 1716,-360 1770,-360 1770,-396"/>
<text text-anchor="middle" x="1743" y="-374.7" font-family="Times Roman,serif" font-size="12.00">eclrtl</text>
</g>
<!-- node73&#45;&gt;node146 -->
<g id="edge86" class="edge"><title>node73&#45;&gt;node146</title>
<path fill="none" stroke="black" d="M736.965,-665.079C936.901,-661.642 1581.41,-647.866 1667,-612 1737.94,-582.273 1754.1,-544.402 1763,-468 1764.85,-452.107 1765.82,-447.749 1763,-432 1761.4,-423.088 1758.43,-413.724 1755.26,-405.342"/>
<polygon fill="black" stroke="black" points="1758.5,-404.009 1751.52,-396.041 1752,-406.624 1758.5,-404.009"/>
</g>
<!-- node147 -->
<g id="node53" class="node"><title>node147</title>
<polygon fill="none" stroke="black" points="2254,-324 2200,-324 2200,-288 2254,-288 2254,-324"/>
<text text-anchor="middle" x="2227" y="-302.7" font-family="Times Roman,serif" font-size="12.00">nbcd</text>
</g>
<!-- node73&#45;&gt;node147 -->
<g id="edge84" class="edge"><title>node73&#45;&gt;node147</title>
<path fill="none" stroke="black" d="M737.058,-664.468C965.09,-658.403 1781.1,-635.274 1895,-612 2006.61,-589.194 2135,-635.92 2135,-522 2135,-522 2135,-522 2135,-450 2135,-402.274 2171.33,-357.665 2198.33,-331.102"/>
<polygon fill="black" stroke="black" points="2200.85,-333.539 2205.66,-324.102 2196.01,-328.477 2200.85,-333.539"/>
</g>
<!-- node53 -->
<g id="node65" class="node"><title>node53</title>
<polygon fill="none" stroke="black" points="1924,-468 1864,-468 1864,-432 1924,-432 1924,-468"/>
<text text-anchor="middle" x="1894" y="-446.7" font-family="Times Roman,serif" font-size="12.00">deftype</text>
</g>
<!-- node73&#45;&gt;node53 -->
<g id="edge88" class="edge"><title>node73&#45;&gt;node53</title>
<path fill="none" stroke="black" d="M737.164,-665.39C971.982,-662.703 1827.58,-650.311 1870,-612 1906.97,-578.614 1904.58,-515.046 1899.38,-478.247"/>
<polygon fill="black" stroke="black" points="1902.81,-477.52 1897.8,-468.187 1895.9,-478.609 1902.81,-477.52"/>
</g>
<!-- node64 -->
<g id="node70" class="node"><title>node64</title>
<polygon fill="none" stroke="black" points="1714,-540 1646,-540 1646,-504 1714,-504 1714,-540"/>
<text text-anchor="middle" x="1680" y="-518.7" font-family="Times Roman,serif" font-size="12.00">workunit</text>
</g>
<!-- node73&#45;&gt;node64 -->
<g id="edge96" class="edge"><title>node73&#45;&gt;node64</title>
<path fill="none" stroke="black" d="M736.98,-664.377C940.469,-658.559 1602.75,-637.722 1640,-612 1660.46,-597.871 1670.58,-570.75 1675.51,-549.958"/>
<polygon fill="black" stroke="black" points="1678.96,-550.56 1677.59,-540.055 1672.11,-549.123 1678.96,-550.56"/>
</g>
<!-- node103 -->
<g id="node78" class="node"><title>node103</title>
<polygon fill="none" stroke="black" points="1631,-612 1545,-612 1545,-576 1631,-576 1631,-612"/>
<text text-anchor="middle" x="1588" y="-590.7" font-family="Times Roman,serif" font-size="12.00">schedulectrl</text>
</g>
<!-- node73&#45;&gt;node103 -->
<g id="edge110" class="edge"><title>node73&#45;&gt;node103</title>
<path fill="none" stroke="black" d="M737.006,-661.331C903.591,-648.151 1375.7,-610.798 1534.86,-598.205"/>
<polygon fill="black" stroke="black" points="1535.19,-601.689 1544.88,-597.411 1534.64,-594.711 1535.19,-601.689"/>
</g>
<!-- node78 -->
<g id="node89" class="node"><title>node78</title>
<polygon fill="none" stroke="black" points="274,-468 220,-468 220,-432 274,-432 274,-468"/>
<text text-anchor="middle" x="247" y="-446.7" font-family="Times Roman,serif" font-size="12.00">dalift</text>
</g>
<!-- node73&#45;&gt;node78 -->
<g id="edge130" class="edge"><title>node73&#45;&gt;node78</title>
<path fill="none" stroke="black" d="M618.845,-661.646C535.72,-654.657 389.415,-638.916 344,-612 293.993,-582.362 266.722,-516.053 254.684,-478.098"/>
<polygon fill="black" stroke="black" points="257.934,-476.754 251.686,-468.198 251.234,-478.783 257.934,-476.754"/>
</g>
<!-- node150 -->
<g id="node97" class="node"><title>node150</title>
<polygon fill="none" stroke="black" points="2236,-540 2182,-540 2182,-504 2236,-504 2236,-540"/>
<text text-anchor="middle" x="2209" y="-518.7" font-family="Times Roman,serif" font-size="12.00">jhtree</text>
</g>
<!-- node73&#45;&gt;node150 -->
<g id="edge144" class="edge"><title>node73&#45;&gt;node150</title>
<path fill="none" stroke="black" d="M736.936,-665.333C1003.53,-662.123 2086.44,-646.974 2149,-612 2173.06,-598.552 2189.25,-570.945 2198.69,-549.833"/>
<polygon fill="black" stroke="black" points="2202.02,-550.947 2202.67,-540.372 2195.57,-548.232 2202.02,-550.947"/>
</g>
<!-- node74 -->
<g id="node100" class="node"><title>node74</title>
<polygon fill="none" stroke="black" points="407,-612 353,-612 353,-576 407,-576 407,-612"/>
<text text-anchor="middle" x="380" y="-590.7" font-family="Times Roman,serif" font-size="12.00">dfuwu</text>
</g>
<!-- node73&#45;&gt;node74 -->
<g id="edge148" class="edge"><title>node73&#45;&gt;node74</title>
<path fill="none" stroke="black" d="M618.768,-651.689C558.743,-637.186 467.729,-615.196 417.17,-602.981"/>
<polygon fill="black" stroke="black" points="417.862,-599.547 407.319,-600.601 416.218,-606.351 417.862,-599.547"/>
</g>
<!-- node152 -->
<g id="node4" class="node"><title>node152</title>
<polygon fill="none" stroke="black" points="708,-36 668.056,-18 708,-3.55271e-15 747.944,-18 708,-36"/>
<text text-anchor="middle" x="708" y="-14.7" font-family="Times Roman,serif" font-size="12.00">lzma</text>
</g>
<!-- node151&#45;&gt;node152 -->
<g id="edge4" class="edge"><title>node151&#45;&gt;node152</title>
<path fill="none" stroke="black" d="M802.924,-74.0209C782.47,-61.9494 754.554,-45.4743 734.293,-33.5172"/>
<polygon fill="black" stroke="black" points="735.968,-30.4417 725.577,-28.3733 732.41,-36.4701 735.968,-30.4417"/>
</g>
<!-- node187 -->
<g id="node6" class="node"><title>node187</title>
<ellipse fill="none" stroke="black" cx="793" cy="-18" rx="27" ry="18"/>
<text text-anchor="middle" x="793" y="-14.7" font-family="Times Roman,serif" font-size="12.00">dl</text>
</g>
<!-- node151&#45;&gt;node187 -->
<g id="edge6" class="edge"><title>node151&#45;&gt;node187</title>
<path fill="none" stroke="black" d="M820.663,-71.8314C816.405,-63.5451 811.28,-53.5727 806.605,-44.4748"/>
<polygon fill="black" stroke="black" points="809.635,-42.7123 801.951,-35.4177 803.408,-45.9118 809.635,-42.7123"/>
</g>
<!-- node179 -->
<g id="node8" class="node"><title>node179</title>
<ellipse fill="none" stroke="black" cx="868" cy="-18" rx="30.0465" ry="18"/>
<text text-anchor="middle" x="868" y="-14.7" font-family="Times Roman,serif" font-size="12.00">crypt</text>
</g>
<!-- node151&#45;&gt;node179 -->
<g id="edge8" class="edge"><title>node151&#45;&gt;node179</title>
<path fill="none" stroke="black" d="M839.589,-71.8314C843.962,-63.5451 849.226,-53.5727 854.027,-44.4748"/>
<polygon fill="black" stroke="black" points="857.235,-45.8952 858.807,-35.4177 851.044,-42.6279 857.235,-45.8952"/>
</g>
<!-- node188 -->
<g id="node10" class="node"><title>node188</title>
<ellipse fill="none" stroke="black" cx="943" cy="-18" rx="27" ry="18"/>
<text text-anchor="middle" x="943" y="-14.7" font-family="Times Roman,serif" font-size="12.00">rt</text>
</g>
<!-- node151&#45;&gt;node188 -->
<g id="edge10" class="edge"><title>node151&#45;&gt;node188</title>
<path fill="none" stroke="black" d="M857.066,-72.7542C874.414,-61.7009 896.898,-47.375 914.516,-36.1494"/>
<polygon fill="black" stroke="black" points="916.679,-38.9209 923.232,-30.5955 912.918,-33.0174 916.679,-38.9209"/>
</g>
<!-- node153&#45;&gt;node151 -->
<g id="edge14" class="edge"><title>node153&#45;&gt;node151</title>
<path fill="none" stroke="black" d="M428.407,-148.738C432.876,-146.935 437.512,-145.271 442,-144 567.417,-108.48 722.521,-95.8781 792.561,-91.7874"/>
<polygon fill="black" stroke="black" points="792.871,-95.2756 802.66,-91.2227 792.48,-88.2865 792.871,-95.2756"/>
</g>
<!-- node149&#45;&gt;node151 -->
<g id="edge18" class="edge"><title>node149&#45;&gt;node151</title>
<path fill="none" stroke="black" d="M296.972,-215.914C309.724,-194.722 333.923,-160.423 365,-144 439.107,-104.837 695.674,-93.7268 792.562,-90.888"/>
<polygon fill="black" stroke="black" points="792.869,-94.3809 802.767,-90.6026 792.673,-87.3837 792.869,-94.3809"/>
</g>
<!-- node149&#45;&gt;node153 -->
<g id="edge20" class="edge"><title>node149&#45;&gt;node153</title>
<path fill="none" stroke="black" d="M314.016,-216.937C329.238,-207.323 348.449,-195.19 364.942,-184.774"/>
<polygon fill="black" stroke="black" points="367.197,-187.489 373.782,-179.19 363.459,-181.571 367.197,-187.489"/>
</g>
<!-- node59&#45;&gt;node151 -->
<g id="edge24" class="edge"><title>node59&#45;&gt;node151</title>
<path fill="none" stroke="black" d="M636.116,-215.762C676.285,-189.707 750.098,-141.828 794.147,-113.256"/>
<polygon fill="black" stroke="black" points="796.321,-116.018 802.806,-107.639 792.512,-110.145 796.321,-116.018"/>
</g>
<!-- node59&#45;&gt;node153 -->
<g id="edge26" class="edge"><title>node59&#45;&gt;node153</title>
<path fill="none" stroke="black" d="M578.781,-223.837C541.717,-210.945 477.792,-188.71 437.54,-174.71"/>
<polygon fill="black" stroke="black" points="438.69,-171.404 428.095,-171.424 436.39,-178.015 438.69,-171.404"/>
</g>
<!-- node66&#45;&gt;node151 -->
<g id="edge30" class="edge"><title>node66&#45;&gt;node151</title>
<path fill="none" stroke="black" d="M680.617,-287.955C709.441,-249.759 776.721,-160.603 810.262,-116.156"/>
<polygon fill="black" stroke="black" points="813.077,-118.236 816.307,-108.145 807.49,-114.019 813.077,-118.236"/>
</g>
<!-- node66&#45;&gt;node153 -->
<g id="edge32" class="edge"><title>node66&#45;&gt;node153</title>
<path fill="none" stroke="black" d="M668.062,-287.758C668.191,-267.392 665.063,-234.83 646,-216 617,-187.355 499.438,-171.73 438.318,-165.399"/>
<polygon fill="black" stroke="black" points="438.605,-161.911 428.305,-164.393 437.905,-168.876 438.605,-161.911"/>
</g>
<!-- node66&#45;&gt;node149 -->
<g id="edge34" class="edge"><title>node66&#45;&gt;node149</title>
<path fill="none" stroke="black" d="M635.903,-300.108C566.408,-286.94 398.761,-255.176 324.029,-241.016"/>
<polygon fill="black" stroke="black" points="324.597,-237.561 314.12,-239.139 323.294,-244.439 324.597,-237.561"/>
</g>
<!-- node66&#45;&gt;node59 -->
<g id="edge36" class="edge"><title>node66&#45;&gt;node59</title>
<path fill="none" stroke="black" d="M652.112,-287.831C645.247,-279.454 636.97,-269.353 629.449,-260.175"/>
<polygon fill="black" stroke="black" points="632.134,-257.93 623.089,-252.413 626.72,-262.366 632.134,-257.93"/>
</g>
<!-- node55&#45;&gt;node151 -->
<g id="edge40" class="edge"><title>node55&#45;&gt;node151</title>
<path fill="none" stroke="black" d="M562.056,-359.986C554.475,-328.414 543.463,-262.069 570,-216 616.528,-135.224 732.521,-105.324 792.604,-95.0028"/>
<polygon fill="black" stroke="black" points="793.485,-98.4058 802.795,-93.3486 792.363,-91.4962 793.485,-98.4058"/>
</g>
<!-- node55&#45;&gt;node153 -->
<g id="edge42" class="edge"><title>node55&#45;&gt;node153</title>
<path fill="none" stroke="black" d="M521.974,-369.073C495.081,-361.474 462.309,-347.847 442,-324 409.525,-285.868 402.205,-225.492 400.881,-190.215"/>
<polygon fill="black" stroke="black" points="404.378,-190.039 400.641,-180.125 397.38,-190.206 404.378,-190.039"/>
</g>
<!-- node55&#45;&gt;node59 -->
<g id="edge44" class="edge"><title>node55&#45;&gt;node59</title>
<path fill="none" stroke="black" d="M573.026,-359.567C576.372,-349.159 580.544,-335.892 584,-324 589.998,-303.36 596.237,-279.892 600.85,-262.096"/>
<polygon fill="black" stroke="black" points="604.259,-262.895 603.364,-252.337 597.48,-261.148 604.259,-262.895"/>
</g>
<!-- node55&#45;&gt;node66 -->
<g id="edge46" class="edge"><title>node55&#45;&gt;node66</title>
<path fill="none" stroke="black" d="M592.234,-359.831C604.788,-350.793 620.128,-339.748 633.639,-330.02"/>
<polygon fill="black" stroke="black" points="635.704,-332.846 641.774,-324.163 631.613,-327.166 635.704,-332.846"/>
</g>
<!-- node54&#45;&gt;node151 -->
<g id="edge52" class="edge"><title>node54&#45;&gt;node151</title>
<path fill="none" stroke="black" d="M1102.02,-448.178C1196,-442.66 1459.76,-424.724 1485,-396 1495.56,-383.98 1495.31,-372.236 1485,-360 1424.27,-287.915 1365.27,-354.265 1276,-324 1113.86,-269.029 938.854,-161.269 865.501,-113.62"/>
<polygon fill="black" stroke="black" points="867.354,-110.651 857.067,-108.115 863.528,-116.512 867.354,-110.651"/>
</g>
<!-- node54&#45;&gt;node153 -->
<g id="edge54" class="edge"><title>node54&#45;&gt;node153</title>
<path fill="none" stroke="black" d="M1035.68,-445.912C974.779,-437.974 848.307,-419.199 811,-396 724.701,-342.337 756.518,-269.308 670,-216 631.585,-192.331 502.703,-174.12 438.294,-166.252"/>
<polygon fill="black" stroke="black" points="438.509,-162.752 428.163,-165.035 437.674,-169.702 438.509,-162.752"/>
</g>
<!-- node54&#45;&gt;node149 -->
<g id="edge56" class="edge"><title>node54&#45;&gt;node149</title>
<path fill="none" stroke="black" d="M1035.76,-449.028C931.14,-445.617 609.801,-432.367 513,-396 430.808,-365.122 351.332,-296.351 312.198,-259.114"/>
<polygon fill="black" stroke="black" points="314.552,-256.522 304.92,-252.108 309.697,-261.565 314.552,-256.522"/>
</g>
<!-- node54&#45;&gt;node59 -->
<g id="edge74" class="edge"><title>node54&#45;&gt;node59</title>
<path fill="none" stroke="black" d="M1102.13,-441.376C1124.75,-433.569 1153.07,-419.583 1167,-396 1175.14,-382.224 1176.99,-372.496 1167,-360 1101.4,-277.97 763.701,-245.538 647.408,-236.693"/>
<polygon fill="black" stroke="black" points="647.411,-233.184 637.179,-235.933 646.892,-240.164 647.411,-233.184"/>
</g>
<!-- node54&#45;&gt;node66 -->
<g id="edge76" class="edge"><title>node54&#45;&gt;node66</title>
<path fill="none" stroke="black" d="M1035.82,-445.937C969.638,-437.493 823.663,-417.074 778,-396 768.786,-391.748 726.008,-356.167 696.333,-331.041"/>
<polygon fill="black" stroke="black" points="698.239,-328.068 688.349,-324.266 693.709,-333.405 698.239,-328.068"/>
</g>
<!-- node54&#45;&gt;node55 -->
<g id="edge78" class="edge"><title>node54&#45;&gt;node55</title>
<path fill="none" stroke="black" d="M1035.67,-445.22C951.009,-433.077 726.963,-400.943 622.315,-385.934"/>
<polygon fill="black" stroke="black" points="622.663,-382.448 612.268,-384.493 621.669,-389.377 622.663,-382.448"/>
</g>
<!-- node176 -->
<g id="node37" class="node"><title>node176</title>
<ellipse fill="none" stroke="black" cx="1345" cy="-378" rx="130.789" ry="18"/>
<text text-anchor="middle" x="1345" y="-374.7" font-family="Times Roman,serif" font-size="12.00">/usr/lib/x86_64&#45;linux&#45;gnu/libz.so</text>
</g>
<!-- node54&#45;&gt;node176 -->
<g id="edge50" class="edge"><title>node54&#45;&gt;node176</title>
<path fill="none" stroke="black" d="M1102.02,-441.387C1144.27,-430.365 1218.6,-410.974 1273.96,-396.533"/>
<polygon fill="black" stroke="black" points="1274.92,-399.899 1283.71,-393.988 1273.15,-393.126 1274.92,-399.899"/>
</g>
<!-- node54&#45;&gt;node146 -->
<g id="edge58" class="edge"><title>node54&#45;&gt;node146</title>
<path fill="none" stroke="black" d="M1102.42,-446.43C1216,-434.296 1586.65,-394.702 1705.77,-381.977"/>
<polygon fill="black" stroke="black" points="1706.29,-385.442 1715.86,-380.899 1705.54,-378.482 1706.29,-385.442"/>
</g>
<!-- node177 -->
<g id="node59" class="node"><title>node177</title>
<ellipse fill="none" stroke="black" cx="891" cy="-378" rx="70.8437" ry="18"/>
<text text-anchor="middle" x="891" y="-374.7" font-family="Times Roman,serif" font-size="12.00">/usr/lib/libbfd.so</text>
</g>
<!-- node54&#45;&gt;node177 -->
<g id="edge80" class="edge"><title>node54&#45;&gt;node177</title>
<path fill="none" stroke="black" d="M1035.94,-436.626C1008.54,-425.544 969.248,-409.651 938.485,-397.207"/>
<polygon fill="black" stroke="black" points="939.405,-393.804 928.822,-393.299 936.78,-400.293 939.405,-393.804"/>
</g>
<!-- node178 -->
<g id="node61" class="node"><title>node178</title>
<ellipse fill="none" stroke="black" cx="1069" cy="-378" rx="89.0421" ry="18"/>
<text text-anchor="middle" x="1069" y="-374.7" font-family="Times Roman,serif" font-size="12.00">/usr/lib/libiberty_pic.a</text>
</g>
<!-- node54&#45;&gt;node178 -->
<g id="edge82" class="edge"><title>node54&#45;&gt;node178</title>
<path fill="none" stroke="black" d="M1069,-431.831C1069,-424.131 1069,-414.974 1069,-406.417"/>
<polygon fill="black" stroke="black" points="1072.5,-406.413 1069,-396.413 1065.5,-406.413 1072.5,-406.413"/>
</g>
<!-- node146&#45;&gt;node151 -->
<g id="edge68" class="edge"><title>node146&#45;&gt;node151</title>
<path fill="none" stroke="black" d="M1759.51,-359.735C1774.8,-340.522 1792.94,-310.07 1777,-288 1657.75,-122.913 1541.08,-186.927 1342,-144 1167.09,-106.283 952.645,-94.5334 867.455,-91.2028"/>
<polygon fill="black" stroke="black" points="867.371,-87.6972 857.247,-90.8202 867.109,-94.6923 867.371,-87.6972"/>
</g>
<!-- node186 -->
<g id="node44" class="node"><title>node186</title>
<ellipse fill="none" stroke="black" cx="1475" cy="-306" rx="118.939" ry="18"/>
<text text-anchor="middle" x="1475" y="-302.7" font-family="Times Roman,serif" font-size="12.00">/usr/lib/libboost_regex&#45;mt.so</text>
</g>
<!-- node146&#45;&gt;node186 -->
<g id="edge60" class="edge"><title>node146&#45;&gt;node186</title>
<path fill="none" stroke="black" d="M1715.83,-370.7C1675.72,-359.925 1599.38,-339.414 1543.36,-324.365"/>
<polygon fill="black" stroke="black" points="1544.07,-320.931 1533.5,-321.716 1542.25,-327.691 1544.07,-320.931"/>
</g>
<!-- node183 -->
<g id="node46" class="node"><title>node183</title>
<ellipse fill="none" stroke="black" cx="1690" cy="-306" rx="77.9931" ry="18"/>
<text text-anchor="middle" x="1690" y="-302.7" font-family="Times Roman,serif" font-size="12.00">/usr/lib/libicuuc.so</text>
</g>
<!-- node146&#45;&gt;node183 -->
<g id="edge62" class="edge"><title>node146&#45;&gt;node183</title>
<path fill="none" stroke="black" d="M1729.63,-359.831C1723.43,-351.411 1715.95,-341.249 1709.16,-332.034"/>
<polygon fill="black" stroke="black" points="1711.93,-329.892 1703.19,-323.913 1706.3,-334.042 1711.93,-329.892"/>
</g>
<!-- node184 -->
<g id="node48" class="node"><title>node184</title>
<ellipse fill="none" stroke="black" cx="1909" cy="-306" rx="85.1424" ry="18"/>
<text text-anchor="middle" x="1909" y="-302.7" font-family="Times Roman,serif" font-size="12.00">/usr/lib/libicui18n.so</text>
</g>
<!-- node146&#45;&gt;node184 -->
<g id="edge64" class="edge"><title>node146&#45;&gt;node184</title>
<path fill="none" stroke="black" d="M1770.34,-365.972C1774.9,-363.973 1779.58,-361.924 1784,-360 1809.72,-348.8 1838.45,-336.382 1861.87,-326.281"/>
<polygon fill="black" stroke="black" points="1863.43,-329.42 1871.23,-322.247 1860.66,-322.991 1863.43,-329.42"/>
</g>
<!-- node185 -->
<g id="node50" class="node"><title>node185</title>
<ellipse fill="none" stroke="black" cx="2097" cy="-306" rx="85.1424" ry="18"/>
<text text-anchor="middle" x="2097" y="-302.7" font-family="Times Roman,serif" font-size="12.00">/usr/lib/libicudata.so</text>
</g>
<!-- node146&#45;&gt;node185 -->
<g id="edge66" class="edge"><title>node146&#45;&gt;node185</title>
<path fill="none" stroke="black" d="M1770.44,-364.835C1774.9,-363.02 1779.53,-361.326 1784,-360 1878.57,-331.954 1905.89,-341.277 2003,-324 2009.97,-322.759 2017.23,-321.433 2024.48,-320.084"/>
<polygon fill="black" stroke="black" points="2025.16,-323.518 2034.34,-318.235 2023.87,-316.638 2025.16,-323.518"/>
</g>
<!-- node146&#45;&gt;node147 -->
<g id="edge70" class="edge"><title>node146&#45;&gt;node147</title>
<path fill="none" stroke="black" d="M1770.35,-364.54C1774.83,-362.762 1779.48,-361.158 1784,-360 1956.73,-315.719 2014.2,-371.393 2190.08,-323.608"/>
<polygon fill="black" stroke="black" points="2191.22,-326.924 2199.91,-320.864 2189.34,-320.182 2191.22,-326.924"/>
</g>
<!-- node147&#45;&gt;node151 -->
<g id="edge72" class="edge"><title>node147&#45;&gt;node151</title>
<path fill="none" stroke="black" d="M2199.65,-291.745C2134.39,-258.545 1963.5,-176.429 1810,-144 1624.82,-104.879 1023.08,-92.9909 867.167,-90.5308"/>
<polygon fill="black" stroke="black" points="867.189,-87.0309 857.137,-90.376 867.081,-94.03 867.189,-87.0309"/>
</g>
<!-- node53&#45;&gt;node151 -->
<g id="edge90" class="edge"><title>node53&#45;&gt;node151</title>
<path fill="none" stroke="black" d="M1924.12,-445.501C2015.29,-431.049 2282,-382.252 2282,-306 2282,-306 2282,-306 2282,-234 2282,-53.9451 2065.35,-168.686 1887,-144 1683.74,-115.868 1030.6,-95.7205 867.284,-91.0385"/>
<polygon fill="black" stroke="black" points="867.341,-87.5388 857.245,-90.7525 867.141,-94.5359 867.341,-87.5388"/>
</g>
<!-- node53&#45;&gt;node146 -->
<g id="edge94" class="edge"><title>node53&#45;&gt;node146</title>
<path fill="none" stroke="black" d="M1863.81,-435.603C1839.43,-423.98 1805.06,-407.59 1779.21,-395.263"/>
<polygon fill="black" stroke="black" points="1780.63,-392.067 1770.1,-390.922 1777.62,-398.385 1780.63,-392.067"/>
</g>
<!-- node53&#45;&gt;node147 -->
<g id="edge92" class="edge"><title>node53&#45;&gt;node147</title>
<path fill="none" stroke="black" d="M1897.55,-431.871C1902.67,-410.972 1914.23,-377.286 1938,-360 2027.26,-295.097 2079.56,-354.28 2190.05,-323.618"/>
<polygon fill="black" stroke="black" points="2191.27,-326.906 2199.86,-320.703 2189.28,-320.196 2191.27,-326.906"/>
</g>
<!-- node64&#45;&gt;node151 -->
<g id="edge98" class="edge"><title>node64&#45;&gt;node151</title>
<path fill="none" stroke="black" d="M1680.55,-503.79C1680.49,-469.736 1675.04,-396.558 1632,-360 1534.7,-277.342 1442.06,-409.234 1347,-324 1285.76,-269.089 1365.57,-198.535 1304,-144 1271.48,-115.198 973.924,-97.3366 867.571,-91.8275"/>
<polygon fill="black" stroke="black" points="867.474,-88.3181 857.309,-91.3037 867.117,-95.309 867.474,-88.3181"/>
</g>
<!-- node64&#45;&gt;node66 -->
<g id="edge100" class="edge"><title>node64&#45;&gt;node66</title>
<path fill="none" stroke="black" d="M1665.41,-503.935C1635.77,-468.753 1564.51,-391.718 1485,-360 1412.55,-331.1 864.379,-312.099 708.331,-307.234"/>
<polygon fill="black" stroke="black" points="708.309,-303.732 698.206,-306.922 708.093,-310.729 708.309,-303.732"/>
</g>
<!-- node64&#45;&gt;node54 -->
<g id="edge102" class="edge"><title>node64&#45;&gt;node54</title>
<path fill="none" stroke="black" d="M1645.84,-517.975C1541.66,-505.698 1228.01,-468.738 1112.41,-455.115"/>
<polygon fill="black" stroke="black" points="1112.51,-451.603 1102.17,-453.909 1111.69,-458.555 1112.51,-451.603"/>
</g>
<!-- node64&#45;&gt;node146 -->
<g id="edge106" class="edge"><title>node64&#45;&gt;node146</title>
<path fill="none" stroke="black" d="M1687.98,-503.762C1698.82,-478.985 1718.29,-434.471 1730.93,-405.594"/>
<polygon fill="black" stroke="black" points="1734.28,-406.654 1735.09,-396.09 1727.87,-403.848 1734.28,-406.654"/>
</g>
<!-- node64&#45;&gt;node147 -->
<g id="edge104" class="edge"><title>node64&#45;&gt;node147</title>
<path fill="none" stroke="black" d="M1698.28,-503.846C1734.42,-469.209 1819.04,-394.109 1906,-360 2021.84,-314.565 2066.55,-358.716 2190.06,-323.655"/>
<polygon fill="black" stroke="black" points="2191.28,-326.944 2199.88,-320.751 2189.3,-320.232 2191.28,-326.944"/>
</g>
<!-- node64&#45;&gt;node53 -->
<g id="edge108" class="edge"><title>node64&#45;&gt;node53</title>
<path fill="none" stroke="black" d="M1714.38,-510.432C1752.59,-497.579 1814.17,-476.858 1854.37,-463.333"/>
<polygon fill="black" stroke="black" points="1855.49,-466.649 1863.85,-460.143 1853.26,-460.015 1855.49,-466.649"/>
</g>
<!-- node103&#45;&gt;node151 -->
<g id="edge112" class="edge"><title>node103&#45;&gt;node151</title>
<path fill="none" stroke="black" d="M1590.07,-575.924C1591.73,-557.646 1593.16,-528.653 1589,-504 1577.1,-433.442 1576.57,-399.635 1517,-360 1443.26,-310.941 1405.07,-351.852 1321,-324 1149.3,-267.12 1120.29,-219.652 956,-144 926.228,-130.291 892.024,-115.704 866.772,-105.151"/>
<polygon fill="black" stroke="black" points="867.798,-101.787 857.22,-101.174 865.106,-108.249 867.798,-101.787"/>
</g>
<!-- node103&#45;&gt;node59 -->
<g id="edge114" class="edge"><title>node103&#45;&gt;node59</title>
<path fill="none" stroke="black" d="M1585.81,-575.859C1579.39,-531.243 1556.35,-415.757 1485,-360 1410.73,-301.96 1368.83,-340.349 1276,-324 1187.05,-308.334 1165.35,-301.183 1076,-288 917.643,-264.636 727.885,-245.434 647.293,-237.687"/>
<polygon fill="black" stroke="black" points="647.398,-234.181 637.11,-236.713 646.732,-241.149 647.398,-234.181"/>
</g>
<!-- node103&#45;&gt;node66 -->
<g id="edge116" class="edge"><title>node103&#45;&gt;node66</title>
<path fill="none" stroke="black" d="M1544.89,-588.227C1482.41,-579.546 1363.18,-561.799 1263,-540 1023.23,-487.826 930.85,-536.967 730,-396 707.359,-380.109 690.151,-353.338 679.487,-333.114"/>
<polygon fill="black" stroke="black" points="682.551,-331.415 674.918,-324.068 676.302,-334.571 682.551,-331.415"/>
</g>
<!-- node103&#45;&gt;node55 -->
<g id="edge118" class="edge"><title>node103&#45;&gt;node55</title>
<path fill="none" stroke="black" d="M1544.9,-592.958C1382.67,-588.803 814.177,-572.071 740,-540 671.993,-510.597 614.065,-442.409 585.683,-404.544"/>
<polygon fill="black" stroke="black" points="588.184,-402.036 579.437,-396.057 582.546,-406.186 588.184,-402.036"/>
</g>
<!-- node103&#45;&gt;node54 -->
<g id="edge120" class="edge"><title>node103&#45;&gt;node54</title>
<path fill="none" stroke="black" d="M1544.64,-581.97C1446.76,-554.812 1209.6,-489.01 1112.03,-461.938"/>
<polygon fill="black" stroke="black" points="1112.78,-458.514 1102.21,-459.213 1110.91,-465.259 1112.78,-458.514"/>
</g>
<!-- node103&#45;&gt;node146 -->
<g id="edge124" class="edge"><title>node103&#45;&gt;node146</title>
<path fill="none" stroke="black" d="M1631.13,-588.37C1661.7,-581.997 1701.04,-568.493 1723,-540 1752.78,-501.349 1751.55,-441.403 1747.55,-406.294"/>
<polygon fill="black" stroke="black" points="1751,-405.715 1746.25,-396.247 1744.06,-406.613 1751,-405.715"/>
</g>
<!-- node103&#45;&gt;node147 -->
<g id="edge122" class="edge"><title>node103&#45;&gt;node147</title>
<path fill="none" stroke="black" d="M1631.08,-585.621C1673.37,-576.723 1739.3,-561.035 1794,-540 1948.84,-480.45 1975.12,-438.996 2121,-360 2133.94,-352.993 2165.32,-337.055 2190.6,-324.3"/>
<polygon fill="black" stroke="black" points="2192.24,-327.393 2199.59,-319.767 2189.09,-321.143 2192.24,-327.393"/>
</g>
<!-- node103&#45;&gt;node53 -->
<g id="edge126" class="edge"><title>node103&#45;&gt;node53</title>
<path fill="none" stroke="black" d="M1631.32,-584.308C1666.2,-575.521 1715.86,-560.757 1756,-540 1779.69,-527.751 1781.87,-518.88 1804,-504 1820.46,-492.933 1839.19,-481.515 1855.29,-472.046"/>
<polygon fill="black" stroke="black" points="1857.06,-475.065 1863.93,-467 1853.53,-469.02 1857.06,-475.065"/>
</g>
<!-- node103&#45;&gt;node64 -->
<g id="edge128" class="edge"><title>node103&#45;&gt;node64</title>
<path fill="none" stroke="black" d="M1611.22,-575.831C1622.55,-566.963 1636.35,-556.164 1648.6,-546.572"/>
<polygon fill="black" stroke="black" points="1651.07,-549.082 1656.79,-540.163 1646.76,-543.57 1651.07,-549.082"/>
</g>
<!-- node78&#45;&gt;node151 -->
<g id="edge132" class="edge"><title>node78&#45;&gt;node151</title>
<path fill="none" stroke="black" d="M235.459,-431.772C229.685,-421.647 223.249,-408.585 220,-396 199.983,-318.463 187.574,-285.126 228,-216 254.211,-171.18 271.874,-163.489 320,-144 405.983,-109.181 689.888,-95.2678 792.544,-91.2961"/>
<polygon fill="black" stroke="black" points="792.884,-94.7859 802.745,-90.9113 792.62,-87.7909 792.884,-94.7859"/>
</g>
<!-- node78&#45;&gt;node153 -->
<g id="edge134" class="edge"><title>node78&#45;&gt;node153</title>
<path fill="none" stroke="black" d="M240.659,-431.984C226.83,-389.12 199.161,-279.893 251,-216 265.518,-198.106 324.606,-180.645 364.145,-170.624"/>
<polygon fill="black" stroke="black" points="365.122,-173.987 373.984,-168.18 363.435,-167.194 365.122,-173.987"/>
</g>
<!-- node78&#45;&gt;node149 -->
<g id="edge136" class="edge"><title>node78&#45;&gt;node149</title>
<path fill="none" stroke="black" d="M244.472,-431.983C240.869,-401.514 236.301,-338.222 252,-288 255.018,-278.345 260.28,-268.764 265.82,-260.413"/>
<polygon fill="black" stroke="black" points="268.707,-262.393 271.613,-252.204 262.988,-258.357 268.707,-262.393"/>
</g>
<!-- node78&#45;&gt;node59 -->
<g id="edge138" class="edge"><title>node78&#45;&gt;node59</title>
<path fill="none" stroke="black" d="M268.574,-431.93C291.827,-412.88 330.312,-382.563 366,-360 435.064,-316.336 520.932,-274.306 569.6,-251.534"/>
<polygon fill="black" stroke="black" points="571.233,-254.635 578.822,-247.242 568.279,-248.289 571.233,-254.635"/>
</g>
<!-- node78&#45;&gt;node66 -->
<g id="edge140" class="edge"><title>node78&#45;&gt;node66</title>
<path fill="none" stroke="black" d="M274.234,-440.663C346.099,-416.023 541.161,-349.145 626.316,-319.949"/>
<polygon fill="black" stroke="black" points="627.575,-323.217 635.9,-316.663 625.305,-316.595 627.575,-323.217"/>
</g>
<!-- node78&#45;&gt;node55 -->
<g id="edge142" class="edge"><title>node78&#45;&gt;node55</title>
<path fill="none" stroke="black" d="M274.241,-445.219C321.925,-436.66 423.49,-417.585 508,-396 509.255,-395.679 510.523,-395.349 511.8,-395.01"/>
<polygon fill="black" stroke="black" points="512.991,-398.313 521.701,-392.28 511.13,-391.565 512.991,-398.313"/>
</g>
<!-- node150&#45;&gt;node151 -->
<g id="edge146" class="edge"><title>node150&#45;&gt;node151</title>
<path fill="none" stroke="black" d="M2236.15,-503.837C2269.02,-479.441 2320,-432.766 2320,-378 2320,-378 2320,-378 2320,-234 2320,-179.671 2592.85,-240.857 2092,-144 1848.44,-96.8988 1049.71,-90.8742 867.317,-90.11"/>
<polygon fill="black" stroke="black" points="867.174,-86.6095 857.16,-90.0703 867.146,-93.6095 867.174,-86.6095"/>
</g>
<!-- node74&#45;&gt;node151 -->
<g id="edge152" class="edge"><title>node74&#45;&gt;node151</title>
<path fill="none" stroke="black" d="M352.878,-585.893C271.988,-559.865 38,-470.368 38,-306 38,-306 38,-306 38,-234 38,-130.82 151.917,-169.09 252,-144 355.346,-118.092 682.243,-98.145 792.938,-91.9846"/>
<polygon fill="black" stroke="black" points="793.168,-95.4773 802.961,-91.4317 792.783,-88.4879 793.168,-95.4773"/>
</g>
<!-- node74&#45;&gt;node153 -->
<g id="edge154" class="edge"><title>node74&#45;&gt;node153</title>
<path fill="none" stroke="black" d="M371.941,-575.767C360.787,-548.825 342,-496.54 342,-450 342,-450 342,-450 342,-306 342,-262.551 365.284,-216.864 382.597,-188.897"/>
<polygon fill="black" stroke="black" points="385.769,-190.433 388.198,-180.12 379.868,-186.667 385.769,-190.433"/>
</g>
<!-- node74&#45;&gt;node149 -->
<g id="edge156" class="edge"><title>node74&#45;&gt;node149</title>
<path fill="none" stroke="black" d="M356.781,-575.899C346.248,-566.383 334.678,-553.83 328,-540 282.66,-446.106 282.552,-318.216 285.114,-262.214"/>
<polygon fill="black" stroke="black" points="288.621,-262.173 285.65,-252.003 281.631,-261.806 288.621,-262.173"/>
</g>
<!-- node74&#45;&gt;node59 -->
<g id="edge158" class="edge"><title>node74&#45;&gt;node59</title>
<path fill="none" stroke="black" d="M380.845,-575.956C383.576,-534.41 394.983,-430.18 442,-360 459.239,-334.269 527.664,-286.6 571.102,-257.845"/>
<polygon fill="black" stroke="black" points="573.271,-260.607 579.699,-252.184 569.422,-254.76 573.271,-260.607"/>
</g>
<!-- node74&#45;&gt;node66 -->
<g id="edge160" class="edge"><title>node74&#45;&gt;node66</title>
<path fill="none" stroke="black" d="M407.312,-577.041C455.516,-546.022 556.655,-475.934 621,-396 636.203,-377.114 648.395,-352.397 656.398,-333.646"/>
<polygon fill="black" stroke="black" points="659.723,-334.761 660.299,-324.182 653.252,-332.093 659.723,-334.761"/>
</g>
<!-- node74&#45;&gt;node64 -->
<g id="edge150" class="edge"><title>node74&#45;&gt;node64</title>
<path fill="none" stroke="black" d="M407.152,-592.496C571.204,-583.41 1429.86,-535.854 1635.64,-524.457"/>
<polygon fill="black" stroke="black" points="1635.99,-527.943 1645.78,-523.895 1635.6,-520.954 1635.99,-527.943"/>
</g>
</g>
</svg>
