<?xml version="1.0" encoding="UTF-8" standalone="no"?>
<!DOCTYPE svg PUBLIC "-//W3C//DTD SVG 1.1//EN"
 "http://www.w3.org/Graphics/SVG/1.1/DTD/svg11.dtd">
<!-- Generated by graphviz version 2.26.3 (20100126.1600)
 -->
<!-- Title: GG Pages: 1 -->
<svg width="1784pt" height="332pt"
 viewBox="0.00 0.00 1784.00 332.00" xmlns="http://www.w3.org/2000/svg" xmlns:xlink="http://www.w3.org/1999/xlink">
<g id="graph1" class="graph" transform="scale(1 1) rotate(0) translate(4 328)">
<title>GG</title>
<polygon fill="white" stroke="white" points="-4,5 -4,-328 1781,-328 1781,5 -4,5"/>
<!-- node114 -->
<g id="node1" class="node"><title>node114</title>
<polygon fill="none" stroke="black" points="507,-324 421,-324 421,-288 507,-288 507,-324"/>
<text text-anchor="middle" x="464" y="-302.7" font-family="Times Roman,serif" font-size="12.00">ws_account</text>
</g>
<!-- node151 -->
<g id="node2" class="node"><title>node151</title>
<polygon fill="none" stroke="black" points="646,-108 592,-108 592,-72 646,-72 646,-108"/>
<text text-anchor="middle" x="619" y="-86.7" font-family="Times Roman,serif" font-size="12.00">jlib</text>
</g>
<!-- node114&#45;&gt;node151 -->
<g id="edge2" class="edge"><title>node114&#45;&gt;node151</title>
<path fill="none" stroke="black" d="M460.508,-287.909C455.315,-255.327 449.459,-186.25 483,-144 510.535,-109.316 536.168,-124.367 582.163,-107.847"/>
<polygon fill="black" stroke="black" points="583.628,-111.031 591.64,-104.097 581.053,-104.522 583.628,-111.031"/>
</g>
<!-- node160 -->
<g id="node12" class="node"><title>node160</title>
<polygon fill="none" stroke="black" points="322,-180 268,-180 268,-144 322,-144 322,-180"/>
<text text-anchor="middle" x="295" y="-158.7" font-family="Times Roman,serif" font-size="12.00">xmllib</text>
</g>
<!-- node114&#45;&gt;node160 -->
<g id="edge12" class="edge"><title>node114&#45;&gt;node160</title>
<path fill="none" stroke="black" d="M420.734,-295.278C394.754,-287.019 362.489,-273.329 340,-252 322.082,-235.007 310.232,-209.338 303.211,-189.757"/>
<polygon fill="black" stroke="black" points="306.484,-188.509 299.973,-180.15 299.85,-190.744 306.484,-188.509"/>
</g>
<!-- node110 -->
<g id="node21" class="node"><title>node110</title>
<polygon fill="none" stroke="black" points="411,-252 349,-252 349,-216 411,-216 411,-252"/>
<text text-anchor="middle" x="380" y="-230.7" font-family="Times Roman,serif" font-size="12.00">esphttp</text>
</g>
<!-- node114&#45;&gt;node110 -->
<g id="edge22" class="edge"><title>node114&#45;&gt;node110</title>
<path fill="none" stroke="black" d="M442.803,-287.831C432.557,-279.048 420.1,-268.371 408.99,-258.849"/>
<polygon fill="black" stroke="black" points="411.06,-256.013 401.19,-252.163 406.505,-261.328 411.06,-256.013"/>
</g>
<!-- node155 -->
<g id="node28" class="node"><title>node155</title>
<polygon fill="none" stroke="black" points="762,-252 670,-252 670,-216 762,-216 762,-252"/>
<text text-anchor="middle" x="716" y="-230.7" font-family="Times Roman,serif" font-size="12.00">LdapSecurity</text>
</g>
<!-- node114&#45;&gt;node155 -->
<g id="edge34" class="edge"><title>node114&#45;&gt;node155</title>
<path fill="none" stroke="black" d="M507.034,-293.705C549.205,-281.656 613.696,-263.23 659.874,-250.036"/>
<polygon fill="black" stroke="black" points="661.074,-253.333 669.728,-247.221 659.151,-246.603 661.074,-253.333"/>
</g>
<!-- node156 -->
<g id="node35" class="node"><title>node156</title>
<polygon fill="none" stroke="black" points="1283,-252 1189,-252 1189,-216 1283,-216 1283,-252"/>
<text text-anchor="middle" x="1236" y="-230.7" font-family="Times Roman,serif" font-size="12.00">securesocket</text>
</g>
<!-- node114&#45;&gt;node156 -->
<g id="edge42" class="edge"><title>node114&#45;&gt;node156</title>
<path fill="none" stroke="black" d="M507.16,-301.975C638.02,-289.77 1030.41,-253.174 1178.54,-239.359"/>
<polygon fill="black" stroke="black" points="1179.15,-242.818 1188.78,-238.404 1178.5,-235.848 1179.15,-242.818"/>
</g>
<!-- node152 -->
<g id="node4" class="node"><title>node152</title>
<polygon fill="none" stroke="black" points="496,-36 456.056,-18 496,-3.55271e-15 535.944,-18 496,-36"/>
<text text-anchor="middle" x="496" y="-14.7" font-family="Times Roman,serif" font-size="12.00">lzma</text>
</g>
<!-- node151&#45;&gt;node152 -->
<g id="edge4" class="edge"><title>node151&#45;&gt;node152</title>
<path fill="none" stroke="black" d="M591.702,-74.0209C571.08,-61.9494 542.935,-45.4743 522.508,-33.5172"/>
<polygon fill="black" stroke="black" points="524.119,-30.4046 513.721,-28.3733 520.583,-36.4457 524.119,-30.4046"/>
</g>
<!-- node187 -->
<g id="node6" class="node"><title>node187</title>
<ellipse fill="none" stroke="black" cx="581" cy="-18" rx="27" ry="18"/>
<text text-anchor="middle" x="581" y="-14.7" font-family="Times Roman,serif" font-size="12.00">dl</text>
</g>
<!-- node151&#45;&gt;node187 -->
<g id="edge6" class="edge"><title>node151&#45;&gt;node187</title>
<path fill="none" stroke="black" d="M609.411,-71.8314C605.038,-63.5451 599.774,-53.5727 594.973,-44.4748"/>
<polygon fill="black" stroke="black" points="597.956,-42.6279 590.193,-35.4177 591.765,-45.8952 597.956,-42.6279"/>
</g>
<!-- node179 -->
<g id="node8" class="node"><title>node179</title>
<ellipse fill="none" stroke="black" cx="656" cy="-18" rx="30.0465" ry="18"/>
<text text-anchor="middle" x="656" y="-14.7" font-family="Times Roman,serif" font-size="12.00">crypt</text>
</g>
<!-- node151&#45;&gt;node179 -->
<g id="edge8" class="edge"><title>node151&#45;&gt;node179</title>
<path fill="none" stroke="black" d="M628.337,-71.8314C632.595,-63.5451 637.72,-53.5727 642.395,-44.4748"/>
<polygon fill="black" stroke="black" points="645.592,-45.9118 647.049,-35.4177 639.365,-42.7123 645.592,-45.9118"/>
</g>
<!-- node188 -->
<g id="node10" class="node"><title>node188</title>
<ellipse fill="none" stroke="black" cx="731" cy="-18" rx="27" ry="18"/>
<text text-anchor="middle" x="731" y="-14.7" font-family="Times Roman,serif" font-size="12.00">rt</text>
</g>
<!-- node151&#45;&gt;node188 -->
<g id="edge10" class="edge"><title>node151&#45;&gt;node188</title>
<path fill="none" stroke="black" d="M646.112,-72.5708C663.313,-61.5133 685.52,-47.237 702.907,-36.06"/>
<polygon fill="black" stroke="black" points="704.988,-38.8829 711.507,-30.5312 701.203,-32.9946 704.988,-38.8829"/>
</g>
<!-- node160&#45;&gt;node151 -->
<g id="edge20" class="edge"><title>node160&#45;&gt;node151</title>
<path fill="none" stroke="black" d="M322.458,-157.851C381.356,-148.798 518.976,-126.791 582.012,-107.725"/>
<polygon fill="black" stroke="black" points="583.372,-110.964 591.82,-104.571 581.229,-104.3 583.372,-110.964"/>
</g>
<!-- node180 -->
<g id="node14" class="node"><title>node180</title>
<ellipse fill="none" stroke="black" cx="489" cy="-90" rx="85.1424" ry="18"/>
<text text-anchor="middle" x="489" y="-86.7" font-family="Times Roman,serif" font-size="12.00">/usr/lib/libxalan&#45;c.so</text>
</g>
<!-- node160&#45;&gt;node180 -->
<g id="edge14" class="edge"><title>node160&#45;&gt;node180</title>
<path fill="none" stroke="black" d="M322.384,-151.837C352.106,-140.806 400.259,-122.935 437.174,-109.234"/>
<polygon fill="black" stroke="black" points="438.622,-112.43 446.78,-105.669 436.187,-105.868 438.622,-112.43"/>
</g>
<!-- node181 -->
<g id="node16" class="node"><title>node181</title>
<ellipse fill="none" stroke="black" cx="93" cy="-90" rx="93.0912" ry="18"/>
<text text-anchor="middle" x="93" y="-86.7" font-family="Times Roman,serif" font-size="12.00">/usr/lib/libxalanMsg.so</text>
</g>
<!-- node160&#45;&gt;node181 -->
<g id="edge16" class="edge"><title>node160&#45;&gt;node181</title>
<path fill="none" stroke="black" d="M267.757,-152.29C236.982,-141.32 186.116,-123.19 147.176,-109.31"/>
<polygon fill="black" stroke="black" points="148.147,-105.941 137.552,-105.88 145.797,-112.534 148.147,-105.941"/>
</g>
<!-- node182 -->
<g id="node18" class="node"><title>node182</title>
<ellipse fill="none" stroke="black" cx="295" cy="-90" rx="90.9919" ry="18"/>
<text text-anchor="middle" x="295" y="-86.7" font-family="Times Roman,serif" font-size="12.00">/usr/lib/libxerces&#45;c.so</text>
</g>
<!-- node160&#45;&gt;node182 -->
<g id="edge18" class="edge"><title>node160&#45;&gt;node182</title>
<path fill="none" stroke="black" d="M295,-143.831C295,-136.131 295,-126.974 295,-118.417"/>
<polygon fill="black" stroke="black" points="298.5,-118.413 295,-108.413 291.5,-118.413 298.5,-118.413"/>
</g>
<!-- node110&#45;&gt;node151 -->
<g id="edge30" class="edge"><title>node110&#45;&gt;node151</title>
<path fill="none" stroke="black" d="M389.313,-215.937C400.818,-195.424 422.312,-162.42 450,-144 498.397,-111.802 523.189,-127.937 581.997,-107.879"/>
<polygon fill="black" stroke="black" points="583.535,-111.043 591.736,-104.336 581.142,-104.465 583.535,-111.043"/>
</g>
<!-- node110&#45;&gt;node160 -->
<g id="edge32" class="edge"><title>node110&#45;&gt;node160</title>
<path fill="none" stroke="black" d="M358.551,-215.831C348.182,-207.048 335.577,-196.371 324.335,-186.849"/>
<polygon fill="black" stroke="black" points="326.335,-183.956 316.442,-180.163 321.81,-189.297 326.335,-183.956"/>
</g>
<!-- node110&#45;&gt;node180 -->
<g id="edge24" class="edge"><title>node110&#45;&gt;node180</title>
<path fill="none" stroke="black" d="M383.048,-215.87C387.031,-196.493 395.532,-165.644 412,-144 421.479,-131.542 434.658,-120.841 447.436,-112.329"/>
<polygon fill="black" stroke="black" points="449.598,-115.102 456.168,-106.791 445.848,-109.191 449.598,-115.102"/>
</g>
<!-- node110&#45;&gt;node181 -->
<g id="edge26" class="edge"><title>node110&#45;&gt;node181</title>
<path fill="none" stroke="black" d="M348.861,-220.888C324.241,-210.333 289.12,-194.859 259,-180 214.793,-158.192 165.249,-130.953 131.888,-112.187"/>
<polygon fill="black" stroke="black" points="133.354,-108.996 122.925,-107.13 129.915,-115.092 133.354,-108.996"/>
</g>
<!-- node110&#45;&gt;node182 -->
<g id="edge28" class="edge"><title>node110&#45;&gt;node182</title>
<path fill="none" stroke="black" d="M370.704,-215.803C361.177,-197.431 345.715,-168.367 331,-144 325.553,-134.98 319.282,-125.345 313.515,-116.746"/>
<polygon fill="black" stroke="black" points="316.252,-114.546 307.744,-108.231 310.457,-118.473 316.252,-114.546"/>
</g>
<!-- node155&#45;&gt;node151 -->
<g id="edge36" class="edge"><title>node155&#45;&gt;node151</title>
<path fill="none" stroke="black" d="M748.278,-215.841C760.943,-206.852 774.082,-194.742 781,-180 787.797,-165.516 790.355,-156.98 781,-144 766.196,-123.46 699.029,-106.29 655.963,-97.1365"/>
<polygon fill="black" stroke="black" points="656.613,-93.6967 646.11,-95.092 655.19,-100.551 656.613,-93.6967"/>
</g>
<!-- node189 -->
<g id="node31" class="node"><title>node189</title>
<ellipse fill="none" stroke="black" cx="977" cy="-162" rx="148.987" ry="18"/>
<text text-anchor="middle" x="977" y="-158.7" font-family="Times Roman,serif" font-size="12.00">/usr/lib/x86_64&#45;linux&#45;gnu/libldap_r.so</text>
</g>
<!-- node155&#45;&gt;node189 -->
<g id="edge38" class="edge"><title>node155&#45;&gt;node189</title>
<path fill="none" stroke="black" d="M762.061,-221.294C802.281,-210.198 861.254,-193.93 907.259,-181.239"/>
<polygon fill="black" stroke="black" points="908.454,-184.54 917.164,-178.507 906.593,-177.792 908.454,-184.54"/>
</g>
<!-- node190 -->
<g id="node33" class="node"><title>node190</title>
<ellipse fill="none" stroke="black" cx="632" cy="-162" rx="139.888" ry="18"/>
<text text-anchor="middle" x="632" y="-158.7" font-family="Times Roman,serif" font-size="12.00">/usr/lib/x86_64&#45;linux&#45;gnu/liblber.so</text>
</g>
<!-- node155&#45;&gt;node190 -->
<g id="edge40" class="edge"><title>node155&#45;&gt;node190</title>
<path fill="none" stroke="black" d="M694.803,-215.831C684.478,-206.981 671.909,-196.208 660.736,-186.631"/>
<polygon fill="black" stroke="black" points="662.769,-183.764 652.899,-179.913 658.214,-189.079 662.769,-183.764"/>
</g>
<!-- node156&#45;&gt;node151 -->
<g id="edge44" class="edge"><title>node156&#45;&gt;node151</title>
<path fill="none" stroke="black" d="M1214.19,-215.768C1201.96,-205.423 1186.48,-192.152 1173,-180 1155.72,-164.425 1156.13,-153.726 1135,-144 1049.55,-104.675 760.072,-93.5736 656.356,-90.8185"/>
<polygon fill="black" stroke="black" points="656.145,-87.3121 646.06,-90.5565 655.967,-94.3098 656.145,-87.3121"/>
</g>
<!-- node191 -->
<g id="node38" class="node"><title>node191</title>
<ellipse fill="none" stroke="black" cx="1319" cy="-162" rx="137.138" ry="18"/>
<text text-anchor="middle" x="1319" y="-158.7" font-family="Times Roman,serif" font-size="12.00">/usr/lib/x86_64&#45;linux&#45;gnu/libssl.so</text>
</g>
<!-- node156&#45;&gt;node191 -->
<g id="edge46" class="edge"><title>node156&#45;&gt;node191</title>
<path fill="none" stroke="black" d="M1256.94,-215.831C1267.15,-206.981 1279.57,-196.208 1290.61,-186.631"/>
<polygon fill="black" stroke="black" points="1293.09,-189.11 1298.35,-179.913 1288.5,-183.822 1293.09,-189.11"/>
</g>
<!-- node192 -->
<g id="node40" class="node"><title>node192</title>
<ellipse fill="none" stroke="black" cx="1625" cy="-162" rx="150.937" ry="18"/>
<text text-anchor="middle" x="1625" y="-158.7" font-family="Times Roman,serif" font-size="12.00">/usr/lib/x86_64&#45;linux&#45;gnu/libcrypto.so</text>
</g>
<!-- node156&#45;&gt;node192 -->
<g id="edge48" class="edge"><title>node156&#45;&gt;node192</title>
<path fill="none" stroke="black" d="M1283.31,-225.243C1345.15,-213.797 1454.81,-193.5 1533.23,-178.986"/>
<polygon fill="black" stroke="black" points="1533.91,-182.419 1543.11,-177.157 1532.64,-175.535 1533.91,-182.419"/>
</g>
</g>
</svg>
