<?xml version="1.0" encoding="UTF-8" standalone="no"?>
<!DOCTYPE svg PUBLIC "-//W3C//DTD SVG 1.1//EN"
 "http://www.w3.org/Graphics/SVG/1.1/DTD/svg11.dtd">
<!-- Generated by graphviz version 2.26.3 (20100126.1600)
 -->
<!-- Title: GG Pages: 1 -->
<svg width="1897pt" height="692pt"
 viewBox="0.00 0.00 1897.00 692.00" xmlns="http://www.w3.org/2000/svg" xmlns:xlink="http://www.w3.org/1999/xlink">
<g id="graph1" class="graph" transform="scale(1 1) rotate(0) translate(4 688)">
<title>GG</title>
<polygon fill="white" stroke="white" points="-4,5 -4,-688 1894,-688 1894,5 -4,5"/>
<!-- node102 -->
<g id="node1" class="node"><title>node102</title>
<polygon fill="none" stroke="black" points="784.05,-671.562 701,-684 617.95,-671.562 618.027,-651.438 783.973,-651.438 784.05,-671.562"/>
<text text-anchor="middle" x="701" y="-662.7" font-family="Times Roman,serif" font-size="12.00">scheduleadmin</text>
</g>
<!-- node151 -->
<g id="node2" class="node"><title>node151</title>
<polygon fill="none" stroke="black" points="862,-108 808,-108 808,-72 862,-72 862,-108"/>
<text text-anchor="middle" x="835" y="-86.7" font-family="Times Roman,serif" font-size="12.00">jlib</text>
</g>
<!-- node102&#45;&gt;node151 -->
<g id="edge2" class="edge"><title>node102&#45;&gt;node151</title>
<path fill="none" stroke="black" d="M617.941,-664.155C478.399,-660.096 203.396,-647.707 114,-612 54.0521,-588.055 7.10543e-15,-586.553 0,-522 0,-522 0,-522 0,-234 7.10543e-15,-104.976 149.698,-170.361 276,-144 469.716,-103.569 707.639,-93.3046 797.907,-90.7868"/>
<polygon fill="black" stroke="black" points="798.018,-94.2852 807.923,-90.5228 797.834,-87.2876 798.018,-94.2852"/>
</g>
<!-- node59 -->
<g id="node12" class="node"><title>node59</title>
<polygon fill="none" stroke="black" points="289,-252 231,-252 231,-216 289,-216 289,-252"/>
<text text-anchor="middle" x="260" y="-230.7" font-family="Times Roman,serif" font-size="12.00">remote</text>
</g>
<!-- node102&#45;&gt;node59 -->
<g id="edge12" class="edge"><title>node102&#45;&gt;node59</title>
<path fill="none" stroke="black" d="M617.682,-664.092C447.522,-657.928 76,-631.888 76,-522 76,-522 76,-522 76,-378 76,-304.871 167.249,-263.327 221.229,-245.148"/>
<polygon fill="black" stroke="black" points="222.416,-248.443 230.845,-242.024 220.252,-241.786 222.416,-248.443"/>
</g>
<!-- node66 -->
<g id="node18" class="node"><title>node66</title>
<polygon fill="none" stroke="black" points="763,-324 701,-324 701,-288 763,-288 763,-324"/>
<text text-anchor="middle" x="732" y="-302.7" font-family="Times Roman,serif" font-size="12.00">dalibase</text>
</g>
<!-- node102&#45;&gt;node66 -->
<g id="edge20" class="edge"><title>node102&#45;&gt;node66</title>
<path fill="none" stroke="black" d="M617.987,-653.56C500.014,-633.505 298,-589.332 298,-522 298,-522 298,-522 298,-450 298,-409.118 286.978,-387.749 317,-360 344.188,-334.871 591.155,-315.525 690.697,-308.684"/>
<polygon fill="black" stroke="black" points="691.234,-312.155 700.973,-307.986 690.759,-305.171 691.234,-312.155"/>
</g>
<!-- node55 -->
<g id="node27" class="node"><title>node55</title>
<polygon fill="none" stroke="black" points="232,-396 142,-396 142,-360 232,-360 232,-396"/>
<text text-anchor="middle" x="187" y="-374.7" font-family="Times Roman,serif" font-size="12.00">environment</text>
</g>
<!-- node102&#45;&gt;node55 -->
<g id="edge34" class="edge"><title>node102&#45;&gt;node55</title>
<path fill="none" stroke="black" d="M617.558,-659.672C503.479,-650.345 309.941,-631.856 284,-612 217.63,-561.199 196.344,-456.856 189.781,-406.47"/>
<polygon fill="black" stroke="black" points="193.227,-405.805 188.563,-396.293 186.277,-406.638 193.227,-405.805"/>
</g>
<!-- node54 -->
<g id="node33" class="node"><title>node54</title>
<polygon fill="none" stroke="black" points="763,-468 697,-468 697,-432 763,-432 763,-468"/>
<text text-anchor="middle" x="730" y="-446.7" font-family="Times Roman,serif" font-size="12.00">dllserver</text>
</g>
<!-- node102&#45;&gt;node54 -->
<g id="edge44" class="edge"><title>node102&#45;&gt;node54</title>
<path fill="none" stroke="black" d="M702.993,-651.153C707.778,-615.518 719.976,-524.665 726.209,-478.239"/>
<polygon fill="black" stroke="black" points="729.688,-478.623 727.55,-468.246 722.751,-477.691 729.688,-478.623"/>
</g>
<!-- node146 -->
<g id="node40" class="node"><title>node146</title>
<polygon fill="none" stroke="black" points="1286,-396 1232,-396 1232,-360 1286,-360 1286,-396"/>
<text text-anchor="middle" x="1259" y="-374.7" font-family="Times Roman,serif" font-size="12.00">eclrtl</text>
</g>
<!-- node102&#45;&gt;node146 -->
<g id="edge82" class="edge"><title>node102&#45;&gt;node146</title>
<path fill="none" stroke="black" d="M784.354,-663.607C890.121,-659.159 1065.27,-646.654 1119,-612 1195.11,-562.908 1235.65,-456.5 1251.28,-405.863"/>
<polygon fill="black" stroke="black" points="1254.65,-406.812 1254.16,-396.229 1247.94,-404.808 1254.65,-406.812"/>
</g>
<!-- node147 -->
<g id="node51" class="node"><title>node147</title>
<polygon fill="none" stroke="black" points="1823,-324 1769,-324 1769,-288 1823,-288 1823,-324"/>
<text text-anchor="middle" x="1796" y="-302.7" font-family="Times Roman,serif" font-size="12.00">nbcd</text>
</g>
<!-- node102&#45;&gt;node147 -->
<g id="edge80" class="edge"><title>node102&#45;&gt;node147</title>
<path fill="none" stroke="black" d="M784.029,-661.84C1012.21,-649.307 1632,-607.406 1632,-522 1632,-522 1632,-522 1632,-450 1632,-382.649 1711.07,-339.403 1759.4,-319.258"/>
<polygon fill="black" stroke="black" points="1760.95,-322.408 1768.92,-315.423 1758.34,-315.915 1760.95,-322.408"/>
</g>
<!-- node53 -->
<g id="node63" class="node"><title>node53</title>
<polygon fill="none" stroke="black" points="1440,-468 1380,-468 1380,-432 1440,-432 1440,-468"/>
<text text-anchor="middle" x="1410" y="-446.7" font-family="Times Roman,serif" font-size="12.00">deftype</text>
</g>
<!-- node102&#45;&gt;node53 -->
<g id="edge84" class="edge"><title>node102&#45;&gt;node53</title>
<path fill="none" stroke="black" d="M784.232,-663.836C922.191,-659.32 1191.78,-646.293 1280,-612 1329.38,-592.804 1343.08,-582.285 1375,-540 1388.98,-521.484 1398.07,-496.69 1403.47,-477.814"/>
<polygon fill="black" stroke="black" points="1406.89,-478.579 1406.11,-468.014 1400.13,-476.764 1406.89,-478.579"/>
</g>
<!-- node64 -->
<g id="node68" class="node"><title>node64</title>
<polygon fill="none" stroke="black" points="1334,-540 1266,-540 1266,-504 1334,-504 1334,-540"/>
<text text-anchor="middle" x="1300" y="-518.7" font-family="Times Roman,serif" font-size="12.00">workunit</text>
</g>
<!-- node102&#45;&gt;node64 -->
<g id="edge92" class="edge"><title>node102&#45;&gt;node64</title>
<path fill="none" stroke="black" d="M784.133,-662.157C928.539,-654.852 1214.02,-637.39 1252,-612 1273.38,-597.707 1285.95,-570.665 1292.83,-549.939"/>
<polygon fill="black" stroke="black" points="1296.18,-550.942 1295.76,-540.356 1289.49,-548.895 1296.18,-550.942"/>
</g>
<!-- node103 -->
<g id="node76" class="node"><title>node103</title>
<polygon fill="none" stroke="black" points="1110,-612 1024,-612 1024,-576 1110,-576 1110,-612"/>
<text text-anchor="middle" x="1067" y="-590.7" font-family="Times Roman,serif" font-size="12.00">schedulectrl</text>
</g>
<!-- node102&#45;&gt;node103 -->
<g id="edge106" class="edge"><title>node102&#45;&gt;node103</title>
<path fill="none" stroke="black" d="M775.066,-651.43C845.901,-637.495 950.974,-616.825 1013.85,-604.455"/>
<polygon fill="black" stroke="black" points="1014.81,-607.833 1023.95,-602.469 1013.46,-600.965 1014.81,-607.833"/>
</g>
<!-- node152 -->
<g id="node4" class="node"><title>node152</title>
<polygon fill="none" stroke="black" points="713,-36 673.056,-18 713,-3.55271e-15 752.944,-18 713,-36"/>
<text text-anchor="middle" x="713" y="-14.7" font-family="Times Roman,serif" font-size="12.00">lzma</text>
</g>
<!-- node151&#45;&gt;node152 -->
<g id="edge4" class="edge"><title>node151&#45;&gt;node152</title>
<path fill="none" stroke="black" d="M807.924,-74.0209C787.47,-61.9494 759.554,-45.4743 739.293,-33.5172"/>
<polygon fill="black" stroke="black" points="740.968,-30.4417 730.577,-28.3733 737.41,-36.4701 740.968,-30.4417"/>
</g>
<!-- node187 -->
<g id="node6" class="node"><title>node187</title>
<ellipse fill="none" stroke="black" cx="798" cy="-18" rx="27" ry="18"/>
<text text-anchor="middle" x="798" y="-14.7" font-family="Times Roman,serif" font-size="12.00">dl</text>
</g>
<!-- node151&#45;&gt;node187 -->
<g id="edge6" class="edge"><title>node151&#45;&gt;node187</title>
<path fill="none" stroke="black" d="M825.663,-71.8314C821.405,-63.5451 816.28,-53.5727 811.605,-44.4748"/>
<polygon fill="black" stroke="black" points="814.635,-42.7123 806.951,-35.4177 808.408,-45.9118 814.635,-42.7123"/>
</g>
<!-- node179 -->
<g id="node8" class="node"><title>node179</title>
<ellipse fill="none" stroke="black" cx="873" cy="-18" rx="30.0465" ry="18"/>
<text text-anchor="middle" x="873" y="-14.7" font-family="Times Roman,serif" font-size="12.00">crypt</text>
</g>
<!-- node151&#45;&gt;node179 -->
<g id="edge8" class="edge"><title>node151&#45;&gt;node179</title>
<path fill="none" stroke="black" d="M844.589,-71.8314C848.962,-63.5451 854.226,-53.5727 859.027,-44.4748"/>
<polygon fill="black" stroke="black" points="862.235,-45.8952 863.807,-35.4177 856.044,-42.6279 862.235,-45.8952"/>
</g>
<!-- node188 -->
<g id="node10" class="node"><title>node188</title>
<ellipse fill="none" stroke="black" cx="948" cy="-18" rx="27" ry="18"/>
<text text-anchor="middle" x="948" y="-14.7" font-family="Times Roman,serif" font-size="12.00">rt</text>
</g>
<!-- node151&#45;&gt;node188 -->
<g id="edge10" class="edge"><title>node151&#45;&gt;node188</title>
<path fill="none" stroke="black" d="M862.066,-72.7542C879.414,-61.7009 901.898,-47.375 919.516,-36.1494"/>
<polygon fill="black" stroke="black" points="921.679,-38.9209 928.232,-30.5955 917.918,-33.0174 921.679,-38.9209"/>
</g>
<!-- node59&#45;&gt;node151 -->
<g id="edge14" class="edge"><title>node59&#45;&gt;node151</title>
<path fill="none" stroke="black" d="M289.305,-226.661C385.427,-202.589 691.073,-126.044 797.795,-99.3174"/>
<polygon fill="black" stroke="black" points="798.93,-102.641 807.78,-96.8169 797.229,-95.8511 798.93,-102.641"/>
</g>
<!-- node153 -->
<g id="node15" class="node"><title>node153</title>
<polygon fill="none" stroke="black" points="711,-180 657,-180 657,-144 711,-144 711,-180"/>
<text text-anchor="middle" x="684" y="-158.7" font-family="Times Roman,serif" font-size="12.00">mp</text>
</g>
<!-- node59&#45;&gt;node153 -->
<g id="edge16" class="edge"><title>node59&#45;&gt;node153</title>
<path fill="none" stroke="black" d="M289.143,-229.051C364.142,-216.315 563.738,-182.422 646.86,-168.307"/>
<polygon fill="black" stroke="black" points="647.594,-171.732 656.867,-166.607 646.422,-164.831 647.594,-171.732"/>
</g>
<!-- node153&#45;&gt;node151 -->
<g id="edge18" class="edge"><title>node153&#45;&gt;node151</title>
<path fill="none" stroke="black" d="M711.345,-148.961C735.825,-137.289 771.897,-120.089 798.771,-107.275"/>
<polygon fill="black" stroke="black" points="800.338,-110.405 807.858,-102.942 797.326,-104.086 800.338,-110.405"/>
</g>
<!-- node66&#45;&gt;node151 -->
<g id="edge22" class="edge"><title>node66&#45;&gt;node151</title>
<path fill="none" stroke="black" d="M738.608,-287.827C745.434,-269.473 756.663,-240.423 768,-216 784.188,-181.129 805.368,-142.237 819.541,-117.011"/>
<polygon fill="black" stroke="black" points="822.733,-118.477 824.605,-108.049 816.638,-115.034 822.733,-118.477"/>
</g>
<!-- node66&#45;&gt;node59 -->
<g id="edge32" class="edge"><title>node66&#45;&gt;node59</title>
<path fill="none" stroke="black" d="M700.665,-301.22C617.398,-288.518 390.742,-253.944 299.165,-239.974"/>
<polygon fill="black" stroke="black" points="299.608,-236.501 289.194,-238.453 298.552,-243.421 299.608,-236.501"/>
</g>
<!-- node66&#45;&gt;node153 -->
<g id="edge24" class="edge"><title>node66&#45;&gt;node153</title>
<path fill="none" stroke="black" d="M725.921,-287.762C717.662,-262.985 702.824,-218.471 693.198,-189.594"/>
<polygon fill="black" stroke="black" points="696.513,-188.47 690.03,-180.09 689.872,-190.683 696.513,-188.47"/>
</g>
<!-- node149 -->
<g id="node22" class="node"><title>node149</title>
<polygon fill="none" stroke="black" points="831,-252 777,-252 777,-216 831,-216 831,-252"/>
<text text-anchor="middle" x="804" y="-230.7" font-family="Times Roman,serif" font-size="12.00">hrpc</text>
</g>
<!-- node66&#45;&gt;node149 -->
<g id="edge26" class="edge"><title>node66&#45;&gt;node149</title>
<path fill="none" stroke="black" d="M750.169,-287.831C758.715,-279.285 769.056,-268.944 778.38,-259.62"/>
<polygon fill="black" stroke="black" points="780.991,-261.959 785.587,-252.413 776.041,-257.009 780.991,-261.959"/>
</g>
<!-- node149&#45;&gt;node151 -->
<g id="edge28" class="edge"><title>node149&#45;&gt;node151</title>
<path fill="none" stroke="black" d="M807.926,-215.762C813.237,-191.093 822.759,-146.86 828.978,-117.973"/>
<polygon fill="black" stroke="black" points="832.423,-118.602 831.106,-108.09 825.579,-117.129 832.423,-118.602"/>
</g>
<!-- node149&#45;&gt;node153 -->
<g id="edge30" class="edge"><title>node149&#45;&gt;node153</title>
<path fill="none" stroke="black" d="M776.77,-217.662C759.893,-207.536 738.026,-194.416 719.761,-183.457"/>
<polygon fill="black" stroke="black" points="721.498,-180.417 711.122,-178.273 717.896,-186.419 721.498,-180.417"/>
</g>
<!-- node55&#45;&gt;node151 -->
<g id="edge36" class="edge"><title>node55&#45;&gt;node151</title>
<path fill="none" stroke="black" d="M185.369,-359.986C183.424,-326.907 184.313,-256.199 222,-216 301.617,-131.077 677.44,-100.042 797.813,-92.1819"/>
<polygon fill="black" stroke="black" points="798.241,-95.6618 807.999,-91.5328 797.796,-88.676 798.241,-95.6618"/>
</g>
<!-- node55&#45;&gt;node59 -->
<g id="edge40" class="edge"><title>node55&#45;&gt;node59</title>
<path fill="none" stroke="black" d="M196.246,-359.762C208.861,-334.876 231.569,-290.082 246.203,-261.216"/>
<polygon fill="black" stroke="black" points="249.43,-262.592 250.83,-252.09 243.186,-259.426 249.43,-262.592"/>
</g>
<!-- node55&#45;&gt;node153 -->
<g id="edge38" class="edge"><title>node55&#45;&gt;node153</title>
<path fill="none" stroke="black" d="M228.519,-359.955C323.848,-318.525 557.121,-217.143 647.444,-177.888"/>
<polygon fill="black" stroke="black" points="648.958,-181.046 656.734,-173.85 646.168,-174.626 648.958,-181.046"/>
</g>
<!-- node55&#45;&gt;node66 -->
<g id="edge42" class="edge"><title>node55&#45;&gt;node66</title>
<path fill="none" stroke="black" d="M232.299,-368.978C248.564,-365.901 267.069,-362.589 284,-360 433.338,-337.167 611.902,-318.092 690.919,-310.069"/>
<polygon fill="black" stroke="black" points="691.351,-313.544 700.949,-309.056 690.648,-306.579 691.351,-313.544"/>
</g>
<!-- node54&#45;&gt;node151 -->
<g id="edge48" class="edge"><title>node54&#45;&gt;node151</title>
<path fill="none" stroke="black" d="M763.255,-446.732C840.683,-438.79 1027.83,-417.536 1046,-396 1056.32,-383.77 1056.02,-372.474 1046,-360 999.54,-302.159 935.064,-376.854 883,-324 854.625,-295.194 841.627,-174.502 837.044,-118.62"/>
<polygon fill="black" stroke="black" points="840.51,-118.049 836.237,-108.354 833.531,-118.598 840.51,-118.049"/>
</g>
<!-- node54&#45;&gt;node59 -->
<g id="edge70" class="edge"><title>node54&#45;&gt;node59</title>
<path fill="none" stroke="black" d="M696.983,-447.663C604.279,-440.829 346.42,-419.851 317,-396 276.317,-363.017 264.628,-299.023 261.298,-262.106"/>
<polygon fill="black" stroke="black" points="264.779,-261.728 260.536,-252.02 257.799,-262.256 264.779,-261.728"/>
</g>
<!-- node54&#45;&gt;node153 -->
<g id="edge50" class="edge"><title>node54&#45;&gt;node153</title>
<path fill="none" stroke="black" d="M723.04,-431.973C714.066,-407.813 698.809,-363.4 692,-324 683.987,-277.631 683.026,-222.769 683.325,-190.26"/>
<polygon fill="black" stroke="black" points="686.827,-190.185 683.467,-180.137 679.827,-190.087 686.827,-190.185"/>
</g>
<!-- node54&#45;&gt;node66 -->
<g id="edge72" class="edge"><title>node54&#45;&gt;node66</title>
<path fill="none" stroke="black" d="M730.253,-431.762C730.594,-407.201 731.205,-363.247 731.606,-334.354"/>
<polygon fill="black" stroke="black" points="735.109,-334.137 731.749,-324.09 728.11,-334.04 735.109,-334.137"/>
</g>
<!-- node54&#45;&gt;node149 -->
<g id="edge52" class="edge"><title>node54&#45;&gt;node149</title>
<path fill="none" stroke="black" d="M763.129,-449.141C833.746,-446.54 995.388,-436.226 1029,-396 1039.26,-383.722 1039.17,-372.352 1029,-360 976.036,-295.669 910.404,-375.633 845,-324 825.72,-308.78 815.185,-282.464 809.641,-262.207"/>
<polygon fill="black" stroke="black" points="812.978,-261.122 807.177,-252.257 806.184,-262.805 812.978,-261.122"/>
</g>
<!-- node54&#45;&gt;node55 -->
<g id="edge74" class="edge"><title>node54&#45;&gt;node55</title>
<path fill="none" stroke="black" d="M696.806,-448.415C617.911,-444.191 413.261,-430.535 246,-396 244.732,-395.738 243.451,-395.461 242.163,-395.17"/>
<polygon fill="black" stroke="black" points="242.746,-391.709 232.199,-392.713 241.071,-398.506 242.746,-391.709"/>
</g>
<!-- node176 -->
<g id="node35" class="node"><title>node176</title>
<ellipse fill="none" stroke="black" cx="889" cy="-378" rx="130.789" ry="18"/>
<text text-anchor="middle" x="889" y="-374.7" font-family="Times Roman,serif" font-size="12.00">/usr/lib/x86_64&#45;linux&#45;gnu/libz.so</text>
</g>
<!-- node54&#45;&gt;node176 -->
<g id="edge46" class="edge"><title>node54&#45;&gt;node176</title>
<path fill="none" stroke="black" d="M763.332,-434.906C785.941,-424.668 816.173,-410.978 841.32,-399.591"/>
<polygon fill="black" stroke="black" points="843.016,-402.665 850.682,-395.352 840.128,-396.289 843.016,-402.665"/>
</g>
<!-- node54&#45;&gt;node146 -->
<g id="edge54" class="edge"><title>node54&#45;&gt;node146</title>
<path fill="none" stroke="black" d="M763.163,-447.05C837.415,-440.213 1022.56,-421.869 1176,-396 1191.09,-393.455 1207.59,-390.015 1221.88,-386.823"/>
<polygon fill="black" stroke="black" points="1222.86,-390.189 1231.83,-384.56 1221.31,-383.364 1222.86,-390.189"/>
</g>
<!-- node177 -->
<g id="node57" class="node"><title>node177</title>
<ellipse fill="none" stroke="black" cx="397" cy="-378" rx="70.8437" ry="18"/>
<text text-anchor="middle" x="397" y="-374.7" font-family="Times Roman,serif" font-size="12.00">/usr/lib/libbfd.so</text>
</g>
<!-- node54&#45;&gt;node177 -->
<g id="edge76" class="edge"><title>node54&#45;&gt;node177</title>
<path fill="none" stroke="black" d="M696.822,-443.04C648.45,-432.866 555.749,-413.263 477,-396 471.611,-394.819 466.021,-393.583 460.414,-392.336"/>
<polygon fill="black" stroke="black" points="460.864,-388.85 450.342,-390.088 459.34,-395.682 460.864,-388.85"/>
</g>
<!-- node178 -->
<g id="node59" class="node"><title>node178</title>
<ellipse fill="none" stroke="black" cx="575" cy="-378" rx="89.0421" ry="18"/>
<text text-anchor="middle" x="575" y="-374.7" font-family="Times Roman,serif" font-size="12.00">/usr/lib/libiberty_pic.a</text>
</g>
<!-- node54&#45;&gt;node178 -->
<g id="edge78" class="edge"><title>node54&#45;&gt;node178</title>
<path fill="none" stroke="black" d="M696.749,-434.554C674.269,-424.112 644.319,-410.2 619.751,-398.787"/>
<polygon fill="black" stroke="black" points="621.169,-395.587 610.625,-394.548 618.22,-401.935 621.169,-395.587"/>
</g>
<!-- node146&#45;&gt;node151 -->
<g id="edge64" class="edge"><title>node146&#45;&gt;node151</title>
<path fill="none" stroke="black" d="M1286.35,-364.527C1290.83,-362.752 1295.48,-361.151 1300,-360 1391.21,-336.77 1658.34,-393.323 1722,-324 1732.82,-312.215 1732.01,-300.485 1722,-288 1612.63,-151.529 1027.56,-102.939 872.655,-92.3634"/>
<polygon fill="black" stroke="black" points="872.469,-88.8432 862.257,-91.667 872.001,-95.8276 872.469,-88.8432"/>
</g>
<!-- node186 -->
<g id="node42" class="node"><title>node186</title>
<ellipse fill="none" stroke="black" cx="1044" cy="-306" rx="118.939" ry="18"/>
<text text-anchor="middle" x="1044" y="-302.7" font-family="Times Roman,serif" font-size="12.00">/usr/lib/libboost_regex&#45;mt.so</text>
</g>
<!-- node146&#45;&gt;node186 -->
<g id="edge56" class="edge"><title>node146&#45;&gt;node186</title>
<path fill="none" stroke="black" d="M1231.99,-366.827C1226.09,-364.49 1219.86,-362.1 1214,-360 1179.26,-347.553 1140.02,-334.992 1108.01,-325.121"/>
<polygon fill="black" stroke="black" points="1108.9,-321.735 1098.31,-322.147 1106.85,-328.427 1108.9,-321.735"/>
</g>
<!-- node183 -->
<g id="node44" class="node"><title>node183</title>
<ellipse fill="none" stroke="black" cx="1259" cy="-306" rx="77.9931" ry="18"/>
<text text-anchor="middle" x="1259" y="-302.7" font-family="Times Roman,serif" font-size="12.00">/usr/lib/libicuuc.so</text>
</g>
<!-- node146&#45;&gt;node183 -->
<g id="edge58" class="edge"><title>node146&#45;&gt;node183</title>
<path fill="none" stroke="black" d="M1259,-359.831C1259,-352.131 1259,-342.974 1259,-334.417"/>
<polygon fill="black" stroke="black" points="1262.5,-334.413 1259,-324.413 1255.5,-334.413 1262.5,-334.413"/>
</g>
<!-- node184 -->
<g id="node46" class="node"><title>node184</title>
<ellipse fill="none" stroke="black" cx="1440" cy="-306" rx="85.1424" ry="18"/>
<text text-anchor="middle" x="1440" y="-302.7" font-family="Times Roman,serif" font-size="12.00">/usr/lib/libicui18n.so</text>
</g>
<!-- node146&#45;&gt;node184 -->
<g id="edge60" class="edge"><title>node146&#45;&gt;node184</title>
<path fill="none" stroke="black" d="M1286.27,-365.82C1290.84,-363.839 1295.54,-361.836 1300,-360 1329.07,-348.021 1361.84,-335.336 1388.37,-325.273"/>
<polygon fill="black" stroke="black" points="1389.72,-328.501 1397.84,-321.69 1387.25,-321.954 1389.72,-328.501"/>
</g>
<!-- node185 -->
<g id="node48" class="node"><title>node185</title>
<ellipse fill="none" stroke="black" cx="1628" cy="-306" rx="85.1424" ry="18"/>
<text text-anchor="middle" x="1628" y="-302.7" font-family="Times Roman,serif" font-size="12.00">/usr/lib/libicudata.so</text>
</g>
<!-- node146&#45;&gt;node185 -->
<g id="edge62" class="edge"><title>node146&#45;&gt;node185</title>
<path fill="none" stroke="black" d="M1286.42,-364.795C1290.89,-362.984 1295.52,-361.303 1300,-360 1401.03,-330.601 1430.31,-341.898 1534,-324 1541.04,-322.786 1548.36,-321.472 1555.67,-320.126"/>
<polygon fill="black" stroke="black" points="1556.42,-323.547 1565.61,-318.278 1555.14,-316.665 1556.42,-323.547"/>
</g>
<!-- node146&#45;&gt;node147 -->
<g id="edge66" class="edge"><title>node146&#45;&gt;node147</title>
<path fill="none" stroke="black" d="M1286.34,-364.503C1290.82,-362.73 1295.48,-361.137 1300,-360 1496.73,-310.536 1558.27,-373.464 1755,-324 1756.27,-323.68 1757.55,-323.324 1758.84,-322.938"/>
<polygon fill="black" stroke="black" points="1760.38,-326.109 1768.66,-319.497 1758.06,-319.503 1760.38,-326.109"/>
</g>
<!-- node147&#45;&gt;node151 -->
<g id="edge68" class="edge"><title>node147&#45;&gt;node151</title>
<path fill="none" stroke="black" d="M1797.61,-287.877C1799.54,-253.635 1798.16,-179.675 1755,-144 1720.44,-115.433 1040.83,-95.4863 872.479,-90.9707"/>
<polygon fill="black" stroke="black" points="872.454,-87.4689 862.365,-90.7016 872.268,-94.4664 872.454,-87.4689"/>
</g>
<!-- node53&#45;&gt;node151 -->
<g id="edge86" class="edge"><title>node53&#45;&gt;node151</title>
<path fill="none" stroke="black" d="M1440.31,-446.765C1539.95,-435.302 1851,-392.581 1851,-306 1851,-306 1851,-306 1851,-234 1851,-183.597 1826.55,-167.58 1782,-144 1700.56,-100.889 1037.55,-91.8837 872.235,-90.3015"/>
<polygon fill="black" stroke="black" points="872.109,-86.8002 862.077,-90.2077 872.044,-93.7999 872.109,-86.8002"/>
</g>
<!-- node53&#45;&gt;node146 -->
<g id="edge90" class="edge"><title>node53&#45;&gt;node146</title>
<path fill="none" stroke="black" d="M1379.81,-435.603C1355.43,-423.98 1321.06,-407.59 1295.21,-395.263"/>
<polygon fill="black" stroke="black" points="1296.63,-392.067 1286.1,-390.922 1293.62,-398.385 1296.63,-392.067"/>
</g>
<!-- node53&#45;&gt;node147 -->
<g id="edge88" class="edge"><title>node53&#45;&gt;node147</title>
<path fill="none" stroke="black" d="M1440.09,-435.26C1480.04,-416.093 1553.1,-382.422 1618,-360 1677.5,-339.441 1695.55,-344.717 1755,-324 1756.42,-323.504 1757.86,-322.981 1759.31,-322.436"/>
<polygon fill="black" stroke="black" points="1760.9,-325.571 1768.89,-318.611 1758.31,-319.07 1760.9,-325.571"/>
</g>
<!-- node64&#45;&gt;node151 -->
<g id="edge94" class="edge"><title>node64&#45;&gt;node151</title>
<path fill="none" stroke="black" d="M1334.21,-521.039C1459.92,-516.596 1889,-493.006 1889,-378 1889,-378 1889,-378 1889,-234 1889,-183.866 1865.25,-167.56 1821,-144 1736.09,-98.7949 1042.21,-91.3478 872.398,-90.1987"/>
<polygon fill="black" stroke="black" points="872.229,-86.6976 862.207,-90.1331 872.184,-93.6975 872.229,-86.6976"/>
</g>
<!-- node64&#45;&gt;node66 -->
<g id="edge96" class="edge"><title>node64&#45;&gt;node66</title>
<path fill="none" stroke="black" d="M1280.13,-503.895C1241.37,-469.684 1151.59,-395.774 1062,-360 1010.12,-339.284 849.75,-319.198 773.323,-310.501"/>
<polygon fill="black" stroke="black" points="773.445,-306.993 763.116,-309.351 772.661,-313.949 773.445,-306.993"/>
</g>
<!-- node64&#45;&gt;node54 -->
<g id="edge98" class="edge"><title>node64&#45;&gt;node54</title>
<path fill="none" stroke="black" d="M1265.63,-517.658C1166.88,-505.185 882.468,-469.259 773.342,-455.475"/>
<polygon fill="black" stroke="black" points="773.701,-451.992 763.341,-454.211 772.823,-458.937 773.701,-451.992"/>
</g>
<!-- node64&#45;&gt;node146 -->
<g id="edge102" class="edge"><title>node64&#45;&gt;node146</title>
<path fill="none" stroke="black" d="M1294.81,-503.762C1287.78,-479.093 1275.19,-434.86 1266.96,-405.973"/>
<polygon fill="black" stroke="black" points="1270.26,-404.749 1264.15,-396.09 1263.52,-406.666 1270.26,-404.749"/>
</g>
<!-- node64&#45;&gt;node147 -->
<g id="edge100" class="edge"><title>node64&#45;&gt;node147</title>
<path fill="none" stroke="black" d="M1310.76,-503.675C1323.17,-483.842 1345.21,-452.331 1371,-432 1510.22,-322.235 1584.87,-373.871 1755,-324 1756.26,-323.631 1757.53,-323.232 1758.81,-322.81"/>
<polygon fill="black" stroke="black" points="1760.41,-325.947 1768.57,-319.19 1757.98,-319.384 1760.41,-325.947"/>
</g>
<!-- node64&#45;&gt;node53 -->
<g id="edge104" class="edge"><title>node64&#45;&gt;node53</title>
<path fill="none" stroke="black" d="M1327.76,-503.831C1341.7,-494.707 1358.76,-483.539 1373.72,-473.745"/>
<polygon fill="black" stroke="black" points="1375.8,-476.568 1382.25,-468.163 1371.97,-470.711 1375.8,-476.568"/>
</g>
<!-- node103&#45;&gt;node151 -->
<g id="edge108" class="edge"><title>node103&#45;&gt;node151</title>
<path fill="none" stroke="black" d="M1073.61,-575.761C1088.02,-532.41 1116.87,-422.194 1063,-360 1018.96,-309.155 965.576,-369.46 916,-324 853.743,-266.912 883.227,-223.613 855,-144 852.007,-135.559 848.66,-126.414 845.573,-118.091"/>
<polygon fill="black" stroke="black" points="848.751,-116.595 841.978,-108.448 842.192,-119.041 848.751,-116.595"/>
</g>
<!-- node103&#45;&gt;node59 -->
<g id="edge110" class="edge"><title>node103&#45;&gt;node59</title>
<path fill="none" stroke="black" d="M1023.96,-591.957C855.449,-582.961 244.342,-540.65 133,-396 93.9289,-345.241 171.826,-286.146 222.053,-255.27"/>
<polygon fill="black" stroke="black" points="224.008,-258.179 230.77,-250.022 220.398,-252.182 224.008,-258.179"/>
</g>
<!-- node103&#45;&gt;node66 -->
<g id="edge112" class="edge"><title>node103&#45;&gt;node66</title>
<path fill="none" stroke="black" d="M1066.66,-575.984C1065.36,-526.585 1059.05,-390.624 1029,-360 1011.25,-341.914 850.807,-320.335 773.405,-310.863"/>
<polygon fill="black" stroke="black" points="773.406,-307.338 763.058,-309.608 772.564,-314.287 773.406,-307.338"/>
</g>
<!-- node103&#45;&gt;node55 -->
<g id="edge114" class="edge"><title>node103&#45;&gt;node55</title>
<path fill="none" stroke="black" d="M1023.96,-583.436C878.284,-547.679 403.826,-431.221 241.808,-391.453"/>
<polygon fill="black" stroke="black" points="242.594,-388.042 232.048,-389.057 240.925,-394.84 242.594,-388.042"/>
</g>
<!-- node103&#45;&gt;node54 -->
<g id="edge116" class="edge"><title>node103&#45;&gt;node54</title>
<path fill="none" stroke="black" d="M1024.66,-575.908C960.091,-548.318 837.691,-496.016 772.831,-468.302"/>
<polygon fill="black" stroke="black" points="773.883,-464.945 763.312,-464.234 771.133,-471.382 773.883,-464.945"/>
</g>
<!-- node103&#45;&gt;node146 -->
<g id="edge120" class="edge"><title>node103&#45;&gt;node146</title>
<path fill="none" stroke="black" d="M1083.04,-575.955C1117.06,-537.679 1196.57,-448.232 1236,-403.879"/>
<polygon fill="black" stroke="black" points="1238.84,-405.944 1242.87,-396.145 1233.61,-401.294 1238.84,-405.944"/>
</g>
<!-- node103&#45;&gt;node147 -->
<g id="edge118" class="edge"><title>node103&#45;&gt;node147</title>
<path fill="none" stroke="black" d="M1093.86,-575.85C1173.62,-522.034 1404.61,-366.658 1423,-360 1555.91,-311.867 1600.74,-353.419 1739,-324 1745.46,-322.625 1752.23,-320.821 1758.76,-318.886"/>
<polygon fill="black" stroke="black" points="1760.23,-322.094 1768.74,-315.781 1758.15,-315.41 1760.23,-322.094"/>
</g>
<!-- node103&#45;&gt;node53 -->
<g id="edge122" class="edge"><title>node103&#45;&gt;node53</title>
<path fill="none" stroke="black" d="M1110.09,-589.397C1177.67,-581.551 1304.78,-564.068 1343,-540 1367.16,-524.787 1385.61,-497.496 1396.98,-476.942"/>
<polygon fill="black" stroke="black" points="1400.11,-478.515 1401.7,-468.04 1393.92,-475.237 1400.11,-478.515"/>
</g>
<!-- node103&#45;&gt;node64 -->
<g id="edge124" class="edge"><title>node103&#45;&gt;node64</title>
<path fill="none" stroke="black" d="M1110.01,-580.71C1151.64,-567.845 1214.44,-548.44 1256.3,-535.503"/>
<polygon fill="black" stroke="black" points="1257.42,-538.82 1265.95,-532.523 1255.36,-532.132 1257.42,-538.82"/>
</g>
</g>
</svg>
