<?xml version="1.0" encoding="UTF-8" standalone="no"?>
<!DOCTYPE svg PUBLIC "-//W3C//DTD SVG 1.1//EN"
 "http://www.w3.org/Graphics/SVG/1.1/DTD/svg11.dtd">
<!-- Generated by graphviz version 2.26.3 (20100126.1600)
 -->
<!-- Title: GG Pages: 1 -->
<svg width="1745pt" height="620pt"
 viewBox="0.00 0.00 1745.00 620.00" xmlns="http://www.w3.org/2000/svg" xmlns:xlink="http://www.w3.org/1999/xlink">
<g id="graph1" class="graph" transform="scale(1 1) rotate(0) translate(4 616)">
<title>GG</title>
<polygon fill="white" stroke="white" points="-4,5 -4,-616 1742,-616 1742,5 -4,5"/>
<!-- node104 -->
<g id="node1" class="node"><title>node104</title>
<polygon fill="none" stroke="black" points="721.989,-599.562 677,-612 632.011,-599.562 632.053,-579.438 721.947,-579.438 721.989,-599.562"/>
<text text-anchor="middle" x="677" y="-590.7" font-family="Times Roman,serif" font-size="12.00">wutest</text>
</g>
<!-- node151 -->
<g id="node2" class="node"><title>node151</title>
<polygon fill="none" stroke="black" points="397,-108 343,-108 343,-72 397,-72 397,-108"/>
<text text-anchor="middle" x="370" y="-86.7" font-family="Times Roman,serif" font-size="12.00">jlib</text>
</g>
<!-- node104&#45;&gt;node151 -->
<g id="edge2" class="edge"><title>node104&#45;&gt;node151</title>
<path fill="none" stroke="black" d="M631.711,-591.715C501.751,-584.9 133.788,-563.716 85,-540 35.5168,-515.946 3.36887e-15,-505.02 0,-450 0,-450 0,-450 0,-234 0,-163.076 239.085,-113.128 332.878,-96.2613"/>
<polygon fill="black" stroke="black" points="333.557,-99.6956 342.793,-94.5046 332.336,-92.8029 333.557,-99.6956"/>
</g>
<!-- node59 -->
<g id="node12" class="node"><title>node59</title>
<polygon fill="none" stroke="black" points="241,-252 183,-252 183,-216 241,-216 241,-252"/>
<text text-anchor="middle" x="212" y="-230.7" font-family="Times Roman,serif" font-size="12.00">remote</text>
</g>
<!-- node104&#45;&gt;node59 -->
<g id="edge12" class="edge"><title>node104&#45;&gt;node59</title>
<path fill="none" stroke="black" d="M631.834,-591.894C509.295,-585.846 176.991,-567.106 136,-540 63.126,-491.811 19.4622,-438.89 57,-360 80.9698,-309.624 136.02,-272.806 173.624,-252.398"/>
<polygon fill="black" stroke="black" points="175.57,-255.329 182.779,-247.565 172.302,-249.138 175.57,-255.329"/>
</g>
<!-- node66 -->
<g id="node18" class="node"><title>node66</title>
<polygon fill="none" stroke="black" points="302,-324 240,-324 240,-288 302,-288 302,-324"/>
<text text-anchor="middle" x="271" y="-302.7" font-family="Times Roman,serif" font-size="12.00">dalibase</text>
</g>
<!-- node104&#45;&gt;node66 -->
<g id="edge20" class="edge"><title>node104&#45;&gt;node66</title>
<path fill="none" stroke="black" d="M631.898,-587.982C542.998,-573.416 346.609,-527.217 264,-396 252.393,-377.563 255.456,-352.61 260.679,-333.655"/>
<polygon fill="black" stroke="black" points="264.027,-334.676 263.632,-324.089 257.338,-332.612 264.027,-334.676"/>
</g>
<!-- node55 -->
<g id="node27" class="node"><title>node55</title>
<polygon fill="none" stroke="black" points="156,-396 66,-396 66,-360 156,-360 156,-396"/>
<text text-anchor="middle" x="111" y="-374.7" font-family="Times Roman,serif" font-size="12.00">environment</text>
</g>
<!-- node104&#45;&gt;node55 -->
<g id="edge34" class="edge"><title>node104&#45;&gt;node55</title>
<path fill="none" stroke="black" d="M631.927,-591.903C514.554,-586.068 206.037,-568.19 170,-540 128.586,-507.605 116.227,-443.392 112.549,-406.279"/>
<polygon fill="black" stroke="black" points="116.022,-405.808 111.694,-396.138 109.047,-406.396 116.022,-405.808"/>
</g>
<!-- node54 -->
<g id="node33" class="node"><title>node54</title>
<polygon fill="none" stroke="black" points="710,-468 644,-468 644,-432 710,-432 710,-468"/>
<text text-anchor="middle" x="677" y="-446.7" font-family="Times Roman,serif" font-size="12.00">dllserver</text>
</g>
<!-- node104&#45;&gt;node54 -->
<g id="edge44" class="edge"><title>node104&#45;&gt;node54</title>
<path fill="none" stroke="black" d="M677,-579.4C677,-555.838 677,-509.003 677,-478.613"/>
<polygon fill="black" stroke="black" points="680.5,-478.234 677,-468.234 673.5,-478.234 680.5,-478.234"/>
</g>
<!-- node146 -->
<g id="node40" class="node"><title>node146</title>
<polygon fill="none" stroke="black" points="1168,-396 1114,-396 1114,-360 1168,-360 1168,-396"/>
<text text-anchor="middle" x="1141" y="-374.7" font-family="Times Roman,serif" font-size="12.00">eclrtl</text>
</g>
<!-- node104&#45;&gt;node146 -->
<g id="edge82" class="edge"><title>node104&#45;&gt;node146</title>
<path fill="none" stroke="black" d="M722.325,-591.806C831.323,-586.084 1101.18,-569.098 1129,-540 1162.97,-504.47 1156.24,-442.226 1148.49,-406.114"/>
<polygon fill="black" stroke="black" points="1151.87,-405.188 1146.21,-396.235 1145.05,-406.767 1151.87,-405.188"/>
</g>
<!-- node147 -->
<g id="node51" class="node"><title>node147</title>
<polygon fill="none" stroke="black" points="1709,-324 1655,-324 1655,-288 1709,-288 1709,-324"/>
<text text-anchor="middle" x="1682" y="-302.7" font-family="Times Roman,serif" font-size="12.00">nbcd</text>
</g>
<!-- node104&#45;&gt;node147 -->
<g id="edge80" class="edge"><title>node104&#45;&gt;node147</title>
<path fill="none" stroke="black" d="M722.166,-592.274C841.481,-587.33 1162.84,-571.407 1264,-540 1420.15,-491.52 1582.98,-379.503 1650.14,-330.124"/>
<polygon fill="black" stroke="black" points="1652.27,-332.903 1658.23,-324.142 1648.11,-327.276 1652.27,-332.903"/>
</g>
<!-- node53 -->
<g id="node63" class="node"><title>node53</title>
<polygon fill="none" stroke="black" points="1310,-468 1250,-468 1250,-432 1310,-432 1310,-468"/>
<text text-anchor="middle" x="1280" y="-446.7" font-family="Times Roman,serif" font-size="12.00">deftype</text>
</g>
<!-- node104&#45;&gt;node53 -->
<g id="edge84" class="edge"><title>node104&#45;&gt;node53</title>
<path fill="none" stroke="black" d="M722.374,-592.143C848.043,-586.65 1194.13,-569.025 1236,-540 1256.66,-525.674 1268.02,-498.825 1273.99,-478.166"/>
<polygon fill="black" stroke="black" points="1277.43,-478.877 1276.58,-468.316 1270.65,-477.1 1277.43,-478.877"/>
</g>
<!-- node64 -->
<g id="node68" class="node"><title>node64</title>
<polygon fill="none" stroke="black" points="1120,-540 1052,-540 1052,-504 1120,-504 1120,-540"/>
<text text-anchor="middle" x="1086" y="-518.7" font-family="Times Roman,serif" font-size="12.00">workunit</text>
</g>
<!-- node104&#45;&gt;node64 -->
<g id="edge92" class="edge"><title>node104&#45;&gt;node64</title>
<path fill="none" stroke="black" d="M722.333,-586.02C801.454,-572.091 963.766,-543.518 1041.97,-529.752"/>
<polygon fill="black" stroke="black" points="1042.73,-533.17 1051.98,-527.99 1041.52,-526.276 1042.73,-533.17"/>
</g>
<!-- node152 -->
<g id="node4" class="node"><title>node152</title>
<polygon fill="none" stroke="black" points="248,-36 208.056,-18 248,-3.55271e-15 287.944,-18 248,-36"/>
<text text-anchor="middle" x="248" y="-14.7" font-family="Times Roman,serif" font-size="12.00">lzma</text>
</g>
<!-- node151&#45;&gt;node152 -->
<g id="edge4" class="edge"><title>node151&#45;&gt;node152</title>
<path fill="none" stroke="black" d="M342.924,-74.0209C322.47,-61.9494 294.554,-45.4743 274.293,-33.5172"/>
<polygon fill="black" stroke="black" points="275.968,-30.4417 265.577,-28.3733 272.41,-36.4701 275.968,-30.4417"/>
</g>
<!-- node187 -->
<g id="node6" class="node"><title>node187</title>
<ellipse fill="none" stroke="black" cx="333" cy="-18" rx="27" ry="18"/>
<text text-anchor="middle" x="333" y="-14.7" font-family="Times Roman,serif" font-size="12.00">dl</text>
</g>
<!-- node151&#45;&gt;node187 -->
<g id="edge6" class="edge"><title>node151&#45;&gt;node187</title>
<path fill="none" stroke="black" d="M360.663,-71.8314C356.405,-63.5451 351.28,-53.5727 346.605,-44.4748"/>
<polygon fill="black" stroke="black" points="349.635,-42.7123 341.951,-35.4177 343.408,-45.9118 349.635,-42.7123"/>
</g>
<!-- node179 -->
<g id="node8" class="node"><title>node179</title>
<ellipse fill="none" stroke="black" cx="408" cy="-18" rx="30.0465" ry="18"/>
<text text-anchor="middle" x="408" y="-14.7" font-family="Times Roman,serif" font-size="12.00">crypt</text>
</g>
<!-- node151&#45;&gt;node179 -->
<g id="edge8" class="edge"><title>node151&#45;&gt;node179</title>
<path fill="none" stroke="black" d="M379.589,-71.8314C383.962,-63.5451 389.226,-53.5727 394.027,-44.4748"/>
<polygon fill="black" stroke="black" points="397.235,-45.8952 398.807,-35.4177 391.044,-42.6279 397.235,-45.8952"/>
</g>
<!-- node188 -->
<g id="node10" class="node"><title>node188</title>
<ellipse fill="none" stroke="black" cx="483" cy="-18" rx="27" ry="18"/>
<text text-anchor="middle" x="483" y="-14.7" font-family="Times Roman,serif" font-size="12.00">rt</text>
</g>
<!-- node151&#45;&gt;node188 -->
<g id="edge10" class="edge"><title>node151&#45;&gt;node188</title>
<path fill="none" stroke="black" d="M397.066,-72.7542C414.414,-61.7009 436.898,-47.375 454.516,-36.1494"/>
<polygon fill="black" stroke="black" points="456.679,-38.9209 463.232,-30.5955 452.918,-33.0174 456.679,-38.9209"/>
</g>
<!-- node59&#45;&gt;node151 -->
<g id="edge14" class="edge"><title>node59&#45;&gt;node151</title>
<path fill="none" stroke="black" d="M211.03,-215.942C210.944,-196.049 213.838,-164.204 231,-144 256.523,-113.952 300.868,-100.544 332.61,-94.6123"/>
<polygon fill="black" stroke="black" points="333.573,-97.9989 342.846,-92.874 332.401,-91.0977 333.573,-97.9989"/>
</g>
<!-- node153 -->
<g id="node15" class="node"><title>node153</title>
<polygon fill="none" stroke="black" points="294,-180 240,-180 240,-144 294,-144 294,-180"/>
<text text-anchor="middle" x="267" y="-158.7" font-family="Times Roman,serif" font-size="12.00">mp</text>
</g>
<!-- node59&#45;&gt;node153 -->
<g id="edge16" class="edge"><title>node59&#45;&gt;node153</title>
<path fill="none" stroke="black" d="M225.879,-215.831C232.214,-207.539 239.838,-197.557 246.793,-188.453"/>
<polygon fill="black" stroke="black" points="249.645,-190.485 252.934,-180.413 244.083,-186.235 249.645,-190.485"/>
</g>
<!-- node153&#45;&gt;node151 -->
<g id="edge18" class="edge"><title>node153&#45;&gt;node151</title>
<path fill="none" stroke="black" d="M292.991,-143.831C305.922,-134.793 321.722,-123.748 335.638,-114.02"/>
<polygon fill="black" stroke="black" points="337.826,-116.761 344.017,-108.163 333.816,-111.024 337.826,-116.761"/>
</g>
<!-- node66&#45;&gt;node151 -->
<g id="edge22" class="edge"><title>node66&#45;&gt;node151</title>
<path fill="none" stroke="black" d="M279.27,-287.955C296.632,-250.076 336.962,-162.082 357.499,-117.274"/>
<polygon fill="black" stroke="black" points="360.699,-118.694 361.684,-108.145 354.335,-115.777 360.699,-118.694"/>
</g>
<!-- node66&#45;&gt;node59 -->
<g id="edge32" class="edge"><title>node66&#45;&gt;node59</title>
<path fill="none" stroke="black" d="M256.112,-287.831C249.247,-279.454 240.97,-269.353 233.449,-260.175"/>
<polygon fill="black" stroke="black" points="236.134,-257.93 227.089,-252.413 230.72,-262.366 236.134,-257.93"/>
</g>
<!-- node66&#45;&gt;node153 -->
<g id="edge24" class="edge"><title>node66&#45;&gt;node153</title>
<path fill="none" stroke="black" d="M270.493,-287.762C269.811,-263.201 268.59,-219.247 267.788,-190.354"/>
<polygon fill="black" stroke="black" points="271.279,-189.989 267.502,-180.09 264.282,-190.183 271.279,-189.989"/>
</g>
<!-- node149 -->
<g id="node22" class="node"><title>node149</title>
<polygon fill="none" stroke="black" points="397,-252 343,-252 343,-216 397,-216 397,-252"/>
<text text-anchor="middle" x="370" y="-230.7" font-family="Times Roman,serif" font-size="12.00">hrpc</text>
</g>
<!-- node66&#45;&gt;node149 -->
<g id="edge26" class="edge"><title>node66&#45;&gt;node149</title>
<path fill="none" stroke="black" d="M295.982,-287.831C308.293,-278.878 323.311,-267.956 336.594,-258.295"/>
<polygon fill="black" stroke="black" points="338.997,-260.875 345.026,-252.163 334.88,-255.214 338.997,-260.875"/>
</g>
<!-- node149&#45;&gt;node151 -->
<g id="edge28" class="edge"><title>node149&#45;&gt;node151</title>
<path fill="none" stroke="black" d="M370,-215.762C370,-191.201 370,-147.247 370,-118.354"/>
<polygon fill="black" stroke="black" points="373.5,-118.09 370,-108.09 366.5,-118.09 373.5,-118.09"/>
</g>
<!-- node149&#45;&gt;node153 -->
<g id="edge30" class="edge"><title>node149&#45;&gt;node153</title>
<path fill="none" stroke="black" d="M344.009,-215.831C331.078,-206.793 315.278,-195.748 301.362,-186.02"/>
<polygon fill="black" stroke="black" points="303.184,-183.024 292.983,-180.163 299.174,-188.761 303.184,-183.024"/>
</g>
<!-- node55&#45;&gt;node151 -->
<g id="edge36" class="edge"><title>node55&#45;&gt;node151</title>
<path fill="none" stroke="black" d="M110.8,-359.823C110.973,-341.467 112.277,-312.414 118,-288 135.333,-214.058 146.839,-186.174 210,-144 247.894,-118.697 298.75,-104.214 332.862,-96.7393"/>
<polygon fill="black" stroke="black" points="333.809,-100.117 342.878,-94.6404 332.373,-93.2659 333.809,-100.117"/>
</g>
<!-- node55&#45;&gt;node59 -->
<g id="edge40" class="edge"><title>node55&#45;&gt;node59</title>
<path fill="none" stroke="black" d="M124.459,-359.579C132.022,-349.174 141.601,-335.907 150,-324 165.038,-302.682 181.809,-278.3 194.112,-260.296"/>
<polygon fill="black" stroke="black" points="197.019,-262.244 199.765,-252.011 191.238,-258.298 197.019,-262.244"/>
</g>
<!-- node55&#45;&gt;node153 -->
<g id="edge38" class="edge"><title>node55&#45;&gt;node153</title>
<path fill="none" stroke="black" d="M113.97,-359.936C120.075,-327.699 136.722,-259.563 174,-216 189.057,-198.404 211.358,-185.182 230.347,-176.226"/>
<polygon fill="black" stroke="black" points="231.95,-179.343 239.637,-172.052 229.081,-172.958 231.95,-179.343"/>
</g>
<!-- node55&#45;&gt;node66 -->
<g id="edge42" class="edge"><title>node55&#45;&gt;node66</title>
<path fill="none" stroke="black" d="M151.375,-359.831C175.648,-348.909 206.432,-335.056 230.692,-324.138"/>
<polygon fill="black" stroke="black" points="232.296,-327.255 239.978,-319.96 229.423,-320.872 232.296,-327.255"/>
</g>
<!-- node54&#45;&gt;node151 -->
<g id="edge48" class="edge"><title>node54&#45;&gt;node151</title>
<path fill="none" stroke="black" d="M710.259,-449.001C779.88,-446.135 937.236,-435.354 970,-396 980.237,-383.704 980.268,-372.271 970,-360 911.758,-290.399 854.133,-355.445 769,-324 692.956,-295.913 488.692,-166.588 405.746,-113.176"/>
<polygon fill="black" stroke="black" points="407.475,-110.126 397.174,-107.648 403.681,-116.009 407.475,-110.126"/>
</g>
<!-- node54&#45;&gt;node59 -->
<g id="edge70" class="edge"><title>node54&#45;&gt;node59</title>
<path fill="none" stroke="black" d="M643.757,-447.502C551.05,-440.279 294.443,-418.455 264,-396 222.135,-365.12 213.262,-300.057 211.801,-262.458"/>
<polygon fill="black" stroke="black" points="215.293,-262.101 211.56,-252.186 208.295,-262.265 215.293,-262.101"/>
</g>
<!-- node54&#45;&gt;node153 -->
<g id="edge50" class="edge"><title>node54&#45;&gt;node153</title>
<path fill="none" stroke="black" d="M710.11,-448.593C776.586,-445 922.548,-432.987 953,-396 963.17,-383.648 963.369,-372.186 953,-360 920.612,-321.937 779.445,-336.284 731,-324 645.828,-302.403 397.367,-210.698 303.491,-175.673"/>
<polygon fill="black" stroke="black" points="304.711,-172.393 294.119,-172.173 302.262,-178.951 304.711,-172.393"/>
</g>
<!-- node54&#45;&gt;node66 -->
<g id="edge72" class="edge"><title>node54&#45;&gt;node66</title>
<path fill="none" stroke="black" d="M643.737,-447.702C553.556,-441.16 309.441,-421.266 284,-396 268.143,-380.252 265.848,-354.401 266.964,-334.435"/>
<polygon fill="black" stroke="black" points="270.463,-334.598 267.838,-324.334 263.489,-333.995 270.463,-334.598"/>
</g>
<!-- node54&#45;&gt;node149 -->
<g id="edge52" class="edge"><title>node54&#45;&gt;node149</title>
<path fill="none" stroke="black" d="M643.906,-447.472C558.939,-440.648 338.265,-420.693 317,-396 299.346,-375.501 333.946,-301.644 355.164,-261.106"/>
<polygon fill="black" stroke="black" points="358.377,-262.517 359.975,-252.044 352.194,-259.235 358.377,-262.517"/>
</g>
<!-- node54&#45;&gt;node55 -->
<g id="edge74" class="edge"><title>node54&#45;&gt;node55</title>
<path fill="none" stroke="black" d="M643.917,-446.981C567.128,-439.802 370.916,-420.465 208,-396 194.503,-393.973 180.009,-391.464 166.448,-388.969"/>
<polygon fill="black" stroke="black" points="166.764,-385.468 156.291,-387.072 165.479,-392.349 166.764,-385.468"/>
</g>
<!-- node176 -->
<g id="node35" class="node"><title>node176</title>
<ellipse fill="none" stroke="black" cx="457" cy="-378" rx="130.789" ry="18"/>
<text text-anchor="middle" x="457" y="-374.7" font-family="Times Roman,serif" font-size="12.00">/usr/lib/x86_64&#45;linux&#45;gnu/libz.so</text>
</g>
<!-- node54&#45;&gt;node176 -->
<g id="edge46" class="edge"><title>node54&#45;&gt;node176</title>
<path fill="none" stroke="black" d="M643.587,-439.065C610.202,-428.139 558.133,-411.098 517.474,-397.791"/>
<polygon fill="black" stroke="black" points="518.523,-394.452 507.93,-394.668 516.346,-401.105 518.523,-394.452"/>
</g>
<!-- node54&#45;&gt;node146 -->
<g id="edge54" class="edge"><title>node54&#45;&gt;node146</title>
<path fill="none" stroke="black" d="M710.37,-444.822C794.634,-431.746 1015.55,-397.466 1103.8,-383.772"/>
<polygon fill="black" stroke="black" points="1104.54,-387.199 1113.89,-382.207 1103.47,-380.282 1104.54,-387.199"/>
</g>
<!-- node177 -->
<g id="node57" class="node"><title>node177</title>
<ellipse fill="none" stroke="black" cx="677" cy="-378" rx="70.8437" ry="18"/>
<text text-anchor="middle" x="677" y="-374.7" font-family="Times Roman,serif" font-size="12.00">/usr/lib/libbfd.so</text>
</g>
<!-- node54&#45;&gt;node177 -->
<g id="edge76" class="edge"><title>node54&#45;&gt;node177</title>
<path fill="none" stroke="black" d="M677,-431.831C677,-424.131 677,-414.974 677,-406.417"/>
<polygon fill="black" stroke="black" points="680.5,-406.413 677,-396.413 673.5,-406.413 680.5,-406.413"/>
</g>
<!-- node178 -->
<g id="node59" class="node"><title>node178</title>
<ellipse fill="none" stroke="black" cx="855" cy="-378" rx="89.0421" ry="18"/>
<text text-anchor="middle" x="855" y="-374.7" font-family="Times Roman,serif" font-size="12.00">/usr/lib/libiberty_pic.a</text>
</g>
<!-- node54&#45;&gt;node178 -->
<g id="edge78" class="edge"><title>node54&#45;&gt;node178</title>
<path fill="none" stroke="black" d="M710.063,-436.626C736.826,-425.801 774.937,-410.385 805.363,-398.078"/>
<polygon fill="black" stroke="black" points="806.989,-401.196 814.947,-394.201 804.364,-394.707 806.989,-401.196"/>
</g>
<!-- node146&#45;&gt;node151 -->
<g id="edge64" class="edge"><title>node146&#45;&gt;node151</title>
<path fill="none" stroke="black" d="M1158.3,-359.966C1174.37,-340.946 1193.66,-310.654 1178,-288 1075.08,-139.078 972.681,-187.659 797,-144 656,-108.96 482.86,-95.9962 407.742,-91.7874"/>
<polygon fill="black" stroke="black" points="407.559,-88.2726 397.385,-91.2284 407.182,-95.2624 407.559,-88.2726"/>
</g>
<!-- node186 -->
<g id="node42" class="node"><title>node186</title>
<ellipse fill="none" stroke="black" cx="1344" cy="-306" rx="118.939" ry="18"/>
<text text-anchor="middle" x="1344" y="-302.7" font-family="Times Roman,serif" font-size="12.00">/usr/lib/libboost_regex&#45;mt.so</text>
</g>
<!-- node146&#45;&gt;node186 -->
<g id="edge56" class="edge"><title>node146&#45;&gt;node186</title>
<path fill="none" stroke="black" d="M1168.2,-365.641C1172.78,-363.682 1177.5,-361.733 1182,-360 1214.58,-347.45 1251.46,-335.02 1281.8,-325.255"/>
<polygon fill="black" stroke="black" points="1282.94,-328.563 1291.4,-322.182 1280.81,-321.896 1282.94,-328.563"/>
</g>
<!-- node183 -->
<g id="node44" class="node"><title>node183</title>
<ellipse fill="none" stroke="black" cx="1559" cy="-306" rx="77.9931" ry="18"/>
<text text-anchor="middle" x="1559" y="-302.7" font-family="Times Roman,serif" font-size="12.00">/usr/lib/libicuuc.so</text>
</g>
<!-- node146&#45;&gt;node183 -->
<g id="edge58" class="edge"><title>node146&#45;&gt;node183</title>
<path fill="none" stroke="black" d="M1168.39,-364.68C1172.86,-362.884 1177.5,-361.238 1182,-360 1307.22,-325.533 1343.86,-345.174 1472,-324 1478.54,-322.919 1485.34,-321.693 1492.13,-320.401"/>
<polygon fill="black" stroke="black" points="1492.88,-323.82 1502.03,-318.472 1491.54,-316.95 1492.88,-323.82"/>
</g>
<!-- node184 -->
<g id="node46" class="node"><title>node184</title>
<ellipse fill="none" stroke="black" cx="896" cy="-306" rx="85.1424" ry="18"/>
<text text-anchor="middle" x="896" y="-302.7" font-family="Times Roman,serif" font-size="12.00">/usr/lib/libicui18n.so</text>
</g>
<!-- node146&#45;&gt;node184 -->
<g id="edge60" class="edge"><title>node146&#45;&gt;node184</title>
<path fill="none" stroke="black" d="M1113.89,-365.396C1109.3,-363.466 1104.55,-361.59 1100,-360 1055.84,-344.567 1004.99,-331.096 965.098,-321.468"/>
<polygon fill="black" stroke="black" points="965.744,-318.024 955.204,-319.105 964.117,-324.833 965.744,-318.024"/>
</g>
<!-- node185 -->
<g id="node48" class="node"><title>node185</title>
<ellipse fill="none" stroke="black" cx="1084" cy="-306" rx="85.1424" ry="18"/>
<text text-anchor="middle" x="1084" y="-302.7" font-family="Times Roman,serif" font-size="12.00">/usr/lib/libicudata.so</text>
</g>
<!-- node146&#45;&gt;node185 -->
<g id="edge62" class="edge"><title>node146&#45;&gt;node185</title>
<path fill="none" stroke="black" d="M1126.62,-359.831C1119.95,-351.411 1111.91,-341.249 1104.61,-332.034"/>
<polygon fill="black" stroke="black" points="1107.13,-329.581 1098.18,-323.913 1101.64,-333.926 1107.13,-329.581"/>
</g>
<!-- node146&#45;&gt;node147 -->
<g id="edge66" class="edge"><title>node146&#45;&gt;node147</title>
<path fill="none" stroke="black" d="M1168.34,-364.497C1172.82,-362.725 1177.48,-361.134 1182,-360 1379.5,-310.502 1444.65,-377.134 1645.26,-323.541"/>
<polygon fill="black" stroke="black" points="1646.2,-326.914 1654.92,-320.897 1644.35,-320.162 1646.2,-326.914"/>
</g>
<!-- node147&#45;&gt;node151 -->
<g id="edge68" class="edge"><title>node147&#45;&gt;node151</title>
<path fill="none" stroke="black" d="M1654.67,-291.827C1651.77,-290.476 1648.84,-289.174 1646,-288 1457.77,-210.261 1410.91,-182.841 1211,-144 1053.7,-113.438 549.874,-95.6419 407.685,-91.1405"/>
<polygon fill="black" stroke="black" points="407.426,-87.6307 397.321,-90.8157 407.207,-94.6273 407.426,-87.6307"/>
</g>
<!-- node53&#45;&gt;node151 -->
<g id="edge86" class="edge"><title>node53&#45;&gt;node151</title>
<path fill="none" stroke="black" d="M1310.34,-447.095C1412.41,-436.496 1737,-395.737 1737,-306 1737,-306 1737,-306 1737,-234 1737,-36.1368 1497.17,-169.797 1301,-144 1123.67,-120.681 558.936,-97.3894 407.61,-91.4484"/>
<polygon fill="black" stroke="black" points="407.569,-87.9442 397.44,-91.0508 407.296,-94.9389 407.569,-87.9442"/>
</g>
<!-- node53&#45;&gt;node146 -->
<g id="edge90" class="edge"><title>node53&#45;&gt;node146</title>
<path fill="none" stroke="black" d="M1249.84,-434.377C1228.51,-423.326 1199.8,-408.456 1177.22,-396.763"/>
<polygon fill="black" stroke="black" points="1178.76,-393.62 1168.28,-392.128 1175.55,-399.836 1178.76,-393.62"/>
</g>
<!-- node53&#45;&gt;node147 -->
<g id="edge88" class="edge"><title>node53&#45;&gt;node147</title>
<path fill="none" stroke="black" d="M1310.25,-438.616C1357.11,-421.094 1450.17,-386.741 1530,-360 1578.29,-343.825 1594.13,-344.051 1645.12,-324.056"/>
<polygon fill="black" stroke="black" points="1646.71,-327.189 1654.69,-320.228 1644.11,-320.689 1646.71,-327.189"/>
</g>
<!-- node64&#45;&gt;node151 -->
<g id="edge94" class="edge"><title>node64&#45;&gt;node151</title>
<path fill="none" stroke="black" d="M1082.89,-503.744C1079.1,-484.809 1071.47,-454.834 1058,-432 1035.48,-393.823 1027.93,-381.188 989,-360 914.66,-319.539 880.701,-355.138 802,-324 774.139,-312.977 770.627,-303.525 745,-288 635.989,-221.958 610.977,-201.046 497,-144 467.173,-129.071 432.229,-114.41 406.554,-104.14"/>
<polygon fill="black" stroke="black" points="407.783,-100.863 397.198,-100.428 405.202,-107.369 407.783,-100.863"/>
</g>
<!-- node64&#45;&gt;node66 -->
<g id="edge96" class="edge"><title>node64&#45;&gt;node66</title>
<path fill="none" stroke="black" d="M1077.39,-503.846C1059.69,-468.86 1015.58,-392.675 953,-360 896.243,-330.365 451.226,-312.341 312.292,-307.394"/>
<polygon fill="black" stroke="black" points="312.186,-303.888 302.069,-307.034 311.939,-310.884 312.186,-303.888"/>
</g>
<!-- node64&#45;&gt;node54 -->
<g id="edge98" class="edge"><title>node64&#45;&gt;node54</title>
<path fill="none" stroke="black" d="M1051.83,-515.985C977.634,-502.923 801.884,-471.984 720.166,-457.599"/>
<polygon fill="black" stroke="black" points="720.667,-454.133 710.212,-455.847 719.453,-461.027 720.667,-454.133"/>
</g>
<!-- node64&#45;&gt;node146 -->
<g id="edge102" class="edge"><title>node64&#45;&gt;node146</title>
<path fill="none" stroke="black" d="M1092.97,-503.762C1102.43,-478.985 1119.43,-434.471 1130.46,-405.594"/>
<polygon fill="black" stroke="black" points="1133.79,-406.68 1134.09,-396.09 1127.25,-404.183 1133.79,-406.68"/>
</g>
<!-- node64&#45;&gt;node147 -->
<g id="edge100" class="edge"><title>node64&#45;&gt;node147</title>
<path fill="none" stroke="black" d="M1114.16,-503.95C1144.71,-484.78 1195.24,-454.236 1241,-432 1318.87,-394.161 1338.54,-383.007 1422,-360 1516.17,-334.042 1548.03,-353.595 1645.23,-323.7"/>
<polygon fill="black" stroke="black" points="1646.37,-327.009 1654.85,-320.649 1644.26,-320.337 1646.37,-327.009"/>
</g>
<!-- node64&#45;&gt;node53 -->
<g id="edge104" class="edge"><title>node64&#45;&gt;node53</title>
<path fill="none" stroke="black" d="M1120.24,-509.294C1153.84,-496.821 1205.07,-477.811 1240.41,-464.695"/>
<polygon fill="black" stroke="black" points="1241.77,-467.923 1249.93,-461.162 1239.33,-461.36 1241.77,-467.923"/>
</g>
</g>
</svg>
