<?xml version="1.0" encoding="UTF-8" standalone="no"?>
<!DOCTYPE svg PUBLIC "-//W3C//DTD SVG 1.1//EN"
 "http://www.w3.org/Graphics/SVG/1.1/DTD/svg11.dtd">
<!-- Generated by graphviz version 2.26.3 (20100126.1600)
 -->
<!-- Title: GG Pages: 1 -->
<svg width="310pt" height="260pt"
 viewBox="0.00 0.00 310.00 260.00" xmlns="http://www.w3.org/2000/svg" xmlns:xlink="http://www.w3.org/1999/xlink">
<g id="graph1" class="graph" transform="scale(1 1) rotate(0) translate(4 256)">
<title>GG</title>
<polygon fill="white" stroke="white" points="-4,5 -4,-256 307,-256 307,5 -4,5"/>
<!-- node141 -->
<g id="node1" class="node"><title>node141</title>
<polygon fill="none" stroke="black" points="240.229,-239.562 162,-252 83.7709,-239.562 83.8439,-219.438 240.156,-219.438 240.229,-239.562"/>
<text text-anchor="middle" x="162" y="-230.7" font-family="Times Roman,serif" font-size="12.00">roxieclienttest</text>
</g>
<!-- node151 -->
<g id="node2" class="node"><title>node151</title>
<polygon fill="none" stroke="black" points="189,-108 135,-108 135,-72 189,-72 189,-108"/>
<text text-anchor="middle" x="162" y="-86.7" font-family="Times Roman,serif" font-size="12.00">jlib</text>
</g>
<!-- node141&#45;&gt;node151 -->
<g id="edge2" class="edge"><title>node141&#45;&gt;node151</title>
<path fill="none" stroke="black" d="M157.038,-219.071C153.741,-208.339 149.715,-193.45 148,-180 145.976,-164.129 145.976,-159.871 148,-144 149.085,-135.489 151.096,-126.401 153.262,-118.155"/>
<polygon fill="black" stroke="black" points="156.704,-118.841 156.03,-108.268 149.964,-116.954 156.704,-118.841"/>
</g>
<!-- node140 -->
<g id="node12" class="node"><title>node140</title>
<polygon fill="none" stroke="black" points="233,-180 157,-180 157,-144 233,-144 233,-180"/>
<text text-anchor="middle" x="195" y="-158.7" font-family="Times Roman,serif" font-size="12.00">roxieclient</text>
</g>
<!-- node141&#45;&gt;node140 -->
<g id="edge12" class="edge"><title>node141&#45;&gt;node140</title>
<path fill="none" stroke="black" d="M168.678,-219.43C172.617,-210.835 177.731,-199.679 182.401,-189.488"/>
<polygon fill="black" stroke="black" points="185.706,-190.677 186.691,-180.128 179.343,-187.76 185.706,-190.677"/>
</g>
<!-- node152 -->
<g id="node4" class="node"><title>node152</title>
<polygon fill="none" stroke="black" points="40,-36 0.0563759,-18 40,-3.55271e-15 79.9436,-18 40,-36"/>
<text text-anchor="middle" x="40" y="-14.7" font-family="Times Roman,serif" font-size="12.00">lzma</text>
</g>
<!-- node151&#45;&gt;node152 -->
<g id="edge4" class="edge"><title>node151&#45;&gt;node152</title>
<path fill="none" stroke="black" d="M134.924,-74.0209C114.47,-61.9494 86.5536,-45.4743 66.293,-33.5172"/>
<polygon fill="black" stroke="black" points="67.968,-30.4417 57.577,-28.3733 64.4102,-36.4701 67.968,-30.4417"/>
</g>
<!-- node187 -->
<g id="node6" class="node"><title>node187</title>
<ellipse fill="none" stroke="black" cx="125" cy="-18" rx="27" ry="18"/>
<text text-anchor="middle" x="125" y="-14.7" font-family="Times Roman,serif" font-size="12.00">dl</text>
</g>
<!-- node151&#45;&gt;node187 -->
<g id="edge6" class="edge"><title>node151&#45;&gt;node187</title>
<path fill="none" stroke="black" d="M152.663,-71.8314C148.405,-63.5451 143.28,-53.5727 138.605,-44.4748"/>
<polygon fill="black" stroke="black" points="141.635,-42.7123 133.951,-35.4177 135.408,-45.9118 141.635,-42.7123"/>
</g>
<!-- node179 -->
<g id="node8" class="node"><title>node179</title>
<ellipse fill="none" stroke="black" cx="200" cy="-18" rx="30.0465" ry="18"/>
<text text-anchor="middle" x="200" y="-14.7" font-family="Times Roman,serif" font-size="12.00">crypt</text>
</g>
<!-- node151&#45;&gt;node179 -->
<g id="edge8" class="edge"><title>node151&#45;&gt;node179</title>
<path fill="none" stroke="black" d="M171.589,-71.8314C175.962,-63.5451 181.226,-53.5727 186.027,-44.4748"/>
<polygon fill="black" stroke="black" points="189.235,-45.8952 190.807,-35.4177 183.044,-42.6279 189.235,-45.8952"/>
</g>
<!-- node188 -->
<g id="node10" class="node"><title>node188</title>
<ellipse fill="none" stroke="black" cx="275" cy="-18" rx="27" ry="18"/>
<text text-anchor="middle" x="275" y="-14.7" font-family="Times Roman,serif" font-size="12.00">rt</text>
</g>
<!-- node151&#45;&gt;node188 -->
<g id="edge10" class="edge"><title>node151&#45;&gt;node188</title>
<path fill="none" stroke="black" d="M189.066,-72.7542C206.414,-61.7009 228.898,-47.375 246.516,-36.1494"/>
<polygon fill="black" stroke="black" points="248.679,-38.9209 255.232,-30.5955 244.918,-33.0174 248.679,-38.9209"/>
</g>
<!-- node140&#45;&gt;node151 -->
<g id="edge14" class="edge"><title>node140&#45;&gt;node151</title>
<path fill="none" stroke="black" d="M186.673,-143.831C183.027,-135.877 178.669,-126.369 174.637,-117.572"/>
<polygon fill="black" stroke="black" points="177.788,-116.046 170.439,-108.413 171.424,-118.962 177.788,-116.046"/>
</g>
</g>
</svg>
