<?xml version="1.0" encoding="UTF-8" standalone="no"?>
<!DOCTYPE svg PUBLIC "-//W3C//DTD SVG 1.1//EN"
 "http://www.w3.org/Graphics/SVG/1.1/DTD/svg11.dtd">
<!-- Generated by graphviz version 2.26.3 (20100126.1600)
 -->
<!-- Title: GG Pages: 1 -->
<svg width="2861pt" height="764pt"
 viewBox="0.00 0.00 2860.71 764.00" xmlns="http://www.w3.org/2000/svg" xmlns:xlink="http://www.w3.org/1999/xlink">
<g id="graph1" class="graph" transform="scale(1 1) rotate(0) translate(4 760)">
<title>GG</title>
<polygon fill="white" stroke="white" points="-4,5 -4,-760 2857.71,-760 2857.71,5 -4,5"/>
<!-- node165 -->
<g id="node1" class="node"><title>node165</title>
<polygon fill="none" stroke="black" points="2002.66,-756 1890.66,-756 1890.66,-720 2002.66,-720 2002.66,-756"/>
<text text-anchor="middle" x="1946.66" y="-734.7" font-family="Times Roman,serif" font-size="12.00">graphmaster_lcr</text>
</g>
<!-- node151 -->
<g id="node2" class="node"><title>node151</title>
<polygon fill="none" stroke="black" points="1775.66,-108 1721.66,-108 1721.66,-72 1775.66,-72 1775.66,-108"/>
<text text-anchor="middle" x="1748.66" y="-86.7" font-family="Times Roman,serif" font-size="12.00">jlib</text>
</g>
<!-- node165&#45;&gt;node151 -->
<g id="edge2" class="edge"><title>node165&#45;&gt;node151</title>
<path fill="none" stroke="black" d="M1890.52,-736.84C1572.34,-729.907 9.66499,-690.922 9.66499,-594 9.66499,-594 9.66499,-594 9.66499,-234 9.66499,-186.653 25.5563,-167.491 66.665,-144 140.479,-101.819 1470.87,-91.6993 1711.51,-90.211"/>
<polygon fill="black" stroke="black" points="1711.54,-93.711 1721.51,-90.1503 1711.49,-86.7111 1711.54,-93.711"/>
</g>
<!-- node52 -->
<g id="node12" class="node"><title>node52</title>
<polygon fill="none" stroke="black" points="2700.66,-540 2614.66,-540 2614.66,-504 2700.66,-504 2700.66,-540"/>
<text text-anchor="middle" x="2657.66" y="-518.7" font-family="Times Roman,serif" font-size="12.00">commonext</text>
</g>
<!-- node165&#45;&gt;node52 -->
<g id="edge12" class="edge"><title>node165&#45;&gt;node52</title>
<path fill="none" stroke="black" d="M2002.94,-735.597C2164.55,-728.44 2619.96,-706.368 2642.66,-684 2677.83,-649.359 2671.97,-586.525 2664.72,-550.129"/>
<polygon fill="black" stroke="black" points="2668.1,-549.211 2662.56,-540.176 2661.26,-550.69 2668.1,-549.211"/>
</g>
<!-- node150 -->
<g id="node15" class="node"><title>node150</title>
<polygon fill="none" stroke="black" points="2520.66,-540 2466.66,-540 2466.66,-504 2520.66,-504 2520.66,-540"/>
<text text-anchor="middle" x="2493.66" y="-518.7" font-family="Times Roman,serif" font-size="12.00">jhtree</text>
</g>
<!-- node165&#45;&gt;node150 -->
<g id="edge16" class="edge"><title>node165&#45;&gt;node150</title>
<path fill="none" stroke="black" d="M2002.98,-735.578C2127.78,-729.707 2419.22,-713.02 2452.66,-684 2491.06,-650.69 2496.1,-587.094 2495.46,-550.27"/>
<polygon fill="black" stroke="black" points="2498.96,-550.082 2495.14,-540.202 2491.96,-550.311 2498.96,-550.082"/>
</g>
<!-- node147 -->
<g id="node18" class="node"><title>node147</title>
<polygon fill="none" stroke="black" points="800.665,-324 746.665,-324 746.665,-288 800.665,-288 800.665,-324"/>
<text text-anchor="middle" x="773.665" y="-302.7" font-family="Times Roman,serif" font-size="12.00">nbcd</text>
</g>
<!-- node165&#45;&gt;node147 -->
<g id="edge20" class="edge"><title>node165&#45;&gt;node147</title>
<path fill="none" stroke="black" d="M1890.53,-736.71C1678.75,-731.64 938.14,-711.971 896.665,-684 778.841,-604.538 770.984,-408.322 772.418,-334.606"/>
<polygon fill="black" stroke="black" points="775.927,-334.345 772.699,-324.254 768.929,-334.155 775.927,-334.345"/>
</g>
<!-- node146 -->
<g id="node21" class="node"><title>node146</title>
<polygon fill="none" stroke="black" points="1204.66,-396 1150.66,-396 1150.66,-360 1204.66,-360 1204.66,-396"/>
<text text-anchor="middle" x="1177.66" y="-374.7" font-family="Times Roman,serif" font-size="12.00">eclrtl</text>
</g>
<!-- node165&#45;&gt;node146 -->
<g id="edge24" class="edge"><title>node165&#45;&gt;node146</title>
<path fill="none" stroke="black" d="M1890.4,-736.049C1718.59,-729.825 1210.99,-709.355 1186.66,-684 1113.63,-607.862 1148.45,-465.801 1167.77,-405.841"/>
<polygon fill="black" stroke="black" points="1171.12,-406.881 1170.95,-396.288 1164.47,-404.674 1171.12,-406.881"/>
</g>
<!-- node53 -->
<g id="node33" class="node"><title>node53</title>
<polygon fill="none" stroke="black" points="975.665,-468 915.665,-468 915.665,-432 975.665,-432 975.665,-468"/>
<text text-anchor="middle" x="945.665" y="-446.7" font-family="Times Roman,serif" font-size="12.00">deftype</text>
</g>
<!-- node165&#45;&gt;node53 -->
<g id="edge38" class="edge"><title>node165&#45;&gt;node53</title>
<path fill="none" stroke="black" d="M1890.47,-736.602C1692.7,-731.445 1038.94,-712.318 1004.66,-684 943.281,-633.282 940.522,-528.899 943.173,-478.486"/>
<polygon fill="black" stroke="black" points="946.679,-478.506 943.823,-468.304 939.693,-478.06 946.679,-478.506"/>
</g>
<!-- node63 -->
<g id="node38" class="node"><title>node63</title>
<polygon fill="none" stroke="black" points="914.665,-540 838.665,-540 838.665,-504 914.665,-504 914.665,-540"/>
<text text-anchor="middle" x="876.665" y="-518.7" font-family="Times Roman,serif" font-size="12.00">thorhelper</text>
</g>
<!-- node165&#45;&gt;node63 -->
<g id="edge46" class="edge"><title>node165&#45;&gt;node63</title>
<path fill="none" stroke="black" d="M1890.35,-736.771C1682.3,-732.004 966.975,-713.524 928.665,-684 887.46,-652.245 878.339,-587.511 876.658,-550.203"/>
<polygon fill="black" stroke="black" points="880.151,-549.905 876.355,-540.014 873.154,-550.114 880.151,-549.905"/>
</g>
<!-- node59 -->
<g id="node51" class="node"><title>node59</title>
<polygon fill="none" stroke="black" points="2566.66,-252 2508.66,-252 2508.66,-216 2566.66,-216 2566.66,-252"/>
<text text-anchor="middle" x="2537.66" y="-230.7" font-family="Times Roman,serif" font-size="12.00">remote</text>
</g>
<!-- node165&#45;&gt;node59 -->
<g id="edge64" class="edge"><title>node165&#45;&gt;node59</title>
<path fill="none" stroke="black" d="M2002.96,-736.899C2167.34,-733.277 2638.81,-719.844 2697.66,-684 2848.67,-592.035 2778.61,-418.815 2659.66,-288 2637.83,-263.99 2603.36,-250.087 2576.62,-242.419"/>
<polygon fill="black" stroke="black" points="2577.35,-238.993 2566.79,-239.778 2575.54,-245.753 2577.35,-238.993"/>
</g>
<!-- node66 -->
<g id="node57" class="node"><title>node66</title>
<polygon fill="none" stroke="black" points="2156.66,-324 2094.66,-324 2094.66,-288 2156.66,-288 2156.66,-324"/>
<text text-anchor="middle" x="2125.66" y="-302.7" font-family="Times Roman,serif" font-size="12.00">dalibase</text>
</g>
<!-- node165&#45;&gt;node66 -->
<g id="edge72" class="edge"><title>node165&#45;&gt;node66</title>
<path fill="none" stroke="black" d="M2002.9,-735.569C2079.95,-730.991 2212.48,-718.238 2244.66,-684 2343.3,-579.077 2338.19,-471.998 2247.66,-360 2227.59,-335.161 2193.75,-321.414 2166.79,-314.016"/>
<polygon fill="black" stroke="black" points="2167.4,-310.558 2156.84,-311.481 2165.67,-317.341 2167.4,-310.558"/>
</g>
<!-- node55 -->
<g id="node66" class="node"><title>node55</title>
<polygon fill="none" stroke="black" points="2518.66,-396 2428.66,-396 2428.66,-360 2518.66,-360 2518.66,-396"/>
<text text-anchor="middle" x="2473.66" y="-374.7" font-family="Times Roman,serif" font-size="12.00">environment</text>
</g>
<!-- node165&#45;&gt;node55 -->
<g id="edge86" class="edge"><title>node165&#45;&gt;node55</title>
<path fill="none" stroke="black" d="M2002.8,-737.397C2163.21,-735.178 2615.37,-725.289 2666.66,-684 2730.74,-632.426 2751.97,-574.539 2709.66,-504 2670.68,-438.993 2585.49,-405.663 2528.85,-390.04"/>
<polygon fill="black" stroke="black" points="2529.53,-386.601 2518.97,-387.415 2527.74,-393.366 2529.53,-386.601"/>
</g>
<!-- node54 -->
<g id="node72" class="node"><title>node54</title>
<polygon fill="none" stroke="black" points="1885.66,-468 1819.66,-468 1819.66,-432 1885.66,-432 1885.66,-468"/>
<text text-anchor="middle" x="1852.66" y="-446.7" font-family="Times Roman,serif" font-size="12.00">dllserver</text>
</g>
<!-- node165&#45;&gt;node54 -->
<g id="edge96" class="edge"><title>node165&#45;&gt;node54</title>
<path fill="none" stroke="black" d="M1941.33,-719.952C1932.41,-689.961 1913.77,-628.008 1896.66,-576 1885.53,-542.145 1871.89,-503.488 1862.78,-478.02"/>
<polygon fill="black" stroke="black" points="1865.96,-476.521 1859.29,-468.291 1859.37,-478.886 1865.96,-476.521"/>
</g>
<!-- node64 -->
<g id="node87" class="node"><title>node64</title>
<polygon fill="none" stroke="black" points="1380.66,-540 1312.66,-540 1312.66,-504 1380.66,-504 1380.66,-540"/>
<text text-anchor="middle" x="1346.66" y="-518.7" font-family="Times Roman,serif" font-size="12.00">workunit</text>
</g>
<!-- node165&#45;&gt;node64 -->
<g id="edge118" class="edge"><title>node165&#45;&gt;node64</title>
<path fill="none" stroke="black" d="M1890.66,-736.001C1721.51,-729.695 1226.05,-709.145 1202.66,-684 1156.69,-634.566 1245.87,-574.859 1303.36,-543.554"/>
<polygon fill="black" stroke="black" points="1305.12,-546.582 1312.28,-538.78 1301.82,-540.409 1305.12,-546.582"/>
</g>
<!-- node171 -->
<g id="node95" class="node"><title>node171</title>
<polygon fill="none" stroke="black" points="1319.66,-684 1211.66,-684 1211.66,-648 1319.66,-648 1319.66,-684"/>
<text text-anchor="middle" x="1265.66" y="-662.7" font-family="Times Roman,serif" font-size="12.00">thorcodectx_lcr</text>
</g>
<!-- node165&#45;&gt;node171 -->
<g id="edge132" class="edge"><title>node165&#45;&gt;node171</title>
<path fill="none" stroke="black" d="M1890.65,-732.077C1765.22,-718.816 1462.41,-686.801 1329.75,-672.775"/>
<polygon fill="black" stroke="black" points="1330.04,-669.287 1319.73,-671.716 1329.31,-676.248 1330.04,-669.287"/>
</g>
<!-- node164 -->
<g id="node97" class="node"><title>node164</title>
<polygon fill="none" stroke="black" points="1887.66,-612 1817.66,-612 1817.66,-576 1887.66,-576 1887.66,-612"/>
<text text-anchor="middle" x="1852.66" y="-590.7" font-family="Times Roman,serif" font-size="12.00">graph_lcr</text>
</g>
<!-- node165&#45;&gt;node164 -->
<g id="edge180" class="edge"><title>node165&#45;&gt;node164</title>
<path fill="none" stroke="black" d="M1934.76,-719.762C1918.37,-694.66 1888.76,-649.302 1869.94,-620.467"/>
<polygon fill="black" stroke="black" points="1872.87,-618.55 1864.47,-612.09 1867.01,-622.377 1872.87,-618.55"/>
</g>
<!-- node78 -->
<g id="node122" class="node"><title>node78</title>
<polygon fill="none" stroke="black" points="2406.66,-468 2352.66,-468 2352.66,-432 2406.66,-432 2406.66,-468"/>
<text text-anchor="middle" x="2379.66" y="-446.7" font-family="Times Roman,serif" font-size="12.00">dalift</text>
</g>
<!-- node165&#45;&gt;node78 -->
<g id="edge182" class="edge"><title>node165&#45;&gt;node78</title>
<path fill="none" stroke="black" d="M2002.71,-735.595C2131.69,-729.599 2441.36,-712.392 2478.66,-684 2544.83,-633.644 2577.48,-572.028 2529.66,-504 2516.38,-485.096 2456.62,-467.88 2416.65,-458.192"/>
<polygon fill="black" stroke="black" points="2417.25,-454.736 2406.71,-455.837 2415.64,-461.548 2417.25,-454.736"/>
</g>
<!-- node168 -->
<g id="node130" class="node"><title>node168</title>
<polygon fill="none" stroke="black" points="2235.66,-684 2119.66,-684 2119.66,-648 2235.66,-648 2235.66,-684"/>
<text text-anchor="middle" x="2177.66" y="-662.7" font-family="Times Roman,serif" font-size="12.00">mfilemanager_lcr</text>
</g>
<!-- node165&#45;&gt;node168 -->
<g id="edge196" class="edge"><title>node165&#45;&gt;node168</title>
<path fill="none" stroke="black" d="M2002.88,-720.479C2035.09,-710.439 2075.74,-697.769 2109.73,-687.174"/>
<polygon fill="black" stroke="black" points="2111.08,-690.419 2119.59,-684.102 2109,-683.736 2111.08,-690.419"/>
</g>
<!-- node152 -->
<g id="node4" class="node"><title>node152</title>
<polygon fill="none" stroke="black" points="1626.66,-36 1586.72,-18 1626.66,-3.55271e-15 1666.61,-18 1626.66,-36"/>
<text text-anchor="middle" x="1626.66" y="-14.7" font-family="Times Roman,serif" font-size="12.00">lzma</text>
</g>
<!-- node151&#45;&gt;node152 -->
<g id="edge4" class="edge"><title>node151&#45;&gt;node152</title>
<path fill="none" stroke="black" d="M1721.59,-74.0209C1701.13,-61.9494 1673.22,-45.4743 1652.96,-33.5172"/>
<polygon fill="black" stroke="black" points="1654.63,-30.4417 1644.24,-28.3733 1651.08,-36.4701 1654.63,-30.4417"/>
</g>
<!-- node187 -->
<g id="node6" class="node"><title>node187</title>
<ellipse fill="none" stroke="black" cx="1711.66" cy="-18" rx="27" ry="18"/>
<text text-anchor="middle" x="1711.66" y="-14.7" font-family="Times Roman,serif" font-size="12.00">dl</text>
</g>
<!-- node151&#45;&gt;node187 -->
<g id="edge6" class="edge"><title>node151&#45;&gt;node187</title>
<path fill="none" stroke="black" d="M1739.33,-71.8314C1735.07,-63.5451 1729.95,-53.5727 1725.27,-44.4748"/>
<polygon fill="black" stroke="black" points="1728.3,-42.7123 1720.62,-35.4177 1722.07,-45.9118 1728.3,-42.7123"/>
</g>
<!-- node179 -->
<g id="node8" class="node"><title>node179</title>
<ellipse fill="none" stroke="black" cx="1786.66" cy="-18" rx="30.0465" ry="18"/>
<text text-anchor="middle" x="1786.66" y="-14.7" font-family="Times Roman,serif" font-size="12.00">crypt</text>
</g>
<!-- node151&#45;&gt;node179 -->
<g id="edge8" class="edge"><title>node151&#45;&gt;node179</title>
<path fill="none" stroke="black" d="M1758.25,-71.8314C1762.63,-63.5451 1767.89,-53.5727 1772.69,-44.4748"/>
<polygon fill="black" stroke="black" points="1775.9,-45.8952 1777.47,-35.4177 1769.71,-42.6279 1775.9,-45.8952"/>
</g>
<!-- node188 -->
<g id="node10" class="node"><title>node188</title>
<ellipse fill="none" stroke="black" cx="1861.66" cy="-18" rx="27" ry="18"/>
<text text-anchor="middle" x="1861.66" y="-14.7" font-family="Times Roman,serif" font-size="12.00">rt</text>
</g>
<!-- node151&#45;&gt;node188 -->
<g id="edge10" class="edge"><title>node151&#45;&gt;node188</title>
<path fill="none" stroke="black" d="M1775.73,-72.7542C1793.08,-61.7009 1815.56,-47.375 1833.18,-36.1494"/>
<polygon fill="black" stroke="black" points="1835.34,-38.9209 1841.9,-30.5955 1831.58,-33.0174 1835.34,-38.9209"/>
</g>
<!-- node52&#45;&gt;node151 -->
<g id="edge14" class="edge"><title>node52&#45;&gt;node151</title>
<path fill="none" stroke="black" d="M2700.71,-513.176C2744.79,-503.307 2809.25,-486.289 2826.66,-468 2855.22,-438.024 2850.66,-419.398 2850.66,-378 2850.66,-378 2850.66,-378 2850.66,-234 2850.66,-192.602 2858.85,-170.035 2826.66,-144 2785.35,-110.584 1970.8,-93.9879 1785.82,-90.6414"/>
<polygon fill="black" stroke="black" points="1785.82,-87.1411 1775.76,-90.4614 1785.7,-94.1399 1785.82,-87.1411"/>
</g>
<!-- node150&#45;&gt;node151 -->
<g id="edge18" class="edge"><title>node150&#45;&gt;node151</title>
<path fill="none" stroke="black" d="M2520.76,-516.478C2555,-508.798 2615.08,-492.955 2661.66,-468 2718.26,-437.682 2774.66,-442.205 2774.66,-378 2774.66,-378 2774.66,-378 2774.66,-234 2774.66,-141.764 2676.89,-167.393 2587.66,-144 2433.03,-103.457 1928.77,-92.76 1786.4,-90.5164"/>
<polygon fill="black" stroke="black" points="1786.08,-87.0111 1776.03,-90.3579 1785.97,-94.0103 1786.08,-87.0111"/>
</g>
<!-- node147&#45;&gt;node151 -->
<g id="edge22" class="edge"><title>node147&#45;&gt;node151</title>
<path fill="none" stroke="black" d="M772.048,-287.874C770.113,-253.626 771.493,-179.656 814.665,-144 849.799,-114.983 1541.21,-95.3397 1711.17,-90.9369"/>
<polygon fill="black" stroke="black" points="1711.47,-94.4305 1721.38,-90.6747 1711.29,-87.4328 1711.47,-94.4305"/>
</g>
<!-- node146&#45;&gt;node151 -->
<g id="edge34" class="edge"><title>node146&#45;&gt;node151</title>
<path fill="none" stroke="black" d="M1150.29,-365.247C1145.18,-363.239 1139.83,-361.376 1134.66,-360 1007.6,-326.114 765.256,-390.485 847.665,-288 959.139,-149.369 1555.6,-102.24 1711.41,-92.199"/>
<polygon fill="black" stroke="black" points="1711.68,-95.6889 1721.44,-91.5649 1711.24,-88.7028 1711.68,-95.6889"/>
</g>
<!-- node146&#45;&gt;node147 -->
<g id="edge36" class="edge"><title>node146&#45;&gt;node147</title>
<path fill="none" stroke="black" d="M1150.29,-364.631C1145.81,-362.842 1141.17,-361.21 1136.66,-360 997.596,-322.63 953.734,-361.37 814.665,-324 813.398,-323.66 812.12,-323.286 810.838,-322.885"/>
<polygon fill="black" stroke="black" points="811.637,-319.453 801.043,-319.369 809.272,-326.041 811.637,-319.453"/>
</g>
<!-- node186 -->
<g id="node23" class="node"><title>node186</title>
<ellipse fill="none" stroke="black" cx="975.665" cy="-306" rx="118.939" ry="18"/>
<text text-anchor="middle" x="975.665" y="-302.7" font-family="Times Roman,serif" font-size="12.00">/usr/lib/libboost_regex&#45;mt.so</text>
</g>
<!-- node146&#45;&gt;node186 -->
<g id="edge26" class="edge"><title>node146&#45;&gt;node186</title>
<path fill="none" stroke="black" d="M1150.46,-365.648C1145.88,-363.688 1141.16,-361.737 1136.66,-360 1104.28,-347.49 1067.62,-335.063 1037.48,-325.29"/>
<polygon fill="black" stroke="black" points="1038.52,-321.95 1027.93,-322.213 1036.38,-328.612 1038.52,-321.95"/>
</g>
<!-- node183 -->
<g id="node25" class="node"><title>node183</title>
<ellipse fill="none" stroke="black" cx="1190.66" cy="-306" rx="77.9931" ry="18"/>
<text text-anchor="middle" x="1190.66" y="-302.7" font-family="Times Roman,serif" font-size="12.00">/usr/lib/libicuuc.so</text>
</g>
<!-- node146&#45;&gt;node183 -->
<g id="edge28" class="edge"><title>node146&#45;&gt;node183</title>
<path fill="none" stroke="black" d="M1180.95,-359.831C1182.34,-352.131 1183.99,-342.974 1185.53,-334.417"/>
<polygon fill="black" stroke="black" points="1189.01,-334.876 1187.34,-324.413 1182.12,-333.632 1189.01,-334.876"/>
</g>
<!-- node184 -->
<g id="node27" class="node"><title>node184</title>
<ellipse fill="none" stroke="black" cx="1371.66" cy="-306" rx="85.1424" ry="18"/>
<text text-anchor="middle" x="1371.66" y="-302.7" font-family="Times Roman,serif" font-size="12.00">/usr/lib/libicui18n.so</text>
</g>
<!-- node146&#45;&gt;node184 -->
<g id="edge30" class="edge"><title>node146&#45;&gt;node184</title>
<path fill="none" stroke="black" d="M1204.89,-365.709C1209.47,-363.742 1214.18,-361.772 1218.66,-360 1250.67,-347.346 1286.98,-334.469 1316.19,-324.466"/>
<polygon fill="black" stroke="black" points="1317.48,-327.727 1325.81,-321.188 1315.22,-321.101 1317.48,-327.727"/>
</g>
<!-- node185 -->
<g id="node29" class="node"><title>node185</title>
<ellipse fill="none" stroke="black" cx="1559.66" cy="-306" rx="85.1424" ry="18"/>
<text text-anchor="middle" x="1559.66" y="-302.7" font-family="Times Roman,serif" font-size="12.00">/usr/lib/libicudata.so</text>
</g>
<!-- node146&#45;&gt;node185 -->
<g id="edge32" class="edge"><title>node146&#45;&gt;node185</title>
<path fill="none" stroke="black" d="M1205.08,-364.763C1209.55,-362.957 1214.18,-361.285 1218.66,-360 1325.31,-329.426 1356.27,-342.437 1465.66,-324 1472.76,-322.804 1480.15,-321.497 1487.52,-320.152"/>
<polygon fill="black" stroke="black" points="1488.35,-323.559 1497.54,-318.3 1487.07,-316.676 1488.35,-323.559"/>
</g>
<!-- node53&#45;&gt;node151 -->
<g id="edge40" class="edge"><title>node53&#45;&gt;node151</title>
<path fill="none" stroke="black" d="M915.389,-442.003C867.556,-427.548 776.004,-392.05 737.665,-324 706.833,-269.275 722.564,-191.764 784.665,-144 822.041,-115.253 1538.63,-95.3186 1711.41,-90.9171"/>
<polygon fill="black" stroke="black" points="1711.63,-94.4128 1721.54,-90.6611 1711.45,-87.415 1711.63,-94.4128"/>
</g>
<!-- node53&#45;&gt;node147 -->
<g id="edge42" class="edge"><title>node53&#45;&gt;node147</title>
<path fill="none" stroke="black" d="M931.898,-431.993C916.595,-412.722 890.486,-381.963 863.665,-360 847.25,-346.558 827.148,-334.172 810.11,-324.663"/>
<polygon fill="black" stroke="black" points="811.456,-321.41 801.002,-319.688 808.1,-327.553 811.456,-321.41"/>
</g>
<!-- node53&#45;&gt;node146 -->
<g id="edge44" class="edge"><title>node53&#45;&gt;node146</title>
<path fill="none" stroke="black" d="M975.995,-440.587C1018.36,-427.44 1095.17,-403.603 1140.79,-389.445"/>
<polygon fill="black" stroke="black" points="1142.06,-392.715 1150.57,-386.408 1139.98,-386.029 1142.06,-392.715"/>
</g>
<!-- node63&#45;&gt;node151 -->
<g id="edge48" class="edge"><title>node63&#45;&gt;node151</title>
<path fill="none" stroke="black" d="M838.636,-507.618C833.978,-506.219 829.246,-504.965 824.665,-504 661.648,-469.674 85.665,-544.592 85.665,-378 85.665,-378 85.665,-378 85.665,-234 85.665,-177.037 -215.972,-243.285 321.665,-144 461.7,-118.14 1499.79,-95.2022 1711.16,-90.7709"/>
<polygon fill="black" stroke="black" points="1711.5,-94.2646 1721.43,-90.5566 1711.36,-87.2661 1711.5,-94.2646"/>
</g>
<!-- node63&#45;&gt;node147 -->
<g id="edge50" class="edge"><title>node63&#45;&gt;node147</title>
<path fill="none" stroke="black" d="M868.06,-503.955C849.998,-466.076 808.037,-378.082 786.671,-333.274"/>
<polygon fill="black" stroke="black" points="789.781,-331.665 782.317,-324.145 783.463,-334.678 789.781,-331.665"/>
</g>
<!-- node63&#45;&gt;node146 -->
<g id="edge52" class="edge"><title>node63&#45;&gt;node146</title>
<path fill="none" stroke="black" d="M877.507,-503.896C879.479,-483.344 885.915,-450.305 906.665,-432 940.985,-401.725 1074.68,-386.583 1140.55,-380.833"/>
<polygon fill="black" stroke="black" points="1140.85,-384.321 1150.52,-379.99 1140.26,-377.345 1140.85,-384.321"/>
</g>
<!-- node63&#45;&gt;node53 -->
<g id="edge54" class="edge"><title>node63&#45;&gt;node53</title>
<path fill="none" stroke="black" d="M894.077,-503.831C902.186,-495.369 911.981,-485.149 920.847,-475.897"/>
<polygon fill="black" stroke="black" points="923.627,-478.055 928.019,-468.413 918.573,-473.211 923.627,-478.055"/>
</g>
<!-- node156 -->
<g id="node44" class="node"><title>node156</title>
<polygon fill="none" stroke="black" points="488.665,-468 394.665,-468 394.665,-432 488.665,-432 488.665,-468"/>
<text text-anchor="middle" x="441.665" y="-446.7" font-family="Times Roman,serif" font-size="12.00">securesocket</text>
</g>
<!-- node63&#45;&gt;node156 -->
<g id="edge56" class="edge"><title>node63&#45;&gt;node156</title>
<path fill="none" stroke="black" d="M838.577,-507.879C833.929,-506.434 829.216,-505.098 824.665,-504 710.882,-476.558 574.491,-461.452 499.024,-454.604"/>
<polygon fill="black" stroke="black" points="499.06,-451.094 488.789,-453.693 498.439,-458.066 499.06,-451.094"/>
</g>
<!-- node156&#45;&gt;node151 -->
<g id="edge58" class="edge"><title>node156&#45;&gt;node151</title>
<path fill="none" stroke="black" d="M394.415,-447.743C319.371,-443.161 177.812,-430.129 142.665,-396 113.336,-367.52 123.665,-346.882 123.665,-306 123.665,-306 123.665,-306 123.665,-234 123.665,-151.542 1468.78,-99.9292 1711.4,-91.2904"/>
<polygon fill="black" stroke="black" points="1711.61,-94.7852 1721.48,-90.9336 1711.36,-87.7896 1711.61,-94.7852"/>
</g>
<!-- node191 -->
<g id="node47" class="node"><title>node191</title>
<ellipse fill="none" stroke="black" cx="288.665" cy="-378" rx="137.138" ry="18"/>
<text text-anchor="middle" x="288.665" y="-374.7" font-family="Times Roman,serif" font-size="12.00">/usr/lib/x86_64&#45;linux&#45;gnu/libssl.so</text>
</g>
<!-- node156&#45;&gt;node191 -->
<g id="edge60" class="edge"><title>node156&#45;&gt;node191</title>
<path fill="none" stroke="black" d="M403.057,-431.831C382.297,-422.062 356.558,-409.95 334.755,-399.689"/>
<polygon fill="black" stroke="black" points="336.216,-396.509 325.678,-395.418 333.236,-402.843 336.216,-396.509"/>
</g>
<!-- node192 -->
<g id="node49" class="node"><title>node192</title>
<ellipse fill="none" stroke="black" cx="594.665" cy="-378" rx="150.937" ry="18"/>
<text text-anchor="middle" x="594.665" y="-374.7" font-family="Times Roman,serif" font-size="12.00">/usr/lib/x86_64&#45;linux&#45;gnu/libcrypto.so</text>
</g>
<!-- node156&#45;&gt;node192 -->
<g id="edge62" class="edge"><title>node156&#45;&gt;node192</title>
<path fill="none" stroke="black" d="M480.273,-431.831C500.955,-422.099 526.58,-410.04 548.331,-399.804"/>
<polygon fill="black" stroke="black" points="549.832,-402.966 557.39,-395.541 546.851,-396.632 549.832,-402.966"/>
</g>
<!-- node59&#45;&gt;node151 -->
<g id="edge66" class="edge"><title>node59&#45;&gt;node151</title>
<path fill="none" stroke="black" d="M2532.6,-215.861C2525.63,-194.618 2510.85,-160.268 2484.66,-144 2425,-106.934 1927.52,-93.7464 1786.05,-90.7263"/>
<polygon fill="black" stroke="black" points="1785.81,-87.2205 1775.74,-90.5107 1785.66,-94.2189 1785.81,-87.2205"/>
</g>
<!-- node153 -->
<g id="node54" class="node"><title>node153</title>
<polygon fill="none" stroke="black" points="2152.66,-180 2098.66,-180 2098.66,-144 2152.66,-144 2152.66,-180"/>
<text text-anchor="middle" x="2125.66" y="-158.7" font-family="Times Roman,serif" font-size="12.00">mp</text>
</g>
<!-- node59&#45;&gt;node153 -->
<g id="edge68" class="edge"><title>node59&#45;&gt;node153</title>
<path fill="none" stroke="black" d="M2508.61,-228.032C2490.76,-224.422 2467.42,-219.797 2446.66,-216 2344.14,-197.241 2222.74,-177.485 2162.87,-167.904"/>
<polygon fill="black" stroke="black" points="2163.19,-164.412 2152.77,-166.291 2162.09,-171.324 2163.19,-164.412"/>
</g>
<!-- node153&#45;&gt;node151 -->
<g id="edge70" class="edge"><title>node153&#45;&gt;node151</title>
<path fill="none" stroke="black" d="M2098.55,-156.822C2032.2,-144.15 1861.55,-111.559 1785.82,-97.096"/>
<polygon fill="black" stroke="black" points="1786.26,-93.6175 1775.78,-95.1794 1784.95,-100.493 1786.26,-93.6175"/>
</g>
<!-- node66&#45;&gt;node151 -->
<g id="edge74" class="edge"><title>node66&#45;&gt;node151</title>
<path fill="none" stroke="black" d="M2094.52,-298.409C2061.8,-289.743 2009.38,-273.882 1967.66,-252 1893.03,-212.846 1816.17,-149.693 1776.36,-114.932"/>
<polygon fill="black" stroke="black" points="1778.49,-112.146 1768.67,-108.169 1773.87,-117.402 1778.49,-112.146"/>
</g>
<!-- node66&#45;&gt;node59 -->
<g id="edge84" class="edge"><title>node66&#45;&gt;node59</title>
<path fill="none" stroke="black" d="M2156.82,-292.453C2161.4,-290.778 2166.12,-289.226 2170.66,-288 2287.53,-256.498 2430.61,-242.145 2498.42,-236.741"/>
<polygon fill="black" stroke="black" points="2498.95,-240.211 2508.65,-235.949 2498.41,-233.232 2498.95,-240.211"/>
</g>
<!-- node66&#45;&gt;node153 -->
<g id="edge76" class="edge"><title>node66&#45;&gt;node153</title>
<path fill="none" stroke="black" d="M2125.66,-287.762C2125.66,-263.201 2125.66,-219.247 2125.66,-190.354"/>
<polygon fill="black" stroke="black" points="2129.17,-190.09 2125.66,-180.09 2122.17,-190.09 2129.17,-190.09"/>
</g>
<!-- node149 -->
<g id="node61" class="node"><title>node149</title>
<polygon fill="none" stroke="black" points="2030.66,-252 1976.66,-252 1976.66,-216 2030.66,-216 2030.66,-252"/>
<text text-anchor="middle" x="2003.66" y="-230.7" font-family="Times Roman,serif" font-size="12.00">hrpc</text>
</g>
<!-- node66&#45;&gt;node149 -->
<g id="edge78" class="edge"><title>node66&#45;&gt;node149</title>
<path fill="none" stroke="black" d="M2094.88,-287.831C2078.05,-277.898 2057.11,-265.542 2039.54,-255.174"/>
<polygon fill="black" stroke="black" points="2041.09,-252.025 2030.7,-249.957 2037.54,-258.054 2041.09,-252.025"/>
</g>
<!-- node149&#45;&gt;node151 -->
<g id="edge80" class="edge"><title>node149&#45;&gt;node151</title>
<path fill="none" stroke="black" d="M1982.31,-215.658C1958.8,-196.099 1919.32,-165.096 1881.66,-144 1850.59,-126.59 1812.75,-111.786 1785.39,-102.106"/>
<polygon fill="black" stroke="black" points="1786.41,-98.7558 1775.81,-98.7765 1784.11,-105.367 1786.41,-98.7558"/>
</g>
<!-- node149&#45;&gt;node153 -->
<g id="edge82" class="edge"><title>node149&#45;&gt;node153</title>
<path fill="none" stroke="black" d="M2030.74,-218.021C2048.19,-207.721 2071.08,-194.214 2090.01,-183.044"/>
<polygon fill="black" stroke="black" points="2091.83,-186.031 2098.66,-177.934 2088.27,-180.003 2091.83,-186.031"/>
</g>
<!-- node55&#45;&gt;node151 -->
<g id="edge88" class="edge"><title>node55&#45;&gt;node151</title>
<path fill="none" stroke="black" d="M2474.77,-359.807C2475.73,-326.109 2472.54,-253.968 2431.66,-216 2336.18,-127.297 1914.94,-98.5554 1786.18,-91.7593"/>
<polygon fill="black" stroke="black" points="1786.2,-88.2555 1776.03,-91.2373 1785.84,-95.2463 1786.2,-88.2555"/>
</g>
<!-- node55&#45;&gt;node59 -->
<g id="edge92" class="edge"><title>node55&#45;&gt;node59</title>
<path fill="none" stroke="black" d="M2481.77,-359.762C2492.78,-334.985 2512.57,-290.471 2525.4,-261.594"/>
<polygon fill="black" stroke="black" points="2528.76,-262.649 2529.63,-252.09 2522.37,-259.806 2528.76,-262.649"/>
</g>
<!-- node55&#45;&gt;node153 -->
<g id="edge90" class="edge"><title>node55&#45;&gt;node153</title>
<path fill="none" stroke="black" d="M2467.48,-359.821C2453.62,-319.559 2420.39,-225.656 2408.66,-216 2371.65,-185.517 2231.32,-170.404 2163.21,-164.737"/>
<polygon fill="black" stroke="black" points="2163.17,-161.223 2152.92,-163.908 2162.61,-168.2 2163.17,-161.223"/>
</g>
<!-- node55&#45;&gt;node66 -->
<g id="edge94" class="edge"><title>node55&#45;&gt;node66</title>
<path fill="none" stroke="black" d="M2428.53,-368.661C2360.45,-354.575 2232.48,-328.1 2166.82,-314.516"/>
<polygon fill="black" stroke="black" points="2167.34,-311.049 2156.84,-312.45 2165.92,-317.904 2167.34,-311.049"/>
</g>
<!-- node54&#45;&gt;node151 -->
<g id="edge100" class="edge"><title>node54&#45;&gt;node151</title>
<path fill="none" stroke="black" d="M1819.36,-448.607C1718.28,-444.039 1420.09,-427.945 1391.66,-396 1381.03,-384.046 1380.98,-371.906 1391.66,-360 1441.39,-304.613 1672.18,-376.775 1724.66,-324 1779.26,-269.103 1766.16,-167.177 1755.68,-117.989"/>
<polygon fill="black" stroke="black" points="1759.05,-117.041 1753.44,-108.053 1752.23,-118.577 1759.05,-117.041"/>
</g>
<!-- node54&#45;&gt;node146 -->
<g id="edge106" class="edge"><title>node54&#45;&gt;node146</title>
<path fill="none" stroke="black" d="M1819.57,-447.451C1733.11,-440.648 1493.36,-420.879 1294.66,-396 1267.96,-392.657 1237.97,-388.024 1215.03,-384.296"/>
<polygon fill="black" stroke="black" points="1215.46,-380.82 1205.03,-382.655 1214.33,-387.728 1215.46,-380.82"/>
</g>
<!-- node54&#45;&gt;node59 -->
<g id="edge108" class="edge"><title>node54&#45;&gt;node59</title>
<path fill="none" stroke="black" d="M1885.93,-444.295C1933.88,-435.728 2024.96,-418.154 2100.66,-396 2250.79,-352.066 2423.38,-282.104 2498.9,-250.478"/>
<polygon fill="black" stroke="black" points="2500.61,-253.556 2508.47,-246.456 2497.9,-247.102 2500.61,-253.556"/>
</g>
<!-- node54&#45;&gt;node153 -->
<g id="edge102" class="edge"><title>node54&#45;&gt;node153</title>
<path fill="none" stroke="black" d="M1886.04,-444.103C1933.54,-435.105 2017.35,-416.785 2039.66,-396 2055.39,-381.356 2098.46,-248.633 2117,-189.828"/>
<polygon fill="black" stroke="black" points="2120.4,-190.666 2120.06,-180.077 2113.73,-188.569 2120.4,-190.666"/>
</g>
<!-- node54&#45;&gt;node66 -->
<g id="edge110" class="edge"><title>node54&#45;&gt;node66</title>
<path fill="none" stroke="black" d="M1886,-445.061C1939.93,-436.546 2043.24,-417.891 2072.66,-396 2093.67,-380.373 2107.84,-353.747 2116.2,-333.499"/>
<polygon fill="black" stroke="black" points="2119.48,-334.735 2119.85,-324.147 2112.95,-332.194 2119.48,-334.735"/>
</g>
<!-- node54&#45;&gt;node149 -->
<g id="edge104" class="edge"><title>node54&#45;&gt;node149</title>
<path fill="none" stroke="black" d="M1819.53,-448.505C1720.39,-443.695 1431.24,-427.095 1403.66,-396 1393.05,-384.03 1392.93,-371.865 1403.66,-360 1457.46,-300.544 1684.57,-342.175 1762.66,-324 1837.59,-306.561 1920.8,-271.845 1967.22,-250.996"/>
<polygon fill="black" stroke="black" points="1968.88,-254.083 1976.55,-246.769 1966,-247.707 1968.88,-254.083"/>
</g>
<!-- node54&#45;&gt;node55 -->
<g id="edge112" class="edge"><title>node54&#45;&gt;node55</title>
<path fill="none" stroke="black" d="M1886.05,-446.129C1987.38,-434.381 2292.11,-399.05 2418.16,-384.436"/>
<polygon fill="black" stroke="black" points="2418.82,-387.882 2428.36,-383.253 2418.02,-380.928 2418.82,-387.882"/>
</g>
<!-- node176 -->
<g id="node74" class="node"><title>node176</title>
<ellipse fill="none" stroke="black" cx="1543.66" cy="-378" rx="130.789" ry="18"/>
<text text-anchor="middle" x="1543.66" y="-374.7" font-family="Times Roman,serif" font-size="12.00">/usr/lib/x86_64&#45;linux&#45;gnu/libz.so</text>
</g>
<!-- node54&#45;&gt;node176 -->
<g id="edge98" class="edge"><title>node54&#45;&gt;node176</title>
<path fill="none" stroke="black" d="M1819.6,-442.295C1772.38,-431.293 1684.29,-410.766 1620.31,-395.858"/>
<polygon fill="black" stroke="black" points="1620.79,-392.377 1610.26,-393.516 1619.2,-399.194 1620.79,-392.377"/>
</g>
<!-- node177 -->
<g id="node83" class="node"><title>node177</title>
<ellipse fill="none" stroke="black" cx="1763.66" cy="-378" rx="70.8437" ry="18"/>
<text text-anchor="middle" x="1763.66" y="-374.7" font-family="Times Roman,serif" font-size="12.00">/usr/lib/libbfd.so</text>
</g>
<!-- node54&#45;&gt;node177 -->
<g id="edge114" class="edge"><title>node54&#45;&gt;node177</title>
<path fill="none" stroke="black" d="M1830.21,-431.831C1818.99,-422.76 1805.28,-411.668 1793.23,-401.915"/>
<polygon fill="black" stroke="black" points="1795.17,-398.986 1785.2,-395.418 1790.77,-404.428 1795.17,-398.986"/>
</g>
<!-- node178 -->
<g id="node85" class="node"><title>node178</title>
<ellipse fill="none" stroke="black" cx="1941.66" cy="-378" rx="89.0421" ry="18"/>
<text text-anchor="middle" x="1941.66" y="-374.7" font-family="Times Roman,serif" font-size="12.00">/usr/lib/libiberty_pic.a</text>
</g>
<!-- node54&#45;&gt;node178 -->
<g id="edge116" class="edge"><title>node54&#45;&gt;node178</title>
<path fill="none" stroke="black" d="M1875.12,-431.831C1886.25,-422.828 1899.84,-411.833 1911.83,-402.133"/>
<polygon fill="black" stroke="black" points="1914.26,-404.676 1919.83,-395.665 1909.85,-399.233 1914.26,-404.676"/>
</g>
<!-- node64&#45;&gt;node151 -->
<g id="edge120" class="edge"><title>node64&#45;&gt;node151</title>
<path fill="none" stroke="black" d="M1333.36,-503.985C1308.79,-470.655 1258.64,-402.176 1256.66,-396 1251.78,-380.763 1245.87,-371.814 1256.66,-360 1316.41,-294.594 1586.68,-381.968 1653.66,-324 1715.86,-270.176 1657.19,-216.162 1696.66,-144 1702.41,-133.49 1710.75,-123.558 1719.07,-115.146"/>
<polygon fill="black" stroke="black" points="1721.54,-117.627 1726.31,-108.168 1716.68,-112.586 1721.54,-117.627"/>
</g>
<!-- node64&#45;&gt;node147 -->
<g id="edge126" class="edge"><title>node64&#45;&gt;node147</title>
<path fill="none" stroke="black" d="M1312.28,-505.665C1291.69,-495.513 1265.22,-481.804 1242.66,-468 1195.64,-439.227 1185.28,-429.72 1141.66,-396 1121.95,-380.754 1121.51,-369.971 1098.66,-360 982.057,-309.103 937.292,-357.923 814.665,-324 813.401,-323.65 812.125,-323.268 810.845,-322.86"/>
<polygon fill="black" stroke="black" points="811.653,-319.43 801.059,-319.31 809.266,-326.011 811.653,-319.43"/>
</g>
<!-- node64&#45;&gt;node146 -->
<g id="edge128" class="edge"><title>node64&#45;&gt;node146</title>
<path fill="none" stroke="black" d="M1327.1,-503.661C1307.19,-485.179 1275.29,-456.03 1246.66,-432 1234.85,-422.083 1221.57,-411.551 1209.84,-402.446"/>
<polygon fill="black" stroke="black" points="1211.67,-399.437 1201.62,-396.098 1207.4,-404.979 1211.67,-399.437"/>
</g>
<!-- node64&#45;&gt;node53 -->
<g id="edge130" class="edge"><title>node64&#45;&gt;node53</title>
<path fill="none" stroke="black" d="M1312.48,-515.861C1238.7,-502.615 1064.88,-471.405 985.935,-457.23"/>
<polygon fill="black" stroke="black" points="986.354,-453.75 975.892,-455.427 985.116,-460.64 986.354,-453.75"/>
</g>
<!-- node64&#45;&gt;node66 -->
<g id="edge122" class="edge"><title>node64&#45;&gt;node66</title>
<path fill="none" stroke="black" d="M1351.87,-503.74C1363.56,-463.312 1391.8,-369.087 1403.66,-360 1430.86,-339.172 1935.38,-314.655 2084.5,-307.838"/>
<polygon fill="black" stroke="black" points="2084.78,-311.329 2094.61,-307.378 2084.46,-304.336 2084.78,-311.329"/>
</g>
<!-- node64&#45;&gt;node54 -->
<g id="edge124" class="edge"><title>node64&#45;&gt;node54</title>
<path fill="none" stroke="black" d="M1380.86,-514.199C1396.59,-510.778 1415.52,-506.892 1432.66,-504 1569.58,-480.907 1733.08,-462.496 1809.41,-454.429"/>
<polygon fill="black" stroke="black" points="1810.01,-457.885 1819.59,-453.359 1809.28,-450.923 1810.01,-457.885"/>
</g>
<!-- node171&#45;&gt;node151 -->
<g id="edge160" class="edge"><title>node171&#45;&gt;node151</title>
<path fill="none" stroke="black" d="M1211.58,-662.062C1009.73,-646.56 302.409,-584.795 113.665,-468 71.4848,-441.899 47.665,-427.603 47.665,-378 47.665,-378 47.665,-378 47.665,-234 47.665,-177.116 86.4213,-166.502 138.665,-144 213.212,-111.891 1476.88,-93.6061 1711.38,-90.4815"/>
<polygon fill="black" stroke="black" points="1711.51,-93.9803 1721.46,-90.3482 1711.41,-86.9809 1711.51,-93.9803"/>
</g>
<!-- node171&#45;&gt;node147 -->
<g id="edge162" class="edge"><title>node171&#45;&gt;node147</title>
<path fill="none" stroke="black" d="M1243.66,-647.733C1201.65,-612.845 1107.1,-534.295 1027.66,-468 1008.53,-452.03 1003.87,-447.892 984.665,-432 945.735,-399.78 939.754,-386.401 896.665,-360 869.279,-343.22 835.761,-328.866 810.635,-319.185"/>
<polygon fill="black" stroke="black" points="811.698,-315.845 801.107,-315.581 809.222,-322.392 811.698,-315.845"/>
</g>
<!-- node171&#45;&gt;node146 -->
<g id="edge164" class="edge"><title>node171&#45;&gt;node146</title>
<path fill="none" stroke="black" d="M1260.16,-647.984C1245.25,-599.193 1204.02,-464.238 1186.13,-405.693"/>
<polygon fill="black" stroke="black" points="1189.44,-404.55 1183.17,-396.009 1182.74,-406.595 1189.44,-404.55"/>
</g>
<!-- node171&#45;&gt;node53 -->
<g id="edge166" class="edge"><title>node171&#45;&gt;node53</title>
<path fill="none" stroke="black" d="M1211.57,-657.236C1173.18,-649.386 1121.43,-635.406 1080.66,-612 1024.18,-579.567 980.997,-513.965 959.914,-476.965"/>
<polygon fill="black" stroke="black" points="962.961,-475.243 955.035,-468.212 956.847,-478.651 962.961,-475.243"/>
</g>
<!-- node171&#45;&gt;node63 -->
<g id="edge168" class="edge"><title>node171&#45;&gt;node63</title>
<path fill="none" stroke="black" d="M1211.31,-656.925C1165.41,-648.303 1098.43,-633.451 1042.66,-612 996.099,-594.089 946.23,-565.665 913.444,-545.559"/>
<polygon fill="black" stroke="black" points="915.011,-542.413 904.667,-540.124 911.326,-548.364 915.011,-542.413"/>
</g>
<!-- node171&#45;&gt;node59 -->
<g id="edge170" class="edge"><title>node171&#45;&gt;node59</title>
<path fill="none" stroke="black" d="M1319.79,-665.637C1490.85,-664.047 2018.21,-655.641 2182.66,-612 2287.17,-584.266 2303.24,-550.9 2400.66,-504 2434.7,-487.614 2445.32,-487.518 2477.66,-468 2523.02,-440.629 2546.82,-442.247 2572.66,-396 2596.13,-354.011 2595.28,-333.497 2579.66,-288 2576.2,-277.889 2569.98,-268.214 2563.37,-259.917"/>
<polygon fill="black" stroke="black" points="2565.87,-257.454 2556.71,-252.114 2560.54,-261.995 2565.87,-257.454"/>
</g>
<!-- node171&#45;&gt;node66 -->
<g id="edge172" class="edge"><title>node171&#45;&gt;node66</title>
<path fill="none" stroke="black" d="M1319.84,-665.449C1452.93,-663.447 1792.62,-654.227 1896.66,-612 2025.11,-559.869 2076.1,-526.918 2121.66,-396 2128.55,-376.213 2129.33,-352.491 2128.5,-334.37"/>
<polygon fill="black" stroke="black" points="2131.98,-333.912 2127.84,-324.158 2124.99,-334.363 2131.98,-333.912"/>
</g>
<!-- node171&#45;&gt;node55 -->
<g id="edge174" class="edge"><title>node171&#45;&gt;node55</title>
<path fill="none" stroke="black" d="M1319.88,-664.796C1500.2,-660.502 2072.65,-644.432 2148.66,-612 2175.79,-600.429 2318.83,-447.901 2343.66,-432 2366.82,-417.174 2394.73,-404.95 2418.74,-395.904"/>
<polygon fill="black" stroke="black" points="2420.24,-399.082 2428.42,-392.348 2417.83,-392.511 2420.24,-399.082"/>
</g>
<!-- node171&#45;&gt;node54 -->
<g id="edge176" class="edge"><title>node171&#45;&gt;node54</title>
<path fill="none" stroke="black" d="M1314.7,-647.955C1427.46,-606.463 1703.64,-504.838 1809.97,-465.711"/>
<polygon fill="black" stroke="black" points="1811.24,-468.971 1819.42,-462.233 1808.83,-462.402 1811.24,-468.971"/>
</g>
<!-- node171&#45;&gt;node64 -->
<g id="edge178" class="edge"><title>node171&#45;&gt;node64</title>
<path fill="none" stroke="black" d="M1262.29,-647.839C1259.68,-628.713 1258.34,-598.333 1270.66,-576 1278.23,-562.298 1290.92,-551.243 1303.78,-542.791"/>
<polygon fill="black" stroke="black" points="1305.96,-545.562 1312.66,-537.354 1302.3,-539.593 1305.96,-545.562"/>
</g>
<!-- node171&#45;&gt;node164 -->
<g id="edge134" class="edge"><title>node171&#45;&gt;node164</title>
<path fill="none" stroke="black" d="M1319.84,-659.355C1434.65,-645.273 1700.66,-612.645 1807.27,-599.568"/>
<polygon fill="black" stroke="black" points="1807.88,-603.02 1817.38,-598.328 1807.02,-596.072 1807.88,-603.02"/>
</g>
<!-- node164&#45;&gt;node151 -->
<g id="edge136" class="edge"><title>node164&#45;&gt;node151</title>
<path fill="none" stroke="black" d="M1817.61,-591.765C1726.48,-583.84 1482.15,-548.619 1380.66,-396 1371.81,-382.677 1370.05,-371.971 1380.66,-360 1469.47,-259.858 1577.46,-410.426 1679.66,-324 1741.13,-272.024 1749.36,-168.251 1749.52,-118.236"/>
<polygon fill="black" stroke="black" points="1753.02,-118.109 1749.45,-108.136 1746.02,-118.163 1753.02,-118.109"/>
</g>
<!-- node164&#45;&gt;node52 -->
<g id="edge156" class="edge"><title>node164&#45;&gt;node52</title>
<path fill="none" stroke="black" d="M1887.98,-591.935C1988.49,-585.894 2284.72,-566.967 2529.66,-540 2554.34,-537.283 2581.59,-533.553 2604.59,-530.193"/>
<polygon fill="black" stroke="black" points="2605.11,-533.653 2614.49,-528.73 2604.09,-526.728 2605.11,-533.653"/>
</g>
<!-- node164&#45;&gt;node150 -->
<g id="edge138" class="edge"><title>node164&#45;&gt;node150</title>
<path fill="none" stroke="black" d="M1888.04,-590.026C1999.52,-577.505 2342.82,-538.943 2456.6,-526.163"/>
<polygon fill="black" stroke="black" points="2457.03,-529.638 2466.57,-525.043 2456.24,-522.681 2457.03,-529.638"/>
</g>
<!-- node164&#45;&gt;node147 -->
<g id="edge148" class="edge"><title>node164&#45;&gt;node147</title>
<path fill="none" stroke="black" d="M1817.38,-592.57C1711.8,-587.97 1399.77,-571.963 1303.66,-540 1245.01,-520.491 1234.96,-503.946 1184.66,-468 1184.55,-467.915 1055.8,-360.06 1055.66,-360 962.279,-317.531 927.333,-348.304 827.665,-324 822.145,-322.654 816.38,-321.004 810.759,-319.256"/>
<polygon fill="black" stroke="black" points="811.473,-315.807 800.88,-316.045 809.309,-322.465 811.473,-315.807"/>
</g>
<!-- node164&#45;&gt;node146 -->
<g id="edge150" class="edge"><title>node164&#45;&gt;node146</title>
<path fill="none" stroke="black" d="M1817.39,-590.72C1735.52,-582.833 1534.69,-561.835 1470.66,-540 1378.73,-508.648 1365.91,-478.558 1280.66,-432 1258.64,-419.97 1233.71,-406.89 1213.9,-396.616"/>
<polygon fill="black" stroke="black" points="1215.4,-393.448 1204.91,-391.962 1212.18,-399.666 1215.4,-393.448"/>
</g>
<!-- node164&#45;&gt;node53 -->
<g id="edge152" class="edge"><title>node164&#45;&gt;node53</title>
<path fill="none" stroke="black" d="M1817.6,-592.915C1726.62,-589.634 1475.78,-577.608 1270.66,-540 1165.93,-520.797 1045.97,-483.453 985.286,-463.437"/>
<polygon fill="black" stroke="black" points="986.308,-460.089 975.715,-460.261 984.104,-466.732 986.308,-460.089"/>
</g>
<!-- node164&#45;&gt;node63 -->
<g id="edge158" class="edge"><title>node164&#45;&gt;node63</title>
<path fill="none" stroke="black" d="M1817.64,-591.416C1669.74,-580.505 1096.06,-538.185 925.044,-525.569"/>
<polygon fill="black" stroke="black" points="925.07,-522.061 914.839,-524.816 924.555,-529.042 925.07,-522.061"/>
</g>
<!-- node164&#45;&gt;node59 -->
<g id="edge140" class="edge"><title>node164&#45;&gt;node59</title>
<path fill="none" stroke="black" d="M1887.89,-589.525C1977.98,-577.358 2223.25,-539.681 2415.66,-468 2479.02,-444.398 2509.93,-450.701 2549.66,-396 2578.08,-356.883 2573.06,-335.215 2562.66,-288 2560.68,-279.008 2557.05,-269.732 2553.16,-261.46"/>
<polygon fill="black" stroke="black" points="2556.17,-259.652 2548.55,-252.287 2549.91,-262.794 2556.17,-259.652"/>
</g>
<!-- node164&#45;&gt;node66 -->
<g id="edge142" class="edge"><title>node164&#45;&gt;node66</title>
<path fill="none" stroke="black" d="M1887.22,-575.893C1941.11,-545.86 2044.77,-480.573 2100.66,-396 2112.9,-377.48 2119.2,-353.031 2122.41,-334.29"/>
<polygon fill="black" stroke="black" points="2125.89,-334.684 2123.93,-324.272 2118.97,-333.634 2125.89,-334.684"/>
</g>
<!-- node164&#45;&gt;node55 -->
<g id="edge144" class="edge"><title>node164&#45;&gt;node55</title>
<path fill="none" stroke="black" d="M1887.92,-581.258C1964.62,-553.596 2152.48,-486.173 2310.66,-432 2346.7,-419.658 2387.38,-406.183 2419.08,-395.781"/>
<polygon fill="black" stroke="black" points="2420.2,-399.097 2428.61,-392.656 2418.02,-392.445 2420.2,-399.097"/>
</g>
<!-- node164&#45;&gt;node54 -->
<g id="edge146" class="edge"><title>node164&#45;&gt;node54</title>
<path fill="none" stroke="black" d="M1852.66,-575.762C1852.66,-551.201 1852.66,-507.247 1852.66,-478.354"/>
<polygon fill="black" stroke="black" points="1856.17,-478.09 1852.66,-468.09 1849.17,-478.09 1856.17,-478.09"/>
</g>
<!-- node164&#45;&gt;node64 -->
<g id="edge154" class="edge"><title>node164&#45;&gt;node64</title>
<path fill="none" stroke="black" d="M1817.6,-590.97C1724.94,-582.787 1475.19,-559.542 1394.66,-540 1393.23,-539.652 1391.78,-539.274 1390.33,-538.871"/>
<polygon fill="black" stroke="black" points="1391.28,-535.504 1380.7,-535.907 1389.23,-542.194 1391.28,-535.504"/>
</g>
<!-- node78&#45;&gt;node151 -->
<g id="edge184" class="edge"><title>node78&#45;&gt;node151</title>
<path fill="none" stroke="black" d="M2406.86,-448.646C2477.38,-443.531 2660.66,-419.335 2660.66,-306 2660.66,-306 2660.66,-306 2660.66,-234 2660.66,-157.394 2586.62,-167.364 2513.66,-144 2375.7,-99.8186 1919.54,-91.7305 1785.81,-90.2982"/>
<polygon fill="black" stroke="black" points="1785.71,-86.7971 1775.67,-90.1959 1785.64,-93.7967 1785.71,-86.7971"/>
</g>
<!-- node78&#45;&gt;node59 -->
<g id="edge190" class="edge"><title>node78&#45;&gt;node59</title>
<path fill="none" stroke="black" d="M2406.84,-443.841C2445.38,-434.513 2512.9,-415.78 2527.66,-396 2556.69,-357.12 2551.19,-297.253 2544.48,-262.22"/>
<polygon fill="black" stroke="black" points="2547.86,-261.274 2542.4,-252.196 2541.01,-262.699 2547.86,-261.274"/>
</g>
<!-- node78&#45;&gt;node153 -->
<g id="edge186" class="edge"><title>node78&#45;&gt;node153</title>
<path fill="none" stroke="black" d="M2379.01,-431.838C2377.58,-412.71 2373.16,-382.329 2359.66,-360 2309.94,-277.72 2213.87,-212.966 2161.62,-181.977"/>
<polygon fill="black" stroke="black" points="2163.1,-178.789 2152.7,-176.763 2159.57,-184.832 2163.1,-178.789"/>
</g>
<!-- node78&#45;&gt;node66 -->
<g id="edge192" class="edge"><title>node78&#45;&gt;node66</title>
<path fill="none" stroke="black" d="M2368.23,-431.775C2354.54,-411.426 2329.8,-378.878 2300.66,-360 2259.44,-333.295 2204.25,-319.156 2166.95,-312.142"/>
<polygon fill="black" stroke="black" points="2167.4,-308.666 2156.94,-310.348 2166.16,-315.556 2167.4,-308.666"/>
</g>
<!-- node78&#45;&gt;node149 -->
<g id="edge188" class="edge"><title>node78&#45;&gt;node149</title>
<path fill="none" stroke="black" d="M2374.5,-431.825C2367.97,-411.827 2354.95,-379.889 2333.66,-360 2248.39,-280.307 2107.52,-249.468 2040.85,-238.889"/>
<polygon fill="black" stroke="black" points="2041.22,-235.405 2030.8,-237.36 2040.16,-242.325 2041.22,-235.405"/>
</g>
<!-- node78&#45;&gt;node55 -->
<g id="edge194" class="edge"><title>node78&#45;&gt;node55</title>
<path fill="none" stroke="black" d="M2403.39,-431.831C2415.07,-422.878 2429.33,-411.956 2441.95,-402.295"/>
<polygon fill="black" stroke="black" points="2444.14,-405.022 2449.95,-396.163 2439.89,-399.465 2444.14,-405.022"/>
</g>
<!-- node168&#45;&gt;node151 -->
<g id="edge198" class="edge"><title>node168&#45;&gt;node151</title>
<path fill="none" stroke="black" d="M2235.74,-661.174C2291.79,-654.965 2378.16,-641.261 2447.66,-612 2526.06,-578.994 2529.32,-541.503 2605.66,-504 2652.21,-481.133 2672.01,-494.37 2716.66,-468 2767.03,-438.263 2812.66,-436.485 2812.66,-378 2812.66,-378 2812.66,-378 2812.66,-234 2812.66,-214.276 2861.59,-204.729 2682.66,-144 2596.79,-114.852 1949.83,-95.4613 1786.19,-90.9889"/>
<polygon fill="black" stroke="black" points="1786.21,-87.4883 1776.12,-90.7159 1786.02,-94.4857 1786.21,-87.4883"/>
</g>
<!-- node168&#45;&gt;node52 -->
<g id="edge220" class="edge"><title>node168&#45;&gt;node52</title>
<path fill="none" stroke="black" d="M2235.99,-660.264C2321.57,-651.301 2476.65,-632.829 2528.66,-612 2567.16,-596.586 2605.37,-567.796 2630.09,-546.92"/>
<polygon fill="black" stroke="black" points="2632.64,-549.346 2637.94,-540.174 2628.07,-544.038 2632.64,-549.346"/>
</g>
<!-- node168&#45;&gt;node150 -->
<g id="edge218" class="edge"><title>node168&#45;&gt;node150</title>
<path fill="none" stroke="black" d="M2235.7,-656.997C2295.76,-646.942 2384.89,-629.735 2414.66,-612 2440.8,-596.43 2462.88,-569.25 2476.99,-548.822"/>
<polygon fill="black" stroke="black" points="2480.07,-550.515 2482.72,-540.257 2474.25,-546.623 2480.07,-550.515"/>
</g>
<!-- node168&#45;&gt;node147 -->
<g id="edge210" class="edge"><title>node168&#45;&gt;node147</title>
<path fill="none" stroke="black" d="M2119.52,-665.253C1961.72,-662.711 1528.13,-652.168 1391.66,-612 1169.16,-546.506 1147.04,-453.257 934.665,-360 933.18,-359.348 857.655,-334.074 810.585,-318.338"/>
<polygon fill="black" stroke="black" points="811.604,-314.988 801.01,-315.137 809.385,-321.627 811.604,-314.988"/>
</g>
<!-- node168&#45;&gt;node146 -->
<g id="edge212" class="edge"><title>node168&#45;&gt;node146</title>
<path fill="none" stroke="black" d="M2119.54,-664.044C1946.51,-657.242 1438.46,-629.898 1303.66,-540 1276.32,-521.766 1222.96,-445.697 1195.28,-404.608"/>
<polygon fill="black" stroke="black" points="1198.09,-402.523 1189.62,-396.165 1192.28,-406.42 1198.09,-402.523"/>
</g>
<!-- node168&#45;&gt;node53 -->
<g id="edge214" class="edge"><title>node168&#45;&gt;node53</title>
<path fill="none" stroke="black" d="M2119.49,-664.722C1950.87,-660.648 1463.95,-646.172 1308.66,-612 1183.08,-584.363 1048,-511.131 983.777,-473.321"/>
<polygon fill="black" stroke="black" points="985.212,-470.102 974.826,-468.009 981.64,-476.122 985.212,-470.102"/>
</g>
<!-- node168&#45;&gt;node59 -->
<g id="edge200" class="edge"><title>node168&#45;&gt;node59</title>
<path fill="none" stroke="black" d="M2235.93,-648.782C2262.89,-639.663 2294.83,-627.188 2321.66,-612 2388.84,-573.987 2387.66,-536.513 2457.66,-504 2531.26,-469.817 2585.25,-530.783 2636.66,-468 2687.35,-406.105 2677.5,-356.792 2636.66,-288 2623.67,-266.101 2598.32,-252.515 2576.52,-244.447"/>
<polygon fill="black" stroke="black" points="2577.41,-241.052 2566.82,-241.119 2575.14,-247.674 2577.41,-241.052"/>
</g>
<!-- node168&#45;&gt;node66 -->
<g id="edge202" class="edge"><title>node168&#45;&gt;node66</title>
<path fill="none" stroke="black" d="M2193.42,-647.86C2214.34,-621.852 2248.66,-571.615 2248.66,-522 2248.66,-522 2248.66,-522 2248.66,-450 2248.66,-408.602 2250.24,-392.55 2224.66,-360 2209.84,-341.129 2186.51,-327.949 2166.22,-319.336"/>
<polygon fill="black" stroke="black" points="2167.44,-316.055 2156.86,-315.584 2164.84,-322.553 2167.44,-316.055"/>
</g>
<!-- node168&#45;&gt;node55 -->
<g id="edge204" class="edge"><title>node168&#45;&gt;node55</title>
<path fill="none" stroke="black" d="M2227.06,-647.954C2248.11,-638.951 2272.24,-626.8 2291.66,-612 2308.46,-599.203 2403.03,-484.915 2415.66,-468 2430.99,-447.49 2446.61,-422.999 2457.78,-404.746"/>
<polygon fill="black" stroke="black" points="2460.84,-406.444 2463.03,-396.079 2454.85,-402.816 2460.84,-406.444"/>
</g>
<!-- node168&#45;&gt;node54 -->
<g id="edge208" class="edge"><title>node168&#45;&gt;node54</title>
<path fill="none" stroke="black" d="M2166.71,-647.953C2145.46,-614.499 2095.38,-542.749 2034.66,-504 1991.82,-476.656 1934.55,-462.66 1895.78,-455.853"/>
<polygon fill="black" stroke="black" points="1896.29,-452.391 1885.85,-454.196 1895.14,-459.295 1896.29,-452.391"/>
</g>
<!-- node168&#45;&gt;node64 -->
<g id="edge216" class="edge"><title>node168&#45;&gt;node64</title>
<path fill="none" stroke="black" d="M2119.31,-660.875C1988,-648.423 1660.06,-612.16 1394.66,-540 1393.24,-539.613 1391.8,-539.201 1390.36,-538.769"/>
<polygon fill="black" stroke="black" points="1391.35,-535.412 1380.76,-535.67 1389.2,-542.073 1391.35,-535.412"/>
</g>
<!-- node168&#45;&gt;node164 -->
<g id="edge222" class="edge"><title>node168&#45;&gt;node164</title>
<path fill="none" stroke="black" d="M2119.56,-653.128C2056.01,-639.048 1955.5,-616.782 1897.67,-603.97"/>
<polygon fill="black" stroke="black" points="1898.25,-600.514 1887.73,-601.768 1896.73,-607.348 1898.25,-600.514"/>
</g>
<!-- node168&#45;&gt;node78 -->
<g id="edge206" class="edge"><title>node168&#45;&gt;node78</title>
<path fill="none" stroke="black" d="M2212.46,-647.934C2228.74,-638.512 2247.78,-626.027 2262.66,-612 2306.29,-570.899 2344.32,-511.496 2364.43,-477.21"/>
<polygon fill="black" stroke="black" points="2367.65,-478.65 2369.62,-468.241 2361.59,-475.144 2367.65,-478.65"/>
</g>
</g>
</svg>
