<?xml version="1.0" encoding="UTF-8" standalone="no"?>
<!DOCTYPE svg PUBLIC "-//W3C//DTD SVG 1.1//EN"
 "http://www.w3.org/Graphics/SVG/1.1/DTD/svg11.dtd">
<!-- Generated by graphviz version 2.26.3 (20100126.1600)
 -->
<!-- Title: GG Pages: 1 -->
<svg width="1934pt" height="548pt"
 viewBox="0.00 0.00 1934.00 548.00" xmlns="http://www.w3.org/2000/svg" xmlns:xlink="http://www.w3.org/1999/xlink">
<g id="graph1" class="graph" transform="scale(1 1) rotate(0) translate(4 544)">
<title>GG</title>
<polygon fill="white" stroke="white" points="-4,5 -4,-544 1931,-544 1931,5 -4,5"/>
<!-- node64 -->
<g id="node1" class="node"><title>node64</title>
<polygon fill="none" stroke="black" points="941,-540 873,-540 873,-504 941,-504 941,-540"/>
<text text-anchor="middle" x="907" y="-518.7" font-family="Times Roman,serif" font-size="12.00">workunit</text>
</g>
<!-- node151 -->
<g id="node2" class="node"><title>node151</title>
<polygon fill="none" stroke="black" points="937,-108 883,-108 883,-72 937,-72 937,-108"/>
<text text-anchor="middle" x="910" y="-86.7" font-family="Times Roman,serif" font-size="12.00">jlib</text>
</g>
<!-- node64&#45;&gt;node151 -->
<g id="edge2" class="edge"><title>node64&#45;&gt;node151</title>
<path fill="none" stroke="black" d="M872.791,-521.132C748.065,-517.707 318.127,-503.532 186,-468 97.3153,-444.151 5.62312e-15,-469.836 0,-378 0,-378 0,-378 0,-234 0,-144.11 701.663,-101.052 872.73,-91.8905"/>
<polygon fill="black" stroke="black" points="872.964,-95.3831 882.766,-91.3595 872.595,-88.3928 872.964,-95.3831"/>
</g>
<!-- node66 -->
<g id="node12" class="node"><title>node66</title>
<polygon fill="none" stroke="black" points="754,-324 692,-324 692,-288 754,-288 754,-324"/>
<text text-anchor="middle" x="723" y="-302.7" font-family="Times Roman,serif" font-size="12.00">dalibase</text>
</g>
<!-- node64&#45;&gt;node66 -->
<g id="edge12" class="edge"><title>node64&#45;&gt;node66</title>
<path fill="none" stroke="black" d="M872.58,-519.269C724.49,-507.18 146.747,-456.396 95,-396 84.5898,-383.85 84.1818,-371.788 95,-360 134.621,-316.825 547.598,-308.095 681.406,-306.396"/>
<polygon fill="black" stroke="black" points="681.693,-309.893 691.65,-306.273 681.609,-302.893 681.693,-309.893"/>
</g>
<!-- node54 -->
<g id="node26" class="node"><title>node54</title>
<polygon fill="none" stroke="black" points="821,-468 755,-468 755,-432 821,-432 821,-468"/>
<text text-anchor="middle" x="788" y="-446.7" font-family="Times Roman,serif" font-size="12.00">dllserver</text>
</g>
<!-- node64&#45;&gt;node54 -->
<g id="edge32" class="edge"><title>node64&#45;&gt;node54</title>
<path fill="none" stroke="black" d="M876.971,-503.831C861.75,-494.622 843.087,-483.33 826.792,-473.471"/>
<polygon fill="black" stroke="black" points="828.387,-470.345 818.019,-468.163 824.763,-476.334 828.387,-470.345"/>
</g>
<!-- node146 -->
<g id="node33" class="node"><title>node146</title>
<polygon fill="none" stroke="black" points="1184,-396 1130,-396 1130,-360 1184,-360 1184,-396"/>
<text text-anchor="middle" x="1157" y="-374.7" font-family="Times Roman,serif" font-size="12.00">eclrtl</text>
</g>
<!-- node64&#45;&gt;node146 -->
<g id="edge78" class="edge"><title>node64&#45;&gt;node146</title>
<path fill="none" stroke="black" d="M941.136,-509.752C967.055,-499.891 1003.2,-484.92 1033,-468 1066.94,-448.733 1102.7,-421.993 1127.05,-402.671"/>
<polygon fill="black" stroke="black" points="1129.55,-405.154 1135.17,-396.171 1125.17,-399.691 1129.55,-405.154"/>
</g>
<!-- node147 -->
<g id="node44" class="node"><title>node147</title>
<polygon fill="none" stroke="black" points="1054,-324 1000,-324 1000,-288 1054,-288 1054,-324"/>
<text text-anchor="middle" x="1027" y="-302.7" font-family="Times Roman,serif" font-size="12.00">nbcd</text>
</g>
<!-- node64&#45;&gt;node147 -->
<g id="edge76" class="edge"><title>node64&#45;&gt;node147</title>
<path fill="none" stroke="black" d="M919.57,-503.675C935.864,-479.552 964.709,-435.56 986,-396 996.985,-375.589 1007.79,-351.677 1015.54,-333.633"/>
<polygon fill="black" stroke="black" points="1018.83,-334.843 1019.52,-324.271 1012.39,-332.106 1018.83,-334.843"/>
</g>
<!-- node53 -->
<g id="node61" class="node"><title>node53</title>
<polygon fill="none" stroke="black" points="1170,-468 1110,-468 1110,-432 1170,-432 1170,-468"/>
<text text-anchor="middle" x="1140" y="-446.7" font-family="Times Roman,serif" font-size="12.00">deftype</text>
</g>
<!-- node64&#45;&gt;node53 -->
<g id="edge80" class="edge"><title>node64&#45;&gt;node53</title>
<path fill="none" stroke="black" d="M941.163,-512.286C977.655,-501.798 1037.12,-484.387 1088,-468 1091.99,-466.715 1096.14,-465.342 1100.28,-463.948"/>
<polygon fill="black" stroke="black" points="1101.49,-467.232 1109.83,-460.692 1099.23,-460.606 1101.49,-467.232"/>
</g>
<!-- node152 -->
<g id="node4" class="node"><title>node152</title>
<polygon fill="none" stroke="black" points="788,-36 748.056,-18 788,-3.55271e-15 827.944,-18 788,-36"/>
<text text-anchor="middle" x="788" y="-14.7" font-family="Times Roman,serif" font-size="12.00">lzma</text>
</g>
<!-- node151&#45;&gt;node152 -->
<g id="edge4" class="edge"><title>node151&#45;&gt;node152</title>
<path fill="none" stroke="black" d="M882.924,-74.0209C862.47,-61.9494 834.554,-45.4743 814.293,-33.5172"/>
<polygon fill="black" stroke="black" points="815.968,-30.4417 805.577,-28.3733 812.41,-36.4701 815.968,-30.4417"/>
</g>
<!-- node187 -->
<g id="node6" class="node"><title>node187</title>
<ellipse fill="none" stroke="black" cx="873" cy="-18" rx="27" ry="18"/>
<text text-anchor="middle" x="873" y="-14.7" font-family="Times Roman,serif" font-size="12.00">dl</text>
</g>
<!-- node151&#45;&gt;node187 -->
<g id="edge6" class="edge"><title>node151&#45;&gt;node187</title>
<path fill="none" stroke="black" d="M900.663,-71.8314C896.405,-63.5451 891.28,-53.5727 886.605,-44.4748"/>
<polygon fill="black" stroke="black" points="889.635,-42.7123 881.951,-35.4177 883.408,-45.9118 889.635,-42.7123"/>
</g>
<!-- node179 -->
<g id="node8" class="node"><title>node179</title>
<ellipse fill="none" stroke="black" cx="948" cy="-18" rx="30.0465" ry="18"/>
<text text-anchor="middle" x="948" y="-14.7" font-family="Times Roman,serif" font-size="12.00">crypt</text>
</g>
<!-- node151&#45;&gt;node179 -->
<g id="edge8" class="edge"><title>node151&#45;&gt;node179</title>
<path fill="none" stroke="black" d="M919.589,-71.8314C923.962,-63.5451 929.226,-53.5727 934.027,-44.4748"/>
<polygon fill="black" stroke="black" points="937.235,-45.8952 938.807,-35.4177 931.044,-42.6279 937.235,-45.8952"/>
</g>
<!-- node188 -->
<g id="node10" class="node"><title>node188</title>
<ellipse fill="none" stroke="black" cx="1023" cy="-18" rx="27" ry="18"/>
<text text-anchor="middle" x="1023" y="-14.7" font-family="Times Roman,serif" font-size="12.00">rt</text>
</g>
<!-- node151&#45;&gt;node188 -->
<g id="edge10" class="edge"><title>node151&#45;&gt;node188</title>
<path fill="none" stroke="black" d="M937.066,-72.7542C954.414,-61.7009 976.898,-47.375 994.516,-36.1494"/>
<polygon fill="black" stroke="black" points="996.679,-38.9209 1003.23,-30.5955 992.918,-33.0174 996.679,-38.9209"/>
</g>
<!-- node66&#45;&gt;node151 -->
<g id="edge14" class="edge"><title>node66&#45;&gt;node151</title>
<path fill="none" stroke="black" d="M722.49,-287.879C722.564,-254.939 727.473,-184.883 765,-144 793.029,-113.464 839.947,-100.121 872.801,-94.3382"/>
<polygon fill="black" stroke="black" points="873.612,-97.753 882.932,-92.7142 872.504,-90.8412 873.612,-97.753"/>
</g>
<!-- node153 -->
<g id="node15" class="node"><title>node153</title>
<polygon fill="none" stroke="black" points="828,-180 774,-180 774,-144 828,-144 828,-180"/>
<text text-anchor="middle" x="801" y="-158.7" font-family="Times Roman,serif" font-size="12.00">mp</text>
</g>
<!-- node66&#45;&gt;node153 -->
<g id="edge16" class="edge"><title>node66&#45;&gt;node153</title>
<path fill="none" stroke="black" d="M731.522,-287.837C740.26,-269.492 754.45,-240.447 768,-216 772.981,-207.013 778.726,-197.387 784.013,-188.786"/>
<polygon fill="black" stroke="black" points="787.002,-190.607 789.305,-180.266 781.056,-186.914 787.002,-190.607"/>
</g>
<!-- node149 -->
<g id="node18" class="node"><title>node149</title>
<polygon fill="none" stroke="black" points="678,-252 624,-252 624,-216 678,-216 678,-252"/>
<text text-anchor="middle" x="651" y="-230.7" font-family="Times Roman,serif" font-size="12.00">hrpc</text>
</g>
<!-- node66&#45;&gt;node149 -->
<g id="edge20" class="edge"><title>node66&#45;&gt;node149</title>
<path fill="none" stroke="black" d="M704.831,-287.831C696.285,-279.285 685.944,-268.944 676.62,-259.62"/>
<polygon fill="black" stroke="black" points="678.959,-257.009 669.413,-252.413 674.009,-261.959 678.959,-257.009"/>
</g>
<!-- node59 -->
<g id="node22" class="node"><title>node59</title>
<polygon fill="none" stroke="black" points="906,-252 848,-252 848,-216 906,-216 906,-252"/>
<text text-anchor="middle" x="877" y="-230.7" font-family="Times Roman,serif" font-size="12.00">remote</text>
</g>
<!-- node66&#45;&gt;node59 -->
<g id="edge26" class="edge"><title>node66&#45;&gt;node59</title>
<path fill="none" stroke="black" d="M754.164,-291.43C778.586,-280.012 812.681,-264.071 838.755,-251.881"/>
<polygon fill="black" stroke="black" points="840.389,-254.98 847.966,-247.574 837.425,-248.639 840.389,-254.98"/>
</g>
<!-- node153&#45;&gt;node151 -->
<g id="edge18" class="edge"><title>node153&#45;&gt;node151</title>
<path fill="none" stroke="black" d="M828.224,-144.017C842.14,-134.825 859.252,-123.521 874.22,-113.634"/>
<polygon fill="black" stroke="black" points="876.33,-116.435 882.745,-108.003 872.472,-110.594 876.33,-116.435"/>
</g>
<!-- node149&#45;&gt;node151 -->
<g id="edge22" class="edge"><title>node149&#45;&gt;node151</title>
<path fill="none" stroke="black" d="M654.337,-215.94C659.087,-195.43 669.81,-162.43 692,-144 719.334,-121.299 818.24,-103.551 872.956,-95.2102"/>
<polygon fill="black" stroke="black" points="873.58,-98.6558 882.953,-93.7158 872.546,-91.7327 873.58,-98.6558"/>
</g>
<!-- node149&#45;&gt;node153 -->
<g id="edge24" class="edge"><title>node149&#45;&gt;node153</title>
<path fill="none" stroke="black" d="M678.164,-220.961C702.406,-209.325 738.092,-192.196 764.762,-179.394"/>
<polygon fill="black" stroke="black" points="766.285,-182.546 773.785,-175.063 763.255,-176.235 766.285,-182.546"/>
</g>
<!-- node59&#45;&gt;node151 -->
<g id="edge28" class="edge"><title>node59&#45;&gt;node151</title>
<path fill="none" stroke="black" d="M881.179,-215.762C886.833,-191.093 896.97,-146.86 903.59,-117.973"/>
<polygon fill="black" stroke="black" points="907.032,-118.619 905.854,-108.09 900.209,-117.055 907.032,-118.619"/>
</g>
<!-- node59&#45;&gt;node153 -->
<g id="edge30" class="edge"><title>node59&#45;&gt;node153</title>
<path fill="none" stroke="black" d="M857.822,-215.831C848.641,-207.134 837.499,-196.578 827.522,-187.127"/>
<polygon fill="black" stroke="black" points="829.839,-184.499 820.172,-180.163 825.024,-189.581 829.839,-184.499"/>
</g>
<!-- node54&#45;&gt;node151 -->
<g id="edge36" class="edge"><title>node54&#45;&gt;node151</title>
<path fill="none" stroke="black" d="M821.008,-445.518C853.524,-439.501 902.74,-425.876 934,-396 965.389,-366 972,-349.419 972,-306 972,-306 972,-306 972,-234 972,-190.036 947.319,-144.226 929.101,-116.4"/>
<polygon fill="black" stroke="black" points="931.945,-114.357 923.453,-108.022 926.141,-118.271 931.945,-114.357"/>
</g>
<!-- node54&#45;&gt;node66 -->
<g id="edge60" class="edge"><title>node54&#45;&gt;node66</title>
<path fill="none" stroke="black" d="M779.768,-431.762C768.535,-406.876 748.315,-362.082 735.285,-333.216"/>
<polygon fill="black" stroke="black" points="738.47,-331.764 731.165,-324.09 732.09,-334.644 738.47,-331.764"/>
</g>
<!-- node54&#45;&gt;node153 -->
<g id="edge38" class="edge"><title>node54&#45;&gt;node153</title>
<path fill="none" stroke="black" d="M788.813,-431.984C791.011,-383.294 797.082,-248.796 799.734,-190.057"/>
<polygon fill="black" stroke="black" points="803.233,-190.157 800.187,-180.009 796.24,-189.841 803.233,-190.157"/>
</g>
<!-- node54&#45;&gt;node149 -->
<g id="edge40" class="edge"><title>node54&#45;&gt;node149</title>
<path fill="none" stroke="black" d="M754.87,-448.658C619.917,-443.037 117.69,-420.527 95,-396 84.1346,-384.255 85.0145,-372.502 95,-360 160.59,-277.882 499.989,-245.298 613.771,-236.576"/>
<polygon fill="black" stroke="black" points="614.042,-240.066 623.753,-235.829 613.519,-233.086 614.042,-240.066"/>
</g>
<!-- node54&#45;&gt;node59 -->
<g id="edge58" class="edge"><title>node54&#45;&gt;node59</title>
<path fill="none" stroke="black" d="M821.268,-446.042C851.457,-440.491 894.314,-427.274 915,-396 942.533,-354.375 915.6,-295.155 895.174,-261.043"/>
<polygon fill="black" stroke="black" points="897.884,-258.773 889.636,-252.123 891.937,-262.465 897.884,-258.773"/>
</g>
<!-- node176 -->
<g id="node28" class="node"><title>node176</title>
<ellipse fill="none" stroke="black" cx="235" cy="-378" rx="130.789" ry="18"/>
<text text-anchor="middle" x="235" y="-374.7" font-family="Times Roman,serif" font-size="12.00">/usr/lib/x86_64&#45;linux&#45;gnu/libz.so</text>
</g>
<!-- node54&#45;&gt;node176 -->
<g id="edge34" class="edge"><title>node54&#45;&gt;node176</title>
<path fill="none" stroke="black" d="M754.653,-445.658C674.339,-435.201 467.435,-408.263 340.255,-391.704"/>
<polygon fill="black" stroke="black" points="340.471,-388.203 330.102,-390.382 339.567,-395.144 340.471,-388.203"/>
</g>
<!-- node54&#45;&gt;node146 -->
<g id="edge42" class="edge"><title>node54&#45;&gt;node146</title>
<path fill="none" stroke="black" d="M821.071,-443.547C889.862,-430.124 1047.94,-399.279 1120,-385.22"/>
<polygon fill="black" stroke="black" points="1120.84,-388.622 1129.98,-383.272 1119.5,-381.752 1120.84,-388.622"/>
</g>
<!-- node55 -->
<g id="node49" class="node"><title>node55</title>
<polygon fill="none" stroke="black" points="906,-396 816,-396 816,-360 906,-360 906,-396"/>
<text text-anchor="middle" x="861" y="-374.7" font-family="Times Roman,serif" font-size="12.00">environment</text>
</g>
<!-- node54&#45;&gt;node55 -->
<g id="edge62" class="edge"><title>node54&#45;&gt;node55</title>
<path fill="none" stroke="black" d="M806.421,-431.831C815.153,-423.219 825.732,-412.785 835.242,-403.405"/>
<polygon fill="black" stroke="black" points="837.923,-405.677 842.585,-396.163 833.007,-400.693 837.923,-405.677"/>
</g>
<!-- node177 -->
<g id="node55" class="node"><title>node177</title>
<ellipse fill="none" stroke="black" cx="455" cy="-378" rx="70.8437" ry="18"/>
<text text-anchor="middle" x="455" y="-374.7" font-family="Times Roman,serif" font-size="12.00">/usr/lib/libbfd.so</text>
</g>
<!-- node54&#45;&gt;node177 -->
<g id="edge72" class="edge"><title>node54&#45;&gt;node177</title>
<path fill="none" stroke="black" d="M754.822,-443.04C706.45,-432.866 613.749,-413.263 535,-396 529.611,-394.819 524.021,-393.583 518.414,-392.336"/>
<polygon fill="black" stroke="black" points="518.864,-388.85 508.342,-390.088 517.34,-395.682 518.864,-388.85"/>
</g>
<!-- node178 -->
<g id="node57" class="node"><title>node178</title>
<ellipse fill="none" stroke="black" cx="633" cy="-378" rx="89.0421" ry="18"/>
<text text-anchor="middle" x="633" y="-374.7" font-family="Times Roman,serif" font-size="12.00">/usr/lib/libiberty_pic.a</text>
</g>
<!-- node54&#45;&gt;node178 -->
<g id="edge74" class="edge"><title>node54&#45;&gt;node178</title>
<path fill="none" stroke="black" d="M754.749,-434.554C732.269,-424.112 702.319,-410.2 677.751,-398.787"/>
<polygon fill="black" stroke="black" points="679.169,-395.587 668.625,-394.548 676.22,-401.935 679.169,-395.587"/>
</g>
<!-- node146&#45;&gt;node151 -->
<g id="edge52" class="edge"><title>node146&#45;&gt;node151</title>
<path fill="none" stroke="black" d="M1184.11,-377.029C1248.33,-374.102 1406.76,-362.996 1439,-324 1449.19,-311.668 1448.12,-301.148 1439,-288 1379.93,-202.812 1057.6,-123.28 947.149,-98.1688"/>
<polygon fill="black" stroke="black" points="947.664,-94.6969 937.138,-95.9102 946.123,-101.525 947.664,-94.6969"/>
</g>
<!-- node186 -->
<g id="node35" class="node"><title>node186</title>
<ellipse fill="none" stroke="black" cx="1605" cy="-306" rx="118.939" ry="18"/>
<text text-anchor="middle" x="1605" y="-302.7" font-family="Times Roman,serif" font-size="12.00">/usr/lib/libboost_regex&#45;mt.so</text>
</g>
<!-- node146&#45;&gt;node186 -->
<g id="edge44" class="edge"><title>node146&#45;&gt;node186</title>
<path fill="none" stroke="black" d="M1184.02,-373.658C1247.73,-363.419 1409.77,-337.376 1513.22,-320.75"/>
<polygon fill="black" stroke="black" points="1514.04,-324.164 1523.35,-319.122 1512.93,-317.253 1514.04,-324.164"/>
</g>
<!-- node183 -->
<g id="node37" class="node"><title>node183</title>
<ellipse fill="none" stroke="black" cx="1820" cy="-306" rx="77.9931" ry="18"/>
<text text-anchor="middle" x="1820" y="-302.7" font-family="Times Roman,serif" font-size="12.00">/usr/lib/libicuuc.so</text>
</g>
<!-- node146&#45;&gt;node183 -->
<g id="edge46" class="edge"><title>node146&#45;&gt;node183</title>
<path fill="none" stroke="black" d="M1184.12,-376.526C1266.81,-371.803 1522.92,-355.482 1733,-324 1739.76,-322.986 1746.8,-321.784 1753.8,-320.488"/>
<polygon fill="black" stroke="black" points="1754.84,-323.852 1764,-318.535 1753.52,-316.977 1754.84,-323.852"/>
</g>
<!-- node184 -->
<g id="node39" class="node"><title>node184</title>
<ellipse fill="none" stroke="black" cx="1157" cy="-306" rx="85.1424" ry="18"/>
<text text-anchor="middle" x="1157" y="-302.7" font-family="Times Roman,serif" font-size="12.00">/usr/lib/libicui18n.so</text>
</g>
<!-- node146&#45;&gt;node184 -->
<g id="edge48" class="edge"><title>node146&#45;&gt;node184</title>
<path fill="none" stroke="black" d="M1157,-359.831C1157,-352.131 1157,-342.974 1157,-334.417"/>
<polygon fill="black" stroke="black" points="1160.5,-334.413 1157,-324.413 1153.5,-334.413 1160.5,-334.413"/>
</g>
<!-- node185 -->
<g id="node41" class="node"><title>node185</title>
<ellipse fill="none" stroke="black" cx="1345" cy="-306" rx="85.1424" ry="18"/>
<text text-anchor="middle" x="1345" y="-302.7" font-family="Times Roman,serif" font-size="12.00">/usr/lib/libicudata.so</text>
</g>
<!-- node146&#45;&gt;node185 -->
<g id="edge50" class="edge"><title>node146&#45;&gt;node185</title>
<path fill="none" stroke="black" d="M1184.34,-367.531C1213.01,-356.55 1258.73,-339.041 1294.07,-325.504"/>
<polygon fill="black" stroke="black" points="1295.66,-328.644 1303.75,-321.799 1293.16,-322.107 1295.66,-328.644"/>
</g>
<!-- node146&#45;&gt;node147 -->
<g id="edge54" class="edge"><title>node146&#45;&gt;node147</title>
<path fill="none" stroke="black" d="M1129.75,-362.906C1110.42,-352.202 1084.28,-337.724 1063.2,-326.051"/>
<polygon fill="black" stroke="black" points="1064.66,-322.857 1054.22,-321.074 1061.27,-328.981 1064.66,-322.857"/>
</g>
<!-- node147&#45;&gt;node151 -->
<g id="edge56" class="edge"><title>node147&#45;&gt;node151</title>
<path fill="none" stroke="black" d="M1026.41,-287.815C1024.56,-255.98 1016.98,-189.241 986,-144 975.927,-129.291 960.454,-117.243 946.092,-108.289"/>
<polygon fill="black" stroke="black" points="947.74,-105.198 937.351,-103.118 944.175,-111.222 947.74,-105.198"/>
</g>
<!-- node55&#45;&gt;node151 -->
<g id="edge64" class="edge"><title>node55&#45;&gt;node151</title>
<path fill="none" stroke="black" d="M871.509,-359.985C884.719,-336.196 906.674,-292.565 915,-252 924.454,-205.938 919.435,-150.982 914.81,-118.371"/>
<polygon fill="black" stroke="black" points="918.23,-117.58 913.277,-108.214 911.308,-118.624 918.23,-117.58"/>
</g>
<!-- node55&#45;&gt;node66 -->
<g id="edge70" class="edge"><title>node55&#45;&gt;node66</title>
<path fill="none" stroke="black" d="M826.177,-359.831C806.928,-349.788 782.931,-337.268 762.925,-326.83"/>
<polygon fill="black" stroke="black" points="764.53,-323.72 754.045,-322.197 761.292,-329.926 764.53,-323.72"/>
</g>
<!-- node55&#45;&gt;node153 -->
<g id="edge66" class="edge"><title>node55&#45;&gt;node153</title>
<path fill="none" stroke="black" d="M855.988,-359.955C845.51,-322.235 821.227,-234.819 808.733,-189.84"/>
<polygon fill="black" stroke="black" points="812.089,-188.843 806.04,-180.145 805.344,-190.717 812.089,-188.843"/>
</g>
<!-- node55&#45;&gt;node59 -->
<g id="edge68" class="edge"><title>node55&#45;&gt;node59</title>
<path fill="none" stroke="black" d="M863.026,-359.762C865.755,-335.201 870.639,-291.247 873.85,-262.354"/>
<polygon fill="black" stroke="black" points="877.364,-262.415 874.99,-252.09 870.407,-261.642 877.364,-262.415"/>
</g>
<!-- node53&#45;&gt;node151 -->
<g id="edge82" class="edge"><title>node53&#45;&gt;node151</title>
<path fill="none" stroke="black" d="M1170.33,-447.723C1314.78,-436.483 1926,-384.295 1926,-306 1926,-306 1926,-306 1926,-234 1926,-133.127 1130.75,-98.0296 947.393,-91.2782"/>
<polygon fill="black" stroke="black" points="947.296,-87.7724 937.176,-90.9082 947.042,-94.7679 947.296,-87.7724"/>
</g>
<!-- node53&#45;&gt;node146 -->
<g id="edge86" class="edge"><title>node53&#45;&gt;node146</title>
<path fill="none" stroke="black" d="M1144.29,-431.831C1146.11,-424.131 1148.27,-414.974 1150.29,-406.417"/>
<polygon fill="black" stroke="black" points="1153.76,-406.95 1152.65,-396.413 1146.95,-405.341 1153.76,-406.95"/>
</g>
<!-- node53&#45;&gt;node147 -->
<g id="edge84" class="edge"><title>node53&#45;&gt;node147</title>
<path fill="none" stroke="black" d="M1125.69,-431.762C1105.91,-406.552 1070.09,-360.91 1047.48,-332.095"/>
<polygon fill="black" stroke="black" points="1050.12,-329.796 1041.2,-324.09 1044.62,-334.117 1050.12,-329.796"/>
</g>
</g>
</svg>
