<?xml version="1.0" encoding="UTF-8" standalone="no"?>
<!DOCTYPE svg PUBLIC "-//W3C//DTD SVG 1.1//EN"
 "http://www.w3.org/Graphics/SVG/1.1/DTD/svg11.dtd">
<!-- Generated by graphviz version 2.26.3 (20100126.1600)
 -->
<!-- Title: GG Pages: 1 -->
<svg width="1494pt" height="476pt"
 viewBox="0.00 0.00 1494.00 476.00" xmlns="http://www.w3.org/2000/svg" xmlns:xlink="http://www.w3.org/1999/xlink">
<g id="graph1" class="graph" transform="scale(1 1) rotate(0) translate(4 472)">
<title>GG</title>
<polygon fill="white" stroke="white" points="-4,5 -4,-472 1491,-472 1491,5 -4,5"/>
<!-- node54 -->
<g id="node1" class="node"><title>node54</title>
<polygon fill="none" stroke="black" points="572,-468 506,-468 506,-432 572,-432 572,-468"/>
<text text-anchor="middle" x="539" y="-446.7" font-family="Times Roman,serif" font-size="12.00">dllserver</text>
</g>
<!-- node176 -->
<g id="node2" class="node"><title>node176</title>
<ellipse fill="none" stroke="black" cx="131" cy="-378" rx="130.789" ry="18"/>
<text text-anchor="middle" x="131" y="-374.7" font-family="Times Roman,serif" font-size="12.00">/usr/lib/x86_64&#45;linux&#45;gnu/libz.so</text>
</g>
<!-- node54&#45;&gt;node176 -->
<g id="edge2" class="edge"><title>node54&#45;&gt;node176</title>
<path fill="none" stroke="black" d="M505.957,-444.169C444.701,-433.359 311.578,-409.867 221.597,-393.988"/>
<polygon fill="black" stroke="black" points="222.122,-390.526 211.666,-392.235 220.905,-397.42 222.122,-390.526"/>
</g>
<!-- node151 -->
<g id="node4" class="node"><title>node151</title>
<polygon fill="none" stroke="black" points="521,-108 467,-108 467,-72 521,-72 521,-108"/>
<text text-anchor="middle" x="494" y="-86.7" font-family="Times Roman,serif" font-size="12.00">jlib</text>
</g>
<!-- node54&#45;&gt;node151 -->
<g id="edge4" class="edge"><title>node54&#45;&gt;node151</title>
<path fill="none" stroke="black" d="M505.935,-446.329C438.202,-436.783 290,-404.627 290,-306 290,-306 290,-306 290,-234 290,-153.231 398.053,-113.754 456.881,-98.2469"/>
<polygon fill="black" stroke="black" points="458.074,-101.555 466.91,-95.7092 456.357,-94.7691 458.074,-101.555"/>
</g>
<!-- node153 -->
<g id="node14" class="node"><title>node153</title>
<polygon fill="none" stroke="black" points="494,-180 440,-180 440,-144 494,-144 494,-180"/>
<text text-anchor="middle" x="467" y="-158.7" font-family="Times Roman,serif" font-size="12.00">mp</text>
</g>
<!-- node54&#45;&gt;node153 -->
<g id="edge14" class="edge"><title>node54&#45;&gt;node153</title>
<path fill="none" stroke="black" d="M542.446,-431.61C547.452,-401.127 554.728,-338.483 541,-288 530.758,-250.336 506.097,-212.432 488.049,-188.181"/>
<polygon fill="black" stroke="black" points="490.815,-186.036 481.975,-180.195 485.243,-190.274 490.815,-186.036"/>
</g>
<!-- node149 -->
<g id="node17" class="node"><title>node149</title>
<polygon fill="none" stroke="black" points="642,-252 588,-252 588,-216 642,-216 642,-252"/>
<text text-anchor="middle" x="615" y="-230.7" font-family="Times Roman,serif" font-size="12.00">hrpc</text>
</g>
<!-- node54&#45;&gt;node149 -->
<g id="edge18" class="edge"><title>node54&#45;&gt;node149</title>
<path fill="none" stroke="black" d="M552.901,-431.862C560.074,-421.763 568.459,-408.697 574,-396 593.58,-351.132 605.161,-295.03 610.781,-261.997"/>
<polygon fill="black" stroke="black" points="614.235,-262.56 612.399,-252.126 607.328,-261.428 614.235,-262.56"/>
</g>
<!-- node146 -->
<g id="node21" class="node"><title>node146</title>
<polygon fill="none" stroke="black" points="844,-252 790,-252 790,-216 844,-216 844,-252"/>
<text text-anchor="middle" x="817" y="-230.7" font-family="Times Roman,serif" font-size="12.00">eclrtl</text>
</g>
<!-- node54&#45;&gt;node146 -->
<g id="edge24" class="edge"><title>node54&#45;&gt;node146</title>
<path fill="none" stroke="black" d="M562.224,-431.955C611.998,-393.282 729.005,-302.37 785.45,-258.514"/>
<polygon fill="black" stroke="black" points="787.897,-261.044 793.647,-252.145 783.603,-255.517 787.897,-261.044"/>
</g>
<!-- node59 -->
<g id="node35" class="node"><title>node59</title>
<polygon fill="none" stroke="black" points="418,-252 360,-252 360,-216 418,-216 418,-252"/>
<text text-anchor="middle" x="389" y="-230.7" font-family="Times Roman,serif" font-size="12.00">remote</text>
</g>
<!-- node54&#45;&gt;node59 -->
<g id="edge40" class="edge"><title>node54&#45;&gt;node59</title>
<path fill="none" stroke="black" d="M505.699,-442.778C465.582,-433.325 401.829,-415.632 388,-396 360.111,-356.408 370.191,-296.787 379.781,-261.991"/>
<polygon fill="black" stroke="black" points="383.244,-262.62 382.698,-252.04 376.526,-260.651 383.244,-262.62"/>
</g>
<!-- node66 -->
<g id="node39" class="node"><title>node66</title>
<polygon fill="none" stroke="black" points="532,-324 470,-324 470,-288 532,-288 532,-324"/>
<text text-anchor="middle" x="501" y="-302.7" font-family="Times Roman,serif" font-size="12.00">dalibase</text>
</g>
<!-- node54&#45;&gt;node66 -->
<g id="edge46" class="edge"><title>node54&#45;&gt;node66</title>
<path fill="none" stroke="black" d="M534.187,-431.762C527.677,-407.093 516.005,-362.86 508.382,-333.973"/>
<polygon fill="black" stroke="black" points="511.709,-332.866 505.774,-324.09 504.941,-334.652 511.709,-332.866"/>
</g>
<!-- node55 -->
<g id="node45" class="node"><title>node55</title>
<polygon fill="none" stroke="black" points="487,-396 397,-396 397,-360 487,-360 487,-396"/>
<text text-anchor="middle" x="442" y="-374.7" font-family="Times Roman,serif" font-size="12.00">environment</text>
</g>
<!-- node54&#45;&gt;node55 -->
<g id="edge56" class="edge"><title>node54&#45;&gt;node55</title>
<path fill="none" stroke="black" d="M514.523,-431.831C502.461,-422.878 487.746,-411.956 474.731,-402.295"/>
<polygon fill="black" stroke="black" points="476.585,-399.313 466.469,-396.163 472.413,-404.933 476.585,-399.313"/>
</g>
<!-- node177 -->
<g id="node51" class="node"><title>node177</title>
<ellipse fill="none" stroke="black" cx="735" cy="-378" rx="70.8437" ry="18"/>
<text text-anchor="middle" x="735" y="-374.7" font-family="Times Roman,serif" font-size="12.00">/usr/lib/libbfd.so</text>
</g>
<!-- node54&#45;&gt;node177 -->
<g id="edge66" class="edge"><title>node54&#45;&gt;node177</title>
<path fill="none" stroke="black" d="M572.249,-437.786C603.097,-426.454 649.438,-409.431 684.792,-396.444"/>
<polygon fill="black" stroke="black" points="686.27,-399.63 694.45,-392.896 683.856,-393.059 686.27,-399.63"/>
</g>
<!-- node178 -->
<g id="node53" class="node"><title>node178</title>
<ellipse fill="none" stroke="black" cx="913" cy="-378" rx="89.0421" ry="18"/>
<text text-anchor="middle" x="913" y="-374.7" font-family="Times Roman,serif" font-size="12.00">/usr/lib/libiberty_pic.a</text>
</g>
<!-- node54&#45;&gt;node178 -->
<g id="edge68" class="edge"><title>node54&#45;&gt;node178</title>
<path fill="none" stroke="black" d="M572.19,-443.61C631.508,-432.191 757.078,-408.017 838.116,-392.416"/>
<polygon fill="black" stroke="black" points="839.103,-395.79 848.261,-390.463 837.78,-388.917 839.103,-395.79"/>
</g>
<!-- node152 -->
<g id="node6" class="node"><title>node152</title>
<polygon fill="none" stroke="black" points="372,-36 332.056,-18 372,-3.55271e-15 411.944,-18 372,-36"/>
<text text-anchor="middle" x="372" y="-14.7" font-family="Times Roman,serif" font-size="12.00">lzma</text>
</g>
<!-- node151&#45;&gt;node152 -->
<g id="edge6" class="edge"><title>node151&#45;&gt;node152</title>
<path fill="none" stroke="black" d="M466.924,-74.0209C446.47,-61.9494 418.554,-45.4743 398.293,-33.5172"/>
<polygon fill="black" stroke="black" points="399.968,-30.4417 389.577,-28.3733 396.41,-36.4701 399.968,-30.4417"/>
</g>
<!-- node187 -->
<g id="node8" class="node"><title>node187</title>
<ellipse fill="none" stroke="black" cx="457" cy="-18" rx="27" ry="18"/>
<text text-anchor="middle" x="457" y="-14.7" font-family="Times Roman,serif" font-size="12.00">dl</text>
</g>
<!-- node151&#45;&gt;node187 -->
<g id="edge8" class="edge"><title>node151&#45;&gt;node187</title>
<path fill="none" stroke="black" d="M484.663,-71.8314C480.405,-63.5451 475.28,-53.5727 470.605,-44.4748"/>
<polygon fill="black" stroke="black" points="473.635,-42.7123 465.951,-35.4177 467.408,-45.9118 473.635,-42.7123"/>
</g>
<!-- node179 -->
<g id="node10" class="node"><title>node179</title>
<ellipse fill="none" stroke="black" cx="532" cy="-18" rx="30.0465" ry="18"/>
<text text-anchor="middle" x="532" y="-14.7" font-family="Times Roman,serif" font-size="12.00">crypt</text>
</g>
<!-- node151&#45;&gt;node179 -->
<g id="edge10" class="edge"><title>node151&#45;&gt;node179</title>
<path fill="none" stroke="black" d="M503.589,-71.8314C507.962,-63.5451 513.226,-53.5727 518.027,-44.4748"/>
<polygon fill="black" stroke="black" points="521.235,-45.8952 522.807,-35.4177 515.044,-42.6279 521.235,-45.8952"/>
</g>
<!-- node188 -->
<g id="node12" class="node"><title>node188</title>
<ellipse fill="none" stroke="black" cx="607" cy="-18" rx="27" ry="18"/>
<text text-anchor="middle" x="607" y="-14.7" font-family="Times Roman,serif" font-size="12.00">rt</text>
</g>
<!-- node151&#45;&gt;node188 -->
<g id="edge12" class="edge"><title>node151&#45;&gt;node188</title>
<path fill="none" stroke="black" d="M521.066,-72.7542C538.414,-61.7009 560.898,-47.375 578.516,-36.1494"/>
<polygon fill="black" stroke="black" points="580.679,-38.9209 587.232,-30.5955 576.918,-33.0174 580.679,-38.9209"/>
</g>
<!-- node153&#45;&gt;node151 -->
<g id="edge16" class="edge"><title>node153&#45;&gt;node151</title>
<path fill="none" stroke="black" d="M473.813,-143.831C476.764,-135.962 480.286,-126.571 483.555,-117.853"/>
<polygon fill="black" stroke="black" points="486.861,-119.006 487.095,-108.413 480.307,-116.548 486.861,-119.006"/>
</g>
<!-- node149&#45;&gt;node151 -->
<g id="edge20" class="edge"><title>node149&#45;&gt;node151</title>
<path fill="none" stroke="black" d="M599.675,-215.762C578.491,-190.552 540.14,-144.91 515.927,-116.095"/>
<polygon fill="black" stroke="black" points="518.313,-113.494 509.2,-108.09 512.954,-117.997 518.313,-113.494"/>
</g>
<!-- node149&#45;&gt;node153 -->
<g id="edge22" class="edge"><title>node149&#45;&gt;node153</title>
<path fill="none" stroke="black" d="M587.855,-220.794C564.146,-209.26 529.536,-192.423 503.424,-179.72"/>
<polygon fill="black" stroke="black" points="504.747,-176.471 494.224,-175.244 501.685,-182.766 504.747,-176.471"/>
</g>
<!-- node146&#45;&gt;node151 -->
<g id="edge34" class="edge"><title>node146&#45;&gt;node151</title>
<path fill="none" stroke="black" d="M789.678,-229.918C750.093,-223.285 675.168,-208.003 617,-180 592.651,-168.278 589.804,-159.965 568,-144 554.632,-134.212 539.889,-123.447 527.104,-114.122"/>
<polygon fill="black" stroke="black" points="529.161,-111.291 519.019,-108.227 525.037,-116.947 529.161,-111.291"/>
</g>
<!-- node186 -->
<g id="node23" class="node"><title>node186</title>
<ellipse fill="none" stroke="black" cx="817" cy="-162" rx="118.939" ry="18"/>
<text text-anchor="middle" x="817" y="-158.7" font-family="Times Roman,serif" font-size="12.00">/usr/lib/libboost_regex&#45;mt.so</text>
</g>
<!-- node146&#45;&gt;node186 -->
<g id="edge26" class="edge"><title>node146&#45;&gt;node186</title>
<path fill="none" stroke="black" d="M817,-215.831C817,-208.131 817,-198.974 817,-190.417"/>
<polygon fill="black" stroke="black" points="820.5,-190.413 817,-180.413 813.5,-190.413 820.5,-190.413"/>
</g>
<!-- node183 -->
<g id="node25" class="node"><title>node183</title>
<ellipse fill="none" stroke="black" cx="1032" cy="-162" rx="77.9931" ry="18"/>
<text text-anchor="middle" x="1032" y="-158.7" font-family="Times Roman,serif" font-size="12.00">/usr/lib/libicuuc.so</text>
</g>
<!-- node146&#45;&gt;node183 -->
<g id="edge28" class="edge"><title>node146&#45;&gt;node183</title>
<path fill="none" stroke="black" d="M844.23,-224.881C877.67,-213.682 935.188,-194.421 977.776,-180.159"/>
<polygon fill="black" stroke="black" points="979.067,-183.418 987.438,-176.923 976.844,-176.78 979.067,-183.418"/>
</g>
<!-- node184 -->
<g id="node27" class="node"><title>node184</title>
<ellipse fill="none" stroke="black" cx="1213" cy="-162" rx="85.1424" ry="18"/>
<text text-anchor="middle" x="1213" y="-158.7" font-family="Times Roman,serif" font-size="12.00">/usr/lib/libicui18n.so</text>
</g>
<!-- node146&#45;&gt;node184 -->
<g id="edge30" class="edge"><title>node146&#45;&gt;node184</title>
<path fill="none" stroke="black" d="M844.091,-229.271C896.978,-220.013 1017.66,-198.762 1119,-180 1125.75,-178.75 1132.77,-177.435 1139.8,-176.108"/>
<polygon fill="black" stroke="black" points="1140.9,-179.462 1150.07,-174.161 1139.59,-172.585 1140.9,-179.462"/>
</g>
<!-- node185 -->
<g id="node29" class="node"><title>node185</title>
<ellipse fill="none" stroke="black" cx="1401" cy="-162" rx="85.1424" ry="18"/>
<text text-anchor="middle" x="1401" y="-158.7" font-family="Times Roman,serif" font-size="12.00">/usr/lib/libicudata.so</text>
</g>
<!-- node146&#45;&gt;node185 -->
<g id="edge32" class="edge"><title>node146&#45;&gt;node185</title>
<path fill="none" stroke="black" d="M844.189,-231.768C918.538,-225.498 1131.39,-206.447 1307,-180 1314.37,-178.89 1322.04,-177.617 1329.68,-176.271"/>
<polygon fill="black" stroke="black" points="1330.46,-179.687 1339.69,-174.469 1329.22,-172.798 1330.46,-179.687"/>
</g>
<!-- node147 -->
<g id="node32" class="node"><title>node147</title>
<polygon fill="none" stroke="black" points="680,-180 626,-180 626,-144 680,-144 680,-180"/>
<text text-anchor="middle" x="653" y="-158.7" font-family="Times Roman,serif" font-size="12.00">nbcd</text>
</g>
<!-- node146&#45;&gt;node147 -->
<g id="edge36" class="edge"><title>node146&#45;&gt;node147</title>
<path fill="none" stroke="black" d="M789.81,-223.123C765.579,-213.3 729,-198.156 689.134,-179.937"/>
<polygon fill="black" stroke="black" points="690.584,-176.752 680.036,-175.752 687.658,-183.111 690.584,-176.752"/>
</g>
<!-- node147&#45;&gt;node151 -->
<g id="edge38" class="edge"><title>node147&#45;&gt;node151</title>
<path fill="none" stroke="black" d="M625.667,-149.623C599.422,-137.738 559.596,-119.704 530.618,-106.582"/>
<polygon fill="black" stroke="black" points="531.795,-103.273 521.242,-102.336 528.908,-109.649 531.795,-103.273"/>
</g>
<!-- node59&#45;&gt;node151 -->
<g id="edge42" class="edge"><title>node59&#45;&gt;node151</title>
<path fill="none" stroke="black" d="M394.872,-215.86C401.624,-196.751 414.004,-166.385 431,-144 439.18,-133.227 449.835,-123.092 460.049,-114.576"/>
<polygon fill="black" stroke="black" points="462.488,-117.106 468.09,-108.112 458.103,-111.65 462.488,-117.106"/>
</g>
<!-- node59&#45;&gt;node153 -->
<g id="edge44" class="edge"><title>node59&#45;&gt;node153</title>
<path fill="none" stroke="black" d="M408.683,-215.831C418.105,-207.134 429.54,-196.578 439.78,-187.127"/>
<polygon fill="black" stroke="black" points="442.35,-189.517 447.324,-180.163 437.602,-184.374 442.35,-189.517"/>
</g>
<!-- node66&#45;&gt;node151 -->
<g id="edge48" class="edge"><title>node66&#45;&gt;node151</title>
<path fill="none" stroke="black" d="M502.335,-287.982C504.304,-258.032 507.315,-196.138 503,-144 502.305,-135.608 501.014,-126.558 499.621,-118.309"/>
<polygon fill="black" stroke="black" points="503.054,-117.623 497.841,-108.4 496.165,-118.861 503.054,-117.623"/>
</g>
<!-- node66&#45;&gt;node153 -->
<g id="edge50" class="edge"><title>node66&#45;&gt;node153</title>
<path fill="none" stroke="black" d="M496.694,-287.762C490.869,-263.093 480.425,-218.86 473.605,-189.973"/>
<polygon fill="black" stroke="black" points="476.976,-189.018 471.271,-180.09 470.163,-190.626 476.976,-189.018"/>
</g>
<!-- node66&#45;&gt;node149 -->
<g id="edge52" class="edge"><title>node66&#45;&gt;node149</title>
<path fill="none" stroke="black" d="M529.767,-287.831C544.794,-278.341 563.322,-266.639 579.262,-256.572"/>
<polygon fill="black" stroke="black" points="581.226,-259.471 587.812,-251.171 577.488,-253.552 581.226,-259.471"/>
</g>
<!-- node66&#45;&gt;node59 -->
<g id="edge54" class="edge"><title>node66&#45;&gt;node59</title>
<path fill="none" stroke="black" d="M472.738,-287.831C458.545,-278.707 441.172,-267.539 425.936,-257.745"/>
<polygon fill="black" stroke="black" points="427.558,-254.626 417.253,-252.163 423.772,-260.515 427.558,-254.626"/>
</g>
<!-- node55&#45;&gt;node151 -->
<g id="edge58" class="edge"><title>node55&#45;&gt;node151</title>
<path fill="none" stroke="black" d="M419.675,-359.872C387.013,-330.996 332.033,-272.074 351,-216 368.3,-164.855 421.642,-127.719 458.052,-107.512"/>
<polygon fill="black" stroke="black" points="459.767,-110.564 466.912,-102.741 456.448,-104.401 459.767,-110.564"/>
</g>
<!-- node55&#45;&gt;node153 -->
<g id="edge60" class="edge"><title>node55&#45;&gt;node153</title>
<path fill="none" stroke="black" d="M444.088,-359.955C448.445,-322.314 458.529,-235.187 463.745,-190.125"/>
<polygon fill="black" stroke="black" points="467.227,-190.481 464.9,-180.145 460.273,-189.676 467.227,-190.481"/>
</g>
<!-- node55&#45;&gt;node59 -->
<g id="edge62" class="edge"><title>node55&#45;&gt;node59</title>
<path fill="none" stroke="black" d="M435.288,-359.762C426.168,-334.985 409.785,-290.471 399.156,-261.594"/>
<polygon fill="black" stroke="black" points="402.397,-260.265 395.658,-252.09 395.827,-262.683 402.397,-260.265"/>
</g>
<!-- node55&#45;&gt;node66 -->
<g id="edge64" class="edge"><title>node55&#45;&gt;node66</title>
<path fill="none" stroke="black" d="M456.888,-359.831C463.753,-351.454 472.03,-341.353 479.551,-332.175"/>
<polygon fill="black" stroke="black" points="482.28,-334.366 485.911,-324.413 476.866,-329.93 482.28,-334.366"/>
</g>
</g>
</svg>
