<?xml version="1.0" encoding="UTF-8" standalone="no"?>
<!DOCTYPE svg PUBLIC "-//W3C//DTD SVG 1.1//EN"
 "http://www.w3.org/Graphics/SVG/1.1/DTD/svg11.dtd">
<!-- Generated by graphviz version 2.26.3 (20100126.1600)
 -->
<!-- Title: GG Pages: 1 -->
<svg width="2519pt" height="620pt"
 viewBox="0.00 0.00 2518.81 620.00" xmlns="http://www.w3.org/2000/svg" xmlns:xlink="http://www.w3.org/1999/xlink">
<g id="graph1" class="graph" transform="scale(1 1) rotate(0) translate(4 616)">
<title>GG</title>
<polygon fill="white" stroke="white" points="-4,5 -4,-616 2515.81,-616 2515.81,5 -4,5"/>
<!-- node56 -->
<g id="node1" class="node"><title>node56</title>
<polygon fill="none" stroke="black" points="1082.53,-612 1018.53,-612 1018.53,-576 1082.53,-576 1082.53,-612"/>
<text text-anchor="middle" x="1050.53" y="-590.7" font-family="Times Roman,serif" font-size="12.00">fileview2</text>
</g>
<!-- node151 -->
<g id="node2" class="node"><title>node151</title>
<polygon fill="none" stroke="black" points="713.528,-108 659.528,-108 659.528,-72 713.528,-72 713.528,-108"/>
<text text-anchor="middle" x="686.528" y="-86.7" font-family="Times Roman,serif" font-size="12.00">jlib</text>
</g>
<!-- node56&#45;&gt;node151 -->
<g id="edge2" class="edge"><title>node56&#45;&gt;node151</title>
<path fill="none" stroke="black" d="M1018.48,-593.152C852.048,-588.635 92.2917,-566.616 50.5278,-540 12.298,-515.636 2.52784,-495.333 2.52784,-450 2.52784,-450 2.52784,-450 2.52784,-234 2.52784,-192.926 -7.58351,-170.818 23.5278,-144 71.0614,-103.026 515.853,-92.7019 649.029,-90.5189"/>
<polygon fill="black" stroke="black" points="649.206,-94.0166 659.149,-90.359 649.095,-87.0175 649.206,-94.0166"/>
</g>
<!-- node153 -->
<g id="node12" class="node"><title>node153</title>
<polygon fill="none" stroke="black" points="365.528,-180 311.528,-180 311.528,-144 365.528,-144 365.528,-180"/>
<text text-anchor="middle" x="338.528" y="-158.7" font-family="Times Roman,serif" font-size="12.00">mp</text>
</g>
<!-- node56&#45;&gt;node153 -->
<g id="edge12" class="edge"><title>node56&#45;&gt;node153</title>
<path fill="none" stroke="black" d="M1018.35,-593.226C870.496,-589.506 260.079,-572.298 181.528,-540 125.304,-516.882 78.5278,-510.791 78.5278,-450 78.5278,-450 78.5278,-450 78.5278,-306 78.5278,-205.425 229.251,-174.525 301.181,-165.505"/>
<polygon fill="black" stroke="black" points="301.672,-168.971 311.195,-164.327 300.854,-162.019 301.672,-168.971"/>
</g>
<!-- node149 -->
<g id="node15" class="node"><title>node149</title>
<polygon fill="none" stroke="black" points="637.528,-252 583.528,-252 583.528,-216 637.528,-216 637.528,-252"/>
<text text-anchor="middle" x="610.528" y="-230.7" font-family="Times Roman,serif" font-size="12.00">hrpc</text>
</g>
<!-- node56&#45;&gt;node149 -->
<g id="edge16" class="edge"><title>node56&#45;&gt;node149</title>
<path fill="none" stroke="black" d="M1059.77,-575.953C1080.57,-532.544 1125.04,-421.356 1069.53,-360 1015.74,-300.544 783.855,-356.428 710.528,-324 678.327,-309.76 649.376,-281.084 631.012,-259.911"/>
<polygon fill="black" stroke="black" points="633.633,-257.591 624.507,-252.209 628.285,-262.108 633.633,-257.591"/>
</g>
<!-- node59 -->
<g id="node19" class="node"><title>node59</title>
<polygon fill="none" stroke="black" points="303.528,-252 245.528,-252 245.528,-216 303.528,-216 303.528,-252"/>
<text text-anchor="middle" x="274.528" y="-230.7" font-family="Times Roman,serif" font-size="12.00">remote</text>
</g>
<!-- node56&#45;&gt;node59 -->
<g id="edge22" class="edge"><title>node56&#45;&gt;node59</title>
<path fill="none" stroke="black" d="M1018.19,-593.409C876.379,-590.609 313.488,-577.216 244.528,-540 162.224,-495.583 97.6308,-445.502 135.528,-360 156.063,-313.668 202.985,-277.11 236.632,-255.561"/>
<polygon fill="black" stroke="black" points="238.675,-258.412 245.306,-250.148 234.969,-252.473 238.675,-258.412"/>
</g>
<!-- node147 -->
<g id="node23" class="node"><title>node147</title>
<polygon fill="none" stroke="black" points="1650.53,-324 1596.53,-324 1596.53,-288 1650.53,-288 1650.53,-324"/>
<text text-anchor="middle" x="1623.53" y="-302.7" font-family="Times Roman,serif" font-size="12.00">nbcd</text>
</g>
<!-- node56&#45;&gt;node147 -->
<g id="edge28" class="edge"><title>node56&#45;&gt;node147</title>
<path fill="none" stroke="black" d="M1082.9,-591.685C1130.19,-587.215 1219.88,-574.556 1287.53,-540 1395.5,-484.841 1388.62,-422.483 1492.53,-360 1528.73,-338.232 1544.15,-341.544 1586.9,-323.989"/>
<polygon fill="black" stroke="black" points="1588.32,-327.191 1596.15,-320.049 1585.58,-320.751 1588.32,-327.191"/>
</g>
<!-- node146 -->
<g id="node26" class="node"><title>node146</title>
<polygon fill="none" stroke="black" points="1295.53,-396 1241.53,-396 1241.53,-360 1295.53,-360 1295.53,-396"/>
<text text-anchor="middle" x="1268.53" y="-374.7" font-family="Times Roman,serif" font-size="12.00">eclrtl</text>
</g>
<!-- node56&#45;&gt;node146 -->
<g id="edge32" class="edge"><title>node56&#45;&gt;node146</title>
<path fill="none" stroke="black" d="M1082.78,-590.639C1137.06,-584.252 1242.96,-568.395 1265.53,-540 1295.88,-501.82 1286.49,-441.046 1277.27,-405.796"/>
<polygon fill="black" stroke="black" points="1280.64,-404.845 1274.59,-396.15 1273.9,-406.723 1280.64,-404.845"/>
</g>
<!-- node150 -->
<g id="node38" class="node"><title>node150</title>
<polygon fill="none" stroke="black" points="86.5278,-180 32.5278,-180 32.5278,-144 86.5278,-144 86.5278,-180"/>
<text text-anchor="middle" x="59.5278" y="-158.7" font-family="Times Roman,serif" font-size="12.00">jhtree</text>
</g>
<!-- node56&#45;&gt;node150 -->
<g id="edge46" class="edge"><title>node56&#45;&gt;node150</title>
<path fill="none" stroke="black" d="M1018.44,-593.907C861.435,-593.225 178.379,-587.526 97.5278,-540 56.7101,-516.007 40.5278,-497.347 40.5278,-450 40.5278,-450 40.5278,-450 40.5278,-306 40.5278,-265.528 47.9958,-219.204 53.5678,-190.272"/>
<polygon fill="black" stroke="black" points="57.0761,-190.575 55.591,-180.084 50.2102,-189.211 57.0761,-190.575"/>
</g>
<!-- node66 -->
<g id="node41" class="node"><title>node66</title>
<polygon fill="none" stroke="black" points="565.528,-324 503.528,-324 503.528,-288 565.528,-288 565.528,-324"/>
<text text-anchor="middle" x="534.528" y="-302.7" font-family="Times Roman,serif" font-size="12.00">dalibase</text>
</g>
<!-- node56&#45;&gt;node66 -->
<g id="edge50" class="edge"><title>node56&#45;&gt;node66</title>
<path fill="none" stroke="black" d="M1018.11,-589.927C892.296,-573.388 439.199,-506.79 357.528,-396 319.549,-344.481 429.758,-320.351 493.185,-310.981"/>
<polygon fill="black" stroke="black" points="493.897,-314.415 503.31,-309.551 492.918,-307.484 493.897,-314.415"/>
</g>
<!-- node55 -->
<g id="node47" class="node"><title>node55</title>
<polygon fill="none" stroke="black" points="234.528,-396 144.528,-396 144.528,-360 234.528,-360 234.528,-396"/>
<text text-anchor="middle" x="189.528" y="-374.7" font-family="Times Roman,serif" font-size="12.00">environment</text>
</g>
<!-- node56&#45;&gt;node55 -->
<g id="edge60" class="edge"><title>node56&#45;&gt;node55</title>
<path fill="none" stroke="black" d="M1018.4,-593.465C881.344,-590.953 349.619,-578.762 286.528,-540 236.998,-509.57 209.544,-443.567 197.347,-405.873"/>
<polygon fill="black" stroke="black" points="200.606,-404.564 194.306,-396.046 193.918,-406.633 200.606,-404.564"/>
</g>
<!-- node54 -->
<g id="node53" class="node"><title>node54</title>
<polygon fill="none" stroke="black" points="722.528,-468 656.528,-468 656.528,-432 722.528,-432 722.528,-468"/>
<text text-anchor="middle" x="689.528" y="-446.7" font-family="Times Roman,serif" font-size="12.00">dllserver</text>
</g>
<!-- node56&#45;&gt;node54 -->
<g id="edge70" class="edge"><title>node56&#45;&gt;node54</title>
<path fill="none" stroke="black" d="M1018.49,-581.221C953.259,-555.2 805.023,-496.07 731.913,-466.907"/>
<polygon fill="black" stroke="black" points="733.119,-463.62 722.534,-463.166 730.525,-470.122 733.119,-463.62"/>
</g>
<!-- node53 -->
<g id="node68" class="node"><title>node53</title>
<polygon fill="none" stroke="black" points="1539.53,-468 1479.53,-468 1479.53,-432 1539.53,-432 1539.53,-468"/>
<text text-anchor="middle" x="1509.53" y="-446.7" font-family="Times Roman,serif" font-size="12.00">deftype</text>
</g>
<!-- node56&#45;&gt;node53 -->
<g id="edge92" class="edge"><title>node56&#45;&gt;node53</title>
<path fill="none" stroke="black" d="M1082.73,-592.186C1179.11,-586.468 1460.51,-567.545 1490.53,-540 1507.28,-524.625 1511.28,-498.506 1511.52,-478.353"/>
<polygon fill="black" stroke="black" points="1515.02,-478.1 1511.34,-468.163 1508.02,-478.223 1515.02,-478.1"/>
</g>
<!-- node64 -->
<g id="node73" class="node"><title>node64</title>
<polygon fill="none" stroke="black" points="1256.53,-540 1188.53,-540 1188.53,-504 1256.53,-504 1256.53,-540"/>
<text text-anchor="middle" x="1222.53" y="-518.7" font-family="Times Roman,serif" font-size="12.00">workunit</text>
</g>
<!-- node56&#45;&gt;node64 -->
<g id="edge100" class="edge"><title>node56&#45;&gt;node64</title>
<path fill="none" stroke="black" d="M1082.88,-580.457C1110.01,-569.099 1149.01,-552.775 1178.9,-540.263"/>
<polygon fill="black" stroke="black" points="1180.39,-543.435 1188.26,-536.345 1177.68,-536.978 1180.39,-543.435"/>
</g>
<!-- node63 -->
<g id="node81" class="node"><title>node63</title>
<polygon fill="none" stroke="black" points="1662.53,-540 1586.53,-540 1586.53,-504 1662.53,-504 1662.53,-540"/>
<text text-anchor="middle" x="1624.53" y="-518.7" font-family="Times Roman,serif" font-size="12.00">thorhelper</text>
</g>
<!-- node56&#45;&gt;node63 -->
<g id="edge114" class="edge"><title>node56&#45;&gt;node63</title>
<path fill="none" stroke="black" d="M1082.73,-591.026C1159.33,-583.8 1358.32,-564.127 1523.53,-540 1540.75,-537.485 1559.54,-534.267 1576.19,-531.25"/>
<polygon fill="black" stroke="black" points="1577.05,-534.651 1586.25,-529.405 1575.78,-527.766 1577.05,-534.651"/>
</g>
<!-- node99 -->
<g id="node94" class="node"><title>node99</title>
<polygon fill="none" stroke="black" points="1481.53,-540 1427.53,-540 1427.53,-504 1481.53,-504 1481.53,-540"/>
<text text-anchor="middle" x="1454.53" y="-518.7" font-family="Times Roman,serif" font-size="12.00">hql</text>
</g>
<!-- node56&#45;&gt;node99 -->
<g id="edge132" class="edge"><title>node56&#45;&gt;node99</title>
<path fill="none" stroke="black" d="M1082.69,-592.092C1146.78,-587.665 1294.45,-574.329 1413.53,-540 1414.79,-539.637 1416.06,-539.243 1417.34,-538.824"/>
<polygon fill="black" stroke="black" points="1418.94,-541.966 1427.11,-535.225 1416.52,-535.397 1418.94,-541.966"/>
</g>
<!-- node152 -->
<g id="node4" class="node"><title>node152</title>
<polygon fill="none" stroke="black" points="564.528,-36 524.584,-18 564.528,-3.55271e-15 604.471,-18 564.528,-36"/>
<text text-anchor="middle" x="564.528" y="-14.7" font-family="Times Roman,serif" font-size="12.00">lzma</text>
</g>
<!-- node151&#45;&gt;node152 -->
<g id="edge4" class="edge"><title>node151&#45;&gt;node152</title>
<path fill="none" stroke="black" d="M659.452,-74.0209C638.998,-61.9494 611.081,-45.4743 590.821,-33.5172"/>
<polygon fill="black" stroke="black" points="592.496,-30.4417 582.105,-28.3733 588.938,-36.4701 592.496,-30.4417"/>
</g>
<!-- node187 -->
<g id="node6" class="node"><title>node187</title>
<ellipse fill="none" stroke="black" cx="649.528" cy="-18" rx="27" ry="18"/>
<text text-anchor="middle" x="649.528" y="-14.7" font-family="Times Roman,serif" font-size="12.00">dl</text>
</g>
<!-- node151&#45;&gt;node187 -->
<g id="edge6" class="edge"><title>node151&#45;&gt;node187</title>
<path fill="none" stroke="black" d="M677.191,-71.8314C672.933,-63.5451 667.808,-53.5727 663.133,-44.4748"/>
<polygon fill="black" stroke="black" points="666.162,-42.7123 658.479,-35.4177 659.936,-45.9118 666.162,-42.7123"/>
</g>
<!-- node179 -->
<g id="node8" class="node"><title>node179</title>
<ellipse fill="none" stroke="black" cx="724.528" cy="-18" rx="30.0465" ry="18"/>
<text text-anchor="middle" x="724.528" y="-14.7" font-family="Times Roman,serif" font-size="12.00">crypt</text>
</g>
<!-- node151&#45;&gt;node179 -->
<g id="edge8" class="edge"><title>node151&#45;&gt;node179</title>
<path fill="none" stroke="black" d="M696.117,-71.8314C700.49,-63.5451 705.753,-53.5727 710.555,-44.4748"/>
<polygon fill="black" stroke="black" points="713.763,-45.8952 715.335,-35.4177 707.572,-42.6279 713.763,-45.8952"/>
</g>
<!-- node188 -->
<g id="node10" class="node"><title>node188</title>
<ellipse fill="none" stroke="black" cx="799.528" cy="-18" rx="27" ry="18"/>
<text text-anchor="middle" x="799.528" y="-14.7" font-family="Times Roman,serif" font-size="12.00">rt</text>
</g>
<!-- node151&#45;&gt;node188 -->
<g id="edge10" class="edge"><title>node151&#45;&gt;node188</title>
<path fill="none" stroke="black" d="M713.594,-72.7542C730.942,-61.7009 753.425,-47.375 771.043,-36.1494"/>
<polygon fill="black" stroke="black" points="773.207,-38.9209 779.76,-30.5955 769.446,-33.0174 773.207,-38.9209"/>
</g>
<!-- node153&#45;&gt;node151 -->
<g id="edge14" class="edge"><title>node153&#45;&gt;node151</title>
<path fill="none" stroke="black" d="M365.545,-156.41C427.216,-143.651 578.461,-112.359 649.074,-97.7492"/>
<polygon fill="black" stroke="black" points="650.204,-101.089 659.288,-95.6359 648.786,-94.2346 650.204,-101.089"/>
</g>
<!-- node149&#45;&gt;node151 -->
<g id="edge18" class="edge"><title>node149&#45;&gt;node151</title>
<path fill="none" stroke="black" d="M620.153,-215.762C633.287,-190.876 656.929,-146.082 672.164,-117.216"/>
<polygon fill="black" stroke="black" points="675.408,-118.567 676.981,-108.09 669.218,-115.3 675.408,-118.567"/>
</g>
<!-- node149&#45;&gt;node153 -->
<g id="edge20" class="edge"><title>node149&#45;&gt;node153</title>
<path fill="none" stroke="black" d="M583.453,-226.833C534.498,-213.874 431.199,-186.531 375.683,-171.835"/>
<polygon fill="black" stroke="black" points="376.46,-168.42 365.897,-169.245 374.668,-175.187 376.46,-168.42"/>
</g>
<!-- node59&#45;&gt;node151 -->
<g id="edge24" class="edge"><title>node59&#45;&gt;node151</title>
<path fill="none" stroke="black" d="M274.753,-215.718C276.068,-195 281.58,-161.803 302.528,-144 328.742,-121.72 557.911,-100.592 649.218,-92.9811"/>
<polygon fill="black" stroke="black" points="649.716,-96.452 659.394,-92.1413 649.14,-89.4757 649.716,-96.452"/>
</g>
<!-- node59&#45;&gt;node153 -->
<g id="edge26" class="edge"><title>node59&#45;&gt;node153</title>
<path fill="none" stroke="black" d="M290.678,-215.831C298.2,-207.369 307.284,-197.149 315.508,-187.897"/>
<polygon fill="black" stroke="black" points="318.133,-190.213 322.16,-180.413 312.901,-185.562 318.133,-190.213"/>
</g>
<!-- node147&#45;&gt;node151 -->
<g id="edge30" class="edge"><title>node147&#45;&gt;node151</title>
<path fill="none" stroke="black" d="M1596.32,-291.522C1593.39,-290.23 1590.43,-289.025 1587.53,-288 1263.29,-173.312 849.036,-111.711 723.928,-94.8343"/>
<polygon fill="black" stroke="black" points="724.111,-91.3277 713.735,-93.4724 723.184,-98.266 724.111,-91.3277"/>
</g>
<!-- node146&#45;&gt;node151 -->
<g id="edge42" class="edge"><title>node146&#45;&gt;node151</title>
<path fill="none" stroke="black" d="M1241.36,-367.161C1233.47,-364.405 1224.75,-361.735 1216.53,-360 1121.62,-339.979 855.122,-387.185 781.528,-324 719.122,-270.421 777.998,-216.162 738.528,-144 732.779,-133.49 724.443,-123.558 716.122,-115.146"/>
<polygon fill="black" stroke="black" points="718.51,-112.586 708.88,-108.168 713.653,-117.627 718.51,-112.586"/>
</g>
<!-- node146&#45;&gt;node147 -->
<g id="edge44" class="edge"><title>node146&#45;&gt;node147</title>
<path fill="none" stroke="black" d="M1295.92,-364.7C1300.39,-362.902 1305.03,-361.25 1309.53,-360 1426.51,-327.468 1466.34,-358.697 1586.82,-323.62"/>
<polygon fill="black" stroke="black" points="1587.83,-326.97 1596.4,-320.741 1585.82,-320.266 1587.83,-326.97"/>
</g>
<!-- node186 -->
<g id="node28" class="node"><title>node186</title>
<ellipse fill="none" stroke="black" cx="909.528" cy="-306" rx="118.939" ry="18"/>
<text text-anchor="middle" x="909.528" y="-302.7" font-family="Times Roman,serif" font-size="12.00">/usr/lib/libboost_regex&#45;mt.so</text>
</g>
<!-- node146&#45;&gt;node186 -->
<g id="edge34" class="edge"><title>node146&#45;&gt;node186</title>
<path fill="none" stroke="black" d="M1241.52,-367.738C1233.55,-364.96 1224.76,-362.134 1216.53,-360 1176.98,-349.748 1077.31,-332.807 1002.18,-320.633"/>
<polygon fill="black" stroke="black" points="1002.65,-317.163 992.218,-319.023 1001.53,-324.073 1002.65,-317.163"/>
</g>
<!-- node183 -->
<g id="node30" class="node"><title>node183</title>
<ellipse fill="none" stroke="black" cx="1124.53" cy="-306" rx="77.9931" ry="18"/>
<text text-anchor="middle" x="1124.53" y="-302.7" font-family="Times Roman,serif" font-size="12.00">/usr/lib/libicuuc.so</text>
</g>
<!-- node146&#45;&gt;node183 -->
<g id="edge36" class="edge"><title>node146&#45;&gt;node183</title>
<path fill="none" stroke="black" d="M1241.44,-364.457C1220.28,-353.874 1190.49,-338.979 1166.27,-326.873"/>
<polygon fill="black" stroke="black" points="1167.81,-323.727 1157.3,-322.385 1164.68,-329.988 1167.81,-323.727"/>
</g>
<!-- node184 -->
<g id="node32" class="node"><title>node184</title>
<ellipse fill="none" stroke="black" cx="1305.53" cy="-306" rx="85.1424" ry="18"/>
<text text-anchor="middle" x="1305.53" y="-302.7" font-family="Times Roman,serif" font-size="12.00">/usr/lib/libicui18n.so</text>
</g>
<!-- node146&#45;&gt;node184 -->
<g id="edge38" class="edge"><title>node146&#45;&gt;node184</title>
<path fill="none" stroke="black" d="M1277.86,-359.831C1282.06,-351.669 1287.09,-341.87 1291.71,-332.883"/>
<polygon fill="black" stroke="black" points="1294.86,-334.407 1296.32,-323.913 1288.64,-331.208 1294.86,-334.407"/>
</g>
<!-- node185 -->
<g id="node34" class="node"><title>node185</title>
<ellipse fill="none" stroke="black" cx="1493.53" cy="-306" rx="85.1424" ry="18"/>
<text text-anchor="middle" x="1493.53" y="-302.7" font-family="Times Roman,serif" font-size="12.00">/usr/lib/libicudata.so</text>
</g>
<!-- node146&#45;&gt;node185 -->
<g id="edge40" class="edge"><title>node146&#45;&gt;node185</title>
<path fill="none" stroke="black" d="M1295.68,-365.5C1300.26,-363.558 1305,-361.651 1309.53,-360 1348.84,-345.669 1393.9,-332.394 1429.59,-322.592"/>
<polygon fill="black" stroke="black" points="1430.67,-325.926 1439.4,-319.922 1428.83,-319.172 1430.67,-325.926"/>
</g>
<!-- node150&#45;&gt;node151 -->
<g id="edge48" class="edge"><title>node150&#45;&gt;node151</title>
<path fill="none" stroke="black" d="M86.8627,-149.108C91.9766,-147.114 97.3451,-145.292 102.528,-144 206.971,-117.962 537.246,-98.0997 649.083,-91.9728"/>
<polygon fill="black" stroke="black" points="649.414,-95.4601 659.209,-91.423 649.034,-88.4704 649.414,-95.4601"/>
</g>
<!-- node66&#45;&gt;node151 -->
<g id="edge52" class="edge"><title>node66&#45;&gt;node151</title>
<path fill="none" stroke="black" d="M540.958,-287.674C547.915,-268.946 559.987,-239.375 574.528,-216 596.53,-180.63 606.73,-175.022 634.528,-144 643.078,-134.458 652.741,-124.271 661.397,-115.344"/>
<polygon fill="black" stroke="black" points="663.905,-117.786 668.385,-108.184 658.895,-112.896 663.905,-117.786"/>
</g>
<!-- node66&#45;&gt;node153 -->
<g id="edge54" class="edge"><title>node66&#45;&gt;node153</title>
<path fill="none" stroke="black" d="M509.704,-287.762C474.654,-262.011 410.588,-214.942 371.553,-186.264"/>
<polygon fill="black" stroke="black" points="373.281,-183.19 363.15,-180.09 369.136,-188.831 373.281,-183.19"/>
</g>
<!-- node66&#45;&gt;node149 -->
<g id="edge56" class="edge"><title>node66&#45;&gt;node149</title>
<path fill="none" stroke="black" d="M553.706,-287.831C562.887,-279.134 574.028,-268.578 584.005,-259.127"/>
<polygon fill="black" stroke="black" points="586.504,-261.581 591.356,-252.163 581.689,-256.499 586.504,-261.581"/>
</g>
<!-- node66&#45;&gt;node59 -->
<g id="edge58" class="edge"><title>node66&#45;&gt;node59</title>
<path fill="none" stroke="black" d="M503.424,-297.387C455.911,-284.229 365.324,-259.144 313.496,-244.791"/>
<polygon fill="black" stroke="black" points="314.242,-241.366 303.671,-242.07 312.374,-248.112 314.242,-241.366"/>
</g>
<!-- node55&#45;&gt;node151 -->
<g id="edge62" class="edge"><title>node55&#45;&gt;node151</title>
<path fill="none" stroke="black" d="M188.295,-359.957C187.382,-341.704 186.855,-312.73 190.528,-288 201.513,-214.038 211.206,-178.533 277.528,-144 341.931,-110.466 560.882,-96.1772 649.17,-91.6842"/>
<polygon fill="black" stroke="black" points="649.456,-95.1744 659.27,-91.1842 649.109,-88.183 649.456,-95.1744"/>
</g>
<!-- node55&#45;&gt;node153 -->
<g id="edge64" class="edge"><title>node55&#45;&gt;node153</title>
<path fill="none" stroke="black" d="M190.286,-359.854C192.528,-327.488 201.406,-259.155 236.528,-216 253.199,-195.516 279.744,-181.81 301.576,-173.332"/>
<polygon fill="black" stroke="black" points="303.035,-176.525 311.222,-169.8 300.628,-169.952 303.035,-176.525"/>
</g>
<!-- node55&#45;&gt;node59 -->
<g id="edge66" class="edge"><title>node55&#45;&gt;node59</title>
<path fill="none" stroke="black" d="M200.293,-359.762C215.047,-334.768 241.654,-289.692 258.684,-260.841"/>
<polygon fill="black" stroke="black" points="261.781,-262.48 263.85,-252.09 255.753,-258.922 261.781,-262.48"/>
</g>
<!-- node55&#45;&gt;node66 -->
<g id="edge68" class="edge"><title>node55&#45;&gt;node66</title>
<path fill="none" stroke="black" d="M234.631,-368.587C302.073,-354.512 428.217,-328.187 493.316,-314.601"/>
<polygon fill="black" stroke="black" points="494.148,-318.003 503.222,-312.533 492.718,-311.15 494.148,-318.003"/>
</g>
<!-- node54&#45;&gt;node151 -->
<g id="edge74" class="edge"><title>node54&#45;&gt;node151</title>
<path fill="none" stroke="black" d="M722.838,-447.731C811.288,-441.369 1046.87,-422.105 1069.53,-396 1080.02,-383.917 1080.26,-371.865 1069.53,-360 1015.74,-300.544 767.286,-380.63 710.528,-324 655.719,-269.315 668.928,-167.287 679.47,-118.032"/>
<polygon fill="black" stroke="black" points="682.928,-118.607 681.719,-108.082 676.1,-117.064 682.928,-118.607"/>
</g>
<!-- node54&#45;&gt;node153 -->
<g id="edge76" class="edge"><title>node54&#45;&gt;node153</title>
<path fill="none" stroke="black" d="M656.498,-446.93C576.556,-439.182 377.726,-417.887 357.528,-396 305.251,-339.351 319.845,-238.693 331.037,-189.967"/>
<polygon fill="black" stroke="black" points="334.47,-190.66 333.418,-180.117 327.666,-189.015 334.47,-190.66"/>
</g>
<!-- node54&#45;&gt;node149 -->
<g id="edge78" class="edge"><title>node54&#45;&gt;node149</title>
<path fill="none" stroke="black" d="M661.712,-431.928C649.792,-422.666 636.932,-410.315 629.528,-396 607.457,-353.332 606.294,-296.076 608.021,-262.302"/>
<polygon fill="black" stroke="black" points="611.521,-262.411 608.66,-252.209 604.535,-261.968 611.521,-262.411"/>
</g>
<!-- node54&#45;&gt;node59 -->
<g id="edge82" class="edge"><title>node54&#45;&gt;node59</title>
<path fill="none" stroke="black" d="M656.309,-449.481C575.955,-447.554 374.054,-438.496 324.528,-396 285.391,-362.418 276.404,-298.922 274.63,-262.188"/>
<polygon fill="black" stroke="black" points="278.127,-262.024 274.294,-252.147 271.131,-262.259 278.127,-262.024"/>
</g>
<!-- node54&#45;&gt;node146 -->
<g id="edge80" class="edge"><title>node54&#45;&gt;node146</title>
<path fill="none" stroke="black" d="M722.658,-446.269C797.304,-437.812 984.327,-416.332 1140.53,-396 1171.04,-392.029 1205.58,-387.148 1231.09,-383.471"/>
<polygon fill="black" stroke="black" points="1231.69,-386.921 1241.08,-382.025 1230.69,-379.993 1231.69,-386.921"/>
</g>
<!-- node54&#45;&gt;node66 -->
<g id="edge84" class="edge"><title>node54&#45;&gt;node66</title>
<path fill="none" stroke="black" d="M656.181,-435.176C637.315,-425.734 614.065,-412.234 596.528,-396 576.904,-377.835 560.096,-352.392 548.951,-333.192"/>
<polygon fill="black" stroke="black" points="551.91,-331.315 543.947,-324.326 545.814,-334.755 551.91,-331.315"/>
</g>
<!-- node54&#45;&gt;node55 -->
<g id="edge86" class="edge"><title>node54&#45;&gt;node55</title>
<path fill="none" stroke="black" d="M656.286,-447.916C582.335,-442.849 398.874,-427.885 248.528,-396 247.261,-395.731 245.982,-395.448 244.695,-395.152"/>
<polygon fill="black" stroke="black" points="245.288,-391.692 234.738,-392.663 243.591,-398.483 245.288,-391.692"/>
</g>
<!-- node176 -->
<g id="node55" class="node"><title>node176</title>
<ellipse fill="none" stroke="black" cx="769.528" cy="-378" rx="130.789" ry="18"/>
<text text-anchor="middle" x="769.528" y="-374.7" font-family="Times Roman,serif" font-size="12.00">/usr/lib/x86_64&#45;linux&#45;gnu/libz.so</text>
</g>
<!-- node54&#45;&gt;node176 -->
<g id="edge72" class="edge"><title>node54&#45;&gt;node176</title>
<path fill="none" stroke="black" d="M709.715,-431.831C719.548,-422.981 731.519,-412.208 742.16,-402.631"/>
<polygon fill="black" stroke="black" points="744.532,-405.205 749.624,-395.913 739.85,-400.002 744.532,-405.205"/>
</g>
<!-- node177 -->
<g id="node64" class="node"><title>node177</title>
<ellipse fill="none" stroke="black" cx="989.528" cy="-378" rx="70.8437" ry="18"/>
<text text-anchor="middle" x="989.528" y="-374.7" font-family="Times Roman,serif" font-size="12.00">/usr/lib/libbfd.so</text>
</g>
<!-- node54&#45;&gt;node177 -->
<g id="edge88" class="edge"><title>node54&#45;&gt;node177</title>
<path fill="none" stroke="black" d="M722.779,-442.02C772.13,-430.176 865.604,-407.742 927.745,-392.828"/>
<polygon fill="black" stroke="black" points="928.912,-396.147 937.819,-390.41 927.278,-389.341 928.912,-396.147"/>
</g>
<!-- node178 -->
<g id="node66" class="node"><title>node178</title>
<ellipse fill="none" stroke="black" cx="455.528" cy="-378" rx="89.0421" ry="18"/>
<text text-anchor="middle" x="455.528" y="-374.7" font-family="Times Roman,serif" font-size="12.00">/usr/lib/libiberty_pic.a</text>
</g>
<!-- node54&#45;&gt;node178 -->
<g id="edge90" class="edge"><title>node54&#45;&gt;node178</title>
<path fill="none" stroke="black" d="M656.498,-439.837C619.644,-428.497 559.297,-409.929 514.334,-396.094"/>
<polygon fill="black" stroke="black" points="515.287,-392.726 504.7,-393.13 513.228,-399.416 515.287,-392.726"/>
</g>
<!-- node53&#45;&gt;node151 -->
<g id="edge94" class="edge"><title>node53&#45;&gt;node151</title>
<path fill="none" stroke="black" d="M1539.74,-432.111C1588.35,-402.265 1678.53,-342.041 1678.53,-306 1678.53,-306 1678.53,-306 1678.53,-234 1678.53,-135.569 903.74,-98.648 723.621,-91.3948"/>
<polygon fill="black" stroke="black" points="723.707,-87.8955 713.576,-90.9964 723.429,-94.89 723.707,-87.8955"/>
</g>
<!-- node53&#45;&gt;node147 -->
<g id="edge96" class="edge"><title>node53&#45;&gt;node147</title>
<path fill="none" stroke="black" d="M1523.97,-431.762C1543.92,-406.552 1580.06,-360.91 1602.87,-332.095"/>
<polygon fill="black" stroke="black" points="1605.74,-334.103 1609.21,-324.09 1600.26,-329.758 1605.74,-334.103"/>
</g>
<!-- node53&#45;&gt;node146 -->
<g id="edge98" class="edge"><title>node53&#45;&gt;node146</title>
<path fill="none" stroke="black" d="M1479.49,-441.027C1435.32,-427.829 1352.92,-403.211 1305.22,-388.962"/>
<polygon fill="black" stroke="black" points="1306.18,-385.595 1295.59,-386.086 1304.17,-392.303 1306.18,-385.595"/>
</g>
<!-- node64&#45;&gt;node151 -->
<g id="edge102" class="edge"><title>node64&#45;&gt;node151</title>
<path fill="none" stroke="black" d="M1214.25,-503.998C1197.23,-469.278 1154.68,-393.537 1093.53,-360 1026.52,-323.255 809.86,-373.369 751.528,-324 720.008,-297.323 698.669,-174.476 690.384,-118.244"/>
<polygon fill="black" stroke="black" points="693.834,-117.646 688.945,-108.246 686.905,-118.642 693.834,-117.646"/>
</g>
<!-- node64&#45;&gt;node147 -->
<g id="edge108" class="edge"><title>node64&#45;&gt;node147</title>
<path fill="none" stroke="black" d="M1234.87,-503.848C1259.25,-469.556 1317.2,-395.513 1385.53,-360 1463.68,-319.38 1498.55,-350.401 1586.78,-323.66"/>
<polygon fill="black" stroke="black" points="1587.9,-326.978 1596.36,-320.598 1585.77,-320.311 1587.9,-326.978"/>
</g>
<!-- node64&#45;&gt;node146 -->
<g id="edge110" class="edge"><title>node64&#45;&gt;node146</title>
<path fill="none" stroke="black" d="M1228.35,-503.762C1236.23,-479.093 1250.36,-434.86 1259.59,-405.973"/>
<polygon fill="black" stroke="black" points="1263.04,-406.68 1262.75,-396.09 1256.37,-404.55 1263.04,-406.68"/>
</g>
<!-- node64&#45;&gt;node66 -->
<g id="edge104" class="edge"><title>node64&#45;&gt;node66</title>
<path fill="none" stroke="black" d="M1211.85,-503.82C1190.15,-468.789 1137.16,-392.527 1069.53,-360 982.114,-317.961 730.702,-336.606 634.528,-324 615.138,-321.458 593.789,-317.743 575.813,-314.346"/>
<polygon fill="black" stroke="black" points="576.415,-310.898 565.935,-312.448 575.095,-317.772 576.415,-310.898"/>
</g>
<!-- node64&#45;&gt;node54 -->
<g id="edge106" class="edge"><title>node64&#45;&gt;node54</title>
<path fill="none" stroke="black" d="M1188.38,-517.387C1095.08,-504.784 836.005,-469.787 732.783,-455.843"/>
<polygon fill="black" stroke="black" points="733.091,-452.353 722.712,-454.483 732.153,-459.29 733.091,-452.353"/>
</g>
<!-- node64&#45;&gt;node53 -->
<g id="edge112" class="edge"><title>node64&#45;&gt;node53</title>
<path fill="none" stroke="black" d="M1256.58,-513.458C1309.83,-500.097 1412.61,-474.314 1469.39,-460.069"/>
<polygon fill="black" stroke="black" points="1470.59,-463.378 1479.43,-457.55 1468.88,-456.588 1470.59,-463.378"/>
</g>
<!-- node63&#45;&gt;node151 -->
<g id="edge116" class="edge"><title>node63&#45;&gt;node151</title>
<path fill="none" stroke="black" d="M1662.68,-519.056C1819.28,-506.473 2404.53,-454.34 2404.53,-378 2404.53,-378 2404.53,-378 2404.53,-234 2404.53,-182.202 2819.99,-238.255 2004.53,-144 1746.49,-114.175 910.856,-94.8059 723.875,-90.7811"/>
<polygon fill="black" stroke="black" points="723.8,-87.2788 713.728,-90.5641 723.651,-94.2772 723.8,-87.2788"/>
</g>
<!-- node63&#45;&gt;node147 -->
<g id="edge118" class="edge"><title>node63&#45;&gt;node147</title>
<path fill="none" stroke="black" d="M1624.44,-503.955C1624.27,-466.394 1623.87,-379.554 1623.66,-334.41"/>
<polygon fill="black" stroke="black" points="1627.16,-334.129 1623.61,-324.145 1620.16,-334.161 1627.16,-334.129"/>
</g>
<!-- node63&#45;&gt;node146 -->
<g id="edge120" class="edge"><title>node63&#45;&gt;node146</title>
<path fill="none" stroke="black" d="M1614.49,-503.936C1601.92,-483.099 1578.35,-449.473 1548.53,-432 1507.78,-408.124 1372.24,-389.842 1305.84,-382.078"/>
<polygon fill="black" stroke="black" points="1306.14,-378.59 1295.8,-380.923 1305.34,-385.544 1306.14,-378.59"/>
</g>
<!-- node63&#45;&gt;node53 -->
<g id="edge122" class="edge"><title>node63&#45;&gt;node53</title>
<path fill="none" stroke="black" d="M1595.51,-503.831C1580.8,-494.622 1562.76,-483.33 1547.02,-473.471"/>
<polygon fill="black" stroke="black" points="1548.87,-470.503 1538.54,-468.163 1545.16,-476.436 1548.87,-470.503"/>
</g>
<!-- node156 -->
<g id="node87" class="node"><title>node156</title>
<polygon fill="none" stroke="black" points="2081.53,-468 1987.53,-468 1987.53,-432 2081.53,-432 2081.53,-468"/>
<text text-anchor="middle" x="2034.53" y="-446.7" font-family="Times Roman,serif" font-size="12.00">securesocket</text>
</g>
<!-- node63&#45;&gt;node156 -->
<g id="edge124" class="edge"><title>node63&#45;&gt;node156</title>
<path fill="none" stroke="black" d="M1662.73,-515.291C1735.04,-502.594 1892.24,-474.988 1977.23,-460.062"/>
<polygon fill="black" stroke="black" points="1977.98,-463.484 1987.22,-458.307 1976.77,-456.589 1977.98,-463.484"/>
</g>
<!-- node156&#45;&gt;node151 -->
<g id="edge126" class="edge"><title>node156&#45;&gt;node151</title>
<path fill="none" stroke="black" d="M2081.77,-448.175C2159.7,-444.163 2310.3,-431.869 2347.53,-396 2376.97,-367.635 2366.53,-346.882 2366.53,-306 2366.53,-306 2366.53,-306 2366.53,-234 2366.53,-148.637 971.472,-99.2732 723.871,-91.1841"/>
<polygon fill="black" stroke="black" points="723.705,-87.677 713.597,-90.8507 723.478,-94.6733 723.705,-87.677"/>
</g>
<!-- node191 -->
<g id="node90" class="node"><title>node191</title>
<ellipse fill="none" stroke="black" cx="1881.53" cy="-378" rx="137.138" ry="18"/>
<text text-anchor="middle" x="1881.53" y="-374.7" font-family="Times Roman,serif" font-size="12.00">/usr/lib/x86_64&#45;linux&#45;gnu/libssl.so</text>
</g>
<!-- node156&#45;&gt;node191 -->
<g id="edge128" class="edge"><title>node156&#45;&gt;node191</title>
<path fill="none" stroke="black" d="M1995.92,-431.831C1975.16,-422.062 1949.42,-409.95 1927.62,-399.689"/>
<polygon fill="black" stroke="black" points="1929.08,-396.509 1918.54,-395.418 1926.1,-402.843 1929.08,-396.509"/>
</g>
<!-- node192 -->
<g id="node92" class="node"><title>node192</title>
<ellipse fill="none" stroke="black" cx="2187.53" cy="-378" rx="150.937" ry="18"/>
<text text-anchor="middle" x="2187.53" y="-374.7" font-family="Times Roman,serif" font-size="12.00">/usr/lib/x86_64&#45;linux&#45;gnu/libcrypto.so</text>
</g>
<!-- node156&#45;&gt;node192 -->
<g id="edge130" class="edge"><title>node156&#45;&gt;node192</title>
<path fill="none" stroke="black" d="M2073.14,-431.831C2093.82,-422.099 2119.44,-410.04 2141.19,-399.804"/>
<polygon fill="black" stroke="black" points="2142.69,-402.966 2150.25,-395.541 2139.71,-396.632 2142.69,-402.966"/>
</g>
<!-- node99&#45;&gt;node151 -->
<g id="edge134" class="edge"><title>node99&#45;&gt;node151</title>
<path fill="none" stroke="black" d="M1481.58,-514.087C1548.52,-492.661 1716.53,-426.85 1716.53,-306 1716.53,-306 1716.53,-306 1716.53,-234 1716.53,-186.379 1927.26,-237.161 1507.53,-144 1354.97,-110.139 863.459,-94.7127 723.834,-90.9444"/>
<polygon fill="black" stroke="black" points="723.74,-87.4407 713.65,-90.6735 723.553,-94.4382 723.74,-87.4407"/>
</g>
<!-- node99&#45;&gt;node147 -->
<g id="edge136" class="edge"><title>node99&#45;&gt;node147</title>
<path fill="none" stroke="black" d="M1454.41,-503.982C1455.02,-484.975 1458.11,-454.693 1470.53,-432 1497.25,-383.16 1551.31,-345.727 1587.47,-324.79"/>
<polygon fill="black" stroke="black" points="1589.27,-327.794 1596.26,-319.826 1585.83,-321.7 1589.27,-327.794"/>
</g>
<!-- node99&#45;&gt;node146 -->
<g id="edge138" class="edge"><title>node99&#45;&gt;node146</title>
<path fill="none" stroke="black" d="M1430.97,-503.762C1397.71,-478.011 1336.91,-430.942 1299.87,-402.264"/>
<polygon fill="black" stroke="black" points="1301.94,-399.444 1291.89,-396.09 1297.66,-404.979 1301.94,-399.444"/>
</g>
<!-- node99&#45;&gt;node53 -->
<g id="edge140" class="edge"><title>node99&#45;&gt;node53</title>
<path fill="none" stroke="black" d="M1468.41,-503.831C1474.74,-495.539 1482.37,-485.557 1489.32,-476.453"/>
<polygon fill="black" stroke="black" points="1492.17,-478.485 1495.46,-468.413 1486.61,-474.235 1492.17,-478.485"/>
</g>
</g>
</svg>
