<?xml version="1.0" encoding="UTF-8" standalone="no"?>
<!DOCTYPE svg PUBLIC "-//W3C//DTD SVG 1.1//EN"
 "http://www.w3.org/Graphics/SVG/1.1/DTD/svg11.dtd">
<!-- Generated by graphviz version 2.26.3 (20100126.1600)
 -->
<!-- Title: GG Pages: 1 -->
<svg width="1844pt" height="620pt"
 viewBox="0.00 0.00 1844.00 620.00" xmlns="http://www.w3.org/2000/svg" xmlns:xlink="http://www.w3.org/1999/xlink">
<g id="graph1" class="graph" transform="scale(1 1) rotate(0) translate(4 616)">
<title>GG</title>
<polygon fill="white" stroke="white" points="-4,5 -4,-616 1841,-616 1841,5 -4,5"/>
<!-- node137 -->
<g id="node1" class="node"><title>node137</title>
<polygon fill="none" stroke="black" points="207,-612 91,-612 91,-576 207,-576 207,-612"/>
<text text-anchor="middle" x="149" y="-590.7" font-family="Times Roman,serif" font-size="12.00">workunitservices</text>
</g>
<!-- node151 -->
<g id="node2" class="node"><title>node151</title>
<polygon fill="none" stroke="black" points="384,-108 330,-108 330,-72 384,-72 384,-108"/>
<text text-anchor="middle" x="357" y="-86.7" font-family="Times Roman,serif" font-size="12.00">jlib</text>
</g>
<!-- node137&#45;&gt;node151 -->
<g id="edge2" class="edge"><title>node137&#45;&gt;node151</title>
<path fill="none" stroke="black" d="M104.563,-575.998C86.4309,-567.102 66.1996,-555.019 51,-540 18.2969,-507.685 0,-495.976 0,-450 0,-450 0,-450 0,-234 0,-165.546 228.603,-114.438 319.946,-96.7495"/>
<polygon fill="black" stroke="black" points="320.708,-100.167 329.874,-94.8542 319.395,-93.2915 320.708,-100.167"/>
</g>
<!-- node153 -->
<g id="node12" class="node"><title>node153</title>
<polygon fill="none" stroke="black" points="274,-180 220,-180 220,-144 274,-144 274,-180"/>
<text text-anchor="middle" x="247" y="-158.7" font-family="Times Roman,serif" font-size="12.00">mp</text>
</g>
<!-- node137&#45;&gt;node153 -->
<g id="edge12" class="edge"><title>node137&#45;&gt;node153</title>
<path fill="none" stroke="black" d="M121.846,-575.837C88.985,-551.441 38,-504.766 38,-450 38,-450 38,-450 38,-306 38,-223.526 149.724,-184.674 209.801,-169.745"/>
<polygon fill="black" stroke="black" points="210.761,-173.114 219.677,-167.39 209.138,-166.305 210.761,-173.114"/>
</g>
<!-- node149 -->
<g id="node15" class="node"><title>node149</title>
<polygon fill="none" stroke="black" points="384,-252 330,-252 330,-216 384,-216 384,-252"/>
<text text-anchor="middle" x="357" y="-230.7" font-family="Times Roman,serif" font-size="12.00">hrpc</text>
</g>
<!-- node137&#45;&gt;node149 -->
<g id="edge16" class="edge"><title>node137&#45;&gt;node149</title>
<path fill="none" stroke="black" d="M162.508,-575.834C170,-565.509 179.326,-552.237 187,-540 249.749,-439.948 315.193,-315.465 343.082,-261.298"/>
<polygon fill="black" stroke="black" points="346.237,-262.816 347.69,-252.322 340.009,-259.619 346.237,-262.816"/>
</g>
<!-- node59 -->
<g id="node19" class="node"><title>node59</title>
<polygon fill="none" stroke="black" points="221,-252 163,-252 163,-216 221,-216 221,-252"/>
<text text-anchor="middle" x="192" y="-230.7" font-family="Times Roman,serif" font-size="12.00">remote</text>
</g>
<!-- node137&#45;&gt;node59 -->
<g id="edge22" class="edge"><title>node137&#45;&gt;node59</title>
<path fill="none" stroke="black" d="M138.015,-575.745C115.488,-535.883 68.3357,-438.347 95,-360 108.644,-319.91 140.765,-282.624 164.321,-259.176"/>
<polygon fill="black" stroke="black" points="166.906,-261.545 171.634,-252.063 162.025,-256.527 166.906,-261.545"/>
</g>
<!-- node66 -->
<g id="node23" class="node"><title>node66</title>
<polygon fill="none" stroke="black" points="280,-324 218,-324 218,-288 280,-288 280,-324"/>
<text text-anchor="middle" x="249" y="-302.7" font-family="Times Roman,serif" font-size="12.00">dalibase</text>
</g>
<!-- node137&#45;&gt;node66 -->
<g id="edge28" class="edge"><title>node137&#45;&gt;node66</title>
<path fill="none" stroke="black" d="M155.255,-575.984C172.197,-527.193 219.056,-392.238 239.384,-333.693"/>
<polygon fill="black" stroke="black" points="242.773,-334.604 242.747,-324.009 236.16,-332.308 242.773,-334.604"/>
</g>
<!-- node55 -->
<g id="node29" class="node"><title>node55</title>
<polygon fill="none" stroke="black" points="194,-396 104,-396 104,-360 194,-360 194,-396"/>
<text text-anchor="middle" x="149" y="-374.7" font-family="Times Roman,serif" font-size="12.00">environment</text>
</g>
<!-- node137&#45;&gt;node55 -->
<g id="edge38" class="edge"><title>node137&#45;&gt;node55</title>
<path fill="none" stroke="black" d="M149,-575.955C149,-538.394 149,-451.554 149,-406.41"/>
<polygon fill="black" stroke="black" points="152.5,-406.145 149,-396.145 145.5,-406.145 152.5,-406.145"/>
</g>
<!-- node64 -->
<g id="node35" class="node"><title>node64</title>
<polygon fill="none" stroke="black" points="1196,-540 1128,-540 1128,-504 1196,-504 1196,-540"/>
<text text-anchor="middle" x="1162" y="-518.7" font-family="Times Roman,serif" font-size="12.00">workunit</text>
</g>
<!-- node137&#45;&gt;node64 -->
<g id="edge48" class="edge"><title>node137&#45;&gt;node64</title>
<path fill="none" stroke="black" d="M207.102,-589.87C390.576,-576.83 955.052,-536.709 1117.71,-525.148"/>
<polygon fill="black" stroke="black" points="1118.11,-528.629 1127.84,-524.428 1117.61,-521.646 1118.11,-528.629"/>
</g>
<!-- node152 -->
<g id="node4" class="node"><title>node152</title>
<polygon fill="none" stroke="black" points="235,-36 195.056,-18 235,-3.55271e-15 274.944,-18 235,-36"/>
<text text-anchor="middle" x="235" y="-14.7" font-family="Times Roman,serif" font-size="12.00">lzma</text>
</g>
<!-- node151&#45;&gt;node152 -->
<g id="edge4" class="edge"><title>node151&#45;&gt;node152</title>
<path fill="none" stroke="black" d="M329.924,-74.0209C309.47,-61.9494 281.554,-45.4743 261.293,-33.5172"/>
<polygon fill="black" stroke="black" points="262.968,-30.4417 252.577,-28.3733 259.41,-36.4701 262.968,-30.4417"/>
</g>
<!-- node187 -->
<g id="node6" class="node"><title>node187</title>
<ellipse fill="none" stroke="black" cx="320" cy="-18" rx="27" ry="18"/>
<text text-anchor="middle" x="320" y="-14.7" font-family="Times Roman,serif" font-size="12.00">dl</text>
</g>
<!-- node151&#45;&gt;node187 -->
<g id="edge6" class="edge"><title>node151&#45;&gt;node187</title>
<path fill="none" stroke="black" d="M347.663,-71.8314C343.405,-63.5451 338.28,-53.5727 333.605,-44.4748"/>
<polygon fill="black" stroke="black" points="336.635,-42.7123 328.951,-35.4177 330.408,-45.9118 336.635,-42.7123"/>
</g>
<!-- node179 -->
<g id="node8" class="node"><title>node179</title>
<ellipse fill="none" stroke="black" cx="395" cy="-18" rx="30.0465" ry="18"/>
<text text-anchor="middle" x="395" y="-14.7" font-family="Times Roman,serif" font-size="12.00">crypt</text>
</g>
<!-- node151&#45;&gt;node179 -->
<g id="edge8" class="edge"><title>node151&#45;&gt;node179</title>
<path fill="none" stroke="black" d="M366.589,-71.8314C370.962,-63.5451 376.226,-53.5727 381.027,-44.4748"/>
<polygon fill="black" stroke="black" points="384.235,-45.8952 385.807,-35.4177 378.044,-42.6279 384.235,-45.8952"/>
</g>
<!-- node188 -->
<g id="node10" class="node"><title>node188</title>
<ellipse fill="none" stroke="black" cx="470" cy="-18" rx="27" ry="18"/>
<text text-anchor="middle" x="470" y="-14.7" font-family="Times Roman,serif" font-size="12.00">rt</text>
</g>
<!-- node151&#45;&gt;node188 -->
<g id="edge10" class="edge"><title>node151&#45;&gt;node188</title>
<path fill="none" stroke="black" d="M384.066,-72.7542C401.414,-61.7009 423.898,-47.375 441.516,-36.1494"/>
<polygon fill="black" stroke="black" points="443.679,-38.9209 450.232,-30.5955 439.918,-33.0174 443.679,-38.9209"/>
</g>
<!-- node153&#45;&gt;node151 -->
<g id="edge14" class="edge"><title>node153&#45;&gt;node151</title>
<path fill="none" stroke="black" d="M274.191,-144.202C288.338,-134.943 305.816,-123.502 321.063,-113.522"/>
<polygon fill="black" stroke="black" points="323.29,-116.248 329.741,-107.843 319.457,-110.391 323.29,-116.248"/>
</g>
<!-- node149&#45;&gt;node151 -->
<g id="edge18" class="edge"><title>node149&#45;&gt;node151</title>
<path fill="none" stroke="black" d="M357,-215.762C357,-191.201 357,-147.247 357,-118.354"/>
<polygon fill="black" stroke="black" points="360.5,-118.09 357,-108.09 353.5,-118.09 360.5,-118.09"/>
</g>
<!-- node149&#45;&gt;node153 -->
<g id="edge20" class="edge"><title>node149&#45;&gt;node153</title>
<path fill="none" stroke="black" d="M329.809,-216.202C315.662,-206.943 298.184,-195.502 282.937,-185.522"/>
<polygon fill="black" stroke="black" points="284.543,-182.391 274.259,-179.843 280.71,-188.248 284.543,-182.391"/>
</g>
<!-- node59&#45;&gt;node151 -->
<g id="edge24" class="edge"><title>node59&#45;&gt;node151</title>
<path fill="none" stroke="black" d="M190.97,-215.89C190.829,-195.95 193.674,-164.064 211,-144 238.414,-112.254 286.25,-99.1528 319.671,-93.7576"/>
<polygon fill="black" stroke="black" points="320.577,-97.1628 329.971,-92.2628 319.572,-90.2354 320.577,-97.1628"/>
</g>
<!-- node59&#45;&gt;node153 -->
<g id="edge26" class="edge"><title>node59&#45;&gt;node153</title>
<path fill="none" stroke="black" d="M205.879,-215.831C212.214,-207.539 219.838,-197.557 226.793,-188.453"/>
<polygon fill="black" stroke="black" points="229.645,-190.485 232.934,-180.413 224.083,-186.235 229.645,-190.485"/>
</g>
<!-- node66&#45;&gt;node151 -->
<g id="edge30" class="edge"><title>node66&#45;&gt;node151</title>
<path fill="none" stroke="black" d="M258.022,-287.955C276.962,-250.076 320.959,-162.082 343.363,-117.274"/>
<polygon fill="black" stroke="black" points="346.586,-118.655 347.927,-108.145 340.325,-115.524 346.586,-118.655"/>
</g>
<!-- node66&#45;&gt;node153 -->
<g id="edge32" class="edge"><title>node66&#45;&gt;node153</title>
<path fill="none" stroke="black" d="M248.747,-287.762C248.406,-263.201 247.795,-219.247 247.394,-190.354"/>
<polygon fill="black" stroke="black" points="250.89,-190.04 247.251,-180.09 243.891,-190.137 250.89,-190.04"/>
</g>
<!-- node66&#45;&gt;node149 -->
<g id="edge34" class="edge"><title>node66&#45;&gt;node149</title>
<path fill="none" stroke="black" d="M276.253,-287.831C289.939,-278.707 306.691,-267.539 321.383,-257.745"/>
<polygon fill="black" stroke="black" points="323.377,-260.622 329.756,-252.163 319.494,-254.798 323.377,-260.622"/>
</g>
<!-- node66&#45;&gt;node59 -->
<g id="edge36" class="edge"><title>node66&#45;&gt;node59</title>
<path fill="none" stroke="black" d="M234.616,-287.831C228.051,-279.539 220.149,-269.557 212.942,-260.453"/>
<polygon fill="black" stroke="black" points="215.528,-258.081 206.577,-252.413 210.04,-262.426 215.528,-258.081"/>
</g>
<!-- node55&#45;&gt;node151 -->
<g id="edge40" class="edge"><title>node55&#45;&gt;node151</title>
<path fill="none" stroke="black" d="M141.756,-359.837C138.029,-349.513 133.881,-336.24 132,-324 128.468,-301.021 135.147,-218.341 136,-216 149.697,-178.418 157.445,-167.242 190,-144 229.274,-115.961 283.866,-101.947 319.794,-95.337"/>
<polygon fill="black" stroke="black" points="320.602,-98.7492 329.856,-93.5895 319.404,-91.8524 320.602,-98.7492"/>
</g>
<!-- node55&#45;&gt;node153 -->
<g id="edge42" class="edge"><title>node55&#45;&gt;node153</title>
<path fill="none" stroke="black" d="M144.25,-359.905C137.015,-328.207 126.758,-261.675 154,-216 166.384,-195.236 190.035,-181.662 210.386,-173.316"/>
<polygon fill="black" stroke="black" points="211.658,-176.577 219.749,-169.737 209.158,-170.038 211.658,-176.577"/>
</g>
<!-- node55&#45;&gt;node59 -->
<g id="edge44" class="edge"><title>node55&#45;&gt;node59</title>
<path fill="none" stroke="black" d="M154.931,-359.539C158.248,-349.123 162.422,-335.856 166,-324 172.246,-303.305 179.015,-279.839 184.08,-262.057"/>
<polygon fill="black" stroke="black" points="187.483,-262.885 186.848,-252.309 180.75,-260.972 187.483,-262.885"/>
</g>
<!-- node55&#45;&gt;node66 -->
<g id="edge46" class="edge"><title>node55&#45;&gt;node66</title>
<path fill="none" stroke="black" d="M174.234,-359.831C186.788,-350.793 202.128,-339.748 215.639,-330.02"/>
<polygon fill="black" stroke="black" points="217.704,-332.846 223.774,-324.163 213.613,-327.166 217.704,-332.846"/>
</g>
<!-- node64&#45;&gt;node151 -->
<g id="edge50" class="edge"><title>node64&#45;&gt;node151</title>
<path fill="none" stroke="black" d="M1166.18,-503.745C1172.65,-470.27 1180.75,-398.934 1143,-360 1067.31,-281.93 986.247,-391.507 901,-324 860.497,-291.926 888.861,-257.435 858,-216 827.194,-174.639 814.499,-164.091 767,-144 699.965,-115.646 481.923,-98.3317 394.128,-92.3563"/>
<polygon fill="black" stroke="black" points="394.297,-88.8599 384.085,-91.6838 393.829,-95.8443 394.297,-88.8599"/>
</g>
<!-- node64&#45;&gt;node66 -->
<g id="edge52" class="edge"><title>node64&#45;&gt;node66</title>
<path fill="none" stroke="black" d="M1127.92,-520.602C987.127,-514.28 451.599,-484.719 312,-396 288.515,-381.075 271.337,-353.931 260.904,-333.342"/>
<polygon fill="black" stroke="black" points="263.956,-331.613 256.457,-324.128 257.652,-334.655 263.956,-331.613"/>
</g>
<!-- node54 -->
<g id="node39" class="node"><title>node54</title>
<polygon fill="none" stroke="black" points="801,-468 735,-468 735,-432 801,-432 801,-468"/>
<text text-anchor="middle" x="768" y="-446.7" font-family="Times Roman,serif" font-size="12.00">dllserver</text>
</g>
<!-- node64&#45;&gt;node54 -->
<g id="edge54" class="edge"><title>node64&#45;&gt;node54</title>
<path fill="none" stroke="black" d="M1127.72,-515.736C1055.96,-502.623 890.047,-472.303 811.164,-457.888"/>
<polygon fill="black" stroke="black" points="811.548,-454.4 801.081,-456.045 810.289,-461.286 811.548,-454.4"/>
</g>
<!-- node146 -->
<g id="node46" class="node"><title>node146</title>
<polygon fill="none" stroke="black" points="1452,-396 1398,-396 1398,-360 1452,-360 1452,-396"/>
<text text-anchor="middle" x="1425" y="-374.7" font-family="Times Roman,serif" font-size="12.00">eclrtl</text>
</g>
<!-- node64&#45;&gt;node146 -->
<g id="edge92" class="edge"><title>node64&#45;&gt;node146</title>
<path fill="none" stroke="black" d="M1195.04,-503.908C1244.53,-476.814 1337.53,-425.891 1388.8,-397.822"/>
<polygon fill="black" stroke="black" points="1390.77,-400.73 1397.86,-392.857 1387.41,-394.59 1390.77,-400.73"/>
</g>
<!-- node147 -->
<g id="node57" class="node"><title>node147</title>
<polygon fill="none" stroke="black" points="1808,-324 1754,-324 1754,-288 1808,-288 1808,-324"/>
<text text-anchor="middle" x="1781" y="-302.7" font-family="Times Roman,serif" font-size="12.00">nbcd</text>
</g>
<!-- node64&#45;&gt;node147 -->
<g id="edge90" class="edge"><title>node64&#45;&gt;node147</title>
<path fill="none" stroke="black" d="M1196.24,-511.377C1286.21,-483.223 1536.43,-403.395 1740,-324 1741.4,-323.453 1742.83,-322.885 1744.27,-322.304"/>
<polygon fill="black" stroke="black" points="1745.91,-325.411 1753.79,-318.327 1743.21,-318.952 1745.91,-325.411"/>
</g>
<!-- node53 -->
<g id="node69" class="node"><title>node53</title>
<polygon fill="none" stroke="black" points="1659,-468 1599,-468 1599,-432 1659,-432 1659,-468"/>
<text text-anchor="middle" x="1629" y="-446.7" font-family="Times Roman,serif" font-size="12.00">deftype</text>
</g>
<!-- node64&#45;&gt;node53 -->
<g id="edge94" class="edge"><title>node64&#45;&gt;node53</title>
<path fill="none" stroke="black" d="M1196.23,-517.147C1260.52,-507.975 1403.69,-487.283 1524,-468 1545.36,-464.576 1569.13,-460.523 1588.63,-457.13"/>
<polygon fill="black" stroke="black" points="1589.45,-460.54 1598.7,-455.373 1588.25,-453.645 1589.45,-460.54"/>
</g>
<!-- node54&#45;&gt;node151 -->
<g id="edge58" class="edge"><title>node54&#45;&gt;node151</title>
<path fill="none" stroke="black" d="M785.246,-431.619C807.669,-405.719 844,-356.035 844,-306 844,-306 844,-306 844,-234 844,-140.273 508.087,-102.904 394.224,-92.9301"/>
<polygon fill="black" stroke="black" points="394.489,-89.44 384.227,-92.0751 393.892,-96.4145 394.489,-89.44"/>
</g>
<!-- node54&#45;&gt;node153 -->
<g id="edge60" class="edge"><title>node54&#45;&gt;node153</title>
<path fill="none" stroke="black" d="M773.805,-431.814C778.784,-412.667 783.388,-382.269 771,-360 741.502,-306.973 710.218,-313.158 655,-288 524.15,-228.383 357.368,-186.775 284.216,-170.109"/>
<polygon fill="black" stroke="black" points="284.643,-166.618 274.118,-167.832 283.104,-173.446 284.643,-166.618"/>
</g>
<!-- node54&#45;&gt;node149 -->
<g id="edge62" class="edge"><title>node54&#45;&gt;node149</title>
<path fill="none" stroke="black" d="M769.19,-431.749C769.473,-411.683 766.756,-379.684 749,-360 700.353,-306.069 481.949,-258.367 393.934,-240.985"/>
<polygon fill="black" stroke="black" points="394.597,-237.549 384.111,-239.065 393.253,-244.419 394.597,-237.549"/>
</g>
<!-- node54&#45;&gt;node59 -->
<g id="edge80" class="edge"><title>node54&#45;&gt;node59</title>
<path fill="none" stroke="black" d="M734.965,-447.989C654.887,-442.683 452.632,-426.565 393,-396 363.349,-380.802 315.4,-308.326 289,-288 270.971,-274.119 248.942,-261.557 230.436,-252.049"/>
<polygon fill="black" stroke="black" points="231.901,-248.868 221.395,-247.5 228.755,-255.121 231.901,-248.868"/>
</g>
<!-- node54&#45;&gt;node66 -->
<g id="edge82" class="edge"><title>node54&#45;&gt;node66</title>
<path fill="none" stroke="black" d="M734.816,-447.934C650.054,-442.29 427.517,-425.06 360,-396 350.679,-391.988 307.93,-356.341 278.291,-331.135"/>
<polygon fill="black" stroke="black" points="280.198,-328.161 270.318,-324.337 275.657,-333.488 280.198,-328.161"/>
</g>
<!-- node54&#45;&gt;node55 -->
<g id="edge84" class="edge"><title>node54&#45;&gt;node55</title>
<path fill="none" stroke="black" d="M734.72,-446.129C633.722,-434.381 329.972,-399.05 204.33,-384.436"/>
<polygon fill="black" stroke="black" points="204.501,-380.932 194.164,-383.253 203.693,-387.885 204.501,-380.932"/>
</g>
<!-- node176 -->
<g id="node41" class="node"><title>node176</title>
<ellipse fill="none" stroke="black" cx="1003" cy="-378" rx="130.789" ry="18"/>
<text text-anchor="middle" x="1003" y="-374.7" font-family="Times Roman,serif" font-size="12.00">/usr/lib/x86_64&#45;linux&#45;gnu/libz.so</text>
</g>
<!-- node54&#45;&gt;node176 -->
<g id="edge56" class="edge"><title>node54&#45;&gt;node176</title>
<path fill="none" stroke="black" d="M801.171,-439.837C837.004,-428.858 894.951,-411.104 939.583,-397.43"/>
<polygon fill="black" stroke="black" points="940.642,-400.766 949.178,-394.49 938.592,-394.073 940.642,-400.766"/>
</g>
<!-- node54&#45;&gt;node146 -->
<g id="edge64" class="edge"><title>node54&#45;&gt;node146</title>
<path fill="none" stroke="black" d="M801.031,-446.38C911.932,-434.227 1270.56,-394.925 1387.64,-382.094"/>
<polygon fill="black" stroke="black" points="1388.33,-385.54 1397.89,-380.971 1387.57,-378.581 1388.33,-385.54"/>
</g>
<!-- node177 -->
<g id="node63" class="node"><title>node177</title>
<ellipse fill="none" stroke="black" cx="473" cy="-378" rx="70.8437" ry="18"/>
<text text-anchor="middle" x="473" y="-374.7" font-family="Times Roman,serif" font-size="12.00">/usr/lib/libbfd.so</text>
</g>
<!-- node54&#45;&gt;node177 -->
<g id="edge86" class="edge"><title>node54&#45;&gt;node177</title>
<path fill="none" stroke="black" d="M734.733,-441.881C686.131,-430.018 594.893,-407.75 534.026,-392.894"/>
<polygon fill="black" stroke="black" points="534.7,-389.456 524.155,-390.485 533.04,-396.257 534.7,-389.456"/>
</g>
<!-- node178 -->
<g id="node65" class="node"><title>node178</title>
<ellipse fill="none" stroke="black" cx="651" cy="-378" rx="89.0421" ry="18"/>
<text text-anchor="middle" x="651" y="-374.7" font-family="Times Roman,serif" font-size="12.00">/usr/lib/libiberty_pic.a</text>
</g>
<!-- node54&#45;&gt;node178 -->
<g id="edge88" class="edge"><title>node54&#45;&gt;node178</title>
<path fill="none" stroke="black" d="M738.476,-431.831C723.054,-422.341 704.038,-410.639 687.679,-400.572"/>
<polygon fill="black" stroke="black" points="689.255,-397.432 678.904,-395.171 685.586,-403.393 689.255,-397.432"/>
</g>
<!-- node146&#45;&gt;node151 -->
<g id="edge74" class="edge"><title>node146&#45;&gt;node151</title>
<path fill="none" stroke="black" d="M1452.13,-373.757C1521.2,-362.831 1698.82,-333.893 1707,-324 1717.19,-311.668 1717.28,-300.263 1707,-288 1619.65,-183.774 602.78,-107.217 394.235,-92.5517"/>
<polygon fill="black" stroke="black" points="394.319,-89.0492 384.099,-91.8431 393.831,-96.0321 394.319,-89.0492"/>
</g>
<!-- node186 -->
<g id="node48" class="node"><title>node186</title>
<ellipse fill="none" stroke="black" cx="1029" cy="-306" rx="118.939" ry="18"/>
<text text-anchor="middle" x="1029" y="-302.7" font-family="Times Roman,serif" font-size="12.00">/usr/lib/libboost_regex&#45;mt.so</text>
</g>
<!-- node146&#45;&gt;node186 -->
<g id="edge66" class="edge"><title>node146&#45;&gt;node186</title>
<path fill="none" stroke="black" d="M1397.78,-373.051C1340.43,-362.624 1205.08,-338.014 1115.28,-321.688"/>
<polygon fill="black" stroke="black" points="1115.85,-318.233 1105.38,-319.888 1114.6,-325.12 1115.85,-318.233"/>
</g>
<!-- node183 -->
<g id="node50" class="node"><title>node183</title>
<ellipse fill="none" stroke="black" cx="1244" cy="-306" rx="77.9931" ry="18"/>
<text text-anchor="middle" x="1244" y="-302.7" font-family="Times Roman,serif" font-size="12.00">/usr/lib/libicuuc.so</text>
</g>
<!-- node146&#45;&gt;node183 -->
<g id="edge68" class="edge"><title>node146&#45;&gt;node183</title>
<path fill="none" stroke="black" d="M1397.9,-367.221C1370.26,-356.224 1326.75,-338.916 1293.03,-325.505"/>
<polygon fill="black" stroke="black" points="1293.95,-322.102 1283.36,-321.658 1291.36,-328.606 1293.95,-322.102"/>
</g>
<!-- node184 -->
<g id="node52" class="node"><title>node184</title>
<ellipse fill="none" stroke="black" cx="1425" cy="-306" rx="85.1424" ry="18"/>
<text text-anchor="middle" x="1425" y="-302.7" font-family="Times Roman,serif" font-size="12.00">/usr/lib/libicui18n.so</text>
</g>
<!-- node146&#45;&gt;node184 -->
<g id="edge70" class="edge"><title>node146&#45;&gt;node184</title>
<path fill="none" stroke="black" d="M1425,-359.831C1425,-352.131 1425,-342.974 1425,-334.417"/>
<polygon fill="black" stroke="black" points="1428.5,-334.413 1425,-324.413 1421.5,-334.413 1428.5,-334.413"/>
</g>
<!-- node185 -->
<g id="node54" class="node"><title>node185</title>
<ellipse fill="none" stroke="black" cx="1613" cy="-306" rx="85.1424" ry="18"/>
<text text-anchor="middle" x="1613" y="-302.7" font-family="Times Roman,serif" font-size="12.00">/usr/lib/libicudata.so</text>
</g>
<!-- node146&#45;&gt;node185 -->
<g id="edge72" class="edge"><title>node146&#45;&gt;node185</title>
<path fill="none" stroke="black" d="M1452.34,-367.531C1481.01,-356.55 1526.73,-339.041 1562.07,-325.504"/>
<polygon fill="black" stroke="black" points="1563.66,-328.644 1571.75,-321.799 1561.16,-322.107 1563.66,-328.644"/>
</g>
<!-- node146&#45;&gt;node147 -->
<g id="edge76" class="edge"><title>node146&#45;&gt;node147</title>
<path fill="none" stroke="black" d="M1452.16,-370.423C1465.33,-366.928 1481.41,-362.918 1496,-360 1603.49,-338.503 1634.65,-354.303 1740,-324 1741.26,-323.637 1742.53,-323.244 1743.81,-322.826"/>
<polygon fill="black" stroke="black" points="1745.41,-325.968 1753.58,-319.23 1742.99,-319.399 1745.41,-325.968"/>
</g>
<!-- node147&#45;&gt;node151 -->
<g id="edge78" class="edge"><title>node147&#45;&gt;node151</title>
<path fill="none" stroke="black" d="M1782.68,-287.8C1784.72,-253.426 1783.5,-179.25 1740,-144 1686.24,-100.441 609.38,-91.5497 394.22,-90.2057"/>
<polygon fill="black" stroke="black" points="394.09,-86.7049 384.069,-90.1439 394.047,-93.7048 394.09,-86.7049"/>
</g>
<!-- node53&#45;&gt;node151 -->
<g id="edge96" class="edge"><title>node53&#45;&gt;node151</title>
<path fill="none" stroke="black" d="M1659.1,-443.803C1716.51,-430.034 1836,-391.148 1836,-306 1836,-306 1836,-306 1836,-234 1836,-183.597 1811.77,-167.163 1767,-144 1735.61,-127.757 614.321,-96.899 394.259,-90.9913"/>
<polygon fill="black" stroke="black" points="394.271,-87.4904 384.181,-90.7213 394.084,-94.4879 394.271,-87.4904"/>
</g>
<!-- node53&#45;&gt;node146 -->
<g id="edge100" class="edge"><title>node53&#45;&gt;node146</title>
<path fill="none" stroke="black" d="M1598.9,-439.376C1562.42,-426.502 1500.99,-404.819 1461.75,-390.971"/>
<polygon fill="black" stroke="black" points="1462.88,-387.658 1452.28,-387.63 1460.55,-394.258 1462.88,-387.658"/>
</g>
<!-- node53&#45;&gt;node147 -->
<g id="edge98" class="edge"><title>node53&#45;&gt;node147</title>
<path fill="none" stroke="black" d="M1648.25,-431.762C1675.2,-406.227 1724.28,-359.732 1754.62,-330.991"/>
<polygon fill="black" stroke="black" points="1757.05,-333.508 1761.91,-324.09 1752.24,-328.426 1757.05,-333.508"/>
</g>
</g>
</svg>
