<?xml version="1.0" encoding="UTF-8" standalone="no"?>
<!DOCTYPE svg PUBLIC "-//W3C//DTD SVG 1.1//EN"
 "http://www.w3.org/Graphics/SVG/1.1/DTD/svg11.dtd">
<!-- Generated by graphviz version 2.26.3 (20100126.1600)
 -->
<!-- Title: GG Pages: 1 -->
<svg width="2322pt" height="692pt"
 viewBox="0.00 0.00 2322.27 692.00" xmlns="http://www.w3.org/2000/svg" xmlns:xlink="http://www.w3.org/1999/xlink">
<g id="graph1" class="graph" transform="scale(1 1) rotate(0) translate(4 688)">
<title>GG</title>
<polygon fill="white" stroke="white" points="-4,5 -4,-688 2319.27,-688 2319.27,5 -4,5"/>
<!-- node92 -->
<g id="node1" class="node"><title>node92</title>
<polygon fill="none" stroke="black" points="1143.79,-671.562 1106.83,-684 1069.88,-671.562 1069.91,-651.438 1143.75,-651.438 1143.79,-671.562"/>
<text text-anchor="middle" x="1106.83" y="-662.7" font-family="Times Roman,serif" font-size="12.00">eclcc</text>
</g>
<!-- node151 -->
<g id="node2" class="node"><title>node151</title>
<polygon fill="none" stroke="black" points="549.831,-108 495.831,-108 495.831,-72 549.831,-72 549.831,-108"/>
<text text-anchor="middle" x="522.831" y="-86.7" font-family="Times Roman,serif" font-size="12.00">jlib</text>
</g>
<!-- node92&#45;&gt;node151 -->
<g id="edge2" class="edge"><title>node92&#45;&gt;node151</title>
<path fill="none" stroke="black" d="M1069.82,-664.971C889.804,-659.856 112.695,-636.429 67.8314,-612 24.4977,-588.404 2.83144,-571.341 2.83144,-522 2.83144,-522 2.83144,-522 2.83144,-234 2.83144,-193.118 -8.49431,-171.416 21.8314,-144 56.1329,-112.989 375.511,-96.3682 485.68,-91.5206"/>
<polygon fill="black" stroke="black" points="485.833,-95.0174 495.672,-91.0881 485.53,-88.0239 485.833,-95.0174"/>
</g>
<!-- node147 -->
<g id="node12" class="node"><title>node147</title>
<polygon fill="none" stroke="black" points="1543.83,-324 1489.83,-324 1489.83,-288 1543.83,-288 1543.83,-324"/>
<text text-anchor="middle" x="1516.83" y="-302.7" font-family="Times Roman,serif" font-size="12.00">nbcd</text>
</g>
<!-- node92&#45;&gt;node147 -->
<g id="edge12" class="edge"><title>node92&#45;&gt;node147</title>
<path fill="none" stroke="black" d="M1144.1,-664.481C1235.6,-660.255 1468.89,-646.332 1537.83,-612 1589.03,-586.5 1617.69,-560.344 1607.83,-504 1596.1,-436.974 1587.62,-420.166 1555.83,-360 1550.81,-350.491 1544.29,-340.764 1538.02,-332.232"/>
<polygon fill="black" stroke="black" points="1540.73,-330.012 1531.9,-324.152 1535.15,-334.238 1540.73,-330.012"/>
</g>
<!-- node146 -->
<g id="node15" class="node"><title>node146</title>
<polygon fill="none" stroke="black" points="1225.83,-396 1171.83,-396 1171.83,-360 1225.83,-360 1225.83,-396"/>
<text text-anchor="middle" x="1198.83" y="-374.7" font-family="Times Roman,serif" font-size="12.00">eclrtl</text>
</g>
<!-- node92&#45;&gt;node146 -->
<g id="edge16" class="edge"><title>node92&#45;&gt;node146</title>
<path fill="none" stroke="black" d="M1112.03,-651.313C1120.29,-627.865 1136.8,-580.485 1149.83,-540 1164.94,-493.054 1181.3,-438.033 1190.77,-405.704"/>
<polygon fill="black" stroke="black" points="1194.15,-406.624 1193.6,-396.044 1187.43,-404.659 1194.15,-406.624"/>
</g>
<!-- node53 -->
<g id="node27" class="node"><title>node53</title>
<polygon fill="none" stroke="black" points="1522.83,-468 1462.83,-468 1462.83,-432 1522.83,-432 1522.83,-468"/>
<text text-anchor="middle" x="1492.83" y="-446.7" font-family="Times Roman,serif" font-size="12.00">deftype</text>
</g>
<!-- node92&#45;&gt;node53 -->
<g id="edge30" class="edge"><title>node92&#45;&gt;node53</title>
<path fill="none" stroke="black" d="M1143.91,-660.914C1190.92,-653.689 1273.9,-638.322 1340.83,-612 1400.5,-588.536 1426.03,-590.259 1465.83,-540 1479.93,-522.196 1486.68,-497.14 1489.9,-477.984"/>
<polygon fill="black" stroke="black" points="1493.38,-478.434 1491.36,-468.033 1486.45,-477.423 1493.38,-478.434"/>
</g>
<!-- node99 -->
<g id="node32" class="node"><title>node99</title>
<polygon fill="none" stroke="black" points="1428.83,-540 1374.83,-540 1374.83,-504 1428.83,-504 1428.83,-540"/>
<text text-anchor="middle" x="1401.83" y="-518.7" font-family="Times Roman,serif" font-size="12.00">hql</text>
</g>
<!-- node92&#45;&gt;node99 -->
<g id="edge38" class="edge"><title>node92&#45;&gt;node99</title>
<path fill="none" stroke="black" d="M1144.03,-661.176C1185.18,-654.653 1252.47,-640.406 1303.83,-612 1333.63,-595.517 1361.61,-568.17 1379.98,-547.939"/>
<polygon fill="black" stroke="black" points="1382.75,-550.099 1386.77,-540.3 1377.51,-545.449 1382.75,-550.099"/>
</g>
<!-- node52 -->
<g id="node38" class="node"><title>node52</title>
<polygon fill="none" stroke="black" points="116.831,-180 30.8314,-180 30.8314,-144 116.831,-144 116.831,-180"/>
<text text-anchor="middle" x="73.8314" y="-158.7" font-family="Times Roman,serif" font-size="12.00">commonext</text>
</g>
<!-- node92&#45;&gt;node52 -->
<g id="edge48" class="edge"><title>node92&#45;&gt;node52</title>
<path fill="none" stroke="black" d="M1069.85,-664.906C895.24,-659.625 159.927,-636.028 117.831,-612 76.0802,-588.168 57.8314,-570.074 57.8314,-522 57.8314,-522 57.8314,-522 57.8314,-306 57.8314,-265.629 64.1203,-219.279 68.8125,-190.315"/>
<polygon fill="black" stroke="black" points="72.321,-190.554 70.5162,-180.114 65.4166,-189.4 72.321,-190.554"/>
</g>
<!-- node59 -->
<g id="node41" class="node"><title>node59</title>
<polygon fill="none" stroke="black" points="230.831,-252 172.831,-252 172.831,-216 230.831,-216 230.831,-252"/>
<text text-anchor="middle" x="201.831" y="-230.7" font-family="Times Roman,serif" font-size="12.00">remote</text>
</g>
<!-- node92&#45;&gt;node59 -->
<g id="edge52" class="edge"><title>node92&#45;&gt;node59</title>
<path fill="none" stroke="black" d="M1069.7,-664.892C912.657,-660.047 307.335,-639.721 226.831,-612 160.042,-589.001 95.8314,-592.639 95.8314,-522 95.8314,-522 95.8314,-522 95.8314,-378 95.8314,-328.274 137.334,-284.397 168.4,-258.519"/>
<polygon fill="black" stroke="black" points="170.863,-261.028 176.442,-252.021 166.464,-255.583 170.863,-261.028"/>
</g>
<!-- node66 -->
<g id="node47" class="node"><title>node66</title>
<polygon fill="none" stroke="black" points="348.831,-324 286.831,-324 286.831,-288 348.831,-288 348.831,-324"/>
<text text-anchor="middle" x="317.831" y="-302.7" font-family="Times Roman,serif" font-size="12.00">dalibase</text>
</g>
<!-- node92&#45;&gt;node66 -->
<g id="edge60" class="edge"><title>node92&#45;&gt;node66</title>
<path fill="none" stroke="black" d="M1069.69,-663.526C908.77,-652.324 279.831,-603.339 279.831,-522 279.831,-522 279.831,-522 279.831,-450 279.831,-408.368 294.864,-362.14 306.02,-333.567"/>
<polygon fill="black" stroke="black" points="309.289,-334.817 309.773,-324.233 302.795,-332.206 309.289,-334.817"/>
</g>
<!-- node55 -->
<g id="node56" class="node"><title>node55</title>
<polygon fill="none" stroke="black" points="213.831,-396 123.831,-396 123.831,-360 213.831,-360 213.831,-396"/>
<text text-anchor="middle" x="168.831" y="-374.7" font-family="Times Roman,serif" font-size="12.00">environment</text>
</g>
<!-- node92&#45;&gt;node55 -->
<g id="edge74" class="edge"><title>node92&#45;&gt;node55</title>
<path fill="none" stroke="black" d="M1069.63,-664.703C911.162,-659.041 298.964,-635.702 265.831,-612 197.545,-563.149 177.162,-457.014 171.211,-406.208"/>
<polygon fill="black" stroke="black" points="174.69,-405.819 170.148,-396.247 167.729,-406.562 174.69,-405.819"/>
</g>
<!-- node54 -->
<g id="node62" class="node"><title>node54</title>
<polygon fill="none" stroke="black" points="763.831,-468 697.831,-468 697.831,-432 763.831,-432 763.831,-468"/>
<text text-anchor="middle" x="730.831" y="-446.7" font-family="Times Roman,serif" font-size="12.00">dllserver</text>
</g>
<!-- node92&#45;&gt;node54 -->
<g id="edge84" class="edge"><title>node92&#45;&gt;node54</title>
<path fill="none" stroke="black" d="M1081.28,-651.323C1017.19,-614.506 849.189,-517.993 771.414,-473.314"/>
<polygon fill="black" stroke="black" points="772.804,-470.076 762.39,-468.129 769.317,-476.145 772.804,-470.076"/>
</g>
<!-- node64 -->
<g id="node77" class="node"><title>node64</title>
<polygon fill="none" stroke="black" points="1140.83,-540 1072.83,-540 1072.83,-504 1140.83,-504 1140.83,-540"/>
<text text-anchor="middle" x="1106.83" y="-518.7" font-family="Times Roman,serif" font-size="12.00">workunit</text>
</g>
<!-- node92&#45;&gt;node64 -->
<g id="edge106" class="edge"><title>node92&#45;&gt;node64</title>
<path fill="none" stroke="black" d="M1106.83,-651.4C1106.83,-627.838 1106.83,-581.003 1106.83,-550.613"/>
<polygon fill="black" stroke="black" points="1110.33,-550.234 1106.83,-540.234 1103.33,-550.234 1110.33,-550.234"/>
</g>
<!-- node63 -->
<g id="node85" class="node"><title>node63</title>
<polygon fill="none" stroke="black" points="1598.83,-540 1522.83,-540 1522.83,-504 1598.83,-504 1598.83,-540"/>
<text text-anchor="middle" x="1560.83" y="-518.7" font-family="Times Roman,serif" font-size="12.00">thorhelper</text>
</g>
<!-- node92&#45;&gt;node63 -->
<g id="edge120" class="edge"><title>node92&#45;&gt;node63</title>
<path fill="none" stroke="black" d="M1144.08,-665.12C1232,-662.399 1449.52,-651.729 1508.83,-612 1530.61,-597.414 1544.41,-570.411 1552.28,-549.775"/>
<polygon fill="black" stroke="black" points="1555.62,-550.832 1555.68,-540.238 1549.02,-548.485 1555.62,-550.832"/>
</g>
<!-- node100 -->
<g id="node98" class="node"><title>node100</title>
<polygon fill="none" stroke="black" points="1294.83,-612 1238.83,-612 1238.83,-576 1294.83,-576 1294.83,-612"/>
<text text-anchor="middle" x="1266.83" y="-590.7" font-family="Times Roman,serif" font-size="12.00">hqlcpp</text>
</g>
<!-- node92&#45;&gt;node100 -->
<g id="edge138" class="edge"><title>node92&#45;&gt;node100</title>
<path fill="none" stroke="black" d="M1139.21,-651.43C1165.35,-639.667 1202.15,-623.106 1229.52,-610.789"/>
<polygon fill="black" stroke="black" points="1231.1,-613.919 1238.78,-606.624 1228.22,-607.536 1231.1,-613.919"/>
</g>
<!-- node152 -->
<g id="node4" class="node"><title>node152</title>
<polygon fill="none" stroke="black" points="400.831,-36 360.888,-18 400.831,-3.55271e-15 440.775,-18 400.831,-36"/>
<text text-anchor="middle" x="400.831" y="-14.7" font-family="Times Roman,serif" font-size="12.00">lzma</text>
</g>
<!-- node151&#45;&gt;node152 -->
<g id="edge4" class="edge"><title>node151&#45;&gt;node152</title>
<path fill="none" stroke="black" d="M495.756,-74.0209C475.301,-61.9494 447.385,-45.4743 427.124,-33.5172"/>
<polygon fill="black" stroke="black" points="428.799,-30.4417 418.408,-28.3733 425.242,-36.4701 428.799,-30.4417"/>
</g>
<!-- node187 -->
<g id="node6" class="node"><title>node187</title>
<ellipse fill="none" stroke="black" cx="485.831" cy="-18" rx="27" ry="18"/>
<text text-anchor="middle" x="485.831" y="-14.7" font-family="Times Roman,serif" font-size="12.00">dl</text>
</g>
<!-- node151&#45;&gt;node187 -->
<g id="edge6" class="edge"><title>node151&#45;&gt;node187</title>
<path fill="none" stroke="black" d="M513.495,-71.8314C509.237,-63.5451 504.112,-53.5727 499.437,-44.4748"/>
<polygon fill="black" stroke="black" points="502.466,-42.7123 494.782,-35.4177 496.24,-45.9118 502.466,-42.7123"/>
</g>
<!-- node179 -->
<g id="node8" class="node"><title>node179</title>
<ellipse fill="none" stroke="black" cx="560.831" cy="-18" rx="30.0465" ry="18"/>
<text text-anchor="middle" x="560.831" y="-14.7" font-family="Times Roman,serif" font-size="12.00">crypt</text>
</g>
<!-- node151&#45;&gt;node179 -->
<g id="edge8" class="edge"><title>node151&#45;&gt;node179</title>
<path fill="none" stroke="black" d="M532.42,-71.8314C536.794,-63.5451 542.057,-53.5727 546.859,-44.4748"/>
<polygon fill="black" stroke="black" points="550.066,-45.8952 551.639,-35.4177 543.876,-42.6279 550.066,-45.8952"/>
</g>
<!-- node188 -->
<g id="node10" class="node"><title>node188</title>
<ellipse fill="none" stroke="black" cx="635.831" cy="-18" rx="27" ry="18"/>
<text text-anchor="middle" x="635.831" y="-14.7" font-family="Times Roman,serif" font-size="12.00">rt</text>
</g>
<!-- node151&#45;&gt;node188 -->
<g id="edge10" class="edge"><title>node151&#45;&gt;node188</title>
<path fill="none" stroke="black" d="M549.898,-72.7542C567.245,-61.7009 589.729,-47.375 607.347,-36.1494"/>
<polygon fill="black" stroke="black" points="609.511,-38.9209 616.064,-30.5955 605.749,-33.0174 609.511,-38.9209"/>
</g>
<!-- node147&#45;&gt;node151 -->
<g id="edge14" class="edge"><title>node147&#45;&gt;node151</title>
<path fill="none" stroke="black" d="M1518.45,-287.869C1520.39,-253.614 1519.02,-179.631 1475.83,-144 1439.91,-114.368 732.255,-95.1386 560.262,-90.8907"/>
<polygon fill="black" stroke="black" points="560.257,-87.3896 550.174,-90.6436 560.085,-94.3875 560.257,-87.3896"/>
</g>
<!-- node146&#45;&gt;node151 -->
<g id="edge26" class="edge"><title>node146&#45;&gt;node151</title>
<path fill="none" stroke="black" d="M1171.5,-364.445C1167.02,-362.68 1162.36,-361.104 1157.83,-360 1097.36,-345.266 646.423,-364.111 598.831,-324 535.939,-270.993 587.218,-220.027 555.831,-144 552.014,-134.752 546.736,-125.251 541.521,-116.846"/>
<polygon fill="black" stroke="black" points="544.319,-114.728 535.958,-108.221 538.437,-118.522 544.319,-114.728"/>
</g>
<!-- node146&#45;&gt;node147 -->
<g id="edge28" class="edge"><title>node146&#45;&gt;node147</title>
<path fill="none" stroke="black" d="M1226.03,-370.754C1238.97,-367.372 1254.67,-363.362 1268.83,-360 1343.32,-342.319 1430.94,-323.763 1479.55,-313.665"/>
<polygon fill="black" stroke="black" points="1480.52,-317.039 1489.6,-311.583 1479.1,-310.185 1480.52,-317.039"/>
</g>
<!-- node186 -->
<g id="node17" class="node"><title>node186</title>
<ellipse fill="none" stroke="black" cx="726.831" cy="-306" rx="118.939" ry="18"/>
<text text-anchor="middle" x="726.831" y="-302.7" font-family="Times Roman,serif" font-size="12.00">/usr/lib/libboost_regex&#45;mt.so</text>
</g>
<!-- node146&#45;&gt;node186 -->
<g id="edge18" class="edge"><title>node146&#45;&gt;node186</title>
<path fill="none" stroke="black" d="M1171.45,-364.659C1166.97,-362.866 1162.33,-361.226 1157.83,-360 1026.99,-324.354 989.319,-341.443 854.831,-324 844.628,-322.677 833.974,-321.25 823.358,-319.799"/>
<polygon fill="black" stroke="black" points="823.591,-316.299 813.207,-318.404 822.637,-323.233 823.591,-316.299"/>
</g>
<!-- node183 -->
<g id="node19" class="node"><title>node183</title>
<ellipse fill="none" stroke="black" cx="941.831" cy="-306" rx="77.9931" ry="18"/>
<text text-anchor="middle" x="941.831" y="-302.7" font-family="Times Roman,serif" font-size="12.00">/usr/lib/libicuuc.so</text>
</g>
<!-- node146&#45;&gt;node183 -->
<g id="edge20" class="edge"><title>node146&#45;&gt;node183</title>
<path fill="none" stroke="black" d="M1171.74,-365.341C1167.15,-363.418 1162.39,-361.559 1157.83,-360 1109.48,-343.473 1053.46,-329.615 1010.59,-320.076"/>
<polygon fill="black" stroke="black" points="1011.34,-316.658 1000.82,-317.927 1009.84,-323.494 1011.34,-316.658"/>
</g>
<!-- node184 -->
<g id="node21" class="node"><title>node184</title>
<ellipse fill="none" stroke="black" cx="1122.83" cy="-306" rx="85.1424" ry="18"/>
<text text-anchor="middle" x="1122.83" y="-302.7" font-family="Times Roman,serif" font-size="12.00">/usr/lib/libicui18n.so</text>
</g>
<!-- node146&#45;&gt;node184 -->
<g id="edge22" class="edge"><title>node146&#45;&gt;node184</title>
<path fill="none" stroke="black" d="M1179.65,-359.831C1170.33,-351.001 1158.99,-340.256 1148.9,-330.694"/>
<polygon fill="black" stroke="black" points="1151.14,-328.002 1141.48,-323.665 1146.33,-333.083 1151.14,-328.002"/>
</g>
<!-- node185 -->
<g id="node23" class="node"><title>node185</title>
<ellipse fill="none" stroke="black" cx="1310.83" cy="-306" rx="85.1424" ry="18"/>
<text text-anchor="middle" x="1310.83" y="-302.7" font-family="Times Roman,serif" font-size="12.00">/usr/lib/libicudata.so</text>
</g>
<!-- node146&#45;&gt;node185 -->
<g id="edge24" class="edge"><title>node146&#45;&gt;node185</title>
<path fill="none" stroke="black" d="M1225.94,-360.571C1240.8,-351.019 1259.4,-339.066 1275.39,-328.784"/>
<polygon fill="black" stroke="black" points="1277.45,-331.62 1283.97,-323.269 1273.66,-325.732 1277.45,-331.62"/>
</g>
<!-- node53&#45;&gt;node151 -->
<g id="edge32" class="edge"><title>node53&#45;&gt;node151</title>
<path fill="none" stroke="black" d="M1515.35,-431.616C1543.44,-406.459 1587.83,-358.413 1587.83,-306 1587.83,-306 1587.83,-306 1587.83,-234 1587.83,-178.98 1552.74,-167.161 1502.83,-144 1416.2,-103.797 729.705,-92.5948 560.448,-90.4318"/>
<polygon fill="black" stroke="black" points="560.326,-86.9301 550.283,-90.3049 560.238,-93.9296 560.326,-86.9301"/>
</g>
<!-- node53&#45;&gt;node147 -->
<g id="edge34" class="edge"><title>node53&#45;&gt;node147</title>
<path fill="none" stroke="black" d="M1495.87,-431.762C1499.98,-407.093 1507.35,-362.86 1512.17,-333.973"/>
<polygon fill="black" stroke="black" points="1515.62,-334.529 1513.82,-324.09 1508.72,-333.378 1515.62,-334.529"/>
</g>
<!-- node53&#45;&gt;node146 -->
<g id="edge36" class="edge"><title>node53&#45;&gt;node146</title>
<path fill="none" stroke="black" d="M1462.75,-442.633C1408.63,-429.379 1295.01,-401.554 1236.07,-387.121"/>
<polygon fill="black" stroke="black" points="1236.62,-383.651 1226.07,-384.672 1234.95,-390.45 1236.62,-383.651"/>
</g>
<!-- node99&#45;&gt;node151 -->
<g id="edge40" class="edge"><title>node99&#45;&gt;node151</title>
<path fill="none" stroke="black" d="M1406.97,-503.886C1425.8,-435.813 1487.35,-196.524 1437.83,-144 1407.24,-111.551 728.482,-94.5218 560.282,-90.791"/>
<polygon fill="black" stroke="black" points="560.251,-87.2895 550.176,-90.5693 560.097,-94.2878 560.251,-87.2895"/>
</g>
<!-- node99&#45;&gt;node147 -->
<g id="edge42" class="edge"><title>node99&#45;&gt;node147</title>
<path fill="none" stroke="black" d="M1411.44,-503.955C1431.65,-465.997 1478.65,-377.713 1502.46,-332.993"/>
<polygon fill="black" stroke="black" points="1505.56,-334.617 1507.17,-324.145 1499.38,-331.327 1505.56,-334.617"/>
</g>
<!-- node99&#45;&gt;node146 -->
<g id="edge44" class="edge"><title>node99&#45;&gt;node146</title>
<path fill="none" stroke="black" d="M1376.12,-503.762C1339.67,-477.903 1272.91,-430.546 1232.53,-401.903"/>
<polygon fill="black" stroke="black" points="1234.51,-399.021 1224.33,-396.09 1230.46,-404.73 1234.51,-399.021"/>
</g>
<!-- node99&#45;&gt;node53 -->
<g id="edge46" class="edge"><title>node99&#45;&gt;node53</title>
<path fill="none" stroke="black" d="M1424.79,-503.831C1436,-494.963 1449.65,-484.164 1461.78,-474.572"/>
<polygon fill="black" stroke="black" points="1464.21,-477.112 1469.88,-468.163 1459.86,-471.623 1464.21,-477.112"/>
</g>
<!-- node52&#45;&gt;node151 -->
<g id="edge50" class="edge"><title>node52&#45;&gt;node151</title>
<path fill="none" stroke="black" d="M116.882,-147.563C121.56,-146.247 126.276,-145.025 130.831,-144 259.286,-115.088 415.121,-99.1996 485.338,-93.0395"/>
<polygon fill="black" stroke="black" points="485.797,-96.513 495.459,-92.1673 485.195,-89.5389 485.797,-96.513"/>
</g>
<!-- node59&#45;&gt;node151 -->
<g id="edge54" class="edge"><title>node59&#45;&gt;node151</title>
<path fill="none" stroke="black" d="M209.565,-215.662C219.312,-194.891 238.086,-161.645 264.831,-144 300.76,-120.296 423.2,-102.27 485.608,-94.3771"/>
<polygon fill="black" stroke="black" points="486.316,-97.8161 495.808,-93.1098 485.453,-90.8695 486.316,-97.8161"/>
</g>
<!-- node153 -->
<g id="node44" class="node"><title>node153</title>
<polygon fill="none" stroke="black" points="327.831,-180 273.831,-180 273.831,-144 327.831,-144 327.831,-180"/>
<text text-anchor="middle" x="300.831" y="-158.7" font-family="Times Roman,serif" font-size="12.00">mp</text>
</g>
<!-- node59&#45;&gt;node153 -->
<g id="edge56" class="edge"><title>node59&#45;&gt;node153</title>
<path fill="none" stroke="black" d="M226.813,-215.831C239.124,-206.878 254.142,-195.956 267.425,-186.295"/>
<polygon fill="black" stroke="black" points="269.829,-188.875 275.858,-180.163 265.712,-183.214 269.829,-188.875"/>
</g>
<!-- node153&#45;&gt;node151 -->
<g id="edge58" class="edge"><title>node153&#45;&gt;node151</title>
<path fill="none" stroke="black" d="M327.987,-149.517C332.569,-147.573 337.307,-145.661 341.831,-144 390.933,-125.976 449.113,-109.449 485.997,-99.5505"/>
<polygon fill="black" stroke="black" points="487.047,-102.893 495.811,-96.9387 485.247,-96.1284 487.047,-102.893"/>
</g>
<!-- node66&#45;&gt;node151 -->
<g id="edge62" class="edge"><title>node66&#45;&gt;node151</title>
<path fill="none" stroke="black" d="M334.386,-287.827C361.955,-257.654 419.16,-195.448 468.831,-144 477.968,-134.536 488.134,-124.297 497.159,-115.305"/>
<polygon fill="black" stroke="black" points="499.796,-117.619 504.424,-108.089 494.863,-112.653 499.796,-117.619"/>
</g>
<!-- node66&#45;&gt;node59 -->
<g id="edge72" class="edge"><title>node66&#45;&gt;node59</title>
<path fill="none" stroke="black" d="M288.56,-287.831C273.723,-278.622 255.53,-267.33 239.645,-257.471"/>
<polygon fill="black" stroke="black" points="241.436,-254.463 231.094,-252.163 237.744,-260.41 241.436,-254.463"/>
</g>
<!-- node66&#45;&gt;node153 -->
<g id="edge64" class="edge"><title>node66&#45;&gt;node153</title>
<path fill="none" stroke="black" d="M315.678,-287.762C312.779,-263.201 307.59,-219.247 304.179,-190.354"/>
<polygon fill="black" stroke="black" points="307.615,-189.61 302.967,-180.09 300.664,-190.431 307.615,-189.61"/>
</g>
<!-- node149 -->
<g id="node51" class="node"><title>node149</title>
<polygon fill="none" stroke="black" points="475.831,-252 421.831,-252 421.831,-216 475.831,-216 475.831,-252"/>
<text text-anchor="middle" x="448.831" y="-230.7" font-family="Times Roman,serif" font-size="12.00">hrpc</text>
</g>
<!-- node66&#45;&gt;node149 -->
<g id="edge66" class="edge"><title>node66&#45;&gt;node149</title>
<path fill="none" stroke="black" d="M348.877,-288.937C368.035,-278.407 392.692,-264.855 412.723,-253.846"/>
<polygon fill="black" stroke="black" points="414.486,-256.871 421.564,-248.987 411.114,-250.736 414.486,-256.871"/>
</g>
<!-- node149&#45;&gt;node151 -->
<g id="edge68" class="edge"><title>node149&#45;&gt;node151</title>
<path fill="none" stroke="black" d="M456.37,-215.76C464.155,-197.355 476.951,-168.265 489.831,-144 494.649,-134.925 500.35,-125.274 505.647,-116.679"/>
<polygon fill="black" stroke="black" points="508.632,-118.508 510.966,-108.173 502.696,-114.796 508.632,-118.508"/>
</g>
<!-- node149&#45;&gt;node153 -->
<g id="edge70" class="edge"><title>node149&#45;&gt;node153</title>
<path fill="none" stroke="black" d="M421.686,-220.794C397.977,-209.26 363.367,-192.423 337.255,-179.72"/>
<polygon fill="black" stroke="black" points="338.579,-176.471 328.055,-175.244 335.516,-182.766 338.579,-176.471"/>
</g>
<!-- node55&#45;&gt;node151 -->
<g id="edge76" class="edge"><title>node55&#45;&gt;node151</title>
<path fill="none" stroke="black" d="M163.904,-359.773C156.523,-328.993 145.324,-265.257 163.831,-216 178.787,-176.196 189.851,-164.988 226.831,-144 270.584,-119.169 416.062,-101.134 485.423,-93.7255"/>
<polygon fill="black" stroke="black" points="485.899,-97.1948 495.479,-92.6691 485.168,-90.2331 485.899,-97.1948"/>
</g>
<!-- node55&#45;&gt;node59 -->
<g id="edge80" class="edge"><title>node55&#45;&gt;node59</title>
<path fill="none" stroke="black" d="M173.011,-359.762C178.664,-335.093 188.801,-290.86 195.421,-261.973"/>
<polygon fill="black" stroke="black" points="198.864,-262.619 197.686,-252.09 192.04,-261.055 198.864,-262.619"/>
</g>
<!-- node55&#45;&gt;node153 -->
<g id="edge78" class="edge"><title>node55&#45;&gt;node153</title>
<path fill="none" stroke="black" d="M179.859,-359.955C203.104,-321.917 257.233,-233.343 284.507,-188.713"/>
<polygon fill="black" stroke="black" points="287.515,-190.503 289.743,-180.145 281.542,-186.853 287.515,-190.503"/>
</g>
<!-- node55&#45;&gt;node66 -->
<g id="edge82" class="edge"><title>node55&#45;&gt;node66</title>
<path fill="none" stroke="black" d="M206.43,-359.831C228.156,-349.333 255.482,-336.129 277.633,-325.425"/>
<polygon fill="black" stroke="black" points="279.296,-328.508 286.778,-321.006 276.251,-322.205 279.296,-328.508"/>
</g>
<!-- node54&#45;&gt;node151 -->
<g id="edge88" class="edge"><title>node54&#45;&gt;node151</title>
<path fill="none" stroke="black" d="M734.054,-431.858C736.528,-411.586 736.939,-379.108 718.831,-360 659.412,-297.298 583.675,-389.906 527.831,-324 478.274,-265.513 499.043,-166.147 513.399,-117.917"/>
<polygon fill="black" stroke="black" points="516.805,-118.75 516.426,-108.162 510.12,-116.676 516.805,-118.75"/>
</g>
<!-- node54&#45;&gt;node146 -->
<g id="edge94" class="edge"><title>node54&#45;&gt;node146</title>
<path fill="none" stroke="black" d="M763.965,-446.619C831.963,-439.426 992.048,-421.18 1124.83,-396 1136.89,-393.714 1149.93,-390.719 1161.66,-387.831"/>
<polygon fill="black" stroke="black" points="1162.72,-391.172 1171.57,-385.34 1161.01,-384.383 1162.72,-391.172"/>
</g>
<!-- node54&#45;&gt;node59 -->
<g id="edge96" class="edge"><title>node54&#45;&gt;node59</title>
<path fill="none" stroke="black" d="M697.603,-448.369C614.968,-443.847 402.417,-429.228 340.831,-396 282.652,-364.61 238.062,-298.308 216.372,-260.989"/>
<polygon fill="black" stroke="black" points="219.34,-259.129 211.356,-252.164 213.255,-262.588 219.34,-259.129"/>
</g>
<!-- node54&#45;&gt;node153 -->
<g id="edge90" class="edge"><title>node54&#45;&gt;node153</title>
<path fill="none" stroke="black" d="M697.716,-448.186C625.638,-443.643 457.424,-429.64 412.831,-396 403.827,-389.207 340.32,-249.729 313.133,-189.406"/>
<polygon fill="black" stroke="black" points="316.242,-187.786 308.946,-180.104 309.859,-190.659 316.242,-187.786"/>
</g>
<!-- node54&#45;&gt;node66 -->
<g id="edge98" class="edge"><title>node54&#45;&gt;node66</title>
<path fill="none" stroke="black" d="M697.609,-448.222C620.627,-443.578 432.587,-429.083 379.831,-396 356.38,-381.293 339.521,-354.119 329.358,-333.463"/>
<polygon fill="black" stroke="black" points="332.44,-331.792 325.034,-324.216 326.099,-334.757 332.44,-331.792"/>
</g>
<!-- node54&#45;&gt;node149 -->
<g id="edge92" class="edge"><title>node54&#45;&gt;node149</title>
<path fill="none" stroke="black" d="M728.344,-431.706C724.51,-410.977 715.105,-377.77 692.831,-360 621.204,-302.855 562.251,-380.138 489.831,-324 470.418,-308.951 459.898,-282.615 454.394,-262.307"/>
<polygon fill="black" stroke="black" points="457.729,-261.21 451.953,-252.328 450.93,-262.873 457.729,-261.21"/>
</g>
<!-- node54&#45;&gt;node55 -->
<g id="edge100" class="edge"><title>node54&#45;&gt;node55</title>
<path fill="none" stroke="black" d="M697.542,-448.604C616.447,-444.732 402.514,-431.688 227.831,-396 226.563,-395.741 225.282,-395.466 223.993,-395.177"/>
<polygon fill="black" stroke="black" points="224.573,-391.716 214.027,-392.733 222.905,-398.514 224.573,-391.716"/>
</g>
<!-- node176 -->
<g id="node64" class="node"><title>node176</title>
<ellipse fill="none" stroke="black" cx="552.831" cy="-378" rx="130.789" ry="18"/>
<text text-anchor="middle" x="552.831" y="-374.7" font-family="Times Roman,serif" font-size="12.00">/usr/lib/x86_64&#45;linux&#45;gnu/libz.so</text>
</g>
<!-- node54&#45;&gt;node176 -->
<g id="edge86" class="edge"><title>node54&#45;&gt;node176</title>
<path fill="none" stroke="black" d="M697.768,-436.626C671.64,-426.058 634.697,-411.114 604.647,-398.959"/>
<polygon fill="black" stroke="black" points="605.739,-395.625 595.156,-395.12 603.114,-402.115 605.739,-395.625"/>
</g>
<!-- node177 -->
<g id="node73" class="node"><title>node177</title>
<ellipse fill="none" stroke="black" cx="1044.83" cy="-378" rx="70.8437" ry="18"/>
<text text-anchor="middle" x="1044.83" y="-374.7" font-family="Times Roman,serif" font-size="12.00">/usr/lib/libbfd.so</text>
</g>
<!-- node54&#45;&gt;node177 -->
<g id="edge102" class="edge"><title>node54&#45;&gt;node177</title>
<path fill="none" stroke="black" d="M763.841,-442.431C815.512,-430.583 916.375,-407.455 982.148,-392.373"/>
<polygon fill="black" stroke="black" points="983.024,-395.763 991.989,-390.117 981.459,-388.94 983.024,-395.763"/>
</g>
<!-- node178 -->
<g id="node75" class="node"><title>node178</title>
<ellipse fill="none" stroke="black" cx="866.831" cy="-378" rx="89.0421" ry="18"/>
<text text-anchor="middle" x="866.831" y="-374.7" font-family="Times Roman,serif" font-size="12.00">/usr/lib/libiberty_pic.a</text>
</g>
<!-- node54&#45;&gt;node178 -->
<g id="edge104" class="edge"><title>node54&#45;&gt;node178</title>
<path fill="none" stroke="black" d="M764.101,-432.387C782.702,-422.539 806.042,-410.183 825.773,-399.737"/>
<polygon fill="black" stroke="black" points="827.642,-402.708 834.842,-394.936 824.367,-396.521 827.642,-402.708"/>
</g>
<!-- node64&#45;&gt;node151 -->
<g id="edge108" class="edge"><title>node64&#45;&gt;node151</title>
<path fill="none" stroke="black" d="M1112.14,-503.969C1122.75,-466.17 1143.99,-380.437 1124.83,-360 1039.84,-269.352 659.865,-406.37 566.831,-324 536.52,-297.163 526.834,-174.401 523.957,-118.218"/>
<polygon fill="black" stroke="black" points="527.453,-118.051 523.481,-108.228 520.461,-118.383 527.453,-118.051"/>
</g>
<!-- node64&#45;&gt;node147 -->
<g id="edge114" class="edge"><title>node64&#45;&gt;node147</title>
<path fill="none" stroke="black" d="M1141.08,-503.955C1217.74,-463.57 1402.53,-366.217 1480.82,-324.973"/>
<polygon fill="black" stroke="black" points="1482.61,-327.987 1489.82,-320.229 1479.34,-321.794 1482.61,-327.987"/>
</g>
<!-- node64&#45;&gt;node146 -->
<g id="edge116" class="edge"><title>node64&#45;&gt;node146</title>
<path fill="none" stroke="black" d="M1115.23,-503.825C1124.13,-485.217 1139.04,-455.741 1154.83,-432 1161.12,-422.537 1168.73,-412.746 1175.83,-404.142"/>
<polygon fill="black" stroke="black" points="1178.66,-406.21 1182.42,-396.306 1173.31,-401.702 1178.66,-406.21"/>
</g>
<!-- node64&#45;&gt;node53 -->
<g id="edge118" class="edge"><title>node64&#45;&gt;node53</title>
<path fill="none" stroke="black" d="M1141.09,-515.61C1212.37,-502.314 1376.34,-471.729 1452.54,-457.515"/>
<polygon fill="black" stroke="black" points="1453.51,-460.896 1462.69,-455.621 1452.22,-454.014 1453.51,-460.896"/>
</g>
<!-- node64&#45;&gt;node66 -->
<g id="edge110" class="edge"><title>node64&#45;&gt;node66</title>
<path fill="none" stroke="black" d="M1072.47,-521.311C937.809,-517.893 448.175,-498.497 340.831,-396 324.32,-380.234 319.037,-354.385 317.612,-334.425"/>
<polygon fill="black" stroke="black" points="321.104,-334.165 317.175,-324.326 314.111,-334.468 321.104,-334.165"/>
</g>
<!-- node64&#45;&gt;node54 -->
<g id="edge112" class="edge"><title>node64&#45;&gt;node54</title>
<path fill="none" stroke="black" d="M1072.8,-515.483C1004.26,-502.358 849.69,-472.76 774.101,-458.286"/>
<polygon fill="black" stroke="black" points="774.456,-454.79 763.976,-456.347 773.139,-461.665 774.456,-454.79"/>
</g>
<!-- node63&#45;&gt;node151 -->
<g id="edge122" class="edge"><title>node63&#45;&gt;node151</title>
<path fill="none" stroke="black" d="M1598.95,-518.807C1752.02,-505.485 2313.83,-451.578 2313.83,-378 2313.83,-378 2313.83,-378 2313.83,-234 2313.83,-206.912 2342.08,-193.284 1896.83,-144 1626.99,-114.132 752.021,-94.7109 560.219,-90.7506"/>
<polygon fill="black" stroke="black" points="560.151,-87.2486 550.082,-90.5426 560.008,-94.2471 560.151,-87.2486"/>
</g>
<!-- node63&#45;&gt;node147 -->
<g id="edge124" class="edge"><title>node63&#45;&gt;node147</title>
<path fill="none" stroke="black" d="M1561.12,-503.92C1561.11,-485.639 1560.26,-456.644 1555.83,-432 1549.6,-397.335 1536.78,-358.841 1527.54,-333.633"/>
<polygon fill="black" stroke="black" points="1530.72,-332.159 1523.94,-324.015 1524.16,-334.607 1530.72,-332.159"/>
</g>
<!-- node63&#45;&gt;node146 -->
<g id="edge126" class="edge"><title>node63&#45;&gt;node146</title>
<path fill="none" stroke="black" d="M1560.32,-503.779C1558.7,-483.118 1552.75,-449.975 1531.83,-432 1487.98,-394.311 1313.65,-382.636 1236.22,-379.267"/>
<polygon fill="black" stroke="black" points="1236.1,-375.759 1225.97,-378.845 1235.81,-382.753 1236.1,-375.759"/>
</g>
<!-- node63&#45;&gt;node53 -->
<g id="edge128" class="edge"><title>node63&#45;&gt;node53</title>
<path fill="none" stroke="black" d="M1543.67,-503.831C1535.68,-495.369 1526.03,-485.149 1517.29,-475.897"/>
<polygon fill="black" stroke="black" points="1519.63,-473.28 1510.22,-468.413 1514.54,-478.087 1519.63,-473.28"/>
</g>
<!-- node156 -->
<g id="node91" class="node"><title>node156</title>
<polygon fill="none" stroke="black" points="2004.83,-468 1910.83,-468 1910.83,-432 2004.83,-432 2004.83,-468"/>
<text text-anchor="middle" x="1957.83" y="-446.7" font-family="Times Roman,serif" font-size="12.00">securesocket</text>
</g>
<!-- node63&#45;&gt;node156 -->
<g id="edge130" class="edge"><title>node63&#45;&gt;node156</title>
<path fill="none" stroke="black" d="M1598.9,-515.096C1668.95,-502.392 1818.62,-475.248 1900.83,-460.338"/>
<polygon fill="black" stroke="black" points="1901.54,-463.766 1910.76,-458.538 1900.29,-456.878 1901.54,-463.766"/>
</g>
<!-- node156&#45;&gt;node151 -->
<g id="edge132" class="edge"><title>node156&#45;&gt;node151</title>
<path fill="none" stroke="black" d="M2005.08,-447.743C2080.13,-443.161 2221.68,-430.129 2256.83,-396 2286.16,-367.52 2275.83,-346.882 2275.83,-306 2275.83,-306 2275.83,-306 2275.83,-234 2275.83,-144.769 814.094,-98.427 560.2,-91.0506"/>
<polygon fill="black" stroke="black" points="560.112,-87.5467 550.015,-90.7569 559.91,-94.5438 560.112,-87.5467"/>
</g>
<!-- node191 -->
<g id="node94" class="node"><title>node191</title>
<ellipse fill="none" stroke="black" cx="2110.83" cy="-378" rx="137.138" ry="18"/>
<text text-anchor="middle" x="2110.83" y="-374.7" font-family="Times Roman,serif" font-size="12.00">/usr/lib/x86_64&#45;linux&#45;gnu/libssl.so</text>
</g>
<!-- node156&#45;&gt;node191 -->
<g id="edge134" class="edge"><title>node156&#45;&gt;node191</title>
<path fill="none" stroke="black" d="M1996.44,-431.831C2017.2,-422.062 2042.94,-409.95 2064.74,-399.689"/>
<polygon fill="black" stroke="black" points="2066.26,-402.843 2073.82,-395.418 2063.28,-396.509 2066.26,-402.843"/>
</g>
<!-- node192 -->
<g id="node96" class="node"><title>node192</title>
<ellipse fill="none" stroke="black" cx="1804.83" cy="-378" rx="150.937" ry="18"/>
<text text-anchor="middle" x="1804.83" y="-374.7" font-family="Times Roman,serif" font-size="12.00">/usr/lib/x86_64&#45;linux&#45;gnu/libcrypto.so</text>
</g>
<!-- node156&#45;&gt;node192 -->
<g id="edge136" class="edge"><title>node156&#45;&gt;node192</title>
<path fill="none" stroke="black" d="M1919.22,-431.831C1898.54,-422.099 1872.92,-410.04 1851.17,-399.804"/>
<polygon fill="black" stroke="black" points="1852.65,-396.632 1842.11,-395.541 1849.66,-402.966 1852.65,-396.632"/>
</g>
<!-- node100&#45;&gt;node151 -->
<g id="edge140" class="edge"><title>node100&#45;&gt;node151</title>
<path fill="none" stroke="black" d="M1277.56,-575.818C1307.72,-524.298 1391.92,-377.612 1404.83,-324 1408.58,-308.444 1414.83,-300.491 1404.83,-288 1296.13,-152.196 714.323,-103.118 560.277,-92.3994"/>
<polygon fill="black" stroke="black" points="560.152,-88.8828 549.937,-91.6933 559.676,-95.8666 560.152,-88.8828"/>
</g>
<!-- node100&#45;&gt;node147 -->
<g id="edge142" class="edge"><title>node100&#45;&gt;node147</title>
<path fill="none" stroke="black" d="M1286.91,-575.883C1297.88,-565.683 1311.5,-552.515 1322.83,-540 1391.22,-464.461 1397.85,-436.793 1464.83,-360 1473.25,-350.345 1482.89,-340.131 1491.55,-331.215"/>
<polygon fill="black" stroke="black" points="1494.06,-333.662 1498.56,-324.072 1489.06,-328.76 1494.06,-333.662"/>
</g>
<!-- node100&#45;&gt;node146 -->
<g id="edge144" class="edge"><title>node100&#45;&gt;node146</title>
<path fill="none" stroke="black" d="M1261.15,-575.955C1249.28,-538.235 1221.76,-450.819 1207.6,-405.84"/>
<polygon fill="black" stroke="black" points="1210.89,-404.633 1204.54,-396.145 1204.21,-406.735 1210.89,-404.633"/>
</g>
<!-- node100&#45;&gt;node53 -->
<g id="edge146" class="edge"><title>node100&#45;&gt;node53</title>
<path fill="none" stroke="black" d="M1295.1,-591.205C1331.51,-586.335 1395.17,-573.387 1437.83,-540 1458.53,-523.803 1473.3,-497.481 1482.29,-477.477"/>
<polygon fill="black" stroke="black" points="1485.53,-478.807 1486.24,-468.236 1479.09,-476.056 1485.53,-478.807"/>
</g>
<!-- node100&#45;&gt;node99 -->
<g id="edge150" class="edge"><title>node100&#45;&gt;node99</title>
<path fill="none" stroke="black" d="M1295.13,-578.906C1315.56,-568.01 1343.33,-553.203 1365.41,-541.424"/>
<polygon fill="black" stroke="black" points="1367.31,-544.376 1374.49,-536.582 1364.02,-538.199 1367.31,-544.376"/>
</g>
<!-- node100&#45;&gt;node177 -->
<g id="edge154" class="edge"><title>node100&#45;&gt;node177</title>
<path fill="none" stroke="black" d="M1238.63,-590.416C1188.41,-583.428 1086.63,-566.326 1063.83,-540 1031.74,-502.949 1034.36,-441.939 1039.42,-406.309"/>
<polygon fill="black" stroke="black" points="1042.93,-406.545 1041.04,-396.121 1036.01,-405.45 1042.93,-406.545"/>
</g>
<!-- node100&#45;&gt;node178 -->
<g id="edge156" class="edge"><title>node100&#45;&gt;node178</title>
<path fill="none" stroke="black" d="M1238.64,-591.96C1194.03,-587.742 1105.49,-575.28 1039.83,-540 975.236,-505.291 916.737,-440.399 887.151,-404.168"/>
<polygon fill="black" stroke="black" points="889.602,-401.631 880.605,-396.037 884.15,-406.021 889.602,-401.631"/>
</g>
<!-- node100&#45;&gt;node64 -->
<g id="edge152" class="edge"><title>node100&#45;&gt;node64</title>
<path fill="none" stroke="black" d="M1238.59,-581.294C1214.09,-570.267 1178.24,-554.132 1150.11,-541.476"/>
<polygon fill="black" stroke="black" points="1151.45,-538.242 1140.9,-537.33 1148.58,-544.625 1151.45,-538.242"/>
</g>
<!-- node100&#45;&gt;node63 -->
<g id="edge148" class="edge"><title>node100&#45;&gt;node63</title>
<path fill="none" stroke="black" d="M1295.02,-587.096C1345.26,-574.793 1450.79,-548.949 1512.7,-533.787"/>
<polygon fill="black" stroke="black" points="1513.74,-537.136 1522.62,-531.358 1512.07,-530.337 1513.74,-537.136"/>
</g>
</g>
</svg>
