<?xml version="1.0" encoding="UTF-8" standalone="no"?>
<!DOCTYPE svg PUBLIC "-//W3C//DTD SVG 1.1//EN"
 "http://www.w3.org/Graphics/SVG/1.1/DTD/svg11.dtd">
<!-- Generated by graphviz version 2.26.3 (20100126.1600)
 -->
<!-- Title: GG Pages: 1 -->
<svg width="310pt" height="260pt"
 viewBox="0.00 0.00 310.00 260.00" xmlns="http://www.w3.org/2000/svg" xmlns:xlink="http://www.w3.org/1999/xlink">
<g id="graph1" class="graph" transform="scale(1 1) rotate(0) translate(4 256)">
<title>GG</title>
<polygon fill="white" stroke="white" points="-4,5 -4,-256 307,-256 307,5 -4,5"/>
<!-- node42 -->
<g id="node1" class="node"><title>node42</title>
<polygon fill="none" stroke="black" points="216.933,-239.562 162,-252 107.067,-239.562 107.118,-219.438 216.882,-219.438 216.933,-239.562"/>
<text text-anchor="middle" x="162" y="-230.7" font-family="Times Roman,serif" font-size="12.00">keypatch</text>
</g>
<!-- node151 -->
<g id="node2" class="node"><title>node151</title>
<polygon fill="none" stroke="black" points="189,-108 135,-108 135,-72 189,-72 189,-108"/>
<text text-anchor="middle" x="162" y="-86.7" font-family="Times Roman,serif" font-size="12.00">jlib</text>
</g>
<!-- node42&#45;&gt;node151 -->
<g id="edge2" class="edge"><title>node42&#45;&gt;node151</title>
<path fill="none" stroke="black" d="M148.612,-219.196C140.323,-208.99 130.441,-194.666 126,-180 121.363,-164.687 121.363,-159.313 126,-144 128.956,-134.236 134.325,-124.623 140.03,-116.276"/>
<polygon fill="black" stroke="black" points="142.941,-118.224 146.01,-108.083 137.287,-114.097 142.941,-118.224"/>
</g>
<!-- node150 -->
<g id="node12" class="node"><title>node150</title>
<polygon fill="none" stroke="black" points="189,-180 135,-180 135,-144 189,-144 189,-180"/>
<text text-anchor="middle" x="162" y="-158.7" font-family="Times Roman,serif" font-size="12.00">jhtree</text>
</g>
<!-- node42&#45;&gt;node150 -->
<g id="edge12" class="edge"><title>node42&#45;&gt;node150</title>
<path fill="none" stroke="black" d="M162,-219.43C162,-211.101 162,-200.366 162,-190.436"/>
<polygon fill="black" stroke="black" points="165.5,-190.128 162,-180.128 158.5,-190.128 165.5,-190.128"/>
</g>
<!-- node153 -->
<g id="node15" class="node"><title>node153</title>
<polygon fill="none" stroke="black" points="261,-180 207,-180 207,-144 261,-144 261,-180"/>
<text text-anchor="middle" x="234" y="-158.7" font-family="Times Roman,serif" font-size="12.00">mp</text>
</g>
<!-- node42&#45;&gt;node153 -->
<g id="edge16" class="edge"><title>node42&#45;&gt;node153</title>
<path fill="none" stroke="black" d="M176.57,-219.43C185.785,-210.215 197.945,-198.055 208.702,-187.298"/>
<polygon fill="black" stroke="black" points="211.276,-189.674 215.872,-180.128 206.326,-184.724 211.276,-189.674"/>
</g>
<!-- node152 -->
<g id="node4" class="node"><title>node152</title>
<polygon fill="none" stroke="black" points="40,-36 0.0563759,-18 40,-3.55271e-15 79.9436,-18 40,-36"/>
<text text-anchor="middle" x="40" y="-14.7" font-family="Times Roman,serif" font-size="12.00">lzma</text>
</g>
<!-- node151&#45;&gt;node152 -->
<g id="edge4" class="edge"><title>node151&#45;&gt;node152</title>
<path fill="none" stroke="black" d="M134.924,-74.0209C114.47,-61.9494 86.5536,-45.4743 66.293,-33.5172"/>
<polygon fill="black" stroke="black" points="67.968,-30.4417 57.577,-28.3733 64.4102,-36.4701 67.968,-30.4417"/>
</g>
<!-- node187 -->
<g id="node6" class="node"><title>node187</title>
<ellipse fill="none" stroke="black" cx="125" cy="-18" rx="27" ry="18"/>
<text text-anchor="middle" x="125" y="-14.7" font-family="Times Roman,serif" font-size="12.00">dl</text>
</g>
<!-- node151&#45;&gt;node187 -->
<g id="edge6" class="edge"><title>node151&#45;&gt;node187</title>
<path fill="none" stroke="black" d="M152.663,-71.8314C148.405,-63.5451 143.28,-53.5727 138.605,-44.4748"/>
<polygon fill="black" stroke="black" points="141.635,-42.7123 133.951,-35.4177 135.408,-45.9118 141.635,-42.7123"/>
</g>
<!-- node179 -->
<g id="node8" class="node"><title>node179</title>
<ellipse fill="none" stroke="black" cx="200" cy="-18" rx="30.0465" ry="18"/>
<text text-anchor="middle" x="200" y="-14.7" font-family="Times Roman,serif" font-size="12.00">crypt</text>
</g>
<!-- node151&#45;&gt;node179 -->
<g id="edge8" class="edge"><title>node151&#45;&gt;node179</title>
<path fill="none" stroke="black" d="M171.589,-71.8314C175.962,-63.5451 181.226,-53.5727 186.027,-44.4748"/>
<polygon fill="black" stroke="black" points="189.235,-45.8952 190.807,-35.4177 183.044,-42.6279 189.235,-45.8952"/>
</g>
<!-- node188 -->
<g id="node10" class="node"><title>node188</title>
<ellipse fill="none" stroke="black" cx="275" cy="-18" rx="27" ry="18"/>
<text text-anchor="middle" x="275" y="-14.7" font-family="Times Roman,serif" font-size="12.00">rt</text>
</g>
<!-- node151&#45;&gt;node188 -->
<g id="edge10" class="edge"><title>node151&#45;&gt;node188</title>
<path fill="none" stroke="black" d="M189.066,-72.7542C206.414,-61.7009 228.898,-47.375 246.516,-36.1494"/>
<polygon fill="black" stroke="black" points="248.679,-38.9209 255.232,-30.5955 244.918,-33.0174 248.679,-38.9209"/>
</g>
<!-- node150&#45;&gt;node151 -->
<g id="edge14" class="edge"><title>node150&#45;&gt;node151</title>
<path fill="none" stroke="black" d="M162,-143.831C162,-136.131 162,-126.974 162,-118.417"/>
<polygon fill="black" stroke="black" points="165.5,-118.413 162,-108.413 158.5,-118.413 165.5,-118.413"/>
</g>
<!-- node153&#45;&gt;node151 -->
<g id="edge18" class="edge"><title>node153&#45;&gt;node151</title>
<path fill="none" stroke="black" d="M215.831,-143.831C207.285,-135.285 196.944,-124.944 187.62,-115.62"/>
<polygon fill="black" stroke="black" points="189.959,-113.009 180.413,-108.413 185.009,-117.959 189.959,-113.009"/>
</g>
</g>
</svg>
