<?xml version="1.0" encoding="UTF-8" standalone="no"?>
<!DOCTYPE svg PUBLIC "-//W3C//DTD SVG 1.1//EN"
 "http://www.w3.org/Graphics/SVG/1.1/DTD/svg11.dtd">
<!-- Generated by graphviz version 2.26.3 (20100126.1600)
 -->
<!-- Title: GG Pages: 1 -->
<svg width="3188pt" height="764pt"
 viewBox="0.00 0.00 3187.61 764.00" xmlns="http://www.w3.org/2000/svg" xmlns:xlink="http://www.w3.org/1999/xlink">
<g id="graph1" class="graph" transform="scale(1 1) rotate(0) translate(4 760)">
<title>GG</title>
<polygon fill="white" stroke="white" points="-4,5 -4,-760 3184.61,-760 3184.61,5 -4,5"/>
<!-- node126 -->
<g id="node1" class="node"><title>node126</title>
<polygon fill="none" stroke="black" points="754,-756 620,-756 620,-720 754,-720 754,-756"/>
<text text-anchor="middle" x="687" y="-734.7" font-family="Times Roman,serif" font-size="12.00">ws_packageprocess</text>
</g>
<!-- node151 -->
<g id="node2" class="node"><title>node151</title>
<polygon fill="none" stroke="black" points="1999,-108 1945,-108 1945,-72 1999,-72 1999,-108"/>
<text text-anchor="middle" x="1972" y="-86.7" font-family="Times Roman,serif" font-size="12.00">jlib</text>
</g>
<!-- node126&#45;&gt;node151 -->
<g id="edge2" class="edge"><title>node126&#45;&gt;node151</title>
<path fill="none" stroke="black" d="M619.877,-730.987C447.01,-712.025 0,-656.912 0,-594 0,-594 0,-594 0,-234 0,-189.476 6.56396,-168.103 44,-144 85.2638,-117.432 1668.68,-94.227 1934.36,-90.5165"/>
<polygon fill="black" stroke="black" points="1934.69,-94.0124 1944.64,-90.3735 1934.59,-87.013 1934.69,-94.0124"/>
</g>
<!-- node160 -->
<g id="node12" class="node"><title>node160</title>
<polygon fill="none" stroke="black" points="521,-468 467,-468 467,-432 521,-432 521,-468"/>
<text text-anchor="middle" x="494" y="-446.7" font-family="Times Roman,serif" font-size="12.00">xmllib</text>
</g>
<!-- node126&#45;&gt;node160 -->
<g id="edge12" class="edge"><title>node126&#45;&gt;node160</title>
<path fill="none" stroke="black" d="M668.057,-719.594C657.9,-709.417 645.376,-696.361 635,-684 584.077,-623.331 568.34,-609.31 530,-540 518.934,-519.996 509.476,-495.88 503.034,-477.648"/>
<polygon fill="black" stroke="black" points="506.342,-476.503 499.775,-468.188 499.724,-478.783 506.342,-476.503"/>
</g>
<!-- node110 -->
<g id="node21" class="node"><title>node110</title>
<polygon fill="none" stroke="black" points="601,-540 539,-540 539,-504 601,-504 601,-540"/>
<text text-anchor="middle" x="570" y="-518.7" font-family="Times Roman,serif" font-size="12.00">esphttp</text>
</g>
<!-- node126&#45;&gt;node110 -->
<g id="edge22" class="edge"><title>node126&#45;&gt;node110</title>
<path fill="none" stroke="black" d="M677.226,-719.955C656.665,-681.997 608.844,-593.713 584.621,-548.993"/>
<polygon fill="black" stroke="black" points="587.669,-547.271 579.829,-540.145 581.514,-550.605 587.669,-547.271"/>
</g>
<!-- node156 -->
<g id="node28" class="node"><title>node156</title>
<polygon fill="none" stroke="black" points="2892,-684 2798,-684 2798,-648 2892,-648 2892,-684"/>
<text text-anchor="middle" x="2845" y="-662.7" font-family="Times Roman,serif" font-size="12.00">securesocket</text>
</g>
<!-- node126&#45;&gt;node156 -->
<g id="edge34" class="edge"><title>node126&#45;&gt;node156</title>
<path fill="none" stroke="black" d="M754.25,-735.756C1079.3,-724.911 2484.31,-678.034 2787.28,-667.926"/>
<polygon fill="black" stroke="black" points="2787.71,-671.413 2797.59,-667.582 2787.48,-664.417 2787.71,-671.413"/>
</g>
<!-- node66 -->
<g id="node35" class="node"><title>node66</title>
<polygon fill="none" stroke="black" points="1087,-324 1025,-324 1025,-288 1087,-288 1087,-324"/>
<text text-anchor="middle" x="1056" y="-302.7" font-family="Times Roman,serif" font-size="12.00">dalibase</text>
</g>
<!-- node126&#45;&gt;node66 -->
<g id="edge42" class="edge"><title>node126&#45;&gt;node66</title>
<path fill="none" stroke="black" d="M699.368,-719.817C716.132,-693.355 744,-642.128 744,-594 744,-594 744,-594 744,-450 744,-391.839 787.991,-387.942 839,-360 895.227,-329.2 969.21,-315.666 1014.64,-309.939"/>
<polygon fill="black" stroke="black" points="1015.2,-313.397 1024.72,-308.738 1014.38,-306.446 1015.2,-313.397"/>
</g>
<!-- node119 -->
<g id="node49" class="node"><title>node119</title>
<polygon fill="none" stroke="black" points="923,-684 869,-684 869,-648 923,-648 923,-684"/>
<text text-anchor="middle" x="896" y="-662.7" font-family="Times Roman,serif" font-size="12.00">ws_fs</text>
</g>
<!-- node126&#45;&gt;node119 -->
<g id="edge62" class="edge"><title>node126&#45;&gt;node119</title>
<path fill="none" stroke="black" d="M739.47,-719.924C776.728,-707.089 825.832,-690.173 859.031,-678.736"/>
<polygon fill="black" stroke="black" points="860.478,-681.939 868.792,-675.373 858.198,-675.321 860.478,-681.939"/>
</g>
<!-- node152 -->
<g id="node4" class="node"><title>node152</title>
<polygon fill="none" stroke="black" points="1850,-36 1810.06,-18 1850,-3.55271e-15 1889.94,-18 1850,-36"/>
<text text-anchor="middle" x="1850" y="-14.7" font-family="Times Roman,serif" font-size="12.00">lzma</text>
</g>
<!-- node151&#45;&gt;node152 -->
<g id="edge4" class="edge"><title>node151&#45;&gt;node152</title>
<path fill="none" stroke="black" d="M1944.92,-74.0209C1924.47,-61.9494 1896.55,-45.4743 1876.29,-33.5172"/>
<polygon fill="black" stroke="black" points="1877.97,-30.4417 1867.58,-28.3733 1874.41,-36.4701 1877.97,-30.4417"/>
</g>
<!-- node187 -->
<g id="node6" class="node"><title>node187</title>
<ellipse fill="none" stroke="black" cx="1935" cy="-18" rx="27" ry="18"/>
<text text-anchor="middle" x="1935" y="-14.7" font-family="Times Roman,serif" font-size="12.00">dl</text>
</g>
<!-- node151&#45;&gt;node187 -->
<g id="edge6" class="edge"><title>node151&#45;&gt;node187</title>
<path fill="none" stroke="black" d="M1962.66,-71.8314C1958.41,-63.5451 1953.28,-53.5727 1948.61,-44.4748"/>
<polygon fill="black" stroke="black" points="1951.63,-42.7123 1943.95,-35.4177 1945.41,-45.9118 1951.63,-42.7123"/>
</g>
<!-- node179 -->
<g id="node8" class="node"><title>node179</title>
<ellipse fill="none" stroke="black" cx="2010" cy="-18" rx="30.0465" ry="18"/>
<text text-anchor="middle" x="2010" y="-14.7" font-family="Times Roman,serif" font-size="12.00">crypt</text>
</g>
<!-- node151&#45;&gt;node179 -->
<g id="edge8" class="edge"><title>node151&#45;&gt;node179</title>
<path fill="none" stroke="black" d="M1981.59,-71.8314C1985.96,-63.5451 1991.23,-53.5727 1996.03,-44.4748"/>
<polygon fill="black" stroke="black" points="1999.24,-45.8952 2000.81,-35.4177 1993.04,-42.6279 1999.24,-45.8952"/>
</g>
<!-- node188 -->
<g id="node10" class="node"><title>node188</title>
<ellipse fill="none" stroke="black" cx="2085" cy="-18" rx="27" ry="18"/>
<text text-anchor="middle" x="2085" y="-14.7" font-family="Times Roman,serif" font-size="12.00">rt</text>
</g>
<!-- node151&#45;&gt;node188 -->
<g id="edge10" class="edge"><title>node151&#45;&gt;node188</title>
<path fill="none" stroke="black" d="M1999.07,-72.7542C2016.41,-61.7009 2038.9,-47.375 2056.52,-36.1494"/>
<polygon fill="black" stroke="black" points="2058.68,-38.9209 2065.23,-30.5955 2054.92,-33.0174 2058.68,-38.9209"/>
</g>
<!-- node160&#45;&gt;node151 -->
<g id="edge20" class="edge"><title>node160&#45;&gt;node151</title>
<path fill="none" stroke="black" d="M466.938,-446.639C415.909,-439.748 308.313,-422.412 283,-396 254.713,-366.485 264,-346.882 264,-306 264,-306 264,-306 264,-234 264,-147.136 1685.21,-98.9239 1934.8,-91.1267"/>
<polygon fill="black" stroke="black" points="1934.94,-94.6242 1944.83,-90.8157 1934.72,-87.6276 1934.94,-94.6242"/>
</g>
<!-- node180 -->
<g id="node14" class="node"><title>node180</title>
<ellipse fill="none" stroke="black" cx="151" cy="-378" rx="85.1424" ry="18"/>
<text text-anchor="middle" x="151" y="-374.7" font-family="Times Roman,serif" font-size="12.00">/usr/lib/libxalan&#45;c.so</text>
</g>
<!-- node160&#45;&gt;node180 -->
<g id="edge14" class="edge"><title>node160&#45;&gt;node180</title>
<path fill="none" stroke="black" d="M466.799,-444.29C414.255,-433.26 297.3,-408.71 221.412,-392.78"/>
<polygon fill="black" stroke="black" points="221.954,-389.318 211.448,-390.689 220.515,-396.169 221.954,-389.318"/>
</g>
<!-- node181 -->
<g id="node16" class="node"><title>node181</title>
<ellipse fill="none" stroke="black" cx="385" cy="-378" rx="93.0912" ry="18"/>
<text text-anchor="middle" x="385" y="-374.7" font-family="Times Roman,serif" font-size="12.00">/usr/lib/libxalanMsg.so</text>
</g>
<!-- node160&#45;&gt;node181 -->
<g id="edge16" class="edge"><title>node160&#45;&gt;node181</title>
<path fill="none" stroke="black" d="M466.776,-432.017C452.649,-422.686 435.228,-411.178 420.101,-401.186"/>
<polygon fill="black" stroke="black" points="421.774,-398.097 411.501,-395.505 417.916,-403.937 421.774,-398.097"/>
</g>
<!-- node182 -->
<g id="node18" class="node"><title>node182</title>
<ellipse fill="none" stroke="black" cx="587" cy="-378" rx="90.9919" ry="18"/>
<text text-anchor="middle" x="587" y="-374.7" font-family="Times Roman,serif" font-size="12.00">/usr/lib/libxerces&#45;c.so</text>
</g>
<!-- node160&#45;&gt;node182 -->
<g id="edge18" class="edge"><title>node160&#45;&gt;node182</title>
<path fill="none" stroke="black" d="M517.468,-431.831C529.209,-422.741 543.572,-411.622 556.189,-401.854"/>
<polygon fill="black" stroke="black" points="558.418,-404.554 564.183,-395.665 554.133,-399.019 558.418,-404.554"/>
</g>
<!-- node110&#45;&gt;node151 -->
<g id="edge30" class="edge"><title>node110&#45;&gt;node151</title>
<path fill="none" stroke="black" d="M538.707,-520.341C424.67,-513.457 38,-482.416 38,-378 38,-378 38,-378 38,-234 38,-37.0073 276.429,-167.627 472,-144 767.934,-108.248 1732.92,-93.2698 1934.77,-90.489"/>
<polygon fill="black" stroke="black" points="1934.91,-93.9875 1944.87,-90.3514 1934.82,-86.9882 1934.91,-93.9875"/>
</g>
<!-- node110&#45;&gt;node160 -->
<g id="edge32" class="edge"><title>node110&#45;&gt;node160</title>
<path fill="none" stroke="black" d="M550.822,-503.831C541.641,-495.134 530.499,-484.578 520.522,-475.127"/>
<polygon fill="black" stroke="black" points="522.839,-472.499 513.172,-468.163 518.024,-477.581 522.839,-472.499"/>
</g>
<!-- node110&#45;&gt;node180 -->
<g id="edge24" class="edge"><title>node110&#45;&gt;node180</title>
<path fill="none" stroke="black" d="M538.849,-511.294C468.013,-486.949 294.129,-427.19 205.238,-396.64"/>
<polygon fill="black" stroke="black" points="206.204,-393.272 195.61,-393.331 203.929,-399.891 206.204,-393.272"/>
</g>
<!-- node110&#45;&gt;node181 -->
<g id="edge26" class="edge"><title>node110&#45;&gt;node181</title>
<path fill="none" stroke="black" d="M566.313,-503.659C561.36,-483.512 550.68,-451.442 530,-432 510.908,-414.051 485.311,-401.94 460.94,-393.824"/>
<polygon fill="black" stroke="black" points="461.906,-390.46 451.317,-390.799 459.807,-397.137 461.906,-390.46"/>
</g>
<!-- node110&#45;&gt;node182 -->
<g id="edge28" class="edge"><title>node110&#45;&gt;node182</title>
<path fill="none" stroke="black" d="M572.153,-503.762C575.053,-479.201 580.242,-435.247 583.653,-406.354"/>
<polygon fill="black" stroke="black" points="587.168,-406.431 584.864,-396.09 580.216,-405.61 587.168,-406.431"/>
</g>
<!-- node156&#45;&gt;node151 -->
<g id="edge36" class="edge"><title>node156&#45;&gt;node151</title>
<path fill="none" stroke="black" d="M2892.24,-664.175C2970.17,-660.163 3120.77,-647.869 3158,-612 3187.44,-583.635 3177,-562.882 3177,-522 3177,-522 3177,-522 3177,-234 3177,-113.366 2212.55,-93.3252 2009.31,-90.4413"/>
<polygon fill="black" stroke="black" points="2009.19,-86.9394 1999.14,-90.3025 2009.1,-93.9388 2009.19,-86.9394"/>
</g>
<!-- node191 -->
<g id="node31" class="node"><title>node191</title>
<ellipse fill="none" stroke="black" cx="2692" cy="-594" rx="137.138" ry="18"/>
<text text-anchor="middle" x="2692" y="-590.7" font-family="Times Roman,serif" font-size="12.00">/usr/lib/x86_64&#45;linux&#45;gnu/libssl.so</text>
</g>
<!-- node156&#45;&gt;node191 -->
<g id="edge38" class="edge"><title>node156&#45;&gt;node191</title>
<path fill="none" stroke="black" d="M2806.39,-647.831C2785.63,-638.062 2759.89,-625.95 2738.09,-615.689"/>
<polygon fill="black" stroke="black" points="2739.55,-612.509 2729.01,-611.418 2736.57,-618.843 2739.55,-612.509"/>
</g>
<!-- node192 -->
<g id="node33" class="node"><title>node192</title>
<ellipse fill="none" stroke="black" cx="2998" cy="-594" rx="150.937" ry="18"/>
<text text-anchor="middle" x="2998" y="-590.7" font-family="Times Roman,serif" font-size="12.00">/usr/lib/x86_64&#45;linux&#45;gnu/libcrypto.so</text>
</g>
<!-- node156&#45;&gt;node192 -->
<g id="edge40" class="edge"><title>node156&#45;&gt;node192</title>
<path fill="none" stroke="black" d="M2883.61,-647.831C2904.29,-638.099 2929.92,-626.04 2951.67,-615.804"/>
<polygon fill="black" stroke="black" points="2953.17,-618.966 2960.72,-611.541 2950.19,-612.632 2953.17,-618.966"/>
</g>
<!-- node66&#45;&gt;node151 -->
<g id="edge44" class="edge"><title>node66&#45;&gt;node151</title>
<path fill="none" stroke="black" d="M1050.12,-287.892C1040.48,-254.336 1025.96,-182.422 1064,-144 1095.12,-112.566 1767.45,-94.7878 1934.62,-90.8431"/>
<polygon fill="black" stroke="black" points="1934.98,-94.3359 1944.89,-90.6033 1934.81,-87.3378 1934.98,-94.3359"/>
</g>
<!-- node153 -->
<g id="node38" class="node"><title>node153</title>
<polygon fill="none" stroke="black" points="1127,-180 1073,-180 1073,-144 1127,-144 1127,-180"/>
<text text-anchor="middle" x="1100" y="-158.7" font-family="Times Roman,serif" font-size="12.00">mp</text>
</g>
<!-- node66&#45;&gt;node153 -->
<g id="edge46" class="edge"><title>node66&#45;&gt;node153</title>
<path fill="none" stroke="black" d="M1061.57,-287.762C1069.11,-263.093 1082.63,-218.86 1091.45,-189.973"/>
<polygon fill="black" stroke="black" points="1094.9,-190.676 1094.47,-180.09 1088.2,-188.63 1094.9,-190.676"/>
</g>
<!-- node149 -->
<g id="node41" class="node"><title>node149</title>
<polygon fill="none" stroke="black" points="1389,-252 1335,-252 1335,-216 1389,-216 1389,-252"/>
<text text-anchor="middle" x="1362" y="-230.7" font-family="Times Roman,serif" font-size="12.00">hrpc</text>
</g>
<!-- node66&#45;&gt;node149 -->
<g id="edge50" class="edge"><title>node66&#45;&gt;node149</title>
<path fill="none" stroke="black" d="M1087.02,-298.7C1143.76,-285.351 1263.99,-257.061 1324.93,-242.722"/>
<polygon fill="black" stroke="black" points="1325.96,-246.077 1334.89,-240.379 1324.35,-239.263 1325.96,-246.077"/>
</g>
<!-- node59 -->
<g id="node45" class="node"><title>node59</title>
<polygon fill="none" stroke="black" points="930,-252 872,-252 872,-216 930,-216 930,-252"/>
<text text-anchor="middle" x="901" y="-230.7" font-family="Times Roman,serif" font-size="12.00">remote</text>
</g>
<!-- node66&#45;&gt;node59 -->
<g id="edge56" class="edge"><title>node66&#45;&gt;node59</title>
<path fill="none" stroke="black" d="M1024.63,-291.43C1000.05,-280.012 965.737,-264.071 939.493,-251.881"/>
<polygon fill="black" stroke="black" points="940.766,-248.613 930.223,-247.574 937.817,-254.962 940.766,-248.613"/>
</g>
<!-- node153&#45;&gt;node151 -->
<g id="edge48" class="edge"><title>node153&#45;&gt;node151</title>
<path fill="none" stroke="black" d="M1127.33,-148.447C1131.81,-146.682 1136.47,-145.105 1141,-144 1294.83,-106.471 1793.8,-93.6302 1934.66,-90.7049"/>
<polygon fill="black" stroke="black" points="1935,-94.1988 1944.93,-90.4962 1934.86,-87.2002 1935,-94.1988"/>
</g>
<!-- node149&#45;&gt;node151 -->
<g id="edge52" class="edge"><title>node149&#45;&gt;node151</title>
<path fill="none" stroke="black" d="M1389.4,-227.533C1487.64,-204.341 1822.37,-125.323 1934.81,-98.7786"/>
<polygon fill="black" stroke="black" points="1935.75,-102.153 1944.68,-96.4493 1934.14,-95.3405 1935.75,-102.153"/>
</g>
<!-- node149&#45;&gt;node153 -->
<g id="edge54" class="edge"><title>node149&#45;&gt;node153</title>
<path fill="none" stroke="black" d="M1334.91,-221.321C1330.32,-219.4 1325.56,-217.547 1321,-216 1257.8,-194.586 1181.76,-177.917 1137.35,-169.057"/>
<polygon fill="black" stroke="black" points="1137.8,-165.577 1127.31,-167.078 1136.44,-172.445 1137.8,-165.577"/>
</g>
<!-- node59&#45;&gt;node151 -->
<g id="edge58" class="edge"><title>node59&#45;&gt;node151</title>
<path fill="none" stroke="black" d="M904.211,-215.875C909.027,-194.646 920.338,-160.31 945,-144 987.072,-116.176 1755.32,-95.3922 1934.75,-90.9042"/>
<polygon fill="black" stroke="black" points="1935.08,-94.3969 1944.99,-90.6496 1934.91,-87.3991 1935.08,-94.3969"/>
</g>
<!-- node59&#45;&gt;node153 -->
<g id="edge60" class="edge"><title>node59&#45;&gt;node153</title>
<path fill="none" stroke="black" d="M930.363,-223.376C965.596,-210.629 1024.7,-189.244 1063.02,-175.381"/>
<polygon fill="black" stroke="black" points="1064.54,-178.55 1072.76,-171.857 1062.16,-171.968 1064.54,-178.55"/>
</g>
<!-- node119&#45;&gt;node151 -->
<g id="edge64" class="edge"><title>node119&#45;&gt;node151</title>
<path fill="none" stroke="black" d="M923.286,-665.072C1136.48,-657.646 2527,-605.99 2527,-522 2527,-522 2527,-522 2527,-234 2527,-190.919 2525.37,-169.969 2491,-144 2452.71,-115.07 2122.17,-97.0333 2009.47,-91.6789"/>
<polygon fill="black" stroke="black" points="2009.41,-88.1725 1999.26,-91.2004 2009.08,-95.1648 2009.41,-88.1725"/>
</g>
<!-- node119&#45;&gt;node110 -->
<g id="edge66" class="edge"><title>node119&#45;&gt;node110</title>
<path fill="none" stroke="black" d="M868.766,-653.97C811.445,-628.65 678.086,-569.743 610.627,-539.946"/>
<polygon fill="black" stroke="black" points="611.731,-536.607 601.169,-535.768 608.903,-543.01 611.731,-536.607"/>
</g>
<!-- node119&#45;&gt;node66 -->
<g id="edge68" class="edge"><title>node119&#45;&gt;node66</title>
<path fill="none" stroke="black" d="M902.967,-647.767C921.435,-599.875 973.809,-466.837 1026,-360 1030.36,-351.083 1035.48,-341.558 1040.25,-333.028"/>
<polygon fill="black" stroke="black" points="1043.35,-334.665 1045.24,-324.24 1037.26,-331.212 1043.35,-334.665"/>
</g>
<!-- node55 -->
<g id="node54" class="node"><title>node55</title>
<polygon fill="none" stroke="black" points="938,-396 848,-396 848,-360 938,-360 938,-396"/>
<text text-anchor="middle" x="893" y="-374.7" font-family="Times Roman,serif" font-size="12.00">environment</text>
</g>
<!-- node119&#45;&gt;node55 -->
<g id="edge70" class="edge"><title>node119&#45;&gt;node55</title>
<path fill="none" stroke="black" d="M890.03,-647.732C886.959,-637.376 883.544,-624.105 882,-612 871.88,-532.643 873.975,-511.597 882,-432 882.85,-423.567 884.429,-414.503 886.131,-406.255"/>
<polygon fill="black" stroke="black" points="889.579,-406.872 888.307,-396.354 882.742,-405.37 889.579,-406.872"/>
</g>
<!-- node127 -->
<g id="node60" class="node"><title>node127</title>
<polygon fill="none" stroke="black" points="1077,-612 1019,-612 1019,-576 1077,-576 1077,-612"/>
<text text-anchor="middle" x="1048" y="-590.7" font-family="Times Roman,serif" font-size="12.00">SMCLib</text>
</g>
<!-- node119&#45;&gt;node127 -->
<g id="edge80" class="edge"><title>node119&#45;&gt;node127</title>
<path fill="none" stroke="black" d="M923.175,-653.128C947.312,-641.694 982.845,-624.863 1009.83,-612.079"/>
<polygon fill="black" stroke="black" points="1011.45,-615.185 1018.99,-607.741 1008.45,-608.859 1011.45,-615.185"/>
</g>
<!-- node74 -->
<g id="node119" class="node"><title>node74</title>
<polygon fill="none" stroke="black" points="1335,-612 1281,-612 1281,-576 1335,-576 1335,-612"/>
<text text-anchor="middle" x="1308" y="-590.7" font-family="Times Roman,serif" font-size="12.00">dfuwu</text>
</g>
<!-- node119&#45;&gt;node74 -->
<g id="edge170" class="edge"><title>node119&#45;&gt;node74</title>
<path fill="none" stroke="black" d="M923.032,-661.276C994.622,-648.765 1189.23,-614.757 1271.01,-600.464"/>
<polygon fill="black" stroke="black" points="1271.62,-603.911 1280.87,-598.742 1270.41,-597.015 1271.62,-603.911"/>
</g>
<!-- node55&#45;&gt;node151 -->
<g id="edge72" class="edge"><title>node55&#45;&gt;node151</title>
<path fill="none" stroke="black" d="M883.931,-359.675C870.142,-329.284 847.1,-266.771 863,-216 874.643,-178.821 878.949,-162.93 913,-144 958.528,-118.69 1751.55,-95.9186 1934.54,-90.9858"/>
<polygon fill="black" stroke="black" points="1934.84,-94.4792 1944.74,-90.7124 1934.65,-87.4817 1934.84,-94.4792"/>
</g>
<!-- node55&#45;&gt;node66 -->
<g id="edge78" class="edge"><title>node55&#45;&gt;node66</title>
<path fill="none" stroke="black" d="M934.132,-359.831C959.136,-348.786 990.923,-334.745 1015.76,-323.773"/>
<polygon fill="black" stroke="black" points="1017.18,-326.973 1024.92,-319.731 1014.35,-320.57 1017.18,-326.973"/>
</g>
<!-- node55&#45;&gt;node153 -->
<g id="edge74" class="edge"><title>node55&#45;&gt;node153</title>
<path fill="none" stroke="black" d="M910.293,-359.955C947.05,-321.6 1033.05,-231.86 1075.46,-187.604"/>
<polygon fill="black" stroke="black" points="1078.22,-189.787 1082.61,-180.145 1073.16,-184.943 1078.22,-189.787"/>
</g>
<!-- node55&#45;&gt;node59 -->
<g id="edge76" class="edge"><title>node55&#45;&gt;node59</title>
<path fill="none" stroke="black" d="M894.013,-359.762C895.378,-335.201 897.82,-291.247 899.425,-262.354"/>
<polygon fill="black" stroke="black" points="902.935,-262.268 899.995,-252.09 895.946,-261.88 902.935,-262.268"/>
</g>
<!-- node127&#45;&gt;node151 -->
<g id="edge82" class="edge"><title>node127&#45;&gt;node151</title>
<path fill="none" stroke="black" d="M1077.33,-591.31C1120.1,-587.463 1202.11,-580.374 1272,-576 1450.27,-564.844 1900.51,-578.208 2075,-540 2157.96,-521.834 2173.96,-501.504 2252,-468 2341.2,-429.705 2451,-475.069 2451,-378 2451,-378 2451,-378 2451,-234 2451,-169.447 2396.27,-169.588 2337,-144 2278.47,-118.727 2090.27,-100.107 2009.45,-93.0749"/>
<polygon fill="black" stroke="black" points="2009.5,-89.5662 1999.23,-92.1982 2008.9,-96.5406 2009.5,-89.5662"/>
</g>
<!-- node127&#45;&gt;node160 -->
<g id="edge86" class="edge"><title>node127&#45;&gt;node160</title>
<path fill="none" stroke="black" d="M1018.8,-592.302C957.232,-588.132 810.057,-575.048 692,-540 683.698,-537.535 585.583,-492.37 530.664,-466.98"/>
<polygon fill="black" stroke="black" points="531.813,-463.656 521.267,-462.634 528.874,-470.009 531.813,-463.656"/>
</g>
<!-- node127&#45;&gt;node110 -->
<g id="edge88" class="edge"><title>node127&#45;&gt;node110</title>
<path fill="none" stroke="black" d="M1018.9,-591.661C950.981,-585.887 776.91,-569.257 634,-540 626.452,-538.455 618.489,-536.492 610.841,-534.433"/>
<polygon fill="black" stroke="black" points="611.601,-531.012 601.029,-531.7 609.723,-537.755 611.601,-531.012"/>
</g>
<!-- node127&#45;&gt;node66 -->
<g id="edge90" class="edge"><title>node127&#45;&gt;node66</title>
<path fill="none" stroke="black" d="M1041.75,-575.578C1032.33,-545.565 1016.28,-484.216 1023,-432 1027.44,-397.504 1038.46,-358.976 1046.55,-333.714"/>
<polygon fill="black" stroke="black" points="1049.92,-334.665 1049.7,-324.072 1043.26,-332.49 1049.92,-334.665"/>
</g>
<!-- node127&#45;&gt;node59 -->
<g id="edge84" class="edge"><title>node127&#45;&gt;node59</title>
<path fill="none" stroke="black" d="M1018.84,-588.275C936.136,-571.209 706,-517.645 706,-450 706,-450 706,-450 706,-378 706,-301.179 805.145,-260.697 862.045,-243.79"/>
<polygon fill="black" stroke="black" points="863.155,-247.113 871.807,-240.997 861.229,-240.383 863.155,-247.113"/>
</g>
<!-- node127&#45;&gt;node55 -->
<g id="edge92" class="edge"><title>node127&#45;&gt;node55</title>
<path fill="none" stroke="black" d="M1028.74,-575.853C1018.49,-565.751 1005.98,-552.686 996,-540 960.934,-495.413 926.967,-438.506 908.138,-405.369"/>
<polygon fill="black" stroke="black" points="910.977,-403.278 903.018,-396.286 904.879,-406.716 910.977,-403.278"/>
</g>
<!-- node78 -->
<g id="node68" class="node"><title>node78</title>
<polygon fill="none" stroke="black" points="1086,-468 1032,-468 1032,-432 1086,-432 1086,-468"/>
<text text-anchor="middle" x="1059" y="-446.7" font-family="Times Roman,serif" font-size="12.00">dalift</text>
</g>
<!-- node127&#45;&gt;node78 -->
<g id="edge94" class="edge"><title>node127&#45;&gt;node78</title>
<path fill="none" stroke="black" d="M1049.39,-575.762C1051.27,-551.201 1054.63,-507.247 1056.83,-478.354"/>
<polygon fill="black" stroke="black" points="1060.35,-478.327 1057.62,-468.09 1053.37,-477.794 1060.35,-478.327"/>
</g>
<!-- node54 -->
<g id="node76" class="node"><title>node54</title>
<polygon fill="none" stroke="black" points="1417,-468 1351,-468 1351,-432 1417,-432 1417,-468"/>
<text text-anchor="middle" x="1384" y="-446.7" font-family="Times Roman,serif" font-size="12.00">dllserver</text>
</g>
<!-- node127&#45;&gt;node54 -->
<g id="edge108" class="edge"><title>node127&#45;&gt;node54</title>
<path fill="none" stroke="black" d="M1077.03,-576.643C1110.29,-557.236 1166.8,-525.688 1218,-504 1258.89,-486.678 1307.36,-471.493 1341.33,-461.675"/>
<polygon fill="black" stroke="black" points="1342.29,-465.04 1350.95,-458.927 1340.37,-458.309 1342.29,-465.04"/>
</g>
<!-- node146 -->
<g id="node83" class="node"><title>node146</title>
<polygon fill="none" stroke="black" points="2140,-396 2086,-396 2086,-360 2140,-360 2140,-396"/>
<text text-anchor="middle" x="2113" y="-374.7" font-family="Times Roman,serif" font-size="12.00">eclrtl</text>
</g>
<!-- node127&#45;&gt;node146 -->
<g id="edge146" class="edge"><title>node127&#45;&gt;node146</title>
<path fill="none" stroke="black" d="M1077.24,-586.016C1139.07,-569.312 1287.76,-530.069 1414,-504 1556.11,-474.654 1917.09,-430.665 2058,-396 2063.87,-394.555 2070.03,-392.793 2076.01,-390.945"/>
<polygon fill="black" stroke="black" points="2077.37,-394.183 2085.82,-387.791 2075.23,-387.519 2077.37,-394.183"/>
</g>
<!-- node147 -->
<g id="node94" class="node"><title>node147</title>
<polygon fill="none" stroke="black" points="2347,-324 2293,-324 2293,-288 2347,-288 2347,-324"/>
<text text-anchor="middle" x="2320" y="-302.7" font-family="Times Roman,serif" font-size="12.00">nbcd</text>
</g>
<!-- node127&#45;&gt;node147 -->
<g id="edge144" class="edge"><title>node127&#45;&gt;node147</title>
<path fill="none" stroke="black" d="M1077.35,-591.577C1120.14,-588.059 1202.18,-581.37 1272,-576 1688.65,-543.955 1823.16,-635.491 2206,-468 2253.57,-447.189 2269.84,-439.622 2298,-396 2309.94,-377.5 2315.4,-353.05 2317.9,-334.304"/>
<polygon fill="black" stroke="black" points="2321.39,-334.611 2319.03,-324.282 2314.43,-333.827 2321.39,-334.611"/>
</g>
<!-- node53 -->
<g id="node106" class="node"><title>node53</title>
<polygon fill="none" stroke="black" points="2143,-468 2083,-468 2083,-432 2143,-432 2143,-468"/>
<text text-anchor="middle" x="2113" y="-446.7" font-family="Times Roman,serif" font-size="12.00">deftype</text>
</g>
<!-- node127&#45;&gt;node53 -->
<g id="edge148" class="edge"><title>node127&#45;&gt;node53</title>
<path fill="none" stroke="black" d="M1077.08,-589.627C1166.42,-576.239 1444.82,-534.845 1676,-504 1821.82,-484.543 1995.36,-463.823 2072.54,-454.734"/>
<polygon fill="black" stroke="black" points="2073.25,-458.174 2082.78,-453.53 2072.43,-451.222 2073.25,-458.174"/>
</g>
<!-- node64 -->
<g id="node111" class="node"><title>node64</title>
<polygon fill="none" stroke="black" points="1753,-540 1685,-540 1685,-504 1753,-504 1753,-540"/>
<text text-anchor="middle" x="1719" y="-518.7" font-family="Times Roman,serif" font-size="12.00">workunit</text>
</g>
<!-- node127&#45;&gt;node64 -->
<g id="edge156" class="edge"><title>node127&#45;&gt;node64</title>
<path fill="none" stroke="black" d="M1077.26,-590.86C1183.25,-579.487 1547.49,-540.403 1674.72,-526.752"/>
<polygon fill="black" stroke="black" points="1675.31,-530.209 1684.87,-525.662 1674.56,-523.249 1675.31,-530.209"/>
</g>
<!-- node78&#45;&gt;node151 -->
<g id="edge96" class="edge"><title>node78&#45;&gt;node151</title>
<path fill="none" stroke="black" d="M1074.14,-431.995C1111.95,-388.188 1215.47,-275.303 1326,-216 1433.54,-158.297 1471.46,-168.611 1591,-144 1715.53,-118.361 1865.48,-100.998 1934.22,-93.7767"/>
<polygon fill="black" stroke="black" points="1934.96,-97.2194 1944.54,-92.7051 1934.23,-90.2568 1934.96,-97.2194"/>
</g>
<!-- node78&#45;&gt;node66 -->
<g id="edge104" class="edge"><title>node78&#45;&gt;node66</title>
<path fill="none" stroke="black" d="M1058.62,-431.762C1058.11,-407.201 1057.19,-363.247 1056.59,-334.354"/>
<polygon fill="black" stroke="black" points="1060.08,-334.015 1056.38,-324.09 1053.09,-334.16 1060.08,-334.015"/>
</g>
<!-- node78&#45;&gt;node153 -->
<g id="edge98" class="edge"><title>node78&#45;&gt;node153</title>
<path fill="none" stroke="black" d="M1065.92,-431.979C1074.81,-407.824 1089.83,-363.418 1096,-324 1103.27,-277.551 1102.75,-222.713 1101.52,-190.231"/>
<polygon fill="black" stroke="black" points="1105.01,-189.957 1101.08,-180.117 1098.01,-190.258 1105.01,-189.957"/>
</g>
<!-- node78&#45;&gt;node149 -->
<g id="edge100" class="edge"><title>node78&#45;&gt;node149</title>
<path fill="none" stroke="black" d="M1086,-444.213C1117.24,-436.65 1169.31,-421.301 1208,-396 1265.18,-358.601 1316.56,-296.01 1343.06,-260.574"/>
<polygon fill="black" stroke="black" points="1346.13,-262.307 1349.25,-252.182 1340.5,-258.151 1346.13,-262.307"/>
</g>
<!-- node78&#45;&gt;node59 -->
<g id="edge102" class="edge"><title>node78&#45;&gt;node59</title>
<path fill="none" stroke="black" d="M1031.92,-447.446C978.516,-441.791 862.723,-426.25 839,-396 806.398,-354.428 847.597,-293.754 876.757,-259.683"/>
<polygon fill="black" stroke="black" points="879.516,-261.845 883.494,-252.025 874.261,-257.221 879.516,-261.845"/>
</g>
<!-- node78&#45;&gt;node55 -->
<g id="edge106" class="edge"><title>node78&#45;&gt;node55</title>
<path fill="none" stroke="black" d="M1031.96,-438.272C1008.17,-427.952 972.892,-412.652 943.838,-400.05"/>
<polygon fill="black" stroke="black" points="945.212,-396.831 934.645,-396.063 942.427,-403.253 945.212,-396.831"/>
</g>
<!-- node54&#45;&gt;node151 -->
<g id="edge112" class="edge"><title>node54&#45;&gt;node151</title>
<path fill="none" stroke="black" d="M1417.15,-449.539C1556.07,-447.354 2087.03,-436.407 2149,-396 2216.03,-352.293 2197.62,-282.422 2153,-216 2128.79,-179.967 2121.98,-169.712 2087,-144 2062.95,-126.317 2032.18,-112.237 2008.52,-102.894"/>
<polygon fill="black" stroke="black" points="2009.78,-99.6259 1999.19,-99.3046 2007.27,-106.16 2009.78,-99.6259"/>
</g>
<!-- node54&#45;&gt;node66 -->
<g id="edge136" class="edge"><title>node54&#45;&gt;node66</title>
<path fill="none" stroke="black" d="M1350.74,-435.4C1290.2,-408.821 1162.21,-352.63 1096.62,-323.833"/>
<polygon fill="black" stroke="black" points="1097.97,-320.605 1087.41,-319.79 1095.16,-327.015 1097.97,-320.605"/>
</g>
<!-- node54&#45;&gt;node153 -->
<g id="edge114" class="edge"><title>node54&#45;&gt;node153</title>
<path fill="none" stroke="black" d="M1378.06,-431.969C1362.89,-388.593 1318.63,-277.474 1245,-216 1213.78,-189.938 1168.78,-175.816 1137.21,-168.626"/>
<polygon fill="black" stroke="black" points="1137.57,-165.124 1127.06,-166.446 1136.1,-171.968 1137.57,-165.124"/>
</g>
<!-- node54&#45;&gt;node149 -->
<g id="edge116" class="edge"><title>node54&#45;&gt;node149</title>
<path fill="none" stroke="black" d="M1417.25,-435.837C1421.81,-434.32 1426.47,-432.976 1431,-432 1497.15,-417.731 1992.58,-445.247 2039,-396 2049.97,-384.357 2050.01,-371.611 2039,-360 1987.33,-305.496 1416.28,-377.927 1364,-324 1348.53,-308.042 1349.63,-282.04 1353.66,-262.078"/>
<polygon fill="black" stroke="black" points="1357.09,-262.811 1355.97,-252.275 1350.27,-261.208 1357.09,-262.811"/>
</g>
<!-- node54&#45;&gt;node59 -->
<g id="edge134" class="edge"><title>node54&#45;&gt;node59</title>
<path fill="none" stroke="black" d="M1354.98,-431.89C1324.99,-413.333 1276.66,-383.897 1234,-360 1173.65,-326.189 1160.36,-313.372 1096,-288 1043.39,-267.259 979.833,-251.25 939.903,-242.223"/>
<polygon fill="black" stroke="black" points="940.557,-238.783 930.036,-240.026 939.036,-245.616 940.557,-238.783"/>
</g>
<!-- node54&#45;&gt;node55 -->
<g id="edge138" class="edge"><title>node54&#45;&gt;node55</title>
<path fill="none" stroke="black" d="M1350.64,-445.108C1267.58,-432.929 1050.89,-401.153 948.336,-386.114"/>
<polygon fill="black" stroke="black" points="948.586,-382.614 938.184,-384.626 947.57,-389.54 948.586,-382.614"/>
</g>
<!-- node176 -->
<g id="node78" class="node"><title>node176</title>
<ellipse fill="none" stroke="black" cx="1543" cy="-378" rx="130.789" ry="18"/>
<text text-anchor="middle" x="1543" y="-374.7" font-family="Times Roman,serif" font-size="12.00">/usr/lib/x86_64&#45;linux&#45;gnu/libz.so</text>
</g>
<!-- node54&#45;&gt;node176 -->
<g id="edge110" class="edge"><title>node54&#45;&gt;node176</title>
<path fill="none" stroke="black" d="M1417.33,-434.906C1439.94,-424.668 1470.17,-410.978 1495.32,-399.591"/>
<polygon fill="black" stroke="black" points="1497.02,-402.665 1504.68,-395.352 1494.13,-396.289 1497.02,-402.665"/>
</g>
<!-- node54&#45;&gt;node146 -->
<g id="edge118" class="edge"><title>node54&#45;&gt;node146</title>
<path fill="none" stroke="black" d="M1417.25,-435.824C1421.8,-434.309 1426.47,-432.97 1431,-432 1710.01,-372.26 1794.5,-462.41 2072,-396 2073.28,-395.695 2074.56,-395.351 2075.85,-394.976"/>
<polygon fill="black" stroke="black" points="2077.36,-398.157 2085.68,-391.588 2075.08,-391.539 2077.36,-398.157"/>
</g>
<!-- node177 -->
<g id="node100" class="node"><title>node177</title>
<ellipse fill="none" stroke="black" cx="1763" cy="-378" rx="70.8437" ry="18"/>
<text text-anchor="middle" x="1763" y="-374.7" font-family="Times Roman,serif" font-size="12.00">/usr/lib/libbfd.so</text>
</g>
<!-- node54&#45;&gt;node177 -->
<g id="edge140" class="edge"><title>node54&#45;&gt;node177</title>
<path fill="none" stroke="black" d="M1417.08,-436.278C1421.7,-434.671 1426.43,-433.185 1431,-432 1540.51,-403.591 1571.72,-416.434 1683,-396 1688.83,-394.929 1694.88,-393.731 1700.93,-392.474"/>
<polygon fill="black" stroke="black" points="1702,-395.824 1711.05,-390.317 1700.54,-388.977 1702,-395.824"/>
</g>
<!-- node178 -->
<g id="node102" class="node"><title>node178</title>
<ellipse fill="none" stroke="black" cx="1941" cy="-378" rx="89.0421" ry="18"/>
<text text-anchor="middle" x="1941" y="-374.7" font-family="Times Roman,serif" font-size="12.00">/usr/lib/libiberty_pic.a</text>
</g>
<!-- node54&#45;&gt;node178 -->
<g id="edge142" class="edge"><title>node54&#45;&gt;node178</title>
<path fill="none" stroke="black" d="M1417.02,-436.044C1421.65,-434.473 1426.4,-433.059 1431,-432 1610.12,-390.731 1660.85,-420.63 1843,-396 1850.92,-394.929 1859.18,-393.658 1867.39,-392.294"/>
<polygon fill="black" stroke="black" points="1868.09,-395.726 1877.35,-390.592 1866.91,-388.826 1868.09,-395.726"/>
</g>
<!-- node146&#45;&gt;node151 -->
<g id="edge128" class="edge"><title>node146&#45;&gt;node151</title>
<path fill="none" stroke="black" d="M2140.19,-360.007C2151.67,-350.76 2163.81,-338.401 2170,-324 2176.32,-309.302 2176.12,-302.782 2170,-288 2137.07,-208.511 2055.04,-144.295 2007.53,-112.226"/>
<polygon fill="black" stroke="black" points="2009.35,-109.232 1999.09,-106.616 2005.48,-115.064 2009.35,-109.232"/>
</g>
<!-- node186 -->
<g id="node85" class="node"><title>node186</title>
<ellipse fill="none" stroke="black" cx="1492" cy="-306" rx="118.939" ry="18"/>
<text text-anchor="middle" x="1492" y="-302.7" font-family="Times Roman,serif" font-size="12.00">/usr/lib/libboost_regex&#45;mt.so</text>
</g>
<!-- node146&#45;&gt;node186 -->
<g id="edge120" class="edge"><title>node146&#45;&gt;node186</title>
<path fill="none" stroke="black" d="M2085.66,-364.505C2081.18,-362.732 2076.52,-361.139 2072,-360 1876.57,-310.809 1820.32,-346.042 1620,-324 1609.33,-322.826 1598.17,-321.461 1587.09,-320.019"/>
<polygon fill="black" stroke="black" points="1587.31,-316.519 1576.94,-318.676 1586.4,-323.458 1587.31,-316.519"/>
</g>
<!-- node183 -->
<g id="node87" class="node"><title>node183</title>
<ellipse fill="none" stroke="black" cx="1707" cy="-306" rx="77.9931" ry="18"/>
<text text-anchor="middle" x="1707" y="-302.7" font-family="Times Roman,serif" font-size="12.00">/usr/lib/libicuuc.so</text>
</g>
<!-- node146&#45;&gt;node183 -->
<g id="edge122" class="edge"><title>node146&#45;&gt;node183</title>
<path fill="none" stroke="black" d="M2085.6,-364.7C2081.13,-362.902 2076.49,-361.25 2072,-360 1951.97,-326.62 1916.87,-344.636 1794,-324 1787.46,-322.901 1780.66,-321.664 1773.88,-320.366"/>
<polygon fill="black" stroke="black" points="1774.46,-316.914 1763.98,-318.428 1773.12,-323.784 1774.46,-316.914"/>
</g>
<!-- node184 -->
<g id="node89" class="node"><title>node184</title>
<ellipse fill="none" stroke="black" cx="1888" cy="-306" rx="85.1424" ry="18"/>
<text text-anchor="middle" x="1888" y="-302.7" font-family="Times Roman,serif" font-size="12.00">/usr/lib/libicui18n.so</text>
</g>
<!-- node146&#45;&gt;node184 -->
<g id="edge124" class="edge"><title>node146&#45;&gt;node184</title>
<path fill="none" stroke="black" d="M2085.85,-365.5C2081.27,-363.558 2076.53,-361.651 2072,-360 2032.69,-345.669 1987.63,-332.394 1951.94,-322.592"/>
<polygon fill="black" stroke="black" points="1952.7,-319.172 1942.13,-319.922 1950.86,-325.926 1952.7,-319.172"/>
</g>
<!-- node185 -->
<g id="node91" class="node"><title>node185</title>
<ellipse fill="none" stroke="black" cx="2076" cy="-306" rx="85.1424" ry="18"/>
<text text-anchor="middle" x="2076" y="-302.7" font-family="Times Roman,serif" font-size="12.00">/usr/lib/libicudata.so</text>
</g>
<!-- node146&#45;&gt;node185 -->
<g id="edge126" class="edge"><title>node146&#45;&gt;node185</title>
<path fill="none" stroke="black" d="M2103.66,-359.831C2099.47,-351.669 2094.43,-341.87 2089.81,-332.883"/>
<polygon fill="black" stroke="black" points="2092.89,-331.208 2085.21,-323.913 2086.66,-334.407 2092.89,-331.208"/>
</g>
<!-- node146&#45;&gt;node147 -->
<g id="edge130" class="edge"><title>node146&#45;&gt;node147</title>
<path fill="none" stroke="black" d="M2140.06,-368.587C2176.71,-355.84 2242.25,-333.043 2283.31,-318.763"/>
<polygon fill="black" stroke="black" points="2284.64,-322.006 2292.93,-315.415 2282.34,-315.395 2284.64,-322.006"/>
</g>
<!-- node147&#45;&gt;node151 -->
<g id="edge132" class="edge"><title>node147&#45;&gt;node151</title>
<path fill="none" stroke="black" d="M2321.25,-287.795C2322.47,-254.079 2319.81,-181.908 2279,-144 2240.36,-108.107 2082.59,-95.5667 2009.5,-91.6256"/>
<polygon fill="black" stroke="black" points="2009.52,-88.1222 1999.35,-91.1048 2009.16,-95.113 2009.52,-88.1222"/>
</g>
<!-- node53&#45;&gt;node151 -->
<g id="edge150" class="edge"><title>node53&#45;&gt;node151</title>
<path fill="none" stroke="black" d="M2143.35,-433.019C2164.43,-420.846 2190.23,-405.057 2199,-396 2277.97,-314.413 2312.95,-231.835 2241,-144 2212.13,-108.761 2076.24,-96.0354 2009.36,-91.8526"/>
<polygon fill="black" stroke="black" points="2009.44,-88.3511 1999.25,-91.2525 2009.02,-95.3388 2009.44,-88.3511"/>
</g>
<!-- node53&#45;&gt;node146 -->
<g id="edge154" class="edge"><title>node53&#45;&gt;node146</title>
<path fill="none" stroke="black" d="M2113,-431.831C2113,-424.131 2113,-414.974 2113,-406.417"/>
<polygon fill="black" stroke="black" points="2116.5,-406.413 2113,-396.413 2109.5,-406.413 2116.5,-406.413"/>
</g>
<!-- node53&#45;&gt;node147 -->
<g id="edge152" class="edge"><title>node53&#45;&gt;node147</title>
<path fill="none" stroke="black" d="M2143.11,-440.835C2169.4,-431.945 2207.82,-416.755 2237,-396 2262.01,-378.213 2285.21,-351.863 2300.68,-332.266"/>
<polygon fill="black" stroke="black" points="2303.48,-334.377 2306.83,-324.326 2297.94,-330.094 2303.48,-334.377"/>
</g>
<!-- node64&#45;&gt;node151 -->
<g id="edge158" class="edge"><title>node64&#45;&gt;node151</title>
<path fill="none" stroke="black" d="M1753.2,-520.633C1849.88,-516.389 2123.49,-501.65 2206,-468 2291.57,-433.101 2325.26,-411.153 2356,-324 2383.66,-245.585 2369.64,-196.305 2305,-144 2260.05,-107.625 2086.32,-95.237 2009.22,-91.4735"/>
<polygon fill="black" stroke="black" points="2009.16,-87.9668 1999.01,-90.998 2008.83,-94.9593 2009.16,-87.9668"/>
</g>
<!-- node64&#45;&gt;node66 -->
<g id="edge160" class="edge"><title>node64&#45;&gt;node66</title>
<path fill="none" stroke="black" d="M1684.83,-520.185C1617.87,-515.961 1465.23,-503.016 1342,-468 1265.04,-446.13 1246.22,-436.136 1177,-396 1143.77,-376.733 1108.89,-349.993 1085.17,-330.671"/>
<polygon fill="black" stroke="black" points="1087.21,-327.818 1077.26,-324.171 1082.76,-333.225 1087.21,-327.818"/>
</g>
<!-- node64&#45;&gt;node54 -->
<g id="edge162" class="edge"><title>node64&#45;&gt;node54</title>
<path fill="none" stroke="black" d="M1684.72,-514.633C1623.34,-501.44 1494.78,-473.809 1427.36,-459.32"/>
<polygon fill="black" stroke="black" points="1427.99,-455.876 1417.48,-457.196 1426.52,-462.719 1427.99,-455.876"/>
</g>
<!-- node64&#45;&gt;node146 -->
<g id="edge166" class="edge"><title>node64&#45;&gt;node146</title>
<path fill="none" stroke="black" d="M1753.38,-510.633C1816.85,-489.447 1956.5,-441.9 2072,-396 2073.4,-395.444 2074.82,-394.869 2076.26,-394.281"/>
<polygon fill="black" stroke="black" points="2077.91,-397.383 2085.77,-390.277 2075.19,-390.931 2077.91,-397.383"/>
</g>
<!-- node64&#45;&gt;node147 -->
<g id="edge164" class="edge"><title>node64&#45;&gt;node147</title>
<path fill="none" stroke="black" d="M1753.02,-519.601C1841.68,-513.055 2078.11,-493.649 2152,-468 2210.4,-447.73 2228.3,-440.695 2271,-396 2288.16,-378.036 2301.18,-352.887 2309.47,-333.739"/>
<polygon fill="black" stroke="black" points="2312.77,-334.92 2313.37,-324.343 2306.31,-332.237 2312.77,-334.92"/>
</g>
<!-- node64&#45;&gt;node53 -->
<g id="edge168" class="edge"><title>node64&#45;&gt;node53</title>
<path fill="none" stroke="black" d="M1753.28,-515.736C1826.02,-502.443 1995.53,-471.467 2073.04,-457.303"/>
<polygon fill="black" stroke="black" points="2073.69,-460.741 2082.9,-455.5 2072.44,-453.855 2073.69,-460.741"/>
</g>
<!-- node74&#45;&gt;node151 -->
<g id="edge174" class="edge"><title>node74&#45;&gt;node151</title>
<path fill="none" stroke="black" d="M1335.17,-593.631C1511.73,-590.885 2489,-570.253 2489,-450 2489,-450 2489,-450 2489,-234 2489,-192.602 2496.4,-170.973 2465,-144 2430.55,-114.41 2118.05,-96.9161 2009.19,-91.6777"/>
<polygon fill="black" stroke="black" points="2009.16,-88.1727 1999.01,-91.1952 2008.83,-95.1648 2009.16,-88.1727"/>
</g>
<!-- node74&#45;&gt;node66 -->
<g id="edge182" class="edge"><title>node74&#45;&gt;node66</title>
<path fill="none" stroke="black" d="M1288.76,-575.767C1253.42,-541.871 1176.53,-466.209 1119,-396 1102.28,-375.588 1085.23,-350.951 1073.09,-332.618"/>
<polygon fill="black" stroke="black" points="1075.96,-330.612 1067.55,-324.17 1070.11,-334.452 1075.96,-330.612"/>
</g>
<!-- node74&#45;&gt;node153 -->
<g id="edge176" class="edge"><title>node74&#45;&gt;node153</title>
<path fill="none" stroke="black" d="M1299.33,-575.987C1266.82,-508.47 1152.07,-270.144 1113.08,-189.163"/>
<polygon fill="black" stroke="black" points="1116.2,-187.581 1108.71,-180.089 1109.89,-190.618 1116.2,-187.581"/>
</g>
<!-- node74&#45;&gt;node149 -->
<g id="edge178" class="edge"><title>node74&#45;&gt;node149</title>
<path fill="none" stroke="black" d="M1335.32,-593.231C1454.56,-589.696 1929.86,-573.726 2075,-540 2238.4,-502.032 2471.36,-409.794 2356,-288 2322.48,-252.609 1575.83,-237.654 1399.21,-234.605"/>
<polygon fill="black" stroke="black" points="1399.17,-231.104 1389.11,-234.433 1399.05,-238.103 1399.17,-231.104"/>
</g>
<!-- node74&#45;&gt;node59 -->
<g id="edge180" class="edge"><title>node74&#45;&gt;node59</title>
<path fill="none" stroke="black" d="M1280.97,-592.349C1197.44,-585.618 942.813,-552.513 839,-396 810.151,-352.506 848.78,-293.653 876.744,-260.172"/>
<polygon fill="black" stroke="black" points="879.707,-262.095 883.576,-252.232 874.401,-257.529 879.707,-262.095"/>
</g>
<!-- node74&#45;&gt;node64 -->
<g id="edge172" class="edge"><title>node74&#45;&gt;node64</title>
<path fill="none" stroke="black" d="M1335.29,-589.22C1404.97,-577.012 1590,-544.598 1675.08,-529.694"/>
<polygon fill="black" stroke="black" points="1675.7,-533.139 1684.95,-527.965 1674.49,-526.244 1675.7,-533.139"/>
</g>
</g>
</svg>
