<?xml version="1.0" encoding="UTF-8" standalone="no"?>
<!DOCTYPE svg PUBLIC "-//W3C//DTD SVG 1.1//EN"
 "http://www.w3.org/Graphics/SVG/1.1/DTD/svg11.dtd">
<!-- Generated by graphviz version 2.26.3 (20100126.1600)
 -->
<!-- Title: GG Pages: 1 -->
<svg width="3042pt" height="692pt"
 viewBox="0.00 0.00 3041.66 692.00" xmlns="http://www.w3.org/2000/svg" xmlns:xlink="http://www.w3.org/1999/xlink">
<g id="graph1" class="graph" transform="scale(1 1) rotate(0) translate(4 688)">
<title>GG</title>
<polygon fill="white" stroke="white" points="-4,5 -4,-688 3038.66,-688 3038.66,5 -4,5"/>
<!-- node65 -->
<g id="node1" class="node"><title>node65</title>
<polygon fill="none" stroke="black" points="1289.66,-684 1207.66,-684 1207.66,-648 1289.66,-648 1289.66,-684"/>
<text text-anchor="middle" x="1248.66" y="-662.7" font-family="Times Roman,serif" font-size="12.00">wuwebview</text>
</g>
<!-- node151 -->
<g id="node2" class="node"><title>node151</title>
<polygon fill="none" stroke="black" points="2086.66,-108 2032.66,-108 2032.66,-72 2086.66,-72 2086.66,-108"/>
<text text-anchor="middle" x="2059.66" y="-86.7" font-family="Times Roman,serif" font-size="12.00">jlib</text>
</g>
<!-- node65&#45;&gt;node151 -->
<g id="edge2" class="edge"><title>node65&#45;&gt;node151</title>
<path fill="none" stroke="black" d="M1207.61,-665.326C1001.1,-661.408 85.665,-637.522 85.665,-522 85.665,-522 85.665,-522 85.665,-234 85.665,-176.785 -215.972,-241.406 321.665,-144 494.178,-112.745 1784.75,-93.7479 2022.19,-90.499"/>
<polygon fill="black" stroke="black" points="2022.43,-93.9961 2032.38,-90.3603 2022.33,-86.9967 2022.43,-93.9961"/>
</g>
<!-- node64 -->
<g id="node12" class="node"><title>node64</title>
<polygon fill="none" stroke="black" points="1312.66,-540 1244.66,-540 1244.66,-504 1312.66,-504 1312.66,-540"/>
<text text-anchor="middle" x="1278.66" y="-518.7" font-family="Times Roman,serif" font-size="12.00">workunit</text>
</g>
<!-- node65&#45;&gt;node64 -->
<g id="edge12" class="edge"><title>node65&#45;&gt;node64</title>
<path fill="none" stroke="black" d="M1252.46,-647.762C1257.6,-623.093 1266.82,-578.86 1272.84,-549.973"/>
<polygon fill="black" stroke="black" points="1276.28,-550.593 1274.9,-540.09 1269.43,-549.166 1276.28,-550.593"/>
</g>
<!-- node54 -->
<g id="node29" class="node"><title>node54</title>
<polygon fill="none" stroke="black" points="944.665,-468 878.665,-468 878.665,-432 944.665,-432 944.665,-468"/>
<text text-anchor="middle" x="911.665" y="-446.7" font-family="Times Roman,serif" font-size="12.00">dllserver</text>
</g>
<!-- node65&#45;&gt;node54 -->
<g id="edge148" class="edge"><title>node65&#45;&gt;node54</title>
<path fill="none" stroke="black" d="M1207.45,-661.193C1140.38,-651.14 1007.86,-621.6 935.665,-540 920.656,-523.037 914.887,-497.695 912.739,-478.22"/>
<polygon fill="black" stroke="black" points="916.213,-477.765 911.883,-468.095 909.238,-478.355 916.213,-477.765"/>
</g>
<!-- node56 -->
<g id="node69" class="node"><title>node56</title>
<polygon fill="none" stroke="black" points="1340.66,-612 1276.66,-612 1276.66,-576 1340.66,-576 1340.66,-612"/>
<text text-anchor="middle" x="1308.66" y="-590.7" font-family="Times Roman,serif" font-size="12.00">fileview2</text>
</g>
<!-- node65&#45;&gt;node56 -->
<g id="edge92" class="edge"><title>node65&#45;&gt;node56</title>
<path fill="none" stroke="black" d="M1263.81,-647.831C1270.79,-639.454 1279.2,-629.353 1286.85,-620.175"/>
<polygon fill="black" stroke="black" points="1289.61,-622.336 1293.32,-612.413 1284.23,-617.855 1289.61,-622.336"/>
</g>
<!-- node160 -->
<g id="node105" class="node"><title>node160</title>
<polygon fill="none" stroke="black" points="2571.66,-612 2517.66,-612 2517.66,-576 2571.66,-576 2571.66,-612"/>
<text text-anchor="middle" x="2544.66" y="-590.7" font-family="Times Roman,serif" font-size="12.00">xmllib</text>
</g>
<!-- node65&#45;&gt;node160 -->
<g id="edge150" class="edge"><title>node65&#45;&gt;node160</title>
<path fill="none" stroke="black" d="M1289.95,-663.706C1485.95,-652.818 2320.68,-606.444 2507.48,-596.066"/>
<polygon fill="black" stroke="black" points="2507.83,-599.552 2517.62,-595.503 2507.44,-592.563 2507.83,-599.552"/>
</g>
<!-- node152 -->
<g id="node4" class="node"><title>node152</title>
<polygon fill="none" stroke="black" points="1937.66,-36 1897.72,-18 1937.66,-3.55271e-15 1977.61,-18 1937.66,-36"/>
<text text-anchor="middle" x="1937.66" y="-14.7" font-family="Times Roman,serif" font-size="12.00">lzma</text>
</g>
<!-- node151&#45;&gt;node152 -->
<g id="edge4" class="edge"><title>node151&#45;&gt;node152</title>
<path fill="none" stroke="black" d="M2032.59,-74.0209C2012.13,-61.9494 1984.22,-45.4743 1963.96,-33.5172"/>
<polygon fill="black" stroke="black" points="1965.63,-30.4417 1955.24,-28.3733 1962.08,-36.4701 1965.63,-30.4417"/>
</g>
<!-- node187 -->
<g id="node6" class="node"><title>node187</title>
<ellipse fill="none" stroke="black" cx="2022.66" cy="-18" rx="27" ry="18"/>
<text text-anchor="middle" x="2022.66" y="-14.7" font-family="Times Roman,serif" font-size="12.00">dl</text>
</g>
<!-- node151&#45;&gt;node187 -->
<g id="edge6" class="edge"><title>node151&#45;&gt;node187</title>
<path fill="none" stroke="black" d="M2050.33,-71.8314C2046.07,-63.5451 2040.95,-53.5727 2036.27,-44.4748"/>
<polygon fill="black" stroke="black" points="2039.3,-42.7123 2031.62,-35.4177 2033.07,-45.9118 2039.3,-42.7123"/>
</g>
<!-- node179 -->
<g id="node8" class="node"><title>node179</title>
<ellipse fill="none" stroke="black" cx="2097.66" cy="-18" rx="30.0465" ry="18"/>
<text text-anchor="middle" x="2097.66" y="-14.7" font-family="Times Roman,serif" font-size="12.00">crypt</text>
</g>
<!-- node151&#45;&gt;node179 -->
<g id="edge8" class="edge"><title>node151&#45;&gt;node179</title>
<path fill="none" stroke="black" d="M2069.25,-71.8314C2073.63,-63.5451 2078.89,-53.5727 2083.69,-44.4748"/>
<polygon fill="black" stroke="black" points="2086.9,-45.8952 2088.47,-35.4177 2080.71,-42.6279 2086.9,-45.8952"/>
</g>
<!-- node188 -->
<g id="node10" class="node"><title>node188</title>
<ellipse fill="none" stroke="black" cx="2172.66" cy="-18" rx="27" ry="18"/>
<text text-anchor="middle" x="2172.66" y="-14.7" font-family="Times Roman,serif" font-size="12.00">rt</text>
</g>
<!-- node151&#45;&gt;node188 -->
<g id="edge10" class="edge"><title>node151&#45;&gt;node188</title>
<path fill="none" stroke="black" d="M2086.73,-72.7542C2104.08,-61.7009 2126.56,-47.375 2144.18,-36.1494"/>
<polygon fill="black" stroke="black" points="2146.34,-38.9209 2152.9,-30.5955 2142.58,-33.0174 2146.34,-38.9209"/>
</g>
<!-- node64&#45;&gt;node151 -->
<g id="edge14" class="edge"><title>node64&#45;&gt;node151</title>
<path fill="none" stroke="black" d="M1266.72,-503.91C1240.25,-461.356 1182.97,-353.573 1234.66,-288 1335.2,-160.483 1874.52,-105.746 2022.24,-93.0126"/>
<polygon fill="black" stroke="black" points="2022.91,-96.4682 2032.58,-92.135 2022.32,-89.4932 2022.91,-96.4682"/>
</g>
<!-- node66 -->
<g id="node15" class="node"><title>node66</title>
<polygon fill="none" stroke="black" points="921.665,-324 859.665,-324 859.665,-288 921.665,-288 921.665,-324"/>
<text text-anchor="middle" x="890.665" y="-302.7" font-family="Times Roman,serif" font-size="12.00">dalibase</text>
</g>
<!-- node64&#45;&gt;node66 -->
<g id="edge16" class="edge"><title>node64&#45;&gt;node66</title>
<path fill="none" stroke="black" d="M1244.6,-520.428C1074.63,-512.245 323.835,-471.96 256.665,-396 246.066,-384.014 245.842,-371.784 256.665,-360 296.725,-316.383 714.54,-307.948 849.135,-306.359"/>
<polygon fill="black" stroke="black" points="849.473,-309.855 859.433,-306.244 849.395,-302.856 849.473,-309.855"/>
</g>
<!-- node64&#45;&gt;node54 -->
<g id="edge36" class="edge"><title>node64&#45;&gt;node54</title>
<path fill="none" stroke="black" d="M1244.47,-515.291C1177.34,-502.121 1028.45,-472.912 954.734,-458.449"/>
<polygon fill="black" stroke="black" points="955.334,-455.001 944.847,-456.51 953.987,-461.87 955.334,-455.001"/>
</g>
<!-- node146 -->
<g id="node36" class="node"><title>node146</title>
<polygon fill="none" stroke="black" points="1339.66,-396 1285.66,-396 1285.66,-360 1339.66,-360 1339.66,-396"/>
<text text-anchor="middle" x="1312.66" y="-374.7" font-family="Times Roman,serif" font-size="12.00">eclrtl</text>
</g>
<!-- node64&#45;&gt;node146 -->
<g id="edge82" class="edge"><title>node64&#45;&gt;node146</title>
<path fill="none" stroke="black" d="M1282.97,-503.762C1288.8,-479.093 1299.24,-434.86 1306.06,-405.973"/>
<polygon fill="black" stroke="black" points="1309.5,-406.626 1308.39,-396.09 1302.69,-405.018 1309.5,-406.626"/>
</g>
<!-- node147 -->
<g id="node47" class="node"><title>node147</title>
<polygon fill="none" stroke="black" points="2179.66,-324 2125.66,-324 2125.66,-288 2179.66,-288 2179.66,-324"/>
<text text-anchor="middle" x="2152.66" y="-302.7" font-family="Times Roman,serif" font-size="12.00">nbcd</text>
</g>
<!-- node64&#45;&gt;node147 -->
<g id="edge80" class="edge"><title>node64&#45;&gt;node147</title>
<path fill="none" stroke="black" d="M1290.49,-503.912C1314.7,-468.689 1373.73,-391.585 1445.66,-360 1573.66,-303.802 1935.26,-343.595 2073.66,-324 2087.4,-322.055 2102.28,-318.937 2115.38,-315.838"/>
<polygon fill="black" stroke="black" points="2116.57,-319.152 2125.45,-313.38 2114.91,-312.351 2116.57,-319.152"/>
</g>
<!-- node53 -->
<g id="node64" class="node"><title>node53</title>
<polygon fill="none" stroke="black" points="1487.66,-468 1427.66,-468 1427.66,-432 1487.66,-432 1487.66,-468"/>
<text text-anchor="middle" x="1457.66" y="-446.7" font-family="Times Roman,serif" font-size="12.00">deftype</text>
</g>
<!-- node64&#45;&gt;node53 -->
<g id="edge84" class="edge"><title>node64&#45;&gt;node53</title>
<path fill="none" stroke="black" d="M1312.75,-508.288C1342.81,-496.197 1386.62,-478.575 1418.19,-465.876"/>
<polygon fill="black" stroke="black" points="1419.6,-469.084 1427.57,-462.105 1416.99,-462.589 1419.6,-469.084"/>
</g>
<!-- node66&#45;&gt;node151 -->
<g id="edge18" class="edge"><title>node66&#45;&gt;node151</title>
<path fill="none" stroke="black" d="M890.882,-287.925C891.733,-269.139 894.874,-239.282 905.665,-216 923.302,-177.948 929.059,-162.568 966.665,-144 1062.97,-96.4505 1841.89,-90.7701 2022.41,-90.0919"/>
<polygon fill="black" stroke="black" points="2022.48,-93.5918 2032.47,-90.057 2022.46,-86.5918 2022.48,-93.5918"/>
</g>
<!-- node153 -->
<g id="node18" class="node"><title>node153</title>
<polygon fill="none" stroke="black" points="1052.66,-180 998.665,-180 998.665,-144 1052.66,-144 1052.66,-180"/>
<text text-anchor="middle" x="1025.66" y="-158.7" font-family="Times Roman,serif" font-size="12.00">mp</text>
</g>
<!-- node66&#45;&gt;node153 -->
<g id="edge20" class="edge"><title>node66&#45;&gt;node153</title>
<path fill="none" stroke="black" d="M895.054,-287.894C900.582,-268.253 911.723,-236.909 930.665,-216 939.453,-206.3 966.368,-191.367 989.316,-179.662"/>
<polygon fill="black" stroke="black" points="991.159,-182.652 998.517,-175.029 988.011,-176.4 991.159,-182.652"/>
</g>
<!-- node149 -->
<g id="node21" class="node"><title>node149</title>
<polygon fill="none" stroke="black" points="845.665,-252 791.665,-252 791.665,-216 845.665,-216 845.665,-252"/>
<text text-anchor="middle" x="818.665" y="-230.7" font-family="Times Roman,serif" font-size="12.00">hrpc</text>
</g>
<!-- node66&#45;&gt;node149 -->
<g id="edge24" class="edge"><title>node66&#45;&gt;node149</title>
<path fill="none" stroke="black" d="M872.496,-287.831C863.95,-279.285 853.609,-268.944 844.285,-259.62"/>
<polygon fill="black" stroke="black" points="846.624,-257.009 837.078,-252.413 841.674,-261.959 846.624,-257.009"/>
</g>
<!-- node59 -->
<g id="node25" class="node"><title>node59</title>
<polygon fill="none" stroke="black" points="997.665,-252 939.665,-252 939.665,-216 997.665,-216 997.665,-252"/>
<text text-anchor="middle" x="968.665" y="-230.7" font-family="Times Roman,serif" font-size="12.00">remote</text>
</g>
<!-- node66&#45;&gt;node59 -->
<g id="edge30" class="edge"><title>node66&#45;&gt;node59</title>
<path fill="none" stroke="black" d="M910.348,-287.831C919.77,-279.134 931.205,-268.578 941.445,-259.127"/>
<polygon fill="black" stroke="black" points="944.015,-261.517 948.989,-252.163 939.267,-256.374 944.015,-261.517"/>
</g>
<!-- node153&#45;&gt;node151 -->
<g id="edge22" class="edge"><title>node153&#45;&gt;node151</title>
<path fill="none" stroke="black" d="M1052.7,-156.224C1072.74,-152.163 1100.79,-146.947 1125.66,-144 1472.42,-102.919 1895.47,-92.7534 2022.12,-90.5507"/>
<polygon fill="black" stroke="black" points="2022.49,-94.0451 2032.43,-90.3778 2022.38,-87.046 2022.49,-94.0451"/>
</g>
<!-- node149&#45;&gt;node151 -->
<g id="edge26" class="edge"><title>node149&#45;&gt;node151</title>
<path fill="none" stroke="black" d="M821.249,-215.886C825.334,-194.667 835.478,-160.34 859.665,-144 908.979,-110.684 1824.7,-93.844 2022.29,-90.5897"/>
<polygon fill="black" stroke="black" points="2022.51,-94.0866 2032.46,-90.4239 2022.4,-87.0875 2022.51,-94.0866"/>
</g>
<!-- node149&#45;&gt;node153 -->
<g id="edge28" class="edge"><title>node149&#45;&gt;node153</title>
<path fill="none" stroke="black" d="M845.727,-224.587C882.376,-211.84 947.917,-189.043 988.971,-174.763"/>
<polygon fill="black" stroke="black" points="990.302,-178.006 998.597,-171.415 988.002,-171.395 990.302,-178.006"/>
</g>
<!-- node59&#45;&gt;node151 -->
<g id="edge32" class="edge"><title>node59&#45;&gt;node151</title>
<path fill="none" stroke="black" d="M967.083,-215.905C966.369,-195.039 968.856,-161.385 989.665,-144 1030.12,-110.203 1838.18,-93.9146 2022.47,-90.6311"/>
<polygon fill="black" stroke="black" points="2022.55,-94.1304 2032.49,-90.4546 2022.43,-87.1314 2022.55,-94.1304"/>
</g>
<!-- node59&#45;&gt;node153 -->
<g id="edge34" class="edge"><title>node59&#45;&gt;node153</title>
<path fill="none" stroke="black" d="M983.048,-215.831C989.614,-207.539 997.516,-197.557 1004.72,-188.453"/>
<polygon fill="black" stroke="black" points="1007.62,-190.426 1011.09,-180.413 1002.14,-186.081 1007.62,-190.426"/>
</g>
<!-- node54&#45;&gt;node151 -->
<g id="edge40" class="edge"><title>node54&#45;&gt;node151</title>
<path fill="none" stroke="black" d="M878.618,-449.7C761.029,-448.265 363.675,-440.183 245.665,-396 182.563,-372.375 123.665,-373.38 123.665,-306 123.665,-306 123.665,-306 123.665,-234 123.665,-135.053 1753.16,-96.4582 2022.25,-90.7593"/>
<polygon fill="black" stroke="black" points="2022.37,-94.2576 2032.3,-90.5485 2022.23,-87.2591 2022.37,-94.2576"/>
</g>
<!-- node54&#45;&gt;node66 -->
<g id="edge64" class="edge"><title>node54&#45;&gt;node66</title>
<path fill="none" stroke="black" d="M909.005,-431.762C905.423,-407.201 899.014,-363.247 894.8,-334.354"/>
<polygon fill="black" stroke="black" points="898.21,-333.48 893.303,-324.09 891.283,-334.49 898.21,-333.48"/>
</g>
<!-- node54&#45;&gt;node153 -->
<g id="edge42" class="edge"><title>node54&#45;&gt;node153</title>
<path fill="none" stroke="black" d="M924.064,-431.939C930.865,-421.648 939.203,-408.373 945.665,-396 977.842,-334.391 985.834,-318.311 1006.66,-252 1013.04,-231.718 1017.92,-208.192 1021.14,-190.281"/>
<polygon fill="black" stroke="black" points="1024.63,-190.643 1022.88,-180.193 1017.73,-189.45 1024.63,-190.643"/>
</g>
<!-- node54&#45;&gt;node149 -->
<g id="edge44" class="edge"><title>node54&#45;&gt;node149</title>
<path fill="none" stroke="black" d="M878.539,-449.832C751.326,-448.848 299.13,-442.109 256.665,-396 245.826,-384.231 246.665,-372.49 256.665,-360 323.1,-277.021 666.829,-244.963 781.433,-236.48"/>
<polygon fill="black" stroke="black" points="781.759,-239.966 791.481,-235.754 781.254,-232.984 781.759,-239.966"/>
</g>
<!-- node54&#45;&gt;node59 -->
<g id="edge62" class="edge"><title>node54&#45;&gt;node59</title>
<path fill="none" stroke="black" d="M916.427,-431.955C926.381,-394.235 949.449,-306.819 961.318,-261.84"/>
<polygon fill="black" stroke="black" points="964.709,-262.707 963.877,-252.145 957.941,-260.921 964.709,-262.707"/>
</g>
<!-- node176 -->
<g id="node31" class="node"><title>node176</title>
<ellipse fill="none" stroke="black" cx="396.665" cy="-378" rx="130.789" ry="18"/>
<text text-anchor="middle" x="396.665" y="-374.7" font-family="Times Roman,serif" font-size="12.00">/usr/lib/x86_64&#45;linux&#45;gnu/libz.so</text>
</g>
<!-- node54&#45;&gt;node176 -->
<g id="edge38" class="edge"><title>node54&#45;&gt;node176</title>
<path fill="none" stroke="black" d="M878.271,-445.331C802.739,-434.771 616.217,-408.695 498.714,-392.267"/>
<polygon fill="black" stroke="black" points="499.008,-388.774 488.62,-390.856 498.039,-395.707 499.008,-388.774"/>
</g>
<!-- node54&#45;&gt;node146 -->
<g id="edge46" class="edge"><title>node54&#45;&gt;node146</title>
<path fill="none" stroke="black" d="M944.822,-444.047C1018.84,-430.757 1197.13,-398.744 1275.1,-384.744"/>
<polygon fill="black" stroke="black" points="1276.19,-388.105 1285.42,-382.892 1274.96,-381.215 1276.19,-388.105"/>
</g>
<!-- node55 -->
<g id="node52" class="node"><title>node55</title>
<polygon fill="none" stroke="black" points="1143.66,-396 1053.66,-396 1053.66,-360 1143.66,-360 1143.66,-396"/>
<text text-anchor="middle" x="1098.66" y="-374.7" font-family="Times Roman,serif" font-size="12.00">environment</text>
</g>
<!-- node54&#45;&gt;node55 -->
<g id="edge66" class="edge"><title>node54&#45;&gt;node55</title>
<path fill="none" stroke="black" d="M944.666,-437.294C972.033,-426.757 1011.52,-411.555 1043.65,-399.181"/>
<polygon fill="black" stroke="black" points="1045.29,-402.3 1053.37,-395.441 1042.78,-395.768 1045.29,-402.3"/>
</g>
<!-- node177 -->
<g id="node58" class="node"><title>node177</title>
<ellipse fill="none" stroke="black" cx="616.665" cy="-378" rx="70.8437" ry="18"/>
<text text-anchor="middle" x="616.665" y="-374.7" font-family="Times Roman,serif" font-size="12.00">/usr/lib/libbfd.so</text>
</g>
<!-- node54&#45;&gt;node177 -->
<g id="edge76" class="edge"><title>node54&#45;&gt;node177</title>
<path fill="none" stroke="black" d="M878.398,-441.881C829.796,-430.018 738.558,-407.75 677.691,-392.894"/>
<polygon fill="black" stroke="black" points="678.365,-389.456 667.82,-390.485 676.705,-396.257 678.365,-389.456"/>
</g>
<!-- node178 -->
<g id="node60" class="node"><title>node178</title>
<ellipse fill="none" stroke="black" cx="794.665" cy="-378" rx="89.0421" ry="18"/>
<text text-anchor="middle" x="794.665" y="-374.7" font-family="Times Roman,serif" font-size="12.00">/usr/lib/libiberty_pic.a</text>
</g>
<!-- node54&#45;&gt;node178 -->
<g id="edge78" class="edge"><title>node54&#45;&gt;node178</title>
<path fill="none" stroke="black" d="M882.141,-431.831C866.719,-422.341 847.703,-410.639 831.344,-400.572"/>
<polygon fill="black" stroke="black" points="832.92,-397.432 822.569,-395.171 829.251,-403.393 832.92,-397.432"/>
</g>
<!-- node146&#45;&gt;node151 -->
<g id="edge56" class="edge"><title>node146&#45;&gt;node151</title>
<path fill="none" stroke="black" d="M1339.98,-364.397C1344.46,-362.638 1349.13,-361.077 1353.66,-360 1428.04,-342.349 1985.85,-377.27 2040.66,-324 2096.2,-270.035 2079.77,-167.29 2067.6,-117.889"/>
<polygon fill="black" stroke="black" points="2070.99,-117.001 2065.1,-108.194 2064.21,-118.752 2070.99,-117.001"/>
</g>
<!-- node186 -->
<g id="node38" class="node"><title>node186</title>
<ellipse fill="none" stroke="black" cx="1362.66" cy="-306" rx="118.939" ry="18"/>
<text text-anchor="middle" x="1362.66" y="-302.7" font-family="Times Roman,serif" font-size="12.00">/usr/lib/libboost_regex&#45;mt.so</text>
</g>
<!-- node146&#45;&gt;node186 -->
<g id="edge48" class="edge"><title>node146&#45;&gt;node186</title>
<path fill="none" stroke="black" d="M1325.28,-359.831C1331.07,-351.497 1338.04,-341.457 1344.39,-332.316"/>
<polygon fill="black" stroke="black" points="1347.4,-334.124 1350.23,-323.913 1341.65,-330.131 1347.4,-334.124"/>
</g>
<!-- node183 -->
<g id="node40" class="node"><title>node183</title>
<ellipse fill="none" stroke="black" cx="1577.66" cy="-306" rx="77.9931" ry="18"/>
<text text-anchor="middle" x="1577.66" y="-302.7" font-family="Times Roman,serif" font-size="12.00">/usr/lib/libicuuc.so</text>
</g>
<!-- node146&#45;&gt;node183 -->
<g id="edge50" class="edge"><title>node146&#45;&gt;node183</title>
<path fill="none" stroke="black" d="M1339.75,-365.308C1344.34,-363.389 1349.1,-361.54 1353.66,-360 1382.48,-350.286 1456.08,-333.064 1511.1,-320.678"/>
<polygon fill="black" stroke="black" points="1512.15,-324.029 1521.14,-318.424 1510.62,-317.199 1512.15,-324.029"/>
</g>
<!-- node184 -->
<g id="node42" class="node"><title>node184</title>
<ellipse fill="none" stroke="black" cx="1758.66" cy="-306" rx="85.1424" ry="18"/>
<text text-anchor="middle" x="1758.66" y="-302.7" font-family="Times Roman,serif" font-size="12.00">/usr/lib/libicui18n.so</text>
</g>
<!-- node146&#45;&gt;node184 -->
<g id="edge52" class="edge"><title>node146&#45;&gt;node184</title>
<path fill="none" stroke="black" d="M1340.05,-364.647C1344.52,-362.856 1349.16,-361.219 1353.66,-360 1487.97,-323.628 1527.13,-345.099 1664.66,-324 1671.97,-322.879 1679.58,-321.604 1687.16,-320.262"/>
<polygon fill="black" stroke="black" points="1687.87,-323.69 1697.09,-318.466 1686.63,-316.802 1687.87,-323.69"/>
</g>
<!-- node185 -->
<g id="node44" class="node"><title>node185</title>
<ellipse fill="none" stroke="black" cx="1946.66" cy="-306" rx="85.1424" ry="18"/>
<text text-anchor="middle" x="1946.66" y="-302.7" font-family="Times Roman,serif" font-size="12.00">/usr/lib/libicudata.so</text>
</g>
<!-- node146&#45;&gt;node185 -->
<g id="edge54" class="edge"><title>node146&#45;&gt;node185</title>
<path fill="none" stroke="black" d="M1340,-364.475C1344.48,-362.706 1349.14,-361.122 1353.66,-360 1569.49,-306.53 1632.2,-352.959 1852.66,-324 1860.31,-322.996 1868.27,-321.764 1876.19,-320.421"/>
<polygon fill="black" stroke="black" points="1876.91,-323.846 1886.16,-318.667 1875.7,-316.952 1876.91,-323.846"/>
</g>
<!-- node146&#45;&gt;node147 -->
<g id="edge58" class="edge"><title>node146&#45;&gt;node147</title>
<path fill="none" stroke="black" d="M1339.87,-370.589C1355.01,-366.774 1374.25,-362.425 1391.66,-360 1692.3,-318.131 1773.03,-365.869 2073.66,-324 2087.41,-322.086 2102.29,-318.975 2115.39,-315.873"/>
<polygon fill="black" stroke="black" points="2116.58,-319.186 2125.46,-313.411 2114.91,-312.387 2116.58,-319.186"/>
</g>
<!-- node147&#45;&gt;node151 -->
<g id="edge60" class="edge"><title>node147&#45;&gt;node151</title>
<path fill="none" stroke="black" d="M2151.13,-287.873C2147.85,-256.695 2138.16,-191.676 2111.66,-144 2105.85,-133.529 2097.49,-123.607 2089.17,-115.193"/>
<polygon fill="black" stroke="black" points="2091.56,-112.638 2081.94,-108.211 2086.7,-117.674 2091.56,-112.638"/>
</g>
<!-- node55&#45;&gt;node151 -->
<g id="edge68" class="edge"><title>node55&#45;&gt;node151</title>
<path fill="none" stroke="black" d="M1100.46,-359.709C1105.99,-314.228 1127.24,-195.962 1201.66,-144 1235.76,-120.196 1860.83,-96.9096 2022.01,-91.2825"/>
<polygon fill="black" stroke="black" points="2022.5,-94.7677 2032.37,-90.9228 2022.25,-87.7719 2022.5,-94.7677"/>
</g>
<!-- node55&#45;&gt;node66 -->
<g id="edge74" class="edge"><title>node55&#45;&gt;node66</title>
<path fill="none" stroke="black" d="M1053.53,-362.377C1017.16,-349.788 966.476,-332.242 931.347,-320.082"/>
<polygon fill="black" stroke="black" points="932.472,-316.768 921.877,-316.804 930.182,-323.383 932.472,-316.768"/>
</g>
<!-- node55&#45;&gt;node153 -->
<g id="edge70" class="edge"><title>node55&#45;&gt;node153</title>
<path fill="none" stroke="black" d="M1092.57,-359.955C1079.82,-322.235 1050.28,-234.819 1035.07,-189.84"/>
<polygon fill="black" stroke="black" points="1038.31,-188.498 1031.8,-180.145 1031.68,-190.739 1038.31,-188.498"/>
</g>
<!-- node55&#45;&gt;node59 -->
<g id="edge72" class="edge"><title>node55&#45;&gt;node59</title>
<path fill="none" stroke="black" d="M1081.86,-359.523C1072.4,-349.101 1060.36,-335.834 1049.66,-324 1030.23,-302.495 1008.23,-278.047 992.072,-260.065"/>
<polygon fill="black" stroke="black" points="994.375,-257.39 985.088,-252.291 989.168,-262.069 994.375,-257.39"/>
</g>
<!-- node53&#45;&gt;node151 -->
<g id="edge86" class="edge"><title>node53&#45;&gt;node151</title>
<path fill="none" stroke="black" d="M1447.77,-431.872C1438.21,-411.612 1427.6,-379.145 1445.66,-360 1540.54,-259.467 1960.8,-412.884 2066.66,-324 2128.21,-272.33 2100.35,-222.605 2083.66,-144 2081.77,-135.056 2078.28,-125.794 2074.54,-117.52"/>
<polygon fill="black" stroke="black" points="2077.61,-115.829 2070.12,-108.34 2071.31,-118.868 2077.61,-115.829"/>
</g>
<!-- node53&#45;&gt;node146 -->
<g id="edge90" class="edge"><title>node53&#45;&gt;node146</title>
<path fill="none" stroke="black" d="M1427.62,-435.082C1404.77,-423.736 1373.24,-408.078 1348.98,-396.031"/>
<polygon fill="black" stroke="black" points="1350.25,-392.755 1339.74,-391.442 1347.14,-399.025 1350.25,-392.755"/>
</g>
<!-- node53&#45;&gt;node147 -->
<g id="edge88" class="edge"><title>node53&#45;&gt;node147</title>
<path fill="none" stroke="black" d="M1452.44,-431.997C1447.73,-411.54 1444.07,-378.589 1462.66,-360 1513.74,-308.934 2041.42,-340.785 2111.66,-324 2112.94,-323.695 2114.23,-323.352 2115.52,-322.978"/>
<polygon fill="black" stroke="black" points="2117.03,-326.158 2125.34,-319.591 2114.75,-319.54 2117.03,-326.158"/>
</g>
<!-- node56&#45;&gt;node151 -->
<g id="edge94" class="edge"><title>node56&#45;&gt;node151</title>
<path fill="none" stroke="black" d="M1340.94,-592.895C1513.73,-586.564 2321.66,-551.53 2321.66,-450 2321.66,-450 2321.66,-450 2321.66,-234 2321.66,-190.752 2317.52,-172.13 2284.66,-144 2256.66,-120.017 2153.12,-102.662 2096.78,-94.7621"/>
<polygon fill="black" stroke="black" points="2097.22,-91.2899 2086.83,-93.3975 2096.27,-98.2249 2097.22,-91.2899"/>
</g>
<!-- node56&#45;&gt;node64 -->
<g id="edge118" class="edge"><title>node56&#45;&gt;node64</title>
<path fill="none" stroke="black" d="M1301.09,-575.831C1297.82,-567.962 1293.9,-558.571 1290.27,-549.853"/>
<polygon fill="black" stroke="black" points="1293.41,-548.298 1286.34,-540.413 1286.95,-550.99 1293.41,-548.298"/>
</g>
<!-- node56&#45;&gt;node66 -->
<g id="edge110" class="edge"><title>node56&#45;&gt;node66</title>
<path fill="none" stroke="black" d="M1276.54,-589.197C1238.99,-582.528 1175.98,-567.99 1128.66,-540 1033.16,-483.502 947.358,-380.588 910.187,-332.317"/>
<polygon fill="black" stroke="black" points="912.872,-330.066 904.026,-324.235 907.305,-334.31 912.872,-330.066"/>
</g>
<!-- node56&#45;&gt;node153 -->
<g id="edge96" class="edge"><title>node56&#45;&gt;node153</title>
<path fill="none" stroke="black" d="M1276.31,-576.253C1262.13,-567.059 1246.31,-554.672 1235.66,-540 1186.13,-471.753 1214.98,-434.601 1175.66,-360 1140.15,-292.609 1082.23,-223.95 1049.73,-187.857"/>
<polygon fill="black" stroke="black" points="1052.13,-185.291 1042.82,-180.242 1046.95,-189.997 1052.13,-185.291"/>
</g>
<!-- node56&#45;&gt;node149 -->
<g id="edge98" class="edge"><title>node56&#45;&gt;node149</title>
<path fill="none" stroke="black" d="M1276.49,-593.435C1090.53,-589.755 161.665,-565.588 161.665,-450 161.665,-450 161.665,-450 161.665,-378 161.665,-301.015 236.735,-312.657 309.665,-288 397.373,-258.347 679.533,-241.19 781.479,-235.832"/>
<polygon fill="black" stroke="black" points="781.803,-239.32 791.609,-235.308 781.441,-232.33 781.803,-239.32"/>
</g>
<!-- node56&#45;&gt;node59 -->
<g id="edge100" class="edge"><title>node56&#45;&gt;node59</title>
<path fill="none" stroke="black" d="M1276.62,-586.79C1250.97,-579.356 1216.03,-565.196 1195.66,-540 1143.96,-476.031 1199.1,-427.891 1152.66,-360 1116.29,-306.819 1049.45,-269.535 1007.13,-249.953"/>
<polygon fill="black" stroke="black" points="1008.53,-246.743 997.972,-245.815 1005.64,-253.122 1008.53,-246.743"/>
</g>
<!-- node56&#45;&gt;node54 -->
<g id="edge114" class="edge"><title>node56&#45;&gt;node54</title>
<path fill="none" stroke="black" d="M1276.4,-592.012C1202.57,-586.958 1023.83,-571.713 973.665,-540 950.266,-525.209 933.4,-498.046 923.221,-477.417"/>
<polygon fill="black" stroke="black" points="926.305,-475.749 918.889,-468.182 919.967,-478.722 926.305,-475.749"/>
</g>
<!-- node56&#45;&gt;node146 -->
<g id="edge104" class="edge"><title>node56&#45;&gt;node146</title>
<path fill="none" stroke="black" d="M1314.21,-575.701C1317.06,-565.335 1320.23,-552.065 1321.66,-540 1327.21,-493.256 1321.68,-438.508 1317.17,-406.124"/>
<polygon fill="black" stroke="black" points="1320.61,-405.432 1315.7,-396.043 1313.68,-406.444 1320.61,-405.432"/>
</g>
<!-- node56&#45;&gt;node147 -->
<g id="edge102" class="edge"><title>node56&#45;&gt;node147</title>
<path fill="none" stroke="black" d="M1340.77,-593.607C1478.1,-591.275 2014.65,-575.328 2135.66,-468 2172.83,-435.039 2167,-371.037 2159.67,-334.112"/>
<polygon fill="black" stroke="black" points="2163.03,-333.064 2157.5,-324.025 2156.19,-334.537 2163.03,-333.064"/>
</g>
<!-- node56&#45;&gt;node55 -->
<g id="edge112" class="edge"><title>node56&#45;&gt;node55</title>
<path fill="none" stroke="black" d="M1276.41,-590.515C1242.59,-585.22 1189.95,-572.094 1157.66,-540 1120.92,-503.471 1106.89,-442.278 1101.66,-406.473"/>
<polygon fill="black" stroke="black" points="1105.09,-405.686 1100.3,-396.232 1098.15,-406.606 1105.09,-405.686"/>
</g>
<!-- node56&#45;&gt;node53 -->
<g id="edge116" class="edge"><title>node56&#45;&gt;node53</title>
<path fill="none" stroke="black" d="M1332.98,-575.862C1346.03,-565.763 1362.18,-552.697 1375.66,-540 1397.25,-519.682 1419.8,-494.615 1435.77,-476.1"/>
<polygon fill="black" stroke="black" points="1438.56,-478.22 1442.41,-468.347 1433.25,-473.668 1438.56,-478.22"/>
</g>
<!-- node150 -->
<g id="node77" class="node"><title>node150</title>
<polygon fill="none" stroke="black" points="2403.66,-180 2349.66,-180 2349.66,-144 2403.66,-144 2403.66,-180"/>
<text text-anchor="middle" x="2376.66" y="-158.7" font-family="Times Roman,serif" font-size="12.00">jhtree</text>
</g>
<!-- node56&#45;&gt;node150 -->
<g id="edge106" class="edge"><title>node56&#45;&gt;node150</title>
<path fill="none" stroke="black" d="M1340.81,-593.301C1510.36,-589.487 2294.68,-570.256 2335.66,-540 2369.94,-514.696 2368.66,-492.604 2368.66,-450 2368.66,-450 2368.66,-450 2368.66,-306 2368.66,-265.814 2371.81,-219.417 2374.16,-190.392"/>
<polygon fill="black" stroke="black" points="2377.66,-190.424 2375.01,-180.167 2370.69,-189.842 2377.66,-190.424"/>
</g>
<!-- node63 -->
<g id="node85" class="node"><title>node63</title>
<polygon fill="none" stroke="black" points="1503.66,-540 1427.66,-540 1427.66,-504 1503.66,-504 1503.66,-540"/>
<text text-anchor="middle" x="1465.66" y="-518.7" font-family="Times Roman,serif" font-size="12.00">thorhelper</text>
</g>
<!-- node56&#45;&gt;node63 -->
<g id="edge120" class="edge"><title>node56&#45;&gt;node63</title>
<path fill="none" stroke="black" d="M1340.82,-579.256C1363.09,-569.041 1393.12,-555.269 1418.15,-543.792"/>
<polygon fill="black" stroke="black" points="1419.83,-546.868 1427.47,-539.518 1416.92,-540.505 1419.83,-546.868"/>
</g>
<!-- node99 -->
<g id="node98" class="node"><title>node99</title>
<polygon fill="none" stroke="black" points="1575.66,-540 1521.66,-540 1521.66,-504 1575.66,-504 1575.66,-540"/>
<text text-anchor="middle" x="1548.66" y="-518.7" font-family="Times Roman,serif" font-size="12.00">hql</text>
</g>
<!-- node56&#45;&gt;node99 -->
<g id="edge138" class="edge"><title>node56&#45;&gt;node99</title>
<path fill="none" stroke="black" d="M1340.75,-587.641C1379.56,-579.489 1446.86,-563.887 1511.84,-539.945"/>
<polygon fill="black" stroke="black" points="1513.28,-543.145 1521.41,-536.352 1510.82,-536.591 1513.28,-543.145"/>
</g>
<!-- node150&#45;&gt;node151 -->
<g id="edge108" class="edge"><title>node150&#45;&gt;node151</title>
<path fill="none" stroke="black" d="M2349.64,-149.137C2345.04,-147.239 2340.26,-145.44 2335.66,-144 2252.23,-117.875 2150.48,-101.878 2096.86,-94.6216"/>
<polygon fill="black" stroke="black" points="2097.17,-91.1322 2086.8,-93.2866 2096.25,-98.0714 2097.17,-91.1322"/>
</g>
<!-- node63&#45;&gt;node151 -->
<g id="edge122" class="edge"><title>node63&#45;&gt;node151</title>
<path fill="none" stroke="black" d="M1503.86,-506.359C1506.81,-505.464 1509.77,-504.661 1512.66,-504 1673.8,-467.23 2245.66,-543.278 2245.66,-378 2245.66,-378 2245.66,-378 2245.66,-234 2245.66,-159.224 2150.51,-117.747 2096.32,-100.189"/>
<polygon fill="black" stroke="black" points="2097.3,-96.8284 2086.71,-97.1865 2095.21,-103.51 2097.3,-96.8284"/>
</g>
<!-- node63&#45;&gt;node146 -->
<g id="edge126" class="edge"><title>node63&#45;&gt;node146</title>
<path fill="none" stroke="black" d="M1448.13,-503.658C1430.28,-485.173 1401.61,-456.022 1375.66,-432 1365.05,-422.172 1353.07,-411.747 1342.43,-402.704"/>
<polygon fill="black" stroke="black" points="1344.5,-399.869 1334.6,-396.092 1339.98,-405.218 1344.5,-399.869"/>
</g>
<!-- node63&#45;&gt;node147 -->
<g id="edge124" class="edge"><title>node63&#45;&gt;node147</title>
<path fill="none" stroke="black" d="M1503.69,-506.792C1506.71,-505.784 1509.72,-504.839 1512.66,-504 1757.26,-434.247 1854.35,-523.104 2074.66,-396 2101.03,-380.789 2122.87,-353.31 2136.66,-332.703"/>
<polygon fill="black" stroke="black" points="2139.76,-334.366 2142.25,-324.068 2133.88,-330.564 2139.76,-334.366"/>
</g>
<!-- node63&#45;&gt;node53 -->
<g id="edge128" class="edge"><title>node63&#45;&gt;node53</title>
<path fill="none" stroke="black" d="M1463.65,-503.831C1462.79,-496.131 1461.77,-486.974 1460.82,-478.417"/>
<polygon fill="black" stroke="black" points="1464.29,-477.966 1459.71,-468.413 1457.34,-478.739 1464.29,-477.966"/>
</g>
<!-- node156 -->
<g id="node91" class="node"><title>node156</title>
<polygon fill="none" stroke="black" points="1669.66,-468 1575.66,-468 1575.66,-432 1669.66,-432 1669.66,-468"/>
<text text-anchor="middle" x="1622.66" y="-446.7" font-family="Times Roman,serif" font-size="12.00">securesocket</text>
</g>
<!-- node63&#45;&gt;node156 -->
<g id="edge130" class="edge"><title>node63&#45;&gt;node156</title>
<path fill="none" stroke="black" d="M1503.67,-504.571C1524.89,-494.841 1551.54,-482.619 1574.24,-472.209"/>
<polygon fill="black" stroke="black" points="1575.74,-475.371 1583.37,-468.021 1572.82,-469.008 1575.74,-475.371"/>
</g>
<!-- node156&#45;&gt;node151 -->
<g id="edge132" class="edge"><title>node156&#45;&gt;node151</title>
<path fill="none" stroke="black" d="M1670.04,-448.465C1809.31,-442.68 2207.66,-416.478 2207.66,-306 2207.66,-306 2207.66,-306 2207.66,-234 2207.66,-171.878 2139.85,-127.877 2096.03,-105.929"/>
<polygon fill="black" stroke="black" points="2097.34,-102.671 2086.81,-101.455 2094.28,-108.969 2097.34,-102.671"/>
</g>
<!-- node191 -->
<g id="node94" class="node"><title>node191</title>
<ellipse fill="none" stroke="black" cx="1928.66" cy="-378" rx="137.138" ry="18"/>
<text text-anchor="middle" x="1928.66" y="-374.7" font-family="Times Roman,serif" font-size="12.00">/usr/lib/x86_64&#45;linux&#45;gnu/libssl.so</text>
</g>
<!-- node156&#45;&gt;node191 -->
<g id="edge134" class="edge"><title>node156&#45;&gt;node191</title>
<path fill="none" stroke="black" d="M1669.81,-438.908C1718.38,-427.479 1794.88,-409.48 1852.13,-396.007"/>
<polygon fill="black" stroke="black" points="1852.94,-399.414 1861.87,-393.716 1851.33,-392.6 1852.94,-399.414"/>
</g>
<!-- node192 -->
<g id="node96" class="node"><title>node192</title>
<ellipse fill="none" stroke="black" cx="1622.66" cy="-378" rx="150.937" ry="18"/>
<text text-anchor="middle" x="1622.66" y="-374.7" font-family="Times Roman,serif" font-size="12.00">/usr/lib/x86_64&#45;linux&#45;gnu/libcrypto.so</text>
</g>
<!-- node156&#45;&gt;node192 -->
<g id="edge136" class="edge"><title>node156&#45;&gt;node192</title>
<path fill="none" stroke="black" d="M1622.66,-431.831C1622.66,-424.131 1622.66,-414.974 1622.66,-406.417"/>
<polygon fill="black" stroke="black" points="1626.17,-406.413 1622.66,-396.413 1619.17,-406.413 1626.17,-406.413"/>
</g>
<!-- node99&#45;&gt;node151 -->
<g id="edge140" class="edge"><title>node99&#45;&gt;node151</title>
<path fill="none" stroke="black" d="M1575.88,-521.765C1699.72,-520.452 2206.21,-512.386 2259.66,-468 2291.51,-441.553 2283.66,-419.398 2283.66,-378 2283.66,-378 2283.66,-378 2283.66,-234 2283.66,-192.602 2288.89,-173.318 2259.66,-144 2236.92,-121.183 2148.06,-103.855 2096.76,-95.508"/>
<polygon fill="black" stroke="black" points="2097.15,-92.0265 2086.73,-93.9119 2096.05,-98.9396 2097.15,-92.0265"/>
</g>
<!-- node99&#45;&gt;node146 -->
<g id="edge144" class="edge"><title>node99&#45;&gt;node146</title>
<path fill="none" stroke="black" d="M1542.77,-503.683C1535.27,-483.249 1520.36,-450.623 1496.66,-432 1453.66,-398.194 1390.05,-385.538 1350.01,-380.809"/>
<polygon fill="black" stroke="black" points="1350.19,-377.309 1339.87,-379.722 1349.44,-384.269 1350.19,-377.309"/>
</g>
<!-- node99&#45;&gt;node147 -->
<g id="edge142" class="edge"><title>node99&#45;&gt;node147</title>
<path fill="none" stroke="black" d="M1575.92,-521.154C1682.4,-517.609 2066.54,-502.506 2107.66,-468 2146.95,-435.043 2153.51,-371.04 2153.76,-334.113"/>
<polygon fill="black" stroke="black" points="2157.26,-333.996 2153.67,-324.025 2150.26,-334.055 2157.26,-333.996"/>
</g>
<!-- node99&#45;&gt;node53 -->
<g id="edge146" class="edge"><title>node99&#45;&gt;node53</title>
<path fill="none" stroke="black" d="M1525.7,-503.831C1514.49,-494.963 1500.84,-484.164 1488.72,-474.572"/>
<polygon fill="black" stroke="black" points="1490.63,-471.623 1480.62,-468.163 1486.29,-477.112 1490.63,-471.623"/>
</g>
<!-- node160&#45;&gt;node151 -->
<g id="edge158" class="edge"><title>node160&#45;&gt;node151</title>
<path fill="none" stroke="black" d="M2517.34,-585.305C2495.9,-577.057 2467.05,-562.528 2450.66,-540 2426.62,-506.935 2431.66,-490.882 2431.66,-450 2431.66,-450 2431.66,-450 2431.66,-234 2431.66,-193.118 2442.37,-172.083 2412.66,-144 2389.9,-122.485 2183.13,-101.29 2097.03,-93.3151"/>
<polygon fill="black" stroke="black" points="2097.19,-89.8148 2086.91,-92.3872 2096.55,-96.7856 2097.19,-89.8148"/>
</g>
<!-- node180 -->
<g id="node107" class="node"><title>node180</title>
<ellipse fill="none" stroke="black" cx="2544.66" cy="-522" rx="85.1424" ry="18"/>
<text text-anchor="middle" x="2544.66" y="-518.7" font-family="Times Roman,serif" font-size="12.00">/usr/lib/libxalan&#45;c.so</text>
</g>
<!-- node160&#45;&gt;node180 -->
<g id="edge152" class="edge"><title>node160&#45;&gt;node180</title>
<path fill="none" stroke="black" d="M2544.66,-575.831C2544.66,-568.131 2544.66,-558.974 2544.66,-550.417"/>
<polygon fill="black" stroke="black" points="2548.17,-550.413 2544.66,-540.413 2541.17,-550.413 2548.17,-550.413"/>
</g>
<!-- node181 -->
<g id="node109" class="node"><title>node181</title>
<ellipse fill="none" stroke="black" cx="2740.66" cy="-522" rx="93.0912" ry="18"/>
<text text-anchor="middle" x="2740.66" y="-518.7" font-family="Times Roman,serif" font-size="12.00">/usr/lib/libxalanMsg.so</text>
</g>
<!-- node160&#45;&gt;node181 -->
<g id="edge154" class="edge"><title>node160&#45;&gt;node181</title>
<path fill="none" stroke="black" d="M2571.92,-583.989C2601.66,-573.064 2650.01,-555.302 2687.35,-541.585"/>
<polygon fill="black" stroke="black" points="2688.9,-544.746 2697.07,-538.013 2686.48,-538.176 2688.9,-544.746"/>
</g>
<!-- node182 -->
<g id="node111" class="node"><title>node182</title>
<ellipse fill="none" stroke="black" cx="2942.66" cy="-522" rx="90.9919" ry="18"/>
<text text-anchor="middle" x="2942.66" y="-518.7" font-family="Times Roman,serif" font-size="12.00">/usr/lib/libxerces&#45;c.so</text>
</g>
<!-- node160&#45;&gt;node182 -->
<g id="edge156" class="edge"><title>node160&#45;&gt;node182</title>
<path fill="none" stroke="black" d="M2571.71,-589.108C2631.24,-578.339 2775.47,-552.247 2865.53,-535.953"/>
<polygon fill="black" stroke="black" points="2866.21,-539.388 2875.43,-534.163 2864.97,-532.5 2866.21,-539.388"/>
</g>
</g>
</svg>
