<?xml version="1.0" encoding="UTF-8" standalone="no"?>
<!DOCTYPE svg PUBLIC "-//W3C//DTD SVG 1.1//EN"
 "http://www.w3.org/Graphics/SVG/1.1/DTD/svg11.dtd">
<!-- Generated by graphviz version 2.26.3 (20100126.1600)
 -->
<!-- Title: GG Pages: 1 -->
<svg width="353pt" height="476pt"
 viewBox="0.00 0.00 353.20 476.00" xmlns="http://www.w3.org/2000/svg" xmlns:xlink="http://www.w3.org/1999/xlink">
<g id="graph1" class="graph" transform="scale(1 1) rotate(0) translate(4 472)">
<title>GG</title>
<polygon fill="white" stroke="white" points="-4,5 -4,-472 350.195,-472 350.195,5 -4,5"/>
<!-- node77 -->
<g id="node1" class="node"><title>node77</title>
<polygon fill="none" stroke="black" points="220,-468 140,-468 140,-432 220,-432 220,-468"/>
<text text-anchor="middle" x="180" y="-446.7" font-family="Times Roman,serif" font-size="12.00">dfuXRefLib</text>
</g>
<!-- node151 -->
<g id="node2" class="node"><title>node151</title>
<polygon fill="none" stroke="black" points="189,-108 135,-108 135,-72 189,-72 189,-108"/>
<text text-anchor="middle" x="162" y="-86.7" font-family="Times Roman,serif" font-size="12.00">jlib</text>
</g>
<!-- node77&#45;&gt;node151 -->
<g id="edge2" class="edge"><title>node77&#45;&gt;node151</title>
<path fill="none" stroke="black" d="M139.788,-434.68C92.1011,-413.581 19,-370.688 19,-306 19,-306 19,-306 19,-234 19,-173.439 83.4682,-129.285 125.832,-106.807"/>
<polygon fill="black" stroke="black" points="127.475,-109.899 134.766,-102.212 124.273,-103.674 127.475,-109.899"/>
</g>
<!-- node153 -->
<g id="node12" class="node"><title>node153</title>
<polygon fill="none" stroke="black" points="222,-180 168,-180 168,-144 222,-144 222,-180"/>
<text text-anchor="middle" x="195" y="-158.7" font-family="Times Roman,serif" font-size="12.00">mp</text>
</g>
<!-- node77&#45;&gt;node153 -->
<g id="edge12" class="edge"><title>node77&#45;&gt;node153</title>
<path fill="none" stroke="black" d="M180.938,-431.984C183.474,-383.294 190.479,-248.796 193.539,-190.057"/>
<polygon fill="black" stroke="black" points="197.037,-190.177 194.062,-180.009 190.047,-189.813 197.037,-190.177"/>
</g>
<!-- node149 -->
<g id="node15" class="node"><title>node149</title>
<polygon fill="none" stroke="black" points="101,-252 47,-252 47,-216 101,-216 101,-252"/>
<text text-anchor="middle" x="74" y="-230.7" font-family="Times Roman,serif" font-size="12.00">hrpc</text>
</g>
<!-- node77&#45;&gt;node149 -->
<g id="edge16" class="edge"><title>node77&#45;&gt;node149</title>
<path fill="none" stroke="black" d="M167.829,-431.813C152.137,-407.838 124.655,-364.006 106,-324 96.5827,-303.804 88.235,-280.013 82.4287,-261.965"/>
<polygon fill="black" stroke="black" points="85.737,-260.818 79.3944,-252.332 79.0604,-262.921 85.737,-260.818"/>
</g>
<!-- node59 -->
<g id="node19" class="node"><title>node59</title>
<polygon fill="none" stroke="black" points="329,-252 271,-252 271,-216 329,-216 329,-252"/>
<text text-anchor="middle" x="300" y="-230.7" font-family="Times Roman,serif" font-size="12.00">remote</text>
</g>
<!-- node77&#45;&gt;node59 -->
<g id="edge22" class="edge"><title>node77&#45;&gt;node59</title>
<path fill="none" stroke="black" d="M220.022,-441.27C260.457,-431.542 318.796,-414.703 332,-396 360.639,-355.433 335.873,-295.597 316.86,-261.139"/>
<polygon fill="black" stroke="black" points="319.707,-259.068 311.699,-252.131 313.633,-262.548 319.707,-259.068"/>
</g>
<!-- node66 -->
<g id="node23" class="node"><title>node66</title>
<polygon fill="none" stroke="black" points="177,-324 115,-324 115,-288 177,-288 177,-324"/>
<text text-anchor="middle" x="146" y="-302.7" font-family="Times Roman,serif" font-size="12.00">dalibase</text>
</g>
<!-- node77&#45;&gt;node66 -->
<g id="edge28" class="edge"><title>node77&#45;&gt;node66</title>
<path fill="none" stroke="black" d="M175.694,-431.762C169.869,-407.093 159.425,-362.86 152.605,-333.973"/>
<polygon fill="black" stroke="black" points="155.976,-333.018 150.271,-324.09 149.163,-334.626 155.976,-333.018"/>
</g>
<!-- node55 -->
<g id="node29" class="node"><title>node55</title>
<polygon fill="none" stroke="black" points="323,-396 233,-396 233,-360 323,-360 323,-396"/>
<text text-anchor="middle" x="278" y="-374.7" font-family="Times Roman,serif" font-size="12.00">environment</text>
</g>
<!-- node77&#45;&gt;node55 -->
<g id="edge38" class="edge"><title>node77&#45;&gt;node55</title>
<path fill="none" stroke="black" d="M204.73,-431.831C216.916,-422.878 231.782,-411.956 244.931,-402.295"/>
<polygon fill="black" stroke="black" points="247.292,-404.904 253.278,-396.163 243.147,-399.263 247.292,-404.904"/>
</g>
<!-- node152 -->
<g id="node4" class="node"><title>node152</title>
<polygon fill="none" stroke="black" points="40,-36 0.0563759,-18 40,-3.55271e-15 79.9436,-18 40,-36"/>
<text text-anchor="middle" x="40" y="-14.7" font-family="Times Roman,serif" font-size="12.00">lzma</text>
</g>
<!-- node151&#45;&gt;node152 -->
<g id="edge4" class="edge"><title>node151&#45;&gt;node152</title>
<path fill="none" stroke="black" d="M134.924,-74.0209C114.47,-61.9494 86.5536,-45.4743 66.293,-33.5172"/>
<polygon fill="black" stroke="black" points="67.968,-30.4417 57.577,-28.3733 64.4102,-36.4701 67.968,-30.4417"/>
</g>
<!-- node187 -->
<g id="node6" class="node"><title>node187</title>
<ellipse fill="none" stroke="black" cx="125" cy="-18" rx="27" ry="18"/>
<text text-anchor="middle" x="125" y="-14.7" font-family="Times Roman,serif" font-size="12.00">dl</text>
</g>
<!-- node151&#45;&gt;node187 -->
<g id="edge6" class="edge"><title>node151&#45;&gt;node187</title>
<path fill="none" stroke="black" d="M152.663,-71.8314C148.405,-63.5451 143.28,-53.5727 138.605,-44.4748"/>
<polygon fill="black" stroke="black" points="141.635,-42.7123 133.951,-35.4177 135.408,-45.9118 141.635,-42.7123"/>
</g>
<!-- node179 -->
<g id="node8" class="node"><title>node179</title>
<ellipse fill="none" stroke="black" cx="200" cy="-18" rx="30.0465" ry="18"/>
<text text-anchor="middle" x="200" y="-14.7" font-family="Times Roman,serif" font-size="12.00">crypt</text>
</g>
<!-- node151&#45;&gt;node179 -->
<g id="edge8" class="edge"><title>node151&#45;&gt;node179</title>
<path fill="none" stroke="black" d="M171.589,-71.8314C175.962,-63.5451 181.226,-53.5727 186.027,-44.4748"/>
<polygon fill="black" stroke="black" points="189.235,-45.8952 190.807,-35.4177 183.044,-42.6279 189.235,-45.8952"/>
</g>
<!-- node188 -->
<g id="node10" class="node"><title>node188</title>
<ellipse fill="none" stroke="black" cx="275" cy="-18" rx="27" ry="18"/>
<text text-anchor="middle" x="275" y="-14.7" font-family="Times Roman,serif" font-size="12.00">rt</text>
</g>
<!-- node151&#45;&gt;node188 -->
<g id="edge10" class="edge"><title>node151&#45;&gt;node188</title>
<path fill="none" stroke="black" d="M189.066,-72.7542C206.414,-61.7009 228.898,-47.375 246.516,-36.1494"/>
<polygon fill="black" stroke="black" points="248.679,-38.9209 255.232,-30.5955 244.918,-33.0174 248.679,-38.9209"/>
</g>
<!-- node153&#45;&gt;node151 -->
<g id="edge14" class="edge"><title>node153&#45;&gt;node151</title>
<path fill="none" stroke="black" d="M186.673,-143.831C183.027,-135.877 178.669,-126.369 174.637,-117.572"/>
<polygon fill="black" stroke="black" points="177.788,-116.046 170.439,-108.413 171.424,-118.962 177.788,-116.046"/>
</g>
<!-- node149&#45;&gt;node151 -->
<g id="edge18" class="edge"><title>node149&#45;&gt;node151</title>
<path fill="none" stroke="black" d="M80.4355,-215.969C87.527,-197.218 99.9471,-167.39 115,-144 121.283,-134.238 129.238,-124.41 136.808,-115.865"/>
<polygon fill="black" stroke="black" points="139.447,-118.166 143.594,-108.416 134.272,-113.452 139.447,-118.166"/>
</g>
<!-- node149&#45;&gt;node153 -->
<g id="edge20" class="edge"><title>node149&#45;&gt;node153</title>
<path fill="none" stroke="black" d="M101.155,-217.842C118.28,-207.651 140.589,-194.377 159.159,-183.327"/>
<polygon fill="black" stroke="black" points="161.132,-186.226 167.936,-178.104 157.552,-180.21 161.132,-186.226"/>
</g>
<!-- node59&#45;&gt;node151 -->
<g id="edge24" class="edge"><title>node59&#45;&gt;node151</title>
<path fill="none" stroke="black" d="M288,-215.676C275.111,-196.686 253.441,-166.666 231,-144 220.493,-133.388 207.898,-122.974 196.36,-114.166"/>
<polygon fill="black" stroke="black" points="198.296,-111.243 188.192,-108.057 194.104,-116.849 198.296,-111.243"/>
</g>
<!-- node59&#45;&gt;node153 -->
<g id="edge26" class="edge"><title>node59&#45;&gt;node153</title>
<path fill="none" stroke="black" d="M273.504,-215.831C260.323,-206.793 244.215,-195.748 230.029,-186.02"/>
<polygon fill="black" stroke="black" points="231.714,-182.932 221.487,-180.163 227.755,-188.705 231.714,-182.932"/>
</g>
<!-- node66&#45;&gt;node151 -->
<g id="edge30" class="edge"><title>node66&#45;&gt;node151</title>
<path fill="none" stroke="black" d="M147.337,-287.955C150.125,-250.314 156.579,-163.187 159.917,-118.125"/>
<polygon fill="black" stroke="black" points="163.408,-118.376 160.656,-108.145 156.427,-117.859 163.408,-118.376"/>
</g>
<!-- node66&#45;&gt;node153 -->
<g id="edge32" class="edge"><title>node66&#45;&gt;node153</title>
<path fill="none" stroke="black" d="M152.206,-287.762C160.637,-262.985 175.784,-218.471 185.61,-189.594"/>
<polygon fill="black" stroke="black" points="188.936,-190.684 188.845,-180.09 182.31,-188.429 188.936,-190.684"/>
</g>
<!-- node66&#45;&gt;node149 -->
<g id="edge34" class="edge"><title>node66&#45;&gt;node149</title>
<path fill="none" stroke="black" d="M127.831,-287.831C119.285,-279.285 108.944,-268.944 99.6198,-259.62"/>
<polygon fill="black" stroke="black" points="101.959,-257.009 92.4133,-252.413 97.0095,-261.959 101.959,-257.009"/>
</g>
<!-- node66&#45;&gt;node59 -->
<g id="edge36" class="edge"><title>node66&#45;&gt;node59</title>
<path fill="none" stroke="black" d="M177.164,-291.43C201.586,-280.012 235.681,-264.071 261.755,-251.881"/>
<polygon fill="black" stroke="black" points="263.389,-254.98 270.966,-247.574 260.425,-248.639 263.389,-254.98"/>
</g>
<!-- node55&#45;&gt;node151 -->
<g id="edge40" class="edge"><title>node55&#45;&gt;node151</title>
<path fill="none" stroke="black" d="M294.023,-359.749C318.562,-329.465 360.374,-267.102 338,-216 312.148,-156.954 241.926,-120.467 198.398,-102.816"/>
<polygon fill="black" stroke="black" points="199.599,-99.5275 189.011,-99.1331 197.042,-106.044 199.599,-99.5275"/>
</g>
<!-- node55&#45;&gt;node153 -->
<g id="edge42" class="edge"><title>node55&#45;&gt;node153</title>
<path fill="none" stroke="black" d="M271.854,-359.866C261.545,-329.751 239.844,-267.625 219,-216 215.521,-207.385 211.501,-198.107 207.756,-189.714"/>
<polygon fill="black" stroke="black" points="210.839,-188.036 203.537,-180.36 204.458,-190.915 210.839,-188.036"/>
</g>
<!-- node55&#45;&gt;node59 -->
<g id="edge44" class="edge"><title>node55&#45;&gt;node59</title>
<path fill="none" stroke="black" d="M280.786,-359.762C284.539,-335.201 291.254,-291.247 295.668,-262.354"/>
<polygon fill="black" stroke="black" points="299.186,-262.504 297.236,-252.09 292.266,-261.446 299.186,-262.504"/>
</g>
<!-- node55&#45;&gt;node66 -->
<g id="edge46" class="edge"><title>node55&#45;&gt;node66</title>
<path fill="none" stroke="black" d="M244.691,-359.831C226.838,-350.094 204.716,-338.027 185.944,-327.788"/>
<polygon fill="black" stroke="black" points="187.487,-324.642 177.032,-322.926 184.135,-330.788 187.487,-324.642"/>
</g>
</g>
</svg>
