<?xml version="1.0" encoding="UTF-8" standalone="no"?>
<!DOCTYPE svg PUBLIC "-//W3C//DTD SVG 1.1//EN"
 "http://www.w3.org/Graphics/SVG/1.1/DTD/svg11.dtd">
<!-- Generated by graphviz version 2.26.3 (20100126.1600)
 -->
<!-- Title: GG Pages: 1 -->
<svg width="3819pt" height="764pt"
 viewBox="0.00 0.00 3819.00 764.00" xmlns="http://www.w3.org/2000/svg" xmlns:xlink="http://www.w3.org/1999/xlink">
<g id="graph1" class="graph" transform="scale(1 1) rotate(0) translate(4 760)">
<title>GG</title>
<polygon fill="white" stroke="white" points="-4,5 -4,-760 3816,-760 3816,5 -4,5"/>
<!-- node121 -->
<g id="node1" class="node"><title>node121</title>
<polygon fill="none" stroke="black" points="2753,-756 2651,-756 2651,-720 2753,-720 2753,-756"/>
<text text-anchor="middle" x="2702" y="-734.7" font-family="Times Roman,serif" font-size="12.00">ws_roxiequery</text>
</g>
<!-- node151 -->
<g id="node2" class="node"><title>node151</title>
<polygon fill="none" stroke="black" points="1969,-108 1915,-108 1915,-72 1969,-72 1969,-108"/>
<text text-anchor="middle" x="1942" y="-86.7" font-family="Times Roman,serif" font-size="12.00">jlib</text>
</g>
<!-- node121&#45;&gt;node151 -->
<g id="edge2" class="edge"><title>node121&#45;&gt;node151</title>
<path fill="none" stroke="black" d="M2650.61,-737.174C2383.74,-732.792 1153.53,-711.425 773,-684 600.509,-671.568 0,-766.938 0,-594 0,-594 0,-594 0,-234 0,-187.352 13.74,-167.561 54,-144 136.785,-95.5519 1645.85,-90.5553 1904.45,-90.0544"/>
<polygon fill="black" stroke="black" points="1904.81,-93.5539 1914.81,-90.0355 1904.8,-86.5539 1904.81,-93.5539"/>
</g>
<!-- node56 -->
<g id="node12" class="node"><title>node56</title>
<polygon fill="none" stroke="black" points="1511,-612 1447,-612 1447,-576 1511,-576 1511,-612"/>
<text text-anchor="middle" x="1479" y="-590.7" font-family="Times Roman,serif" font-size="12.00">fileview2</text>
</g>
<!-- node121&#45;&gt;node56 -->
<g id="edge12" class="edge"><title>node121&#45;&gt;node56</title>
<path fill="none" stroke="black" d="M2650.81,-736.676C2453.16,-731.384 1746,-710.749 1649,-684 1598.47,-670.065 1545.99,-639.381 1512.95,-617.727"/>
<polygon fill="black" stroke="black" points="1514.84,-614.78 1504.57,-612.157 1510.96,-620.608 1514.84,-614.78"/>
</g>
<!-- node59 -->
<g id="node22" class="node"><title>node59</title>
<polygon fill="none" stroke="black" points="2877,-252 2819,-252 2819,-216 2877,-216 2877,-252"/>
<text text-anchor="middle" x="2848" y="-230.7" font-family="Times Roman,serif" font-size="12.00">remote</text>
</g>
<!-- node121&#45;&gt;node59 -->
<g id="edge146" class="edge"><title>node121&#45;&gt;node59</title>
<path fill="none" stroke="black" d="M2753.24,-728.337C2851.55,-708.327 3057,-658.764 3057,-594 3057,-594 3057,-594 3057,-450 3057,-352.919 2946.61,-282.862 2886.29,-251.824"/>
<polygon fill="black" stroke="black" points="2887.57,-248.549 2877.06,-247.18 2884.42,-254.802 2887.57,-248.549"/>
</g>
<!-- node147 -->
<g id="node26" class="node"><title>node147</title>
<polygon fill="none" stroke="black" points="899,-324 845,-324 845,-288 899,-288 899,-324"/>
<text text-anchor="middle" x="872" y="-302.7" font-family="Times Roman,serif" font-size="12.00">nbcd</text>
</g>
<!-- node121&#45;&gt;node147 -->
<g id="edge196" class="edge"><title>node121&#45;&gt;node147</title>
<path fill="none" stroke="black" d="M2650.97,-737.021C2393.55,-731.984 1243.53,-708.288 1086,-684 939.139,-661.357 764,-742.596 764,-594 764,-594 764,-594 764,-450 764,-400.085 806.043,-356.4 837.666,-330.601"/>
<polygon fill="black" stroke="black" points="840.185,-333.071 845.856,-324.122 835.842,-327.581 840.185,-333.071"/>
</g>
<!-- node146 -->
<g id="node29" class="node"><title>node146</title>
<polygon fill="none" stroke="black" points="1363,-396 1309,-396 1309,-360 1363,-360 1363,-396"/>
<text text-anchor="middle" x="1336" y="-374.7" font-family="Times Roman,serif" font-size="12.00">eclrtl</text>
</g>
<!-- node121&#45;&gt;node146 -->
<g id="edge198" class="edge"><title>node121&#45;&gt;node146</title>
<path fill="none" stroke="black" d="M2650.94,-737.293C2427.99,-734.009 1545.7,-718.9 1427,-684 1312.74,-650.404 1256.04,-645.622 1201,-540 1170.42,-481.315 1250.32,-424.741 1299.94,-396.552"/>
<polygon fill="black" stroke="black" points="1301.77,-399.537 1308.82,-391.624 1298.37,-393.417 1301.77,-399.537"/>
</g>
<!-- node66 -->
<g id="node44" class="node"><title>node66</title>
<polygon fill="none" stroke="black" points="2543,-324 2481,-324 2481,-288 2543,-288 2543,-324"/>
<text text-anchor="middle" x="2512" y="-302.7" font-family="Times Roman,serif" font-size="12.00">dalibase</text>
</g>
<!-- node121&#45;&gt;node66 -->
<g id="edge176" class="edge"><title>node121&#45;&gt;node66</title>
<path fill="none" stroke="black" d="M2679.49,-719.616C2651.39,-694.459 2607,-646.413 2607,-594 2607,-594 2607,-594 2607,-450 2607,-402.091 2569.91,-357.831 2542.08,-331.365"/>
<polygon fill="black" stroke="black" points="2544.24,-328.594 2534.51,-324.384 2539.49,-333.738 2544.24,-328.594"/>
</g>
<!-- node55 -->
<g id="node50" class="node"><title>node55</title>
<polygon fill="none" stroke="black" points="2877,-396 2787,-396 2787,-360 2877,-360 2877,-396"/>
<text text-anchor="middle" x="2832" y="-374.7" font-family="Times Roman,serif" font-size="12.00">environment</text>
</g>
<!-- node121&#45;&gt;node55 -->
<g id="edge178" class="edge"><title>node121&#45;&gt;node55</title>
<path fill="none" stroke="black" d="M2716.64,-719.824C2748.79,-678.299 2823.82,-572.01 2838,-468 2840.82,-447.344 2839.08,-423.833 2836.77,-406.023"/>
<polygon fill="black" stroke="black" points="2840.21,-405.404 2835.33,-396.003 2833.28,-406.399 2840.21,-405.404"/>
</g>
<!-- node54 -->
<g id="node56" class="node"><title>node54</title>
<polygon fill="none" stroke="black" points="2079,-468 2013,-468 2013,-432 2079,-432 2079,-468"/>
<text text-anchor="middle" x="2046" y="-446.7" font-family="Times Roman,serif" font-size="12.00">dllserver</text>
</g>
<!-- node121&#45;&gt;node54 -->
<g id="edge194" class="edge"><title>node121&#45;&gt;node54</title>
<path fill="none" stroke="black" d="M2660.96,-719.984C2543.67,-668.488 2207.75,-521.01 2088.57,-468.688"/>
<polygon fill="black" stroke="black" points="2089.93,-465.466 2079.37,-464.651 2087.12,-471.875 2089.93,-465.466"/>
</g>
<!-- node53 -->
<g id="node71" class="node"><title>node53</title>
<polygon fill="none" stroke="black" points="1042,-468 982,-468 982,-432 1042,-432 1042,-468"/>
<text text-anchor="middle" x="1012" y="-446.7" font-family="Times Roman,serif" font-size="12.00">deftype</text>
</g>
<!-- node121&#45;&gt;node53 -->
<g id="edge200" class="edge"><title>node121&#45;&gt;node53</title>
<path fill="none" stroke="black" d="M2650.79,-737.645C2387.55,-735.642 1196.39,-724.372 1130,-684 1055.42,-638.645 1026.35,-529.846 1016.47,-478.17"/>
<polygon fill="black" stroke="black" points="1019.86,-477.272 1014.64,-468.054 1012.97,-478.516 1019.86,-477.272"/>
</g>
<!-- node64 -->
<g id="node76" class="node"><title>node64</title>
<polygon fill="none" stroke="black" points="1350,-540 1282,-540 1282,-504 1350,-504 1350,-540"/>
<text text-anchor="middle" x="1316" y="-518.7" font-family="Times Roman,serif" font-size="12.00">workunit</text>
</g>
<!-- node121&#45;&gt;node64 -->
<g id="edge202" class="edge"><title>node121&#45;&gt;node64</title>
<path fill="none" stroke="black" d="M2650.74,-737.766C2457.63,-736.546 1774.23,-729.067 1562,-684 1475.69,-665.673 1445.98,-667.007 1377,-612 1355.95,-595.212 1339.41,-569.187 1328.9,-549.432"/>
<polygon fill="black" stroke="black" points="1331.9,-547.614 1324.23,-540.306 1325.67,-550.803 1331.9,-547.614"/>
</g>
<!-- node180 -->
<g id="node104" class="node"><title>node180</title>
<ellipse fill="none" stroke="black" cx="3522" cy="-378" rx="85.1424" ry="18"/>
<text text-anchor="middle" x="3522" y="-374.7" font-family="Times Roman,serif" font-size="12.00">/usr/lib/libxalan&#45;c.so</text>
</g>
<!-- node121&#45;&gt;node180 -->
<g id="edge148" class="edge"><title>node121&#45;&gt;node180</title>
<path fill="none" stroke="black" d="M2753.02,-735.206C2875.28,-728.196 3182.23,-708.647 3282,-684 3383.76,-658.862 3500,-698.821 3500,-594 3500,-594 3500,-594 3500,-522 3500,-481.232 3508.72,-434.708 3515.18,-405.842"/>
<polygon fill="black" stroke="black" points="3518.61,-406.581 3517.44,-396.05 3511.78,-405.008 3518.61,-406.581"/>
</g>
<!-- node181 -->
<g id="node106" class="node"><title>node181</title>
<ellipse fill="none" stroke="black" cx="3718" cy="-378" rx="93.0912" ry="18"/>
<text text-anchor="middle" x="3718" y="-374.7" font-family="Times Roman,serif" font-size="12.00">/usr/lib/libxalanMsg.so</text>
</g>
<!-- node121&#45;&gt;node181 -->
<g id="edge150" class="edge"><title>node121&#45;&gt;node181</title>
<path fill="none" stroke="black" d="M2753.31,-735.929C2954.95,-727.123 3682,-688.796 3682,-594 3682,-594 3682,-594 3682,-522 3682,-480.507 3696.24,-434.243 3706.81,-405.624"/>
<polygon fill="black" stroke="black" points="3710.08,-406.865 3710.37,-396.274 3703.54,-404.377 3710.08,-406.865"/>
</g>
<!-- node182 -->
<g id="node108" class="node"><title>node182</title>
<ellipse fill="none" stroke="black" cx="3290" cy="-378" rx="90.9919" ry="18"/>
<text text-anchor="middle" x="3290" y="-374.7" font-family="Times Roman,serif" font-size="12.00">/usr/lib/libxerces&#45;c.so</text>
</g>
<!-- node121&#45;&gt;node182 -->
<g id="edge152" class="edge"><title>node121&#45;&gt;node182</title>
<path fill="none" stroke="black" d="M2753.33,-734.629C2846.73,-727.911 3040.54,-711.125 3102,-684 3158.54,-659.048 3208,-655.802 3208,-594 3208,-594 3208,-594 3208,-522 3208,-475.392 3240.84,-430.104 3264.96,-403.132"/>
<polygon fill="black" stroke="black" points="3267.6,-405.424 3271.8,-395.696 3262.45,-400.682 3267.6,-405.424"/>
</g>
<!-- node160 -->
<g id="node110" class="node"><title>node160</title>
<polygon fill="none" stroke="black" points="3371,-468 3317,-468 3317,-432 3371,-432 3371,-468"/>
<text text-anchor="middle" x="3344" y="-446.7" font-family="Times Roman,serif" font-size="12.00">xmllib</text>
</g>
<!-- node121&#45;&gt;node160 -->
<g id="edge154" class="edge"><title>node121&#45;&gt;node160</title>
<path fill="none" stroke="black" d="M2753.38,-735.732C2881.98,-729.667 3210.36,-711.629 3251,-684 3320.19,-636.961 3337.91,-529.47 3342.44,-478.205"/>
<polygon fill="black" stroke="black" points="3345.94,-478.403 3343.22,-468.162 3338.96,-477.86 3345.94,-478.403"/>
</g>
<!-- node110 -->
<g id="node116" class="node"><title>node110</title>
<polygon fill="none" stroke="black" points="3316,-540 3254,-540 3254,-504 3316,-504 3316,-540"/>
<text text-anchor="middle" x="3285" y="-518.7" font-family="Times Roman,serif" font-size="12.00">esphttp</text>
</g>
<!-- node121&#45;&gt;node110 -->
<g id="edge164" class="edge"><title>node121&#45;&gt;node110</title>
<path fill="none" stroke="black" d="M2753.09,-735.696C2876.84,-729.696 3185.2,-712.076 3222,-684 3264.15,-651.849 3278.12,-587.545 3282.73,-550.351"/>
<polygon fill="black" stroke="black" points="3286.24,-550.508 3283.84,-540.186 3279.28,-549.746 3286.24,-550.508"/>
</g>
<!-- node78 -->
<g id="node125" class="node"><title>node78</title>
<polygon fill="none" stroke="black" points="2748,-468 2694,-468 2694,-432 2748,-432 2748,-468"/>
<text text-anchor="middle" x="2721" y="-446.7" font-family="Times Roman,serif" font-size="12.00">dalift</text>
</g>
<!-- node121&#45;&gt;node78 -->
<g id="edge180" class="edge"><title>node121&#45;&gt;node78</title>
<path fill="none" stroke="black" d="M2709.41,-719.605C2718.73,-695.405 2734.2,-651.33 2740,-612 2746.91,-565.185 2736.7,-510.459 2728.78,-478.099"/>
<polygon fill="black" stroke="black" points="2732.07,-476.85 2726.21,-468.025 2725.29,-478.58 2732.07,-476.85"/>
</g>
<!-- node127 -->
<g id="node138" class="node"><title>node127</title>
<polygon fill="none" stroke="black" points="2731,-612 2673,-612 2673,-576 2731,-576 2731,-612"/>
<text text-anchor="middle" x="2702" y="-590.7" font-family="Times Roman,serif" font-size="12.00">SMCLib</text>
</g>
<!-- node121&#45;&gt;node127 -->
<g id="edge204" class="edge"><title>node121&#45;&gt;node127</title>
<path fill="none" stroke="black" d="M2702,-719.762C2702,-695.201 2702,-651.247 2702,-622.354"/>
<polygon fill="black" stroke="black" points="2705.5,-622.09 2702,-612.09 2698.5,-622.09 2705.5,-622.09"/>
</g>
<!-- node60 -->
<g id="node152" class="node"><title>node60</title>
<polygon fill="none" stroke="black" points="3179,-612 3085,-612 3085,-576 3179,-576 3179,-612"/>
<text text-anchor="middle" x="3132" y="-590.7" font-family="Times Roman,serif" font-size="12.00">roxiecommlib</text>
</g>
<!-- node121&#45;&gt;node60 -->
<g id="edge230" class="edge"><title>node121&#45;&gt;node60</title>
<path fill="none" stroke="black" d="M2753.24,-735.561C2841.81,-730.525 3019.03,-716.598 3071,-684 3094.33,-669.367 3110.88,-642.182 3120.8,-621.504"/>
<polygon fill="black" stroke="black" points="3124.06,-622.797 3125.02,-612.245 3117.69,-619.896 3124.06,-622.797"/>
</g>
<!-- node62 -->
<g id="node155" class="node"><title>node62</title>
<polygon fill="none" stroke="black" points="1756,-684 1658,-684 1658,-648 1756,-648 1756,-684"/>
<text text-anchor="middle" x="1707" y="-662.7" font-family="Times Roman,serif" font-size="12.00">roxiemanager</text>
</g>
<!-- node121&#45;&gt;node62 -->
<g id="edge234" class="edge"><title>node121&#45;&gt;node62</title>
<path fill="none" stroke="black" d="M2650.95,-734.306C2482.62,-722.125 1945.69,-683.272 1766.13,-670.279"/>
<polygon fill="black" stroke="black" points="1766.31,-666.783 1756.08,-669.552 1765.8,-673.764 1766.31,-666.783"/>
</g>
<!-- node152 -->
<g id="node4" class="node"><title>node152</title>
<polygon fill="none" stroke="black" points="1820,-36 1780.06,-18 1820,-3.55271e-15 1859.94,-18 1820,-36"/>
<text text-anchor="middle" x="1820" y="-14.7" font-family="Times Roman,serif" font-size="12.00">lzma</text>
</g>
<!-- node151&#45;&gt;node152 -->
<g id="edge4" class="edge"><title>node151&#45;&gt;node152</title>
<path fill="none" stroke="black" d="M1914.92,-74.0209C1894.47,-61.9494 1866.55,-45.4743 1846.29,-33.5172"/>
<polygon fill="black" stroke="black" points="1847.97,-30.4417 1837.58,-28.3733 1844.41,-36.4701 1847.97,-30.4417"/>
</g>
<!-- node187 -->
<g id="node6" class="node"><title>node187</title>
<ellipse fill="none" stroke="black" cx="1905" cy="-18" rx="27" ry="18"/>
<text text-anchor="middle" x="1905" y="-14.7" font-family="Times Roman,serif" font-size="12.00">dl</text>
</g>
<!-- node151&#45;&gt;node187 -->
<g id="edge6" class="edge"><title>node151&#45;&gt;node187</title>
<path fill="none" stroke="black" d="M1932.66,-71.8314C1928.41,-63.5451 1923.28,-53.5727 1918.61,-44.4748"/>
<polygon fill="black" stroke="black" points="1921.63,-42.7123 1913.95,-35.4177 1915.41,-45.9118 1921.63,-42.7123"/>
</g>
<!-- node179 -->
<g id="node8" class="node"><title>node179</title>
<ellipse fill="none" stroke="black" cx="1980" cy="-18" rx="30.0465" ry="18"/>
<text text-anchor="middle" x="1980" y="-14.7" font-family="Times Roman,serif" font-size="12.00">crypt</text>
</g>
<!-- node151&#45;&gt;node179 -->
<g id="edge8" class="edge"><title>node151&#45;&gt;node179</title>
<path fill="none" stroke="black" d="M1951.59,-71.8314C1955.96,-63.5451 1961.23,-53.5727 1966.03,-44.4748"/>
<polygon fill="black" stroke="black" points="1969.24,-45.8952 1970.81,-35.4177 1963.04,-42.6279 1969.24,-45.8952"/>
</g>
<!-- node188 -->
<g id="node10" class="node"><title>node188</title>
<ellipse fill="none" stroke="black" cx="2055" cy="-18" rx="27" ry="18"/>
<text text-anchor="middle" x="2055" y="-14.7" font-family="Times Roman,serif" font-size="12.00">rt</text>
</g>
<!-- node151&#45;&gt;node188 -->
<g id="edge10" class="edge"><title>node151&#45;&gt;node188</title>
<path fill="none" stroke="black" d="M1969.07,-72.7542C1986.41,-61.7009 2008.9,-47.375 2026.52,-36.1494"/>
<polygon fill="black" stroke="black" points="2028.68,-38.9209 2035.23,-30.5955 2024.92,-33.0174 2028.68,-38.9209"/>
</g>
<!-- node56&#45;&gt;node151 -->
<g id="edge14" class="edge"><title>node56&#45;&gt;node151</title>
<path fill="none" stroke="black" d="M1446.88,-592.527C1234.26,-582.572 38,-523.305 38,-450 38,-450 38,-450 38,-234 38,-180.776 68.8453,-166.67 117,-144 200.758,-104.57 1651.8,-92.1328 1904.59,-90.2614"/>
<polygon fill="black" stroke="black" points="1904.76,-93.7604 1914.74,-90.1873 1904.71,-86.7605 1904.76,-93.7604"/>
</g>
<!-- node153 -->
<g id="node15" class="node"><title>node153</title>
<polygon fill="none" stroke="black" points="2444,-180 2390,-180 2390,-144 2444,-144 2444,-180"/>
<text text-anchor="middle" x="2417" y="-158.7" font-family="Times Roman,serif" font-size="12.00">mp</text>
</g>
<!-- node56&#45;&gt;node153 -->
<g id="edge16" class="edge"><title>node56&#45;&gt;node153</title>
<path fill="none" stroke="black" d="M1486.88,-575.976C1507.51,-531.113 1567.77,-414.161 1657,-360 1737.58,-311.093 1777.93,-357.586 1866,-324 1950.69,-291.703 1953.85,-247.08 2039,-216 2101.27,-193.271 2296.93,-173.1 2379.57,-165.36"/>
<polygon fill="black" stroke="black" points="2380.13,-168.823 2389.76,-164.415 2379.48,-161.853 2380.13,-168.823"/>
</g>
<!-- node149 -->
<g id="node18" class="node"><title>node149</title>
<polygon fill="none" stroke="black" points="2102,-252 2048,-252 2048,-216 2102,-216 2102,-252"/>
<text text-anchor="middle" x="2075" y="-230.7" font-family="Times Roman,serif" font-size="12.00">hrpc</text>
</g>
<!-- node56&#45;&gt;node149 -->
<g id="edge20" class="edge"><title>node56&#45;&gt;node149</title>
<path fill="none" stroke="black" d="M1477.42,-575.899C1474.65,-531.372 1474.38,-416.074 1539,-360 1594.21,-312.086 1795.32,-342.662 1866,-324 1929.25,-307.299 1998.13,-274.545 2038.88,-253.494"/>
<polygon fill="black" stroke="black" points="2040.63,-256.53 2047.88,-248.801 2037.4,-250.323 2040.63,-256.53"/>
</g>
<!-- node56&#45;&gt;node59 -->
<g id="edge26" class="edge"><title>node56&#45;&gt;node59</title>
<path fill="none" stroke="black" d="M1511.26,-591.22C1588.93,-584.346 1792.37,-565.261 1961,-540 2132.29,-514.34 2179.07,-520.878 2344,-468 2525.78,-409.722 2727.66,-301.734 2809.96,-255.699"/>
<polygon fill="black" stroke="black" points="2811.93,-258.607 2818.94,-250.659 2808.51,-252.504 2811.93,-258.607"/>
</g>
<!-- node56&#45;&gt;node147 -->
<g id="edge32" class="edge"><title>node56&#45;&gt;node147</title>
<path fill="none" stroke="black" d="M1446.84,-593.293C1331.23,-590.442 941.385,-578.061 902,-540 846.162,-486.039 856.575,-383.663 865.736,-334.178"/>
<polygon fill="black" stroke="black" points="869.207,-334.668 867.706,-324.18 862.339,-333.315 869.207,-334.668"/>
</g>
<!-- node56&#45;&gt;node146 -->
<g id="edge36" class="edge"><title>node56&#45;&gt;node146</title>
<path fill="none" stroke="black" d="M1446.6,-578.904C1429.85,-569.696 1410.2,-556.511 1397,-540 1364.78,-499.684 1348.34,-440.555 1341,-405.997"/>
<polygon fill="black" stroke="black" points="1344.42,-405.222 1339.01,-396.109 1337.55,-406.604 1344.42,-405.222"/>
</g>
<!-- node150 -->
<g id="node41" class="node"><title>node150</title>
<polygon fill="none" stroke="black" points="1460,-540 1406,-540 1406,-504 1460,-504 1460,-540"/>
<text text-anchor="middle" x="1433" y="-518.7" font-family="Times Roman,serif" font-size="12.00">jhtree</text>
</g>
<!-- node56&#45;&gt;node150 -->
<g id="edge50" class="edge"><title>node56&#45;&gt;node150</title>
<path fill="none" stroke="black" d="M1467.39,-575.831C1462.2,-567.708 1455.98,-557.964 1450.26,-549.012"/>
<polygon fill="black" stroke="black" points="1453.1,-546.956 1444.76,-540.413 1447.2,-550.725 1453.1,-546.956"/>
</g>
<!-- node56&#45;&gt;node66 -->
<g id="edge54" class="edge"><title>node56&#45;&gt;node66</title>
<path fill="none" stroke="black" d="M1511.15,-588.533C1565.72,-579.171 1679.9,-559.214 1776,-540 2070.41,-481.137 2178.82,-550.921 2436,-396 2461.64,-380.557 2482.8,-353.359 2496.22,-332.892"/>
<polygon fill="black" stroke="black" points="2499.27,-334.628 2501.67,-324.308 2493.36,-330.88 2499.27,-334.628"/>
</g>
<!-- node56&#45;&gt;node55 -->
<g id="edge64" class="edge"><title>node56&#45;&gt;node55</title>
<path fill="none" stroke="black" d="M1511.13,-593.025C1670.75,-588.077 2374.68,-564.997 2469,-540 2572.75,-512.504 2586.47,-474.571 2685,-432 2715.03,-419.026 2749.3,-406.319 2777.2,-396.494"/>
<polygon fill="black" stroke="black" points="2778.49,-399.748 2786.78,-393.144 2776.18,-393.14 2778.49,-399.748"/>
</g>
<!-- node56&#45;&gt;node54 -->
<g id="edge74" class="edge"><title>node56&#45;&gt;node54</title>
<path fill="none" stroke="black" d="M1511.11,-585.845C1607.33,-561.407 1893.42,-488.75 2002.81,-460.969"/>
<polygon fill="black" stroke="black" points="2004,-464.278 2012.83,-458.424 2002.28,-457.493 2004,-464.278"/>
</g>
<!-- node56&#45;&gt;node53 -->
<g id="edge96" class="edge"><title>node56&#45;&gt;node53</title>
<path fill="none" stroke="black" d="M1446.71,-592.123C1389.14,-587.967 1265.64,-575.375 1168,-540 1122.92,-523.666 1075.86,-494.603 1045.38,-473.924"/>
<polygon fill="black" stroke="black" points="1047.08,-470.845 1036.86,-468.065 1043.11,-476.614 1047.08,-470.845"/>
</g>
<!-- node56&#45;&gt;node64 -->
<g id="edge104" class="edge"><title>node56&#45;&gt;node64</title>
<path fill="none" stroke="black" d="M1446.8,-579.775C1421.82,-568.74 1386.94,-553.334 1359.48,-541.205"/>
<polygon fill="black" stroke="black" points="1360.67,-537.903 1350.1,-537.064 1357.84,-544.306 1360.67,-537.903"/>
</g>
<!-- node63 -->
<g id="node84" class="node"><title>node63</title>
<polygon fill="none" stroke="black" points="987,-540 911,-540 911,-504 987,-504 987,-540"/>
<text text-anchor="middle" x="949" y="-518.7" font-family="Times Roman,serif" font-size="12.00">thorhelper</text>
</g>
<!-- node56&#45;&gt;node63 -->
<g id="edge118" class="edge"><title>node56&#45;&gt;node63</title>
<path fill="none" stroke="black" d="M1446.64,-589.604C1356.81,-577.401 1103.97,-543.052 997.363,-528.57"/>
<polygon fill="black" stroke="black" points="997.591,-525.069 987.211,-527.191 996.649,-532.005 997.591,-525.069"/>
</g>
<!-- node99 -->
<g id="node97" class="node"><title>node99</title>
<polygon fill="none" stroke="black" points="1264,-540 1210,-540 1210,-504 1264,-504 1264,-540"/>
<text text-anchor="middle" x="1237" y="-518.7" font-family="Times Roman,serif" font-size="12.00">hql</text>
</g>
<!-- node56&#45;&gt;node99 -->
<g id="edge136" class="edge"><title>node56&#45;&gt;node99</title>
<path fill="none" stroke="black" d="M1446.96,-587.757C1407.82,-579.669 1339.64,-564.084 1273.93,-539.978"/>
<polygon fill="black" stroke="black" points="1274.85,-536.585 1264.26,-536.359 1272.39,-543.141 1274.85,-536.585"/>
</g>
<!-- node153&#45;&gt;node151 -->
<g id="edge18" class="edge"><title>node153&#45;&gt;node151</title>
<path fill="none" stroke="black" d="M2389.76,-157.87C2309.08,-145.642 2071.33,-109.603 1979.13,-95.6278"/>
<polygon fill="black" stroke="black" points="1979.55,-92.1512 1969.13,-94.113 1978.5,-99.0722 1979.55,-92.1512"/>
</g>
<!-- node149&#45;&gt;node151 -->
<g id="edge22" class="edge"><title>node149&#45;&gt;node151</title>
<path fill="none" stroke="black" d="M2064.85,-215.856C2053.65,-196.745 2034.35,-166.377 2013,-144 2002.51,-133 1989.62,-122.495 1977.72,-113.724"/>
<polygon fill="black" stroke="black" points="1979.44,-110.651 1969.27,-107.661 1975.36,-116.337 1979.44,-110.651"/>
</g>
<!-- node149&#45;&gt;node153 -->
<g id="edge24" class="edge"><title>node149&#45;&gt;node153</title>
<path fill="none" stroke="black" d="M2102.12,-228.29C2162.98,-215.477 2310.51,-184.419 2379.84,-169.823"/>
<polygon fill="black" stroke="black" points="2380.81,-173.196 2389.88,-167.71 2379.37,-166.346 2380.81,-173.196"/>
</g>
<!-- node59&#45;&gt;node151 -->
<g id="edge28" class="edge"><title>node59&#45;&gt;node151</title>
<path fill="none" stroke="black" d="M2818.62,-221.009C2814.1,-219.213 2809.45,-217.48 2805,-216 2679.79,-174.407 2647.05,-166.232 2517,-144 2315.93,-109.628 2071.3,-95.7833 1979.33,-91.5473"/>
<polygon fill="black" stroke="black" points="1979.28,-88.0417 1969.13,-91.0887 1978.97,-95.0347 1979.28,-88.0417"/>
</g>
<!-- node59&#45;&gt;node153 -->
<g id="edge30" class="edge"><title>node59&#45;&gt;node153</title>
<path fill="none" stroke="black" d="M2818.75,-220.579C2814.21,-218.842 2809.53,-217.24 2805,-216 2679.28,-181.563 2524.33,-168.422 2454.38,-163.993"/>
<polygon fill="black" stroke="black" points="2454.49,-160.493 2444.3,-163.377 2454.07,-167.48 2454.49,-160.493"/>
</g>
<!-- node147&#45;&gt;node151 -->
<g id="edge34" class="edge"><title>node147&#45;&gt;node151</title>
<path fill="none" stroke="black" d="M870.366,-287.853C868.401,-253.569 869.733,-179.541 913,-144 952.072,-111.905 1724.94,-94.3777 1904.82,-90.7235"/>
<polygon fill="black" stroke="black" points="1904.92,-94.2222 1914.85,-90.5216 1904.78,-87.2236 1904.92,-94.2222"/>
</g>
<!-- node146&#45;&gt;node151 -->
<g id="edge46" class="edge"><title>node146&#45;&gt;node151</title>
<path fill="none" stroke="black" d="M1308.75,-367.362C1301.15,-364.674 1292.83,-361.99 1285,-360 1183.24,-334.128 994.39,-369.972 1060,-288 1168.7,-152.196 1750.51,-103.118 1904.55,-92.3994"/>
<polygon fill="black" stroke="black" points="1905.16,-95.8666 1914.89,-91.6933 1904.68,-88.8828 1905.16,-95.8666"/>
</g>
<!-- node146&#45;&gt;node147 -->
<g id="edge48" class="edge"><title>node146&#45;&gt;node147</title>
<path fill="none" stroke="black" d="M1308.71,-373.765C1229.57,-361.485 999.905,-325.847 909.344,-311.795"/>
<polygon fill="black" stroke="black" points="909.677,-308.305 899.259,-310.23 908.604,-315.222 909.677,-308.305"/>
</g>
<!-- node186 -->
<g id="node31" class="node"><title>node186</title>
<ellipse fill="none" stroke="black" cx="1564" cy="-306" rx="118.939" ry="18"/>
<text text-anchor="middle" x="1564" y="-302.7" font-family="Times Roman,serif" font-size="12.00">/usr/lib/libboost_regex&#45;mt.so</text>
</g>
<!-- node146&#45;&gt;node186 -->
<g id="edge38" class="edge"><title>node146&#45;&gt;node186</title>
<path fill="none" stroke="black" d="M1363.05,-369.458C1397.23,-358.665 1457.08,-339.766 1502.6,-325.391"/>
<polygon fill="black" stroke="black" points="1503.89,-328.654 1512.37,-322.305 1501.78,-321.979 1503.89,-328.654"/>
</g>
<!-- node183 -->
<g id="node33" class="node"><title>node183</title>
<ellipse fill="none" stroke="black" cx="1779" cy="-306" rx="77.9931" ry="18"/>
<text text-anchor="middle" x="1779" y="-302.7" font-family="Times Roman,serif" font-size="12.00">/usr/lib/libicuuc.so</text>
</g>
<!-- node146&#45;&gt;node183 -->
<g id="edge40" class="edge"><title>node146&#45;&gt;node183</title>
<path fill="none" stroke="black" d="M1363.18,-372.022C1380.76,-368.274 1404.17,-363.507 1425,-360 1543.08,-340.121 1573.97,-344.142 1692,-324 1698.54,-322.884 1705.33,-321.636 1712.12,-320.33"/>
<polygon fill="black" stroke="black" points="1712.88,-323.748 1722.01,-318.385 1711.53,-316.879 1712.88,-323.748"/>
</g>
<!-- node184 -->
<g id="node35" class="node"><title>node184</title>
<ellipse fill="none" stroke="black" cx="1154" cy="-306" rx="85.1424" ry="18"/>
<text text-anchor="middle" x="1154" y="-302.7" font-family="Times Roman,serif" font-size="12.00">/usr/lib/libicui18n.so</text>
</g>
<!-- node146&#45;&gt;node184 -->
<g id="edge42" class="edge"><title>node146&#45;&gt;node184</title>
<path fill="none" stroke="black" d="M1308.75,-367.221C1281.13,-356.295 1237.77,-339.141 1203.97,-325.767"/>
<polygon fill="black" stroke="black" points="1204.85,-322.351 1194.26,-321.927 1202.27,-328.86 1204.85,-322.351"/>
</g>
<!-- node185 -->
<g id="node37" class="node"><title>node185</title>
<ellipse fill="none" stroke="black" cx="1342" cy="-306" rx="85.1424" ry="18"/>
<text text-anchor="middle" x="1342" y="-302.7" font-family="Times Roman,serif" font-size="12.00">/usr/lib/libicudata.so</text>
</g>
<!-- node146&#45;&gt;node185 -->
<g id="edge44" class="edge"><title>node146&#45;&gt;node185</title>
<path fill="none" stroke="black" d="M1337.51,-359.831C1338.16,-352.131 1338.92,-342.974 1339.63,-334.417"/>
<polygon fill="black" stroke="black" points="1343.12,-334.669 1340.47,-324.413 1336.15,-334.088 1343.12,-334.669"/>
</g>
<!-- node150&#45;&gt;node151 -->
<g id="edge52" class="edge"><title>node150&#45;&gt;node151</title>
<path fill="none" stroke="black" d="M1417.15,-503.957C1386.09,-469.852 1313.45,-396.116 1236,-360 1153.02,-321.31 1011.48,-373.956 1043,-288 1086.61,-169.056 1165.56,-172.491 1289,-144 1407.62,-116.622 1784.37,-97.2762 1904.68,-91.67"/>
<polygon fill="black" stroke="black" points="1905.03,-95.1577 1914.86,-91.2001 1904.71,-88.1651 1905.03,-95.1577"/>
</g>
<!-- node66&#45;&gt;node151 -->
<g id="edge56" class="edge"><title>node66&#45;&gt;node151</title>
<path fill="none" stroke="black" d="M2511.31,-287.859C2508.94,-253.586 2498.52,-179.575 2453,-144 2415.81,-114.929 2090.76,-97.0142 1979.31,-91.6817"/>
<polygon fill="black" stroke="black" points="1979.36,-88.1803 1969.21,-91.2049 1979.03,-95.1725 1979.36,-88.1803"/>
</g>
<!-- node66&#45;&gt;node153 -->
<g id="edge58" class="edge"><title>node66&#45;&gt;node153</title>
<path fill="none" stroke="black" d="M2499.97,-287.762C2483.41,-262.66 2453.48,-217.302 2434.46,-188.467"/>
<polygon fill="black" stroke="black" points="2437.36,-186.509 2428.93,-180.09 2431.52,-190.364 2437.36,-186.509"/>
</g>
<!-- node66&#45;&gt;node149 -->
<g id="edge60" class="edge"><title>node66&#45;&gt;node149</title>
<path fill="none" stroke="black" d="M2480.92,-300.88C2402.49,-287.957 2196.77,-254.063 2112.16,-240.123"/>
<polygon fill="black" stroke="black" points="2112.66,-236.658 2102.23,-238.486 2111.52,-243.565 2112.66,-236.658"/>
</g>
<!-- node66&#45;&gt;node59 -->
<g id="edge62" class="edge"><title>node66&#45;&gt;node59</title>
<path fill="none" stroke="black" d="M2543.01,-299.355C2604.51,-286.176 2741.8,-256.757 2809.18,-242.318"/>
<polygon fill="black" stroke="black" points="2809.94,-245.734 2818.99,-240.217 2808.48,-238.89 2809.94,-245.734"/>
</g>
<!-- node55&#45;&gt;node151 -->
<g id="edge66" class="edge"><title>node55&#45;&gt;node151</title>
<path fill="none" stroke="black" d="M2847.97,-359.9C2874.2,-327.904 2920.25,-260.534 2886,-216 2810.03,-117.21 2737.83,-165.069 2615,-144 2375.1,-102.851 2081.59,-92.928 1979.28,-90.6476"/>
<polygon fill="black" stroke="black" points="1979.22,-87.1456 1969.14,-90.4332 1979.07,-94.1441 1979.22,-87.1456"/>
</g>
<!-- node55&#45;&gt;node153 -->
<g id="edge68" class="edge"><title>node55&#45;&gt;node153</title>
<path fill="none" stroke="black" d="M2826.1,-359.847C2813.94,-325.554 2782.63,-251.509 2729,-216 2647.85,-162.273 2608.83,-196.969 2513,-180 2493.6,-176.565 2472.03,-172.54 2454.26,-169.168"/>
<polygon fill="black" stroke="black" points="2454.76,-165.7 2444.28,-167.268 2453.45,-172.577 2454.76,-165.7"/>
</g>
<!-- node55&#45;&gt;node59 -->
<g id="edge70" class="edge"><title>node55&#45;&gt;node59</title>
<path fill="none" stroke="black" d="M2834.03,-359.762C2836.76,-335.201 2841.64,-291.247 2844.85,-262.354"/>
<polygon fill="black" stroke="black" points="2848.36,-262.415 2845.99,-252.09 2841.41,-261.642 2848.36,-262.415"/>
</g>
<!-- node55&#45;&gt;node66 -->
<g id="edge72" class="edge"><title>node55&#45;&gt;node66</title>
<path fill="none" stroke="black" d="M2786.83,-367.837C2724.62,-353.839 2613.45,-328.826 2553.33,-315.299"/>
<polygon fill="black" stroke="black" points="2553.95,-311.852 2543.43,-313.071 2552.42,-318.681 2553.95,-311.852"/>
</g>
<!-- node54&#45;&gt;node151 -->
<g id="edge78" class="edge"><title>node54&#45;&gt;node151</title>
<path fill="none" stroke="black" d="M2012.76,-447.629C1925.68,-441.083 1696.1,-421.538 1674,-396 1663.53,-383.901 1663.62,-372.175 1674,-360 1739.71,-282.94 1826.57,-394.779 1899,-324 1955.01,-269.269 1951.64,-167.264 1946.13,-118.023"/>
<polygon fill="black" stroke="black" points="1949.6,-117.572 1944.9,-108.075 1942.65,-118.429 1949.6,-117.572"/>
</g>
<!-- node54&#45;&gt;node153 -->
<g id="edge80" class="edge"><title>node54&#45;&gt;node153</title>
<path fill="none" stroke="black" d="M2079.29,-447.419C2144.35,-441.758 2285.26,-426.272 2322,-396 2355.14,-368.694 2393.18,-246.181 2409.23,-190.14"/>
<polygon fill="black" stroke="black" points="2412.69,-190.752 2412.05,-180.177 2405.95,-188.845 2412.69,-190.752"/>
</g>
<!-- node54&#45;&gt;node149 -->
<g id="edge82" class="edge"><title>node54&#45;&gt;node149</title>
<path fill="none" stroke="black" d="M2012.91,-447.472C1927.94,-440.648 1707.26,-420.693 1686,-396 1675.56,-383.876 1675.26,-371.856 1686,-360 1740.73,-299.605 1988.89,-376.771 2051,-324 2068.55,-309.09 2074,-282.918 2075.38,-262.628"/>
<polygon fill="black" stroke="black" points="2078.89,-262.485 2075.78,-252.357 2071.9,-262.214 2078.89,-262.485"/>
</g>
<!-- node54&#45;&gt;node59 -->
<g id="edge86" class="edge"><title>node54&#45;&gt;node59</title>
<path fill="none" stroke="black" d="M2079.24,-446.64C2148.73,-439.225 2306.89,-420.179 2355,-396 2375.79,-385.553 2375.96,-375.836 2393,-360 2427.8,-327.663 2429.04,-308.271 2472,-288 2502.12,-273.789 2718.82,-248.383 2808.89,-238.297"/>
<polygon fill="black" stroke="black" points="2809.42,-241.76 2818.98,-237.173 2808.65,-234.803 2809.42,-241.76"/>
</g>
<!-- node54&#45;&gt;node146 -->
<g id="edge84" class="edge"><title>node54&#45;&gt;node146</title>
<path fill="none" stroke="black" d="M2012.71,-446.624C1894.83,-434.67 1497.7,-394.398 1373.47,-381.8"/>
<polygon fill="black" stroke="black" points="1373.62,-378.297 1363.32,-380.77 1372.91,-385.261 1373.62,-378.297"/>
</g>
<!-- node54&#45;&gt;node66 -->
<g id="edge88" class="edge"><title>node54&#45;&gt;node66</title>
<path fill="none" stroke="black" d="M2079.08,-446.932C2154.39,-439.614 2336.52,-419.944 2393,-396 2429.05,-380.716 2464.02,-352.098 2486.62,-331.224"/>
<polygon fill="black" stroke="black" points="2489.2,-333.603 2494.07,-324.199 2484.4,-328.509 2489.2,-333.603"/>
</g>
<!-- node54&#45;&gt;node55 -->
<g id="edge90" class="edge"><title>node54&#45;&gt;node55</title>
<path fill="none" stroke="black" d="M2079.27,-446.952C2201.24,-435.78 2624.63,-396.996 2776.91,-383.047"/>
<polygon fill="black" stroke="black" points="2777.33,-386.523 2786.97,-382.125 2776.69,-379.552 2777.33,-386.523"/>
</g>
<!-- node176 -->
<g id="node58" class="node"><title>node176</title>
<ellipse fill="none" stroke="black" cx="1826" cy="-378" rx="130.789" ry="18"/>
<text text-anchor="middle" x="1826" y="-374.7" font-family="Times Roman,serif" font-size="12.00">/usr/lib/x86_64&#45;linux&#45;gnu/libz.so</text>
</g>
<!-- node54&#45;&gt;node176 -->
<g id="edge76" class="edge"><title>node54&#45;&gt;node176</title>
<path fill="none" stroke="black" d="M2012.59,-439.065C1979.2,-428.139 1927.13,-411.098 1886.47,-397.791"/>
<polygon fill="black" stroke="black" points="1887.52,-394.452 1876.93,-394.668 1885.35,-401.105 1887.52,-394.452"/>
</g>
<!-- node177 -->
<g id="node67" class="node"><title>node177</title>
<ellipse fill="none" stroke="black" cx="2046" cy="-378" rx="70.8437" ry="18"/>
<text text-anchor="middle" x="2046" y="-374.7" font-family="Times Roman,serif" font-size="12.00">/usr/lib/libbfd.so</text>
</g>
<!-- node54&#45;&gt;node177 -->
<g id="edge92" class="edge"><title>node54&#45;&gt;node177</title>
<path fill="none" stroke="black" d="M2046,-431.831C2046,-424.131 2046,-414.974 2046,-406.417"/>
<polygon fill="black" stroke="black" points="2049.5,-406.413 2046,-396.413 2042.5,-406.413 2049.5,-406.413"/>
</g>
<!-- node178 -->
<g id="node69" class="node"><title>node178</title>
<ellipse fill="none" stroke="black" cx="2224" cy="-378" rx="89.0421" ry="18"/>
<text text-anchor="middle" x="2224" y="-374.7" font-family="Times Roman,serif" font-size="12.00">/usr/lib/libiberty_pic.a</text>
</g>
<!-- node54&#45;&gt;node178 -->
<g id="edge94" class="edge"><title>node54&#45;&gt;node178</title>
<path fill="none" stroke="black" d="M2079.06,-436.626C2105.83,-425.801 2143.94,-410.385 2174.36,-398.078"/>
<polygon fill="black" stroke="black" points="2175.99,-401.196 2183.95,-394.201 2173.36,-394.707 2175.99,-401.196"/>
</g>
<!-- node53&#45;&gt;node151 -->
<g id="edge98" class="edge"><title>node53&#45;&gt;node151</title>
<path fill="none" stroke="black" d="M981.912,-444.052C923.845,-430.632 802,-392.203 802,-306 802,-306 802,-306 802,-234 802,-180.186 834.414,-167.139 883,-144 976.757,-99.3484 1727.95,-91.4578 1904.81,-90.2143"/>
<polygon fill="black" stroke="black" points="1904.94,-93.7136 1914.92,-90.1462 1904.89,-86.7137 1904.94,-93.7136"/>
</g>
<!-- node53&#45;&gt;node147 -->
<g id="edge100" class="edge"><title>node53&#45;&gt;node147</title>
<path fill="none" stroke="black" d="M996.089,-431.667C979.87,-413.189 953.785,-384.043 930,-360 920.38,-350.276 909.484,-339.96 899.754,-330.979"/>
<polygon fill="black" stroke="black" points="901.985,-328.275 892.248,-324.099 897.255,-333.436 901.985,-328.275"/>
</g>
<!-- node53&#45;&gt;node146 -->
<g id="edge102" class="edge"><title>node53&#45;&gt;node146</title>
<path fill="none" stroke="black" d="M1042.19,-443.291C1101.84,-430.036 1234.6,-400.534 1299.23,-386.172"/>
<polygon fill="black" stroke="black" points="1299.99,-389.587 1308.99,-384.001 1298.47,-382.754 1299.99,-389.587"/>
</g>
<!-- node64&#45;&gt;node151 -->
<g id="edge106" class="edge"><title>node64&#45;&gt;node151</title>
<path fill="none" stroke="black" d="M1305.01,-503.725C1281.65,-465.454 1226.83,-378.858 1198,-360 1135.91,-319.384 1081.46,-381.841 1035,-324 1016.4,-300.845 1049.73,-225.844 1056,-216 1082.05,-175.09 1093.21,-162.61 1138,-144 1209.29,-114.379 1755.35,-95.6929 1904.47,-91.106"/>
<polygon fill="black" stroke="black" points="1905.02,-94.591 1914.91,-90.7882 1904.81,-87.5943 1905.02,-94.591"/>
</g>
<!-- node64&#45;&gt;node147 -->
<g id="edge112" class="edge"><title>node64&#45;&gt;node147</title>
<path fill="none" stroke="black" d="M1281.89,-505.091C1260.61,-494.504 1232.67,-480.539 1208,-468 1114.79,-420.619 1093.75,-404.223 999,-360 961.453,-342.475 951.083,-340.329 913,-324 911.616,-323.406 910.206,-322.8 908.783,-322.185"/>
<polygon fill="black" stroke="black" points="909.885,-318.848 899.319,-318.072 907.095,-325.268 909.885,-318.848"/>
</g>
<!-- node64&#45;&gt;node146 -->
<g id="edge114" class="edge"><title>node64&#45;&gt;node146</title>
<path fill="none" stroke="black" d="M1318.53,-503.762C1321.94,-479.201 1328.05,-435.247 1332.06,-406.354"/>
<polygon fill="black" stroke="black" points="1335.58,-406.476 1333.49,-396.09 1328.65,-405.513 1335.58,-406.476"/>
</g>
<!-- node64&#45;&gt;node66 -->
<g id="edge108" class="edge"><title>node64&#45;&gt;node66</title>
<path fill="none" stroke="black" d="M1347.34,-503.763C1409.5,-468.632 1553.83,-392.203 1686,-360 1837.37,-323.12 2324.86,-309.975 2470.52,-306.816"/>
<polygon fill="black" stroke="black" points="2470.88,-310.309 2480.81,-306.597 2470.73,-303.311 2470.88,-310.309"/>
</g>
<!-- node64&#45;&gt;node54 -->
<g id="edge110" class="edge"><title>node64&#45;&gt;node54</title>
<path fill="none" stroke="black" d="M1350.1,-513.345C1364.49,-509.973 1381.48,-506.36 1397,-504 1623.4,-469.588 1897.81,-455.826 2002.54,-451.579"/>
<polygon fill="black" stroke="black" points="2002.87,-455.069 2012.72,-451.175 2002.59,-448.074 2002.87,-455.069"/>
</g>
<!-- node64&#45;&gt;node53 -->
<g id="edge116" class="edge"><title>node64&#45;&gt;node53</title>
<path fill="none" stroke="black" d="M1281.96,-507.033C1278.96,-505.932 1275.94,-504.901 1273,-504 1195.42,-480.216 1173.41,-484.7 1094,-468 1080.36,-465.132 1065.47,-461.895 1052.17,-458.965"/>
<polygon fill="black" stroke="black" points="1052.87,-455.535 1042.35,-456.795 1051.36,-462.371 1052.87,-455.535"/>
</g>
<!-- node63&#45;&gt;node151 -->
<g id="edge120" class="edge"><title>node63&#45;&gt;node151</title>
<path fill="none" stroke="black" d="M910.927,-519.811C742.9,-509.653 76,-463.926 76,-378 76,-378 76,-378 76,-234 76,-180.247 -186.455,-236.955 301,-144 463.191,-113.071 1676.01,-93.8938 1904.83,-90.5314"/>
<polygon fill="black" stroke="black" points="1905.02,-94.029 1914.97,-90.3832 1904.92,-87.0297 1905.02,-94.029"/>
</g>
<!-- node63&#45;&gt;node147 -->
<g id="edge122" class="edge"><title>node63&#45;&gt;node147</title>
<path fill="none" stroke="black" d="M942.77,-503.986C932.39,-474.044 910.834,-412.16 892,-360 888.959,-351.577 885.597,-342.437 882.511,-334.113"/>
<polygon fill="black" stroke="black" points="885.691,-332.62 878.925,-324.467 879.129,-335.06 885.691,-332.62"/>
</g>
<!-- node63&#45;&gt;node146 -->
<g id="edge124" class="edge"><title>node63&#45;&gt;node146</title>
<path fill="none" stroke="black" d="M948.375,-503.822C948.733,-483.2 952.736,-450.095 973,-432 997.118,-410.463 1211.24,-389.127 1298.86,-381.216"/>
<polygon fill="black" stroke="black" points="1299.25,-384.695 1308.9,-380.319 1298.63,-377.723 1299.25,-384.695"/>
</g>
<!-- node63&#45;&gt;node53 -->
<g id="edge126" class="edge"><title>node63&#45;&gt;node53</title>
<path fill="none" stroke="black" d="M964.898,-503.831C972.228,-495.454 981.066,-485.353 989.097,-476.175"/>
<polygon fill="black" stroke="black" points="991.937,-478.244 995.888,-468.413 986.669,-473.634 991.937,-478.244"/>
</g>
<!-- node156 -->
<g id="node90" class="node"><title>node156</title>
<polygon fill="none" stroke="black" points="493,-468 399,-468 399,-432 493,-432 493,-468"/>
<text text-anchor="middle" x="446" y="-446.7" font-family="Times Roman,serif" font-size="12.00">securesocket</text>
</g>
<!-- node63&#45;&gt;node156 -->
<g id="edge128" class="edge"><title>node63&#45;&gt;node156</title>
<path fill="none" stroke="black" d="M910.78,-516.529C823.029,-503.968 606.732,-473.007 503.123,-458.177"/>
<polygon fill="black" stroke="black" points="503.551,-454.702 493.156,-456.75 502.559,-461.632 503.551,-454.702"/>
</g>
<!-- node156&#45;&gt;node151 -->
<g id="edge130" class="edge"><title>node156&#45;&gt;node151</title>
<path fill="none" stroke="black" d="M398.759,-448.175C320.83,-444.163 170.229,-431.869 133,-396 103.559,-367.635 114,-346.882 114,-306 114,-306 114,-306 114,-234 114,-140.784 1644.62,-97.5889 1904.67,-90.9229"/>
<polygon fill="black" stroke="black" points="1904.83,-94.4199 1914.74,-90.6667 1904.65,-87.4221 1904.83,-94.4199"/>
</g>
<!-- node191 -->
<g id="node93" class="node"><title>node191</title>
<ellipse fill="none" stroke="black" cx="599" cy="-378" rx="137.138" ry="18"/>
<text text-anchor="middle" x="599" y="-374.7" font-family="Times Roman,serif" font-size="12.00">/usr/lib/x86_64&#45;linux&#45;gnu/libssl.so</text>
</g>
<!-- node156&#45;&gt;node191 -->
<g id="edge132" class="edge"><title>node156&#45;&gt;node191</title>
<path fill="none" stroke="black" d="M484.608,-431.831C505.368,-422.062 531.107,-409.95 552.91,-399.689"/>
<polygon fill="black" stroke="black" points="554.429,-402.843 561.987,-395.418 551.449,-396.509 554.429,-402.843"/>
</g>
<!-- node192 -->
<g id="node95" class="node"><title>node192</title>
<ellipse fill="none" stroke="black" cx="293" cy="-378" rx="150.937" ry="18"/>
<text text-anchor="middle" x="293" y="-374.7" font-family="Times Roman,serif" font-size="12.00">/usr/lib/x86_64&#45;linux&#45;gnu/libcrypto.so</text>
</g>
<!-- node156&#45;&gt;node192 -->
<g id="edge134" class="edge"><title>node156&#45;&gt;node192</title>
<path fill="none" stroke="black" d="M407.392,-431.831C386.71,-422.099 361.085,-410.04 339.334,-399.804"/>
<polygon fill="black" stroke="black" points="340.814,-396.632 330.275,-395.541 337.833,-402.966 340.814,-396.632"/>
</g>
<!-- node99&#45;&gt;node151 -->
<g id="edge138" class="edge"><title>node99&#45;&gt;node151</title>
<path fill="none" stroke="black" d="M1209.72,-506.77C1161.78,-478.23 1063.92,-411.589 1026,-324 992.866,-247.469 1008.02,-187.775 1079,-144 1150.04,-100.19 1748.92,-91.7448 1904.95,-90.2825"/>
<polygon fill="black" stroke="black" points="1905.03,-93.7821 1915,-90.1924 1904.96,-86.7824 1905.03,-93.7821"/>
</g>
<!-- node99&#45;&gt;node147 -->
<g id="edge140" class="edge"><title>node99&#45;&gt;node147</title>
<path fill="none" stroke="black" d="M1209.7,-511.958C1169.68,-497.198 1099.23,-471.055 1094,-468 1072.48,-455.42 1070.29,-447.786 1051,-432 1011.36,-399.556 1002.98,-389.347 961,-360 944.002,-348.119 924.361,-336.039 907.861,-326.326"/>
<polygon fill="black" stroke="black" points="909.455,-323.204 899.054,-321.19 905.929,-329.251 909.455,-323.204"/>
</g>
<!-- node99&#45;&gt;node146 -->
<g id="edge142" class="edge"><title>node99&#45;&gt;node146</title>
<path fill="none" stroke="black" d="M1249.54,-503.762C1266.8,-478.66 1297.98,-433.302 1317.8,-404.467"/>
<polygon fill="black" stroke="black" points="1320.78,-406.313 1323.56,-396.09 1315.01,-402.347 1320.78,-406.313"/>
</g>
<!-- node99&#45;&gt;node53 -->
<g id="edge144" class="edge"><title>node99&#45;&gt;node53</title>
<path fill="none" stroke="black" d="M1209.9,-509.368C1205.31,-507.441 1200.56,-505.574 1196,-504 1135.28,-483.018 1116.98,-488.21 1056,-468 1054.58,-467.529 1053.14,-467.035 1051.69,-466.523"/>
<polygon fill="black" stroke="black" points="1052.69,-463.159 1042.09,-462.944 1050.24,-469.718 1052.69,-463.159"/>
</g>
<!-- node160&#45;&gt;node151 -->
<g id="edge162" class="edge"><title>node160&#45;&gt;node151</title>
<path fill="none" stroke="black" d="M3363.63,-431.702C3372.97,-421.957 3383.48,-409.263 3390,-396 3408.03,-359.31 3409,-346.882 3409,-306 3409,-306 3409,-306 3409,-234 3409,-126.709 3289.87,-166.652 3185,-144 3064.75,-118.026 2174.13,-95.5162 1979.5,-90.8749"/>
<polygon fill="black" stroke="black" points="1979.3,-87.3692 1969.22,-90.6309 1979.13,-94.3672 1979.3,-87.3692"/>
</g>
<!-- node160&#45;&gt;node180 -->
<g id="edge156" class="edge"><title>node160&#45;&gt;node180</title>
<path fill="none" stroke="black" d="M3371.03,-439.065C3398.03,-428.144 3440.13,-411.115 3473.02,-397.811"/>
<polygon fill="black" stroke="black" points="3474.51,-400.984 3482.47,-393.99 3471.89,-394.495 3474.51,-400.984"/>
</g>
<!-- node160&#45;&gt;node181 -->
<g id="edge158" class="edge"><title>node160&#45;&gt;node181</title>
<path fill="none" stroke="black" d="M3371.2,-444.764C3427.41,-433.942 3558.14,-408.776 3642.06,-392.62"/>
<polygon fill="black" stroke="black" points="3642.9,-396.023 3652.05,-390.695 3641.57,-389.149 3642.9,-396.023"/>
</g>
<!-- node160&#45;&gt;node182 -->
<g id="edge160" class="edge"><title>node160&#45;&gt;node182</title>
<path fill="none" stroke="black" d="M3330.37,-431.831C3324.06,-423.411 3316.44,-413.249 3309.53,-404.034"/>
<polygon fill="black" stroke="black" points="3312.24,-401.813 3303.44,-395.913 3306.64,-406.013 3312.24,-401.813"/>
</g>
<!-- node110&#45;&gt;node151 -->
<g id="edge172" class="edge"><title>node110&#45;&gt;node151</title>
<path fill="none" stroke="black" d="M3266.95,-503.654C3245.27,-480.534 3209.4,-438.64 3190,-396 3173.07,-358.79 3171,-346.882 3171,-306 3171,-306 3171,-306 3171,-234 3171,-192.602 3179.26,-169.95 3147,-144 3100.41,-106.52 2177.6,-92.9325 1979.32,-90.4401"/>
<polygon fill="black" stroke="black" points="1979.16,-86.938 1969.12,-90.3137 1979.07,-93.9375 1979.16,-86.938"/>
</g>
<!-- node110&#45;&gt;node180 -->
<g id="edge166" class="edge"><title>node110&#45;&gt;node180</title>
<path fill="none" stroke="black" d="M3316.02,-504.862C3334.69,-494.426 3358.86,-480.699 3380,-468 3417.07,-445.732 3458.8,-419.091 3487.38,-400.599"/>
<polygon fill="black" stroke="black" points="3489.32,-403.512 3495.8,-395.135 3485.51,-397.639 3489.32,-403.512"/>
</g>
<!-- node110&#45;&gt;node181 -->
<g id="edge168" class="edge"><title>node110&#45;&gt;node181</title>
<path fill="none" stroke="black" d="M3316.14,-511.644C3388.45,-487.595 3568.61,-427.682 3661.15,-396.905"/>
<polygon fill="black" stroke="black" points="3662.53,-400.137 3670.91,-393.66 3660.32,-393.495 3662.53,-400.137"/>
</g>
<!-- node110&#45;&gt;node182 -->
<g id="edge170" class="edge"><title>node110&#45;&gt;node182</title>
<path fill="none" stroke="black" d="M3285.63,-503.762C3286.49,-479.201 3288.01,-435.247 3289.02,-406.354"/>
<polygon fill="black" stroke="black" points="3292.52,-406.205 3289.37,-396.09 3285.53,-405.962 3292.52,-406.205"/>
</g>
<!-- node110&#45;&gt;node160 -->
<g id="edge174" class="edge"><title>node110&#45;&gt;node160</title>
<path fill="none" stroke="black" d="M3299.89,-503.831C3306.75,-495.454 3315.03,-485.353 3322.55,-476.175"/>
<polygon fill="black" stroke="black" points="3325.28,-478.366 3328.91,-468.413 3319.87,-473.93 3325.28,-478.366"/>
</g>
<!-- node78&#45;&gt;node151 -->
<g id="edge182" class="edge"><title>node78&#45;&gt;node151</title>
<path fill="none" stroke="black" d="M2748.11,-446.096C2794.75,-438.766 2886.98,-421.363 2906,-396 2953.99,-331.995 2949.44,-283.18 2906,-216 2863.66,-150.517 2821.65,-162.911 2746,-144 2597.69,-106.925 2116.61,-93.7957 1979.05,-90.7483"/>
<polygon fill="black" stroke="black" points="1979.08,-87.2483 1969.01,-90.5304 1978.93,-94.2467 1979.08,-87.2483"/>
</g>
<!-- node78&#45;&gt;node153 -->
<g id="edge184" class="edge"><title>node78&#45;&gt;node153</title>
<path fill="none" stroke="black" d="M2723.32,-431.799C2724.86,-412.64 2724.68,-382.233 2712,-360 2653.86,-258.078 2519.23,-198.297 2453.89,-174.308"/>
<polygon fill="black" stroke="black" points="2454.99,-170.985 2444.4,-170.896 2452.62,-177.572 2454.99,-170.985"/>
</g>
<!-- node78&#45;&gt;node149 -->
<g id="edge186" class="edge"><title>node78&#45;&gt;node149</title>
<path fill="none" stroke="black" d="M2718.54,-431.805C2715.04,-412.086 2706.92,-380.674 2689,-360 2643.94,-308.027 2617.75,-308.216 2552,-288 2469.75,-262.709 2209.8,-243.082 2112.37,-236.439"/>
<polygon fill="black" stroke="black" points="2112.33,-232.928 2102.11,-235.747 2111.85,-239.912 2112.33,-232.928"/>
</g>
<!-- node78&#45;&gt;node59 -->
<g id="edge188" class="edge"><title>node78&#45;&gt;node59</title>
<path fill="none" stroke="black" d="M2748.26,-445.052C2790.75,-436.722 2869.64,-418.573 2886,-396 2915.49,-355.313 2887.36,-295.119 2866.3,-260.716"/>
<polygon fill="black" stroke="black" points="2869.17,-258.717 2860.86,-252.143 2863.26,-262.463 2869.17,-258.717"/>
</g>
<!-- node78&#45;&gt;node66 -->
<g id="edge190" class="edge"><title>node78&#45;&gt;node66</title>
<path fill="none" stroke="black" d="M2712.81,-431.972C2702.79,-411.804 2684.04,-379.422 2659,-360 2627.69,-335.714 2584.4,-321.579 2552.9,-313.908"/>
<polygon fill="black" stroke="black" points="2553.65,-310.49 2543.12,-311.64 2552.07,-317.309 2553.65,-310.49"/>
</g>
<!-- node78&#45;&gt;node55 -->
<g id="edge192" class="edge"><title>node78&#45;&gt;node55</title>
<path fill="none" stroke="black" d="M2748.15,-432.387C2762.32,-423.199 2779.85,-411.827 2795.21,-401.861"/>
<polygon fill="black" stroke="black" points="2797.48,-404.561 2803.97,-396.183 2793.67,-398.689 2797.48,-404.561"/>
</g>
<!-- node127&#45;&gt;node151 -->
<g id="edge206" class="edge"><title>node127&#45;&gt;node151</title>
<path fill="none" stroke="black" d="M2731.22,-591.831C2822.3,-583.333 3095,-544.027 3095,-378 3095,-378 3095,-378 3095,-234 3095,-118.802 2177.03,-94.5343 1979.26,-90.6427"/>
<polygon fill="black" stroke="black" points="1979.15,-87.14 1969.08,-90.4481 1979.01,-94.1387 1979.15,-87.14"/>
</g>
<!-- node127&#45;&gt;node59 -->
<g id="edge208" class="edge"><title>node127&#45;&gt;node59</title>
<path fill="none" stroke="black" d="M2731.06,-576.907C2778.37,-547.161 2870.34,-480.859 2906,-396 2912.74,-379.972 2909.27,-304.265 2902,-288 2897.14,-277.141 2889.06,-267.261 2880.61,-259.007"/>
<polygon fill="black" stroke="black" points="2882.89,-256.357 2873.15,-252.189 2878.17,-261.521 2882.89,-256.357"/>
</g>
<!-- node127&#45;&gt;node147 -->
<g id="edge222" class="edge"><title>node127&#45;&gt;node147</title>
<path fill="none" stroke="black" d="M2672.81,-591.893C2588.59,-585.672 2337.96,-566.171 2131,-540 1759.12,-492.975 1667.51,-469.728 1300,-396 1154.95,-366.901 982.774,-329.964 908.781,-313.974"/>
<polygon fill="black" stroke="black" points="909.519,-310.553 899.005,-311.86 908.039,-317.395 909.519,-310.553"/>
</g>
<!-- node127&#45;&gt;node146 -->
<g id="edge224" class="edge"><title>node127&#45;&gt;node146</title>
<path fill="none" stroke="black" d="M2672.84,-589.389C2496.2,-561.458 1570.53,-415.085 1373.07,-383.862"/>
<polygon fill="black" stroke="black" points="1373.61,-380.403 1363.18,-382.298 1372.51,-387.317 1373.61,-380.403"/>
</g>
<!-- node127&#45;&gt;node66 -->
<g id="edge214" class="edge"><title>node127&#45;&gt;node66</title>
<path fill="none" stroke="black" d="M2700.38,-575.849C2695.67,-533.165 2678.45,-425.118 2621,-360 2599.12,-335.205 2583.32,-339.103 2552.22,-325.777"/>
<polygon fill="black" stroke="black" points="2553.57,-322.545 2543.02,-321.524 2550.63,-328.899 2553.57,-322.545"/>
</g>
<!-- node127&#45;&gt;node55 -->
<g id="edge216" class="edge"><title>node127&#45;&gt;node55</title>
<path fill="none" stroke="black" d="M2712.86,-575.955C2735.71,-537.997 2788.84,-449.713 2815.75,-404.993"/>
<polygon fill="black" stroke="black" points="2818.92,-406.518 2821.08,-396.145 2812.92,-402.908 2818.92,-406.518"/>
</g>
<!-- node127&#45;&gt;node54 -->
<g id="edge220" class="edge"><title>node127&#45;&gt;node54</title>
<path fill="none" stroke="black" d="M2672.93,-584.164C2618.54,-566.07 2497.45,-527.236 2393,-504 2284.82,-479.934 2155.32,-462.818 2089.31,-454.917"/>
<polygon fill="black" stroke="black" points="2089.62,-451.429 2079.28,-453.728 2088.8,-458.38 2089.62,-451.429"/>
</g>
<!-- node127&#45;&gt;node53 -->
<g id="edge226" class="edge"><title>node127&#45;&gt;node53</title>
<path fill="none" stroke="black" d="M2672.93,-593.906C2476.42,-593.145 1345.95,-586.748 1201,-540 1173.55,-531.146 1172.55,-517.38 1147,-504 1108.47,-483.824 1096.35,-484.234 1056,-468 1054.61,-467.442 1053.2,-466.872 1051.77,-466.296"/>
<polygon fill="black" stroke="black" points="1052.86,-462.959 1042.28,-462.44 1050.23,-469.445 1052.86,-462.959"/>
</g>
<!-- node127&#45;&gt;node64 -->
<g id="edge228" class="edge"><title>node127&#45;&gt;node64</title>
<path fill="none" stroke="black" d="M2672.9,-593.498C2504.75,-590.492 1655.85,-573.845 1397,-540 1384.84,-538.41 1371.8,-535.886 1359.82,-533.225"/>
<polygon fill="black" stroke="black" points="1360.58,-529.808 1350.05,-530.975 1359.01,-536.63 1360.58,-529.808"/>
</g>
<!-- node127&#45;&gt;node160 -->
<g id="edge210" class="edge"><title>node127&#45;&gt;node160</title>
<path fill="none" stroke="black" d="M2731.1,-588.032C2778.5,-578.271 2875.27,-558.154 2957,-540 3085.74,-511.401 3238.03,-475.322 3306.9,-458.886"/>
<polygon fill="black" stroke="black" points="3307.92,-462.242 3316.83,-456.514 3306.29,-455.433 3307.92,-462.242"/>
</g>
<!-- node127&#45;&gt;node110 -->
<g id="edge212" class="edge"><title>node127&#45;&gt;node110</title>
<path fill="none" stroke="black" d="M2731.15,-591.398C2806.35,-584.543 3012.96,-564.796 3184,-540 3203.69,-537.146 3225.42,-533.355 3243.67,-529.989"/>
<polygon fill="black" stroke="black" points="3244.51,-533.394 3253.69,-528.119 3243.22,-526.513 3244.51,-533.394"/>
</g>
<!-- node127&#45;&gt;node78 -->
<g id="edge218" class="edge"><title>node127&#45;&gt;node78</title>
<path fill="none" stroke="black" d="M2704.41,-575.762C2707.65,-551.201 2713.45,-507.247 2717.26,-478.354"/>
<polygon fill="black" stroke="black" points="2720.77,-478.462 2718.61,-468.09 2713.84,-477.546 2720.77,-478.462"/>
</g>
<!-- node60&#45;&gt;node151 -->
<g id="edge232" class="edge"><title>node60&#45;&gt;node151</title>
<path fill="none" stroke="black" d="M3132.14,-575.794C3132.42,-538.622 3133,-451.313 3133,-378 3133,-378 3133,-378 3133,-234 3133,-189.525 3311.81,-229.582 2935,-144 2747.79,-101.48 2136.47,-92.0837 1979.17,-90.3492"/>
<polygon fill="black" stroke="black" points="1979.1,-86.8483 1969.06,-90.2415 1979.02,-93.8479 1979.1,-86.8483"/>
</g>
<!-- node62&#45;&gt;node151 -->
<g id="edge236" class="edge"><title>node62&#45;&gt;node151</title>
<path fill="none" stroke="black" d="M1695.4,-647.866C1663.87,-596.079 1583.74,-445.739 1657,-360 1718.23,-288.339 1794.74,-385.701 1866,-324 1927.22,-270.989 1939.45,-168.156 1941.67,-118.37"/>
<polygon fill="black" stroke="black" points="1945.17,-118.422 1942.01,-108.308 1938.17,-118.183 1945.17,-118.422"/>
</g>
<!-- node62&#45;&gt;node56 -->
<g id="edge264" class="edge"><title>node62&#45;&gt;node56</title>
<path fill="none" stroke="black" d="M1657.81,-650.466C1617.07,-637.601 1559.8,-619.515 1521.14,-607.308"/>
<polygon fill="black" stroke="black" points="1521.84,-603.857 1511.25,-604.184 1519.73,-610.532 1521.84,-603.857"/>
</g>
<!-- node62&#45;&gt;node153 -->
<g id="edge240" class="edge"><title>node62&#45;&gt;node153</title>
<path fill="none" stroke="black" d="M1756.08,-661.276C1916.79,-645.158 2417,-589.564 2417,-522 2417,-522 2417,-522 2417,-306 2417,-265.876 2417,-219.463 2417,-190.418"/>
<polygon fill="black" stroke="black" points="2420.5,-190.185 2417,-180.185 2413.5,-190.185 2420.5,-190.185"/>
</g>
<!-- node62&#45;&gt;node149 -->
<g id="edge242" class="edge"><title>node62&#45;&gt;node149</title>
<path fill="none" stroke="black" d="M1701.72,-647.893C1684.98,-588.857 1636.42,-403.262 1674,-360 1711.53,-316.797 1875.17,-343.426 1929,-324 1971.9,-308.52 2015.72,-279.349 2044.01,-258.41"/>
<polygon fill="black" stroke="black" points="2046.38,-261.006 2052.27,-252.2 2042.18,-255.41 2046.38,-261.006"/>
</g>
<!-- node62&#45;&gt;node59 -->
<g id="edge244" class="edge"><title>node62&#45;&gt;node59</title>
<path fill="none" stroke="black" d="M1756.12,-665.841C1953.13,-664.888 2679.87,-658.244 2771,-612 2875.23,-559.11 2896.08,-510.19 2921,-396 2925.14,-377.009 2924.18,-298.096 2919,-288 2911.7,-273.783 2898.75,-262.254 2885.89,-253.555"/>
<polygon fill="black" stroke="black" points="2887.4,-250.367 2877.08,-247.987 2883.66,-256.286 2887.4,-250.367"/>
</g>
<!-- node62&#45;&gt;node147 -->
<g id="edge252" class="edge"><title>node62&#45;&gt;node147</title>
<path fill="none" stroke="black" d="M1657.9,-663.081C1474.49,-651.531 840,-605.539 840,-522 840,-522 840,-522 840,-450 840,-408.944 852.549,-362.838 861.93,-334.108"/>
<polygon fill="black" stroke="black" points="865.341,-334.944 865.214,-324.35 858.707,-332.712 865.341,-334.944"/>
</g>
<!-- node62&#45;&gt;node146 -->
<g id="edge254" class="edge"><title>node62&#45;&gt;node146</title>
<path fill="none" stroke="black" d="M1678.45,-647.875C1662.74,-637.673 1643.03,-624.506 1626,-612 1527.51,-539.663 1416.47,-446.675 1365.03,-402.895"/>
<polygon fill="black" stroke="black" points="1367.18,-400.126 1357.3,-396.302 1362.64,-405.453 1367.18,-400.126"/>
</g>
<!-- node62&#45;&gt;node150 -->
<g id="edge260" class="edge"><title>node62&#45;&gt;node150</title>
<path fill="none" stroke="black" d="M1664.38,-647.896C1641.47,-637.859 1612.9,-624.84 1588,-612 1546.34,-590.521 1500.04,-563.159 1468.99,-544.273"/>
<polygon fill="black" stroke="black" points="1470.61,-541.166 1460.26,-538.942 1466.97,-547.141 1470.61,-541.166"/>
</g>
<!-- node62&#45;&gt;node66 -->
<g id="edge246" class="edge"><title>node62&#45;&gt;node66</title>
<path fill="none" stroke="black" d="M1756.19,-664.172C1909.06,-658.239 2369.28,-638.361 2431,-612 2485.99,-588.515 2531,-581.794 2531,-522 2531,-522 2531,-522 2531,-450 2531,-409.528 2523.53,-363.204 2517.96,-334.272"/>
<polygon fill="black" stroke="black" points="2521.32,-333.211 2515.94,-324.084 2514.45,-334.575 2521.32,-333.211"/>
</g>
<!-- node62&#45;&gt;node55 -->
<g id="edge248" class="edge"><title>node62&#45;&gt;node55</title>
<path fill="none" stroke="black" d="M1756,-664.87C1955.67,-660.084 2699.19,-640.412 2740,-612 2808.56,-564.262 2826.03,-457.117 2830.48,-406.072"/>
<polygon fill="black" stroke="black" points="2833.97,-406.311 2831.24,-396.073 2826.99,-405.776 2833.97,-406.311"/>
</g>
<!-- node62&#45;&gt;node54 -->
<g id="edge250" class="edge"><title>node62&#45;&gt;node54</title>
<path fill="none" stroke="black" d="M1735.32,-647.955C1796.39,-609.044 1940.46,-517.248 2008.79,-473.709"/>
<polygon fill="black" stroke="black" points="2010.97,-476.47 2017.52,-468.145 2007.21,-470.567 2010.97,-476.47"/>
</g>
<!-- node62&#45;&gt;node53 -->
<g id="edge256" class="edge"><title>node62&#45;&gt;node53</title>
<path fill="none" stroke="black" d="M1657.74,-662.522C1581.23,-656.423 1429.58,-641.538 1304,-612 1207.55,-589.312 1175.7,-594.585 1093,-540 1067.48,-523.154 1044.81,-496.392 1029.99,-476.423"/>
<polygon fill="black" stroke="black" points="1032.63,-474.111 1023.94,-468.058 1026.96,-478.213 1032.63,-474.111"/>
</g>
<!-- node62&#45;&gt;node64 -->
<g id="edge258" class="edge"><title>node62&#45;&gt;node64</title>
<path fill="none" stroke="black" d="M1657.94,-662.589C1602.49,-657.295 1510.52,-644.111 1438,-612 1401.83,-595.985 1366.09,-567.758 1342.73,-547.175"/>
<polygon fill="black" stroke="black" points="1344.79,-544.318 1335,-540.246 1340.11,-549.529 1344.79,-544.318"/>
</g>
<!-- node62&#45;&gt;node99 -->
<g id="edge262" class="edge"><title>node62&#45;&gt;node99</title>
<path fill="none" stroke="black" d="M1657.84,-664.177C1591.91,-660.356 1472.11,-648.536 1377,-612 1335.69,-596.131 1293.7,-567.036 1266.63,-546.221"/>
<polygon fill="black" stroke="black" points="1268.76,-543.445 1258.72,-540.051 1264.45,-548.963 1268.76,-543.445"/>
</g>
<!-- node62&#45;&gt;node60 -->
<g id="edge238" class="edge"><title>node62&#45;&gt;node60</title>
<path fill="none" stroke="black" d="M1756.23,-665.508C1927.55,-663.46 2513.37,-653.653 2995,-612 3021.25,-609.73 3050.18,-606.096 3074.67,-602.685"/>
<polygon fill="black" stroke="black" points="3075.47,-606.108 3084.88,-601.241 3074.48,-599.177 3075.47,-606.108"/>
</g>
</g>
</svg>
