<?xml version="1.0" encoding="UTF-8" standalone="no"?>
<!DOCTYPE svg PUBLIC "-//W3C//DTD SVG 1.1//EN"
 "http://www.w3.org/Graphics/SVG/1.1/DTD/svg11.dtd">
<!-- Generated by graphviz version 2.26.3 (20100126.1600)
 -->
<!-- Title: GG Pages: 1 -->
<svg width="1644pt" height="692pt"
 viewBox="0.00 0.00 1643.51 692.00" xmlns="http://www.w3.org/2000/svg" xmlns:xlink="http://www.w3.org/1999/xlink">
<g id="graph1" class="graph" transform="scale(1 1) rotate(0) translate(4 688)">
<title>GG</title>
<polygon fill="white" stroke="white" points="-4,5 -4,-688 1640.51,-688 1640.51,5 -4,5"/>
<!-- node96 -->
<g id="node1" class="node"><title>node96</title>
<polygon fill="none" stroke="black" points="883,-671.562 812,-684 741,-671.562 741.066,-651.438 882.934,-651.438 883,-671.562"/>
<text text-anchor="middle" x="812" y="-662.7" font-family="Times Roman,serif" font-size="12.00">eclscheduler</text>
</g>
<!-- node151 -->
<g id="node2" class="node"><title>node151</title>
<polygon fill="none" stroke="black" points="500,-108 446,-108 446,-72 500,-72 500,-108"/>
<text text-anchor="middle" x="473" y="-86.7" font-family="Times Roman,serif" font-size="12.00">jlib</text>
</g>
<!-- node96&#45;&gt;node151 -->
<g id="edge2" class="edge"><title>node96&#45;&gt;node151</title>
<path fill="none" stroke="black" d="M741.007,-660.868C543.157,-645.622 0,-596.941 0,-522 0,-522 0,-522 0,-234 0,-180.482 32.788,-169.204 80,-144 141.312,-111.269 350.229,-96.5833 435.895,-91.8337"/>
<polygon fill="black" stroke="black" points="436.154,-95.3249 445.951,-91.2907 435.777,-88.3351 436.154,-95.3249"/>
</g>
<!-- node103 -->
<g id="node12" class="node"><title>node103</title>
<polygon fill="none" stroke="black" points="855,-612 769,-612 769,-576 855,-576 855,-612"/>
<text text-anchor="middle" x="812" y="-590.7" font-family="Times Roman,serif" font-size="12.00">schedulectrl</text>
</g>
<!-- node96&#45;&gt;node103 -->
<g id="edge12" class="edge"><title>node96&#45;&gt;node103</title>
<path fill="none" stroke="black" d="M812,-651.43C812,-643.101 812,-632.366 812,-622.436"/>
<polygon fill="black" stroke="black" points="815.5,-622.128 812,-612.128 808.5,-622.128 815.5,-622.128"/>
</g>
<!-- node64 -->
<g id="node71" class="node"><title>node64</title>
<polygon fill="none" stroke="black" points="1274,-540 1206,-540 1206,-504 1274,-504 1274,-540"/>
<text text-anchor="middle" x="1240" y="-518.7" font-family="Times Roman,serif" font-size="12.00">workunit</text>
</g>
<!-- node96&#45;&gt;node64 -->
<g id="edge110" class="edge"><title>node96&#45;&gt;node64</title>
<path fill="none" stroke="black" d="M858.113,-651.344C929.809,-628.415 1072.23,-582.296 1192,-540 1193.42,-539.5 1194.85,-538.988 1196.31,-538.467"/>
<polygon fill="black" stroke="black" points="1197.77,-541.657 1205.97,-534.946 1195.38,-535.08 1197.77,-541.657"/>
</g>
<!-- node152 -->
<g id="node4" class="node"><title>node152</title>
<polygon fill="none" stroke="black" points="351,-36 311.056,-18 351,-3.55271e-15 390.944,-18 351,-36"/>
<text text-anchor="middle" x="351" y="-14.7" font-family="Times Roman,serif" font-size="12.00">lzma</text>
</g>
<!-- node151&#45;&gt;node152 -->
<g id="edge4" class="edge"><title>node151&#45;&gt;node152</title>
<path fill="none" stroke="black" d="M445.924,-74.0209C425.47,-61.9494 397.554,-45.4743 377.293,-33.5172"/>
<polygon fill="black" stroke="black" points="378.968,-30.4417 368.577,-28.3733 375.41,-36.4701 378.968,-30.4417"/>
</g>
<!-- node187 -->
<g id="node6" class="node"><title>node187</title>
<ellipse fill="none" stroke="black" cx="436" cy="-18" rx="27" ry="18"/>
<text text-anchor="middle" x="436" y="-14.7" font-family="Times Roman,serif" font-size="12.00">dl</text>
</g>
<!-- node151&#45;&gt;node187 -->
<g id="edge6" class="edge"><title>node151&#45;&gt;node187</title>
<path fill="none" stroke="black" d="M463.663,-71.8314C459.405,-63.5451 454.28,-53.5727 449.605,-44.4748"/>
<polygon fill="black" stroke="black" points="452.635,-42.7123 444.951,-35.4177 446.408,-45.9118 452.635,-42.7123"/>
</g>
<!-- node179 -->
<g id="node8" class="node"><title>node179</title>
<ellipse fill="none" stroke="black" cx="511" cy="-18" rx="30.0465" ry="18"/>
<text text-anchor="middle" x="511" y="-14.7" font-family="Times Roman,serif" font-size="12.00">crypt</text>
</g>
<!-- node151&#45;&gt;node179 -->
<g id="edge8" class="edge"><title>node151&#45;&gt;node179</title>
<path fill="none" stroke="black" d="M482.589,-71.8314C486.962,-63.5451 492.226,-53.5727 497.027,-44.4748"/>
<polygon fill="black" stroke="black" points="500.235,-45.8952 501.807,-35.4177 494.044,-42.6279 500.235,-45.8952"/>
</g>
<!-- node188 -->
<g id="node10" class="node"><title>node188</title>
<ellipse fill="none" stroke="black" cx="586" cy="-18" rx="27" ry="18"/>
<text text-anchor="middle" x="586" y="-14.7" font-family="Times Roman,serif" font-size="12.00">rt</text>
</g>
<!-- node151&#45;&gt;node188 -->
<g id="edge10" class="edge"><title>node151&#45;&gt;node188</title>
<path fill="none" stroke="black" d="M500.066,-72.7542C517.414,-61.7009 539.898,-47.375 557.516,-36.1494"/>
<polygon fill="black" stroke="black" points="559.679,-38.9209 566.232,-30.5955 555.918,-33.0174 559.679,-38.9209"/>
</g>
<!-- node103&#45;&gt;node151 -->
<g id="edge14" class="edge"><title>node103&#45;&gt;node151</title>
<path fill="none" stroke="black" d="M768.534,-592.052C629.375,-585.598 200.55,-563.965 143,-540 86.2595,-516.372 38,-511.464 38,-450 38,-450 38,-450 38,-234 38,-150.553 330.146,-107.167 435.603,-94.2244"/>
<polygon fill="black" stroke="black" points="436.279,-97.6684 445.789,-92.9982 435.442,-90.7186 436.279,-97.6684"/>
</g>
<!-- node59 -->
<g id="node15" class="node"><title>node59</title>
<polygon fill="none" stroke="black" points="257,-252 199,-252 199,-216 257,-216 257,-252"/>
<text text-anchor="middle" x="228" y="-230.7" font-family="Times Roman,serif" font-size="12.00">remote</text>
</g>
<!-- node103&#45;&gt;node59 -->
<g id="edge16" class="edge"><title>node103&#45;&gt;node59</title>
<path fill="none" stroke="black" d="M768.646,-592.174C637.851,-586.386 253.134,-567.208 204,-540 122.182,-494.693 62.8042,-447.808 95,-360 111.987,-313.672 157.228,-277.222 190.241,-255.691"/>
<polygon fill="black" stroke="black" points="192.201,-258.592 198.77,-250.279 188.451,-252.682 192.201,-258.592"/>
</g>
<!-- node66 -->
<g id="node21" class="node"><title>node66</title>
<polygon fill="none" stroke="black" points="324,-324 262,-324 262,-288 324,-288 324,-324"/>
<text text-anchor="middle" x="293" y="-302.7" font-family="Times Roman,serif" font-size="12.00">dalibase</text>
</g>
<!-- node103&#45;&gt;node66 -->
<g id="edge24" class="edge"><title>node103&#45;&gt;node66</title>
<path fill="none" stroke="black" d="M768.873,-584.148C654.745,-557.115 349.688,-478.3 293,-396 280.735,-378.194 281.729,-353.342 285.232,-334.264"/>
<polygon fill="black" stroke="black" points="288.686,-334.852 287.368,-324.34 281.842,-333.379 288.686,-334.852"/>
</g>
<!-- node55 -->
<g id="node30" class="node"><title>node55</title>
<polygon fill="none" stroke="black" points="194,-396 104,-396 104,-360 194,-360 194,-396"/>
<text text-anchor="middle" x="149" y="-374.7" font-family="Times Roman,serif" font-size="12.00">environment</text>
</g>
<!-- node103&#45;&gt;node55 -->
<g id="edge38" class="edge"><title>node103&#45;&gt;node55</title>
<path fill="none" stroke="black" d="M768.879,-592.117C644.298,-586.369 289.923,-567.734 246,-540 196.975,-509.044 169.39,-443.533 157.022,-405.992"/>
<polygon fill="black" stroke="black" points="160.278,-404.681 153.931,-396.197 153.602,-406.787 160.278,-404.681"/>
</g>
<!-- node54 -->
<g id="node36" class="node"><title>node54</title>
<polygon fill="none" stroke="black" points="845,-468 779,-468 779,-432 845,-432 845,-468"/>
<text text-anchor="middle" x="812" y="-446.7" font-family="Times Roman,serif" font-size="12.00">dllserver</text>
</g>
<!-- node103&#45;&gt;node54 -->
<g id="edge48" class="edge"><title>node103&#45;&gt;node54</title>
<path fill="none" stroke="black" d="M812,-575.762C812,-551.201 812,-507.247 812,-478.354"/>
<polygon fill="black" stroke="black" points="815.5,-478.09 812,-468.09 808.5,-478.09 815.5,-478.09"/>
</g>
<!-- node146 -->
<g id="node43" class="node"><title>node146</title>
<polygon fill="none" stroke="black" points="1168,-396 1114,-396 1114,-360 1168,-360 1168,-396"/>
<text text-anchor="middle" x="1141" y="-374.7" font-family="Times Roman,serif" font-size="12.00">eclrtl</text>
</g>
<!-- node103&#45;&gt;node146 -->
<g id="edge86" class="edge"><title>node103&#45;&gt;node146</title>
<path fill="none" stroke="black" d="M839.484,-575.955C898.901,-536.947 1039.27,-444.79 1105.38,-401.384"/>
<polygon fill="black" stroke="black" points="1107.39,-404.255 1113.83,-395.841 1103.54,-398.404 1107.39,-404.255"/>
</g>
<!-- node147 -->
<g id="node54" class="node"><title>node147</title>
<polygon fill="none" stroke="black" points="1524,-324 1470,-324 1470,-288 1524,-288 1524,-324"/>
<text text-anchor="middle" x="1497" y="-302.7" font-family="Times Roman,serif" font-size="12.00">nbcd</text>
</g>
<!-- node103&#45;&gt;node147 -->
<g id="edge84" class="edge"><title>node103&#45;&gt;node147</title>
<path fill="none" stroke="black" d="M854.672,-575.958C878.46,-565.728 908.538,-552.506 935,-540 1094.94,-464.415 1123.13,-418.724 1290,-360 1360.26,-335.275 1385.58,-348.385 1459.98,-323.863"/>
<polygon fill="black" stroke="black" points="1461.47,-327.052 1469.8,-320.504 1459.2,-320.429 1461.47,-327.052"/>
</g>
<!-- node53 -->
<g id="node66" class="node"><title>node53</title>
<polygon fill="none" stroke="black" points="1332,-468 1272,-468 1272,-432 1332,-432 1332,-468"/>
<text text-anchor="middle" x="1302" y="-446.7" font-family="Times Roman,serif" font-size="12.00">deftype</text>
</g>
<!-- node103&#45;&gt;node53 -->
<g id="edge88" class="edge"><title>node103&#45;&gt;node53</title>
<path fill="none" stroke="black" d="M855.296,-591.89C965.772,-586.112 1251.65,-568.533 1283,-540 1299.82,-524.692 1303.8,-498.565 1304.03,-478.393"/>
<polygon fill="black" stroke="black" points="1307.53,-478.124 1303.84,-468.191 1300.53,-478.254 1307.53,-478.124"/>
</g>
<!-- node103&#45;&gt;node64 -->
<g id="edge96" class="edge"><title>node103&#45;&gt;node64</title>
<path fill="none" stroke="black" d="M855.048,-590.95C926.12,-585.234 1072.07,-570.618 1192,-540 1193.43,-539.635 1194.87,-539.243 1196.33,-538.827"/>
<polygon fill="black" stroke="black" points="1197.45,-542.142 1205.94,-535.804 1195.35,-535.464 1197.45,-542.142"/>
</g>
<!-- node59&#45;&gt;node151 -->
<g id="edge18" class="edge"><title>node59&#45;&gt;node151</title>
<path fill="none" stroke="black" d="M231.817,-215.997C237.096,-195.54 248.621,-162.589 271,-144 295.949,-123.276 384.485,-105.174 435.685,-96.13"/>
<polygon fill="black" stroke="black" points="436.448,-99.55 445.703,-94.3919 435.252,-92.653 436.448,-99.55"/>
</g>
<!-- node153 -->
<g id="node18" class="node"><title>node153</title>
<polygon fill="none" stroke="black" points="464,-180 410,-180 410,-144 464,-144 464,-180"/>
<text text-anchor="middle" x="437" y="-158.7" font-family="Times Roman,serif" font-size="12.00">mp</text>
</g>
<!-- node59&#45;&gt;node153 -->
<g id="edge20" class="edge"><title>node59&#45;&gt;node153</title>
<path fill="none" stroke="black" d="M257.061,-223.989C294.467,-211.102 359.488,-188.703 400.278,-174.651"/>
<polygon fill="black" stroke="black" points="401.53,-177.921 409.844,-171.355 399.25,-171.303 401.53,-177.921"/>
</g>
<!-- node153&#45;&gt;node151 -->
<g id="edge22" class="edge"><title>node153&#45;&gt;node151</title>
<path fill="none" stroke="black" d="M446.084,-143.831C450.061,-135.877 454.815,-126.369 459.214,-117.572"/>
<polygon fill="black" stroke="black" points="462.452,-118.923 463.793,-108.413 456.191,-115.792 462.452,-118.923"/>
</g>
<!-- node66&#45;&gt;node151 -->
<g id="edge26" class="edge"><title>node66&#45;&gt;node151</title>
<path fill="none" stroke="black" d="M301.906,-287.879C311.295,-269.314 326.927,-239.871 343,-216 365.951,-181.915 371.446,-172.549 401,-144 412.14,-133.239 425.448,-122.716 437.574,-113.859"/>
<polygon fill="black" stroke="black" points="439.648,-116.679 445.74,-108.011 435.572,-110.988 439.648,-116.679"/>
</g>
<!-- node66&#45;&gt;node59 -->
<g id="edge36" class="edge"><title>node66&#45;&gt;node59</title>
<path fill="none" stroke="black" d="M276.598,-287.831C268.958,-279.369 259.732,-269.149 251.379,-259.897"/>
<polygon fill="black" stroke="black" points="253.922,-257.491 244.623,-252.413 248.726,-262.181 253.922,-257.491"/>
</g>
<!-- node66&#45;&gt;node153 -->
<g id="edge28" class="edge"><title>node66&#45;&gt;node153</title>
<path fill="none" stroke="black" d="M311.238,-287.762C336.665,-262.335 382.875,-216.125 411.643,-187.357"/>
<polygon fill="black" stroke="black" points="414.314,-189.636 418.91,-180.09 409.364,-184.686 414.314,-189.636"/>
</g>
<!-- node149 -->
<g id="node25" class="node"><title>node149</title>
<polygon fill="none" stroke="black" points="570,-252 516,-252 516,-216 570,-216 570,-252"/>
<text text-anchor="middle" x="543" y="-230.7" font-family="Times Roman,serif" font-size="12.00">hrpc</text>
</g>
<!-- node66&#45;&gt;node149 -->
<g id="edge30" class="edge"><title>node66&#45;&gt;node149</title>
<path fill="none" stroke="black" d="M324.157,-297.027C370.323,-283.731 456.734,-258.845 506.036,-244.646"/>
<polygon fill="black" stroke="black" points="507.031,-248.001 515.672,-241.871 505.094,-241.275 507.031,-248.001"/>
</g>
<!-- node149&#45;&gt;node151 -->
<g id="edge32" class="edge"><title>node149&#45;&gt;node151</title>
<path fill="none" stroke="black" d="M534.134,-215.762C522.037,-190.876 500.262,-146.082 486.23,-117.216"/>
<polygon fill="black" stroke="black" points="489.313,-115.553 481.794,-108.09 483.018,-118.613 489.313,-115.553"/>
</g>
<!-- node149&#45;&gt;node153 -->
<g id="edge34" class="edge"><title>node149&#45;&gt;node153</title>
<path fill="none" stroke="black" d="M516.252,-215.831C502.945,-206.793 486.684,-195.748 472.363,-186.02"/>
<polygon fill="black" stroke="black" points="473.979,-182.886 463.74,-180.163 470.045,-188.677 473.979,-182.886"/>
</g>
<!-- node55&#45;&gt;node151 -->
<g id="edge40" class="edge"><title>node55&#45;&gt;node151</title>
<path fill="none" stroke="black" d="M148.501,-359.748C148.442,-341.334 149.568,-312.237 156,-288 175.063,-216.168 179.312,-185.446 241,-144 272.588,-122.777 378.667,-104.159 435.804,-95.3702"/>
<polygon fill="black" stroke="black" points="436.511,-98.8032 445.874,-93.8451 435.463,-91.8821 436.511,-98.8032"/>
</g>
<!-- node55&#45;&gt;node59 -->
<g id="edge44" class="edge"><title>node55&#45;&gt;node59</title>
<path fill="none" stroke="black" d="M151.853,-359.736C155.394,-340.795 162.663,-310.815 176,-288 182.096,-277.572 190.607,-267.607 198.98,-259.14"/>
<polygon fill="black" stroke="black" points="201.49,-261.583 206.239,-252.112 196.62,-256.554 201.49,-261.583"/>
</g>
<!-- node55&#45;&gt;node153 -->
<g id="edge42" class="edge"><title>node55&#45;&gt;node153</title>
<path fill="none" stroke="black" d="M168.093,-359.865C201.771,-328.393 274.645,-262.572 343,-216 361.41,-203.456 382.892,-190.968 400.669,-181.165"/>
<polygon fill="black" stroke="black" points="402.489,-184.159 409.591,-176.298 399.136,-178.014 402.489,-184.159"/>
</g>
<!-- node55&#45;&gt;node66 -->
<g id="edge46" class="edge"><title>node55&#45;&gt;node66</title>
<path fill="none" stroke="black" d="M185.337,-359.831C205.804,-349.598 231.415,-336.793 252.522,-326.239"/>
<polygon fill="black" stroke="black" points="254.186,-329.32 261.565,-321.717 251.056,-323.059 254.186,-329.32"/>
</g>
<!-- node54&#45;&gt;node151 -->
<g id="edge52" class="edge"><title>node54&#45;&gt;node151</title>
<path fill="none" stroke="black" d="M845.223,-446.734C913.524,-438.82 1059.24,-415.069 1009,-360 950.04,-295.377 685.998,-377.774 617,-324 576.865,-292.72 603.573,-260.558 579,-216 559.29,-180.261 548.395,-175.13 522,-144 514.022,-134.59 505.017,-124.519 496.923,-115.654"/>
<polygon fill="black" stroke="black" points="499.437,-113.217 490.094,-108.221 494.282,-117.953 499.437,-113.217"/>
</g>
<!-- node54&#45;&gt;node59 -->
<g id="edge74" class="edge"><title>node54&#45;&gt;node59</title>
<path fill="none" stroke="black" d="M778.701,-448.313C670.512,-442.591 333.536,-422.772 293,-396 248.35,-366.511 234.371,-300.634 229.994,-262.592"/>
<polygon fill="black" stroke="black" points="233.433,-261.806 228.959,-252.202 226.468,-262.5 233.433,-261.806"/>
</g>
<!-- node54&#45;&gt;node153 -->
<g id="edge54" class="edge"><title>node54&#45;&gt;node153</title>
<path fill="none" stroke="black" d="M813.731,-431.928C814.609,-411.407 812.529,-378.395 793,-360 714.166,-285.743 644.278,-380.688 552,-324 499.798,-291.932 464.672,-226.372 448.058,-189.237"/>
<polygon fill="black" stroke="black" points="451.243,-187.784 444.048,-180.006 444.822,-190.573 451.243,-187.784"/>
</g>
<!-- node54&#45;&gt;node66 -->
<g id="edge76" class="edge"><title>node54&#45;&gt;node66</title>
<path fill="none" stroke="black" d="M778.866,-448.532C673.663,-443.579 352.05,-426.092 317,-396 299.527,-380.999 294.067,-354.838 292.662,-334.574"/>
<polygon fill="black" stroke="black" points="296.149,-334.171 292.251,-324.32 289.154,-334.452 296.149,-334.171"/>
</g>
<!-- node54&#45;&gt;node149 -->
<g id="edge56" class="edge"><title>node54&#45;&gt;node149</title>
<path fill="none" stroke="black" d="M845.448,-445.627C908.968,-436.062 1036.8,-410.03 991,-360 929.69,-293.028 658.12,-376.444 584,-324 563.736,-309.662 553.284,-282.815 548.024,-262.16"/>
<polygon fill="black" stroke="black" points="551.414,-261.284 545.78,-252.311 544.589,-262.839 551.414,-261.284"/>
</g>
<!-- node54&#45;&gt;node55 -->
<g id="edge78" class="edge"><title>node54&#45;&gt;node55</title>
<path fill="none" stroke="black" d="M778.928,-449.438C687.333,-447.37 422.93,-437.924 208,-396 206.729,-395.752 205.446,-395.487 204.156,-395.208"/>
<polygon fill="black" stroke="black" points="204.719,-391.744 194.179,-392.816 203.087,-398.551 204.719,-391.744"/>
</g>
<!-- node176 -->
<g id="node38" class="node"><title>node176</title>
<ellipse fill="none" stroke="black" cx="653" cy="-378" rx="130.789" ry="18"/>
<text text-anchor="middle" x="653" y="-374.7" font-family="Times Roman,serif" font-size="12.00">/usr/lib/x86_64&#45;linux&#45;gnu/libz.so</text>
</g>
<!-- node54&#45;&gt;node176 -->
<g id="edge50" class="edge"><title>node54&#45;&gt;node176</title>
<path fill="none" stroke="black" d="M778.668,-434.906C756.059,-424.668 725.827,-410.978 700.68,-399.591"/>
<polygon fill="black" stroke="black" points="701.872,-396.289 691.318,-395.352 698.984,-402.665 701.872,-396.289"/>
</g>
<!-- node54&#45;&gt;node146 -->
<g id="edge58" class="edge"><title>node54&#45;&gt;node146</title>
<path fill="none" stroke="black" d="M845.42,-446.251C899.719,-439.603 1010.08,-423.769 1100,-396 1101.44,-395.556 1102.9,-395.075 1104.36,-394.567"/>
<polygon fill="black" stroke="black" points="1105.89,-397.729 1113.98,-390.894 1103.39,-391.189 1105.89,-397.729"/>
</g>
<!-- node177 -->
<g id="node60" class="node"><title>node177</title>
<ellipse fill="none" stroke="black" cx="911" cy="-378" rx="70.8437" ry="18"/>
<text text-anchor="middle" x="911" y="-374.7" font-family="Times Roman,serif" font-size="12.00">/usr/lib/libbfd.so</text>
</g>
<!-- node54&#45;&gt;node177 -->
<g id="edge80" class="edge"><title>node54&#45;&gt;node177</title>
<path fill="none" stroke="black" d="M836.982,-431.831C849.79,-422.517 865.527,-411.071 879.193,-401.132"/>
<polygon fill="black" stroke="black" points="881.36,-403.884 887.389,-395.171 877.243,-398.223 881.36,-403.884"/>
</g>
<!-- node178 -->
<g id="node62" class="node"><title>node178</title>
<ellipse fill="none" stroke="black" cx="415" cy="-378" rx="89.0421" ry="18"/>
<text text-anchor="middle" x="415" y="-374.7" font-family="Times Roman,serif" font-size="12.00">/usr/lib/libiberty_pic.a</text>
</g>
<!-- node54&#45;&gt;node178 -->
<g id="edge82" class="edge"><title>node54&#45;&gt;node178</title>
<path fill="none" stroke="black" d="M778.81,-444.039C723.628,-434.121 609.526,-413.581 513,-396 505.782,-394.685 498.265,-393.312 490.747,-391.936"/>
<polygon fill="black" stroke="black" points="491.356,-388.489 480.889,-390.13 490.094,-395.375 491.356,-388.489"/>
</g>
<!-- node146&#45;&gt;node151 -->
<g id="edge68" class="edge"><title>node146&#45;&gt;node151</title>
<path fill="none" stroke="black" d="M1113.66,-365.977C1109.1,-363.977 1104.42,-361.928 1100,-360 1063.15,-343.918 1050.55,-346.164 1017,-324 997.589,-311.176 998.635,-300.479 979,-288 831.121,-194.016 775.219,-207.725 612,-144 577.268,-130.44 537.622,-115.046 509.584,-104.174"/>
<polygon fill="black" stroke="black" points="510.767,-100.879 500.178,-100.527 508.237,-107.405 510.767,-100.879"/>
</g>
<!-- node186 -->
<g id="node45" class="node"><title>node186</title>
<ellipse fill="none" stroke="black" cx="1333" cy="-306" rx="118.939" ry="18"/>
<text text-anchor="middle" x="1333" y="-302.7" font-family="Times Roman,serif" font-size="12.00">/usr/lib/libboost_regex&#45;mt.so</text>
</g>
<!-- node146&#45;&gt;node186 -->
<g id="edge60" class="edge"><title>node146&#45;&gt;node186</title>
<path fill="none" stroke="black" d="M1168.23,-365.725C1172.81,-363.756 1177.52,-361.781 1182,-360 1212.2,-347.988 1246.26,-335.702 1274.37,-325.89"/>
<polygon fill="black" stroke="black" points="1275.75,-329.115 1284.05,-322.528 1273.46,-322.503 1275.75,-329.115"/>
</g>
<!-- node183 -->
<g id="node47" class="node"><title>node183</title>
<ellipse fill="none" stroke="black" cx="704" cy="-306" rx="77.9931" ry="18"/>
<text text-anchor="middle" x="704" y="-302.7" font-family="Times Roman,serif" font-size="12.00">/usr/lib/libicuuc.so</text>
</g>
<!-- node146&#45;&gt;node183 -->
<g id="edge62" class="edge"><title>node146&#45;&gt;node183</title>
<path fill="none" stroke="black" d="M1113.62,-364.65C1109.15,-362.858 1104.5,-361.221 1100,-360 966.558,-323.81 927.496,-346.028 791,-324 784.35,-322.927 777.437,-321.696 770.544,-320.392"/>
<polygon fill="black" stroke="black" points="770.977,-316.911 760.493,-318.441 769.643,-323.783 770.977,-316.911"/>
</g>
<!-- node184 -->
<g id="node49" class="node"><title>node184</title>
<ellipse fill="none" stroke="black" cx="885" cy="-306" rx="85.1424" ry="18"/>
<text text-anchor="middle" x="885" y="-302.7" font-family="Times Roman,serif" font-size="12.00">/usr/lib/libicui18n.so</text>
</g>
<!-- node146&#45;&gt;node184 -->
<g id="edge64" class="edge"><title>node146&#45;&gt;node184</title>
<path fill="none" stroke="black" d="M1113.91,-365.346C1109.32,-363.422 1104.56,-361.561 1100,-360 1052.98,-343.9 998.681,-330.301 956.417,-320.777"/>
<polygon fill="black" stroke="black" points="957.017,-317.325 946.495,-318.566 955.494,-324.158 957.017,-317.325"/>
</g>
<!-- node185 -->
<g id="node51" class="node"><title>node185</title>
<ellipse fill="none" stroke="black" cx="1111" cy="-306" rx="85.1424" ry="18"/>
<text text-anchor="middle" x="1111" y="-302.7" font-family="Times Roman,serif" font-size="12.00">/usr/lib/libicudata.so</text>
</g>
<!-- node146&#45;&gt;node185 -->
<g id="edge66" class="edge"><title>node146&#45;&gt;node185</title>
<path fill="none" stroke="black" d="M1133.43,-359.831C1130.15,-351.962 1126.24,-342.571 1122.61,-333.853"/>
<polygon fill="black" stroke="black" points="1125.75,-332.298 1118.67,-324.413 1119.29,-334.99 1125.75,-332.298"/>
</g>
<!-- node146&#45;&gt;node147 -->
<g id="edge70" class="edge"><title>node146&#45;&gt;node147</title>
<path fill="none" stroke="black" d="M1168.4,-364.699C1172.87,-362.901 1177.51,-361.249 1182,-360 1299.41,-327.38 1339.38,-358.788 1460.26,-323.628"/>
<polygon fill="black" stroke="black" points="1461.3,-326.969 1469.88,-320.743 1459.29,-320.265 1461.3,-326.969"/>
</g>
<!-- node147&#45;&gt;node151 -->
<g id="edge72" class="edge"><title>node147&#45;&gt;node151</title>
<path fill="none" stroke="black" d="M1469.68,-291.8C1466.78,-290.454 1463.85,-289.16 1461,-288 1266.93,-208.907 1217.17,-186.682 1012,-144 826.198,-105.348 598.403,-94.0786 510.269,-91.0391"/>
<polygon fill="black" stroke="black" points="510.336,-87.5395 500.226,-90.7079 510.105,-94.5357 510.336,-87.5395"/>
</g>
<!-- node53&#45;&gt;node151 -->
<g id="edge90" class="edge"><title>node53&#45;&gt;node151</title>
<path fill="none" stroke="black" d="M1332.16,-446.791C1398.65,-437.875 1552,-406.426 1552,-306 1552,-306 1552,-306 1552,-234 1552,-126.537 700.248,-96.3585 510.267,-90.9638"/>
<polygon fill="black" stroke="black" points="510.305,-87.4636 500.212,-90.6841 510.11,-94.4609 510.305,-87.4636"/>
</g>
<!-- node53&#45;&gt;node146 -->
<g id="edge94" class="edge"><title>node53&#45;&gt;node146</title>
<path fill="none" stroke="black" d="M1271.72,-436.457C1244.96,-424.49 1205.87,-407.009 1177.41,-394.282"/>
<polygon fill="black" stroke="black" points="1178.76,-391.051 1168.2,-390.164 1175.9,-397.441 1178.76,-391.051"/>
</g>
<!-- node53&#45;&gt;node147 -->
<g id="edge92" class="edge"><title>node53&#45;&gt;node147</title>
<path fill="none" stroke="black" d="M1326.7,-431.762C1361.57,-406.011 1425.31,-358.942 1464.14,-330.264"/>
<polygon fill="black" stroke="black" points="1466.54,-332.846 1472.5,-324.09 1462.38,-327.215 1466.54,-332.846"/>
</g>
<!-- node64&#45;&gt;node151 -->
<g id="edge98" class="edge"><title>node64&#45;&gt;node151</title>
<path fill="none" stroke="black" d="M1274.2,-515.54C1362.27,-497.932 1590,-445.841 1590,-378 1590,-378 1590,-378 1590,-234 1590,-188.702 1777.22,-231.878 1389,-144 1217.35,-105.146 659.667,-93.1353 510.163,-90.5746"/>
<polygon fill="black" stroke="black" points="510.173,-87.0744 500.115,-90.4064 510.055,-94.0734 510.173,-87.0744"/>
</g>
<!-- node64&#45;&gt;node66 -->
<g id="edge100" class="edge"><title>node64&#45;&gt;node66</title>
<path fill="none" stroke="black" d="M1215.69,-503.934C1163.1,-465.231 1039.6,-376.483 991,-360 959.769,-349.407 479.659,-317.954 334.353,-308.632"/>
<polygon fill="black" stroke="black" points="334.288,-305.121 324.085,-307.974 333.841,-312.106 334.288,-305.121"/>
</g>
<!-- node64&#45;&gt;node54 -->
<g id="edge102" class="edge"><title>node64&#45;&gt;node54</title>
<path fill="none" stroke="black" d="M1205.7,-516.23C1128.39,-503.224 940.647,-471.642 855.398,-457.301"/>
<polygon fill="black" stroke="black" points="855.723,-453.806 845.281,-455.599 854.562,-460.709 855.723,-453.806"/>
</g>
<!-- node64&#45;&gt;node146 -->
<g id="edge106" class="edge"><title>node64&#45;&gt;node146</title>
<path fill="none" stroke="black" d="M1227.46,-503.762C1210.2,-478.66 1179.02,-433.302 1159.2,-404.467"/>
<polygon fill="black" stroke="black" points="1161.99,-402.347 1153.44,-396.09 1156.22,-406.313 1161.99,-402.347"/>
</g>
<!-- node64&#45;&gt;node147 -->
<g id="edge104" class="edge"><title>node64&#45;&gt;node147</title>
<path fill="none" stroke="black" d="M1240.83,-503.832C1242.54,-484.423 1247.66,-453.547 1263,-432 1319.31,-352.889 1366.6,-364.403 1460.73,-323.884"/>
<polygon fill="black" stroke="black" points="1462.25,-327.037 1469.98,-319.796 1459.42,-320.634 1462.25,-327.037"/>
</g>
<!-- node64&#45;&gt;node53 -->
<g id="edge108" class="edge"><title>node64&#45;&gt;node53</title>
<path fill="none" stroke="black" d="M1255.65,-503.831C1262.86,-495.454 1271.56,-485.353 1279.46,-476.175"/>
<polygon fill="black" stroke="black" points="1282.27,-478.275 1286.14,-468.413 1276.97,-473.707 1282.27,-478.275"/>
</g>
</g>
</svg>
