<?xml version="1.0" encoding="UTF-8" standalone="no"?>
<!DOCTYPE svg PUBLIC "-//W3C//DTD SVG 1.1//EN"
 "http://www.w3.org/Graphics/SVG/1.1/DTD/svg11.dtd">
<!-- Generated by graphviz version 2.26.3 (20100126.1600)
 -->
<!-- Title: GG Pages: 1 -->
<svg width="1024pt" height="476pt"
 viewBox="0.00 0.00 1024.00 476.00" xmlns="http://www.w3.org/2000/svg" xmlns:xlink="http://www.w3.org/1999/xlink">
<g id="graph1" class="graph" transform="scale(1 1) rotate(0) translate(4 472)">
<title>GG</title>
<polygon fill="white" stroke="white" points="-4,5 -4,-472 1021,-472 1021,5 -4,5"/>
<!-- node115 -->
<g id="node1" class="node"><title>node115</title>
<polygon fill="none" stroke="black" points="337,-468 263,-468 263,-432 337,-432 337,-468"/>
<text text-anchor="middle" x="300" y="-446.7" font-family="Times Roman,serif" font-size="12.00">ws_config</text>
</g>
<!-- node151 -->
<g id="node2" class="node"><title>node151</title>
<polygon fill="none" stroke="black" points="275,-108 221,-108 221,-72 275,-72 275,-108"/>
<text text-anchor="middle" x="248" y="-86.7" font-family="Times Roman,serif" font-size="12.00">jlib</text>
</g>
<!-- node115&#45;&gt;node151 -->
<g id="edge2" class="edge"><title>node115&#45;&gt;node151</title>
<path fill="none" stroke="black" d="M262.952,-444.667C205.485,-435.866 98.1205,-417.156 66,-396 24.575,-368.716 0,-355.603 0,-306 0,-306 0,-306 0,-234 0,-137.63 141.781,-104.668 210.94,-94.3214"/>
<polygon fill="black" stroke="black" points="211.576,-97.7664 220.988,-92.9013 210.596,-90.8353 211.576,-97.7664"/>
</g>
<!-- node153 -->
<g id="node12" class="node"><title>node153</title>
<polygon fill="none" stroke="black" points="186,-180 132,-180 132,-144 186,-144 186,-180"/>
<text text-anchor="middle" x="159" y="-158.7" font-family="Times Roman,serif" font-size="12.00">mp</text>
</g>
<!-- node115&#45;&gt;node153 -->
<g id="edge12" class="edge"><title>node115&#45;&gt;node153</title>
<path fill="none" stroke="black" d="M262.894,-444.217C231.24,-437.54 186.326,-423.696 157,-396 100.767,-342.893 129.28,-239.358 147.59,-189.772"/>
<polygon fill="black" stroke="black" points="150.9,-190.916 151.198,-180.325 144.361,-188.418 150.9,-190.916"/>
</g>
<!-- node149 -->
<g id="node15" class="node"><title>node149</title>
<polygon fill="none" stroke="black" points="82,-252 28,-252 28,-216 82,-216 82,-252"/>
<text text-anchor="middle" x="55" y="-230.7" font-family="Times Roman,serif" font-size="12.00">hrpc</text>
</g>
<!-- node115&#45;&gt;node149 -->
<g id="edge16" class="edge"><title>node115&#45;&gt;node149</title>
<path fill="none" stroke="black" d="M262.959,-445.049C209.759,-437.188 115.52,-420.224 92,-396 57.1227,-360.08 52.5291,-298.411 53.1881,-262.412"/>
<polygon fill="black" stroke="black" points="56.696,-262.233 53.5336,-252.121 49.7,-261.998 56.696,-262.233"/>
</g>
<!-- node59 -->
<g id="node19" class="node"><title>node59</title>
<polygon fill="none" stroke="black" points="310,-252 252,-252 252,-216 310,-216 310,-252"/>
<text text-anchor="middle" x="281" y="-230.7" font-family="Times Roman,serif" font-size="12.00">remote</text>
</g>
<!-- node115&#45;&gt;node59 -->
<g id="edge22" class="edge"><title>node115&#45;&gt;node59</title>
<path fill="none" stroke="black" d="M298.413,-431.955C295.102,-394.314 287.438,-307.187 283.474,-262.125"/>
<polygon fill="black" stroke="black" points="286.959,-261.8 282.596,-252.145 279.986,-262.413 286.959,-261.8"/>
</g>
<!-- node66 -->
<g id="node23" class="node"><title>node66</title>
<polygon fill="none" stroke="black" points="196,-324 134,-324 134,-288 196,-288 196,-324"/>
<text text-anchor="middle" x="165" y="-302.7" font-family="Times Roman,serif" font-size="12.00">dalibase</text>
</g>
<!-- node115&#45;&gt;node66 -->
<g id="edge28" class="edge"><title>node115&#45;&gt;node66</title>
<path fill="none" stroke="black" d="M262.99,-444.717C233.573,-438.429 193.994,-424.873 173,-396 160.157,-378.337 158.916,-353.268 160.457,-334.072"/>
<polygon fill="black" stroke="black" points="163.941,-334.416 161.544,-324.096 156.982,-333.659 163.941,-334.416"/>
</g>
<!-- node55 -->
<g id="node29" class="node"><title>node55</title>
<polygon fill="none" stroke="black" points="272,-396 182,-396 182,-360 272,-360 272,-396"/>
<text text-anchor="middle" x="227" y="-374.7" font-family="Times Roman,serif" font-size="12.00">environment</text>
</g>
<!-- node115&#45;&gt;node55 -->
<g id="edge38" class="edge"><title>node115&#45;&gt;node55</title>
<path fill="none" stroke="black" d="M281.579,-431.831C272.847,-423.219 262.268,-412.785 252.758,-403.405"/>
<polygon fill="black" stroke="black" points="254.993,-400.693 245.415,-396.163 250.077,-405.677 254.993,-400.693"/>
</g>
<!-- node180 -->
<g id="node35" class="node"><title>node180</title>
<ellipse fill="none" stroke="black" cx="451" cy="-234" rx="85.1424" ry="18"/>
<text text-anchor="middle" x="451" y="-230.7" font-family="Times Roman,serif" font-size="12.00">/usr/lib/libxalan&#45;c.so</text>
</g>
<!-- node115&#45;&gt;node180 -->
<g id="edge48" class="edge"><title>node115&#45;&gt;node180</title>
<path fill="none" stroke="black" d="M312.614,-431.955C339.328,-393.743 401.695,-304.529 432.753,-260.101"/>
<polygon fill="black" stroke="black" points="435.667,-262.043 438.528,-251.841 429.93,-258.032 435.667,-262.043"/>
</g>
<!-- node181 -->
<g id="node37" class="node"><title>node181</title>
<ellipse fill="none" stroke="black" cx="923" cy="-234" rx="93.0912" ry="18"/>
<text text-anchor="middle" x="923" y="-230.7" font-family="Times Roman,serif" font-size="12.00">/usr/lib/libxalanMsg.so</text>
</g>
<!-- node115&#45;&gt;node181 -->
<g id="edge50" class="edge"><title>node115&#45;&gt;node181</title>
<path fill="none" stroke="black" d="M337.087,-446.974C425.936,-439.445 648.86,-418.824 720,-396 784.376,-375.346 802.504,-367.806 854,-324 875.361,-305.829 894.313,-280.015 906.924,-260.69"/>
<polygon fill="black" stroke="black" points="910.005,-262.368 912.422,-252.053 904.1,-258.609 910.005,-262.368"/>
</g>
<!-- node182 -->
<g id="node39" class="node"><title>node182</title>
<ellipse fill="none" stroke="black" cx="683" cy="-234" rx="90.9919" ry="18"/>
<text text-anchor="middle" x="683" y="-230.7" font-family="Times Roman,serif" font-size="12.00">/usr/lib/libxerces&#45;c.so</text>
</g>
<!-- node115&#45;&gt;node182 -->
<g id="edge52" class="edge"><title>node115&#45;&gt;node182</title>
<path fill="none" stroke="black" d="M337.074,-440.689C396.81,-424.388 516.132,-386.354 600,-324 624.627,-305.691 647.875,-279.408 663.467,-259.969"/>
<polygon fill="black" stroke="black" points="666.226,-262.122 669.662,-252.1 660.726,-257.792 666.226,-262.122"/>
</g>
<!-- node160 -->
<g id="node41" class="node"><title>node160</title>
<polygon fill="none" stroke="black" points="591,-324 537,-324 537,-288 591,-288 591,-324"/>
<text text-anchor="middle" x="564" y="-302.7" font-family="Times Roman,serif" font-size="12.00">xmllib</text>
</g>
<!-- node115&#45;&gt;node160 -->
<g id="edge54" class="edge"><title>node115&#45;&gt;node160</title>
<path fill="none" stroke="black" d="M337.269,-432.046C358.211,-421.788 384.738,-408.512 408,-396 449.73,-373.556 496.72,-346.146 528.119,-327.515"/>
<polygon fill="black" stroke="black" points="530.137,-330.387 536.942,-322.267 526.558,-324.371 530.137,-330.387"/>
</g>
<!-- node110 -->
<g id="node47" class="node"><title>node110</title>
<polygon fill="none" stroke="black" points="711,-396 649,-396 649,-360 711,-360 711,-396"/>
<text text-anchor="middle" x="680" y="-374.7" font-family="Times Roman,serif" font-size="12.00">esphttp</text>
</g>
<!-- node115&#45;&gt;node110 -->
<g id="edge64" class="edge"><title>node115&#45;&gt;node110</title>
<path fill="none" stroke="black" d="M337.118,-446.603C399.355,-440.332 528.323,-424.865 634,-396 635.678,-395.542 637.378,-395.043 639.088,-394.513"/>
<polygon fill="black" stroke="black" points="640.523,-397.723 648.875,-391.204 638.281,-391.092 640.523,-397.723"/>
</g>
<!-- node152 -->
<g id="node4" class="node"><title>node152</title>
<polygon fill="none" stroke="black" points="126,-36 86.0564,-18 126,-3.55271e-15 165.944,-18 126,-36"/>
<text text-anchor="middle" x="126" y="-14.7" font-family="Times Roman,serif" font-size="12.00">lzma</text>
</g>
<!-- node151&#45;&gt;node152 -->
<g id="edge4" class="edge"><title>node151&#45;&gt;node152</title>
<path fill="none" stroke="black" d="M220.924,-74.0209C200.47,-61.9494 172.554,-45.4743 152.293,-33.5172"/>
<polygon fill="black" stroke="black" points="153.968,-30.4417 143.577,-28.3733 150.41,-36.4701 153.968,-30.4417"/>
</g>
<!-- node187 -->
<g id="node6" class="node"><title>node187</title>
<ellipse fill="none" stroke="black" cx="211" cy="-18" rx="27" ry="18"/>
<text text-anchor="middle" x="211" y="-14.7" font-family="Times Roman,serif" font-size="12.00">dl</text>
</g>
<!-- node151&#45;&gt;node187 -->
<g id="edge6" class="edge"><title>node151&#45;&gt;node187</title>
<path fill="none" stroke="black" d="M238.663,-71.8314C234.405,-63.5451 229.28,-53.5727 224.605,-44.4748"/>
<polygon fill="black" stroke="black" points="227.635,-42.7123 219.951,-35.4177 221.408,-45.9118 227.635,-42.7123"/>
</g>
<!-- node179 -->
<g id="node8" class="node"><title>node179</title>
<ellipse fill="none" stroke="black" cx="286" cy="-18" rx="30.0465" ry="18"/>
<text text-anchor="middle" x="286" y="-14.7" font-family="Times Roman,serif" font-size="12.00">crypt</text>
</g>
<!-- node151&#45;&gt;node179 -->
<g id="edge8" class="edge"><title>node151&#45;&gt;node179</title>
<path fill="none" stroke="black" d="M257.589,-71.8314C261.962,-63.5451 267.226,-53.5727 272.027,-44.4748"/>
<polygon fill="black" stroke="black" points="275.235,-45.8952 276.807,-35.4177 269.044,-42.6279 275.235,-45.8952"/>
</g>
<!-- node188 -->
<g id="node10" class="node"><title>node188</title>
<ellipse fill="none" stroke="black" cx="361" cy="-18" rx="27" ry="18"/>
<text text-anchor="middle" x="361" y="-14.7" font-family="Times Roman,serif" font-size="12.00">rt</text>
</g>
<!-- node151&#45;&gt;node188 -->
<g id="edge10" class="edge"><title>node151&#45;&gt;node188</title>
<path fill="none" stroke="black" d="M275.066,-72.7542C292.414,-61.7009 314.898,-47.375 332.516,-36.1494"/>
<polygon fill="black" stroke="black" points="334.679,-38.9209 341.232,-30.5955 330.918,-33.0174 334.679,-38.9209"/>
</g>
<!-- node153&#45;&gt;node151 -->
<g id="edge14" class="edge"><title>node153&#45;&gt;node151</title>
<path fill="none" stroke="black" d="M181.458,-143.831C192.42,-134.963 205.77,-124.164 217.626,-114.572"/>
<polygon fill="black" stroke="black" points="219.976,-117.173 225.549,-108.163 215.573,-111.731 219.976,-117.173"/>
</g>
<!-- node149&#45;&gt;node151 -->
<g id="edge18" class="edge"><title>node149&#45;&gt;node151</title>
<path fill="none" stroke="black" d="M64.8246,-215.896C76.4318,-195.961 97.4339,-164.079 123,-144 149.377,-123.284 184.909,-108.944 211.349,-100.276"/>
<polygon fill="black" stroke="black" points="212.516,-103.578 220.998,-97.23 210.409,-96.9026 212.516,-103.578"/>
</g>
<!-- node149&#45;&gt;node153 -->
<g id="edge20" class="edge"><title>node149&#45;&gt;node153</title>
<path fill="none" stroke="black" d="M81.2436,-215.831C94.2995,-206.793 110.253,-195.748 124.305,-186.02"/>
<polygon fill="black" stroke="black" points="126.535,-188.733 132.765,-180.163 122.551,-182.977 126.535,-188.733"/>
</g>
<!-- node59&#45;&gt;node151 -->
<g id="edge24" class="edge"><title>node59&#45;&gt;node151</title>
<path fill="none" stroke="black" d="M276.821,-215.762C271.167,-191.093 261.03,-146.86 254.41,-117.973"/>
<polygon fill="black" stroke="black" points="257.791,-117.055 252.146,-108.09 250.968,-118.619 257.791,-117.055"/>
</g>
<!-- node59&#45;&gt;node153 -->
<g id="edge26" class="edge"><title>node59&#45;&gt;node153</title>
<path fill="none" stroke="black" d="M251.778,-216.754C234.85,-206.764 213.391,-194.1 195.376,-183.468"/>
<polygon fill="black" stroke="black" points="196.703,-180.187 186.312,-178.118 193.145,-186.215 196.703,-180.187"/>
</g>
<!-- node66&#45;&gt;node151 -->
<g id="edge30" class="edge"><title>node66&#45;&gt;node151</title>
<path fill="none" stroke="black" d="M171.934,-287.955C186.459,-250.156 220.16,-162.451 237.411,-117.556"/>
<polygon fill="black" stroke="black" points="240.708,-118.735 241.028,-108.145 234.174,-116.224 240.708,-118.735"/>
</g>
<!-- node66&#45;&gt;node153 -->
<g id="edge32" class="edge"><title>node66&#45;&gt;node153</title>
<path fill="none" stroke="black" d="M164.24,-287.762C163.217,-263.201 161.385,-219.247 160.181,-190.354"/>
<polygon fill="black" stroke="black" points="163.667,-189.935 159.754,-180.09 156.673,-190.227 163.667,-189.935"/>
</g>
<!-- node66&#45;&gt;node149 -->
<g id="edge34" class="edge"><title>node66&#45;&gt;node149</title>
<path fill="none" stroke="black" d="M137.242,-287.831C123.197,-278.638 105.98,-267.368 90.9346,-257.521"/>
<polygon fill="black" stroke="black" points="92.6516,-254.462 82.3677,-251.913 88.8179,-260.319 92.6516,-254.462"/>
</g>
<!-- node66&#45;&gt;node59 -->
<g id="edge36" class="edge"><title>node66&#45;&gt;node59</title>
<path fill="none" stroke="black" d="M194.272,-287.831C209.109,-278.622 227.302,-267.33 243.186,-257.471"/>
<polygon fill="black" stroke="black" points="245.087,-260.41 251.738,-252.163 241.395,-254.463 245.087,-260.41"/>
</g>
<!-- node55&#45;&gt;node151 -->
<g id="edge40" class="edge"><title>node55&#45;&gt;node151</title>
<path fill="none" stroke="black" d="M246.444,-359.75C269.047,-337.043 305.035,-295.877 319,-252 334.731,-202.576 298.796,-147.849 272.524,-116.332"/>
<polygon fill="black" stroke="black" points="274.929,-113.76 265.756,-108.459 269.621,-118.323 274.929,-113.76"/>
</g>
<!-- node55&#45;&gt;node153 -->
<g id="edge42" class="edge"><title>node55&#45;&gt;node153</title>
<path fill="none" stroke="black" d="M223.195,-359.912C219.204,-341.625 212.48,-312.625 205,-288 194.544,-253.576 179.955,-214.812 170.03,-189.484"/>
<polygon fill="black" stroke="black" points="173.272,-188.165 166.344,-180.149 166.761,-190.736 173.272,-188.165"/>
</g>
<!-- node55&#45;&gt;node59 -->
<g id="edge44" class="edge"><title>node55&#45;&gt;node59</title>
<path fill="none" stroke="black" d="M233.839,-359.762C243.131,-334.985 259.823,-290.471 270.652,-261.594"/>
<polygon fill="black" stroke="black" points="273.982,-262.682 274.216,-252.09 267.428,-260.224 273.982,-262.682"/>
</g>
<!-- node55&#45;&gt;node66 -->
<g id="edge46" class="edge"><title>node55&#45;&gt;node66</title>
<path fill="none" stroke="black" d="M211.355,-359.831C204.141,-351.454 195.443,-341.353 187.54,-332.175"/>
<polygon fill="black" stroke="black" points="190.033,-329.707 180.856,-324.413 184.729,-334.275 190.033,-329.707"/>
</g>
<!-- node160&#45;&gt;node151 -->
<g id="edge62" class="edge"><title>node160&#45;&gt;node151</title>
<path fill="none" stroke="black" d="M564.853,-287.679C564.8,-267.85 561.748,-236.342 545,-216 477.889,-134.489 348.575,-104.701 285.053,-94.6592"/>
<polygon fill="black" stroke="black" points="285.487,-91.1852 275.078,-93.1602 284.447,-98.1075 285.487,-91.1852"/>
</g>
<!-- node160&#45;&gt;node180 -->
<g id="edge56" class="edge"><title>node160&#45;&gt;node180</title>
<path fill="none" stroke="black" d="M536.934,-288.754C521.839,-279.136 502.855,-267.04 486.572,-256.665"/>
<polygon fill="black" stroke="black" points="488.16,-253.527 477.845,-251.105 484.398,-259.43 488.16,-253.527"/>
</g>
<!-- node160&#45;&gt;node181 -->
<g id="edge58" class="edge"><title>node160&#45;&gt;node181</title>
<path fill="none" stroke="black" d="M591.278,-300.529C645.415,-289.672 768.101,-265.066 848.139,-249.014"/>
<polygon fill="black" stroke="black" points="849.049,-252.401 858.166,-247.003 847.673,-245.538 849.049,-252.401"/>
</g>
<!-- node160&#45;&gt;node182 -->
<g id="edge60" class="edge"><title>node160&#45;&gt;node182</title>
<path fill="none" stroke="black" d="M591.003,-289.662C607.12,-279.911 627.826,-267.383 645.512,-256.682"/>
<polygon fill="black" stroke="black" points="647.7,-259.449 654.445,-251.277 644.077,-253.459 647.7,-259.449"/>
</g>
<!-- node110&#45;&gt;node151 -->
<g id="edge72" class="edge"><title>node110&#45;&gt;node151</title>
<path fill="none" stroke="black" d="M706.451,-359.98C748.359,-329.238 821.517,-265.209 783,-216 720.823,-136.564 396.423,-102.395 285.35,-92.9044"/>
<polygon fill="black" stroke="black" points="285.539,-89.4082 275.282,-92.0624 284.956,-96.3838 285.539,-89.4082"/>
</g>
<!-- node110&#45;&gt;node180 -->
<g id="edge66" class="edge"><title>node110&#45;&gt;node180</title>
<path fill="none" stroke="black" d="M648.99,-371.968C616.639,-364.589 565.502,-349.779 528,-324 503.349,-307.055 481.85,-280.306 467.88,-260.367"/>
<polygon fill="black" stroke="black" points="470.712,-258.308 462.188,-252.016 464.929,-262.251 470.712,-258.308"/>
</g>
<!-- node110&#45;&gt;node181 -->
<g id="edge68" class="edge"><title>node110&#45;&gt;node181</title>
<path fill="none" stroke="black" d="M711.02,-368.849C739.472,-359.734 782.199,-344.199 816,-324 846.671,-305.672 877.446,-278.666 898.066,-259.021"/>
<polygon fill="black" stroke="black" points="900.691,-261.351 905.45,-251.885 895.826,-256.317 900.691,-261.351"/>
</g>
<!-- node110&#45;&gt;node182 -->
<g id="edge70" class="edge"><title>node110&#45;&gt;node182</title>
<path fill="none" stroke="black" d="M680.38,-359.762C680.892,-335.201 681.807,-291.247 682.409,-262.354"/>
<polygon fill="black" stroke="black" points="685.914,-262.16 682.623,-252.09 678.916,-262.015 685.914,-262.16"/>
</g>
<!-- node110&#45;&gt;node160 -->
<g id="edge74" class="edge"><title>node110&#45;&gt;node160</title>
<path fill="none" stroke="black" d="M650.728,-359.831C635.325,-350.271 616.305,-338.465 600.005,-328.348"/>
<polygon fill="black" stroke="black" points="601.612,-325.226 591.27,-322.926 597.921,-331.174 601.612,-325.226"/>
</g>
</g>
</svg>
