<?xml version="1.0" encoding="UTF-8" standalone="no"?>
<!DOCTYPE svg PUBLIC "-//W3C//DTD SVG 1.1//EN"
 "http://www.w3.org/Graphics/SVG/1.1/DTD/svg11.dtd">
<!-- Generated by graphviz version 2.26.3 (20100126.1600)
 -->
<!-- Title: GG Pages: 1 -->
<svg width="2300pt" height="620pt"
 viewBox="0.00 0.00 2300.45 620.00" xmlns="http://www.w3.org/2000/svg" xmlns:xlink="http://www.w3.org/1999/xlink">
<g id="graph1" class="graph" transform="scale(1 1) rotate(0) translate(4 616)">
<title>GG</title>
<polygon fill="white" stroke="white" points="-4,5 -4,-616 2297.45,-616 2297.45,5 -4,5"/>
<!-- node164 -->
<g id="node1" class="node"><title>node164</title>
<polygon fill="none" stroke="black" points="1085.45,-612 1015.45,-612 1015.45,-576 1085.45,-576 1085.45,-612"/>
<text text-anchor="middle" x="1050.45" y="-590.7" font-family="Times Roman,serif" font-size="12.00">graph_lcr</text>
</g>
<!-- node151 -->
<g id="node2" class="node"><title>node151</title>
<polygon fill="none" stroke="black" points="569.452,-108 515.452,-108 515.452,-72 569.452,-72 569.452,-108"/>
<text text-anchor="middle" x="542.452" y="-86.7" font-family="Times Roman,serif" font-size="12.00">jlib</text>
</g>
<!-- node164&#45;&gt;node151 -->
<g id="edge2" class="edge"><title>node164&#45;&gt;node151</title>
<path fill="none" stroke="black" d="M1015.23,-592.957C843.969,-587.776 104.645,-564.085 62.4522,-540 20.7016,-516.167 2.45224,-498.074 2.45224,-450 2.45224,-450 2.45224,-450 2.45224,-234 2.45224,-192.926 -7.35673,-171.165 23.4522,-144 59.4922,-112.223 392.247,-96.0282 505.169,-91.413"/>
<polygon fill="black" stroke="black" points="505.541,-94.9009 515.393,-91.0024 505.26,-87.9066 505.541,-94.9009"/>
</g>
<!-- node150 -->
<g id="node12" class="node"><title>node150</title>
<polygon fill="none" stroke="black" points="86.4522,-180 32.4522,-180 32.4522,-144 86.4522,-144 86.4522,-180"/>
<text text-anchor="middle" x="59.4522" y="-158.7" font-family="Times Roman,serif" font-size="12.00">jhtree</text>
</g>
<!-- node164&#45;&gt;node150 -->
<g id="edge12" class="edge"><title>node164&#45;&gt;node150</title>
<path fill="none" stroke="black" d="M1015.41,-592.906C862.398,-587.985 256.955,-566.96 176.452,-540 107.723,-516.983 40.4522,-522.481 40.4522,-450 40.4522,-450 40.4522,-450 40.4522,-306 40.4522,-265.528 47.9202,-219.204 53.4922,-190.272"/>
<polygon fill="black" stroke="black" points="57.0005,-190.575 55.5154,-180.084 50.1346,-189.211 57.0005,-190.575"/>
</g>
<!-- node59 -->
<g id="node15" class="node"><title>node59</title>
<polygon fill="none" stroke="black" points="202.452,-252 144.452,-252 144.452,-216 202.452,-216 202.452,-252"/>
<text text-anchor="middle" x="173.452" y="-230.7" font-family="Times Roman,serif" font-size="12.00">remote</text>
</g>
<!-- node164&#45;&gt;node59 -->
<g id="edge16" class="edge"><title>node164&#45;&gt;node59</title>
<path fill="none" stroke="black" d="M1015.28,-592.577C841.024,-585.072 78.4522,-546.704 78.4522,-450 78.4522,-450 78.4522,-450 78.4522,-378 78.4522,-330.091 115.544,-285.831 143.373,-259.365"/>
<polygon fill="black" stroke="black" points="145.963,-261.738 150.939,-252.384 141.216,-256.594 145.963,-261.738"/>
</g>
<!-- node66 -->
<g id="node21" class="node"><title>node66</title>
<polygon fill="none" stroke="black" points="476.452,-324 414.452,-324 414.452,-288 476.452,-288 476.452,-324"/>
<text text-anchor="middle" x="445.452" y="-302.7" font-family="Times Roman,serif" font-size="12.00">dalibase</text>
</g>
<!-- node164&#45;&gt;node66 -->
<g id="edge24" class="edge"><title>node164&#45;&gt;node66</title>
<path fill="none" stroke="black" d="M1047.6,-575.798C1039.46,-530.524 1011.56,-412.698 935.452,-360 867.716,-313.097 648.225,-334.065 566.452,-324 539.736,-320.712 509.814,-316.267 486.41,-312.618"/>
<polygon fill="black" stroke="black" points="486.902,-309.152 476.48,-311.056 485.814,-316.067 486.902,-309.152"/>
</g>
<!-- node55 -->
<g id="node30" class="node"><title>node55</title>
<polygon fill="none" stroke="black" points="196.452,-396 106.452,-396 106.452,-360 196.452,-360 196.452,-396"/>
<text text-anchor="middle" x="151.452" y="-374.7" font-family="Times Roman,serif" font-size="12.00">environment</text>
</g>
<!-- node164&#45;&gt;node55 -->
<g id="edge38" class="edge"><title>node164&#45;&gt;node55</title>
<path fill="none" stroke="black" d="M1015.15,-586.388C899.497,-561.294 521.655,-478.083 212.452,-396 210.531,-395.49 208.579,-394.963 206.609,-394.423"/>
<polygon fill="black" stroke="black" points="207.251,-390.969 196.678,-391.646 205.365,-397.71 207.251,-390.969"/>
</g>
<!-- node54 -->
<g id="node36" class="node"><title>node54</title>
<polygon fill="none" stroke="black" points="899.452,-468 833.452,-468 833.452,-432 899.452,-432 899.452,-468"/>
<text text-anchor="middle" x="866.452" y="-446.7" font-family="Times Roman,serif" font-size="12.00">dllserver</text>
</g>
<!-- node164&#45;&gt;node54 -->
<g id="edge48" class="edge"><title>node164&#45;&gt;node54</title>
<path fill="none" stroke="black" d="M1016.39,-575.949C999.042,-566.175 977.977,-553.379 960.452,-540 934.725,-520.359 908.354,-494.515 890.118,-475.563"/>
<polygon fill="black" stroke="black" points="892.496,-472.985 883.066,-468.155 887.426,-477.811 892.496,-472.985"/>
</g>
<!-- node146 -->
<g id="node43" class="node"><title>node146</title>
<polygon fill="none" stroke="black" points="1208.45,-396 1154.45,-396 1154.45,-360 1208.45,-360 1208.45,-396"/>
<text text-anchor="middle" x="1181.45" y="-374.7" font-family="Times Roman,serif" font-size="12.00">eclrtl</text>
</g>
<!-- node164&#45;&gt;node146 -->
<g id="edge86" class="edge"><title>node164&#45;&gt;node146</title>
<path fill="none" stroke="black" d="M1085.58,-588.045C1113.22,-581.373 1150.17,-567.627 1169.45,-540 1197.17,-500.285 1193.1,-440.951 1187.42,-406.193"/>
<polygon fill="black" stroke="black" points="1190.84,-405.47 1185.64,-396.244 1183.95,-406.704 1190.84,-405.47"/>
</g>
<!-- node147 -->
<g id="node54" class="node"><title>node147</title>
<polygon fill="none" stroke="black" points="1506.45,-324 1452.45,-324 1452.45,-288 1506.45,-288 1506.45,-324"/>
<text text-anchor="middle" x="1479.45" y="-302.7" font-family="Times Roman,serif" font-size="12.00">nbcd</text>
</g>
<!-- node164&#45;&gt;node147 -->
<g id="edge84" class="edge"><title>node164&#45;&gt;node147</title>
<path fill="none" stroke="black" d="M1085.75,-583.93C1115.15,-574.748 1157.53,-559.629 1191.45,-540 1301.09,-476.548 1314.02,-439.747 1412.45,-360 1424.31,-350.389 1437.38,-339.846 1448.8,-330.646"/>
<polygon fill="black" stroke="black" points="1451.2,-333.215 1456.79,-324.218 1446.81,-327.763 1451.2,-333.215"/>
</g>
<!-- node53 -->
<g id="node66" class="node"><title>node53</title>
<polygon fill="none" stroke="black" points="1413.45,-468 1353.45,-468 1353.45,-432 1413.45,-432 1413.45,-468"/>
<text text-anchor="middle" x="1383.45" y="-446.7" font-family="Times Roman,serif" font-size="12.00">deftype</text>
</g>
<!-- node164&#45;&gt;node53 -->
<g id="edge88" class="edge"><title>node164&#45;&gt;node53</title>
<path fill="none" stroke="black" d="M1085.52,-590.491C1150.32,-583.463 1285.74,-566.062 1324.45,-540 1347.06,-524.777 1363.06,-497.674 1372.65,-477.177"/>
<polygon fill="black" stroke="black" points="1375.86,-478.569 1376.72,-468.009 1369.46,-475.728 1375.86,-478.569"/>
</g>
<!-- node64 -->
<g id="node71" class="node"><title>node64</title>
<polygon fill="none" stroke="black" points="1160.45,-540 1092.45,-540 1092.45,-504 1160.45,-504 1160.45,-540"/>
<text text-anchor="middle" x="1126.45" y="-518.7" font-family="Times Roman,serif" font-size="12.00">workunit</text>
</g>
<!-- node164&#45;&gt;node64 -->
<g id="edge96" class="edge"><title>node164&#45;&gt;node64</title>
<path fill="none" stroke="black" d="M1069.63,-575.831C1078.81,-567.134 1089.95,-556.578 1099.93,-547.127"/>
<polygon fill="black" stroke="black" points="1102.43,-549.581 1107.28,-540.163 1097.61,-544.499 1102.43,-549.581"/>
</g>
<!-- node52 -->
<g id="node79" class="node"><title>node52</title>
<polygon fill="none" stroke="black" points="2292.45,-252 2206.45,-252 2206.45,-216 2292.45,-216 2292.45,-252"/>
<text text-anchor="middle" x="2249.45" y="-230.7" font-family="Times Roman,serif" font-size="12.00">commonext</text>
</g>
<!-- node164&#45;&gt;node52 -->
<g id="edge110" class="edge"><title>node164&#45;&gt;node52</title>
<path fill="none" stroke="black" d="M1085.54,-593.512C1281.66,-590.33 2233.45,-568.772 2233.45,-450 2233.45,-450 2233.45,-450 2233.45,-378 2233.45,-337.629 2239.74,-291.279 2244.43,-262.315"/>
<polygon fill="black" stroke="black" points="2247.94,-262.554 2246.14,-252.114 2241.04,-261.4 2247.94,-262.554"/>
</g>
<!-- node63 -->
<g id="node82" class="node"><title>node63</title>
<polygon fill="none" stroke="black" points="1507.45,-540 1431.45,-540 1431.45,-504 1507.45,-504 1507.45,-540"/>
<text text-anchor="middle" x="1469.45" y="-518.7" font-family="Times Roman,serif" font-size="12.00">thorhelper</text>
</g>
<!-- node164&#45;&gt;node63 -->
<g id="edge114" class="edge"><title>node164&#45;&gt;node63</title>
<path fill="none" stroke="black" d="M1085.75,-588.287C1145.03,-578.643 1268.35,-558.387 1372.45,-540 1388.36,-537.19 1405.72,-534.006 1421.3,-531.106"/>
<polygon fill="black" stroke="black" points="1422.05,-534.525 1431.24,-529.249 1420.77,-527.645 1422.05,-534.525"/>
</g>
<!-- node152 -->
<g id="node4" class="node"><title>node152</title>
<polygon fill="none" stroke="black" points="420.452,-36 380.509,-18 420.452,-3.55271e-15 460.396,-18 420.452,-36"/>
<text text-anchor="middle" x="420.452" y="-14.7" font-family="Times Roman,serif" font-size="12.00">lzma</text>
</g>
<!-- node151&#45;&gt;node152 -->
<g id="edge4" class="edge"><title>node151&#45;&gt;node152</title>
<path fill="none" stroke="black" d="M515.376,-74.0209C494.922,-61.9494 467.006,-45.4743 446.745,-33.5172"/>
<polygon fill="black" stroke="black" points="448.42,-30.4417 438.029,-28.3733 444.862,-36.4701 448.42,-30.4417"/>
</g>
<!-- node187 -->
<g id="node6" class="node"><title>node187</title>
<ellipse fill="none" stroke="black" cx="505.452" cy="-18" rx="27" ry="18"/>
<text text-anchor="middle" x="505.452" y="-14.7" font-family="Times Roman,serif" font-size="12.00">dl</text>
</g>
<!-- node151&#45;&gt;node187 -->
<g id="edge6" class="edge"><title>node151&#45;&gt;node187</title>
<path fill="none" stroke="black" d="M533.116,-71.8314C528.857,-63.5451 523.733,-53.5727 519.057,-44.4748"/>
<polygon fill="black" stroke="black" points="522.087,-42.7123 514.403,-35.4177 515.861,-45.9118 522.087,-42.7123"/>
</g>
<!-- node179 -->
<g id="node8" class="node"><title>node179</title>
<ellipse fill="none" stroke="black" cx="580.452" cy="-18" rx="30.0465" ry="18"/>
<text text-anchor="middle" x="580.452" y="-14.7" font-family="Times Roman,serif" font-size="12.00">crypt</text>
</g>
<!-- node151&#45;&gt;node179 -->
<g id="edge8" class="edge"><title>node151&#45;&gt;node179</title>
<path fill="none" stroke="black" d="M552.041,-71.8314C556.415,-63.5451 561.678,-53.5727 566.479,-44.4748"/>
<polygon fill="black" stroke="black" points="569.687,-45.8952 571.26,-35.4177 563.497,-42.6279 569.687,-45.8952"/>
</g>
<!-- node188 -->
<g id="node10" class="node"><title>node188</title>
<ellipse fill="none" stroke="black" cx="655.452" cy="-18" rx="27" ry="18"/>
<text text-anchor="middle" x="655.452" y="-14.7" font-family="Times Roman,serif" font-size="12.00">rt</text>
</g>
<!-- node151&#45;&gt;node188 -->
<g id="edge10" class="edge"><title>node151&#45;&gt;node188</title>
<path fill="none" stroke="black" d="M569.519,-72.7542C586.866,-61.7009 609.35,-47.375 626.968,-36.1494"/>
<polygon fill="black" stroke="black" points="629.132,-38.9209 635.684,-30.5955 625.37,-33.0174 629.132,-38.9209"/>
</g>
<!-- node150&#45;&gt;node151 -->
<g id="edge14" class="edge"><title>node150&#45;&gt;node151</title>
<path fill="none" stroke="black" d="M86.82,-149.235C91.9306,-147.229 97.2894,-145.369 102.452,-144 248.278,-105.32 428.772,-94.2142 505.335,-91.1337"/>
<polygon fill="black" stroke="black" points="505.574,-94.6273 515.434,-90.7503 505.308,-87.6323 505.574,-94.6273"/>
</g>
<!-- node59&#45;&gt;node151 -->
<g id="edge18" class="edge"><title>node59&#45;&gt;node151</title>
<path fill="none" stroke="black" d="M191.572,-215.816C213.202,-195.19 251.38,-162.08 290.452,-144 361.913,-110.933 454.21,-97.8101 504.927,-92.8373"/>
<polygon fill="black" stroke="black" points="505.462,-96.3029 515.096,-91.8956 504.816,-89.3327 505.462,-96.3029"/>
</g>
<!-- node153 -->
<g id="node18" class="node"><title>node153</title>
<polygon fill="none" stroke="black" points="353.452,-180 299.452,-180 299.452,-144 353.452,-144 353.452,-180"/>
<text text-anchor="middle" x="326.452" y="-158.7" font-family="Times Roman,serif" font-size="12.00">mp</text>
</g>
<!-- node59&#45;&gt;node153 -->
<g id="edge20" class="edge"><title>node59&#45;&gt;node153</title>
<path fill="none" stroke="black" d="M202.591,-220.288C227.487,-208.572 263.416,-191.664 290.172,-179.073"/>
<polygon fill="black" stroke="black" points="291.663,-182.24 299.221,-174.815 288.682,-175.906 291.663,-182.24"/>
</g>
<!-- node153&#45;&gt;node151 -->
<g id="edge22" class="edge"><title>node153&#45;&gt;node151</title>
<path fill="none" stroke="black" d="M353.809,-152.881C392.355,-140.032 462.743,-116.57 505.785,-102.222"/>
<polygon fill="black" stroke="black" points="506.938,-105.528 515.318,-99.0448 504.724,-98.8868 506.938,-105.528"/>
</g>
<!-- node66&#45;&gt;node151 -->
<g id="edge26" class="edge"><title>node66&#45;&gt;node151</title>
<path fill="none" stroke="black" d="M459.652,-287.716C467.09,-277.575 475.973,-264.514 482.452,-252 505.719,-207.058 524.381,-150.979 534.401,-117.971"/>
<polygon fill="black" stroke="black" points="537.838,-118.691 537.345,-108.107 531.131,-116.689 537.838,-118.691"/>
</g>
<!-- node66&#45;&gt;node59 -->
<g id="edge36" class="edge"><title>node66&#45;&gt;node59</title>
<path fill="none" stroke="black" d="M414.25,-297.741C364.435,-284.554 267.021,-258.768 212.603,-244.363"/>
<polygon fill="black" stroke="black" points="213.204,-240.902 202.642,-241.727 211.413,-247.669 213.204,-240.902"/>
</g>
<!-- node66&#45;&gt;node153 -->
<g id="edge28" class="edge"><title>node66&#45;&gt;node153</title>
<path fill="none" stroke="black" d="M430.381,-287.762C409.547,-262.552 371.83,-216.91 348.017,-188.095"/>
<polygon fill="black" stroke="black" points="350.47,-185.569 341.401,-180.09 345.074,-190.028 350.47,-185.569"/>
</g>
<!-- node149 -->
<g id="node25" class="node"><title>node149</title>
<polygon fill="none" stroke="black" points="473.452,-252 419.452,-252 419.452,-216 473.452,-216 473.452,-252"/>
<text text-anchor="middle" x="446.452" y="-230.7" font-family="Times Roman,serif" font-size="12.00">hrpc</text>
</g>
<!-- node66&#45;&gt;node149 -->
<g id="edge30" class="edge"><title>node66&#45;&gt;node149</title>
<path fill="none" stroke="black" d="M445.705,-287.831C445.812,-280.131 445.939,-270.974 446.058,-262.417"/>
<polygon fill="black" stroke="black" points="449.557,-262.461 446.197,-252.413 442.558,-262.364 449.557,-262.461"/>
</g>
<!-- node149&#45;&gt;node151 -->
<g id="edge32" class="edge"><title>node149&#45;&gt;node151</title>
<path fill="none" stroke="black" d="M452.8,-215.762C459.865,-196.842 472.427,-166.879 488.452,-144 495.702,-133.65 505.039,-123.521 513.903,-114.884"/>
<polygon fill="black" stroke="black" points="516.317,-117.419 521.183,-108.007 511.51,-112.33 516.317,-117.419"/>
</g>
<!-- node149&#45;&gt;node153 -->
<g id="edge34" class="edge"><title>node149&#45;&gt;node153</title>
<path fill="none" stroke="black" d="M419.222,-217.662C402.345,-207.536 380.478,-194.416 362.214,-183.457"/>
<polygon fill="black" stroke="black" points="363.95,-180.417 353.574,-178.273 360.349,-186.419 363.95,-180.417"/>
</g>
<!-- node55&#45;&gt;node151 -->
<g id="edge40" class="edge"><title>node55&#45;&gt;node151</title>
<path fill="none" stroke="black" d="M143.611,-359.828C131.395,-328.583 111.573,-263.464 135.452,-216 159.582,-168.038 183.117,-165.179 232.452,-144 281.036,-123.143 433.377,-102.955 504.797,-94.3476"/>
<polygon fill="black" stroke="black" points="505.616,-97.7748 515.131,-93.1151 504.787,-90.8241 505.616,-97.7748"/>
</g>
<!-- node55&#45;&gt;node59 -->
<g id="edge44" class="edge"><title>node55&#45;&gt;node59</title>
<path fill="none" stroke="black" d="M154.239,-359.762C157.991,-335.201 164.706,-291.247 169.12,-262.354"/>
<polygon fill="black" stroke="black" points="172.638,-262.504 170.689,-252.09 165.718,-261.446 172.638,-262.504"/>
</g>
<!-- node55&#45;&gt;node153 -->
<g id="edge42" class="edge"><title>node55&#45;&gt;node153</title>
<path fill="none" stroke="black" d="M160.384,-359.515C176.292,-327.795 211.889,-261.982 254.452,-216 265.146,-204.447 278.574,-193.624 290.929,-184.746"/>
<polygon fill="black" stroke="black" points="293.069,-187.52 299.263,-178.924 289.061,-181.781 293.069,-187.52"/>
</g>
<!-- node55&#45;&gt;node66 -->
<g id="edge46" class="edge"><title>node55&#45;&gt;node66</title>
<path fill="none" stroke="black" d="M196.745,-366.908C253.339,-353.048 349.382,-329.527 404.079,-316.132"/>
<polygon fill="black" stroke="black" points="405.237,-319.452 414.118,-313.674 403.572,-312.653 405.237,-319.452"/>
</g>
<!-- node54&#45;&gt;node151 -->
<g id="edge52" class="edge"><title>node54&#45;&gt;node151</title>
<path fill="none" stroke="black" d="M899.885,-438.699C919.271,-430.223 942.045,-416.507 953.452,-396 961.23,-382.018 964.229,-371.826 953.452,-360 895.276,-296.16 627.814,-384.784 566.452,-324 538.097,-295.911 539.051,-174.293 541.087,-118.35"/>
<polygon fill="black" stroke="black" points="544.595,-118.217 541.501,-108.084 537.601,-117.935 544.595,-118.217"/>
</g>
<!-- node54&#45;&gt;node59 -->
<g id="edge74" class="edge"><title>node54&#45;&gt;node59</title>
<path fill="none" stroke="black" d="M833.395,-448.03C708.69,-440.479 272.608,-412.962 248.452,-396 203.782,-364.633 185.078,-299.753 177.754,-262.316"/>
<polygon fill="black" stroke="black" points="181.129,-261.308 175.904,-252.091 174.241,-262.554 181.129,-261.308"/>
</g>
<!-- node54&#45;&gt;node153 -->
<g id="edge54" class="edge"><title>node54&#45;&gt;node153</title>
<path fill="none" stroke="black" d="M833.274,-449.484C714.967,-447.305 318.822,-436.978 281.452,-396 228.422,-337.849 279.058,-236.903 308.572,-188.878"/>
<polygon fill="black" stroke="black" points="311.62,-190.606 313.982,-180.278 305.694,-186.879 311.62,-190.606"/>
</g>
<!-- node54&#45;&gt;node66 -->
<g id="edge76" class="edge"><title>node54&#45;&gt;node66</title>
<path fill="none" stroke="black" d="M889.201,-431.885C910.848,-412.521 937.385,-381.684 917.452,-360 885.23,-324.947 536.786,-334.962 490.452,-324 489.019,-323.661 487.572,-323.284 486.119,-322.876"/>
<polygon fill="black" stroke="black" points="487.129,-319.525 476.538,-319.806 484.993,-326.191 487.129,-319.525"/>
</g>
<!-- node54&#45;&gt;node149 -->
<g id="edge56" class="edge"><title>node54&#45;&gt;node149</title>
<path fill="none" stroke="black" d="M896.495,-431.85C923.843,-413.134 956.923,-383.454 935.452,-360 874.142,-293.028 609.81,-364.313 528.452,-324 513.458,-316.57 485.644,-283.904 466.604,-260.06"/>
<polygon fill="black" stroke="black" points="469.218,-257.723 460.271,-252.05 463.727,-262.065 469.218,-257.723"/>
</g>
<!-- node54&#45;&gt;node55 -->
<g id="edge78" class="edge"><title>node54&#45;&gt;node55</title>
<path fill="none" stroke="black" d="M833.096,-448.201C717.125,-441.798 331.948,-419.256 210.452,-396 209.18,-395.757 207.897,-395.496 206.606,-395.22"/>
<polygon fill="black" stroke="black" points="207.163,-391.755 196.625,-392.849 205.545,-398.566 207.163,-391.755"/>
</g>
<!-- node176 -->
<g id="node38" class="node"><title>node176</title>
<ellipse fill="none" stroke="black" cx="421.452" cy="-378" rx="130.789" ry="18"/>
<text text-anchor="middle" x="421.452" y="-374.7" font-family="Times Roman,serif" font-size="12.00">/usr/lib/x86_64&#45;linux&#45;gnu/libz.so</text>
</g>
<!-- node54&#45;&gt;node176 -->
<g id="edge50" class="edge"><title>node54&#45;&gt;node176</title>
<path fill="none" stroke="black" d="M833.368,-444.647C767.158,-433.934 616.179,-409.506 516.568,-393.389"/>
<polygon fill="black" stroke="black" points="516.923,-389.901 506.492,-391.759 515.805,-396.812 516.923,-389.901"/>
</g>
<!-- node54&#45;&gt;node146 -->
<g id="edge58" class="edge"><title>node54&#45;&gt;node146</title>
<path fill="none" stroke="black" d="M899.567,-442.431C958.698,-428.915 1082.05,-400.721 1144.1,-386.537"/>
<polygon fill="black" stroke="black" points="1145.26,-389.862 1154.23,-384.222 1143.7,-383.038 1145.26,-389.862"/>
</g>
<!-- node177 -->
<g id="node60" class="node"><title>node177</title>
<ellipse fill="none" stroke="black" cx="641.452" cy="-378" rx="70.8437" ry="18"/>
<text text-anchor="middle" x="641.452" y="-374.7" font-family="Times Roman,serif" font-size="12.00">/usr/lib/libbfd.so</text>
</g>
<!-- node54&#45;&gt;node177 -->
<g id="edge80" class="edge"><title>node54&#45;&gt;node177</title>
<path fill="none" stroke="black" d="M833.253,-439.376C796.962,-427.763 738.272,-408.982 695.359,-395.25"/>
<polygon fill="black" stroke="black" points="696.228,-391.853 685.637,-392.139 694.094,-398.52 696.228,-391.853"/>
</g>
<!-- node178 -->
<g id="node62" class="node"><title>node178</title>
<ellipse fill="none" stroke="black" cx="819.452" cy="-378" rx="89.0421" ry="18"/>
<text text-anchor="middle" x="819.452" y="-374.7" font-family="Times Roman,serif" font-size="12.00">/usr/lib/libiberty_pic.a</text>
</g>
<!-- node54&#45;&gt;node178 -->
<g id="edge82" class="edge"><title>node54&#45;&gt;node178</title>
<path fill="none" stroke="black" d="M854.592,-431.831C849.152,-423.497 842.598,-413.457 836.631,-404.316"/>
<polygon fill="black" stroke="black" points="839.543,-402.374 831.146,-395.913 833.681,-406.2 839.543,-402.374"/>
</g>
<!-- node146&#45;&gt;node151 -->
<g id="edge68" class="edge"><title>node146&#45;&gt;node151</title>
<path fill="none" stroke="black" d="M1154.07,-364.641C1149.6,-362.851 1144.96,-361.216 1140.45,-360 1004.41,-323.265 953.176,-383.52 825.452,-324 804.365,-314.173 804.957,-303.323 787.452,-288 713.114,-222.926 621.688,-151.095 574.31,-114.448"/>
<polygon fill="black" stroke="black" points="576.32,-111.578 566.266,-108.237 572.042,-117.119 576.32,-111.578"/>
</g>
<!-- node186 -->
<g id="node45" class="node"><title>node186</title>
<ellipse fill="none" stroke="black" cx="953.452" cy="-306" rx="118.939" ry="18"/>
<text text-anchor="middle" x="953.452" y="-302.7" font-family="Times Roman,serif" font-size="12.00">/usr/lib/libboost_regex&#45;mt.so</text>
</g>
<!-- node146&#45;&gt;node186 -->
<g id="edge60" class="edge"><title>node146&#45;&gt;node186</title>
<path fill="none" stroke="black" d="M1154.31,-365.483C1149.73,-363.543 1144.98,-361.641 1140.45,-360 1102.7,-346.329 1059.7,-333.715 1024.46,-324.122"/>
<polygon fill="black" stroke="black" points="1025.31,-320.725 1014.74,-321.498 1023.49,-327.483 1025.31,-320.725"/>
</g>
<!-- node183 -->
<g id="node47" class="node"><title>node183</title>
<ellipse fill="none" stroke="black" cx="1168.45" cy="-306" rx="77.9931" ry="18"/>
<text text-anchor="middle" x="1168.45" y="-302.7" font-family="Times Roman,serif" font-size="12.00">/usr/lib/libicuuc.so</text>
</g>
<!-- node146&#45;&gt;node183 -->
<g id="edge62" class="edge"><title>node146&#45;&gt;node183</title>
<path fill="none" stroke="black" d="M1178.17,-359.831C1176.78,-352.131 1175.13,-342.974 1173.58,-334.417"/>
<polygon fill="black" stroke="black" points="1177,-333.632 1171.78,-324.413 1170.11,-334.876 1177,-333.632"/>
</g>
<!-- node184 -->
<g id="node49" class="node"><title>node184</title>
<ellipse fill="none" stroke="black" cx="1349.45" cy="-306" rx="85.1424" ry="18"/>
<text text-anchor="middle" x="1349.45" y="-302.7" font-family="Times Roman,serif" font-size="12.00">/usr/lib/libicui18n.so</text>
</g>
<!-- node146&#45;&gt;node184 -->
<g id="edge64" class="edge"><title>node146&#45;&gt;node184</title>
<path fill="none" stroke="black" d="M1208.82,-366.272C1234.07,-355.449 1272.11,-339.148 1302.26,-326.226"/>
<polygon fill="black" stroke="black" points="1303.93,-329.317 1311.74,-322.161 1301.17,-322.883 1303.93,-329.317"/>
</g>
<!-- node185 -->
<g id="node51" class="node"><title>node185</title>
<ellipse fill="none" stroke="black" cx="693.452" cy="-306" rx="85.1424" ry="18"/>
<text text-anchor="middle" x="693.452" y="-302.7" font-family="Times Roman,serif" font-size="12.00">/usr/lib/libicudata.so</text>
</g>
<!-- node146&#45;&gt;node185 -->
<g id="edge66" class="edge"><title>node146&#45;&gt;node185</title>
<path fill="none" stroke="black" d="M1154.08,-364.599C1149.61,-362.814 1144.96,-361.192 1140.45,-360 990.122,-320.269 946.391,-345.924 792.452,-324 783.908,-322.783 774.974,-321.365 766.119,-319.87"/>
<polygon fill="black" stroke="black" points="766.63,-316.406 756.18,-318.155 765.439,-323.304 766.63,-316.406"/>
</g>
<!-- node146&#45;&gt;node147 -->
<g id="edge70" class="edge"><title>node146&#45;&gt;node147</title>
<path fill="none" stroke="black" d="M1208.46,-371.204C1222.7,-367.701 1240.48,-363.451 1256.45,-360 1336.11,-342.783 1361.43,-350.544 1442.62,-323.805"/>
<polygon fill="black" stroke="black" points="1443.91,-327.066 1452.27,-320.556 1441.67,-320.432 1443.91,-327.066"/>
</g>
<!-- node147&#45;&gt;node151 -->
<g id="edge72" class="edge"><title>node147&#45;&gt;node151</title>
<path fill="none" stroke="black" d="M1452.23,-291.554C1449.31,-290.256 1446.35,-289.041 1443.45,-288 1176.05,-191.781 1098.43,-203.104 820.452,-144 734.565,-125.738 633.213,-106.675 579.774,-96.8167"/>
<polygon fill="black" stroke="black" points="580.213,-93.3387 569.744,-94.9707 578.946,-100.223 580.213,-93.3387"/>
</g>
<!-- node53&#45;&gt;node151 -->
<g id="edge90" class="edge"><title>node53&#45;&gt;node151</title>
<path fill="none" stroke="black" d="M1413.81,-434.08C1464.34,-405.498 1556.3,-343.301 1515.45,-288 1400.96,-132.979 744.229,-97.7087 579.782,-91.263"/>
<polygon fill="black" stroke="black" points="579.799,-87.7612 569.673,-90.8791 579.533,-94.7561 579.799,-87.7612"/>
</g>
<!-- node53&#45;&gt;node146 -->
<g id="edge94" class="edge"><title>node53&#45;&gt;node146</title>
<path fill="none" stroke="black" d="M1353.21,-439.221C1317.24,-426.401 1257.22,-405.005 1218.5,-391.204"/>
<polygon fill="black" stroke="black" points="1219.25,-387.758 1208.66,-387.697 1216.9,-394.352 1219.25,-387.758"/>
</g>
<!-- node53&#45;&gt;node147 -->
<g id="edge92" class="edge"><title>node53&#45;&gt;node147</title>
<path fill="none" stroke="black" d="M1393.89,-431.732C1404.58,-413.305 1421.93,-384.198 1438.45,-360 1444.79,-350.717 1452.1,-340.847 1458.78,-332.118"/>
<polygon fill="black" stroke="black" points="1461.59,-334.208 1464.94,-324.156 1456.05,-329.925 1461.59,-334.208"/>
</g>
<!-- node64&#45;&gt;node151 -->
<g id="edge98" class="edge"><title>node64&#45;&gt;node151</title>
<path fill="none" stroke="black" d="M1123.17,-503.706C1119.19,-484.741 1111.24,-454.741 1097.45,-432 1074.15,-393.571 1067.15,-379.071 1026.45,-360 940.226,-319.59 671.793,-385.926 599.452,-324 595.474,-320.594 562.793,-179.118 548.786,-117.831"/>
<polygon fill="black" stroke="black" points="552.189,-117.013 546.552,-108.042 545.365,-118.57 552.189,-117.013"/>
</g>
<!-- node64&#45;&gt;node66 -->
<g id="edge100" class="edge"><title>node64&#45;&gt;node66</title>
<path fill="none" stroke="black" d="M1117.3,-503.866C1098.57,-468.916 1052.19,-392.79 988.452,-360 904.761,-316.942 659.934,-334.93 566.452,-324 539.716,-320.874 509.795,-316.431 486.395,-312.742"/>
<polygon fill="black" stroke="black" points="486.893,-309.277 476.467,-311.16 485.792,-316.19 486.893,-309.277"/>
</g>
<!-- node64&#45;&gt;node54 -->
<g id="edge102" class="edge"><title>node64&#45;&gt;node54</title>
<path fill="none" stroke="black" d="M1092.19,-512.513C1045.14,-499.482 960.528,-476.052 909.326,-461.873"/>
<polygon fill="black" stroke="black" points="910.124,-458.462 899.553,-459.166 908.256,-465.208 910.124,-458.462"/>
</g>
<!-- node64&#45;&gt;node146 -->
<g id="edge106" class="edge"><title>node64&#45;&gt;node146</title>
<path fill="none" stroke="black" d="M1133.42,-503.762C1142.88,-478.985 1159.88,-434.471 1170.91,-405.594"/>
<polygon fill="black" stroke="black" points="1174.24,-406.68 1174.54,-396.09 1167.71,-404.183 1174.24,-406.68"/>
</g>
<!-- node64&#45;&gt;node147 -->
<g id="edge104" class="edge"><title>node64&#45;&gt;node147</title>
<path fill="none" stroke="black" d="M1139.93,-503.997C1166.18,-470.291 1227.61,-397.676 1296.45,-360 1352.69,-329.222 1377.91,-345.473 1442.41,-323.878"/>
<polygon fill="black" stroke="black" points="1443.96,-327.042 1452.22,-320.407 1441.62,-320.443 1443.96,-327.042"/>
</g>
<!-- node64&#45;&gt;node53 -->
<g id="edge108" class="edge"><title>node64&#45;&gt;node53</title>
<path fill="none" stroke="black" d="M1160.58,-512.439C1207.84,-499.198 1293.07,-475.321 1343.32,-461.242"/>
<polygon fill="black" stroke="black" points="1344.5,-464.546 1353.19,-458.478 1342.62,-457.806 1344.5,-464.546"/>
</g>
<!-- node52&#45;&gt;node151 -->
<g id="edge112" class="edge"><title>node52&#45;&gt;node151</title>
<path fill="none" stroke="black" d="M2243.72,-215.638C2235.93,-194.175 2219.75,-159.608 2192.45,-144 2120.17,-102.663 819.012,-91.8741 580.006,-90.2378"/>
<polygon fill="black" stroke="black" points="579.771,-86.7362 569.747,-90.1687 579.723,-93.736 579.771,-86.7362"/>
</g>
<!-- node63&#45;&gt;node151 -->
<g id="edge116" class="edge"><title>node63&#45;&gt;node151</title>
<path fill="none" stroke="black" d="M1482.82,-503.808C1510.57,-463.663 1569.14,-364.946 1535.45,-288 1516.53,-244.783 1498.25,-239.699 1457.45,-216 1365.93,-162.833 1334.33,-164.273 1230.45,-144 1103.91,-119.303 703.845,-97.9645 579.62,-91.7937"/>
<polygon fill="black" stroke="black" points="579.635,-88.2902 569.474,-91.2931 579.29,-95.2817 579.635,-88.2902"/>
</g>
<!-- node63&#45;&gt;node146 -->
<g id="edge120" class="edge"><title>node63&#45;&gt;node146</title>
<path fill="none" stroke="black" d="M1464.93,-503.802C1458.84,-483.162 1445.94,-450.039 1422.45,-432 1390.85,-407.73 1278.13,-390.24 1218.71,-382.476"/>
<polygon fill="black" stroke="black" points="1218.98,-378.982 1208.62,-381.183 1218.09,-385.925 1218.98,-378.982"/>
</g>
<!-- node63&#45;&gt;node147 -->
<g id="edge118" class="edge"><title>node63&#45;&gt;node147</title>
<path fill="none" stroke="black" d="M1470.29,-503.955C1472.03,-466.394 1476.05,-379.554 1478.14,-334.41"/>
<polygon fill="black" stroke="black" points="1481.65,-334.296 1478.61,-324.145 1474.65,-333.972 1481.65,-334.296"/>
</g>
<!-- node63&#45;&gt;node53 -->
<g id="edge122" class="edge"><title>node63&#45;&gt;node53</title>
<path fill="none" stroke="black" d="M1447.75,-503.831C1437.26,-495.048 1424.51,-484.371 1413.13,-474.849"/>
<polygon fill="black" stroke="black" points="1415.06,-471.899 1405.15,-468.163 1410.57,-477.266 1415.06,-471.899"/>
</g>
<!-- node156 -->
<g id="node88" class="node"><title>node156</title>
<polygon fill="none" stroke="black" points="1907.45,-468 1813.45,-468 1813.45,-432 1907.45,-432 1907.45,-468"/>
<text text-anchor="middle" x="1860.45" y="-446.7" font-family="Times Roman,serif" font-size="12.00">securesocket</text>
</g>
<!-- node63&#45;&gt;node156 -->
<g id="edge124" class="edge"><title>node63&#45;&gt;node156</title>
<path fill="none" stroke="black" d="M1507.65,-514.965C1576.67,-502.257 1722.45,-475.413 1803.34,-460.516"/>
<polygon fill="black" stroke="black" points="1804.16,-463.926 1813.36,-458.672 1802.89,-457.041 1804.16,-463.926"/>
</g>
<!-- node156&#45;&gt;node151 -->
<g id="edge126" class="edge"><title>node156&#45;&gt;node151</title>
<path fill="none" stroke="black" d="M1907.7,-447.743C1982.75,-443.161 2124.31,-430.129 2159.45,-396 2188.78,-367.52 2178.45,-346.882 2178.45,-306 2178.45,-306 2178.45,-306 2178.45,-234 2178.45,-150.944 822.801,-99.7752 579.585,-91.2633"/>
<polygon fill="black" stroke="black" points="579.599,-87.7618 569.483,-90.912 579.355,-94.7576 579.599,-87.7618"/>
</g>
<!-- node191 -->
<g id="node91" class="node"><title>node191</title>
<ellipse fill="none" stroke="black" cx="2013.45" cy="-378" rx="137.138" ry="18"/>
<text text-anchor="middle" x="2013.45" y="-374.7" font-family="Times Roman,serif" font-size="12.00">/usr/lib/x86_64&#45;linux&#45;gnu/libssl.so</text>
</g>
<!-- node156&#45;&gt;node191 -->
<g id="edge128" class="edge"><title>node156&#45;&gt;node191</title>
<path fill="none" stroke="black" d="M1899.06,-431.831C1919.82,-422.062 1945.56,-409.95 1967.36,-399.689"/>
<polygon fill="black" stroke="black" points="1968.88,-402.843 1976.44,-395.418 1965.9,-396.509 1968.88,-402.843"/>
</g>
<!-- node192 -->
<g id="node93" class="node"><title>node192</title>
<ellipse fill="none" stroke="black" cx="1707.45" cy="-378" rx="150.937" ry="18"/>
<text text-anchor="middle" x="1707.45" y="-374.7" font-family="Times Roman,serif" font-size="12.00">/usr/lib/x86_64&#45;linux&#45;gnu/libcrypto.so</text>
</g>
<!-- node156&#45;&gt;node192 -->
<g id="edge130" class="edge"><title>node156&#45;&gt;node192</title>
<path fill="none" stroke="black" d="M1821.84,-431.831C1801.16,-422.099 1775.54,-410.04 1753.79,-399.804"/>
<polygon fill="black" stroke="black" points="1755.27,-396.632 1744.73,-395.541 1752.29,-402.966 1755.27,-396.632"/>
</g>
</g>
</svg>
