<?xml version="1.0" encoding="UTF-8" standalone="no"?>
<!DOCTYPE svg PUBLIC "-//W3C//DTD SVG 1.1//EN"
 "http://www.w3.org/Graphics/SVG/1.1/DTD/svg11.dtd">
<!-- Generated by graphviz version 2.26.3 (20100126.1600)
 -->
<!-- Title: GG Pages: 1 -->
<svg width="3238pt" height="692pt"
 viewBox="0.00 0.00 3237.59 692.00" xmlns="http://www.w3.org/2000/svg" xmlns:xlink="http://www.w3.org/1999/xlink">
<g id="graph1" class="graph" transform="scale(1 1) rotate(0) translate(4 688)">
<title>GG</title>
<polygon fill="white" stroke="white" points="-4,5 -4,-688 3234.59,-688 3234.59,5 -4,5"/>
<!-- node123 -->
<g id="node1" class="node"><title>node123</title>
<polygon fill="none" stroke="black" points="1305,-684 1215,-684 1215,-648 1305,-648 1305,-684"/>
<text text-anchor="middle" x="1260" y="-662.7" font-family="Times Roman,serif" font-size="12.00">ws_topology</text>
</g>
<!-- node151 -->
<g id="node2" class="node"><title>node151</title>
<polygon fill="none" stroke="black" points="1165,-108 1111,-108 1111,-72 1165,-72 1165,-108"/>
<text text-anchor="middle" x="1138" y="-86.7" font-family="Times Roman,serif" font-size="12.00">jlib</text>
</g>
<!-- node123&#45;&gt;node151 -->
<g id="edge2" class="edge"><title>node123&#45;&gt;node151</title>
<path fill="none" stroke="black" d="M1214.74,-665.116C1002.06,-660.815 110.094,-641.1 59,-612 17.4393,-588.329 0,-569.829 0,-522 0,-522 0,-522 0,-234 0,-138.548 102.394,-167.134 195,-144 371.146,-99.9962 948.113,-91.7149 1100.7,-90.2809"/>
<polygon fill="black" stroke="black" points="1100.98,-93.7786 1110.95,-90.189 1100.91,-86.7789 1100.98,-93.7786"/>
</g>
<!-- node59 -->
<g id="node12" class="node"><title>node59</title>
<polygon fill="none" stroke="black" points="355,-252 297,-252 297,-216 355,-216 355,-252"/>
<text text-anchor="middle" x="326" y="-230.7" font-family="Times Roman,serif" font-size="12.00">remote</text>
</g>
<!-- node123&#45;&gt;node59 -->
<g id="edge12" class="edge"><title>node123&#45;&gt;node59</title>
<path fill="none" stroke="black" d="M1214.93,-665.312C1020.81,-662.142 261.388,-647.555 161,-612 97.1485,-589.385 38,-589.738 38,-522 38,-522 38,-522 38,-450 38,-327.081 207.976,-265.543 286.763,-243.621"/>
<polygon fill="black" stroke="black" points="288.061,-246.896 296.8,-240.906 286.233,-240.139 288.061,-246.896"/>
</g>
<!-- node160 -->
<g id="node18" class="node"><title>node160</title>
<polygon fill="none" stroke="black" points="1745,-468 1691,-468 1691,-432 1745,-432 1745,-468"/>
<text text-anchor="middle" x="1718" y="-446.7" font-family="Times Roman,serif" font-size="12.00">xmllib</text>
</g>
<!-- node123&#45;&gt;node160 -->
<g id="edge20" class="edge"><title>node123&#45;&gt;node160</title>
<path fill="none" stroke="black" d="M1305.22,-661.088C1376.95,-652.745 1513.09,-634.499 1556,-612 1588.78,-594.814 1659.51,-517.009 1695.69,-475.798"/>
<polygon fill="black" stroke="black" points="1698.5,-477.905 1702.44,-468.073 1693.23,-473.297 1698.5,-477.905"/>
</g>
<!-- node110 -->
<g id="node27" class="node"><title>node110</title>
<polygon fill="none" stroke="black" points="1749,-540 1687,-540 1687,-504 1749,-504 1749,-540"/>
<text text-anchor="middle" x="1718" y="-518.7" font-family="Times Roman,serif" font-size="12.00">esphttp</text>
</g>
<!-- node123&#45;&gt;node110 -->
<g id="edge30" class="edge"><title>node123&#45;&gt;node110</title>
<path fill="none" stroke="black" d="M1305.26,-663.219C1391.9,-657.289 1577.6,-641.478 1634,-612 1662.01,-597.359 1685.69,-569.603 1700.69,-548.768"/>
<polygon fill="black" stroke="black" points="1703.73,-550.526 1706.58,-540.321 1697.99,-546.524 1703.73,-550.526"/>
</g>
<!-- node66 -->
<g id="node34" class="node"><title>node66</title>
<polygon fill="none" stroke="black" points="498,-324 436,-324 436,-288 498,-288 498,-324"/>
<text text-anchor="middle" x="467" y="-302.7" font-family="Times Roman,serif" font-size="12.00">dalibase</text>
</g>
<!-- node123&#45;&gt;node66 -->
<g id="edge42" class="edge"><title>node123&#45;&gt;node66</title>
<path fill="none" stroke="black" d="M1214.72,-662.789C1044.13,-650.101 450,-600.289 450,-522 450,-522 450,-522 450,-450 450,-409.597 456.682,-363.255 461.667,-334.301"/>
<polygon fill="black" stroke="black" points="465.176,-334.562 463.478,-324.104 458.283,-333.339 465.176,-334.562"/>
</g>
<!-- node55 -->
<g id="node43" class="node"><title>node55</title>
<polygon fill="none" stroke="black" points="308,-396 218,-396 218,-360 308,-360 308,-396"/>
<text text-anchor="middle" x="263" y="-374.7" font-family="Times Roman,serif" font-size="12.00">environment</text>
</g>
<!-- node123&#45;&gt;node55 -->
<g id="edge56" class="edge"><title>node123&#45;&gt;node55</title>
<path fill="none" stroke="black" d="M1214.75,-665.451C1014.83,-662.811 219.086,-649.941 183,-612 126.36,-552.448 199.157,-451.118 239.486,-403.788"/>
<polygon fill="black" stroke="black" points="242.217,-405.981 246.128,-396.134 236.93,-401.393 242.217,-405.981"/>
</g>
<!-- node78 -->
<g id="node49" class="node"><title>node78</title>
<polygon fill="none" stroke="black" points="422,-468 368,-468 368,-432 422,-432 422,-468"/>
<text text-anchor="middle" x="395" y="-446.7" font-family="Times Roman,serif" font-size="12.00">dalift</text>
</g>
<!-- node123&#45;&gt;node78 -->
<g id="edge66" class="edge"><title>node123&#45;&gt;node78</title>
<path fill="none" stroke="black" d="M1214.94,-664.506C1047.08,-658.752 466.146,-637.093 436,-612 396.832,-579.397 392.112,-515.262 393.007,-478.218"/>
<polygon fill="black" stroke="black" points="396.509,-478.227 393.408,-468.096 389.514,-477.949 396.509,-478.227"/>
</g>
<!-- node54 -->
<g id="node57" class="node"><title>node54</title>
<polygon fill="none" stroke="black" points="1105,-468 1039,-468 1039,-432 1105,-432 1105,-468"/>
<text text-anchor="middle" x="1072" y="-446.7" font-family="Times Roman,serif" font-size="12.00">dllserver</text>
</g>
<!-- node123&#45;&gt;node54 -->
<g id="edge80" class="edge"><title>node123&#45;&gt;node54</title>
<path fill="none" stroke="black" d="M1214.99,-659.694C1183.66,-653.009 1143.13,-639.412 1118,-612 1083.8,-574.698 1074.82,-513.777 1072.59,-478.23"/>
<polygon fill="black" stroke="black" points="1076.08,-477.885 1072.09,-468.067 1069.08,-478.226 1076.08,-477.885"/>
</g>
<!-- node176 -->
<g id="node59" class="node"><title>node176</title>
<ellipse fill="none" stroke="black" cx="2369" cy="-378" rx="130.789" ry="18"/>
<text text-anchor="middle" x="2369" y="-374.7" font-family="Times Roman,serif" font-size="12.00">/usr/lib/x86_64&#45;linux&#45;gnu/libz.so</text>
</g>
<!-- node123&#45;&gt;node176 -->
<g id="edge196" class="edge"><title>node123&#45;&gt;node176</title>
<path fill="none" stroke="black" d="M1305.06,-662.235C1397.12,-654.191 1603.79,-634.239 1671,-612 1827.02,-560.378 1838.3,-484.587 1994,-432 2018.99,-423.56 2159.9,-404.495 2261.64,-391.434"/>
<polygon fill="black" stroke="black" points="2262.2,-394.892 2271.67,-390.15 2261.31,-387.949 2262.2,-394.892"/>
</g>
<!-- node146 -->
<g id="node64" class="node"><title>node146</title>
<polygon fill="none" stroke="black" points="1245,-396 1191,-396 1191,-360 1245,-360 1245,-396"/>
<text text-anchor="middle" x="1218" y="-374.7" font-family="Times Roman,serif" font-size="12.00">eclrtl</text>
</g>
<!-- node123&#45;&gt;node146 -->
<g id="edge118" class="edge"><title>node123&#45;&gt;node146</title>
<path fill="none" stroke="black" d="M1245.62,-647.698C1228.24,-624.292 1199.96,-581.774 1189,-540 1176.78,-493.415 1193.22,-437.942 1205.88,-405.482"/>
<polygon fill="black" stroke="black" points="1209.14,-406.765 1209.66,-396.183 1202.65,-404.134 1209.14,-406.765"/>
</g>
<!-- node147 -->
<g id="node75" class="node"><title>node147</title>
<polygon fill="none" stroke="black" points="1718,-324 1664,-324 1664,-288 1718,-288 1718,-324"/>
<text text-anchor="middle" x="1691" y="-302.7" font-family="Times Roman,serif" font-size="12.00">nbcd</text>
</g>
<!-- node123&#45;&gt;node147 -->
<g id="edge116" class="edge"><title>node123&#45;&gt;node147</title>
<path fill="none" stroke="black" d="M1305.12,-653.583C1332.41,-644.721 1367.03,-630.992 1394,-612 1429,-587.346 1432,-574.02 1458,-540 1481.2,-509.636 1485.74,-501.004 1505,-468 1532.26,-421.304 1521.01,-396.395 1561,-360 1592.56,-331.279 1610.68,-340.578 1650,-324 1651.39,-323.415 1652.8,-322.815 1654.23,-322.206"/>
<polygon fill="black" stroke="black" points="1655.91,-325.294 1663.7,-318.118 1653.13,-318.866 1655.91,-325.294"/>
</g>
<!-- node53 -->
<g id="node87" class="node"><title>node53</title>
<polygon fill="none" stroke="black" points="1496,-468 1436,-468 1436,-432 1496,-432 1496,-468"/>
<text text-anchor="middle" x="1466" y="-446.7" font-family="Times Roman,serif" font-size="12.00">deftype</text>
</g>
<!-- node123&#45;&gt;node53 -->
<g id="edge120" class="edge"><title>node123&#45;&gt;node53</title>
<path fill="none" stroke="black" d="M1297.06,-647.846C1336.24,-626.899 1397.33,-588.958 1434,-540 1447.76,-521.633 1455.99,-496.827 1460.65,-477.908"/>
<polygon fill="black" stroke="black" points="1464.08,-478.609 1462.89,-468.082 1457.26,-477.057 1464.08,-478.609"/>
</g>
<!-- node64 -->
<g id="node92" class="node"><title>node64</title>
<polygon fill="none" stroke="black" points="1266,-540 1198,-540 1198,-504 1266,-504 1266,-540"/>
<text text-anchor="middle" x="1232" y="-518.7" font-family="Times Roman,serif" font-size="12.00">workunit</text>
</g>
<!-- node123&#45;&gt;node64 -->
<g id="edge128" class="edge"><title>node123&#45;&gt;node64</title>
<path fill="none" stroke="black" d="M1256.45,-647.762C1251.66,-623.093 1243.06,-578.86 1237.44,-549.973"/>
<polygon fill="black" stroke="black" points="1240.86,-549.238 1235.52,-540.09 1233.99,-550.574 1240.86,-549.238"/>
</g>
<!-- node127 -->
<g id="node100" class="node"><title>node127</title>
<polygon fill="none" stroke="black" points="1318,-612 1260,-612 1260,-576 1318,-576 1318,-612"/>
<text text-anchor="middle" x="1289" y="-590.7" font-family="Times Roman,serif" font-size="12.00">SMCLib</text>
</g>
<!-- node123&#45;&gt;node127 -->
<g id="edge142" class="edge"><title>node123&#45;&gt;node127</title>
<path fill="none" stroke="black" d="M1267.32,-647.831C1270.49,-639.962 1274.27,-630.571 1277.78,-621.853"/>
<polygon fill="black" stroke="black" points="1281.09,-622.997 1281.58,-612.413 1274.6,-620.381 1281.09,-622.997"/>
</g>
<!-- node155 -->
<g id="node114" class="node"><title>node155</title>
<polygon fill="none" stroke="black" points="2951,-612 2859,-612 2859,-576 2951,-576 2951,-612"/>
<text text-anchor="middle" x="2905" y="-590.7" font-family="Times Roman,serif" font-size="12.00">LdapSecurity</text>
</g>
<!-- node123&#45;&gt;node155 -->
<g id="edge168" class="edge"><title>node123&#45;&gt;node155</title>
<path fill="none" stroke="black" d="M1305.28,-664.018C1537.27,-653.864 2591.62,-607.716 2848.46,-596.475"/>
<polygon fill="black" stroke="black" points="2848.84,-599.961 2858.68,-596.027 2848.54,-592.968 2848.84,-599.961"/>
</g>
<!-- node156 -->
<g id="node121" class="node"><title>node156</title>
<polygon fill="none" stroke="black" points="2299,-612 2205,-612 2205,-576 2299,-576 2299,-612"/>
<text text-anchor="middle" x="2252" y="-590.7" font-family="Times Roman,serif" font-size="12.00">securesocket</text>
</g>
<!-- node123&#45;&gt;node156 -->
<g id="edge176" class="edge"><title>node123&#45;&gt;node156</title>
<path fill="none" stroke="black" d="M1305.12,-663.267C1426.13,-655.864 1767.95,-634.463 2052,-612 2100.12,-608.195 2154.68,-603.241 2194.65,-599.494"/>
<polygon fill="black" stroke="black" points="2195.12,-602.965 2204.75,-598.544 2194.46,-595.996 2195.12,-602.965"/>
</g>
<!-- node45 -->
<g id="node128" class="node"><title>node45</title>
<polygon fill="none" stroke="black" points="280,-612 192,-612 192,-576 280,-576 280,-612"/>
<text text-anchor="middle" x="236" y="-590.7" font-family="Times Roman,serif" font-size="12.00">swapnodelib</text>
</g>
<!-- node123&#45;&gt;node45 -->
<g id="edge184" class="edge"><title>node123&#45;&gt;node45</title>
<path fill="none" stroke="black" d="M1214.94,-664.639C1083.14,-660.371 687.005,-645.484 360,-612 337.022,-609.647 311.772,-606.149 290.088,-602.861"/>
<polygon fill="black" stroke="black" points="290.494,-599.382 280.078,-601.32 289.429,-606.301 290.494,-599.382"/>
</g>
<!-- node159 -->
<g id="node136" class="node"><title>node159</title>
<polygon fill="none" stroke="black" points="2043,-612 1989,-612 1989,-576 2043,-576 2043,-612"/>
<text text-anchor="middle" x="2016" y="-590.7" font-family="Times Roman,serif" font-size="12.00">zcrypt</text>
</g>
<!-- node123&#45;&gt;node159 -->
<g id="edge198" class="edge"><title>node123&#45;&gt;node159</title>
<path fill="none" stroke="black" d="M1305.19,-663.304C1410.08,-656.803 1678.13,-638.795 1901,-612 1926.98,-608.876 1956.1,-604.307 1978.54,-600.554"/>
<polygon fill="black" stroke="black" points="1979.38,-603.961 1988.66,-598.841 1978.21,-597.06 1979.38,-603.961"/>
</g>
<!-- node152 -->
<g id="node4" class="node"><title>node152</title>
<polygon fill="none" stroke="black" points="1016,-36 976.056,-18 1016,-3.55271e-15 1055.94,-18 1016,-36"/>
<text text-anchor="middle" x="1016" y="-14.7" font-family="Times Roman,serif" font-size="12.00">lzma</text>
</g>
<!-- node151&#45;&gt;node152 -->
<g id="edge4" class="edge"><title>node151&#45;&gt;node152</title>
<path fill="none" stroke="black" d="M1110.92,-74.0209C1090.47,-61.9494 1062.55,-45.4743 1042.29,-33.5172"/>
<polygon fill="black" stroke="black" points="1043.97,-30.4417 1033.58,-28.3733 1040.41,-36.4701 1043.97,-30.4417"/>
</g>
<!-- node187 -->
<g id="node6" class="node"><title>node187</title>
<ellipse fill="none" stroke="black" cx="1101" cy="-18" rx="27" ry="18"/>
<text text-anchor="middle" x="1101" y="-14.7" font-family="Times Roman,serif" font-size="12.00">dl</text>
</g>
<!-- node151&#45;&gt;node187 -->
<g id="edge6" class="edge"><title>node151&#45;&gt;node187</title>
<path fill="none" stroke="black" d="M1128.66,-71.8314C1124.41,-63.5451 1119.28,-53.5727 1114.61,-44.4748"/>
<polygon fill="black" stroke="black" points="1117.63,-42.7123 1109.95,-35.4177 1111.41,-45.9118 1117.63,-42.7123"/>
</g>
<!-- node179 -->
<g id="node8" class="node"><title>node179</title>
<ellipse fill="none" stroke="black" cx="1176" cy="-18" rx="30.0465" ry="18"/>
<text text-anchor="middle" x="1176" y="-14.7" font-family="Times Roman,serif" font-size="12.00">crypt</text>
</g>
<!-- node151&#45;&gt;node179 -->
<g id="edge8" class="edge"><title>node151&#45;&gt;node179</title>
<path fill="none" stroke="black" d="M1147.59,-71.8314C1151.96,-63.5451 1157.23,-53.5727 1162.03,-44.4748"/>
<polygon fill="black" stroke="black" points="1165.24,-45.8952 1166.81,-35.4177 1159.04,-42.6279 1165.24,-45.8952"/>
</g>
<!-- node188 -->
<g id="node10" class="node"><title>node188</title>
<ellipse fill="none" stroke="black" cx="1251" cy="-18" rx="27" ry="18"/>
<text text-anchor="middle" x="1251" y="-14.7" font-family="Times Roman,serif" font-size="12.00">rt</text>
</g>
<!-- node151&#45;&gt;node188 -->
<g id="edge10" class="edge"><title>node151&#45;&gt;node188</title>
<path fill="none" stroke="black" d="M1165.07,-72.7542C1182.41,-61.7009 1204.9,-47.375 1222.52,-36.1494"/>
<polygon fill="black" stroke="black" points="1224.68,-38.9209 1231.23,-30.5955 1220.92,-33.0174 1224.68,-38.9209"/>
</g>
<!-- node59&#45;&gt;node151 -->
<g id="edge14" class="edge"><title>node59&#45;&gt;node151</title>
<path fill="none" stroke="black" d="M329.058,-215.961C333.687,-194.817 344.663,-160.564 369,-144 429.918,-102.538 955.178,-92.4492 1100.74,-90.4396"/>
<polygon fill="black" stroke="black" points="1100.99,-93.9367 1110.94,-90.3036 1100.9,-86.9373 1100.99,-93.9367"/>
</g>
<!-- node153 -->
<g id="node15" class="node"><title>node153</title>
<polygon fill="none" stroke="black" points="591,-180 537,-180 537,-144 591,-144 591,-180"/>
<text text-anchor="middle" x="564" y="-158.7" font-family="Times Roman,serif" font-size="12.00">mp</text>
</g>
<!-- node59&#45;&gt;node153 -->
<g id="edge16" class="edge"><title>node59&#45;&gt;node153</title>
<path fill="none" stroke="black" d="M355.183,-225.171C398.433,-212.087 479.526,-187.555 526.924,-173.216"/>
<polygon fill="black" stroke="black" points="528.227,-176.479 536.785,-170.233 526.2,-169.779 528.227,-176.479"/>
</g>
<!-- node153&#45;&gt;node151 -->
<g id="edge18" class="edge"><title>node153&#45;&gt;node151</title>
<path fill="none" stroke="black" d="M591.113,-154.168C604.267,-150.614 620.356,-146.629 635,-144 807.641,-113.009 1017.04,-97.508 1100.78,-92.1893"/>
<polygon fill="black" stroke="black" points="1101.06,-95.6788 1110.82,-91.5624 1100.62,-88.6924 1101.06,-95.6788"/>
</g>
<!-- node160&#45;&gt;node151 -->
<g id="edge28" class="edge"><title>node160&#45;&gt;node151</title>
<path fill="none" stroke="black" d="M1738.07,-431.775C1747.61,-422.05 1758.35,-409.35 1765,-396 1783.23,-359.407 1784,-346.882 1784,-306 1784,-306 1784,-306 1784,-234 1784,-182.496 1756.4,-168.314 1711,-144 1663.87,-118.76 1294.99,-97.977 1175.34,-91.8423"/>
<polygon fill="black" stroke="black" points="1175.36,-88.3393 1165.2,-91.3272 1175.01,-95.3303 1175.36,-88.3393"/>
</g>
<!-- node180 -->
<g id="node20" class="node"><title>node180</title>
<ellipse fill="none" stroke="black" cx="2097" cy="-378" rx="85.1424" ry="18"/>
<text text-anchor="middle" x="2097" y="-374.7" font-family="Times Roman,serif" font-size="12.00">/usr/lib/libxalan&#45;c.so</text>
</g>
<!-- node160&#45;&gt;node180 -->
<g id="edge22" class="edge"><title>node160&#45;&gt;node180</title>
<path fill="none" stroke="black" d="M1745.35,-443.408C1760.52,-439.841 1779.76,-435.468 1797,-432 1888.12,-413.67 1911.58,-412.741 2003,-396 2009.75,-394.763 2016.78,-393.457 2023.8,-392.136"/>
<polygon fill="black" stroke="black" points="2024.9,-395.491 2034.08,-390.195 2023.6,-388.612 2024.9,-395.491"/>
</g>
<!-- node181 -->
<g id="node22" class="node"><title>node181</title>
<ellipse fill="none" stroke="black" cx="1663" cy="-378" rx="93.0912" ry="18"/>
<text text-anchor="middle" x="1663" y="-374.7" font-family="Times Roman,serif" font-size="12.00">/usr/lib/libxalanMsg.so</text>
</g>
<!-- node160&#45;&gt;node181 -->
<g id="edge24" class="edge"><title>node160&#45;&gt;node181</title>
<path fill="none" stroke="black" d="M1704.12,-431.831C1697.69,-423.411 1689.93,-413.249 1682.89,-404.034"/>
<polygon fill="black" stroke="black" points="1685.54,-401.735 1676.68,-395.913 1679.97,-405.985 1685.54,-401.735"/>
</g>
<!-- node182 -->
<g id="node24" class="node"><title>node182</title>
<ellipse fill="none" stroke="black" cx="1903" cy="-378" rx="90.9919" ry="18"/>
<text text-anchor="middle" x="1903" y="-374.7" font-family="Times Roman,serif" font-size="12.00">/usr/lib/libxerces&#45;c.so</text>
</g>
<!-- node160&#45;&gt;node182 -->
<g id="edge26" class="edge"><title>node160&#45;&gt;node182</title>
<path fill="none" stroke="black" d="M1745.26,-437.784C1749.83,-435.808 1754.54,-433.816 1759,-432 1788.63,-419.952 1822.06,-407.355 1849.24,-397.362"/>
<polygon fill="black" stroke="black" points="1850.77,-400.529 1858.96,-393.804 1848.37,-393.956 1850.77,-400.529"/>
</g>
<!-- node110&#45;&gt;node151 -->
<g id="edge38" class="edge"><title>node110&#45;&gt;node151</title>
<path fill="none" stroke="black" d="M1749.35,-506.833C1801.16,-481.816 1899.77,-434.407 1908,-432 1968.85,-414.209 2144.38,-438.963 2191,-396 2221.06,-368.294 2210,-346.882 2210,-306 2210,-306 2210,-306 2210,-234 2210,-127.275 1364.62,-96.5419 1175.31,-90.9976"/>
<polygon fill="black" stroke="black" points="1175.13,-87.4912 1165.04,-90.7029 1174.93,-94.4884 1175.13,-87.4912"/>
</g>
<!-- node110&#45;&gt;node160 -->
<g id="edge40" class="edge"><title>node110&#45;&gt;node160</title>
<path fill="none" stroke="black" d="M1718,-503.831C1718,-496.131 1718,-486.974 1718,-478.417"/>
<polygon fill="black" stroke="black" points="1721.5,-478.413 1718,-468.413 1714.5,-478.413 1721.5,-478.413"/>
</g>
<!-- node110&#45;&gt;node180 -->
<g id="edge32" class="edge"><title>node110&#45;&gt;node180</title>
<path fill="none" stroke="black" d="M1744.87,-503.91C1759.64,-493.719 1778.13,-480.551 1794,-468 1813.02,-452.957 1813.29,-442.807 1835,-432 1843.57,-427.735 1949.74,-406.571 2024.26,-392.041"/>
<polygon fill="black" stroke="black" points="2024.95,-395.473 2034.1,-390.126 2023.61,-388.602 2024.95,-395.473"/>
</g>
<!-- node110&#45;&gt;node181 -->
<g id="edge34" class="edge"><title>node110&#45;&gt;node181</title>
<path fill="none" stroke="black" d="M1703.11,-503.518C1695.75,-493.53 1687.33,-480.672 1682,-468 1673.67,-448.188 1668.85,-424.332 1666.15,-406.16"/>
<polygon fill="black" stroke="black" points="1669.61,-405.629 1664.79,-396.192 1662.67,-406.572 1669.61,-405.629"/>
</g>
<!-- node110&#45;&gt;node182 -->
<g id="edge36" class="edge"><title>node110&#45;&gt;node182</title>
<path fill="none" stroke="black" d="M1730.58,-503.949C1744.93,-484.356 1769.92,-453.054 1797,-432 1814.02,-418.771 1834.78,-407.353 1853.4,-398.469"/>
<polygon fill="black" stroke="black" points="1855.03,-401.571 1862.63,-394.186 1852.08,-395.221 1855.03,-401.571"/>
</g>
<!-- node66&#45;&gt;node151 -->
<g id="edge44" class="edge"><title>node66&#45;&gt;node151</title>
<path fill="none" stroke="black" d="M467.817,-287.991C470.444,-253.605 481.499,-178.919 528,-144 573.796,-109.61 974.64,-94.8559 1100.42,-91.046"/>
<polygon fill="black" stroke="black" points="1100.8,-94.5361 1110.7,-90.7406 1100.6,-87.5392 1100.8,-94.5361"/>
</g>
<!-- node66&#45;&gt;node59 -->
<g id="edge54" class="edge"><title>node66&#45;&gt;node59</title>
<path fill="none" stroke="black" d="M435.708,-290.021C414.6,-279.243 386.618,-264.954 364.198,-253.505"/>
<polygon fill="black" stroke="black" points="365.777,-250.382 355.279,-248.951 362.594,-256.616 365.777,-250.382"/>
</g>
<!-- node66&#45;&gt;node153 -->
<g id="edge46" class="edge"><title>node66&#45;&gt;node153</title>
<path fill="none" stroke="black" d="M479.285,-287.762C496.194,-262.66 526.748,-217.302 546.171,-188.467"/>
<polygon fill="black" stroke="black" points="549.131,-190.339 551.815,-180.09 543.325,-186.428 549.131,-190.339"/>
</g>
<!-- node149 -->
<g id="node38" class="node"><title>node149</title>
<polygon fill="none" stroke="black" points="646,-252 592,-252 592,-216 646,-216 646,-252"/>
<text text-anchor="middle" x="619" y="-230.7" font-family="Times Roman,serif" font-size="12.00">hrpc</text>
</g>
<!-- node66&#45;&gt;node149 -->
<g id="edge48" class="edge"><title>node66&#45;&gt;node149</title>
<path fill="none" stroke="black" d="M498.126,-291.256C522.725,-279.604 557.096,-263.323 582.9,-251.1"/>
<polygon fill="black" stroke="black" points="584.446,-254.24 591.986,-246.796 581.45,-247.914 584.446,-254.24"/>
</g>
<!-- node149&#45;&gt;node151 -->
<g id="edge50" class="edge"><title>node149&#45;&gt;node151</title>
<path fill="none" stroke="black" d="M629.925,-215.943C643.804,-194.781 669.859,-160.51 702,-144 771.41,-108.345 1008.4,-95.189 1100.74,-91.344"/>
<polygon fill="black" stroke="black" points="1100.91,-94.8403 1110.76,-90.9402 1100.62,-87.846 1100.91,-94.8403"/>
</g>
<!-- node149&#45;&gt;node153 -->
<g id="edge52" class="edge"><title>node149&#45;&gt;node153</title>
<path fill="none" stroke="black" d="M605.121,-215.831C598.786,-207.539 591.162,-197.557 584.207,-188.453"/>
<polygon fill="black" stroke="black" points="586.917,-186.235 578.066,-180.413 581.355,-190.485 586.917,-186.235"/>
</g>
<!-- node55&#45;&gt;node151 -->
<g id="edge58" class="edge"><title>node55&#45;&gt;node151</title>
<path fill="none" stroke="black" d="M261.716,-359.666C259.57,-312.446 261.544,-187.331 338,-144 404.896,-106.087 952.239,-93.3931 1100.87,-90.6276"/>
<polygon fill="black" stroke="black" points="1100.94,-94.1271 1110.87,-90.4454 1100.81,-87.1282 1100.94,-94.1271"/>
</g>
<!-- node55&#45;&gt;node59 -->
<g id="edge62" class="edge"><title>node55&#45;&gt;node59</title>
<path fill="none" stroke="black" d="M270.979,-359.762C281.819,-334.985 301.294,-290.471 313.928,-261.594"/>
<polygon fill="black" stroke="black" points="317.284,-262.654 318.086,-252.09 310.871,-259.848 317.284,-262.654"/>
</g>
<!-- node55&#45;&gt;node153 -->
<g id="edge60" class="edge"><title>node55&#45;&gt;node153</title>
<path fill="none" stroke="black" d="M288.145,-359.955C342.259,-321.123 469.766,-229.623 530.589,-185.976"/>
<polygon fill="black" stroke="black" points="532.631,-188.819 538.715,-180.145 528.549,-183.132 532.631,-188.819"/>
</g>
<!-- node55&#45;&gt;node66 -->
<g id="edge64" class="edge"><title>node55&#45;&gt;node66</title>
<path fill="none" stroke="black" d="M308.115,-363.386C340.067,-352.864 383.853,-338.096 422,-324 423.381,-323.49 424.784,-322.965 426.199,-322.43"/>
<polygon fill="black" stroke="black" points="427.539,-325.665 435.611,-318.802 425.021,-319.133 427.539,-325.665"/>
</g>
<!-- node78&#45;&gt;node151 -->
<g id="edge68" class="edge"><title>node78&#45;&gt;node151</title>
<path fill="none" stroke="black" d="M367.741,-446.119C320.858,-438.825 228.132,-421.476 209,-396 137.673,-301.02 200.93,-212.455 298,-144 364.185,-97.3256 945.616,-90.9936 1100.32,-90.1348"/>
<polygon fill="black" stroke="black" points="1100.73,-93.6328 1110.71,-90.0819 1100.7,-86.6329 1100.73,-93.6328"/>
</g>
<!-- node78&#45;&gt;node59 -->
<g id="edge74" class="edge"><title>node78&#45;&gt;node59</title>
<path fill="none" stroke="black" d="M389.236,-431.955C377.186,-394.235 349.262,-306.819 334.893,-261.84"/>
<polygon fill="black" stroke="black" points="338.173,-260.606 331.796,-252.145 331.505,-262.736 338.173,-260.606"/>
</g>
<!-- node78&#45;&gt;node153 -->
<g id="edge70" class="edge"><title>node78&#45;&gt;node153</title>
<path fill="none" stroke="black" d="M415.439,-431.813C440.155,-408.852 481.592,-367.119 507,-324 532.609,-280.54 549.265,-223.766 557.616,-190.259"/>
<polygon fill="black" stroke="black" points="561.09,-190.787 560.037,-180.244 554.285,-189.142 561.09,-190.787"/>
</g>
<!-- node78&#45;&gt;node66 -->
<g id="edge76" class="edge"><title>node78&#45;&gt;node66</title>
<path fill="none" stroke="black" d="M402.679,-431.834C410.574,-413.486 423.453,-384.439 436,-360 440.568,-351.102 445.884,-341.581 450.811,-333.05"/>
<polygon fill="black" stroke="black" points="453.925,-334.658 455.949,-324.259 447.881,-331.126 453.925,-334.658"/>
</g>
<!-- node78&#45;&gt;node149 -->
<g id="edge72" class="edge"><title>node78&#45;&gt;node149</title>
<path fill="none" stroke="black" d="M422.308,-445.345C467.841,-437.046 556.417,-418.443 578,-396 612.9,-359.709 619.324,-298.172 619.841,-262.297"/>
<polygon fill="black" stroke="black" points="623.341,-262.042 619.837,-252.043 616.341,-262.045 623.341,-262.042"/>
</g>
<!-- node78&#45;&gt;node55 -->
<g id="edge78" class="edge"><title>node78&#45;&gt;node55</title>
<path fill="none" stroke="black" d="M367.969,-435.256C349.835,-425.365 325.586,-412.138 304.963,-400.889"/>
<polygon fill="black" stroke="black" points="306.533,-397.758 296.078,-396.042 303.181,-403.904 306.533,-397.758"/>
</g>
<!-- node54&#45;&gt;node151 -->
<g id="edge84" class="edge"><title>node54&#45;&gt;node151</title>
<path fill="none" stroke="black" d="M1085.8,-431.849C1099.19,-411.873 1115.07,-379.955 1097,-360 1042.74,-300.075 789.261,-383.925 735,-324 724.261,-312.14 726.541,-301.581 735,-288 817.603,-155.381 1017.89,-109.055 1100.95,-95.192"/>
<polygon fill="black" stroke="black" points="1101.63,-98.6282 1110.95,-93.5872 1100.52,-91.7167 1101.63,-98.6282"/>
</g>
<!-- node54&#45;&gt;node59 -->
<g id="edge106" class="edge"><title>node54&#45;&gt;node59</title>
<path fill="none" stroke="black" d="M1038.85,-446.825C959.442,-438.964 760.239,-417.657 697,-396 685.513,-392.066 518.167,-292.766 507,-288 459.721,-267.821 402.474,-252.106 365.196,-242.956"/>
<polygon fill="black" stroke="black" points="365.778,-239.496 355.236,-240.55 364.135,-246.3 365.778,-239.496"/>
</g>
<!-- node54&#45;&gt;node153 -->
<g id="edge86" class="edge"><title>node54&#45;&gt;node153</title>
<path fill="none" stroke="black" d="M1079.77,-431.943C1087.09,-411.749 1094.57,-379.342 1077,-360 1020.7,-298.04 769.743,-373.187 702,-324 659.64,-293.243 689.63,-255.257 655,-216 640.201,-199.224 618.891,-186.189 600.612,-177.132"/>
<polygon fill="black" stroke="black" points="601.916,-173.877 591.381,-172.76 598.92,-180.204 601.916,-173.877"/>
</g>
<!-- node54&#45;&gt;node66 -->
<g id="edge108" class="edge"><title>node54&#45;&gt;node66</title>
<path fill="none" stroke="black" d="M1038.8,-448.929C968.39,-445.94 799.446,-434.957 664,-396 607.295,-379.69 546.088,-349.559 507.204,-328.679"/>
<polygon fill="black" stroke="black" points="508.755,-325.539 498.296,-323.848 505.417,-331.692 508.755,-325.539"/>
</g>
<!-- node54&#45;&gt;node149 -->
<g id="edge88" class="edge"><title>node54&#45;&gt;node149</title>
<path fill="none" stroke="black" d="M1073.91,-431.732C1074.96,-411.026 1073.04,-377.841 1053,-360 988.165,-302.268 735.664,-372.998 664,-324 643.151,-309.745 631.499,-282.887 625.305,-262.207"/>
<polygon fill="black" stroke="black" points="628.623,-261.071 622.615,-252.345 621.87,-262.914 628.623,-261.071"/>
</g>
<!-- node54&#45;&gt;node55 -->
<g id="edge110" class="edge"><title>node54&#45;&gt;node55</title>
<path fill="none" stroke="black" d="M1038.78,-447.043C914.234,-435.959 474.234,-396.8 318.296,-382.921"/>
<polygon fill="black" stroke="black" points="318.275,-379.406 308.004,-382.005 317.655,-386.378 318.275,-379.406"/>
</g>
<!-- node54&#45;&gt;node176 -->
<g id="edge82" class="edge"><title>node54&#45;&gt;node176</title>
<path fill="none" stroke="black" d="M1105.28,-448.273C1168.14,-445.019 1308.66,-437.788 1427,-432 1766.53,-415.393 1852,-421.109 2191,-396 2212.13,-394.435 2234.63,-392.427 2256.27,-390.322"/>
<polygon fill="black" stroke="black" points="2256.88,-393.78 2266.49,-389.316 2256.19,-386.813 2256.88,-393.78"/>
</g>
<!-- node54&#45;&gt;node146 -->
<g id="edge90" class="edge"><title>node54&#45;&gt;node146</title>
<path fill="none" stroke="black" d="M1105.13,-433.662C1127.9,-422.431 1158.15,-407.516 1181.6,-395.952"/>
<polygon fill="black" stroke="black" points="1183.44,-398.944 1190.86,-391.382 1180.35,-392.666 1183.44,-398.944"/>
</g>
<!-- node177 -->
<g id="node81" class="node"><title>node177</title>
<ellipse fill="none" stroke="black" cx="777" cy="-378" rx="70.8437" ry="18"/>
<text text-anchor="middle" x="777" y="-374.7" font-family="Times Roman,serif" font-size="12.00">/usr/lib/libbfd.so</text>
</g>
<!-- node54&#45;&gt;node177 -->
<g id="edge112" class="edge"><title>node54&#45;&gt;node177</title>
<path fill="none" stroke="black" d="M1038.73,-441.881C990.131,-430.018 898.893,-407.75 838.026,-392.894"/>
<polygon fill="black" stroke="black" points="838.7,-389.456 828.155,-390.485 837.04,-396.257 838.7,-389.456"/>
</g>
<!-- node178 -->
<g id="node83" class="node"><title>node178</title>
<ellipse fill="none" stroke="black" cx="955" cy="-378" rx="89.0421" ry="18"/>
<text text-anchor="middle" x="955" y="-374.7" font-family="Times Roman,serif" font-size="12.00">/usr/lib/libiberty_pic.a</text>
</g>
<!-- node54&#45;&gt;node178 -->
<g id="edge114" class="edge"><title>node54&#45;&gt;node178</title>
<path fill="none" stroke="black" d="M1042.48,-431.831C1027.05,-422.341 1008.04,-410.639 991.679,-400.572"/>
<polygon fill="black" stroke="black" points="993.255,-397.432 982.904,-395.171 989.586,-403.393 993.255,-397.432"/>
</g>
<!-- node146&#45;&gt;node151 -->
<g id="edge100" class="edge"><title>node146&#45;&gt;node151</title>
<path fill="none" stroke="black" d="M1245.25,-369.159C1255.99,-365.92 1268.49,-362.451 1280,-360 1397.69,-334.938 1604.62,-390.14 1541,-288 1458.4,-155.381 1258.11,-109.055 1175.05,-95.192"/>
<polygon fill="black" stroke="black" points="1175.48,-91.7167 1165.05,-93.5872 1174.37,-98.6282 1175.48,-91.7167"/>
</g>
<!-- node186 -->
<g id="node66" class="node"><title>node186</title>
<ellipse fill="none" stroke="black" cx="1413" cy="-306" rx="118.939" ry="18"/>
<text text-anchor="middle" x="1413" y="-302.7" font-family="Times Roman,serif" font-size="12.00">/usr/lib/libboost_regex&#45;mt.so</text>
</g>
<!-- node146&#45;&gt;node186 -->
<g id="edge92" class="edge"><title>node146&#45;&gt;node186</title>
<path fill="none" stroke="black" d="M1245.11,-367.989C1274.22,-357.241 1321.25,-339.877 1358.14,-326.256"/>
<polygon fill="black" stroke="black" points="1359.6,-329.449 1367.77,-322.702 1357.17,-322.883 1359.6,-329.449"/>
</g>
<!-- node183 -->
<g id="node68" class="node"><title>node183</title>
<ellipse fill="none" stroke="black" cx="822" cy="-306" rx="77.9931" ry="18"/>
<text text-anchor="middle" x="822" y="-302.7" font-family="Times Roman,serif" font-size="12.00">/usr/lib/libicuuc.so</text>
</g>
<!-- node146&#45;&gt;node183 -->
<g id="edge94" class="edge"><title>node146&#45;&gt;node183</title>
<path fill="none" stroke="black" d="M1190.91,-368.272C1181.82,-365.279 1171.55,-362.198 1162,-360 1051.32,-334.531 1020.89,-343.515 909,-324 902.466,-322.86 895.673,-321.596 888.891,-320.28"/>
<polygon fill="black" stroke="black" points="889.485,-316.83 878.996,-318.325 888.128,-323.697 889.485,-316.83"/>
</g>
<!-- node184 -->
<g id="node70" class="node"><title>node184</title>
<ellipse fill="none" stroke="black" cx="1003" cy="-306" rx="85.1424" ry="18"/>
<text text-anchor="middle" x="1003" y="-302.7" font-family="Times Roman,serif" font-size="12.00">/usr/lib/libicui18n.so</text>
</g>
<!-- node146&#45;&gt;node184 -->
<g id="edge96" class="edge"><title>node146&#45;&gt;node184</title>
<path fill="none" stroke="black" d="M1190.77,-368.881C1157.64,-357.788 1100.89,-338.782 1058.43,-324.563"/>
<polygon fill="black" stroke="black" points="1059.38,-321.189 1048.79,-321.333 1057.16,-327.827 1059.38,-321.189"/>
</g>
<!-- node185 -->
<g id="node72" class="node"><title>node185</title>
<ellipse fill="none" stroke="black" cx="1191" cy="-306" rx="85.1424" ry="18"/>
<text text-anchor="middle" x="1191" y="-302.7" font-family="Times Roman,serif" font-size="12.00">/usr/lib/libicudata.so</text>
</g>
<!-- node146&#45;&gt;node185 -->
<g id="edge98" class="edge"><title>node146&#45;&gt;node185</title>
<path fill="none" stroke="black" d="M1211.19,-359.831C1208.24,-351.962 1204.71,-342.571 1201.44,-333.853"/>
<polygon fill="black" stroke="black" points="1204.69,-332.548 1197.9,-324.413 1198.14,-335.006 1204.69,-332.548"/>
</g>
<!-- node146&#45;&gt;node147 -->
<g id="edge102" class="edge"><title>node146&#45;&gt;node147</title>
<path fill="none" stroke="black" d="M1245.25,-373.887C1304.86,-364.884 1451.34,-342.739 1574,-324 1600.6,-319.936 1630.6,-315.32 1653.56,-311.78"/>
<polygon fill="black" stroke="black" points="1654.23,-315.219 1663.58,-310.235 1653.16,-308.3 1654.23,-315.219"/>
</g>
<!-- node147&#45;&gt;node151 -->
<g id="edge104" class="edge"><title>node147&#45;&gt;node151</title>
<path fill="none" stroke="black" d="M1692.47,-287.793C1694.12,-253.744 1692.21,-180.572 1650,-144 1614.21,-112.99 1286.83,-96.3169 1175.14,-91.4939"/>
<polygon fill="black" stroke="black" points="1175.16,-87.9917 1165.02,-91.064 1174.86,-94.9854 1175.16,-87.9917"/>
</g>
<!-- node53&#45;&gt;node151 -->
<g id="edge122" class="edge"><title>node53&#45;&gt;node151</title>
<path fill="none" stroke="black" d="M1480,-431.727C1496.88,-411.016 1527.25,-377.827 1561,-360 1627.75,-324.74 1679.61,-382.767 1727,-324 1779.12,-259.367 1743.1,-194.24 1677,-144 1637.16,-113.718 1290.94,-96.461 1175.37,-91.5041"/>
<polygon fill="black" stroke="black" points="1175.38,-88.0013 1165.24,-91.0758 1175.08,-94.9951 1175.38,-88.0013"/>
</g>
<!-- node53&#45;&gt;node146 -->
<g id="edge126" class="edge"><title>node53&#45;&gt;node146</title>
<path fill="none" stroke="black" d="M1435.59,-441.171C1390.07,-427.955 1304.31,-403.057 1255.14,-388.783"/>
<polygon fill="black" stroke="black" points="1255.81,-385.334 1245.23,-385.907 1253.86,-392.056 1255.81,-385.334"/>
</g>
<!-- node53&#45;&gt;node147 -->
<g id="edge124" class="edge"><title>node53&#45;&gt;node147</title>
<path fill="none" stroke="black" d="M1465.63,-431.717C1466.25,-411.314 1470.53,-378.717 1490,-360 1542.54,-309.482 1580.75,-346.755 1650,-324 1651.43,-323.53 1652.88,-323.028 1654.34,-322.501"/>
<polygon fill="black" stroke="black" points="1655.9,-325.649 1663.94,-318.752 1653.35,-319.129 1655.9,-325.649"/>
</g>
<!-- node64&#45;&gt;node151 -->
<g id="edge130" class="edge"><title>node64&#45;&gt;node151</title>
<path fill="none" stroke="black" d="M1237.51,-503.93C1249.34,-468.737 1280.82,-391.686 1338,-360 1429.1,-309.52 1592.13,-387.389 1561,-288 1532.41,-196.702 1489.45,-180.464 1401,-144 1324.4,-112.42 1227.38,-98.6606 1175.22,-93.1997"/>
<polygon fill="black" stroke="black" points="1175.4,-89.7003 1165.1,-92.1861 1174.7,-96.6654 1175.4,-89.7003"/>
</g>
<!-- node64&#45;&gt;node66 -->
<g id="edge132" class="edge"><title>node64&#45;&gt;node66</title>
<path fill="none" stroke="black" d="M1197.94,-518.01C1078.71,-503.662 681.107,-452.539 567,-396 535.637,-380.46 506.726,-352.274 488.143,-331.572"/>
<polygon fill="black" stroke="black" points="490.768,-329.257 481.543,-324.046 485.505,-333.872 490.768,-329.257"/>
</g>
<!-- node64&#45;&gt;node54 -->
<g id="edge134" class="edge"><title>node64&#45;&gt;node54</title>
<path fill="none" stroke="black" d="M1197.68,-506.554C1173.31,-495.588 1140.43,-480.794 1114.42,-469.088"/>
<polygon fill="black" stroke="black" points="1115.73,-465.839 1105.17,-464.927 1112.85,-472.223 1115.73,-465.839"/>
</g>
<!-- node64&#45;&gt;node146 -->
<g id="edge138" class="edge"><title>node64&#45;&gt;node146</title>
<path fill="none" stroke="black" d="M1230.23,-503.762C1227.84,-479.201 1223.57,-435.247 1220.76,-406.354"/>
<polygon fill="black" stroke="black" points="1224.21,-405.704 1219.76,-396.09 1217.24,-406.381 1224.21,-405.704"/>
</g>
<!-- node64&#45;&gt;node147 -->
<g id="edge136" class="edge"><title>node64&#45;&gt;node147</title>
<path fill="none" stroke="black" d="M1246.31,-503.895C1274.44,-469.685 1340.61,-395.775 1414,-360 1494.4,-320.807 1524.37,-341.939 1612,-324 1625.59,-321.217 1640.44,-317.907 1653.55,-314.888"/>
<polygon fill="black" stroke="black" points="1654.69,-318.217 1663.64,-312.546 1653.11,-311.398 1654.69,-318.217"/>
</g>
<!-- node64&#45;&gt;node53 -->
<g id="edge140" class="edge"><title>node64&#45;&gt;node53</title>
<path fill="none" stroke="black" d="M1266.03,-511.531C1308.45,-498.477 1380.86,-476.197 1425.93,-462.331"/>
<polygon fill="black" stroke="black" points="1427.13,-465.623 1435.66,-459.337 1425.07,-458.932 1427.13,-465.623"/>
</g>
<!-- node127&#45;&gt;node151 -->
<g id="edge144" class="edge"><title>node127&#45;&gt;node151</title>
<path fill="none" stroke="black" d="M1294.46,-575.724C1308.73,-531.307 1351.45,-417.155 1429,-360 1483.5,-319.838 1535.17,-377.225 1577,-324 1586.89,-311.42 1579.85,-303.743 1577,-288 1562.03,-205.465 1531.97,-177.33 1455,-144 1405.19,-122.434 1248.18,-102.476 1175.54,-94.125"/>
<polygon fill="black" stroke="black" points="1175.79,-90.6309 1165.46,-92.9782 1175,-97.586 1175.79,-90.6309"/>
</g>
<!-- node127&#45;&gt;node59 -->
<g id="edge146" class="edge"><title>node127&#45;&gt;node59</title>
<path fill="none" stroke="black" d="M1259.94,-593.442C1112.6,-590.46 451.911,-575.205 368,-540 280.084,-503.114 247.652,-483.154 209,-396 184.804,-341.442 245.962,-287.054 288.685,-257.244"/>
<polygon fill="black" stroke="black" points="290.655,-260.137 296.953,-251.617 286.717,-254.35 290.655,-260.137"/>
</g>
<!-- node127&#45;&gt;node160 -->
<g id="edge148" class="edge"><title>node127&#45;&gt;node160</title>
<path fill="none" stroke="black" d="M1318.15,-584.216C1393.99,-558.759 1597.38,-490.49 1681.15,-462.368"/>
<polygon fill="black" stroke="black" points="1682.4,-465.643 1690.76,-459.143 1680.17,-459.007 1682.4,-465.643"/>
</g>
<!-- node127&#45;&gt;node110 -->
<g id="edge150" class="edge"><title>node127&#45;&gt;node110</title>
<path fill="none" stroke="black" d="M1318.15,-589.108C1392.72,-576.592 1590.61,-543.381 1676.85,-528.906"/>
<polygon fill="black" stroke="black" points="1677.52,-532.343 1686.8,-527.236 1676.36,-525.44 1677.52,-532.343"/>
</g>
<!-- node127&#45;&gt;node66 -->
<g id="edge152" class="edge"><title>node127&#45;&gt;node66</title>
<path fill="none" stroke="black" d="M1259.91,-590.367C1170.69,-578.732 893.608,-538.945 674,-468 599.797,-444.029 570.726,-449.506 514,-396 495.873,-378.902 483.435,-353.245 475.929,-333.694"/>
<polygon fill="black" stroke="black" points="479.151,-332.312 472.45,-324.105 472.57,-334.699 479.151,-332.312"/>
</g>
<!-- node127&#45;&gt;node55 -->
<g id="edge154" class="edge"><title>node127&#45;&gt;node55</title>
<path fill="none" stroke="black" d="M1259.95,-593.379C1118.5,-590.197 505.372,-574.499 428,-540 361.979,-510.562 307.202,-442.388 280.514,-404.535"/>
<polygon fill="black" stroke="black" points="283.213,-402.284 274.645,-396.051 277.456,-406.266 283.213,-402.284"/>
</g>
<!-- node127&#45;&gt;node78 -->
<g id="edge156" class="edge"><title>node127&#45;&gt;node78</title>
<path fill="none" stroke="black" d="M1259.65,-593.379C1122.17,-590.293 545.613,-575.327 474,-540 446.265,-526.318 424.089,-498.15 410.375,-476.949"/>
<polygon fill="black" stroke="black" points="413.28,-474.993 405.025,-468.353 407.337,-478.692 413.28,-474.993"/>
</g>
<!-- node127&#45;&gt;node54 -->
<g id="edge158" class="edge"><title>node127&#45;&gt;node54</title>
<path fill="none" stroke="black" d="M1259.85,-579.824C1239.51,-569.562 1212.01,-554.925 1189,-540 1157.65,-519.666 1124.06,-493.299 1100.95,-474.367"/>
<polygon fill="black" stroke="black" points="1103.17,-471.665 1093.23,-468.003 1098.72,-477.066 1103.17,-471.665"/>
</g>
<!-- node127&#45;&gt;node146 -->
<g id="edge162" class="edge"><title>node127&#45;&gt;node146</title>
<path fill="none" stroke="black" d="M1287.62,-575.753C1285.89,-557.342 1282.22,-528.247 1275,-504 1264.42,-468.499 1245.89,-430.022 1232.83,-405.052"/>
<polygon fill="black" stroke="black" points="1235.9,-403.371 1228.13,-396.178 1229.72,-406.652 1235.9,-403.371"/>
</g>
<!-- node127&#45;&gt;node147 -->
<g id="edge160" class="edge"><title>node127&#45;&gt;node147</title>
<path fill="none" stroke="black" d="M1318.1,-577.942C1333.63,-568.366 1352.31,-555.137 1366,-540 1427.53,-471.966 1392.71,-413.811 1467,-360 1534.13,-311.376 1570.91,-348.81 1650,-324 1651.44,-323.549 1652.89,-323.064 1654.35,-322.551"/>
<polygon fill="black" stroke="black" points="1655.89,-325.709 1663.97,-318.859 1653.38,-319.174 1655.89,-325.709"/>
</g>
<!-- node127&#45;&gt;node53 -->
<g id="edge164" class="edge"><title>node127&#45;&gt;node53</title>
<path fill="none" stroke="black" d="M1318.35,-585.07C1343.15,-576.457 1378.6,-561.54 1404,-540 1424.52,-522.6 1441.33,-496.864 1452.24,-477.364"/>
<polygon fill="black" stroke="black" points="1455.44,-478.817 1457.12,-468.357 1449.28,-475.486 1455.44,-478.817"/>
</g>
<!-- node127&#45;&gt;node64 -->
<g id="edge166" class="edge"><title>node127&#45;&gt;node64</title>
<path fill="none" stroke="black" d="M1274.62,-575.831C1268.05,-567.539 1260.15,-557.557 1252.94,-548.453"/>
<polygon fill="black" stroke="black" points="1255.53,-546.081 1246.58,-540.413 1250.04,-550.426 1255.53,-546.081"/>
</g>
<!-- node155&#45;&gt;node151 -->
<g id="edge170" class="edge"><title>node155&#45;&gt;node151</title>
<path fill="none" stroke="black" d="M2951.05,-591.94C3026.59,-587.587 3172.07,-574.809 3208,-540 3237.36,-511.554 3227,-490.882 3227,-450 3227,-450 3227,-450 3227,-234 3227,-126.885 1455.88,-94.9405 1175.26,-90.5513"/>
<polygon fill="black" stroke="black" points="1175.23,-87.0506 1165.18,-90.3955 1175.12,-94.0497 1175.23,-87.0506"/>
</g>
<!-- node189 -->
<g id="node117" class="node"><title>node189</title>
<ellipse fill="none" stroke="black" cx="2752" cy="-522" rx="148.987" ry="18"/>
<text text-anchor="middle" x="2752" y="-518.7" font-family="Times Roman,serif" font-size="12.00">/usr/lib/x86_64&#45;linux&#45;gnu/libldap_r.so</text>
</g>
<!-- node155&#45;&gt;node189 -->
<g id="edge172" class="edge"><title>node155&#45;&gt;node189</title>
<path fill="none" stroke="black" d="M2866.39,-575.831C2845.71,-566.099 2820.08,-554.04 2798.33,-543.804"/>
<polygon fill="black" stroke="black" points="2799.81,-540.632 2789.28,-539.541 2796.83,-546.966 2799.81,-540.632"/>
</g>
<!-- node190 -->
<g id="node119" class="node"><title>node190</title>
<ellipse fill="none" stroke="black" cx="3059" cy="-522" rx="139.888" ry="18"/>
<text text-anchor="middle" x="3059" y="-518.7" font-family="Times Roman,serif" font-size="12.00">/usr/lib/x86_64&#45;linux&#45;gnu/liblber.so</text>
</g>
<!-- node155&#45;&gt;node190 -->
<g id="edge174" class="edge"><title>node155&#45;&gt;node190</title>
<path fill="none" stroke="black" d="M2943.86,-575.831C2964.76,-566.062 2990.66,-553.95 3012.61,-543.689"/>
<polygon fill="black" stroke="black" points="3014.17,-546.824 3021.75,-539.418 3011.2,-540.482 3014.17,-546.824"/>
</g>
<!-- node156&#45;&gt;node151 -->
<g id="edge178" class="edge"><title>node156&#45;&gt;node151</title>
<path fill="none" stroke="black" d="M2299.11,-591.909C2375.16,-587.539 2520.09,-574.771 2556,-540 2585.37,-511.562 2575,-490.882 2575,-450 2575,-450 2575,-450 2575,-234 2575,3.61323 2284.07,-171.079 2048,-144 1710.74,-105.313 1299.78,-93.5459 1175.4,-90.7472"/>
<polygon fill="black" stroke="black" points="1175.34,-87.2451 1165.27,-90.5249 1175.19,-94.2434 1175.34,-87.2451"/>
</g>
<!-- node191 -->
<g id="node124" class="node"><title>node191</title>
<ellipse fill="none" stroke="black" cx="2090" cy="-522" rx="137.138" ry="18"/>
<text text-anchor="middle" x="2090" y="-518.7" font-family="Times Roman,serif" font-size="12.00">/usr/lib/x86_64&#45;linux&#45;gnu/libssl.so</text>
</g>
<!-- node156&#45;&gt;node191 -->
<g id="edge180" class="edge"><title>node156&#45;&gt;node191</title>
<path fill="none" stroke="black" d="M2211.12,-575.831C2188.96,-565.982 2161.44,-553.751 2138.23,-543.437"/>
<polygon fill="black" stroke="black" points="2139.47,-540.158 2128.91,-539.294 2136.63,-546.554 2139.47,-540.158"/>
</g>
<!-- node192 -->
<g id="node126" class="node"><title>node192</title>
<ellipse fill="none" stroke="black" cx="2396" cy="-522" rx="150.937" ry="18"/>
<text text-anchor="middle" x="2396" y="-518.7" font-family="Times Roman,serif" font-size="12.00">/usr/lib/x86_64&#45;linux&#45;gnu/libcrypto.so</text>
</g>
<!-- node156&#45;&gt;node192 -->
<g id="edge182" class="edge"><title>node156&#45;&gt;node192</title>
<path fill="none" stroke="black" d="M2288.34,-575.831C2307.56,-566.222 2331.31,-554.344 2351.61,-544.193"/>
<polygon fill="black" stroke="black" points="2353.29,-547.268 2360.67,-539.665 2350.16,-541.007 2353.29,-547.268"/>
</g>
<!-- node45&#45;&gt;node151 -->
<g id="edge186" class="edge"><title>node45&#45;&gt;node151</title>
<path fill="none" stroke="black" d="M216.644,-575.56C207.383,-565.78 196.848,-553.096 190,-540 174.665,-510.672 175.713,-500.758 171,-468 149.893,-321.292 118.023,-211.459 250,-144 326.546,-104.874 941.564,-92.9599 1100.58,-90.5189"/>
<polygon fill="black" stroke="black" points="1100.86,-94.0152 1110.81,-90.3654 1100.76,-87.016 1100.86,-94.0152"/>
</g>
<!-- node45&#45;&gt;node59 -->
<g id="edge188" class="edge"><title>node45&#45;&gt;node59</title>
<path fill="none" stroke="black" d="M225.501,-575.917C204.081,-536.788 158.762,-441.231 176,-360 183.269,-325.745 183.374,-312.897 208,-288 229.679,-266.082 261.896,-252.167 287.192,-243.961"/>
<polygon fill="black" stroke="black" points="288.328,-247.274 296.858,-240.99 286.271,-240.583 288.328,-247.274"/>
</g>
<!-- node45&#45;&gt;node66 -->
<g id="edge190" class="edge"><title>node45&#45;&gt;node66</title>
<path fill="none" stroke="black" d="M248.872,-575.836C277.515,-535.746 349.266,-437.134 416,-360 424.222,-350.496 433.575,-340.403 442.006,-331.546"/>
<polygon fill="black" stroke="black" points="444.728,-333.765 449.127,-324.127 439.677,-328.918 444.728,-333.765"/>
</g>
<!-- node45&#45;&gt;node55 -->
<g id="edge194" class="edge"><title>node45&#45;&gt;node55</title>
<path fill="none" stroke="black" d="M238.256,-575.955C242.961,-538.314 253.852,-451.187 259.484,-406.125"/>
<polygon fill="black" stroke="black" points="262.964,-406.502 260.732,-396.145 256.018,-405.634 262.964,-406.502"/>
</g>
<!-- node45&#45;&gt;node64 -->
<g id="edge192" class="edge"><title>node45&#45;&gt;node64</title>
<path fill="none" stroke="black" d="M280.082,-590.813C444.659,-578.916 1022.14,-537.17 1187.47,-525.219"/>
<polygon fill="black" stroke="black" points="1188.03,-528.688 1197.75,-524.476 1187.53,-521.706 1188.03,-528.688"/>
</g>
<!-- node159&#45;&gt;node176 -->
<g id="edge200" class="edge"><title>node159&#45;&gt;node176</title>
<path fill="none" stroke="black" d="M1988.91,-581.656C1972.65,-572.645 1953.36,-558.727 1944,-540 1936.84,-525.689 1934.43,-516.821 1944,-504 1983.22,-451.471 2158.45,-413.056 2271.3,-393.233"/>
<polygon fill="black" stroke="black" points="2272.09,-396.648 2281.34,-391.489 2270.89,-389.751 2272.09,-396.648"/>
</g>
<!-- node159&#45;&gt;node191 -->
<g id="edge202" class="edge"><title>node159&#45;&gt;node191</title>
<path fill="none" stroke="black" d="M2034.67,-575.831C2043.68,-567.067 2054.63,-556.417 2064.4,-546.91"/>
<polygon fill="black" stroke="black" points="2066.86,-549.396 2071.59,-539.913 2061.98,-544.378 2066.86,-549.396"/>
</g>
<!-- node159&#45;&gt;node192 -->
<g id="edge204" class="edge"><title>node159&#45;&gt;node192</title>
<path fill="none" stroke="black" d="M2043.02,-588.88C2096.93,-578.666 2219.98,-555.351 2305.53,-539.142"/>
<polygon fill="black" stroke="black" points="2306.33,-542.552 2315.5,-537.252 2305.03,-535.675 2306.33,-542.552"/>
</g>
</g>
</svg>
