<?xml version="1.0" encoding="UTF-8" standalone="no"?>
<!DOCTYPE svg PUBLIC "-//W3C//DTD SVG 1.1//EN"
 "http://www.w3.org/Graphics/SVG/1.1/DTD/svg11.dtd">
<!-- Generated by graphviz version 2.26.3 (20100126.1600)
 -->
<!-- Title: GG Pages: 1 -->
<svg width="2382pt" height="620pt"
 viewBox="0.00 0.00 2382.00 620.00" xmlns="http://www.w3.org/2000/svg" xmlns:xlink="http://www.w3.org/1999/xlink">
<g id="graph1" class="graph" transform="scale(1 1) rotate(0) translate(4 616)">
<title>GG</title>
<polygon fill="white" stroke="white" points="-4,5 -4,-616 2379,-616 2379,5 -4,5"/>
<!-- node138 -->
<g id="node1" class="node"><title>node138</title>
<polygon fill="none" stroke="black" points="987,-612 933,-612 933,-576 987,-576 987,-612"/>
<text text-anchor="middle" x="960" y="-590.7" font-family="Times Roman,serif" font-size="12.00">ccd</text>
</g>
<!-- node151 -->
<g id="node2" class="node"><title>node151</title>
<polygon fill="none" stroke="black" points="1662,-108 1608,-108 1608,-72 1662,-72 1662,-108"/>
<text text-anchor="middle" x="1635" y="-86.7" font-family="Times Roman,serif" font-size="12.00">jlib</text>
</g>
<!-- node138&#45;&gt;node151 -->
<g id="edge2" class="edge"><title>node138&#45;&gt;node151</title>
<path fill="none" stroke="black" d="M932.68,-593.201C783.897,-588.752 76.5739,-566.274 39,-540 3.27385,-515.018 3.55271e-15,-493.594 0,-450 0,-450 0,-450 0,-234 3.55271e-15,-190.581 2.22692,-168.607 38,-144 104.335,-98.37 1364,-91.0901 1597.82,-90.1304"/>
<polygon fill="black" stroke="black" points="1597.88,-93.6303 1607.87,-90.0905 1597.85,-86.6303 1597.88,-93.6303"/>
</g>
<!-- node147 -->
<g id="node12" class="node"><title>node147</title>
<polygon fill="none" stroke="black" points="801,-252 747,-252 747,-216 801,-216 801,-252"/>
<text text-anchor="middle" x="774" y="-230.7" font-family="Times Roman,serif" font-size="12.00">nbcd</text>
</g>
<!-- node138&#45;&gt;node147 -->
<g id="edge12" class="edge"><title>node138&#45;&gt;node147</title>
<path fill="none" stroke="black" d="M932.77,-577.78C897.365,-554.388 840,-507.601 840,-450 840,-450 840,-450 840,-378 840,-333.829 814.019,-288.4 794.659,-260.679"/>
<polygon fill="black" stroke="black" points="797.33,-258.398 788.648,-252.325 791.648,-262.486 797.33,-258.398"/>
</g>
<!-- node142 -->
<g id="node15" class="node"><title>node142</title>
<polygon fill="none" stroke="black" points="140,-468 66,-468 66,-432 140,-432 140,-468"/>
<text text-anchor="middle" x="103" y="-446.7" font-family="Times Roman,serif" font-size="12.00">roxiemem</text>
</g>
<!-- node138&#45;&gt;node142 -->
<g id="edge16" class="edge"><title>node138&#45;&gt;node142</title>
<path fill="none" stroke="black" d="M932.596,-593.692C799.163,-591.989 221.164,-582.209 154,-540 131.785,-526.039 118.316,-498.702 110.845,-477.802"/>
<polygon fill="black" stroke="black" points="114.114,-476.539 107.648,-468.146 107.469,-478.74 114.114,-476.539"/>
</g>
<!-- node144 -->
<g id="node18" class="node"><title>node144</title>
<polygon fill="none" stroke="black" points="102,-540 48,-540 48,-504 102,-504 102,-540"/>
<text text-anchor="middle" x="75" y="-518.7" font-family="Times Roman,serif" font-size="12.00">udplib</text>
</g>
<!-- node138&#45;&gt;node144 -->
<g id="edge20" class="edge"><title>node138&#45;&gt;node144</title>
<path fill="none" stroke="black" d="M932.929,-593.535C806.839,-591.176 276.494,-579.07 116,-540 114.725,-539.69 113.441,-539.342 112.153,-538.963"/>
<polygon fill="black" stroke="black" points="112.924,-535.527 102.33,-535.557 110.631,-542.14 112.924,-535.527"/>
</g>
<!-- node59 -->
<g id="node22" class="node"><title>node59</title>
<polygon fill="none" stroke="black" points="2292,-252 2234,-252 2234,-216 2292,-216 2292,-252"/>
<text text-anchor="middle" x="2263" y="-230.7" font-family="Times Roman,serif" font-size="12.00">remote</text>
</g>
<!-- node138&#45;&gt;node59 -->
<g id="edge26" class="edge"><title>node138&#45;&gt;node59</title>
<path fill="none" stroke="black" d="M987.297,-592.7C1183.74,-583.171 2374,-522.446 2374,-450 2374,-450 2374,-450 2374,-378 2374,-327.513 2330.67,-283.902 2298.15,-258.282"/>
<polygon fill="black" stroke="black" points="2300.22,-255.458 2290.15,-252.163 2295.97,-261.018 2300.22,-255.458"/>
</g>
<!-- node146 -->
<g id="node28" class="node"><title>node146</title>
<polygon fill="none" stroke="black" points="1180,-324 1126,-324 1126,-288 1180,-288 1180,-324"/>
<text text-anchor="middle" x="1153" y="-302.7" font-family="Times Roman,serif" font-size="12.00">eclrtl</text>
</g>
<!-- node138&#45;&gt;node146 -->
<g id="edge34" class="edge"><title>node138&#45;&gt;node146</title>
<path fill="none" stroke="black" d="M987.239,-588.436C1014.2,-581.551 1054.84,-567.242 1079,-540 1132.09,-480.137 1147.11,-382.177 1151.35,-334.23"/>
<polygon fill="black" stroke="black" points="1154.84,-334.492 1152.13,-324.248 1147.86,-333.941 1154.84,-334.492"/>
</g>
<!-- node66 -->
<g id="node40" class="node"><title>node66</title>
<polygon fill="none" stroke="black" points="1721,-324 1659,-324 1659,-288 1721,-288 1721,-324"/>
<text text-anchor="middle" x="1690" y="-302.7" font-family="Times Roman,serif" font-size="12.00">dalibase</text>
</g>
<!-- node138&#45;&gt;node66 -->
<g id="edge48" class="edge"><title>node138&#45;&gt;node66</title>
<path fill="none" stroke="black" d="M987.139,-592.928C1062.71,-589.5 1273.79,-576.787 1331,-540 1411.05,-488.526 1368.91,-414.405 1447,-360 1479.26,-337.522 1588.44,-319.715 1648.89,-311.296"/>
<polygon fill="black" stroke="black" points="1649.43,-314.754 1658.86,-309.93 1648.48,-307.819 1649.43,-314.754"/>
</g>
<!-- node53 -->
<g id="node49" class="node"><title>node53</title>
<polygon fill="none" stroke="black" points="1032,-396 972,-396 972,-360 1032,-360 1032,-396"/>
<text text-anchor="middle" x="1002" y="-374.7" font-family="Times Roman,serif" font-size="12.00">deftype</text>
</g>
<!-- node138&#45;&gt;node53 -->
<g id="edge62" class="edge"><title>node138&#45;&gt;node53</title>
<path fill="none" stroke="black" d="M963.509,-575.955C970.828,-538.314 987.769,-451.187 996.531,-406.125"/>
<polygon fill="black" stroke="black" points="999.999,-406.629 998.472,-396.145 993.127,-405.293 999.999,-406.629"/>
</g>
<!-- node156 -->
<g id="node54" class="node"><title>node156</title>
<polygon fill="none" stroke="black" points="684,-396 590,-396 590,-360 684,-360 684,-396"/>
<text text-anchor="middle" x="637" y="-374.7" font-family="Times Roman,serif" font-size="12.00">securesocket</text>
</g>
<!-- node138&#45;&gt;node156 -->
<g id="edge70" class="edge"><title>node138&#45;&gt;node156</title>
<path fill="none" stroke="black" d="M932.855,-585.954C904.89,-577.017 860.621,-561.029 826,-540 760.755,-500.369 695.565,-438.3 661.417,-403.626"/>
<polygon fill="black" stroke="black" points="663.706,-400.961 654.216,-396.251 658.698,-405.851 663.706,-400.961"/>
</g>
<!-- node63 -->
<g id="node61" class="node"><title>node63</title>
<polygon fill="none" stroke="black" points="944,-468 868,-468 868,-432 944,-432 944,-468"/>
<text text-anchor="middle" x="906" y="-446.7" font-family="Times Roman,serif" font-size="12.00">thorhelper</text>
</g>
<!-- node138&#45;&gt;node63 -->
<g id="edge78" class="edge"><title>node138&#45;&gt;node63</title>
<path fill="none" stroke="black" d="M953.161,-575.762C943.869,-550.985 927.177,-506.471 916.348,-477.594"/>
<polygon fill="black" stroke="black" points="919.572,-476.224 912.784,-468.09 913.018,-478.682 919.572,-476.224"/>
</g>
<!-- node150 -->
<g id="node68" class="node"><title>node150</title>
<polygon fill="none" stroke="black" points="158,-180 104,-180 104,-144 158,-144 158,-180"/>
<text text-anchor="middle" x="131" y="-158.7" font-family="Times Roman,serif" font-size="12.00">jhtree</text>
</g>
<!-- node138&#45;&gt;node150 -->
<g id="edge90" class="edge"><title>node138&#45;&gt;node150</title>
<path fill="none" stroke="black" d="M932.719,-588.717C804.733,-563.38 265.577,-450.325 159,-324 127.226,-286.338 125.573,-225.798 127.866,-190.364"/>
<polygon fill="black" stroke="black" points="131.368,-190.474 128.675,-180.227 124.39,-189.917 131.368,-190.474"/>
</g>
<!-- node55 -->
<g id="node71" class="node"><title>node55</title>
<polygon fill="none" stroke="black" points="2346,-396 2256,-396 2256,-360 2346,-360 2346,-396"/>
<text text-anchor="middle" x="2301" y="-374.7" font-family="Times Roman,serif" font-size="12.00">environment</text>
</g>
<!-- node138&#45;&gt;node55 -->
<g id="edge94" class="edge"><title>node138&#45;&gt;node55</title>
<path fill="none" stroke="black" d="M987.129,-592.169C1069.28,-586.467 1322.49,-567.734 1531,-540 1718.3,-515.087 1765.2,-507.403 1950,-468 2055.56,-445.493 2177.27,-412.732 2246.08,-393.569"/>
<polygon fill="black" stroke="black" points="2247.15,-396.904 2255.84,-390.843 2245.27,-390.162 2247.15,-396.904"/>
</g>
<!-- node54 -->
<g id="node77" class="node"><title>node54</title>
<polygon fill="none" stroke="black" points="1941,-468 1875,-468 1875,-432 1941,-432 1941,-468"/>
<text text-anchor="middle" x="1908" y="-446.7" font-family="Times Roman,serif" font-size="12.00">dllserver</text>
</g>
<!-- node138&#45;&gt;node54 -->
<g id="edge104" class="edge"><title>node138&#45;&gt;node54</title>
<path fill="none" stroke="black" d="M987.063,-591.397C1057.77,-584.466 1253.8,-564.414 1416,-540 1582.68,-514.912 1779.46,-476.126 1864.86,-458.838"/>
<polygon fill="black" stroke="black" points="1865.61,-462.258 1874.71,-456.839 1864.22,-455.398 1865.61,-462.258"/>
</g>
<!-- node61 -->
<g id="node92" class="node"><title>node61</title>
<polygon fill="none" stroke="black" points="1070,-540 988,-540 988,-504 1070,-504 1070,-540"/>
<text text-anchor="middle" x="1029" y="-518.7" font-family="Times Roman,serif" font-size="12.00">roxiehelper</text>
</g>
<!-- node138&#45;&gt;node61 -->
<g id="edge126" class="edge"><title>node138&#45;&gt;node61</title>
<path fill="none" stroke="black" d="M977.412,-575.831C985.521,-567.369 995.316,-557.149 1004.18,-547.897"/>
<polygon fill="black" stroke="black" points="1006.96,-550.055 1011.35,-540.413 1001.91,-545.211 1006.96,-550.055"/>
</g>
<!-- node64 -->
<g id="node99" class="node"><title>node64</title>
<polygon fill="none" stroke="black" points="1322,-540 1254,-540 1254,-504 1322,-504 1322,-540"/>
<text text-anchor="middle" x="1288" y="-518.7" font-family="Times Roman,serif" font-size="12.00">workunit</text>
</g>
<!-- node138&#45;&gt;node64 -->
<g id="edge138" class="edge"><title>node138&#45;&gt;node64</title>
<path fill="none" stroke="black" d="M987.121,-588.047C1043.69,-575.629 1174.74,-546.862 1243.72,-531.721"/>
<polygon fill="black" stroke="black" points="1244.81,-535.063 1253.83,-529.501 1243.31,-528.226 1244.81,-535.063"/>
</g>
<!-- node152 -->
<g id="node4" class="node"><title>node152</title>
<polygon fill="none" stroke="black" points="1513,-36 1473.06,-18 1513,-3.55271e-15 1552.94,-18 1513,-36"/>
<text text-anchor="middle" x="1513" y="-14.7" font-family="Times Roman,serif" font-size="12.00">lzma</text>
</g>
<!-- node151&#45;&gt;node152 -->
<g id="edge4" class="edge"><title>node151&#45;&gt;node152</title>
<path fill="none" stroke="black" d="M1607.92,-74.0209C1587.47,-61.9494 1559.55,-45.4743 1539.29,-33.5172"/>
<polygon fill="black" stroke="black" points="1540.97,-30.4417 1530.58,-28.3733 1537.41,-36.4701 1540.97,-30.4417"/>
</g>
<!-- node187 -->
<g id="node6" class="node"><title>node187</title>
<ellipse fill="none" stroke="black" cx="1598" cy="-18" rx="27" ry="18"/>
<text text-anchor="middle" x="1598" y="-14.7" font-family="Times Roman,serif" font-size="12.00">dl</text>
</g>
<!-- node151&#45;&gt;node187 -->
<g id="edge6" class="edge"><title>node151&#45;&gt;node187</title>
<path fill="none" stroke="black" d="M1625.66,-71.8314C1621.41,-63.5451 1616.28,-53.5727 1611.61,-44.4748"/>
<polygon fill="black" stroke="black" points="1614.63,-42.7123 1606.95,-35.4177 1608.41,-45.9118 1614.63,-42.7123"/>
</g>
<!-- node179 -->
<g id="node8" class="node"><title>node179</title>
<ellipse fill="none" stroke="black" cx="1673" cy="-18" rx="30.0465" ry="18"/>
<text text-anchor="middle" x="1673" y="-14.7" font-family="Times Roman,serif" font-size="12.00">crypt</text>
</g>
<!-- node151&#45;&gt;node179 -->
<g id="edge8" class="edge"><title>node151&#45;&gt;node179</title>
<path fill="none" stroke="black" d="M1644.59,-71.8314C1648.96,-63.5451 1654.23,-53.5727 1659.03,-44.4748"/>
<polygon fill="black" stroke="black" points="1662.24,-45.8952 1663.81,-35.4177 1656.04,-42.6279 1662.24,-45.8952"/>
</g>
<!-- node188 -->
<g id="node10" class="node"><title>node188</title>
<ellipse fill="none" stroke="black" cx="1748" cy="-18" rx="27" ry="18"/>
<text text-anchor="middle" x="1748" y="-14.7" font-family="Times Roman,serif" font-size="12.00">rt</text>
</g>
<!-- node151&#45;&gt;node188 -->
<g id="edge10" class="edge"><title>node151&#45;&gt;node188</title>
<path fill="none" stroke="black" d="M1662.07,-72.7542C1679.41,-61.7009 1701.9,-47.375 1719.52,-36.1494"/>
<polygon fill="black" stroke="black" points="1721.68,-38.9209 1728.23,-30.5955 1717.92,-33.0174 1721.68,-38.9209"/>
</g>
<!-- node147&#45;&gt;node151 -->
<g id="edge14" class="edge"><title>node147&#45;&gt;node151</title>
<path fill="none" stroke="black" d="M801.146,-219.328C804.083,-218.074 807.07,-216.931 810,-216 1103.93,-122.623 1479.43,-97.4173 1597.64,-91.5735"/>
<polygon fill="black" stroke="black" points="1598.13,-95.0543 1607.95,-91.0813 1597.8,-88.0623 1598.13,-95.0543"/>
</g>
<!-- node142&#45;&gt;node151 -->
<g id="edge18" class="edge"><title>node142&#45;&gt;node151</title>
<path fill="none" stroke="black" d="M97.274,-431.567C89.3484,-404.376 76,-351.784 76,-306 76,-306 76,-306 76,-234 76,-193.118 63.7029,-170.302 95,-144 124.689,-119.049 1364.75,-94.9827 1597.55,-90.6799"/>
<polygon fill="black" stroke="black" points="1597.93,-94.1736 1607.86,-90.4901 1597.8,-87.1748 1597.93,-94.1736"/>
</g>
<!-- node144&#45;&gt;node151 -->
<g id="edge22" class="edge"><title>node144&#45;&gt;node151</title>
<path fill="none" stroke="black" d="M67.1533,-503.746C56.2922,-476.778 38,-424.462 38,-378 38,-378 38,-378 38,-234 38,-191.547 35.7426,-169.074 70,-144 133.57,-97.4708 1365.34,-90.9295 1597.45,-90.1089"/>
<polygon fill="black" stroke="black" points="1597.75,-93.608 1607.74,-90.0741 1597.73,-86.6081 1597.75,-93.608"/>
</g>
<!-- node144&#45;&gt;node142 -->
<g id="edge24" class="edge"><title>node144&#45;&gt;node142</title>
<path fill="none" stroke="black" d="M82.0656,-503.831C85.126,-495.962 88.7779,-486.571 92.1682,-477.853"/>
<polygon fill="black" stroke="black" points="95.4768,-479.002 95.8393,-468.413 88.9527,-476.465 95.4768,-479.002"/>
</g>
<!-- node59&#45;&gt;node151 -->
<g id="edge28" class="edge"><title>node59&#45;&gt;node151</title>
<path fill="none" stroke="black" d="M2259.8,-215.679C2255.06,-194.594 2244.01,-160.731 2220,-144 2175.12,-112.728 1794.66,-95.947 1672.55,-91.3304"/>
<polygon fill="black" stroke="black" points="1672.35,-87.8203 1662.22,-90.9456 1672.08,-94.8154 1672.35,-87.8203"/>
</g>
<!-- node153 -->
<g id="node25" class="node"><title>node153</title>
<polygon fill="none" stroke="black" points="2080,-180 2026,-180 2026,-144 2080,-144 2080,-180"/>
<text text-anchor="middle" x="2053" y="-158.7" font-family="Times Roman,serif" font-size="12.00">mp</text>
</g>
<!-- node59&#45;&gt;node153 -->
<g id="edge30" class="edge"><title>node59&#45;&gt;node153</title>
<path fill="none" stroke="black" d="M2233.8,-223.989C2196.21,-211.102 2130.88,-188.703 2089.9,-174.651"/>
<polygon fill="black" stroke="black" points="2090.88,-171.288 2080.29,-171.355 2088.61,-177.909 2090.88,-171.288"/>
</g>
<!-- node153&#45;&gt;node151 -->
<g id="edge32" class="edge"><title>node153&#45;&gt;node151</title>
<path fill="none" stroke="black" d="M2025.9,-157.331C1953.38,-144.84 1754.81,-110.636 1672.01,-96.3752"/>
<polygon fill="black" stroke="black" points="1672.49,-92.9064 1662.04,-94.6581 1671.3,-99.8048 1672.49,-92.9064"/>
</g>
<!-- node146&#45;&gt;node151 -->
<g id="edge44" class="edge"><title>node146&#45;&gt;node151</title>
<path fill="none" stroke="black" d="M1180.21,-300.241C1199.37,-296.346 1225.67,-291.326 1249,-288 1330.13,-276.438 1557.51,-309.393 1616,-252 1651.32,-217.342 1647.27,-154.514 1641.15,-118.124"/>
<polygon fill="black" stroke="black" points="1644.57,-117.37 1639.31,-108.173 1637.68,-118.642 1644.57,-117.37"/>
</g>
<!-- node146&#45;&gt;node147 -->
<g id="edge46" class="edge"><title>node146&#45;&gt;node147</title>
<path fill="none" stroke="black" d="M1125.61,-292.66C1121.14,-290.867 1116.5,-289.227 1112,-288 984.771,-253.313 941.592,-288.973 811.081,-251.709"/>
<polygon fill="black" stroke="black" points="811.697,-248.242 801.116,-248.772 809.718,-254.956 811.697,-248.242"/>
</g>
<!-- node186 -->
<g id="node30" class="node"><title>node186</title>
<ellipse fill="none" stroke="black" cx="938" cy="-234" rx="118.939" ry="18"/>
<text text-anchor="middle" x="938" y="-230.7" font-family="Times Roman,serif" font-size="12.00">/usr/lib/libboost_regex&#45;mt.so</text>
</g>
<!-- node146&#45;&gt;node186 -->
<g id="edge36" class="edge"><title>node146&#45;&gt;node186</title>
<path fill="none" stroke="black" d="M1125.83,-293.56C1121.25,-291.611 1116.52,-289.686 1112,-288 1077.09,-274.967 1037.46,-262.493 1004.85,-252.824"/>
<polygon fill="black" stroke="black" points="1005.55,-249.381 994.966,-249.916 1003.57,-256.097 1005.55,-249.381"/>
</g>
<!-- node183 -->
<g id="node32" class="node"><title>node183</title>
<ellipse fill="none" stroke="black" cx="1153" cy="-234" rx="77.9931" ry="18"/>
<text text-anchor="middle" x="1153" y="-230.7" font-family="Times Roman,serif" font-size="12.00">/usr/lib/libicuuc.so</text>
</g>
<!-- node146&#45;&gt;node183 -->
<g id="edge38" class="edge"><title>node146&#45;&gt;node183</title>
<path fill="none" stroke="black" d="M1153,-287.831C1153,-280.131 1153,-270.974 1153,-262.417"/>
<polygon fill="black" stroke="black" points="1156.5,-262.413 1153,-252.413 1149.5,-262.413 1156.5,-262.413"/>
</g>
<!-- node184 -->
<g id="node34" class="node"><title>node184</title>
<ellipse fill="none" stroke="black" cx="1334" cy="-234" rx="85.1424" ry="18"/>
<text text-anchor="middle" x="1334" y="-230.7" font-family="Times Roman,serif" font-size="12.00">/usr/lib/libicui18n.so</text>
</g>
<!-- node146&#45;&gt;node184 -->
<g id="edge40" class="edge"><title>node146&#45;&gt;node184</title>
<path fill="none" stroke="black" d="M1180.1,-295.221C1207.56,-284.295 1250.69,-267.141 1284.31,-253.767"/>
<polygon fill="black" stroke="black" points="1285.96,-256.875 1293.96,-249.927 1283.38,-250.371 1285.96,-256.875"/>
</g>
<!-- node185 -->
<g id="node36" class="node"><title>node185</title>
<ellipse fill="none" stroke="black" cx="1522" cy="-234" rx="85.1424" ry="18"/>
<text text-anchor="middle" x="1522" y="-230.7" font-family="Times Roman,serif" font-size="12.00">/usr/lib/libicudata.so</text>
</g>
<!-- node146&#45;&gt;node185 -->
<g id="edge42" class="edge"><title>node146&#45;&gt;node185</title>
<path fill="none" stroke="black" d="M1180.13,-300.706C1236.27,-289.752 1366.81,-264.282 1449.36,-248.174"/>
<polygon fill="black" stroke="black" points="1450.03,-251.609 1459.18,-246.258 1448.69,-244.738 1450.03,-251.609"/>
</g>
<!-- node66&#45;&gt;node151 -->
<g id="edge50" class="edge"><title>node66&#45;&gt;node151</title>
<path fill="none" stroke="black" d="M1705.55,-287.846C1713,-277.947 1721.13,-265.07 1725,-252 1738.61,-205.971 1748.65,-185.77 1725,-144 1713.5,-123.696 1690.99,-110.194 1671.36,-101.768"/>
<polygon fill="black" stroke="black" points="1672.6,-98.4947 1662.01,-98.0327 1670,-104.995 1672.6,-98.4947"/>
</g>
<!-- node66&#45;&gt;node59 -->
<g id="edge60" class="edge"><title>node66&#45;&gt;node59</title>
<path fill="none" stroke="black" d="M1721.21,-302.078C1818.51,-289.852 2116.2,-252.446 2223.73,-238.934"/>
<polygon fill="black" stroke="black" points="2224.34,-242.385 2233.83,-237.665 2223.47,-235.44 2224.34,-242.385"/>
</g>
<!-- node66&#45;&gt;node153 -->
<g id="edge52" class="edge"><title>node66&#45;&gt;node153</title>
<path fill="none" stroke="black" d="M1721.21,-295.318C1751.68,-284.76 1799.27,-267.922 1840,-252 1902.61,-227.523 1974.45,-196.559 2016.65,-178.068"/>
<polygon fill="black" stroke="black" points="2018.21,-181.207 2025.96,-173.983 2015.39,-174.798 2018.21,-181.207"/>
</g>
<!-- node149 -->
<g id="node44" class="node"><title>node149</title>
<polygon fill="none" stroke="black" points="1831,-252 1777,-252 1777,-216 1831,-216 1831,-252"/>
<text text-anchor="middle" x="1804" y="-230.7" font-family="Times Roman,serif" font-size="12.00">hrpc</text>
</g>
<!-- node66&#45;&gt;node149 -->
<g id="edge54" class="edge"><title>node66&#45;&gt;node149</title>
<path fill="none" stroke="black" d="M1718.77,-287.831C1733.79,-278.341 1752.32,-266.639 1768.26,-256.572"/>
<polygon fill="black" stroke="black" points="1770.23,-259.471 1776.81,-251.171 1766.49,-253.552 1770.23,-259.471"/>
</g>
<!-- node149&#45;&gt;node151 -->
<g id="edge56" class="edge"><title>node149&#45;&gt;node151</title>
<path fill="none" stroke="black" d="M1799.94,-215.817C1794.61,-195.812 1783.44,-163.867 1763,-144 1737.89,-119.594 1700.1,-105.503 1672.08,-97.8765"/>
<polygon fill="black" stroke="black" points="1672.8,-94.4472 1662.24,-95.3521 1671.06,-101.228 1672.8,-94.4472"/>
</g>
<!-- node149&#45;&gt;node153 -->
<g id="edge58" class="edge"><title>node149&#45;&gt;node153</title>
<path fill="none" stroke="black" d="M1831.12,-226.158C1875.93,-213.201 1965.49,-187.305 2016.05,-172.686"/>
<polygon fill="black" stroke="black" points="2017.28,-175.973 2025.91,-169.833 2015.33,-169.248 2017.28,-175.973"/>
</g>
<!-- node53&#45;&gt;node151 -->
<g id="edge64" class="edge"><title>node53&#45;&gt;node151</title>
<path fill="none" stroke="black" d="M971.798,-363.177C935.067,-345.197 871.136,-314.06 816,-288 781.481,-271.684 758.578,-284.161 738,-252 729.377,-238.523 728.81,-229.098 738,-216 792.022,-139.006 845.054,-163.808 937,-144 1065.01,-116.424 1472.01,-97.0134 1597.68,-91.5584"/>
<polygon fill="black" stroke="black" points="1598.1,-95.0438 1607.94,-91.1171 1597.79,-88.0503 1598.1,-95.0438"/>
</g>
<!-- node53&#45;&gt;node147 -->
<g id="edge66" class="edge"><title>node53&#45;&gt;node147</title>
<path fill="none" stroke="black" d="M991.987,-359.709C979.898,-339.299 957.697,-306.696 930,-288 886.372,-258.551 864.248,-270.952 810.881,-251.893"/>
<polygon fill="black" stroke="black" points="811.886,-248.531 801.295,-248.256 809.403,-255.076 811.886,-248.531"/>
</g>
<!-- node53&#45;&gt;node146 -->
<g id="edge68" class="edge"><title>node53&#45;&gt;node146</title>
<path fill="none" stroke="black" d="M1032.19,-363.603C1056.57,-351.98 1090.94,-335.59 1116.79,-323.263"/>
<polygon fill="black" stroke="black" points="1118.38,-326.385 1125.9,-318.922 1115.37,-320.067 1118.38,-326.385"/>
</g>
<!-- node156&#45;&gt;node151 -->
<g id="edge72" class="edge"><title>node156&#45;&gt;node151</title>
<path fill="none" stroke="black" d="M589.72,-376.022C476.77,-370.813 198.561,-354.939 171,-324 160.357,-312.053 161.392,-300.794 171,-288 308.842,-104.448 440.729,-182.641 667,-144 850.9,-112.595 1442.16,-95.0878 1597.39,-90.9581"/>
<polygon fill="black" stroke="black" points="1597.89,-94.446 1607.8,-90.6838 1597.71,-87.4485 1597.89,-94.446"/>
</g>
<!-- node191 -->
<g id="node57" class="node"><title>node191</title>
<ellipse fill="none" stroke="black" cx="637" cy="-306" rx="137.138" ry="18"/>
<text text-anchor="middle" x="637" y="-302.7" font-family="Times Roman,serif" font-size="12.00">/usr/lib/x86_64&#45;linux&#45;gnu/libssl.so</text>
</g>
<!-- node156&#45;&gt;node191 -->
<g id="edge74" class="edge"><title>node156&#45;&gt;node191</title>
<path fill="none" stroke="black" d="M637,-359.831C637,-352.131 637,-342.974 637,-334.417"/>
<polygon fill="black" stroke="black" points="640.5,-334.413 637,-324.413 633.5,-334.413 640.5,-334.413"/>
</g>
<!-- node192 -->
<g id="node59" class="node"><title>node192</title>
<ellipse fill="none" stroke="black" cx="331" cy="-306" rx="150.937" ry="18"/>
<text text-anchor="middle" x="331" y="-302.7" font-family="Times Roman,serif" font-size="12.00">/usr/lib/x86_64&#45;linux&#45;gnu/libcrypto.so</text>
</g>
<!-- node156&#45;&gt;node192 -->
<g id="edge76" class="edge"><title>node156&#45;&gt;node192</title>
<path fill="none" stroke="black" d="M589.858,-366.908C541.859,-355.614 466.596,-337.905 409.571,-324.487"/>
<polygon fill="black" stroke="black" points="410.042,-321.003 399.506,-322.119 408.439,-327.817 410.042,-321.003"/>
</g>
<!-- node63&#45;&gt;node151 -->
<g id="edge80" class="edge"><title>node63&#45;&gt;node151</title>
<path fill="none" stroke="black" d="M893.481,-431.915C867.609,-394.819 808.537,-311.617 783,-288 761.278,-267.91 741.178,-277.97 727,-252 702.397,-206.936 724.437,-171.171 768,-144 839.144,-99.6263 1440.97,-91.5969 1597.77,-90.2534"/>
<polygon fill="black" stroke="black" points="1597.89,-93.7526 1607.86,-90.171 1597.83,-86.7528 1597.89,-93.7526"/>
</g>
<!-- node63&#45;&gt;node147 -->
<g id="edge82" class="edge"><title>node63&#45;&gt;node147</title>
<path fill="none" stroke="black" d="M904.098,-431.948C899.949,-400.027 887.6,-332.769 854,-288 847.647,-279.535 828.083,-266.274 809.893,-255.013"/>
<polygon fill="black" stroke="black" points="811.499,-251.892 801.138,-249.675 807.854,-257.869 811.499,-251.892"/>
</g>
<!-- node63&#45;&gt;node146 -->
<g id="edge84" class="edge"><title>node63&#45;&gt;node146</title>
<path fill="none" stroke="black" d="M912.751,-431.999C921.338,-411.544 938.107,-378.595 963,-360 1008.49,-326.018 1074.63,-313.404 1115.66,-308.733"/>
<polygon fill="black" stroke="black" points="1116.2,-312.197 1125.78,-307.685 1115.47,-305.234 1116.2,-312.197"/>
</g>
<!-- node63&#45;&gt;node53 -->
<g id="edge86" class="edge"><title>node63&#45;&gt;node53</title>
<path fill="none" stroke="black" d="M930.225,-431.831C942.163,-422.878 956.726,-411.956 969.606,-402.295"/>
<polygon fill="black" stroke="black" points="971.883,-404.963 977.783,-396.163 967.683,-399.363 971.883,-404.963"/>
</g>
<!-- node63&#45;&gt;node156 -->
<g id="edge88" class="edge"><title>node63&#45;&gt;node156</title>
<path fill="none" stroke="black" d="M867.745,-439.761C822.367,-427.615 746.297,-407.254 693.982,-393.252"/>
<polygon fill="black" stroke="black" points="694.743,-389.832 684.178,-390.628 692.933,-396.594 694.743,-389.832"/>
</g>
<!-- node150&#45;&gt;node151 -->
<g id="edge92" class="edge"><title>node150&#45;&gt;node151</title>
<path fill="none" stroke="black" d="M158.304,-148.335C162.786,-146.584 167.454,-145.042 172,-144 314.6,-111.319 1384.07,-93.7438 1597.87,-90.5376"/>
<polygon fill="black" stroke="black" points="1598.01,-94.036 1607.96,-90.3875 1597.9,-87.0368 1598.01,-94.036"/>
</g>
<!-- node55&#45;&gt;node151 -->
<g id="edge96" class="edge"><title>node55&#45;&gt;node151</title>
<path fill="none" stroke="black" d="M2304.62,-359.912C2309.97,-329.337 2317.63,-265.895 2301,-216 2288.35,-178.053 2281.96,-163.445 2247,-144 2196.79,-116.069 1797.55,-96.9009 1672.39,-91.5317"/>
<polygon fill="black" stroke="black" points="1672.3,-88.0248 1662.16,-91.0975 1672,-95.0185 1672.3,-88.0248"/>
</g>
<!-- node55&#45;&gt;node59 -->
<g id="edge100" class="edge"><title>node55&#45;&gt;node59</title>
<path fill="none" stroke="black" d="M2296.19,-359.762C2289.68,-335.093 2278,-290.86 2270.38,-261.973"/>
<polygon fill="black" stroke="black" points="2273.71,-260.866 2267.77,-252.09 2266.94,-262.652 2273.71,-260.866"/>
</g>
<!-- node55&#45;&gt;node153 -->
<g id="edge98" class="edge"><title>node55&#45;&gt;node153</title>
<path fill="none" stroke="black" d="M2286.31,-359.945C2259.99,-328.309 2202.1,-261.87 2144,-216 2127.09,-202.649 2106.57,-190.197 2089.31,-180.623"/>
<polygon fill="black" stroke="black" points="2090.55,-177.314 2080.09,-175.613 2087.2,-183.464 2090.55,-177.314"/>
</g>
<!-- node55&#45;&gt;node66 -->
<g id="edge102" class="edge"><title>node55&#45;&gt;node66</title>
<path fill="none" stroke="black" d="M2255.57,-372.647C2140.9,-359.134 1841.05,-323.8 1731.15,-310.849"/>
<polygon fill="black" stroke="black" points="1731.46,-307.361 1721.12,-309.667 1730.64,-314.313 1731.46,-307.361"/>
</g>
<!-- node54&#45;&gt;node151 -->
<g id="edge108" class="edge"><title>node54&#45;&gt;node151</title>
<path fill="none" stroke="black" d="M1941.38,-433.624C1942.93,-433.043 1944.47,-432.498 1946,-432 2027.29,-405.483 2077.36,-459.161 2135,-396 2211.75,-311.905 2178.36,-214.544 2089,-144 2056.47,-118.32 1774.83,-98.5988 1672.21,-92.2065"/>
<polygon fill="black" stroke="black" points="1672.2,-88.6995 1662,-91.5783 1671.77,-95.6863 1672.2,-88.6995"/>
</g>
<!-- node54&#45;&gt;node59 -->
<g id="edge116" class="edge"><title>node54&#45;&gt;node59</title>
<path fill="none" stroke="black" d="M1941.13,-448.041C2009.81,-443.346 2164.58,-429.27 2204,-396 2244.08,-362.176 2256.93,-298.77 2261.05,-262.116"/>
<polygon fill="black" stroke="black" points="2264.54,-262.392 2262.04,-252.098 2257.58,-261.708 2264.54,-262.392"/>
</g>
<!-- node54&#45;&gt;node153 -->
<g id="edge110" class="edge"><title>node54&#45;&gt;node153</title>
<path fill="none" stroke="black" d="M1941.39,-433.67C1942.94,-433.077 1944.48,-432.516 1946,-432 2017.9,-407.587 2065.3,-455.075 2113,-396 2163,-334.077 2105.9,-235.375 2073.01,-188.448"/>
<polygon fill="black" stroke="black" points="2075.66,-186.134 2066.99,-180.044 2069.97,-190.211 2075.66,-186.134"/>
</g>
<!-- node54&#45;&gt;node146 -->
<g id="edge114" class="edge"><title>node54&#45;&gt;node146</title>
<path fill="none" stroke="black" d="M1874.89,-448.65C1796.21,-444.931 1592.18,-432.29 1426,-396 1339.43,-377.095 1241.62,-341.119 1189.8,-320.847"/>
<polygon fill="black" stroke="black" points="1190.96,-317.541 1180.38,-317.132 1188.4,-324.054 1190.96,-317.541"/>
</g>
<!-- node54&#45;&gt;node66 -->
<g id="edge118" class="edge"><title>node54&#45;&gt;node66</title>
<path fill="none" stroke="black" d="M1941.17,-446.307C2006.5,-437.787 2141.64,-413.267 2095,-360 2071.25,-332.869 1829.71,-314.769 1731.34,-308.471"/>
<polygon fill="black" stroke="black" points="1731.38,-304.966 1721.18,-307.829 1730.94,-311.952 1731.38,-304.966"/>
</g>
<!-- node54&#45;&gt;node149 -->
<g id="edge112" class="edge"><title>node54&#45;&gt;node149</title>
<path fill="none" stroke="black" d="M1874.86,-448.505C1775.73,-443.695 1486.58,-427.095 1459,-396 1448.38,-384.03 1448.46,-372.036 1459,-360 1499.03,-314.301 1676.9,-353.517 1730,-324 1756.03,-309.531 1776.59,-281.941 1789.37,-261.105"/>
<polygon fill="black" stroke="black" points="1792.46,-262.755 1794.52,-252.363 1786.43,-259.201 1792.46,-262.755"/>
</g>
<!-- node54&#45;&gt;node55 -->
<g id="edge120" class="edge"><title>node54&#45;&gt;node55</title>
<path fill="none" stroke="black" d="M1941,-446.175C2001.27,-438.856 2133,-421.314 2242,-396 2243.26,-395.707 2244.54,-395.402 2245.82,-395.085"/>
<polygon fill="black" stroke="black" points="2246.96,-398.403 2255.75,-392.484 2245.19,-391.632 2246.96,-398.403"/>
</g>
<!-- node176 -->
<g id="node79" class="node"><title>node176</title>
<ellipse fill="none" stroke="black" cx="1599" cy="-378" rx="130.789" ry="18"/>
<text text-anchor="middle" x="1599" y="-374.7" font-family="Times Roman,serif" font-size="12.00">/usr/lib/x86_64&#45;linux&#45;gnu/libz.so</text>
</g>
<!-- node54&#45;&gt;node176 -->
<g id="edge106" class="edge"><title>node54&#45;&gt;node176</title>
<path fill="none" stroke="black" d="M1874.93,-442.295C1827.71,-431.293 1739.62,-410.766 1675.64,-395.858"/>
<polygon fill="black" stroke="black" points="1676.12,-392.377 1665.59,-393.516 1674.54,-399.194 1676.12,-392.377"/>
</g>
<!-- node177 -->
<g id="node88" class="node"><title>node177</title>
<ellipse fill="none" stroke="black" cx="1819" cy="-378" rx="70.8437" ry="18"/>
<text text-anchor="middle" x="1819" y="-374.7" font-family="Times Roman,serif" font-size="12.00">/usr/lib/libbfd.so</text>
</g>
<!-- node54&#45;&gt;node177 -->
<g id="edge122" class="edge"><title>node54&#45;&gt;node177</title>
<path fill="none" stroke="black" d="M1885.54,-431.831C1874.33,-422.76 1860.62,-411.668 1848.56,-401.915"/>
<polygon fill="black" stroke="black" points="1850.51,-398.986 1840.53,-395.418 1846.1,-404.428 1850.51,-398.986"/>
</g>
<!-- node178 -->
<g id="node90" class="node"><title>node178</title>
<ellipse fill="none" stroke="black" cx="1997" cy="-378" rx="89.0421" ry="18"/>
<text text-anchor="middle" x="1997" y="-374.7" font-family="Times Roman,serif" font-size="12.00">/usr/lib/libiberty_pic.a</text>
</g>
<!-- node54&#45;&gt;node178 -->
<g id="edge124" class="edge"><title>node54&#45;&gt;node178</title>
<path fill="none" stroke="black" d="M1930.46,-431.831C1941.59,-422.828 1955.18,-411.833 1967.17,-402.133"/>
<polygon fill="black" stroke="black" points="1969.59,-404.676 1975.16,-395.665 1965.19,-399.233 1969.59,-404.676"/>
</g>
<!-- node61&#45;&gt;node151 -->
<g id="edge128" class="edge"><title>node61&#45;&gt;node151</title>
<path fill="none" stroke="black" d="M1055.24,-503.971C1101.36,-472.661 1200.49,-407.081 1289,-360 1358.2,-323.188 1375.21,-311.455 1450,-288 1532.01,-262.282 1577.5,-310.994 1640,-252 1675.39,-218.598 1667.73,-191.679 1658,-144 1656.18,-135.102 1652.84,-125.854 1649.26,-117.579"/>
<polygon fill="black" stroke="black" points="1652.39,-116.004 1645.02,-108.391 1646.03,-118.937 1652.39,-116.004"/>
</g>
<!-- node61&#45;&gt;node142 -->
<g id="edge134" class="edge"><title>node61&#45;&gt;node142</title>
<path fill="none" stroke="black" d="M987.715,-518.79C836.176,-507.007 311.052,-466.177 150.2,-453.67"/>
<polygon fill="black" stroke="black" points="150.381,-450.174 140.14,-452.888 149.839,-457.153 150.381,-450.174"/>
</g>
<!-- node61&#45;&gt;node146 -->
<g id="edge130" class="edge"><title>node61&#45;&gt;node146</title>
<path fill="none" stroke="black" d="M1039.36,-503.955C1061.15,-465.997 1111.83,-377.713 1137.5,-332.993"/>
<polygon fill="black" stroke="black" points="1140.64,-334.56 1142.58,-324.145 1134.57,-331.075 1140.64,-334.56"/>
</g>
<!-- node61&#45;&gt;node66 -->
<g id="edge136" class="edge"><title>node61&#45;&gt;node66</title>
<path fill="none" stroke="black" d="M1070.24,-510.939C1102.98,-501.467 1149.48,-486.449 1188,-468 1268.73,-429.332 1274.34,-391.835 1358,-360 1457.78,-322.031 1584.37,-310.753 1648.58,-307.407"/>
<polygon fill="black" stroke="black" points="1648.89,-310.896 1658.71,-306.919 1648.56,-303.904 1648.89,-310.896"/>
</g>
<!-- node61&#45;&gt;node63 -->
<g id="edge132" class="edge"><title>node61&#45;&gt;node63</title>
<path fill="none" stroke="black" d="M997.962,-503.831C982.229,-494.622 962.939,-483.33 946.096,-473.471"/>
<polygon fill="black" stroke="black" points="947.426,-470.194 937.028,-468.163 943.89,-476.235 947.426,-470.194"/>
</g>
<!-- node64&#45;&gt;node151 -->
<g id="edge140" class="edge"><title>node64&#45;&gt;node151</title>
<path fill="none" stroke="black" d="M1290.84,-503.865C1297,-470.588 1314.67,-399.564 1358,-360 1414.82,-308.111 1641.86,-314.322 1687,-252 1715.15,-213.125 1704.95,-188.518 1687,-144 1682.68,-133.28 1675.1,-123.498 1667.04,-115.295"/>
<polygon fill="black" stroke="black" points="1669.24,-112.565 1659.58,-108.223 1664.43,-117.644 1669.24,-112.565"/>
</g>
<!-- node64&#45;&gt;node147 -->
<g id="edge146" class="edge"><title>node64&#45;&gt;node147</title>
<path fill="none" stroke="black" d="M1265.32,-503.932C1202.77,-454.396 1028.09,-318.116 962,-288 901.663,-260.506 877.458,-274.293 810.909,-251.846"/>
<polygon fill="black" stroke="black" points="811.824,-248.457 801.229,-248.43 809.494,-255.058 811.824,-248.457"/>
</g>
<!-- node64&#45;&gt;node146 -->
<g id="edge148" class="edge"><title>node64&#45;&gt;node146</title>
<path fill="none" stroke="black" d="M1276.72,-503.955C1252.95,-465.917 1197.59,-377.343 1169.7,-332.713"/>
<polygon fill="black" stroke="black" points="1172.61,-330.77 1164.34,-324.145 1166.67,-334.48 1172.61,-330.77"/>
</g>
<!-- node64&#45;&gt;node66 -->
<g id="edge142" class="edge"><title>node64&#45;&gt;node66</title>
<path fill="none" stroke="black" d="M1308.54,-503.931C1318.91,-494.054 1331.13,-481.173 1340,-468 1369.33,-424.423 1346.66,-392.402 1388,-360 1408.34,-344.062 1571.34,-321.261 1649.06,-311.158"/>
<polygon fill="black" stroke="black" points="1649.52,-314.627 1658.99,-309.876 1648.63,-307.685 1649.52,-314.627"/>
</g>
<!-- node64&#45;&gt;node53 -->
<g id="edge150" class="edge"><title>node64&#45;&gt;node53</title>
<path fill="none" stroke="black" d="M1253.79,-504.773C1200.41,-477.901 1097.64,-426.153 1041.3,-397.789"/>
<polygon fill="black" stroke="black" points="1042.85,-394.648 1032.34,-393.277 1039.7,-400.901 1042.85,-394.648"/>
</g>
<!-- node64&#45;&gt;node54 -->
<g id="edge144" class="edge"><title>node64&#45;&gt;node54</title>
<path fill="none" stroke="black" d="M1322.22,-518.026C1427.69,-505.778 1747.7,-468.616 1864.62,-455.037"/>
<polygon fill="black" stroke="black" points="1865.12,-458.504 1874.65,-453.873 1864.31,-451.55 1865.12,-458.504"/>
</g>
</g>
</svg>
