<?xml version="1.0" encoding="UTF-8" standalone="no"?>
<!DOCTYPE svg PUBLIC "-//W3C//DTD SVG 1.1//EN"
 "http://www.w3.org/Graphics/SVG/1.1/DTD/svg11.dtd">
<!-- Generated by graphviz version 2.26.3 (20100126.1600)
 -->
<!-- Title: GG Pages: 1 -->
<svg width="1615pt" height="548pt"
 viewBox="0.00 0.00 1614.87 548.00" xmlns="http://www.w3.org/2000/svg" xmlns:xlink="http://www.w3.org/1999/xlink">
<g id="graph1" class="graph" transform="scale(1 1) rotate(0) translate(4 544)">
<title>GG</title>
<polygon fill="white" stroke="white" points="-4,5 -4,-544 1611.87,-544 1611.87,5 -4,5"/>
<!-- node88 -->
<g id="node1" class="node"><title>node88</title>
<polygon fill="none" stroke="black" points="337,-540 259,-540 259,-504 337,-504 337,-540"/>
<text text-anchor="middle" x="298" y="-518.7" font-family="Times Roman,serif" font-size="12.00">deployutils</text>
</g>
<!-- node151 -->
<g id="node2" class="node"><title>node151</title>
<polygon fill="none" stroke="black" points="289,-108 235,-108 235,-72 289,-72 289,-108"/>
<text text-anchor="middle" x="262" y="-86.7" font-family="Times Roman,serif" font-size="12.00">jlib</text>
</g>
<!-- node88&#45;&gt;node151 -->
<g id="edge2" class="edge"><title>node88&#45;&gt;node151</title>
<path fill="none" stroke="black" d="M258.735,-511.851C177.815,-489.779 0,-434.813 0,-378 0,-378 0,-378 0,-234 0,-132.585 152.626,-102.093 224.896,-93.3391"/>
<polygon fill="black" stroke="black" points="225.406,-96.8038 234.948,-92.1994 224.618,-89.8483 225.406,-96.8038"/>
</g>
<!-- node55 -->
<g id="node12" class="node"><title>node55</title>
<polygon fill="none" stroke="black" points="281,-396 191,-396 191,-360 281,-360 281,-396"/>
<text text-anchor="middle" x="236" y="-374.7" font-family="Times Roman,serif" font-size="12.00">environment</text>
</g>
<!-- node88&#45;&gt;node55 -->
<g id="edge12" class="edge"><title>node88&#45;&gt;node55</title>
<path fill="none" stroke="black" d="M290.148,-503.762C279.479,-478.985 260.314,-434.471 247.881,-405.594"/>
<polygon fill="black" stroke="black" points="250.958,-403.89 243.789,-396.09 244.529,-406.659 250.958,-403.89"/>
</g>
<!-- node160 -->
<g id="node31" class="node"><title>node160</title>
<polygon fill="none" stroke="black" points="1226,-396 1172,-396 1172,-360 1226,-360 1226,-396"/>
<text text-anchor="middle" x="1199" y="-374.7" font-family="Times Roman,serif" font-size="12.00">xmllib</text>
</g>
<!-- node88&#45;&gt;node160 -->
<g id="edge40" class="edge"><title>node88&#45;&gt;node160</title>
<path fill="none" stroke="black" d="M337.004,-515.766C485.619,-492.014 1015.38,-407.346 1161.46,-383.999"/>
<polygon fill="black" stroke="black" points="1162.37,-387.398 1171.7,-382.364 1161.27,-380.486 1162.37,-387.398"/>
</g>
<!-- node87 -->
<g id="node40" class="node"><title>node87</title>
<polygon fill="none" stroke="black" points="365,-468 311,-468 311,-432 365,-432 365,-468"/>
<text text-anchor="middle" x="338" y="-446.7" font-family="Times Roman,serif" font-size="12.00">deploy</text>
</g>
<!-- node88&#45;&gt;node87 -->
<g id="edge50" class="edge"><title>node88&#45;&gt;node87</title>
<path fill="none" stroke="black" d="M308.094,-503.831C312.56,-495.792 317.907,-486.167 322.838,-477.292"/>
<polygon fill="black" stroke="black" points="325.973,-478.855 327.77,-468.413 319.854,-475.455 325.973,-478.855"/>
</g>
<!-- node152 -->
<g id="node4" class="node"><title>node152</title>
<polygon fill="none" stroke="black" points="140,-36 100.056,-18 140,-3.55271e-15 179.944,-18 140,-36"/>
<text text-anchor="middle" x="140" y="-14.7" font-family="Times Roman,serif" font-size="12.00">lzma</text>
</g>
<!-- node151&#45;&gt;node152 -->
<g id="edge4" class="edge"><title>node151&#45;&gt;node152</title>
<path fill="none" stroke="black" d="M234.924,-74.0209C214.47,-61.9494 186.554,-45.4743 166.293,-33.5172"/>
<polygon fill="black" stroke="black" points="167.968,-30.4417 157.577,-28.3733 164.41,-36.4701 167.968,-30.4417"/>
</g>
<!-- node187 -->
<g id="node6" class="node"><title>node187</title>
<ellipse fill="none" stroke="black" cx="225" cy="-18" rx="27" ry="18"/>
<text text-anchor="middle" x="225" y="-14.7" font-family="Times Roman,serif" font-size="12.00">dl</text>
</g>
<!-- node151&#45;&gt;node187 -->
<g id="edge6" class="edge"><title>node151&#45;&gt;node187</title>
<path fill="none" stroke="black" d="M252.663,-71.8314C248.405,-63.5451 243.28,-53.5727 238.605,-44.4748"/>
<polygon fill="black" stroke="black" points="241.635,-42.7123 233.951,-35.4177 235.408,-45.9118 241.635,-42.7123"/>
</g>
<!-- node179 -->
<g id="node8" class="node"><title>node179</title>
<ellipse fill="none" stroke="black" cx="300" cy="-18" rx="30.0465" ry="18"/>
<text text-anchor="middle" x="300" y="-14.7" font-family="Times Roman,serif" font-size="12.00">crypt</text>
</g>
<!-- node151&#45;&gt;node179 -->
<g id="edge8" class="edge"><title>node151&#45;&gt;node179</title>
<path fill="none" stroke="black" d="M271.589,-71.8314C275.962,-63.5451 281.226,-53.5727 286.027,-44.4748"/>
<polygon fill="black" stroke="black" points="289.235,-45.8952 290.807,-35.4177 283.044,-42.6279 289.235,-45.8952"/>
</g>
<!-- node188 -->
<g id="node10" class="node"><title>node188</title>
<ellipse fill="none" stroke="black" cx="375" cy="-18" rx="27" ry="18"/>
<text text-anchor="middle" x="375" y="-14.7" font-family="Times Roman,serif" font-size="12.00">rt</text>
</g>
<!-- node151&#45;&gt;node188 -->
<g id="edge10" class="edge"><title>node151&#45;&gt;node188</title>
<path fill="none" stroke="black" d="M289.066,-72.7542C306.414,-61.7009 328.898,-47.375 346.516,-36.1494"/>
<polygon fill="black" stroke="black" points="348.679,-38.9209 355.232,-30.5955 344.918,-33.0174 348.679,-38.9209"/>
</g>
<!-- node55&#45;&gt;node151 -->
<g id="edge14" class="edge"><title>node55&#45;&gt;node151</title>
<path fill="none" stroke="black" d="M242.578,-359.879C256.025,-320.674 284.61,-224.979 275,-144 273.993,-135.517 272.126,-126.438 270.115,-118.191"/>
<polygon fill="black" stroke="black" points="273.447,-117.097 267.545,-108.299 266.672,-118.858 273.447,-117.097"/>
</g>
<!-- node153 -->
<g id="node15" class="node"><title>node153</title>
<polygon fill="none" stroke="black" points="179,-180 125,-180 125,-144 179,-144 179,-180"/>
<text text-anchor="middle" x="152" y="-158.7" font-family="Times Roman,serif" font-size="12.00">mp</text>
</g>
<!-- node55&#45;&gt;node153 -->
<g id="edge16" class="edge"><title>node55&#45;&gt;node153</title>
<path fill="none" stroke="black" d="M203.134,-359.979C189.77,-350.946 175.5,-338.765 167,-324 143.093,-282.475 144.284,-224.847 147.807,-190.692"/>
<polygon fill="black" stroke="black" points="151.317,-190.817 149.005,-180.477 144.364,-190.002 151.317,-190.817"/>
</g>
<!-- node59 -->
<g id="node18" class="node"><title>node59</title>
<polygon fill="none" stroke="black" points="86,-252 28,-252 28,-216 86,-216 86,-252"/>
<text text-anchor="middle" x="57" y="-230.7" font-family="Times Roman,serif" font-size="12.00">remote</text>
</g>
<!-- node55&#45;&gt;node59 -->
<g id="edge20" class="edge"><title>node55&#45;&gt;node59</title>
<path fill="none" stroke="black" d="M190.687,-368.992C161.778,-361.254 125.151,-347.502 100,-324 82.1145,-307.287 70.8702,-281.59 64.3861,-261.926"/>
<polygon fill="black" stroke="black" points="67.7027,-260.803 61.4193,-252.272 61.0116,-262.859 67.7027,-260.803"/>
</g>
<!-- node66 -->
<g id="node22" class="node"><title>node66</title>
<polygon fill="none" stroke="black" points="238,-324 176,-324 176,-288 238,-288 238,-324"/>
<text text-anchor="middle" x="207" y="-302.7" font-family="Times Roman,serif" font-size="12.00">dalibase</text>
</g>
<!-- node55&#45;&gt;node66 -->
<g id="edge26" class="edge"><title>node55&#45;&gt;node66</title>
<path fill="none" stroke="black" d="M228.682,-359.831C225.512,-351.962 221.73,-342.571 218.219,-333.853"/>
<polygon fill="black" stroke="black" points="221.399,-332.381 214.416,-324.413 214.906,-334.997 221.399,-332.381"/>
</g>
<!-- node153&#45;&gt;node151 -->
<g id="edge18" class="edge"><title>node153&#45;&gt;node151</title>
<path fill="none" stroke="black" d="M179.191,-144.202C193.338,-134.943 210.816,-123.502 226.063,-113.522"/>
<polygon fill="black" stroke="black" points="228.29,-116.248 234.741,-107.843 224.457,-110.391 228.29,-116.248"/>
</g>
<!-- node59&#45;&gt;node151 -->
<g id="edge22" class="edge"><title>node59&#45;&gt;node151</title>
<path fill="none" stroke="black" d="M64.584,-215.977C73.9202,-195.812 91.5905,-163.434 116,-144 148.008,-118.517 193.216,-104.289 224.819,-96.9163"/>
<polygon fill="black" stroke="black" points="225.967,-100.247 234.976,-94.6724 224.457,-93.412 225.967,-100.247"/>
</g>
<!-- node59&#45;&gt;node153 -->
<g id="edge24" class="edge"><title>node59&#45;&gt;node153</title>
<path fill="none" stroke="black" d="M80.9725,-215.831C92.7861,-206.878 107.197,-195.956 119.943,-186.295"/>
<polygon fill="black" stroke="black" points="122.18,-188.992 128.035,-180.163 117.951,-183.414 122.18,-188.992"/>
</g>
<!-- node66&#45;&gt;node151 -->
<g id="edge28" class="edge"><title>node66&#45;&gt;node151</title>
<path fill="none" stroke="black" d="M222.365,-287.708C229.857,-277.77 238.256,-264.902 243,-252 259.42,-207.347 262.471,-151.53 262.629,-118.434"/>
<polygon fill="black" stroke="black" points="266.127,-118.116 262.586,-108.131 259.128,-118.145 266.127,-118.116"/>
</g>
<!-- node66&#45;&gt;node153 -->
<g id="edge30" class="edge"><title>node66&#45;&gt;node153</title>
<path fill="none" stroke="black" d="M192.115,-287.518C184.754,-277.53 176.328,-264.672 171,-252 162.669,-232.188 157.847,-208.332 155.146,-190.16"/>
<polygon fill="black" stroke="black" points="158.606,-189.629 153.79,-180.192 151.67,-190.572 158.606,-189.629"/>
</g>
<!-- node66&#45;&gt;node59 -->
<g id="edge38" class="edge"><title>node66&#45;&gt;node59</title>
<path fill="none" stroke="black" d="M175.92,-291.082C152.484,-279.832 120.213,-264.342 95.2018,-252.337"/>
<polygon fill="black" stroke="black" points="96.5347,-249.094 86.0048,-247.922 93.5055,-255.405 96.5347,-249.094"/>
</g>
<!-- node149 -->
<g id="node26" class="node"><title>node149</title>
<polygon fill="none" stroke="black" points="234,-252 180,-252 180,-216 234,-216 234,-252"/>
<text text-anchor="middle" x="207" y="-230.7" font-family="Times Roman,serif" font-size="12.00">hrpc</text>
</g>
<!-- node66&#45;&gt;node149 -->
<g id="edge32" class="edge"><title>node66&#45;&gt;node149</title>
<path fill="none" stroke="black" d="M207,-287.831C207,-280.131 207,-270.974 207,-262.417"/>
<polygon fill="black" stroke="black" points="210.5,-262.413 207,-252.413 203.5,-262.413 210.5,-262.413"/>
</g>
<!-- node149&#45;&gt;node151 -->
<g id="edge34" class="edge"><title>node149&#45;&gt;node151</title>
<path fill="none" stroke="black" d="M213.966,-215.762C223.429,-190.985 240.431,-146.471 251.461,-117.594"/>
<polygon fill="black" stroke="black" points="254.792,-118.68 255.091,-108.09 248.253,-116.183 254.792,-118.68"/>
</g>
<!-- node149&#45;&gt;node153 -->
<g id="edge36" class="edge"><title>node149&#45;&gt;node153</title>
<path fill="none" stroke="black" d="M193.121,-215.831C186.786,-207.539 179.162,-197.557 172.207,-188.453"/>
<polygon fill="black" stroke="black" points="174.917,-186.235 166.066,-180.413 169.355,-190.485 174.917,-186.235"/>
</g>
<!-- node160&#45;&gt;node151 -->
<g id="edge48" class="edge"><title>node160&#45;&gt;node151</title>
<path fill="none" stroke="black" d="M1226.08,-376.377C1312,-370.953 1574.36,-352.194 1599,-324 1609.53,-311.953 1609.45,-300.114 1599,-288 1511.05,-186.063 506.183,-107.761 299.161,-92.6471"/>
<polygon fill="black" stroke="black" points="299.322,-89.1497 289.095,-91.9163 298.815,-96.1313 299.322,-89.1497"/>
</g>
<!-- node180 -->
<g id="node33" class="node"><title>node180</title>
<ellipse fill="none" stroke="black" cx="1101" cy="-306" rx="85.1424" ry="18"/>
<text text-anchor="middle" x="1101" y="-302.7" font-family="Times Roman,serif" font-size="12.00">/usr/lib/libxalan&#45;c.so</text>
</g>
<!-- node160&#45;&gt;node180 -->
<g id="edge42" class="edge"><title>node160&#45;&gt;node180</title>
<path fill="none" stroke="black" d="M1174.27,-359.831C1161.69,-350.586 1146.24,-339.241 1132.79,-329.354"/>
<polygon fill="black" stroke="black" points="1134.84,-326.518 1124.71,-323.418 1130.69,-332.159 1134.84,-326.518"/>
</g>
<!-- node181 -->
<g id="node35" class="node"><title>node181</title>
<ellipse fill="none" stroke="black" cx="1297" cy="-306" rx="93.0912" ry="18"/>
<text text-anchor="middle" x="1297" y="-302.7" font-family="Times Roman,serif" font-size="12.00">/usr/lib/libxalanMsg.so</text>
</g>
<!-- node160&#45;&gt;node181 -->
<g id="edge44" class="edge"><title>node160&#45;&gt;node181</title>
<path fill="none" stroke="black" d="M1223.73,-359.831C1236.31,-350.586 1251.76,-339.241 1265.21,-329.354"/>
<polygon fill="black" stroke="black" points="1267.31,-332.159 1273.29,-323.418 1263.16,-326.518 1267.31,-332.159"/>
</g>
<!-- node182 -->
<g id="node37" class="node"><title>node182</title>
<ellipse fill="none" stroke="black" cx="1499" cy="-306" rx="90.9919" ry="18"/>
<text text-anchor="middle" x="1499" y="-302.7" font-family="Times Roman,serif" font-size="12.00">/usr/lib/libxerces&#45;c.so</text>
</g>
<!-- node160&#45;&gt;node182 -->
<g id="edge46" class="edge"><title>node160&#45;&gt;node182</title>
<path fill="none" stroke="black" d="M1226.15,-371.483C1272.11,-360.453 1366.54,-337.789 1431.31,-322.244"/>
<polygon fill="black" stroke="black" points="1432.14,-325.646 1441.04,-319.909 1430.5,-318.84 1432.14,-325.646"/>
</g>
<!-- node87&#45;&gt;node151 -->
<g id="edge52" class="edge"><title>node87&#45;&gt;node151</title>
<path fill="none" stroke="black" d="M338,-431.815C338,-404.498 338,-351.25 338,-306 338,-306 338,-306 338,-234 338,-188.656 308.162,-143.6 285.877,-116.273"/>
<polygon fill="black" stroke="black" points="288.359,-113.786 279.246,-108.381 282.999,-118.289 288.359,-113.786"/>
</g>
<!-- node87&#45;&gt;node55 -->
<g id="edge54" class="edge"><title>node87&#45;&gt;node55</title>
<path fill="none" stroke="black" d="M312.261,-431.831C299.456,-422.793 283.809,-411.748 270.028,-402.02"/>
<polygon fill="black" stroke="black" points="271.919,-399.07 261.731,-396.163 267.882,-404.789 271.919,-399.07"/>
</g>
<!-- node87&#45;&gt;node160 -->
<g id="edge56" class="edge"><title>node87&#45;&gt;node160</title>
<path fill="none" stroke="black" d="M365.19,-447.726C490.959,-437.209 1016.33,-393.276 1161.62,-381.126"/>
<polygon fill="black" stroke="black" points="1162.13,-384.596 1171.8,-380.274 1161.55,-377.62 1162.13,-384.596"/>
</g>
<!-- node156 -->
<g id="node45" class="node"><title>node156</title>
<polygon fill="none" stroke="black" points="524,-396 430,-396 430,-360 524,-360 524,-396"/>
<text text-anchor="middle" x="477" y="-374.7" font-family="Times Roman,serif" font-size="12.00">securesocket</text>
</g>
<!-- node87&#45;&gt;node156 -->
<g id="edge58" class="edge"><title>node87&#45;&gt;node156</title>
<path fill="none" stroke="black" d="M365.131,-435.947C384.435,-425.947 410.791,-412.295 433.073,-400.754"/>
<polygon fill="black" stroke="black" points="434.752,-403.826 442.021,-396.119 431.532,-397.61 434.752,-403.826"/>
</g>
<!-- node156&#45;&gt;node151 -->
<g id="edge60" class="edge"><title>node156&#45;&gt;node151</title>
<path fill="none" stroke="black" d="M437.066,-359.838C421.814,-351.04 405.568,-339.074 395,-324 347.782,-256.652 400.619,-210.343 352,-144 338.639,-125.769 317.096,-112.527 298.436,-103.72"/>
<polygon fill="black" stroke="black" points="299.837,-100.512 289.279,-99.6329 296.984,-106.905 299.837,-100.512"/>
</g>
<!-- node191 -->
<g id="node48" class="node"><title>node191</title>
<ellipse fill="none" stroke="black" cx="541" cy="-306" rx="137.138" ry="18"/>
<text text-anchor="middle" x="541" y="-302.7" font-family="Times Roman,serif" font-size="12.00">/usr/lib/x86_64&#45;linux&#45;gnu/libssl.so</text>
</g>
<!-- node156&#45;&gt;node191 -->
<g id="edge62" class="edge"><title>node156&#45;&gt;node191</title>
<path fill="none" stroke="black" d="M493.15,-359.831C500.787,-351.239 510.036,-340.834 518.359,-331.471"/>
<polygon fill="black" stroke="black" points="521.049,-333.713 525.077,-323.913 515.817,-329.062 521.049,-333.713"/>
</g>
<!-- node192 -->
<g id="node50" class="node"><title>node192</title>
<ellipse fill="none" stroke="black" cx="847" cy="-306" rx="150.937" ry="18"/>
<text text-anchor="middle" x="847" y="-302.7" font-family="Times Roman,serif" font-size="12.00">/usr/lib/x86_64&#45;linux&#45;gnu/libcrypto.so</text>
</g>
<!-- node156&#45;&gt;node192 -->
<g id="edge64" class="edge"><title>node156&#45;&gt;node192</title>
<path fill="none" stroke="black" d="M524.237,-368.808C582.941,-357.384 684.341,-337.652 757.849,-323.348"/>
<polygon fill="black" stroke="black" points="758.881,-326.713 768.029,-321.367 757.544,-319.842 758.881,-326.713"/>
</g>
</g>
</svg>
