<?xml version="1.0" encoding="UTF-8" standalone="no"?>
<!DOCTYPE svg PUBLIC "-//W3C//DTD SVG 1.1//EN"
 "http://www.w3.org/Graphics/SVG/1.1/DTD/svg11.dtd">
<!-- Generated by graphviz version 2.26.3 (20100126.1600)
 -->
<!-- Title: GG Pages: 1 -->
<svg width="3344pt" height="908pt"
 viewBox="0.00 0.00 3343.90 908.00" xmlns="http://www.w3.org/2000/svg" xmlns:xlink="http://www.w3.org/1999/xlink">
<g id="graph1" class="graph" transform="scale(1 1) rotate(0) translate(4 904)">
<title>GG</title>
<polygon fill="white" stroke="white" points="-4,5 -4,-904 3340.9,-904 3340.9,5 -4,5"/>
<!-- node167 -->
<g id="node1" class="node"><title>node167</title>
<polygon fill="none" stroke="black" points="1214.25,-887.562 1132,-900 1049.75,-887.562 1049.83,-867.438 1214.17,-867.438 1214.25,-887.562"/>
<text text-anchor="middle" x="1132" y="-878.7" font-family="Times Roman,serif" font-size="12.00">thormaster_lcr</text>
</g>
<!-- node151 -->
<g id="node2" class="node"><title>node151</title>
<polygon fill="none" stroke="black" points="1155,-108 1101,-108 1101,-72 1155,-72 1155,-108"/>
<text text-anchor="middle" x="1128" y="-86.7" font-family="Times Roman,serif" font-size="12.00">jlib</text>
</g>
<!-- node167&#45;&gt;node151 -->
<g id="edge2" class="edge"><title>node167&#45;&gt;node151</title>
<path fill="none" stroke="black" d="M1049.73,-880.923C820.163,-877.467 183.695,-864.659 97,-828 42.834,-805.096 0,-796.81 0,-738 0,-738 0,-738 0,-234 0,-189.669 6.09975,-168.568 43,-144 87.5152,-114.362 905.087,-94.8483 1090.72,-90.7883"/>
<polygon fill="black" stroke="black" points="1090.89,-94.2857 1100.81,-90.5694 1090.74,-87.2873 1090.89,-94.2857"/>
</g>
<!-- node150 -->
<g id="node12" class="node"><title>node150</title>
<polygon fill="none" stroke="black" points="2153,-540 2099,-540 2099,-504 2153,-504 2153,-540"/>
<text text-anchor="middle" x="2126" y="-518.7" font-family="Times Roman,serif" font-size="12.00">jhtree</text>
</g>
<!-- node167&#45;&gt;node150 -->
<g id="edge12" class="edge"><title>node167&#45;&gt;node150</title>
<path fill="none" stroke="black" d="M1214.14,-880.046C1362.04,-875.698 1667.06,-862.714 1767,-828 1928.05,-772.063 1975.57,-743.562 2084,-612 2099.25,-593.503 2110.32,-568.555 2117.25,-549.617"/>
<polygon fill="black" stroke="black" points="2120.6,-550.656 2120.59,-540.061 2113.99,-548.347 2120.6,-550.656"/>
</g>
<!-- node59 -->
<g id="node15" class="node"><title>node59</title>
<polygon fill="none" stroke="black" points="976,-252 918,-252 918,-216 976,-216 976,-252"/>
<text text-anchor="middle" x="947" y="-230.7" font-family="Times Roman,serif" font-size="12.00">remote</text>
</g>
<!-- node167&#45;&gt;node59 -->
<g id="edge16" class="edge"><title>node167&#45;&gt;node59</title>
<path fill="none" stroke="black" d="M1049.83,-879.336C885.506,-871.766 532,-843.25 532,-738 532,-738 532,-738 532,-666 532,-486.693 536.342,-404.085 673,-288 707.9,-258.354 840.476,-243.057 907.583,-237.075"/>
<polygon fill="black" stroke="black" points="908.105,-240.543 917.766,-236.194 907.502,-233.569 908.105,-240.543"/>
</g>
<!-- node66 -->
<g id="node21" class="node"><title>node66</title>
<polygon fill="none" stroke="black" points="744,-324 682,-324 682,-288 744,-288 744,-324"/>
<text text-anchor="middle" x="713" y="-302.7" font-family="Times Roman,serif" font-size="12.00">dalibase</text>
</g>
<!-- node167&#45;&gt;node66 -->
<g id="edge24" class="edge"><title>node167&#45;&gt;node66</title>
<path fill="none" stroke="black" d="M1049.96,-880.558C832.513,-876.288 252.557,-861.835 173,-828 118.881,-804.984 76,-796.81 76,-738 76,-738 76,-738 76,-666 76,-391.19 530.902,-323.756 671.864,-309.457"/>
<polygon fill="black" stroke="black" points="672.233,-312.938 681.845,-308.481 671.552,-305.971 672.233,-312.938"/>
</g>
<!-- node55 -->
<g id="node30" class="node"><title>node55</title>
<polygon fill="none" stroke="black" points="843,-396 753,-396 753,-360 843,-360 843,-396"/>
<text text-anchor="middle" x="798" y="-374.7" font-family="Times Roman,serif" font-size="12.00">environment</text>
</g>
<!-- node167&#45;&gt;node55 -->
<g id="edge38" class="edge"><title>node167&#45;&gt;node55</title>
<path fill="none" stroke="black" d="M1065.76,-867.358C1041.1,-859.175 1014.42,-846.714 995,-828 867.13,-704.798 816.946,-484.336 802.665,-406.314"/>
<polygon fill="black" stroke="black" points="806.077,-405.51 800.883,-396.275 799.184,-406.733 806.077,-405.51"/>
</g>
<!-- node54 -->
<g id="node36" class="node"><title>node54</title>
<polygon fill="none" stroke="black" points="1340,-468 1274,-468 1274,-432 1340,-432 1340,-468"/>
<text text-anchor="middle" x="1307" y="-446.7" font-family="Times Roman,serif" font-size="12.00">dllserver</text>
</g>
<!-- node167&#45;&gt;node54 -->
<g id="edge48" class="edge"><title>node167&#45;&gt;node54</title>
<path fill="none" stroke="black" d="M1096.75,-867.345C1051.84,-846.048 980,-801.977 980,-738 980,-738 980,-738 980,-666 980,-531.507 1174.97,-475.928 1263.81,-457.584"/>
<polygon fill="black" stroke="black" points="1264.73,-460.97 1273.85,-455.577 1263.35,-454.106 1264.73,-460.97"/>
</g>
<!-- node146 -->
<g id="node43" class="node"><title>node146</title>
<polygon fill="none" stroke="black" points="2083,-396 2029,-396 2029,-360 2083,-360 2083,-396"/>
<text text-anchor="middle" x="2056" y="-374.7" font-family="Times Roman,serif" font-size="12.00">eclrtl</text>
</g>
<!-- node167&#45;&gt;node146 -->
<g id="edge86" class="edge"><title>node167&#45;&gt;node146</title>
<path fill="none" stroke="black" d="M1214.13,-881.316C1458.2,-878.843 2176.47,-868.249 2407,-828 2525.39,-807.329 2662,-858.185 2662,-738 2662,-738 2662,-738 2662,-594 2662,-523.727 2592.37,-539.973 2532,-504 2471.21,-467.777 2457.28,-453.908 2390,-432 2285.72,-398.047 2155.9,-384.896 2093.25,-380.265"/>
<polygon fill="black" stroke="black" points="2093.29,-376.759 2083.07,-379.544 2092.8,-383.742 2093.29,-376.759"/>
</g>
<!-- node147 -->
<g id="node54" class="node"><title>node147</title>
<polygon fill="none" stroke="black" points="2349,-324 2295,-324 2295,-288 2349,-288 2349,-324"/>
<text text-anchor="middle" x="2322" y="-302.7" font-family="Times Roman,serif" font-size="12.00">nbcd</text>
</g>
<!-- node167&#45;&gt;node147 -->
<g id="edge84" class="edge"><title>node167&#45;&gt;node147</title>
<path fill="none" stroke="black" d="M1214.25,-880.805C1605,-874.598 3255,-842.218 3255,-738 3255,-738 3255,-738 3255,-522 3255,-422.659 3190.88,-402.31 3101,-360 3033.47,-328.209 2505.57,-311.151 2359.4,-307.006"/>
<polygon fill="black" stroke="black" points="2359.25,-303.5 2349.16,-306.719 2359.06,-310.498 2359.25,-303.5"/>
</g>
<!-- node53 -->
<g id="node66" class="node"><title>node53</title>
<polygon fill="none" stroke="black" points="2349,-468 2289,-468 2289,-432 2349,-432 2349,-468"/>
<text text-anchor="middle" x="2319" y="-446.7" font-family="Times Roman,serif" font-size="12.00">deftype</text>
</g>
<!-- node167&#45;&gt;node53 -->
<g id="edge88" class="edge"><title>node167&#45;&gt;node53</title>
<path fill="none" stroke="black" d="M1214.24,-880.95C1390.49,-877.995 1817.49,-867.062 2173,-828 2376.17,-805.676 2624,-942.397 2624,-738 2624,-738 2624,-738 2624,-666 2624,-537.532 2441.56,-478.578 2358.88,-458.457"/>
<polygon fill="black" stroke="black" points="2359.62,-455.034 2349.08,-456.14 2358.01,-461.846 2359.62,-455.034"/>
</g>
<!-- node64 -->
<g id="node71" class="node"><title>node64</title>
<polygon fill="none" stroke="black" points="1663,-540 1595,-540 1595,-504 1663,-504 1663,-540"/>
<text text-anchor="middle" x="1629" y="-518.7" font-family="Times Roman,serif" font-size="12.00">workunit</text>
</g>
<!-- node167&#45;&gt;node64 -->
<g id="edge96" class="edge"><title>node167&#45;&gt;node64</title>
<path fill="none" stroke="black" d="M1214.03,-877.506C1336.87,-869.992 1557.06,-853.176 1583,-828 1659.56,-753.708 1645.02,-610.552 1634.65,-550.068"/>
<polygon fill="black" stroke="black" points="1638.07,-549.317 1632.85,-540.1 1631.18,-550.563 1638.07,-549.317"/>
</g>
<!-- node52 -->
<g id="node79" class="node"><title>node52</title>
<polygon fill="none" stroke="black" points="344,-540 258,-540 258,-504 344,-504 344,-540"/>
<text text-anchor="middle" x="301" y="-518.7" font-family="Times Roman,serif" font-size="12.00">commonext</text>
</g>
<!-- node167&#45;&gt;node52 -->
<g id="edge110" class="edge"><title>node167&#45;&gt;node52</title>
<path fill="none" stroke="black" d="M1049.64,-878.028C820.116,-865.868 190,-824.598 190,-738 190,-738 190,-738 190,-666 190,-615.513 233.33,-571.902 265.846,-546.282"/>
<polygon fill="black" stroke="black" points="268.029,-549.018 273.846,-540.163 263.777,-543.458 268.029,-549.018"/>
</g>
<!-- node164 -->
<g id="node82" class="node"><title>node164</title>
<polygon fill="none" stroke="black" points="1798,-612 1728,-612 1728,-576 1798,-576 1798,-612"/>
<text text-anchor="middle" x="1763" y="-590.7" font-family="Times Roman,serif" font-size="12.00">graph_lcr</text>
</g>
<!-- node167&#45;&gt;node164 -->
<g id="edge114" class="edge"><title>node167&#45;&gt;node164</title>
<path fill="none" stroke="black" d="M1214.06,-880.42C1352.66,-876.756 1626.67,-864.941 1715,-828 1806.66,-789.663 1844.09,-774.086 1886,-684 1892.75,-669.493 1894.75,-661.396 1886,-648 1868.79,-621.654 1835.56,-608.079 1807.96,-601.131"/>
<polygon fill="black" stroke="black" points="1808.63,-597.692 1798.1,-598.86 1807.06,-604.514 1808.63,-597.692"/>
</g>
<!-- node63 -->
<g id="node95" class="node"><title>node63</title>
<polygon fill="none" stroke="black" points="2462,-540 2386,-540 2386,-504 2462,-504 2462,-540"/>
<text text-anchor="middle" x="2424" y="-518.7" font-family="Times Roman,serif" font-size="12.00">thorhelper</text>
</g>
<!-- node167&#45;&gt;node63 -->
<g id="edge172" class="edge"><title>node167&#45;&gt;node63</title>
<path fill="none" stroke="black" d="M1214.25,-877.98C1516.46,-862.675 2548,-805.49 2548,-738 2548,-738 2548,-738 2548,-666 2548,-613.466 2500.02,-570.572 2463.76,-545.651"/>
<polygon fill="black" stroke="black" points="2465.55,-542.642 2455.29,-540.009 2461.67,-548.467 2465.55,-542.642"/>
</g>
<!-- node169 -->
<g id="node108" class="node"><title>node169</title>
<polygon fill="none" stroke="black" points="504,-684 418,-684 418,-648 504,-648 504,-684"/>
<text text-anchor="middle" x="461" y="-662.7" font-family="Times Roman,serif" font-size="12.00">thorsort_lcr</text>
</g>
<!-- node167&#45;&gt;node169 -->
<g id="edge156" class="edge"><title>node167&#45;&gt;node169</title>
<path fill="none" stroke="black" d="M1049.84,-879.672C892.176,-874.501 559.103,-859.906 518,-828 476.629,-795.885 465.196,-731.568 462.094,-694.362"/>
<polygon fill="black" stroke="black" points="465.573,-693.931 461.398,-684.193 458.589,-694.409 465.573,-693.931"/>
</g>
<!-- node171 -->
<g id="node118" class="node"><title>node171</title>
<polygon fill="none" stroke="black" points="1877,-684 1769,-684 1769,-648 1877,-648 1877,-684"/>
<text text-anchor="middle" x="1823" y="-662.7" font-family="Times Roman,serif" font-size="12.00">thorcodectx_lcr</text>
</g>
<!-- node167&#45;&gt;node171 -->
<g id="edge174" class="edge"><title>node167&#45;&gt;node171</title>
<path fill="none" stroke="black" d="M1214.08,-877.108C1355.95,-868.172 1635.76,-848.26 1676,-828 1736.67,-797.456 1784.31,-730.524 1807.52,-692.953"/>
<polygon fill="black" stroke="black" points="1810.71,-694.442 1812.89,-684.074 1804.72,-690.821 1810.71,-694.442"/>
</g>
<!-- node78 -->
<g id="node131" class="node"><title>node78</title>
<polygon fill="none" stroke="black" points="408,-468 354,-468 354,-432 408,-432 408,-468"/>
<text text-anchor="middle" x="381" y="-446.7" font-family="Times Roman,serif" font-size="12.00">dalift</text>
</g>
<!-- node167&#45;&gt;node78 -->
<g id="edge198" class="edge"><title>node167&#45;&gt;node78</title>
<path fill="none" stroke="black" d="M1049.69,-879.235C850.786,-872.2 355.108,-852.436 284,-828 216.849,-804.924 152,-809.005 152,-738 152,-738 152,-738 152,-666 152,-586.089 170.6,-557.454 230,-504 261.933,-475.264 310.229,-461.55 343.561,-455.19"/>
<polygon fill="black" stroke="black" points="344.582,-458.564 353.818,-453.374 343.361,-451.671 344.582,-458.564"/>
</g>
<!-- node168 -->
<g id="node139" class="node"><title>node168</title>
<polygon fill="none" stroke="black" points="1218,-684 1102,-684 1102,-648 1218,-648 1218,-684"/>
<text text-anchor="middle" x="1160" y="-662.7" font-family="Times Roman,serif" font-size="12.00">mfilemanager_lcr</text>
</g>
<!-- node167&#45;&gt;node168 -->
<g id="edge212" class="edge"><title>node167&#45;&gt;node168</title>
<path fill="none" stroke="black" d="M1133.92,-867.153C1138.54,-831.518 1150.32,-740.665 1156.34,-694.239"/>
<polygon fill="black" stroke="black" points="1159.82,-694.613 1157.63,-684.246 1152.88,-693.713 1159.82,-694.613"/>
</g>
<!-- node165 -->
<g id="node154" class="node"><title>node165</title>
<polygon fill="none" stroke="black" points="1393,-756 1281,-756 1281,-720 1393,-720 1393,-756"/>
<text text-anchor="middle" x="1337" y="-734.7" font-family="Times Roman,serif" font-size="12.00">graphmaster_lcr</text>
</g>
<!-- node167&#45;&gt;node165 -->
<g id="edge240" class="edge"><title>node167&#45;&gt;node165</title>
<path fill="none" stroke="black" d="M1152.78,-867.4C1188.12,-842.583 1260.2,-791.946 1302.97,-761.902"/>
<polygon fill="black" stroke="black" points="1305.2,-764.613 1311.37,-756 1301.18,-758.884 1305.2,-764.613"/>
</g>
<!-- node162 -->
<g id="node172" class="node"><title>node162</title>
<polygon fill="none" stroke="black" points="1574,-828 1450,-828 1450,-792 1574,-792 1574,-828"/>
<text text-anchor="middle" x="1512" y="-806.7" font-family="Times Roman,serif" font-size="12.00">activitymasters_lcr</text>
</g>
<!-- node167&#45;&gt;node162 -->
<g id="edge274" class="edge"><title>node167&#45;&gt;node162</title>
<path fill="none" stroke="black" d="M1208.9,-867.43C1276.46,-854.63 1374.01,-836.146 1440.05,-823.634"/>
<polygon fill="black" stroke="black" points="1440.78,-827.056 1449.96,-821.755 1439.48,-820.178 1440.78,-827.056"/>
</g>
<!-- node45 -->
<g id="node192" class="node"><title>node45</title>
<polygon fill="none" stroke="black" points="800,-612 712,-612 712,-576 800,-576 800,-612"/>
<text text-anchor="middle" x="756" y="-590.7" font-family="Times Roman,serif" font-size="12.00">swapnodelib</text>
</g>
<!-- node167&#45;&gt;node45 -->
<g id="edge312" class="edge"><title>node167&#45;&gt;node45</title>
<path fill="none" stroke="black" d="M1049.83,-874.874C950.564,-865.455 794.484,-847.731 776,-828 723.282,-771.724 737.541,-670.887 748.588,-622.043"/>
<polygon fill="black" stroke="black" points="752.028,-622.708 750.941,-612.169 745.218,-621.086 752.028,-622.708"/>
</g>
<!-- node152 -->
<g id="node4" class="node"><title>node152</title>
<polygon fill="none" stroke="black" points="1006,-36 966.056,-18 1006,-3.55271e-15 1045.94,-18 1006,-36"/>
<text text-anchor="middle" x="1006" y="-14.7" font-family="Times Roman,serif" font-size="12.00">lzma</text>
</g>
<!-- node151&#45;&gt;node152 -->
<g id="edge4" class="edge"><title>node151&#45;&gt;node152</title>
<path fill="none" stroke="black" d="M1100.92,-74.0209C1080.47,-61.9494 1052.55,-45.4743 1032.29,-33.5172"/>
<polygon fill="black" stroke="black" points="1033.97,-30.4417 1023.58,-28.3733 1030.41,-36.4701 1033.97,-30.4417"/>
</g>
<!-- node187 -->
<g id="node6" class="node"><title>node187</title>
<ellipse fill="none" stroke="black" cx="1091" cy="-18" rx="27" ry="18"/>
<text text-anchor="middle" x="1091" y="-14.7" font-family="Times Roman,serif" font-size="12.00">dl</text>
</g>
<!-- node151&#45;&gt;node187 -->
<g id="edge6" class="edge"><title>node151&#45;&gt;node187</title>
<path fill="none" stroke="black" d="M1118.66,-71.8314C1114.41,-63.5451 1109.28,-53.5727 1104.61,-44.4748"/>
<polygon fill="black" stroke="black" points="1107.63,-42.7123 1099.95,-35.4177 1101.41,-45.9118 1107.63,-42.7123"/>
</g>
<!-- node179 -->
<g id="node8" class="node"><title>node179</title>
<ellipse fill="none" stroke="black" cx="1166" cy="-18" rx="30.0465" ry="18"/>
<text text-anchor="middle" x="1166" y="-14.7" font-family="Times Roman,serif" font-size="12.00">crypt</text>
</g>
<!-- node151&#45;&gt;node179 -->
<g id="edge8" class="edge"><title>node151&#45;&gt;node179</title>
<path fill="none" stroke="black" d="M1137.59,-71.8314C1141.96,-63.5451 1147.23,-53.5727 1152.03,-44.4748"/>
<polygon fill="black" stroke="black" points="1155.24,-45.8952 1156.81,-35.4177 1149.04,-42.6279 1155.24,-45.8952"/>
</g>
<!-- node188 -->
<g id="node10" class="node"><title>node188</title>
<ellipse fill="none" stroke="black" cx="1241" cy="-18" rx="27" ry="18"/>
<text text-anchor="middle" x="1241" y="-14.7" font-family="Times Roman,serif" font-size="12.00">rt</text>
</g>
<!-- node151&#45;&gt;node188 -->
<g id="edge10" class="edge"><title>node151&#45;&gt;node188</title>
<path fill="none" stroke="black" d="M1155.07,-72.7542C1172.41,-61.7009 1194.9,-47.375 1212.52,-36.1494"/>
<polygon fill="black" stroke="black" points="1214.68,-38.9209 1221.23,-30.5955 1210.92,-33.0174 1214.68,-38.9209"/>
</g>
<!-- node150&#45;&gt;node151 -->
<g id="edge14" class="edge"><title>node150&#45;&gt;node151</title>
<path fill="none" stroke="black" d="M2142.24,-503.831C2193.81,-443.968 2344.64,-250.686 2243,-144 2204.99,-104.107 1354.35,-92.4748 1165.09,-90.3766"/>
<polygon fill="black" stroke="black" points="1165.11,-86.8767 1155.08,-90.2676 1165.04,-93.8763 1165.11,-86.8767"/>
</g>
<!-- node59&#45;&gt;node151 -->
<g id="edge18" class="edge"><title>node59&#45;&gt;node151</title>
<path fill="none" stroke="black" d="M969.924,-215.762C1002.16,-190.119 1060.96,-143.337 1097.05,-114.626"/>
<polygon fill="black" stroke="black" points="1099.62,-117.054 1105.26,-108.09 1095.26,-111.577 1099.62,-117.054"/>
</g>
<!-- node153 -->
<g id="node18" class="node"><title>node153</title>
<polygon fill="none" stroke="black" points="829,-180 775,-180 775,-144 829,-144 829,-180"/>
<text text-anchor="middle" x="802" y="-158.7" font-family="Times Roman,serif" font-size="12.00">mp</text>
</g>
<!-- node59&#45;&gt;node153 -->
<g id="edge20" class="edge"><title>node59&#45;&gt;node153</title>
<path fill="none" stroke="black" d="M917.657,-219.43C894.763,-208.062 862.842,-192.211 838.333,-180.041"/>
<polygon fill="black" stroke="black" points="839.85,-176.887 829.337,-175.574 836.737,-183.157 839.85,-176.887"/>
</g>
<!-- node153&#45;&gt;node151 -->
<g id="edge22" class="edge"><title>node153&#45;&gt;node151</title>
<path fill="none" stroke="black" d="M829.081,-152.792C838.49,-149.768 849.151,-146.536 859,-144 940.78,-122.944 1038.3,-105.154 1090.54,-96.2043"/>
<polygon fill="black" stroke="black" points="1091.4,-99.6085 1100.67,-94.4823 1090.23,-92.7074 1091.4,-99.6085"/>
</g>
<!-- node66&#45;&gt;node151 -->
<g id="edge26" class="edge"><title>node66&#45;&gt;node151</title>
<path fill="none" stroke="black" d="M744.094,-288.34C798.072,-257.867 912.846,-193.882 1012,-144 1038.22,-130.81 1068.27,-116.851 1091.22,-106.43"/>
<polygon fill="black" stroke="black" points="1092.92,-109.503 1100.59,-102.193 1090.03,-103.125 1092.92,-109.503"/>
</g>
<!-- node66&#45;&gt;node59 -->
<g id="edge36" class="edge"><title>node66&#45;&gt;node59</title>
<path fill="none" stroke="black" d="M744.309,-292.973C748.873,-291.221 753.537,-289.511 758,-288 814.383,-268.919 829.824,-268.553 887,-252 893.738,-250.049 900.889,-247.939 907.818,-245.873"/>
<polygon fill="black" stroke="black" points="909.161,-249.125 917.737,-242.902 907.153,-242.419 909.161,-249.125"/>
</g>
<!-- node66&#45;&gt;node153 -->
<g id="edge28" class="edge"><title>node66&#45;&gt;node153</title>
<path fill="none" stroke="black" d="M727.35,-287.954C735.278,-277.667 745.091,-264.392 753,-252 766.002,-231.628 779.003,-207.534 788.342,-189.405"/>
<polygon fill="black" stroke="black" points="791.709,-190.507 793.131,-180.008 785.472,-187.329 791.709,-190.507"/>
</g>
<!-- node149 -->
<g id="node25" class="node"><title>node149</title>
<polygon fill="none" stroke="black" points="744,-252 690,-252 690,-216 744,-216 744,-252"/>
<text text-anchor="middle" x="717" y="-230.7" font-family="Times Roman,serif" font-size="12.00">hrpc</text>
</g>
<!-- node66&#45;&gt;node149 -->
<g id="edge30" class="edge"><title>node66&#45;&gt;node149</title>
<path fill="none" stroke="black" d="M714.009,-287.831C714.437,-280.131 714.946,-270.974 715.421,-262.417"/>
<polygon fill="black" stroke="black" points="718.917,-262.592 715.977,-252.413 711.928,-262.204 718.917,-262.592"/>
</g>
<!-- node149&#45;&gt;node151 -->
<g id="edge32" class="edge"><title>node149&#45;&gt;node151</title>
<path fill="none" stroke="black" d="M721.593,-215.851C727.897,-194.932 741.359,-161.228 766,-144 817.957,-107.674 1008.85,-95.1693 1090.53,-91.4204"/>
<polygon fill="black" stroke="black" points="1091.01,-94.9028 1100.84,-90.9671 1090.7,-87.9095 1091.01,-94.9028"/>
</g>
<!-- node149&#45;&gt;node153 -->
<g id="edge34" class="edge"><title>node149&#45;&gt;node153</title>
<path fill="none" stroke="black" d="M738.449,-215.831C748.818,-207.048 761.423,-196.371 772.665,-186.849"/>
<polygon fill="black" stroke="black" points="775.19,-189.297 780.558,-180.163 770.665,-183.956 775.19,-189.297"/>
</g>
<!-- node55&#45;&gt;node151 -->
<g id="edge40" class="edge"><title>node55&#45;&gt;node151</title>
<path fill="none" stroke="black" d="M829.312,-359.917C846.562,-349.728 868.222,-336.56 887,-324 931.925,-293.953 944.635,-287.941 985,-252 1017.65,-222.932 1023,-212.708 1052,-180 1070.82,-158.768 1091.57,-134.113 1106.62,-115.983"/>
<polygon fill="black" stroke="black" points="1109.43,-118.082 1113.11,-108.147 1104.04,-113.617 1109.43,-118.082"/>
</g>
<!-- node55&#45;&gt;node59 -->
<g id="edge44" class="edge"><title>node55&#45;&gt;node59</title>
<path fill="none" stroke="black" d="M816.871,-359.762C843.181,-334.335 890.995,-288.125 920.763,-259.357"/>
<polygon fill="black" stroke="black" points="923.524,-261.556 928.282,-252.09 918.659,-256.522 923.524,-261.556"/>
</g>
<!-- node55&#45;&gt;node153 -->
<g id="edge42" class="edge"><title>node55&#45;&gt;node153</title>
<path fill="none" stroke="black" d="M798.334,-359.955C799.03,-322.394 800.638,-235.554 801.474,-190.41"/>
<polygon fill="black" stroke="black" points="804.978,-190.208 801.664,-180.145 797.979,-190.079 804.978,-190.208"/>
</g>
<!-- node55&#45;&gt;node66 -->
<g id="edge46" class="edge"><title>node55&#45;&gt;node66</title>
<path fill="none" stroke="black" d="M776.551,-359.831C766.182,-351.048 753.577,-340.371 742.335,-330.849"/>
<polygon fill="black" stroke="black" points="744.335,-327.956 734.442,-324.163 739.81,-333.297 744.335,-327.956"/>
</g>
<!-- node54&#45;&gt;node151 -->
<g id="edge52" class="edge"><title>node54&#45;&gt;node151</title>
<path fill="none" stroke="black" d="M1340.26,-446.37C1449.61,-434.428 1791.05,-397.06 1792,-396 1802.67,-384.077 1802.86,-371.748 1792,-360 1722.54,-284.878 1424.46,-369.863 1333,-324 1239.83,-277.277 1170.63,-168.016 1142.21,-117.059"/>
<polygon fill="black" stroke="black" points="1145.26,-115.338 1137.38,-108.251 1139.12,-118.703 1145.26,-115.338"/>
</g>
<!-- node54&#45;&gt;node59 -->
<g id="edge74" class="edge"><title>node54&#45;&gt;node59</title>
<path fill="none" stroke="black" d="M1273.78,-436.765C1269.18,-435.082 1264.49,-433.445 1260,-432 1200.07,-412.713 1178.23,-426.209 1123,-396 1089.11,-377.466 1011.55,-300.337 971.673,-259.549"/>
<polygon fill="black" stroke="black" points="973.94,-256.86 964.454,-252.141 968.927,-261.745 973.94,-256.86"/>
</g>
<!-- node54&#45;&gt;node153 -->
<g id="edge54" class="edge"><title>node54&#45;&gt;node153</title>
<path fill="none" stroke="black" d="M1273.93,-437.179C1269.26,-435.415 1264.52,-433.646 1260,-432 1214.04,-415.251 1197.12,-422.483 1156,-396 1109.61,-366.128 1032.07,-244.79 985,-216 939.282,-188.034 878.259,-173.848 839.536,-167.195"/>
<polygon fill="black" stroke="black" points="839.67,-163.67 829.236,-165.513 838.542,-170.579 839.67,-163.67"/>
</g>
<!-- node54&#45;&gt;node66 -->
<g id="edge76" class="edge"><title>node54&#45;&gt;node66</title>
<path fill="none" stroke="black" d="M1273.91,-442.946C1258.19,-439.606 1239.13,-435.575 1222,-432 1144.27,-415.775 1124.08,-415.085 1047,-396 991.295,-382.207 978.351,-375.148 923,-360 864.466,-343.982 796.378,-326.724 753.979,-316.14"/>
<polygon fill="black" stroke="black" points="754.585,-312.684 744.035,-313.662 752.892,-319.476 754.585,-312.684"/>
</g>
<!-- node54&#45;&gt;node149 -->
<g id="edge56" class="edge"><title>node54&#45;&gt;node149</title>
<path fill="none" stroke="black" d="M1273.8,-442.685C1214.24,-429.502 1093.69,-402.519 1075,-396 1039.71,-383.693 1032.95,-375.624 999,-360 911.41,-319.693 807.742,-273.847 753.793,-250.128"/>
<polygon fill="black" stroke="black" points="754.877,-246.782 744.313,-245.963 752.061,-253.19 754.877,-246.782"/>
</g>
<!-- node54&#45;&gt;node55 -->
<g id="edge78" class="edge"><title>node54&#45;&gt;node55</title>
<path fill="none" stroke="black" d="M1273.86,-445.092C1249.11,-441.441 1214.44,-436.357 1184,-432 1066.29,-415.153 928.29,-395.989 853.327,-385.628"/>
<polygon fill="black" stroke="black" points="853.562,-382.127 843.177,-384.226 852.604,-389.062 853.562,-382.127"/>
</g>
<!-- node176 -->
<g id="node38" class="node"><title>node176</title>
<ellipse fill="none" stroke="black" cx="1296" cy="-378" rx="130.789" ry="18"/>
<text text-anchor="middle" x="1296" y="-374.7" font-family="Times Roman,serif" font-size="12.00">/usr/lib/x86_64&#45;linux&#45;gnu/libz.so</text>
</g>
<!-- node54&#45;&gt;node176 -->
<g id="edge50" class="edge"><title>node54&#45;&gt;node176</title>
<path fill="none" stroke="black" d="M1304.22,-431.831C1303.05,-424.131 1301.65,-414.974 1300.34,-406.417"/>
<polygon fill="black" stroke="black" points="1303.78,-405.77 1298.81,-396.413 1296.86,-406.827 1303.78,-405.77"/>
</g>
<!-- node54&#45;&gt;node146 -->
<g id="edge58" class="edge"><title>node54&#45;&gt;node146</title>
<path fill="none" stroke="black" d="M1340.11,-446.753C1378.19,-443.048 1442.59,-436.872 1498,-432 1693.9,-414.774 1743.69,-418.966 1939,-396 1965.73,-392.857 1995.72,-388.22 2018.65,-384.44"/>
<polygon fill="black" stroke="black" points="2019.36,-387.869 2028.65,-382.771 2018.21,-380.965 2019.36,-387.869"/>
</g>
<!-- node177 -->
<g id="node60" class="node"><title>node177</title>
<ellipse fill="none" stroke="black" cx="1516" cy="-378" rx="70.8437" ry="18"/>
<text text-anchor="middle" x="1516" y="-374.7" font-family="Times Roman,serif" font-size="12.00">/usr/lib/libbfd.so</text>
</g>
<!-- node54&#45;&gt;node177 -->
<g id="edge80" class="edge"><title>node54&#45;&gt;node177</title>
<path fill="none" stroke="black" d="M1340.12,-438.591C1373.44,-427.113 1425.3,-409.246 1464.09,-395.884"/>
<polygon fill="black" stroke="black" points="1465.33,-399.156 1473.65,-392.59 1463.05,-392.538 1465.33,-399.156"/>
</g>
<!-- node178 -->
<g id="node62" class="node"><title>node178</title>
<ellipse fill="none" stroke="black" cx="1694" cy="-378" rx="89.0421" ry="18"/>
<text text-anchor="middle" x="1694" y="-374.7" font-family="Times Roman,serif" font-size="12.00">/usr/lib/libiberty_pic.a</text>
</g>
<!-- node54&#45;&gt;node178 -->
<g id="edge82" class="edge"><title>node54&#45;&gt;node178</title>
<path fill="none" stroke="black" d="M1340.33,-443.799C1401.73,-432.376 1534.11,-407.746 1618.36,-392.073"/>
<polygon fill="black" stroke="black" points="1619.19,-395.478 1628.38,-390.208 1617.91,-388.596 1619.19,-395.478"/>
</g>
<!-- node146&#45;&gt;node151 -->
<g id="edge68" class="edge"><title>node146&#45;&gt;node151</title>
<path fill="none" stroke="black" d="M2083.13,-362.479C2084.77,-361.623 2086.4,-360.79 2088,-360 2124.42,-342.017 2149.64,-357.909 2172,-324 2180.81,-310.643 2182.21,-300.323 2172,-288 2039.89,-128.478 1336.31,-96.466 1165.42,-91.008"/>
<polygon fill="black" stroke="black" points="1165.5,-87.5089 1155.4,-90.6992 1165.28,-94.5056 1165.5,-87.5089"/>
</g>
<!-- node186 -->
<g id="node45" class="node"><title>node186</title>
<ellipse fill="none" stroke="black" cx="1870" cy="-306" rx="118.939" ry="18"/>
<text text-anchor="middle" x="1870" y="-302.7" font-family="Times Roman,serif" font-size="12.00">/usr/lib/libboost_regex&#45;mt.so</text>
</g>
<!-- node146&#45;&gt;node186 -->
<g id="edge60" class="edge"><title>node146&#45;&gt;node186</title>
<path fill="none" stroke="black" d="M2028.75,-365.775C2024.17,-363.8 2019.47,-361.811 2015,-360 1985.95,-348.227 1953.27,-335.969 1926.29,-326.113"/>
<polygon fill="black" stroke="black" points="1927.22,-322.727 1916.63,-322.596 1924.83,-329.305 1927.22,-322.727"/>
</g>
<!-- node183 -->
<g id="node47" class="node"><title>node183</title>
<ellipse fill="none" stroke="black" cx="2085" cy="-306" rx="77.9931" ry="18"/>
<text text-anchor="middle" x="2085" y="-302.7" font-family="Times Roman,serif" font-size="12.00">/usr/lib/libicuuc.so</text>
</g>
<!-- node146&#45;&gt;node183 -->
<g id="edge62" class="edge"><title>node146&#45;&gt;node183</title>
<path fill="none" stroke="black" d="M2063.32,-359.831C2066.49,-351.962 2070.27,-342.571 2073.78,-333.853"/>
<polygon fill="black" stroke="black" points="2077.09,-334.997 2077.58,-324.413 2070.6,-332.381 2077.09,-334.997"/>
</g>
<!-- node184 -->
<g id="node49" class="node"><title>node184</title>
<ellipse fill="none" stroke="black" cx="1460" cy="-306" rx="85.1424" ry="18"/>
<text text-anchor="middle" x="1460" y="-302.7" font-family="Times Roman,serif" font-size="12.00">/usr/lib/libicui18n.so</text>
</g>
<!-- node146&#45;&gt;node184 -->
<g id="edge64" class="edge"><title>node146&#45;&gt;node184</title>
<path fill="none" stroke="black" d="M2028.66,-364.499C2024.18,-362.727 2019.52,-361.135 2015,-360 1815.66,-309.99 1757.68,-351.368 1554,-324 1546.42,-322.981 1538.52,-321.746 1530.67,-320.406"/>
<polygon fill="black" stroke="black" points="1531.23,-316.951 1520.77,-318.66 1530.01,-323.844 1531.23,-316.951"/>
</g>
<!-- node185 -->
<g id="node51" class="node"><title>node185</title>
<ellipse fill="none" stroke="black" cx="1648" cy="-306" rx="85.1424" ry="18"/>
<text text-anchor="middle" x="1648" y="-302.7" font-family="Times Roman,serif" font-size="12.00">/usr/lib/libicudata.so</text>
</g>
<!-- node146&#45;&gt;node185 -->
<g id="edge66" class="edge"><title>node146&#45;&gt;node185</title>
<path fill="none" stroke="black" d="M2028.6,-364.71C2024.13,-362.91 2019.49,-361.255 2015,-360 1897.13,-327.073 1862.82,-343.517 1742,-324 1734.76,-322.83 1727.22,-321.528 1719.7,-320.175"/>
<polygon fill="black" stroke="black" points="1720.32,-316.73 1709.85,-318.373 1719.06,-323.616 1720.32,-316.73"/>
</g>
<!-- node146&#45;&gt;node147 -->
<g id="edge70" class="edge"><title>node146&#45;&gt;node147</title>
<path fill="none" stroke="black" d="M2083.08,-365.304C2087.67,-363.386 2092.43,-361.537 2097,-360 2161.82,-338.188 2239.93,-321.506 2284.99,-312.777"/>
<polygon fill="black" stroke="black" points="2285.73,-316.198 2294.89,-310.883 2284.41,-309.323 2285.73,-316.198"/>
</g>
<!-- node147&#45;&gt;node151 -->
<g id="edge72" class="edge"><title>node147&#45;&gt;node151</title>
<path fill="none" stroke="black" d="M2323.65,-287.831C2325.65,-253.509 2324.37,-179.419 2281,-144 2236.8,-107.902 1358.15,-93.2871 1165.24,-90.5068"/>
<polygon fill="black" stroke="black" points="1165.09,-87.0044 1155.04,-90.3617 1164.99,-94.0037 1165.09,-87.0044"/>
</g>
<!-- node53&#45;&gt;node151 -->
<g id="edge90" class="edge"><title>node53&#45;&gt;node151</title>
<path fill="none" stroke="black" d="M2331.59,-431.848C2348.64,-405.424 2377,-354.244 2377,-306 2377,-306 2377,-306 2377,-234 2377,-183.597 2352.68,-167.33 2308,-144 2256.18,-116.941 1360.25,-95.2384 1165.26,-90.8226"/>
<polygon fill="black" stroke="black" points="1165.3,-87.3226 1155.22,-90.5965 1165.14,-94.3209 1165.3,-87.3226"/>
</g>
<!-- node53&#45;&gt;node146 -->
<g id="edge94" class="edge"><title>node53&#45;&gt;node146</title>
<path fill="none" stroke="black" d="M2288.83,-441.741C2240.38,-428.478 2145.38,-402.469 2092.94,-388.114"/>
<polygon fill="black" stroke="black" points="2093.62,-384.67 2083.05,-385.406 2091.77,-391.422 2093.62,-384.67"/>
</g>
<!-- node53&#45;&gt;node147 -->
<g id="edge92" class="edge"><title>node53&#45;&gt;node147</title>
<path fill="none" stroke="black" d="M2319.38,-431.762C2319.89,-407.201 2320.81,-363.247 2321.41,-334.354"/>
<polygon fill="black" stroke="black" points="2324.91,-334.16 2321.62,-324.09 2317.92,-334.015 2324.91,-334.16"/>
</g>
<!-- node64&#45;&gt;node151 -->
<g id="edge98" class="edge"><title>node64&#45;&gt;node151</title>
<path fill="none" stroke="black" d="M1663.15,-509.587C1729.82,-483.604 1866.11,-420.84 1810,-360 1742.89,-287.23 1455.96,-365.301 1366,-324 1340.15,-312.133 1204.35,-163.872 1184,-144 1174.32,-134.544 1163.63,-124.216 1154.22,-115.149"/>
<polygon fill="black" stroke="black" points="1156.61,-112.597 1146.98,-108.187 1151.76,-117.642 1156.61,-112.597"/>
</g>
<!-- node64&#45;&gt;node66 -->
<g id="edge100" class="edge"><title>node64&#45;&gt;node66</title>
<path fill="none" stroke="black" d="M1642.89,-503.852C1658.68,-484.174 1686.03,-452.798 1715,-432 1745.69,-409.966 1771.72,-427.872 1792,-396 1800.59,-382.501 1803.03,-371.593 1792,-360 1782.88,-350.414 950.984,-315.751 754.328,-307.685"/>
<polygon fill="black" stroke="black" points="754.263,-304.18 744.128,-307.267 753.976,-311.174 754.263,-304.18"/>
</g>
<!-- node64&#45;&gt;node54 -->
<g id="edge102" class="edge"><title>node64&#45;&gt;node54</title>
<path fill="none" stroke="black" d="M1594.7,-512.065C1584.82,-509.324 1574.01,-506.436 1564,-504 1489.19,-485.802 1401.25,-468.116 1350.05,-458.184"/>
<polygon fill="black" stroke="black" points="1350.49,-454.705 1340.01,-456.244 1349.17,-461.578 1350.49,-454.705"/>
</g>
<!-- node64&#45;&gt;node146 -->
<g id="edge106" class="edge"><title>node64&#45;&gt;node146</title>
<path fill="none" stroke="black" d="M1663.16,-514.717C1722.39,-501.971 1839.5,-476.196 1857,-468 1881.15,-456.689 1881.35,-444.312 1905,-432 1950.63,-408.251 1966.95,-414.361 2015,-396 2016.41,-395.462 2017.84,-394.903 2019.28,-394.328"/>
<polygon fill="black" stroke="black" points="2020.91,-397.441 2028.81,-390.38 2018.23,-390.974 2020.91,-397.441"/>
</g>
<!-- node64&#45;&gt;node147 -->
<g id="edge104" class="edge"><title>node64&#45;&gt;node147</title>
<path fill="none" stroke="black" d="M1663.4,-516.714C1714.48,-508.485 1813.15,-491.125 1895,-468 1984.71,-442.656 2004.81,-428.987 2092,-396 2160.56,-370.061 2240.12,-338.63 2285.42,-320.61"/>
<polygon fill="black" stroke="black" points="2286.82,-323.818 2294.81,-316.867 2284.23,-317.315 2286.82,-323.818"/>
</g>
<!-- node64&#45;&gt;node53 -->
<g id="edge108" class="edge"><title>node64&#45;&gt;node53</title>
<path fill="none" stroke="black" d="M1663.22,-518.43C1778.82,-506.367 2154.54,-467.161 2278.74,-454.201"/>
<polygon fill="black" stroke="black" points="2279.36,-457.655 2288.94,-453.136 2278.63,-450.693 2279.36,-457.655"/>
</g>
<!-- node52&#45;&gt;node151 -->
<g id="edge112" class="edge"><title>node52&#45;&gt;node151</title>
<path fill="none" stroke="black" d="M257.969,-514.354C227.458,-507.003 187.255,-493.158 160,-468 127.425,-437.931 117,-422.331 117,-378 117,-378 117,-378 117,-234 117,-192.602 108.873,-170.109 141,-144 178.522,-113.507 915.088,-94.8486 1090.66,-90.8233"/>
<polygon fill="black" stroke="black" points="1090.79,-94.3214 1100.71,-90.595 1090.63,-87.3232 1090.79,-94.3214"/>
</g>
<!-- node164&#45;&gt;node151 -->
<g id="edge116" class="edge"><title>node164&#45;&gt;node151</title>
<path fill="none" stroke="black" d="M1798.17,-576.768C1816.68,-567.029 1839.34,-554.016 1858,-540 1876.34,-526.219 1876.12,-517.041 1895,-504 1926.08,-482.528 1938.65,-485.742 1972,-468 2026.91,-438.79 2040.3,-430.577 2092,-396 2145.63,-360.133 2215.43,-346.856 2189,-288 2124.94,-145.358 2021.78,-172.325 1868,-144 1730.77,-118.722 1295.78,-97.5526 1165.33,-91.643"/>
<polygon fill="black" stroke="black" points="1165.21,-88.1342 1155.07,-91.181 1164.9,-95.1271 1165.21,-88.1342"/>
</g>
<!-- node164&#45;&gt;node150 -->
<g id="edge118" class="edge"><title>node164&#45;&gt;node150</title>
<path fill="none" stroke="black" d="M1798.14,-587.031C1866.85,-573.402 2018.43,-543.337 2088.78,-529.383"/>
<polygon fill="black" stroke="black" points="2089.82,-532.744 2098.95,-527.365 2088.46,-525.878 2089.82,-532.744"/>
</g>
<!-- node164&#45;&gt;node59 -->
<g id="edge120" class="edge"><title>node164&#45;&gt;node59</title>
<path fill="none" stroke="black" d="M1761.17,-575.928C1758.9,-543.679 1758.65,-475.525 1791,-432 1812.34,-403.285 1844.19,-426.434 1863,-396 1871.41,-382.39 1873.97,-371.644 1863,-360 1816.74,-310.91 1323.47,-335.475 1257,-324 1157.29,-306.787 1044.02,-269.085 985.923,-248.358"/>
<polygon fill="black" stroke="black" points="987.001,-245.026 976.407,-244.938 984.634,-251.614 987.001,-245.026"/>
</g>
<!-- node164&#45;&gt;node66 -->
<g id="edge122" class="edge"><title>node164&#45;&gt;node66</title>
<path fill="none" stroke="black" d="M1727.96,-586.376C1646.18,-568.312 1436.64,-520.471 1265,-468 1219.83,-454.19 1210.81,-443.532 1165,-432 1059.55,-405.454 1020.77,-443.594 923,-396 902.082,-385.817 905.058,-371.787 885,-360 843.863,-335.826 790.724,-321.293 754.466,-313.492"/>
<polygon fill="black" stroke="black" points="754.752,-309.977 744.25,-311.376 753.332,-316.832 754.752,-309.977"/>
</g>
<!-- node164&#45;&gt;node55 -->
<g id="edge124" class="edge"><title>node164&#45;&gt;node55</title>
<path fill="none" stroke="black" d="M1727.81,-590.18C1665.58,-583.036 1532.26,-565.988 1422,-540 1318.57,-515.622 1293.78,-504.554 1194,-468 1155.09,-453.747 1147.8,-443.528 1108,-432 1015.78,-405.289 989.535,-412.759 895,-396 881.561,-393.618 867.09,-390.974 853.531,-388.463"/>
<polygon fill="black" stroke="black" points="853.844,-384.962 843.373,-386.575 852.565,-391.844 853.844,-384.962"/>
</g>
<!-- node164&#45;&gt;node54 -->
<g id="edge126" class="edge"><title>node164&#45;&gt;node54</title>
<path fill="none" stroke="black" d="M1750.25,-575.697C1734.49,-554.631 1705.59,-520.785 1672,-504 1616.24,-476.136 1434.28,-459.428 1350.25,-453.018"/>
<polygon fill="black" stroke="black" points="1350.5,-449.527 1340.27,-452.27 1349.98,-456.507 1350.5,-449.527"/>
</g>
<!-- node164&#45;&gt;node146 -->
<g id="edge130" class="edge"><title>node164&#45;&gt;node146</title>
<path fill="none" stroke="black" d="M1781.54,-575.778C1801.6,-556.602 1835.02,-526.18 1867,-504 1894.46,-484.959 1904.79,-485.905 1933,-468 1965.37,-447.453 2000.51,-421.329 2024.91,-402.526"/>
<polygon fill="black" stroke="black" points="2027.31,-405.094 2033.07,-396.201 2023.02,-399.561 2027.31,-405.094"/>
</g>
<!-- node164&#45;&gt;node147 -->
<g id="edge128" class="edge"><title>node164&#45;&gt;node147</title>
<path fill="none" stroke="black" d="M1798.26,-580.353C1834.38,-566.245 1886.45,-545.524 1895,-540 1914.54,-527.38 1912.95,-515.804 1933,-504 1978.79,-477.042 1998.47,-489.623 2047,-468 2137.91,-427.498 2236.62,-364.085 2287.44,-329.847"/>
<polygon fill="black" stroke="black" points="2289.45,-332.713 2295.77,-324.208 2285.52,-326.917 2289.45,-332.713"/>
</g>
<!-- node164&#45;&gt;node53 -->
<g id="edge132" class="edge"><title>node164&#45;&gt;node53</title>
<path fill="none" stroke="black" d="M1798.14,-583.832C1832.74,-573.59 1886.93,-556.923 1933,-540 1971.9,-525.714 1979.26,-515.74 2019,-504 2109.78,-477.181 2220.16,-461.477 2278.43,-454.448"/>
<polygon fill="black" stroke="black" points="2279.17,-457.886 2288.69,-453.236 2278.35,-450.934 2279.17,-457.886"/>
</g>
<!-- node164&#45;&gt;node64 -->
<g id="edge134" class="edge"><title>node164&#45;&gt;node64</title>
<path fill="none" stroke="black" d="M1729.19,-575.831C1711.73,-566.452 1690.25,-554.911 1671.66,-544.924"/>
<polygon fill="black" stroke="black" points="1673.27,-541.813 1662.8,-540.163 1669.96,-547.979 1673.27,-541.813"/>
</g>
<!-- node164&#45;&gt;node52 -->
<g id="edge136" class="edge"><title>node164&#45;&gt;node52</title>
<path fill="none" stroke="black" d="M1727.94,-592.274C1533.68,-582.707 589.551,-536.21 354.217,-524.621"/>
<polygon fill="black" stroke="black" points="354.356,-521.124 344.196,-524.127 354.012,-528.115 354.356,-521.124"/>
</g>
<!-- node164&#45;&gt;node63 -->
<g id="edge138" class="edge"><title>node164&#45;&gt;node63</title>
<path fill="none" stroke="black" d="M1798.07,-590.18C1908.4,-578.162 2248.6,-541.106 2375.56,-527.277"/>
<polygon fill="black" stroke="black" points="2376.19,-530.729 2385.75,-526.166 2375.43,-523.77 2376.19,-530.729"/>
</g>
<!-- node63&#45;&gt;node151 -->
<g id="edge140" class="edge"><title>node63&#45;&gt;node151</title>
<path fill="none" stroke="black" d="M2462.07,-517.161C2555.58,-505.236 2791.58,-474.902 2827,-468 2953.12,-443.424 3011.31,-481.749 3107,-396 3138.84,-367.465 3141,-348.759 3141,-306 3141,-306 3141,-306 3141,-234 3141,-183.056 3530.34,-232.872 2749,-144 2427.6,-107.443 1377.43,-93.0089 1165.48,-90.4336"/>
<polygon fill="black" stroke="black" points="1165.24,-86.9305 1155.2,-90.31 1165.15,-93.93 1165.24,-86.9305"/>
</g>
<!-- node63&#45;&gt;node146 -->
<g id="edge144" class="edge"><title>node63&#45;&gt;node146</title>
<path fill="none" stroke="black" d="M2415.94,-503.884C2405.65,-482.998 2385.79,-449.324 2358,-432 2314.26,-404.728 2164.01,-387.825 2093.32,-381.203"/>
<polygon fill="black" stroke="black" points="2093.37,-377.692 2083.09,-380.264 2092.73,-384.663 2093.37,-377.692"/>
</g>
<!-- node63&#45;&gt;node147 -->
<g id="edge142" class="edge"><title>node63&#45;&gt;node147</title>
<path fill="none" stroke="black" d="M2417.92,-503.781C2411.6,-485.391 2401.09,-456.313 2390,-432 2374.08,-397.108 2352.65,-358.506 2338.13,-333.341"/>
<polygon fill="black" stroke="black" points="2340.98,-331.279 2332.93,-324.389 2334.93,-334.794 2340.98,-331.279"/>
</g>
<!-- node63&#45;&gt;node53 -->
<g id="edge146" class="edge"><title>node63&#45;&gt;node53</title>
<path fill="none" stroke="black" d="M2397.5,-503.831C2384.32,-494.793 2368.22,-483.748 2354.03,-474.02"/>
<polygon fill="black" stroke="black" points="2355.71,-470.932 2345.49,-468.163 2351.76,-476.705 2355.71,-470.932"/>
</g>
<!-- node156 -->
<g id="node101" class="node"><title>node156</title>
<polygon fill="none" stroke="black" points="2818,-468 2724,-468 2724,-432 2818,-432 2818,-468"/>
<text text-anchor="middle" x="2771" y="-446.7" font-family="Times Roman,serif" font-size="12.00">securesocket</text>
</g>
<!-- node63&#45;&gt;node156 -->
<g id="edge148" class="edge"><title>node63&#45;&gt;node156</title>
<path fill="none" stroke="black" d="M2462.13,-514.089C2523.04,-501.45 2642.67,-476.627 2713.85,-461.858"/>
<polygon fill="black" stroke="black" points="2714.91,-465.214 2723.99,-459.755 2713.48,-458.36 2714.91,-465.214"/>
</g>
<!-- node156&#45;&gt;node151 -->
<g id="edge150" class="edge"><title>node156&#45;&gt;node151</title>
<path fill="none" stroke="black" d="M2818.24,-448.175C2896.17,-444.163 3046.77,-431.869 3084,-396 3113.44,-367.635 3103,-346.882 3103,-306 3103,-306 3103,-306 3103,-234 3103,-132.964 1437.19,-96.0533 1165.31,-90.7018"/>
<polygon fill="black" stroke="black" points="1165.23,-87.1998 1155.17,-90.5042 1165.1,-94.1984 1165.23,-87.1998"/>
</g>
<!-- node191 -->
<g id="node104" class="node"><title>node191</title>
<ellipse fill="none" stroke="black" cx="2618" cy="-378" rx="137.138" ry="18"/>
<text text-anchor="middle" x="2618" y="-374.7" font-family="Times Roman,serif" font-size="12.00">/usr/lib/x86_64&#45;linux&#45;gnu/libssl.so</text>
</g>
<!-- node156&#45;&gt;node191 -->
<g id="edge152" class="edge"><title>node156&#45;&gt;node191</title>
<path fill="none" stroke="black" d="M2732.39,-431.831C2711.63,-422.062 2685.89,-409.95 2664.09,-399.689"/>
<polygon fill="black" stroke="black" points="2665.55,-396.509 2655.01,-395.418 2662.57,-402.843 2665.55,-396.509"/>
</g>
<!-- node192 -->
<g id="node106" class="node"><title>node192</title>
<ellipse fill="none" stroke="black" cx="2924" cy="-378" rx="150.937" ry="18"/>
<text text-anchor="middle" x="2924" y="-374.7" font-family="Times Roman,serif" font-size="12.00">/usr/lib/x86_64&#45;linux&#45;gnu/libcrypto.so</text>
</g>
<!-- node156&#45;&gt;node192 -->
<g id="edge154" class="edge"><title>node156&#45;&gt;node192</title>
<path fill="none" stroke="black" d="M2809.61,-431.831C2830.29,-422.099 2855.92,-410.04 2877.67,-399.804"/>
<polygon fill="black" stroke="black" points="2879.17,-402.966 2886.72,-395.541 2876.19,-396.632 2879.17,-402.966"/>
</g>
<!-- node169&#45;&gt;node151 -->
<g id="edge158" class="edge"><title>node169&#45;&gt;node151</title>
<path fill="none" stroke="black" d="M417.922,-661.856C318.02,-649.636 79,-604.279 79,-450 79,-450 79,-450 79,-234 79,-191.082 79.234,-169.165 114,-144 154.3,-114.829 912.132,-95.1119 1090.59,-90.8612"/>
<polygon fill="black" stroke="black" points="1090.88,-94.3555 1100.79,-90.6201 1090.71,-87.3574 1090.88,-94.3555"/>
</g>
<!-- node169&#45;&gt;node153 -->
<g id="edge166" class="edge"><title>node169&#45;&gt;node153</title>
<path fill="none" stroke="black" d="M451.223,-647.746C433.922,-616.377 395.687,-551.076 353,-504 336.028,-485.282 323.72,-488.536 309,-468 280.175,-427.787 262.229,-405.355 282,-360 319.575,-273.804 352.239,-256.71 437,-216 494.542,-188.364 683.714,-171.029 764.686,-164.706"/>
<polygon fill="black" stroke="black" points="765.214,-168.176 774.917,-163.921 764.678,-161.197 765.214,-168.176"/>
</g>
<!-- node169&#45;&gt;node66 -->
<g id="edge168" class="edge"><title>node169&#45;&gt;node66</title>
<path fill="none" stroke="black" d="M461.459,-647.67C463.761,-595.359 477.5,-443.757 559,-360 588.814,-329.361 636.983,-316.08 671.513,-310.339"/>
<polygon fill="black" stroke="black" points="672.392,-313.746 681.756,-308.789 671.344,-306.825 672.392,-313.746"/>
</g>
<!-- node169&#45;&gt;node146 -->
<g id="edge160" class="edge"><title>node169&#45;&gt;node146</title>
<path fill="none" stroke="black" d="M504.254,-660.041C570.18,-650.789 699.684,-631.947 809,-612 1191.88,-542.136 1282.35,-497.488 1666,-432 1786.64,-411.407 1817.85,-413.306 1939,-396 1965.64,-392.195 1995.64,-387.573 2018.59,-383.965"/>
<polygon fill="black" stroke="black" points="2019.27,-387.401 2028.6,-382.386 2018.18,-380.487 2019.27,-387.401"/>
</g>
<!-- node169&#45;&gt;node52 -->
<g id="edge162" class="edge"><title>node169&#45;&gt;node52</title>
<path fill="none" stroke="black" d="M420.599,-647.917C402.7,-638.728 382.1,-626.44 366,-612 345.686,-593.78 327.96,-568.186 316.173,-548.947"/>
<polygon fill="black" stroke="black" points="319.165,-547.131 311.033,-540.339 313.155,-550.719 319.165,-547.131"/>
</g>
<!-- node169&#45;&gt;node164 -->
<g id="edge170" class="edge"><title>node169&#45;&gt;node164</title>
<path fill="none" stroke="black" d="M504.32,-663.604C701.774,-652.685 1515.57,-607.683 1717.5,-596.516"/>
<polygon fill="black" stroke="black" points="1717.95,-599.997 1727.74,-595.95 1717.56,-593.007 1717.95,-599.997"/>
</g>
<!-- node169&#45;&gt;node63 -->
<g id="edge164" class="edge"><title>node169&#45;&gt;node63</title>
<path fill="none" stroke="black" d="M504.241,-664.876C704.734,-659.572 1545.17,-636.281 1807,-612 2020.11,-592.237 2272.06,-549.319 2375.75,-530.799"/>
<polygon fill="black" stroke="black" points="2376.67,-534.189 2385.9,-528.98 2375.44,-527.299 2376.67,-534.189"/>
</g>
<!-- node171&#45;&gt;node151 -->
<g id="edge178" class="edge"><title>node171&#45;&gt;node151</title>
<path fill="none" stroke="black" d="M1877.31,-663.625C1978.71,-658.572 2203.44,-644.457 2390,-612 2645.3,-567.583 2708.69,-548.53 2955,-468 3099.03,-420.91 3255,-457.531 3255,-306 3255,-306 3255,-306 3255,-234 3255,-80.2608 3073.09,-166.466 2921,-144 2741.7,-117.515 1405.88,-94.5454 1165.12,-90.5981"/>
<polygon fill="black" stroke="black" points="1165.18,-87.0985 1155.12,-90.4347 1165.06,-94.0976 1165.18,-87.0985"/>
</g>
<!-- node171&#45;&gt;node59 -->
<g id="edge188" class="edge"><title>node171&#45;&gt;node59</title>
<path fill="none" stroke="black" d="M1835.36,-647.95C1869.46,-595.739 1957.39,-442.999 1880,-360 1840.96,-318.127 1422.68,-332.032 1366,-324 1361.23,-323.324 1089.23,-264.684 986.086,-242.433"/>
<polygon fill="black" stroke="black" points="986.587,-238.961 976.074,-240.273 985.111,-245.804 986.587,-238.961"/>
</g>
<!-- node171&#45;&gt;node66 -->
<g id="edge190" class="edge"><title>node171&#45;&gt;node66</title>
<path fill="none" stroke="black" d="M1768.6,-654.361C1721.63,-644.054 1652.05,-628.173 1592,-612 1572.17,-606.66 902.369,-406.954 885,-396 866.641,-384.421 869.918,-372.25 852,-360 821.985,-339.479 783.069,-325.222 754.051,-316.532"/>
<polygon fill="black" stroke="black" points="754.81,-313.108 744.231,-313.689 752.864,-319.832 754.81,-313.108"/>
</g>
<!-- node171&#45;&gt;node55 -->
<g id="edge192" class="edge"><title>node171&#45;&gt;node55</title>
<path fill="none" stroke="black" d="M1768.84,-653.411C1722.02,-642.509 1652.53,-626.289 1592,-612 1457.71,-580.295 1422.25,-579.36 1290,-540 1153.78,-499.458 1124.35,-475.359 989,-432 943.512,-417.428 891.286,-402.805 852.956,-392.458"/>
<polygon fill="black" stroke="black" points="853.594,-389.005 843.028,-389.79 851.777,-395.765 853.594,-389.005"/>
</g>
<!-- node171&#45;&gt;node54 -->
<g id="edge194" class="edge"><title>node171&#45;&gt;node54</title>
<path fill="none" stroke="black" d="M1771.34,-647.903C1743.02,-637.763 1707.4,-624.646 1676,-612 1556.37,-563.821 1417.71,-501.034 1349.44,-469.654"/>
<polygon fill="black" stroke="black" points="1350.83,-466.441 1340.29,-465.439 1347.91,-472.8 1350.83,-466.441"/>
</g>
<!-- node171&#45;&gt;node146 -->
<g id="edge182" class="edge"><title>node171&#45;&gt;node146</title>
<path fill="none" stroke="black" d="M1842.78,-647.909C1853.57,-637.717 1866.94,-624.549 1878,-612 1940.97,-540.561 2006.69,-448.971 2037.71,-404.54"/>
<polygon fill="black" stroke="black" points="2040.61,-406.511 2043.45,-396.303 2034.86,-402.513 2040.61,-406.511"/>
</g>
<!-- node171&#45;&gt;node147 -->
<g id="edge180" class="edge"><title>node171&#45;&gt;node147</title>
<path fill="none" stroke="black" d="M1877.21,-664.474C2020.16,-659.139 2401.21,-636.003 2471,-540 2524.71,-466.111 2417.04,-373.26 2357.64,-330.105"/>
<polygon fill="black" stroke="black" points="2359.42,-327.076 2349.25,-324.107 2355.35,-332.77 2359.42,-327.076"/>
</g>
<!-- node171&#45;&gt;node53 -->
<g id="edge184" class="edge"><title>node171&#45;&gt;node53</title>
<path fill="none" stroke="black" d="M1873.06,-647.885C1901.75,-637.464 1938.43,-624.08 1971,-612 2056.06,-580.452 2079.94,-578.683 2162,-540 2204.42,-520.004 2250.75,-492.729 2282,-473.461"/>
<polygon fill="black" stroke="black" points="2284.15,-476.249 2290.8,-468.004 2280.46,-470.301 2284.15,-476.249"/>
</g>
<!-- node171&#45;&gt;node64 -->
<g id="edge196" class="edge"><title>node171&#45;&gt;node64</title>
<path fill="none" stroke="black" d="M1781.3,-647.968C1761.58,-638.553 1738.2,-626.065 1719,-612 1693.3,-593.18 1668.01,-567.021 1650.82,-547.754"/>
<polygon fill="black" stroke="black" points="1653.42,-545.417 1644.19,-540.22 1648.17,-550.04 1653.42,-545.417"/>
</g>
<!-- node171&#45;&gt;node164 -->
<g id="edge176" class="edge"><title>node171&#45;&gt;node164</title>
<path fill="none" stroke="black" d="M1807.86,-647.831C1800.88,-639.454 1792.46,-629.353 1784.81,-620.175"/>
<polygon fill="black" stroke="black" points="1787.44,-617.855 1778.34,-612.413 1782.06,-622.336 1787.44,-617.855"/>
</g>
<!-- node171&#45;&gt;node63 -->
<g id="edge186" class="edge"><title>node171&#45;&gt;node63</title>
<path fill="none" stroke="black" d="M1877.22,-661.367C1948.13,-654.51 2075.81,-639.416 2182,-612 2251.38,-594.088 2328.46,-563.456 2376.58,-542.972"/>
<polygon fill="black" stroke="black" points="2378,-546.174 2385.81,-539.018 2375.24,-539.74 2378,-546.174"/>
</g>
<!-- node78&#45;&gt;node151 -->
<g id="edge200" class="edge"><title>node78&#45;&gt;node151</title>
<path fill="none" stroke="black" d="M353.888,-432.104C320.741,-407.828 269,-361.108 269,-306 269,-306 269,-306 269,-234 269,-149.383 925.706,-102.649 1090.73,-92.2411"/>
<polygon fill="black" stroke="black" points="1091.11,-95.724 1100.87,-91.608 1090.67,-88.7376 1091.11,-95.724"/>
</g>
<!-- node78&#45;&gt;node59 -->
<g id="edge206" class="edge"><title>node78&#45;&gt;node59</title>
<path fill="none" stroke="black" d="M389.563,-431.937C399.089,-412.893 415.705,-382.581 435,-360 467.383,-322.102 475.313,-307.941 521,-288 556.063,-272.696 808.79,-247.216 907.576,-237.718"/>
<polygon fill="black" stroke="black" points="908.122,-241.182 917.743,-236.745 907.455,-234.214 908.122,-241.182"/>
</g>
<!-- node78&#45;&gt;node153 -->
<g id="edge202" class="edge"><title>node78&#45;&gt;node153</title>
<path fill="none" stroke="black" d="M374.345,-431.814C363.549,-398.768 346.761,-328.547 382,-288 433.21,-229.076 671.942,-183.694 764.859,-167.975"/>
<polygon fill="black" stroke="black" points="765.647,-171.392 774.933,-166.291 764.493,-164.488 765.647,-171.392"/>
</g>
<!-- node78&#45;&gt;node66 -->
<g id="edge208" class="edge"><title>node78&#45;&gt;node66</title>
<path fill="none" stroke="black" d="M399.248,-431.92C423.249,-408.5 464.536,-369.538 483,-360 544.281,-328.346 624.296,-314.977 671.992,-309.53"/>
<polygon fill="black" stroke="black" points="672.382,-313.008 681.948,-308.454 671.63,-306.048 672.382,-313.008"/>
</g>
<!-- node78&#45;&gt;node149 -->
<g id="edge204" class="edge"><title>node78&#45;&gt;node149</title>
<path fill="none" stroke="black" d="M377.86,-431.987C373.168,-398.59 368.586,-326.929 407,-288 444.487,-250.011 605.338,-238.554 679.402,-235.259"/>
<polygon fill="black" stroke="black" points="679.83,-238.744 689.675,-234.83 679.538,-231.75 679.83,-238.744"/>
</g>
<!-- node78&#45;&gt;node55 -->
<g id="edge210" class="edge"><title>node78&#45;&gt;node55</title>
<path fill="none" stroke="black" d="M408.039,-445.331C475.466,-433.689 652.126,-403.187 742.704,-387.547"/>
<polygon fill="black" stroke="black" points="743.523,-390.958 752.782,-385.807 742.332,-384.06 743.523,-390.958"/>
</g>
<!-- node168&#45;&gt;node151 -->
<g id="edge214" class="edge"><title>node168&#45;&gt;node151</title>
<path fill="none" stroke="black" d="M1101.71,-662.124C981.135,-653.792 707.995,-633.205 617,-612 528.242,-591.317 506.931,-579.913 425,-540 353.621,-505.228 155,-385.398 155,-306 155,-306 155,-306 155,-234 155,-165.543 215.549,-167.075 280,-144 356.971,-116.442 936.507,-96.1193 1090.51,-91.1655"/>
<polygon fill="black" stroke="black" points="1090.97,-94.6528 1100.85,-90.8355 1090.75,-87.6564 1090.97,-94.6528"/>
</g>
<!-- node168&#45;&gt;node150 -->
<g id="edge234" class="edge"><title>node168&#45;&gt;node150</title>
<path fill="none" stroke="black" d="M1218.22,-664.344C1371.54,-659.584 1783.73,-644.102 1916,-612 1920.51,-610.906 2030.58,-563.345 2089.52,-537.817"/>
<polygon fill="black" stroke="black" points="2091.07,-540.957 2098.86,-533.77 2088.29,-534.534 2091.07,-540.957"/>
</g>
<!-- node168&#45;&gt;node59 -->
<g id="edge216" class="edge"><title>node168&#45;&gt;node59</title>
<path fill="none" stroke="black" d="M1145.46,-647.657C1105.09,-596.358 993.117,-451.552 971,-396 953.331,-351.62 948.516,-295.718 947.295,-262.531"/>
<polygon fill="black" stroke="black" points="950.784,-262.095 947.005,-252.197 943.787,-262.291 950.784,-262.095"/>
</g>
<!-- node168&#45;&gt;node66 -->
<g id="edge218" class="edge"><title>node168&#45;&gt;node66</title>
<path fill="none" stroke="black" d="M1111.86,-647.963C1025.07,-612.977 842.292,-527.577 744,-396 730.314,-377.68 722.366,-352.869 717.952,-333.938"/>
<polygon fill="black" stroke="black" points="721.363,-333.151 715.849,-324.104 714.517,-334.614 721.363,-333.151"/>
</g>
<!-- node168&#45;&gt;node55 -->
<g id="edge220" class="edge"><title>node168&#45;&gt;node55</title>
<path fill="none" stroke="black" d="M1127.57,-647.973C1112.14,-638.475 1094.05,-625.915 1080,-612 1010.98,-543.634 1033.43,-490.671 956,-432 947.373,-425.462 895.026,-408.171 852.913,-394.9"/>
<polygon fill="black" stroke="black" points="853.873,-391.533 843.284,-391.879 851.778,-398.212 853.873,-391.533"/>
</g>
<!-- node168&#45;&gt;node54 -->
<g id="edge224" class="edge"><title>node168&#45;&gt;node54</title>
<path fill="none" stroke="black" d="M1164.7,-647.861C1170.06,-629.021 1179.95,-599.123 1194,-576 1217.65,-537.088 1254.08,-499.115 1279.14,-475.203"/>
<polygon fill="black" stroke="black" points="1281.65,-477.65 1286.53,-468.247 1276.85,-472.554 1281.65,-477.65"/>
</g>
<!-- node168&#45;&gt;node146 -->
<g id="edge228" class="edge"><title>node168&#45;&gt;node146</title>
<path fill="none" stroke="black" d="M1190.75,-647.838C1225.04,-628.148 1282.59,-596.762 1335,-576 1588.15,-475.715 1910.53,-406.837 2018.71,-385.229"/>
<polygon fill="black" stroke="black" points="2019.67,-388.607 2028.8,-383.228 2018.31,-381.741 2019.67,-388.607"/>
</g>
<!-- node168&#45;&gt;node147 -->
<g id="edge226" class="edge"><title>node168&#45;&gt;node147</title>
<path fill="none" stroke="black" d="M1218.17,-663.563C1367.23,-656.976 1754.85,-637.581 1807,-612 1826.49,-602.441 1822.19,-588.409 1840,-576 1874.67,-551.841 1889.13,-556.583 1928,-540 1964.24,-524.54 1972.83,-519.607 2009,-504 2047.05,-487.585 2057.71,-486.065 2095,-468 2154.44,-439.205 2171.51,-434.745 2225,-396 2251.77,-376.608 2279.09,-350.58 2297.89,-331.504"/>
<polygon fill="black" stroke="black" points="2300.43,-333.911 2304.9,-324.306 2295.42,-329.026 2300.43,-333.911"/>
</g>
<!-- node168&#45;&gt;node53 -->
<g id="edge230" class="edge"><title>node168&#45;&gt;node53</title>
<path fill="none" stroke="black" d="M1218.06,-664.086C1360.34,-658.964 1723.22,-643.168 1840,-612 1876.11,-602.362 1881.66,-590.756 1916,-576 1956.72,-558.501 1968.07,-557.006 2009,-540 2045.38,-524.885 2052.67,-516.576 2090,-504 2154.78,-482.18 2232.72,-465.812 2278.94,-457.093"/>
<polygon fill="black" stroke="black" points="2279.67,-460.517 2288.86,-455.246 2278.39,-453.635 2279.67,-460.517"/>
</g>
<!-- node168&#45;&gt;node64 -->
<g id="edge232" class="edge"><title>node168&#45;&gt;node64</title>
<path fill="none" stroke="black" d="M1218.45,-648.053C1313.76,-618.791 1500.5,-561.455 1585.27,-535.426"/>
<polygon fill="black" stroke="black" points="1586.32,-538.766 1594.85,-532.485 1584.27,-532.074 1586.32,-538.766"/>
</g>
<!-- node168&#45;&gt;node52 -->
<g id="edge236" class="edge"><title>node168&#45;&gt;node52</title>
<path fill="none" stroke="black" d="M1101.89,-664.255C959.513,-659.519 596.408,-644.538 480,-612 427.569,-597.345 372.341,-566.968 337.334,-545.572"/>
<polygon fill="black" stroke="black" points="338.794,-542.36 328.45,-540.069 335.108,-548.31 338.794,-542.36"/>
</g>
<!-- node168&#45;&gt;node164 -->
<g id="edge238" class="edge"><title>node168&#45;&gt;node164</title>
<path fill="none" stroke="black" d="M1218.09,-659.064C1337.78,-644.772 1609.68,-612.307 1717.61,-599.419"/>
<polygon fill="black" stroke="black" points="1718.32,-602.859 1727.84,-598.198 1717.49,-595.909 1718.32,-602.859"/>
</g>
<!-- node168&#45;&gt;node78 -->
<g id="edge222" class="edge"><title>node168&#45;&gt;node78</title>
<path fill="none" stroke="black" d="M1101.9,-661.826C996.087,-653.778 776.101,-634.875 703,-612 605.468,-581.479 591.688,-549.137 500,-504 472.629,-490.525 441.178,-476.307 417.486,-465.844"/>
<polygon fill="black" stroke="black" points="418.729,-462.567 408.166,-461.745 415.911,-468.975 418.729,-462.567"/>
</g>
<!-- node165&#45;&gt;node151 -->
<g id="edge242" class="edge"><title>node165&#45;&gt;node151</title>
<path fill="none" stroke="black" d="M1280.87,-736.559C1100.09,-731.66 534.362,-714.25 354,-684 209.982,-659.846 38,-740.03 38,-594 38,-594 38,-594 38,-234 38,-189.669 44.1219,-168.602 81,-144 123.843,-115.419 909.55,-95.1613 1090.88,-90.8543"/>
<polygon fill="black" stroke="black" points="1091.07,-94.3509 1100.99,-90.616 1090.91,-87.3528 1091.07,-94.3509"/>
</g>
<!-- node165&#45;&gt;node150 -->
<g id="edge246" class="edge"><title>node165&#45;&gt;node150</title>
<path fill="none" stroke="black" d="M1393.2,-735.966C1514.34,-731.018 1796.35,-716.308 1886,-684 1972.19,-652.937 2057.3,-583.995 2099.18,-546.852"/>
<polygon fill="black" stroke="black" points="2101.62,-549.367 2106.73,-540.085 2096.95,-544.155 2101.62,-549.367"/>
</g>
<!-- node165&#45;&gt;node59 -->
<g id="edge256" class="edge"><title>node165&#45;&gt;node59</title>
<path fill="none" stroke="black" d="M1315.89,-719.85C1289.01,-694.593 1246,-646.049 1246,-594 1246,-594 1246,-594 1246,-522 1246,-427.238 1146.56,-456.947 1074,-396 1038.62,-366.281 1027.51,-360.365 999,-324 983.641,-304.408 969.735,-279.796 960.176,-261.264"/>
<polygon fill="black" stroke="black" points="963.223,-259.533 955.589,-252.186 956.975,-262.69 963.223,-259.533"/>
</g>
<!-- node165&#45;&gt;node66 -->
<g id="edge258" class="edge"><title>node165&#45;&gt;node66</title>
<path fill="none" stroke="black" d="M1280.9,-728.632C1129.63,-703.137 723.274,-633.007 703,-612 624.389,-530.546 626.324,-466.02 666,-360 669.895,-349.591 676.804,-339.865 684.146,-331.615"/>
<polygon fill="black" stroke="black" points="686.864,-333.836 691.233,-324.184 681.799,-329.005 686.864,-333.836"/>
</g>
<!-- node165&#45;&gt;node55 -->
<g id="edge260" class="edge"><title>node165&#45;&gt;node55</title>
<path fill="none" stroke="black" d="M1280.78,-730.399C1218.61,-721.162 1123.22,-704.27 1093,-684 979.756,-608.045 1022.88,-519.147 918,-432 898.944,-416.165 874.498,-404.056 852.648,-395.357"/>
<polygon fill="black" stroke="black" points="853.734,-392.025 843.144,-391.718 851.231,-398.562 853.734,-392.025"/>
</g>
<!-- node165&#45;&gt;node54 -->
<g id="edge262" class="edge"><title>node165&#45;&gt;node54</title>
<path fill="none" stroke="black" d="M1333.5,-719.803C1326.99,-685.032 1313.23,-606.673 1308,-540 1306.39,-519.488 1306.17,-496.267 1306.34,-478.55"/>
<polygon fill="black" stroke="black" points="1309.84,-478.352 1306.49,-468.304 1302.84,-478.253 1309.84,-478.352"/>
</g>
<!-- node165&#45;&gt;node146 -->
<g id="edge250" class="edge"><title>node165&#45;&gt;node146</title>
<path fill="none" stroke="black" d="M1369.75,-719.86C1403.59,-701.28 1458.08,-671.825 1506,-648 1508.67,-646.675 1892.54,-469.671 1895,-468 1914.25,-454.943 1913.62,-444.867 1933,-432 1933.12,-431.918 1983.2,-409.941 2019.41,-394.053"/>
<polygon fill="black" stroke="black" points="2020.99,-397.182 2028.74,-389.959 2018.18,-390.772 2020.99,-397.182"/>
</g>
<!-- node165&#45;&gt;node147 -->
<g id="edge248" class="edge"><title>node165&#45;&gt;node147</title>
<path fill="none" stroke="black" d="M1393.2,-736.152C1522.03,-731.398 1835.21,-716.746 1935,-684 2091.79,-632.547 2137.86,-599.917 2237,-468 2269.51,-424.742 2296.4,-367.309 2310.75,-333.728"/>
<polygon fill="black" stroke="black" points="2314.14,-334.689 2314.79,-324.115 2307.68,-331.976 2314.14,-334.689"/>
</g>
<!-- node165&#45;&gt;node53 -->
<g id="edge252" class="edge"><title>node165&#45;&gt;node53</title>
<path fill="none" stroke="black" d="M1393.14,-736.44C1559.5,-731.486 2042.24,-714.609 2106,-684 2118.5,-677.997 2243.89,-535.776 2296.23,-476.042"/>
<polygon fill="black" stroke="black" points="2299.16,-478.013 2303.12,-468.184 2293.9,-473.401 2299.16,-478.013"/>
</g>
<!-- node165&#45;&gt;node64 -->
<g id="edge264" class="edge"><title>node165&#45;&gt;node64</title>
<path fill="none" stroke="black" d="M1342.77,-719.74C1349.81,-699.963 1363.37,-668.502 1384,-648 1442.13,-590.234 1532.19,-553.351 1585.41,-535.274"/>
<polygon fill="black" stroke="black" points="1586.51,-538.594 1594.9,-532.116 1584.31,-531.952 1586.51,-538.594"/>
</g>
<!-- node165&#45;&gt;node52 -->
<g id="edge244" class="edge"><title>node165&#45;&gt;node52</title>
<path fill="none" stroke="black" d="M1281,-736.952C1092.59,-733.122 488.958,-718.277 409,-684 365.938,-665.54 357.493,-651.31 332,-612 319.691,-593.019 311.681,-568.602 306.893,-549.991"/>
<polygon fill="black" stroke="black" points="310.244,-548.956 304.498,-540.055 303.439,-550.597 310.244,-548.956"/>
</g>
<!-- node165&#45;&gt;node164 -->
<g id="edge268" class="edge"><title>node165&#45;&gt;node164</title>
<path fill="none" stroke="black" d="M1392.75,-719.937C1466.48,-695.919 1600.36,-651.852 1714,-612 1715.42,-611.503 1716.85,-610.995 1718.31,-610.48"/>
<polygon fill="black" stroke="black" points="1719.75,-613.68 1727.98,-607.006 1717.39,-607.091 1719.75,-613.68"/>
</g>
<!-- node165&#45;&gt;node63 -->
<g id="edge254" class="edge"><title>node165&#45;&gt;node63</title>
<path fill="none" stroke="black" d="M1393.26,-736.393C1551.87,-731.52 2000.37,-715.293 2144,-684 2232.23,-664.776 2258.16,-661.021 2334,-612 2361.08,-594.499 2386.52,-567.714 2403.4,-547.911"/>
<polygon fill="black" stroke="black" points="2406.15,-550.085 2409.87,-540.167 2400.78,-545.596 2406.15,-550.085"/>
</g>
<!-- node165&#45;&gt;node171 -->
<g id="edge266" class="edge"><title>node165&#45;&gt;node171</title>
<path fill="none" stroke="black" d="M1393.23,-729.67C1484.11,-716.206 1662.78,-689.737 1758.63,-675.537"/>
<polygon fill="black" stroke="black" points="1759.39,-678.962 1768.77,-674.035 1758.36,-672.038 1759.39,-678.962"/>
</g>
<!-- node165&#45;&gt;node78 -->
<g id="edge270" class="edge"><title>node165&#45;&gt;node78</title>
<path fill="none" stroke="black" d="M1280.87,-733.716C1195.79,-726.661 1029.35,-710.661 890,-684 766.753,-660.419 732.343,-661.415 617,-612 534.389,-576.608 450.722,-510.376 408.717,-474.538"/>
<polygon fill="black" stroke="black" points="410.989,-471.875 401.126,-468.004 406.422,-477.18 410.989,-471.875"/>
</g>
<!-- node165&#45;&gt;node168 -->
<g id="edge272" class="edge"><title>node165&#45;&gt;node168</title>
<path fill="none" stroke="black" d="M1292.34,-719.831C1268.45,-710.116 1238.87,-698.083 1213.74,-687.859"/>
<polygon fill="black" stroke="black" points="1214.93,-684.564 1204.34,-684.038 1212.29,-691.048 1214.93,-684.564"/>
</g>
<!-- node162&#45;&gt;node151 -->
<g id="edge276" class="edge"><title>node162&#45;&gt;node151</title>
<path fill="none" stroke="black" d="M1574.2,-808.071C1880.84,-798.161 3217,-750.152 3217,-666 3217,-666 3217,-666 3217,-522 3217,-420.231 3293,-407.769 3293,-306 3293,-306 3293,-306 3293,-234 3293,-188.679 3471.81,-224.272 3095,-144 2899.73,-102.402 1420.9,-91.7468 1165.51,-90.2099"/>
<polygon fill="black" stroke="black" points="1165.29,-86.7086 1155.27,-90.1492 1165.25,-93.7085 1165.29,-86.7086"/>
</g>
<!-- node162&#45;&gt;node150 -->
<g id="edge284" class="edge"><title>node162&#45;&gt;node150</title>
<path fill="none" stroke="black" d="M1574.34,-796.691C1658.43,-777.568 1811.86,-738.521 1935,-684 1991.52,-658.974 2007.53,-652.765 2054,-612 2075.39,-593.234 2095.24,-567.542 2108.65,-548.411"/>
<polygon fill="black" stroke="black" points="2111.56,-550.355 2114.35,-540.132 2105.8,-546.388 2111.56,-550.355"/>
</g>
<!-- node162&#45;&gt;node59 -->
<g id="edge278" class="edge"><title>node162&#45;&gt;node59</title>
<path fill="none" stroke="black" d="M1511.41,-791.908C1510.68,-740.868 1515.19,-593.635 1586,-504 1655.25,-416.347 1868.89,-441.029 1792,-360 1739.38,-304.554 1178.35,-345.496 1105,-324 1080.18,-316.726 1022.4,-281.89 984.022,-257.756"/>
<polygon fill="black" stroke="black" points="985.517,-254.56 975.193,-252.178 981.778,-260.478 985.517,-254.56"/>
</g>
<!-- node162&#45;&gt;node66 -->
<g id="edge294" class="edge"><title>node162&#45;&gt;node66</title>
<path fill="none" stroke="black" d="M1449.68,-805.472C1368.92,-798.764 1224.1,-783.866 1103,-756 1004.18,-733.261 745.101,-680.136 670,-612 586.791,-536.507 593.483,-457.102 650,-360 656.576,-348.702 666.405,-338.629 676.356,-330.332"/>
<polygon fill="black" stroke="black" points="678.615,-333.008 684.302,-324.069 674.281,-327.51 678.615,-333.008"/>
</g>
<!-- node162&#45;&gt;node55 -->
<g id="edge296" class="edge"><title>node162&#45;&gt;node55</title>
<path fill="none" stroke="black" d="M1449.81,-802.825C1389.24,-794.866 1295,-779.898 1216,-756 1138.64,-732.597 1113.57,-732.621 1049,-684 1045.4,-681.289 878.947,-477.289 819.128,-403.921"/>
<polygon fill="black" stroke="black" points="821.734,-401.578 812.702,-396.039 816.308,-406.001 821.734,-401.578"/>
</g>
<!-- node162&#45;&gt;node54 -->
<g id="edge298" class="edge"><title>node162&#45;&gt;node54</title>
<path fill="none" stroke="black" d="M1501.55,-791.653C1467.9,-732.551 1362.2,-546.933 1322.38,-477.007"/>
<polygon fill="black" stroke="black" points="1325.42,-475.268 1317.43,-468.31 1319.33,-478.732 1325.42,-475.268"/>
</g>
<!-- node162&#45;&gt;node146 -->
<g id="edge288" class="edge"><title>node162&#45;&gt;node146</title>
<path fill="none" stroke="black" d="M1574.23,-801.833C1633.3,-793.273 1724.21,-777.988 1801,-756 1936.67,-717.155 1974.9,-701.516 2084,-612 2129.77,-574.443 2182.29,-559.626 2162,-504 2147,-462.868 2112.01,-425.854 2086.31,-402.752"/>
<polygon fill="black" stroke="black" points="2088.49,-400.009 2078.67,-396.04 2083.88,-405.268 2088.49,-400.009"/>
</g>
<!-- node162&#45;&gt;node147 -->
<g id="edge286" class="edge"><title>node162&#45;&gt;node147</title>
<path fill="none" stroke="black" d="M1574.03,-809.03C1740.71,-805.935 2195.4,-794.141 2340,-756 2428.8,-732.578 3035.21,-473.805 3084,-396 3092.5,-382.444 3094.91,-371.707 3084,-360 3059,-333.17 2508.33,-312.39 2359.05,-307.235"/>
<polygon fill="black" stroke="black" points="2359.12,-303.736 2349,-306.891 2358.88,-310.732 2359.12,-303.736"/>
</g>
<!-- node162&#45;&gt;node53 -->
<g id="edge290" class="edge"><title>node162&#45;&gt;node53</title>
<path fill="none" stroke="black" d="M1574.05,-807.961C1733.06,-802.34 2146.44,-785.082 2201,-756 2219.01,-746.402 2248.9,-702.265 2258,-684 2292.58,-614.601 2309.02,-523.541 2315.49,-478.198"/>
<polygon fill="black" stroke="black" points="2318.97,-478.591 2316.86,-468.209 2312.03,-477.641 2318.97,-478.591"/>
</g>
<!-- node162&#45;&gt;node64 -->
<g id="edge300" class="edge"><title>node162&#45;&gt;node64</title>
<path fill="none" stroke="black" d="M1519.32,-791.984C1539.18,-743.092 1594.19,-607.679 1617.9,-549.33"/>
<polygon fill="black" stroke="black" points="1621.16,-550.591 1621.68,-540.009 1614.68,-547.956 1621.16,-550.591"/>
</g>
<!-- node162&#45;&gt;node52 -->
<g id="edge282" class="edge"><title>node162&#45;&gt;node52</title>
<path fill="none" stroke="black" d="M1449.71,-809.694C1201.43,-808.177 293.82,-799.651 252,-756 197.24,-698.843 251.261,-596.984 282.378,-548.745"/>
<polygon fill="black" stroke="black" points="285.488,-550.387 288.074,-540.113 279.645,-546.532 285.488,-550.387"/>
</g>
<!-- node162&#45;&gt;node164 -->
<g id="edge304" class="edge"><title>node162&#45;&gt;node164</title>
<path fill="none" stroke="black" d="M1545.38,-791.972C1562.36,-782.204 1582.95,-769.407 1600,-756 1607.47,-750.128 1694.06,-663.306 1737.9,-619.249"/>
<polygon fill="black" stroke="black" points="1740.49,-621.614 1745.06,-612.056 1735.52,-616.677 1740.49,-621.614"/>
</g>
<!-- node162&#45;&gt;node63 -->
<g id="edge292" class="edge"><title>node162&#45;&gt;node63</title>
<path fill="none" stroke="black" d="M1574.15,-807.442C1725.98,-800.861 2112.56,-782.021 2239,-756 2335.23,-736.197 2390.95,-763.988 2448,-684 2476.6,-643.904 2455.51,-583.901 2438.88,-549.287"/>
<polygon fill="black" stroke="black" points="2441.95,-547.613 2434.35,-540.235 2435.69,-550.745 2441.95,-547.613"/>
</g>
<!-- node162&#45;&gt;node169 -->
<g id="edge280" class="edge"><title>node162&#45;&gt;node169</title>
<path fill="none" stroke="black" d="M1449.69,-804.557C1353.75,-795.91 1164.17,-777.768 1004,-756 823.615,-731.485 610.996,-693.615 514.014,-675.844"/>
<polygon fill="black" stroke="black" points="514.626,-672.398 504.158,-674.034 513.362,-679.283 514.626,-672.398"/>
</g>
<!-- node162&#45;&gt;node171 -->
<g id="edge302" class="edge"><title>node162&#45;&gt;node171</title>
<path fill="none" stroke="black" d="M1555.67,-791.891C1580.02,-781.64 1610.84,-768.42 1638,-756 1686.21,-733.957 1740.71,-707.222 1777.99,-688.644"/>
<polygon fill="black" stroke="black" points="1779.7,-691.703 1787.08,-684.105 1776.57,-685.439 1779.7,-691.703"/>
</g>
<!-- node162&#45;&gt;node78 -->
<g id="edge306" class="edge"><title>node162&#45;&gt;node78</title>
<path fill="none" stroke="black" d="M1449.77,-807.448C1322.75,-801.796 1024.64,-786.262 776,-756 587.128,-733.013 515.719,-784.239 354,-684 275.279,-635.206 197.377,-580.895 249,-504 270.017,-472.695 312.739,-459.525 343.907,-453.993"/>
<polygon fill="black" stroke="black" points="344.657,-457.418 353.985,-452.395 343.56,-450.504 344.657,-457.418"/>
</g>
<!-- node162&#45;&gt;node168 -->
<g id="edge308" class="edge"><title>node162&#45;&gt;node168</title>
<path fill="none" stroke="black" d="M1449.79,-803.861C1399.78,-797.11 1328.75,-783.35 1272,-756 1238.38,-739.795 1205.8,-711.788 1184.53,-691.311"/>
<polygon fill="black" stroke="black" points="1186.81,-688.648 1177.22,-684.143 1181.91,-693.645 1186.81,-688.648"/>
</g>
<!-- node162&#45;&gt;node165 -->
<g id="edge310" class="edge"><title>node162&#45;&gt;node165</title>
<path fill="none" stroke="black" d="M1467.84,-791.831C1444.23,-782.116 1414.98,-770.083 1390.13,-759.859"/>
<polygon fill="black" stroke="black" points="1391.42,-756.606 1380.84,-756.038 1388.76,-763.08 1391.42,-756.606"/>
</g>
<!-- node45&#45;&gt;node151 -->
<g id="edge314" class="edge"><title>node45&#45;&gt;node151</title>
<path fill="none" stroke="black" d="M711.819,-583.713C618.963,-561.573 407.016,-508.164 345,-468 336.078,-462.221 286.865,-405.452 282,-396 244.979,-324.074 215.539,-286.618 255,-216 284.784,-162.7 313.881,-162.712 372,-144 508.127,-100.172 958.113,-91.8405 1090.84,-90.3238"/>
<polygon fill="black" stroke="black" points="1090.95,-93.8229 1100.91,-90.2151 1090.87,-86.8234 1090.95,-93.8229"/>
</g>
<!-- node45&#45;&gt;node59 -->
<g id="edge316" class="edge"><title>node45&#45;&gt;node59</title>
<path fill="none" stroke="black" d="M752.735,-575.997C744.369,-527.85 724.166,-397.253 744,-360 777.922,-296.288 859.522,-260.973 908.31,-244.888"/>
<polygon fill="black" stroke="black" points="909.433,-248.204 917.9,-241.835 907.309,-241.534 909.433,-248.204"/>
</g>
<!-- node45&#45;&gt;node66 -->
<g id="edge318" class="edge"><title>node45&#45;&gt;node66</title>
<path fill="none" stroke="black" d="M745.529,-575.953C726.536,-542.057 687.074,-465.977 673,-396 669.845,-380.314 667.986,-375.194 673,-360 676.291,-350.029 682.212,-340.394 688.506,-332.092"/>
<polygon fill="black" stroke="black" points="691.267,-334.245 694.842,-324.271 685.828,-329.838 691.267,-334.245"/>
</g>
<!-- node45&#45;&gt;node55 -->
<g id="edge322" class="edge"><title>node45&#45;&gt;node55</title>
<path fill="none" stroke="black" d="M759.509,-575.955C766.828,-538.314 783.769,-451.187 792.531,-406.125"/>
<polygon fill="black" stroke="black" points="795.999,-406.629 794.472,-396.145 789.127,-405.293 795.999,-406.629"/>
</g>
<!-- node45&#45;&gt;node64 -->
<g id="edge320" class="edge"><title>node45&#45;&gt;node64</title>
<path fill="none" stroke="black" d="M800.191,-590.355C949.634,-578.03 1435.11,-537.991 1584.71,-525.653"/>
<polygon fill="black" stroke="black" points="1585.21,-529.123 1594.89,-524.813 1584.64,-522.147 1585.21,-529.123"/>
</g>
</g>
</svg>
