<?xml version="1.0" encoding="UTF-8" standalone="no"?>
<!DOCTYPE svg PUBLIC "-//W3C//DTD SVG 1.1//EN"
 "http://www.w3.org/Graphics/SVG/1.1/DTD/svg11.dtd">
<!-- Generated by graphviz version 2.26.3 (20100126.1600)
 -->
<!-- Title: GG Pages: 1 -->
<svg width="310pt" height="332pt"
 viewBox="0.00 0.00 310.00 332.00" xmlns="http://www.w3.org/2000/svg" xmlns:xlink="http://www.w3.org/1999/xlink">
<g id="graph1" class="graph" transform="scale(1 1) rotate(0) translate(4 328)">
<title>GG</title>
<polygon fill="white" stroke="white" points="-4,5 -4,-328 307,-328 307,5 -4,5"/>
<!-- node66 -->
<g id="node1" class="node"><title>node66</title>
<polygon fill="none" stroke="black" points="193,-324 131,-324 131,-288 193,-288 193,-324"/>
<text text-anchor="middle" x="162" y="-302.7" font-family="Times Roman,serif" font-size="12.00">dalibase</text>
</g>
<!-- node151 -->
<g id="node2" class="node"><title>node151</title>
<polygon fill="none" stroke="black" points="189,-108 135,-108 135,-72 189,-72 189,-108"/>
<text text-anchor="middle" x="162" y="-86.7" font-family="Times Roman,serif" font-size="12.00">jlib</text>
</g>
<!-- node66&#45;&gt;node151 -->
<g id="edge2" class="edge"><title>node66&#45;&gt;node151</title>
<path fill="none" stroke="black" d="M131.024,-287.878C118.643,-278.826 105.742,-266.658 99,-252 92.3143,-237.464 95.324,-231.572 99,-216 107.62,-179.486 128.531,-141.489 143.907,-116.898"/>
<polygon fill="black" stroke="black" points="147.056,-118.471 149.493,-108.16 141.158,-114.701 147.056,-118.471"/>
</g>
<!-- node153 -->
<g id="node12" class="node"><title>node153</title>
<polygon fill="none" stroke="black" points="217,-180 163,-180 163,-144 217,-144 217,-180"/>
<text text-anchor="middle" x="190" y="-158.7" font-family="Times Roman,serif" font-size="12.00">mp</text>
</g>
<!-- node66&#45;&gt;node153 -->
<g id="edge12" class="edge"><title>node66&#45;&gt;node153</title>
<path fill="none" stroke="black" d="M165.546,-287.762C170.343,-263.093 178.944,-218.86 184.561,-189.973"/>
<polygon fill="black" stroke="black" points="188.009,-190.574 186.483,-180.09 181.138,-189.238 188.009,-190.574"/>
</g>
<!-- node149 -->
<g id="node15" class="node"><title>node149</title>
<polygon fill="none" stroke="black" points="162,-252 108,-252 108,-216 162,-216 162,-252"/>
<text text-anchor="middle" x="135" y="-230.7" font-family="Times Roman,serif" font-size="12.00">hrpc</text>
</g>
<!-- node66&#45;&gt;node149 -->
<g id="edge16" class="edge"><title>node66&#45;&gt;node149</title>
<path fill="none" stroke="black" d="M155.187,-287.831C152.236,-279.962 148.714,-270.571 145.445,-261.853"/>
<polygon fill="black" stroke="black" points="148.693,-260.548 141.905,-252.413 142.139,-263.006 148.693,-260.548"/>
</g>
<!-- node59 -->
<g id="node19" class="node"><title>node59</title>
<polygon fill="none" stroke="black" points="276,-252 218,-252 218,-216 276,-216 276,-252"/>
<text text-anchor="middle" x="247" y="-230.7" font-family="Times Roman,serif" font-size="12.00">remote</text>
</g>
<!-- node66&#45;&gt;node59 -->
<g id="edge22" class="edge"><title>node66&#45;&gt;node59</title>
<path fill="none" stroke="black" d="M183.449,-287.831C193.818,-279.048 206.423,-268.371 217.665,-258.849"/>
<polygon fill="black" stroke="black" points="220.19,-261.297 225.558,-252.163 215.665,-255.956 220.19,-261.297"/>
</g>
<!-- node152 -->
<g id="node4" class="node"><title>node152</title>
<polygon fill="none" stroke="black" points="40,-36 0.0563759,-18 40,-3.55271e-15 79.9436,-18 40,-36"/>
<text text-anchor="middle" x="40" y="-14.7" font-family="Times Roman,serif" font-size="12.00">lzma</text>
</g>
<!-- node151&#45;&gt;node152 -->
<g id="edge4" class="edge"><title>node151&#45;&gt;node152</title>
<path fill="none" stroke="black" d="M134.924,-74.0209C114.47,-61.9494 86.5536,-45.4743 66.293,-33.5172"/>
<polygon fill="black" stroke="black" points="67.968,-30.4417 57.577,-28.3733 64.4102,-36.4701 67.968,-30.4417"/>
</g>
<!-- node187 -->
<g id="node6" class="node"><title>node187</title>
<ellipse fill="none" stroke="black" cx="125" cy="-18" rx="27" ry="18"/>
<text text-anchor="middle" x="125" y="-14.7" font-family="Times Roman,serif" font-size="12.00">dl</text>
</g>
<!-- node151&#45;&gt;node187 -->
<g id="edge6" class="edge"><title>node151&#45;&gt;node187</title>
<path fill="none" stroke="black" d="M152.663,-71.8314C148.405,-63.5451 143.28,-53.5727 138.605,-44.4748"/>
<polygon fill="black" stroke="black" points="141.635,-42.7123 133.951,-35.4177 135.408,-45.9118 141.635,-42.7123"/>
</g>
<!-- node179 -->
<g id="node8" class="node"><title>node179</title>
<ellipse fill="none" stroke="black" cx="200" cy="-18" rx="30.0465" ry="18"/>
<text text-anchor="middle" x="200" y="-14.7" font-family="Times Roman,serif" font-size="12.00">crypt</text>
</g>
<!-- node151&#45;&gt;node179 -->
<g id="edge8" class="edge"><title>node151&#45;&gt;node179</title>
<path fill="none" stroke="black" d="M171.589,-71.8314C175.962,-63.5451 181.226,-53.5727 186.027,-44.4748"/>
<polygon fill="black" stroke="black" points="189.235,-45.8952 190.807,-35.4177 183.044,-42.6279 189.235,-45.8952"/>
</g>
<!-- node188 -->
<g id="node10" class="node"><title>node188</title>
<ellipse fill="none" stroke="black" cx="275" cy="-18" rx="27" ry="18"/>
<text text-anchor="middle" x="275" y="-14.7" font-family="Times Roman,serif" font-size="12.00">rt</text>
</g>
<!-- node151&#45;&gt;node188 -->
<g id="edge10" class="edge"><title>node151&#45;&gt;node188</title>
<path fill="none" stroke="black" d="M189.066,-72.7542C206.414,-61.7009 228.898,-47.375 246.516,-36.1494"/>
<polygon fill="black" stroke="black" points="248.679,-38.9209 255.232,-30.5955 244.918,-33.0174 248.679,-38.9209"/>
</g>
<!-- node153&#45;&gt;node151 -->
<g id="edge14" class="edge"><title>node153&#45;&gt;node151</title>
<path fill="none" stroke="black" d="M182.934,-143.831C179.874,-135.962 176.222,-126.571 172.832,-117.853"/>
<polygon fill="black" stroke="black" points="176.047,-116.465 169.161,-108.413 169.523,-119.002 176.047,-116.465"/>
</g>
<!-- node149&#45;&gt;node151 -->
<g id="edge18" class="edge"><title>node149&#45;&gt;node151</title>
<path fill="none" stroke="black" d="M138.42,-215.762C143.045,-191.093 151.339,-146.86 156.755,-117.973"/>
<polygon fill="black" stroke="black" points="160.205,-118.563 158.608,-108.09 153.325,-117.273 160.205,-118.563"/>
</g>
<!-- node149&#45;&gt;node153 -->
<g id="edge20" class="edge"><title>node149&#45;&gt;node153</title>
<path fill="none" stroke="black" d="M148.879,-215.831C155.214,-207.539 162.838,-197.557 169.793,-188.453"/>
<polygon fill="black" stroke="black" points="172.645,-190.485 175.934,-180.413 167.083,-186.235 172.645,-190.485"/>
</g>
<!-- node59&#45;&gt;node151 -->
<g id="edge24" class="edge"><title>node59&#45;&gt;node151</title>
<path fill="none" stroke="black" d="M246.108,-215.827C244.439,-196.69 239.661,-166.302 226,-144 218.739,-132.145 207.972,-121.612 197.332,-113.068"/>
<polygon fill="black" stroke="black" points="199.356,-110.21 189.281,-106.932 195.113,-115.777 199.356,-110.21"/>
</g>
<!-- node59&#45;&gt;node153 -->
<g id="edge26" class="edge"><title>node59&#45;&gt;node153</title>
<path fill="none" stroke="black" d="M232.616,-215.831C226.051,-207.539 218.149,-197.557 210.942,-188.453"/>
<polygon fill="black" stroke="black" points="213.528,-186.081 204.577,-180.413 208.04,-190.426 213.528,-186.081"/>
</g>
</g>
</svg>
