<?xml version="1.0" encoding="UTF-8" standalone="no"?>
<!DOCTYPE svg PUBLIC "-//W3C//DTD SVG 1.1//EN"
 "http://www.w3.org/Graphics/SVG/1.1/DTD/svg11.dtd">
<!-- Generated by graphviz version 2.26.3 (20100126.1600)
 -->
<!-- Title: GG Pages: 1 -->
<svg width="2074pt" height="476pt"
 viewBox="0.00 0.00 2073.59 476.00" xmlns="http://www.w3.org/2000/svg" xmlns:xlink="http://www.w3.org/1999/xlink">
<g id="graph1" class="graph" transform="scale(1 1) rotate(0) translate(4 472)">
<title>GG</title>
<polygon fill="white" stroke="white" points="-4,5 -4,-472 2070.59,-472 2070.59,5 -4,5"/>
<!-- node120 -->
<g id="node1" class="node"><title>node120</title>
<polygon fill="none" stroke="black" points="353.588,-468 265.588,-468 265.588,-432 353.588,-432 353.588,-468"/>
<text text-anchor="middle" x="309.588" y="-446.7" font-family="Times Roman,serif" font-size="12.00">ws_machine</text>
</g>
<!-- node151 -->
<g id="node2" class="node"><title>node151</title>
<polygon fill="none" stroke="black" points="350.588,-108 296.588,-108 296.588,-72 350.588,-72 350.588,-108"/>
<text text-anchor="middle" x="323.588" y="-86.7" font-family="Times Roman,serif" font-size="12.00">jlib</text>
</g>
<!-- node120&#45;&gt;node151 -->
<g id="edge2" class="edge"><title>node120&#45;&gt;node151</title>
<path fill="none" stroke="black" d="M265.351,-443.152C207.165,-433.562 108.656,-415.149 77.5885,-396 33.2636,-368.679 2.58849,-358.068 2.58849,-306 2.58849,-306 2.58849,-306 2.58849,-234 2.58849,-193.118 -7.76546,-172.454 21.5885,-144 58.8594,-107.871 214.446,-95.4541 286.575,-91.5853"/>
<polygon fill="black" stroke="black" points="286.779,-95.0796 296.588,-91.0748 286.422,-88.0887 286.779,-95.0796"/>
</g>
<!-- node60 -->
<g id="node12" class="node"><title>node60</title>
<polygon fill="none" stroke="black" points="124.588,-180 30.5885,-180 30.5885,-144 124.588,-144 124.588,-180"/>
<text text-anchor="middle" x="77.5885" y="-158.7" font-family="Times Roman,serif" font-size="12.00">roxiecommlib</text>
</g>
<!-- node120&#45;&gt;node60 -->
<g id="edge12" class="edge"><title>node120&#45;&gt;node60</title>
<path fill="none" stroke="black" d="M265.303,-442.761C214.294,-433.603 134.665,-416.524 112.588,-396 51.6913,-339.385 49.6541,-298.288 61.5885,-216 62.8456,-207.332 65.182,-198.118 67.6885,-189.802"/>
<polygon fill="black" stroke="black" points="71.0467,-190.792 70.769,-180.2 64.3813,-188.653 71.0467,-190.792"/>
</g>
<!-- node160 -->
<g id="node15" class="node"><title>node160</title>
<polygon fill="none" stroke="black" points="649.588,-324 595.588,-324 595.588,-288 649.588,-288 649.588,-324"/>
<text text-anchor="middle" x="622.588" y="-302.7" font-family="Times Roman,serif" font-size="12.00">xmllib</text>
</g>
<!-- node120&#45;&gt;node160 -->
<g id="edge16" class="edge"><title>node120&#45;&gt;node160</title>
<path fill="none" stroke="black" d="M351.565,-431.926C375.4,-421.575 405.748,-408.246 432.588,-396 486.313,-371.488 548.019,-342.012 586.16,-323.636"/>
<polygon fill="black" stroke="black" points="587.843,-326.71 595.33,-319.214 584.802,-320.406 587.843,-326.71"/>
</g>
<!-- node110 -->
<g id="node24" class="node"><title>node110</title>
<polygon fill="none" stroke="black" points="680.588,-396 618.588,-396 618.588,-360 680.588,-360 680.588,-396"/>
<text text-anchor="middle" x="649.588" y="-374.7" font-family="Times Roman,serif" font-size="12.00">esphttp</text>
</g>
<!-- node120&#45;&gt;node110 -->
<g id="edge26" class="edge"><title>node120&#45;&gt;node110</title>
<path fill="none" stroke="black" d="M353.689,-440.661C419.864,-426.647 543.945,-400.372 608.383,-386.726"/>
<polygon fill="black" stroke="black" points="609.137,-390.144 618.195,-384.648 607.687,-383.296 609.137,-390.144"/>
</g>
<!-- node155 -->
<g id="node31" class="node"><title>node155</title>
<polygon fill="none" stroke="black" points="1051.59,-396 959.588,-396 959.588,-360 1051.59,-360 1051.59,-396"/>
<text text-anchor="middle" x="1005.59" y="-374.7" font-family="Times Roman,serif" font-size="12.00">LdapSecurity</text>
</g>
<!-- node120&#45;&gt;node155 -->
<g id="edge38" class="edge"><title>node120&#45;&gt;node155</title>
<path fill="none" stroke="black" d="M353.654,-445.441C475.098,-432.878 814.512,-397.766 949.34,-383.819"/>
<polygon fill="black" stroke="black" points="949.867,-387.283 959.454,-382.773 949.147,-380.32 949.867,-387.283"/>
</g>
<!-- node153 -->
<g id="node38" class="node"><title>node153</title>
<polygon fill="none" stroke="black" points="283.588,-180 229.588,-180 229.588,-144 283.588,-144 283.588,-180"/>
<text text-anchor="middle" x="256.588" y="-158.7" font-family="Times Roman,serif" font-size="12.00">mp</text>
</g>
<!-- node120&#45;&gt;node153 -->
<g id="edge46" class="edge"><title>node120&#45;&gt;node153</title>
<path fill="none" stroke="black" d="M275.311,-431.882C240.615,-411.208 189.591,-373.723 171.588,-324 153.17,-273.128 196.898,-218.229 228.222,-187.187"/>
<polygon fill="black" stroke="black" points="230.706,-189.654 235.479,-180.195 225.849,-184.613 230.706,-189.654"/>
</g>
<!-- node149 -->
<g id="node41" class="node"><title>node149</title>
<polygon fill="none" stroke="black" points="124.588,-252 70.5885,-252 70.5885,-216 124.588,-216 124.588,-252"/>
<text text-anchor="middle" x="97.5885" y="-230.7" font-family="Times Roman,serif" font-size="12.00">hrpc</text>
</g>
<!-- node120&#45;&gt;node149 -->
<g id="edge50" class="edge"><title>node120&#45;&gt;node149</title>
<path fill="none" stroke="black" d="M265.587,-441.195C220.962,-431.404 156.056,-414.511 138.588,-396 104.124,-359.476 97.5214,-298.281 96.8596,-262.475"/>
<polygon fill="black" stroke="black" points="100.359,-262.22 96.8207,-252.233 93.3588,-262.247 100.359,-262.22"/>
</g>
<!-- node59 -->
<g id="node45" class="node"><title>node59</title>
<polygon fill="none" stroke="black" points="352.588,-252 294.588,-252 294.588,-216 352.588,-216 352.588,-252"/>
<text text-anchor="middle" x="323.588" y="-230.7" font-family="Times Roman,serif" font-size="12.00">remote</text>
</g>
<!-- node120&#45;&gt;node59 -->
<g id="edge56" class="edge"><title>node120&#45;&gt;node59</title>
<path fill="none" stroke="black" d="M335.094,-431.963C346.064,-422.628 357.703,-410.209 363.588,-396 382.457,-350.447 358.556,-293.859 340.415,-261.044"/>
<polygon fill="black" stroke="black" points="343.27,-258.987 335.258,-252.054 337.198,-262.47 343.27,-258.987"/>
</g>
<!-- node66 -->
<g id="node49" class="node"><title>node66</title>
<polygon fill="none" stroke="black" points="242.588,-324 180.588,-324 180.588,-288 242.588,-288 242.588,-324"/>
<text text-anchor="middle" x="211.588" y="-302.7" font-family="Times Roman,serif" font-size="12.00">dalibase</text>
</g>
<!-- node120&#45;&gt;node66 -->
<g id="edge62" class="edge"><title>node120&#45;&gt;node66</title>
<path fill="none" stroke="black" d="M288.417,-431.923C277.692,-422.045 264.988,-409.164 255.588,-396 241.71,-376.563 230.061,-352.082 222.242,-333.561"/>
<polygon fill="black" stroke="black" points="225.442,-332.139 218.407,-324.217 218.966,-334.797 225.442,-332.139"/>
</g>
<!-- node55 -->
<g id="node55" class="node"><title>node55</title>
<polygon fill="none" stroke="black" points="354.588,-396 264.588,-396 264.588,-360 354.588,-360 354.588,-396"/>
<text text-anchor="middle" x="309.588" y="-374.7" font-family="Times Roman,serif" font-size="12.00">environment</text>
</g>
<!-- node120&#45;&gt;node55 -->
<g id="edge72" class="edge"><title>node120&#45;&gt;node55</title>
<path fill="none" stroke="black" d="M309.588,-431.831C309.588,-424.131 309.588,-414.974 309.588,-406.417"/>
<polygon fill="black" stroke="black" points="313.089,-406.413 309.588,-396.413 306.089,-406.413 313.089,-406.413"/>
</g>
<!-- node156 -->
<g id="node61" class="node"><title>node156</title>
<polygon fill="none" stroke="black" points="1572.59,-396 1478.59,-396 1478.59,-360 1572.59,-360 1572.59,-396"/>
<text text-anchor="middle" x="1525.59" y="-374.7" font-family="Times Roman,serif" font-size="12.00">securesocket</text>
</g>
<!-- node120&#45;&gt;node156 -->
<g id="edge82" class="edge"><title>node120&#45;&gt;node156</title>
<path fill="none" stroke="black" d="M353.946,-447.374C540.237,-436.343 1259.31,-393.766 1468.31,-381.391"/>
<polygon fill="black" stroke="black" points="1468.68,-384.876 1478.46,-380.791 1468.27,-377.888 1468.68,-384.876"/>
</g>
<!-- node152 -->
<g id="node4" class="node"><title>node152</title>
<polygon fill="none" stroke="black" points="201.588,-36 161.645,-18 201.588,-3.55271e-15 241.532,-18 201.588,-36"/>
<text text-anchor="middle" x="201.588" y="-14.7" font-family="Times Roman,serif" font-size="12.00">lzma</text>
</g>
<!-- node151&#45;&gt;node152 -->
<g id="edge4" class="edge"><title>node151&#45;&gt;node152</title>
<path fill="none" stroke="black" d="M296.513,-74.0209C276.058,-61.9494 248.142,-45.4743 227.881,-33.5172"/>
<polygon fill="black" stroke="black" points="229.557,-30.4417 219.166,-28.3733 225.999,-36.4701 229.557,-30.4417"/>
</g>
<!-- node187 -->
<g id="node6" class="node"><title>node187</title>
<ellipse fill="none" stroke="black" cx="286.588" cy="-18" rx="27" ry="18"/>
<text text-anchor="middle" x="286.588" y="-14.7" font-family="Times Roman,serif" font-size="12.00">dl</text>
</g>
<!-- node151&#45;&gt;node187 -->
<g id="edge6" class="edge"><title>node151&#45;&gt;node187</title>
<path fill="none" stroke="black" d="M314.252,-71.8314C309.994,-63.5451 304.869,-53.5727 300.194,-44.4748"/>
<polygon fill="black" stroke="black" points="303.223,-42.7123 295.539,-35.4177 296.997,-45.9118 303.223,-42.7123"/>
</g>
<!-- node179 -->
<g id="node8" class="node"><title>node179</title>
<ellipse fill="none" stroke="black" cx="361.588" cy="-18" rx="30.0465" ry="18"/>
<text text-anchor="middle" x="361.588" y="-14.7" font-family="Times Roman,serif" font-size="12.00">crypt</text>
</g>
<!-- node151&#45;&gt;node179 -->
<g id="edge8" class="edge"><title>node151&#45;&gt;node179</title>
<path fill="none" stroke="black" d="M333.177,-71.8314C337.551,-63.5451 342.814,-53.5727 347.616,-44.4748"/>
<polygon fill="black" stroke="black" points="350.824,-45.8952 352.396,-35.4177 344.633,-42.6279 350.824,-45.8952"/>
</g>
<!-- node188 -->
<g id="node10" class="node"><title>node188</title>
<ellipse fill="none" stroke="black" cx="436.588" cy="-18" rx="27" ry="18"/>
<text text-anchor="middle" x="436.588" y="-14.7" font-family="Times Roman,serif" font-size="12.00">rt</text>
</g>
<!-- node151&#45;&gt;node188 -->
<g id="edge10" class="edge"><title>node151&#45;&gt;node188</title>
<path fill="none" stroke="black" d="M350.655,-72.7542C368.002,-61.7009 390.486,-47.375 408.104,-36.1494"/>
<polygon fill="black" stroke="black" points="410.268,-38.9209 416.821,-30.5955 406.506,-33.0174 410.268,-38.9209"/>
</g>
<!-- node60&#45;&gt;node151 -->
<g id="edge14" class="edge"><title>node60&#45;&gt;node151</title>
<path fill="none" stroke="black" d="M124.873,-148.032C129.507,-146.668 134.139,-145.306 138.588,-144 189.796,-128.971 249.011,-111.707 286.376,-100.827"/>
<polygon fill="black" stroke="black" points="287.687,-104.091 296.31,-97.9351 285.731,-97.3699 287.687,-104.091"/>
</g>
<!-- node160&#45;&gt;node151 -->
<g id="edge24" class="edge"><title>node160&#45;&gt;node151</title>
<path fill="none" stroke="black" d="M623.358,-287.748C623.231,-267.978 620.116,-236.522 603.588,-216 541.323,-138.685 421.477,-107.179 360.773,-95.7476"/>
<polygon fill="black" stroke="black" points="361.317,-92.2892 350.855,-93.9603 360.075,-99.1783 361.317,-92.2892"/>
</g>
<!-- node180 -->
<g id="node17" class="node"><title>node180</title>
<ellipse fill="none" stroke="black" cx="935.588" cy="-234" rx="85.1424" ry="18"/>
<text text-anchor="middle" x="935.588" y="-230.7" font-family="Times Roman,serif" font-size="12.00">/usr/lib/libxalan&#45;c.so</text>
</g>
<!-- node160&#45;&gt;node180 -->
<g id="edge18" class="edge"><title>node160&#45;&gt;node180</title>
<path fill="none" stroke="black" d="M649.818,-299.736C698.087,-288.633 799.982,-265.194 868.126,-249.518"/>
<polygon fill="black" stroke="black" points="868.964,-252.917 877.925,-247.264 867.395,-246.095 868.964,-252.917"/>
</g>
<!-- node181 -->
<g id="node19" class="node"><title>node181</title>
<ellipse fill="none" stroke="black" cx="501.588" cy="-234" rx="93.0912" ry="18"/>
<text text-anchor="middle" x="501.588" y="-230.7" font-family="Times Roman,serif" font-size="12.00">/usr/lib/libxalanMsg.so</text>
</g>
<!-- node160&#45;&gt;node181 -->
<g id="edge20" class="edge"><title>node160&#45;&gt;node181</title>
<path fill="none" stroke="black" d="M595.434,-289.842C578.907,-280.008 557.553,-267.301 539.39,-256.494"/>
<polygon fill="black" stroke="black" points="541.149,-253.468 530.766,-251.362 537.57,-259.483 541.149,-253.468"/>
</g>
<!-- node182 -->
<g id="node21" class="node"><title>node182</title>
<ellipse fill="none" stroke="black" cx="741.588" cy="-234" rx="90.9919" ry="18"/>
<text text-anchor="middle" x="741.588" y="-230.7" font-family="Times Roman,serif" font-size="12.00">/usr/lib/libxerces&#45;c.so</text>
</g>
<!-- node160&#45;&gt;node182 -->
<g id="edge22" class="edge"><title>node160&#45;&gt;node182</title>
<path fill="none" stroke="black" d="M649.591,-289.662C665.709,-279.911 686.415,-267.383 704.1,-256.682"/>
<polygon fill="black" stroke="black" points="706.289,-259.449 713.033,-251.277 702.665,-253.459 706.289,-259.449"/>
</g>
<!-- node110&#45;&gt;node151 -->
<g id="edge34" class="edge"><title>node110&#45;&gt;node151</title>
<path fill="none" stroke="black" d="M680.895,-360.511C697.687,-350.602 718.402,-337.51 735.588,-324 753.626,-309.821 751.983,-298.092 772.588,-288 879.117,-235.824 1105.74,-306.947 1029.59,-216 942.717,-112.252 494.39,-93.8467 361.042,-90.6543"/>
<polygon fill="black" stroke="black" points="360.991,-87.1523 350.915,-90.427 360.834,-94.1506 360.991,-87.1523"/>
</g>
<!-- node110&#45;&gt;node160 -->
<g id="edge36" class="edge"><title>node110&#45;&gt;node160</title>
<path fill="none" stroke="black" d="M642.775,-359.831C639.824,-351.962 636.303,-342.571 633.033,-333.853"/>
<polygon fill="black" stroke="black" points="636.282,-332.548 629.493,-324.413 629.728,-335.006 636.282,-332.548"/>
</g>
<!-- node110&#45;&gt;node180 -->
<g id="edge28" class="edge"><title>node110&#45;&gt;node180</title>
<path fill="none" stroke="black" d="M667.124,-360C692.066,-334.464 735.268,-290.515 739.588,-288 761.161,-275.443 818.726,-260.278 865.927,-249.22"/>
<polygon fill="black" stroke="black" points="866.874,-252.593 875.825,-246.925 865.292,-245.774 866.874,-252.593"/>
</g>
<!-- node110&#45;&gt;node181 -->
<g id="edge30" class="edge"><title>node110&#45;&gt;node181</title>
<path fill="none" stroke="black" d="M627.222,-359.809C614.95,-349.588 599.624,-336.422 586.588,-324 564.534,-302.983 540.842,-277.647 524.088,-259.219"/>
<polygon fill="black" stroke="black" points="526.661,-256.846 517.358,-251.777 521.47,-261.541 526.661,-256.846"/>
</g>
<!-- node110&#45;&gt;node182 -->
<g id="edge32" class="edge"><title>node110&#45;&gt;node182</title>
<path fill="none" stroke="black" d="M659.359,-359.707C669.395,-341.261 685.748,-312.139 701.588,-288 707.637,-278.782 714.671,-269.012 721.138,-260.352"/>
<polygon fill="black" stroke="black" points="724.12,-262.212 727.359,-252.125 718.536,-257.99 724.12,-262.212"/>
</g>
<!-- node155&#45;&gt;node151 -->
<g id="edge40" class="edge"><title>node155&#45;&gt;node151</title>
<path fill="none" stroke="black" d="M1037.87,-359.841C1050.53,-350.852 1063.67,-338.742 1070.59,-324 1077.39,-309.516 1072.75,-303.853 1070.59,-288 1066.1,-255.093 1070.01,-242.939 1050.59,-216 1017.06,-169.507 997.635,-163.093 943.588,-144 835.041,-105.653 477.602,-93.7298 360.846,-90.8105"/>
<polygon fill="black" stroke="black" points="360.711,-87.3063 350.629,-90.5629 360.542,-94.3043 360.711,-87.3063"/>
</g>
<!-- node189 -->
<g id="node34" class="node"><title>node189</title>
<ellipse fill="none" stroke="black" cx="1266.59" cy="-306" rx="148.987" ry="18"/>
<text text-anchor="middle" x="1266.59" y="-302.7" font-family="Times Roman,serif" font-size="12.00">/usr/lib/x86_64&#45;linux&#45;gnu/libldap_r.so</text>
</g>
<!-- node155&#45;&gt;node189 -->
<g id="edge42" class="edge"><title>node155&#45;&gt;node189</title>
<path fill="none" stroke="black" d="M1051.65,-365.294C1091.87,-354.198 1150.84,-337.93 1196.85,-325.239"/>
<polygon fill="black" stroke="black" points="1198.04,-328.54 1206.75,-322.507 1196.18,-321.792 1198.04,-328.54"/>
</g>
<!-- node190 -->
<g id="node36" class="node"><title>node190</title>
<ellipse fill="none" stroke="black" cx="921.588" cy="-306" rx="139.888" ry="18"/>
<text text-anchor="middle" x="921.588" y="-302.7" font-family="Times Roman,serif" font-size="12.00">/usr/lib/x86_64&#45;linux&#45;gnu/liblber.so</text>
</g>
<!-- node155&#45;&gt;node190 -->
<g id="edge44" class="edge"><title>node155&#45;&gt;node190</title>
<path fill="none" stroke="black" d="M984.392,-359.831C974.067,-350.981 961.498,-340.208 950.325,-330.631"/>
<polygon fill="black" stroke="black" points="952.358,-327.764 942.487,-323.913 947.802,-333.079 952.358,-327.764"/>
</g>
<!-- node153&#45;&gt;node151 -->
<g id="edge48" class="edge"><title>node153&#45;&gt;node151</title>
<path fill="none" stroke="black" d="M273.495,-143.831C281.37,-135.369 290.88,-125.149 299.49,-115.897"/>
<polygon fill="black" stroke="black" points="302.204,-118.118 306.454,-108.413 297.079,-113.35 302.204,-118.118"/>
</g>
<!-- node149&#45;&gt;node151 -->
<g id="edge52" class="edge"><title>node149&#45;&gt;node151</title>
<path fill="none" stroke="black" d="M109.463,-215.689C123.36,-195.569 148.128,-163.522 176.588,-144 210.329,-120.856 255.199,-106.262 286.454,-98.1634"/>
<polygon fill="black" stroke="black" points="287.638,-101.476 296.496,-95.6629 285.946,-94.683 287.638,-101.476"/>
</g>
<!-- node149&#45;&gt;node153 -->
<g id="edge54" class="edge"><title>node149&#45;&gt;node153</title>
<path fill="none" stroke="black" d="M124.922,-221.623C151.167,-209.738 190.992,-191.704 219.97,-178.582"/>
<polygon fill="black" stroke="black" points="221.681,-181.649 229.347,-174.336 218.793,-175.273 221.681,-181.649"/>
</g>
<!-- node59&#45;&gt;node151 -->
<g id="edge58" class="edge"><title>node59&#45;&gt;node151</title>
<path fill="none" stroke="black" d="M323.588,-215.762C323.588,-191.201 323.588,-147.247 323.588,-118.354"/>
<polygon fill="black" stroke="black" points="327.089,-118.09 323.588,-108.09 320.089,-118.09 327.089,-118.09"/>
</g>
<!-- node59&#45;&gt;node153 -->
<g id="edge60" class="edge"><title>node59&#45;&gt;node153</title>
<path fill="none" stroke="black" d="M306.682,-215.831C298.807,-207.369 289.296,-197.149 280.687,-187.897"/>
<polygon fill="black" stroke="black" points="283.098,-185.35 273.723,-180.413 277.973,-190.118 283.098,-185.35"/>
</g>
<!-- node66&#45;&gt;node151 -->
<g id="edge64" class="edge"><title>node66&#45;&gt;node151</title>
<path fill="none" stroke="black" d="M207.248,-287.972C200.652,-256.089 191.707,-188.891 220.588,-144 235.5,-120.823 263.794,-107.009 286.959,-99.1635"/>
<polygon fill="black" stroke="black" points="288.03,-102.496 296.519,-96.1565 285.929,-95.8184 288.03,-102.496"/>
</g>
<!-- node66&#45;&gt;node153 -->
<g id="edge66" class="edge"><title>node66&#45;&gt;node153</title>
<path fill="none" stroke="black" d="M217.288,-287.762C224.997,-263.093 238.82,-218.86 247.847,-189.973"/>
<polygon fill="black" stroke="black" points="251.293,-190.678 250.935,-180.09 244.612,-188.59 251.293,-190.678"/>
</g>
<!-- node66&#45;&gt;node149 -->
<g id="edge68" class="edge"><title>node66&#45;&gt;node149</title>
<path fill="none" stroke="black" d="M182.821,-287.831C167.795,-278.341 149.266,-266.639 133.327,-256.572"/>
<polygon fill="black" stroke="black" points="135.101,-253.552 124.777,-251.171 131.363,-259.471 135.101,-253.552"/>
</g>
<!-- node66&#45;&gt;node59 -->
<g id="edge70" class="edge"><title>node66&#45;&gt;node59</title>
<path fill="none" stroke="black" d="M239.851,-287.831C254.044,-278.707 271.417,-267.539 286.652,-257.745"/>
<polygon fill="black" stroke="black" points="288.816,-260.515 295.335,-252.163 285.031,-254.626 288.816,-260.515"/>
</g>
<!-- node55&#45;&gt;node151 -->
<g id="edge74" class="edge"><title>node55&#45;&gt;node151</title>
<path fill="none" stroke="black" d="M319.712,-359.931C332.436,-336.084 353.581,-292.391 361.588,-252 371.007,-204.491 351.79,-149.728 337.406,-117.589"/>
<polygon fill="black" stroke="black" points="340.516,-115.974 333.134,-108.374 334.165,-118.918 340.516,-115.974"/>
</g>
<!-- node55&#45;&gt;node153 -->
<g id="edge76" class="edge"><title>node55&#45;&gt;node153</title>
<path fill="none" stroke="black" d="M305.161,-359.955C295.925,-322.314 274.546,-235.187 263.489,-190.125"/>
<polygon fill="black" stroke="black" points="266.823,-189.023 261.041,-180.145 260.025,-190.691 266.823,-189.023"/>
</g>
<!-- node55&#45;&gt;node59 -->
<g id="edge78" class="edge"><title>node55&#45;&gt;node59</title>
<path fill="none" stroke="black" d="M311.362,-359.762C313.749,-335.201 318.023,-291.247 320.832,-262.354"/>
<polygon fill="black" stroke="black" points="324.346,-262.381 321.83,-252.09 317.378,-261.704 324.346,-262.381"/>
</g>
<!-- node55&#45;&gt;node66 -->
<g id="edge80" class="edge"><title>node55&#45;&gt;node66</title>
<path fill="none" stroke="black" d="M284.859,-359.831C272.672,-350.878 257.806,-339.956 244.657,-330.295"/>
<polygon fill="black" stroke="black" points="246.441,-327.263 236.31,-324.163 242.297,-332.904 246.441,-327.263"/>
</g>
<!-- node156&#45;&gt;node151 -->
<g id="edge84" class="edge"><title>node156&#45;&gt;node151</title>
<path fill="none" stroke="black" d="M1503.78,-359.768C1491.54,-349.423 1476.07,-336.152 1462.59,-324 1445.31,-308.425 1444.53,-299.976 1424.59,-288 1251.8,-184.248 1192.04,-184.381 994.588,-144 871.773,-118.883 483.599,-97.9415 361.047,-91.8151"/>
<polygon fill="black" stroke="black" points="360.852,-88.3012 350.691,-91.3012 360.505,-95.2926 360.852,-88.3012"/>
</g>
<!-- node191 -->
<g id="node64" class="node"><title>node191</title>
<ellipse fill="none" stroke="black" cx="1608.59" cy="-306" rx="137.138" ry="18"/>
<text text-anchor="middle" x="1608.59" y="-302.7" font-family="Times Roman,serif" font-size="12.00">/usr/lib/x86_64&#45;linux&#45;gnu/libssl.so</text>
</g>
<!-- node156&#45;&gt;node191 -->
<g id="edge86" class="edge"><title>node156&#45;&gt;node191</title>
<path fill="none" stroke="black" d="M1546.53,-359.831C1556.73,-350.981 1569.15,-340.208 1580.19,-330.631"/>
<polygon fill="black" stroke="black" points="1582.68,-333.11 1587.94,-323.913 1578.09,-327.822 1582.68,-333.11"/>
</g>
<!-- node192 -->
<g id="node66" class="node"><title>node192</title>
<ellipse fill="none" stroke="black" cx="1914.59" cy="-306" rx="150.937" ry="18"/>
<text text-anchor="middle" x="1914.59" y="-302.7" font-family="Times Roman,serif" font-size="12.00">/usr/lib/x86_64&#45;linux&#45;gnu/libcrypto.so</text>
</g>
<!-- node156&#45;&gt;node192 -->
<g id="edge88" class="edge"><title>node156&#45;&gt;node192</title>
<path fill="none" stroke="black" d="M1572.9,-369.243C1634.74,-357.797 1744.4,-337.5 1822.82,-322.986"/>
<polygon fill="black" stroke="black" points="1823.5,-326.419 1832.7,-321.157 1822.23,-319.535 1823.5,-326.419"/>
</g>
</g>
</svg>
