<?xml version="1.0" encoding="UTF-8" standalone="no"?>
<!DOCTYPE svg PUBLIC "-//W3C//DTD SVG 1.1//EN"
 "http://www.w3.org/Graphics/SVG/1.1/DTD/svg11.dtd">
<!-- Generated by graphviz version 2.26.3 (20100126.1600)
 -->
<!-- Title: GG Pages: 1 -->
<svg width="1041pt" height="332pt"
 viewBox="0.00 0.00 1041.00 332.00" xmlns="http://www.w3.org/2000/svg" xmlns:xlink="http://www.w3.org/1999/xlink">
<g id="graph1" class="graph" transform="scale(1 1) rotate(0) translate(4 328)">
<title>GG</title>
<polygon fill="white" stroke="white" points="-4,5 -4,-328 1038,-328 1038,5 -4,5"/>
<!-- node53 -->
<g id="node1" class="node"><title>node53</title>
<polygon fill="none" stroke="black" points="192,-324 132,-324 132,-288 192,-288 192,-324"/>
<text text-anchor="middle" x="162" y="-302.7" font-family="Times Roman,serif" font-size="12.00">deftype</text>
</g>
<!-- node151 -->
<g id="node2" class="node"><title>node151</title>
<polygon fill="none" stroke="black" points="189,-108 135,-108 135,-72 189,-72 189,-108"/>
<text text-anchor="middle" x="162" y="-86.7" font-family="Times Roman,serif" font-size="12.00">jlib</text>
</g>
<!-- node53&#45;&gt;node151 -->
<g id="edge2" class="edge"><title>node53&#45;&gt;node151</title>
<path fill="none" stroke="black" d="M151.914,-287.791C136.512,-257.567 110.471,-195.289 126,-144 128.956,-134.236 134.325,-124.623 140.03,-116.276"/>
<polygon fill="black" stroke="black" points="142.941,-118.224 146.01,-108.083 137.287,-114.097 142.941,-118.224"/>
</g>
<!-- node147 -->
<g id="node12" class="node"><title>node147</title>
<polygon fill="none" stroke="black" points="189,-180 135,-180 135,-144 189,-144 189,-180"/>
<text text-anchor="middle" x="162" y="-158.7" font-family="Times Roman,serif" font-size="12.00">nbcd</text>
</g>
<!-- node53&#45;&gt;node147 -->
<g id="edge12" class="edge"><title>node53&#45;&gt;node147</title>
<path fill="none" stroke="black" d="M162,-287.762C162,-263.201 162,-219.247 162,-190.354"/>
<polygon fill="black" stroke="black" points="165.5,-190.09 162,-180.09 158.5,-190.09 165.5,-190.09"/>
</g>
<!-- node146 -->
<g id="node15" class="node"><title>node146</title>
<polygon fill="none" stroke="black" points="391,-252 337,-252 337,-216 391,-216 391,-252"/>
<text text-anchor="middle" x="364" y="-230.7" font-family="Times Roman,serif" font-size="12.00">eclrtl</text>
</g>
<!-- node53&#45;&gt;node146 -->
<g id="edge16" class="edge"><title>node53&#45;&gt;node146</title>
<path fill="none" stroke="black" d="M192.241,-295.221C228.209,-282.401 288.236,-261.005 326.956,-247.204"/>
<polygon fill="black" stroke="black" points="328.549,-250.352 336.793,-243.697 326.199,-243.758 328.549,-250.352"/>
</g>
<!-- node152 -->
<g id="node4" class="node"><title>node152</title>
<polygon fill="none" stroke="black" points="40,-36 0.0563759,-18 40,-3.55271e-15 79.9436,-18 40,-36"/>
<text text-anchor="middle" x="40" y="-14.7" font-family="Times Roman,serif" font-size="12.00">lzma</text>
</g>
<!-- node151&#45;&gt;node152 -->
<g id="edge4" class="edge"><title>node151&#45;&gt;node152</title>
<path fill="none" stroke="black" d="M134.924,-74.0209C114.47,-61.9494 86.5536,-45.4743 66.293,-33.5172"/>
<polygon fill="black" stroke="black" points="67.968,-30.4417 57.577,-28.3733 64.4102,-36.4701 67.968,-30.4417"/>
</g>
<!-- node187 -->
<g id="node6" class="node"><title>node187</title>
<ellipse fill="none" stroke="black" cx="125" cy="-18" rx="27" ry="18"/>
<text text-anchor="middle" x="125" y="-14.7" font-family="Times Roman,serif" font-size="12.00">dl</text>
</g>
<!-- node151&#45;&gt;node187 -->
<g id="edge6" class="edge"><title>node151&#45;&gt;node187</title>
<path fill="none" stroke="black" d="M152.663,-71.8314C148.405,-63.5451 143.28,-53.5727 138.605,-44.4748"/>
<polygon fill="black" stroke="black" points="141.635,-42.7123 133.951,-35.4177 135.408,-45.9118 141.635,-42.7123"/>
</g>
<!-- node179 -->
<g id="node8" class="node"><title>node179</title>
<ellipse fill="none" stroke="black" cx="200" cy="-18" rx="30.0465" ry="18"/>
<text text-anchor="middle" x="200" y="-14.7" font-family="Times Roman,serif" font-size="12.00">crypt</text>
</g>
<!-- node151&#45;&gt;node179 -->
<g id="edge8" class="edge"><title>node151&#45;&gt;node179</title>
<path fill="none" stroke="black" d="M171.589,-71.8314C175.962,-63.5451 181.226,-53.5727 186.027,-44.4748"/>
<polygon fill="black" stroke="black" points="189.235,-45.8952 190.807,-35.4177 183.044,-42.6279 189.235,-45.8952"/>
</g>
<!-- node188 -->
<g id="node10" class="node"><title>node188</title>
<ellipse fill="none" stroke="black" cx="275" cy="-18" rx="27" ry="18"/>
<text text-anchor="middle" x="275" y="-14.7" font-family="Times Roman,serif" font-size="12.00">rt</text>
</g>
<!-- node151&#45;&gt;node188 -->
<g id="edge10" class="edge"><title>node151&#45;&gt;node188</title>
<path fill="none" stroke="black" d="M189.066,-72.7542C206.414,-61.7009 228.898,-47.375 246.516,-36.1494"/>
<polygon fill="black" stroke="black" points="248.679,-38.9209 255.232,-30.5955 244.918,-33.0174 248.679,-38.9209"/>
</g>
<!-- node147&#45;&gt;node151 -->
<g id="edge14" class="edge"><title>node147&#45;&gt;node151</title>
<path fill="none" stroke="black" d="M162,-143.831C162,-136.131 162,-126.974 162,-118.417"/>
<polygon fill="black" stroke="black" points="165.5,-118.413 162,-108.413 158.5,-118.413 165.5,-118.413"/>
</g>
<!-- node146&#45;&gt;node151 -->
<g id="edge26" class="edge"><title>node146&#45;&gt;node151</title>
<path fill="none" stroke="black" d="M336.805,-226.726C309.463,-218.496 267.028,-203.147 236,-180 212.66,-162.588 192.17,-136.3 178.705,-116.624"/>
<polygon fill="black" stroke="black" points="181.486,-114.485 173.028,-108.105 175.661,-118.367 181.486,-114.485"/>
</g>
<!-- node146&#45;&gt;node147 -->
<g id="edge28" class="edge"><title>node146&#45;&gt;node147</title>
<path fill="none" stroke="black" d="M336.958,-225.75C304.754,-215.737 249.477,-197.954 203,-180 201.595,-179.457 200.168,-178.894 198.73,-178.315"/>
<polygon fill="black" stroke="black" points="199.782,-174.962 189.205,-174.352 197.093,-181.425 199.782,-174.962"/>
</g>
<!-- node186 -->
<g id="node17" class="node"><title>node186</title>
<ellipse fill="none" stroke="black" cx="364" cy="-162" rx="118.939" ry="18"/>
<text text-anchor="middle" x="364" y="-158.7" font-family="Times Roman,serif" font-size="12.00">/usr/lib/libboost_regex&#45;mt.so</text>
</g>
<!-- node146&#45;&gt;node186 -->
<g id="edge18" class="edge"><title>node146&#45;&gt;node186</title>
<path fill="none" stroke="black" d="M364,-215.831C364,-208.131 364,-198.974 364,-190.417"/>
<polygon fill="black" stroke="black" points="367.5,-190.413 364,-180.413 360.5,-190.413 367.5,-190.413"/>
</g>
<!-- node183 -->
<g id="node19" class="node"><title>node183</title>
<ellipse fill="none" stroke="black" cx="579" cy="-162" rx="77.9931" ry="18"/>
<text text-anchor="middle" x="579" y="-158.7" font-family="Times Roman,serif" font-size="12.00">/usr/lib/libicuuc.so</text>
</g>
<!-- node146&#45;&gt;node183 -->
<g id="edge20" class="edge"><title>node146&#45;&gt;node183</title>
<path fill="none" stroke="black" d="M391.23,-224.881C424.67,-213.682 482.188,-194.421 524.776,-180.159"/>
<polygon fill="black" stroke="black" points="526.067,-183.418 534.438,-176.923 523.844,-176.78 526.067,-183.418"/>
</g>
<!-- node184 -->
<g id="node21" class="node"><title>node184</title>
<ellipse fill="none" stroke="black" cx="760" cy="-162" rx="85.1424" ry="18"/>
<text text-anchor="middle" x="760" y="-158.7" font-family="Times Roman,serif" font-size="12.00">/usr/lib/libicui18n.so</text>
</g>
<!-- node146&#45;&gt;node184 -->
<g id="edge22" class="edge"><title>node146&#45;&gt;node184</title>
<path fill="none" stroke="black" d="M391.091,-229.271C443.978,-220.013 564.66,-198.762 666,-180 672.751,-178.75 679.772,-177.435 686.799,-176.108"/>
<polygon fill="black" stroke="black" points="687.896,-179.462 697.069,-174.161 686.592,-172.585 687.896,-179.462"/>
</g>
<!-- node185 -->
<g id="node23" class="node"><title>node185</title>
<ellipse fill="none" stroke="black" cx="948" cy="-162" rx="85.1424" ry="18"/>
<text text-anchor="middle" x="948" y="-158.7" font-family="Times Roman,serif" font-size="12.00">/usr/lib/libicudata.so</text>
</g>
<!-- node146&#45;&gt;node185 -->
<g id="edge24" class="edge"><title>node146&#45;&gt;node185</title>
<path fill="none" stroke="black" d="M391.189,-231.768C465.538,-225.498 678.393,-206.447 854,-180 861.369,-178.89 869.041,-177.617 876.683,-176.271"/>
<polygon fill="black" stroke="black" points="877.465,-179.687 886.685,-174.469 876.223,-172.798 877.465,-179.687"/>
</g>
</g>
</svg>
