<?xml version="1.0" encoding="UTF-8" standalone="no"?>
<!DOCTYPE svg PUBLIC "-//W3C//DTD SVG 1.1//EN"
 "http://www.w3.org/Graphics/SVG/1.1/DTD/svg11.dtd">
<!-- Generated by graphviz version 2.26.3 (20100126.1600)
 -->
<!-- Title: GG Pages: 1 -->
<svg width="317pt" height="404pt"
 viewBox="0.00 0.00 317.00 404.00" xmlns="http://www.w3.org/2000/svg" xmlns:xlink="http://www.w3.org/1999/xlink">
<g id="graph1" class="graph" transform="scale(1 1) rotate(0) translate(4 400)">
<title>GG</title>
<polygon fill="white" stroke="white" points="-4,5 -4,-400 314,-400 314,5 -4,5"/>
<!-- node71 -->
<g id="node1" class="node"><title>node71</title>
<polygon fill="none" stroke="black" points="189.078,-383.562 147,-396 104.922,-383.562 104.961,-363.438 189.039,-363.438 189.078,-383.562"/>
<text text-anchor="middle" x="147" y="-374.7" font-family="Times Roman,serif" font-size="12.00">datest</text>
</g>
<!-- node151 -->
<g id="node2" class="node"><title>node151</title>
<polygon fill="none" stroke="black" points="189,-108 135,-108 135,-72 189,-72 189,-108"/>
<text text-anchor="middle" x="162" y="-86.7" font-family="Times Roman,serif" font-size="12.00">jlib</text>
</g>
<!-- node71&#45;&gt;node151 -->
<g id="edge2" class="edge"><title>node71&#45;&gt;node151</title>
<path fill="none" stroke="black" d="M128.818,-363.344C97.305,-336.037 37.5863,-274.798 56,-216 69.007,-174.466 104.035,-137.769 130.29,-114.846"/>
<polygon fill="black" stroke="black" points="132.773,-117.329 138.123,-108.184 128.238,-111.997 132.773,-117.329"/>
</g>
<!-- node153 -->
<g id="node12" class="node"><title>node153</title>
<polygon fill="none" stroke="black" points="189,-180 135,-180 135,-144 189,-144 189,-180"/>
<text text-anchor="middle" x="162" y="-158.7" font-family="Times Roman,serif" font-size="12.00">mp</text>
</g>
<!-- node71&#45;&gt;node153 -->
<g id="edge12" class="edge"><title>node71&#45;&gt;node153</title>
<path fill="none" stroke="black" d="M148.031,-363.153C150.506,-327.518 156.815,-236.665 160.039,-190.239"/>
<polygon fill="black" stroke="black" points="163.532,-190.464 160.733,-180.246 156.548,-189.979 163.532,-190.464"/>
</g>
<!-- node149 -->
<g id="node15" class="node"><title>node149</title>
<polygon fill="none" stroke="black" points="119,-252 65,-252 65,-216 119,-216 119,-252"/>
<text text-anchor="middle" x="92" y="-230.7" font-family="Times Roman,serif" font-size="12.00">hrpc</text>
</g>
<!-- node71&#45;&gt;node149 -->
<g id="edge16" class="edge"><title>node71&#45;&gt;node149</title>
<path fill="none" stroke="black" d="M141.424,-363.4C132.345,-339.631 114.221,-292.179 102.625,-261.817"/>
<polygon fill="black" stroke="black" points="105.802,-260.327 98.9645,-252.234 99.263,-262.825 105.802,-260.327"/>
</g>
<!-- node59 -->
<g id="node19" class="node"><title>node59</title>
<polygon fill="none" stroke="black" points="309,-252 251,-252 251,-216 309,-216 309,-252"/>
<text text-anchor="middle" x="280" y="-230.7" font-family="Times Roman,serif" font-size="12.00">remote</text>
</g>
<!-- node71&#45;&gt;node59 -->
<g id="edge22" class="edge"><title>node71&#45;&gt;node59</title>
<path fill="none" stroke="black" d="M188.569,-363.254C208.235,-354.476 230.702,-341.572 246,-324 261.269,-306.462 269.986,-281.382 274.761,-262.15"/>
<polygon fill="black" stroke="black" points="278.23,-262.678 277.026,-252.152 271.403,-261.132 278.23,-262.678"/>
</g>
<!-- node66 -->
<g id="node23" class="node"><title>node66</title>
<polygon fill="none" stroke="black" points="237,-324 175,-324 175,-288 237,-288 237,-324"/>
<text text-anchor="middle" x="206" y="-302.7" font-family="Times Roman,serif" font-size="12.00">dalibase</text>
</g>
<!-- node71&#45;&gt;node66 -->
<g id="edge28" class="edge"><title>node71&#45;&gt;node66</title>
<path fill="none" stroke="black" d="M158.94,-363.43C166.345,-354.392 176.072,-342.522 184.76,-331.92"/>
<polygon fill="black" stroke="black" points="187.514,-334.081 191.145,-324.128 182.1,-329.644 187.514,-334.081"/>
</g>
<!-- node152 -->
<g id="node4" class="node"><title>node152</title>
<polygon fill="none" stroke="black" points="40,-36 0.0563759,-18 40,-3.55271e-15 79.9436,-18 40,-36"/>
<text text-anchor="middle" x="40" y="-14.7" font-family="Times Roman,serif" font-size="12.00">lzma</text>
</g>
<!-- node151&#45;&gt;node152 -->
<g id="edge4" class="edge"><title>node151&#45;&gt;node152</title>
<path fill="none" stroke="black" d="M134.924,-74.0209C114.47,-61.9494 86.5536,-45.4743 66.293,-33.5172"/>
<polygon fill="black" stroke="black" points="67.968,-30.4417 57.577,-28.3733 64.4102,-36.4701 67.968,-30.4417"/>
</g>
<!-- node187 -->
<g id="node6" class="node"><title>node187</title>
<ellipse fill="none" stroke="black" cx="125" cy="-18" rx="27" ry="18"/>
<text text-anchor="middle" x="125" y="-14.7" font-family="Times Roman,serif" font-size="12.00">dl</text>
</g>
<!-- node151&#45;&gt;node187 -->
<g id="edge6" class="edge"><title>node151&#45;&gt;node187</title>
<path fill="none" stroke="black" d="M152.663,-71.8314C148.405,-63.5451 143.28,-53.5727 138.605,-44.4748"/>
<polygon fill="black" stroke="black" points="141.635,-42.7123 133.951,-35.4177 135.408,-45.9118 141.635,-42.7123"/>
</g>
<!-- node179 -->
<g id="node8" class="node"><title>node179</title>
<ellipse fill="none" stroke="black" cx="200" cy="-18" rx="30.0465" ry="18"/>
<text text-anchor="middle" x="200" y="-14.7" font-family="Times Roman,serif" font-size="12.00">crypt</text>
</g>
<!-- node151&#45;&gt;node179 -->
<g id="edge8" class="edge"><title>node151&#45;&gt;node179</title>
<path fill="none" stroke="black" d="M171.589,-71.8314C175.962,-63.5451 181.226,-53.5727 186.027,-44.4748"/>
<polygon fill="black" stroke="black" points="189.235,-45.8952 190.807,-35.4177 183.044,-42.6279 189.235,-45.8952"/>
</g>
<!-- node188 -->
<g id="node10" class="node"><title>node188</title>
<ellipse fill="none" stroke="black" cx="275" cy="-18" rx="27" ry="18"/>
<text text-anchor="middle" x="275" y="-14.7" font-family="Times Roman,serif" font-size="12.00">rt</text>
</g>
<!-- node151&#45;&gt;node188 -->
<g id="edge10" class="edge"><title>node151&#45;&gt;node188</title>
<path fill="none" stroke="black" d="M189.066,-72.7542C206.414,-61.7009 228.898,-47.375 246.516,-36.1494"/>
<polygon fill="black" stroke="black" points="248.679,-38.9209 255.232,-30.5955 244.918,-33.0174 248.679,-38.9209"/>
</g>
<!-- node153&#45;&gt;node151 -->
<g id="edge14" class="edge"><title>node153&#45;&gt;node151</title>
<path fill="none" stroke="black" d="M162,-143.831C162,-136.131 162,-126.974 162,-118.417"/>
<polygon fill="black" stroke="black" points="165.5,-118.413 162,-108.413 158.5,-118.413 165.5,-118.413"/>
</g>
<!-- node149&#45;&gt;node151 -->
<g id="edge18" class="edge"><title>node149&#45;&gt;node151</title>
<path fill="none" stroke="black" d="M97.4945,-215.899C103.431,-197.35 113.711,-167.919 126,-144 130.739,-134.777 136.723,-125.206 142.445,-116.73"/>
<polygon fill="black" stroke="black" points="145.43,-118.566 148.249,-108.353 139.677,-114.579 145.43,-118.566"/>
</g>
<!-- node149&#45;&gt;node153 -->
<g id="edge20" class="edge"><title>node149&#45;&gt;node153</title>
<path fill="none" stroke="black" d="M109.664,-215.831C117.973,-207.285 128.026,-196.944 137.092,-187.62"/>
<polygon fill="black" stroke="black" points="139.637,-190.023 144.098,-180.413 134.618,-185.143 139.637,-190.023"/>
</g>
<!-- node59&#45;&gt;node151 -->
<g id="edge24" class="edge"><title>node59&#45;&gt;node151</title>
<path fill="none" stroke="black" d="M274.388,-215.926C267.738,-196.597 255.214,-165.79 237,-144 226.111,-130.973 211.409,-119.489 197.907,-110.498"/>
<polygon fill="black" stroke="black" points="199.568,-107.406 189.26,-104.959 195.792,-113.3 199.568,-107.406"/>
</g>
<!-- node59&#45;&gt;node153 -->
<g id="edge26" class="edge"><title>node59&#45;&gt;node153</title>
<path fill="none" stroke="black" d="M250.831,-216.202C234.791,-206.415 214.758,-194.191 197.779,-183.831"/>
<polygon fill="black" stroke="black" points="199.575,-180.827 189.215,-178.606 195.928,-186.802 199.575,-180.827"/>
</g>
<!-- node66&#45;&gt;node151 -->
<g id="edge30" class="edge"><title>node66&#45;&gt;node151</title>
<path fill="none" stroke="black" d="M208.165,-287.936C211.162,-257.397 214.498,-194.007 198,-144 194.804,-134.311 189.365,-124.721 183.669,-116.371"/>
<polygon fill="black" stroke="black" points="186.426,-114.211 177.725,-108.167 180.758,-118.318 186.426,-114.211"/>
</g>
<!-- node66&#45;&gt;node153 -->
<g id="edge32" class="edge"><title>node66&#45;&gt;node153</title>
<path fill="none" stroke="black" d="M200.427,-287.762C192.889,-263.093 179.374,-218.86 170.547,-189.973"/>
<polygon fill="black" stroke="black" points="173.797,-188.63 167.527,-180.09 167.102,-190.676 173.797,-188.63"/>
</g>
<!-- node66&#45;&gt;node149 -->
<g id="edge34" class="edge"><title>node66&#45;&gt;node149</title>
<path fill="none" stroke="black" d="M177.233,-287.831C162.206,-278.341 143.678,-266.639 127.738,-256.572"/>
<polygon fill="black" stroke="black" points="129.512,-253.552 119.188,-251.171 125.774,-259.471 129.512,-253.552"/>
</g>
<!-- node66&#45;&gt;node59 -->
<g id="edge36" class="edge"><title>node66&#45;&gt;node59</title>
<path fill="none" stroke="black" d="M224.673,-287.831C233.525,-279.219 244.249,-268.785 253.889,-259.405"/>
<polygon fill="black" stroke="black" points="256.606,-261.645 261.333,-252.163 251.725,-256.628 256.606,-261.645"/>
</g>
</g>
</svg>
