<?xml version="1.0" encoding="UTF-8" standalone="no"?>
<!DOCTYPE svg PUBLIC "-//W3C//DTD SVG 1.1//EN"
 "http://www.w3.org/Graphics/SVG/1.1/DTD/svg11.dtd">
<!-- Generated by graphviz version 2.26.3 (20100126.1600)
 -->
<!-- Title: GG Pages: 1 -->
<svg width="766pt" height="188pt"
 viewBox="0.00 0.00 766.00 188.00" xmlns="http://www.w3.org/2000/svg" xmlns:xlink="http://www.w3.org/1999/xlink">
<g id="graph1" class="graph" transform="scale(1 1) rotate(0) translate(4 184)">
<title>GG</title>
<polygon fill="white" stroke="white" points="-4,5 -4,-184 763,-184 763,5 -4,5"/>
<!-- node160 -->
<g id="node1" class="node"><title>node160</title>
<polygon fill="none" stroke="black" points="409,-180 355,-180 355,-144 409,-144 409,-180"/>
<text text-anchor="middle" x="382" y="-158.7" font-family="Times Roman,serif" font-size="12.00">xmllib</text>
</g>
<!-- node180 -->
<g id="node2" class="node"><title>node180</title>
<ellipse fill="none" stroke="black" cx="85" cy="-90" rx="85.1424" ry="18"/>
<text text-anchor="middle" x="85" y="-86.7" font-family="Times Roman,serif" font-size="12.00">/usr/lib/libxalan&#45;c.so</text>
</g>
<!-- node160&#45;&gt;node180 -->
<g id="edge2" class="edge"><title>node160&#45;&gt;node180</title>
<path fill="none" stroke="black" d="M354.856,-155.42C309.048,-144.315 215.142,-121.55 151.12,-106.029"/>
<polygon fill="black" stroke="black" points="151.657,-102.558 141.114,-103.603 150.008,-109.361 151.657,-102.558"/>
</g>
<!-- node181 -->
<g id="node4" class="node"><title>node181</title>
<ellipse fill="none" stroke="black" cx="281" cy="-90" rx="93.0912" ry="18"/>
<text text-anchor="middle" x="281" y="-86.7" font-family="Times Roman,serif" font-size="12.00">/usr/lib/libxalanMsg.so</text>
</g>
<!-- node160&#45;&gt;node181 -->
<g id="edge4" class="edge"><title>node160&#45;&gt;node181</title>
<path fill="none" stroke="black" d="M356.513,-143.831C343.544,-134.586 327.629,-123.241 313.76,-113.354"/>
<polygon fill="black" stroke="black" points="315.608,-110.373 305.433,-107.418 311.544,-116.072 315.608,-110.373"/>
</g>
<!-- node182 -->
<g id="node6" class="node"><title>node182</title>
<ellipse fill="none" stroke="black" cx="483" cy="-90" rx="90.9919" ry="18"/>
<text text-anchor="middle" x="483" y="-86.7" font-family="Times Roman,serif" font-size="12.00">/usr/lib/libxerces&#45;c.so</text>
</g>
<!-- node160&#45;&gt;node182 -->
<g id="edge6" class="edge"><title>node160&#45;&gt;node182</title>
<path fill="none" stroke="black" d="M407.487,-143.831C420.456,-134.586 436.371,-123.241 450.24,-113.354"/>
<polygon fill="black" stroke="black" points="452.456,-116.072 458.567,-107.418 448.392,-110.373 452.456,-116.072"/>
</g>
<!-- node151 -->
<g id="node8" class="node"><title>node151</title>
<polygon fill="none" stroke="black" points="646,-108 592,-108 592,-72 646,-72 646,-108"/>
<text text-anchor="middle" x="619" y="-86.7" font-family="Times Roman,serif" font-size="12.00">jlib</text>
</g>
<!-- node160&#45;&gt;node151 -->
<g id="edge8" class="edge"><title>node160&#45;&gt;node151</title>
<path fill="none" stroke="black" d="M409.204,-156.517C446.522,-148.607 515.66,-132.567 581.978,-108.024"/>
<polygon fill="black" stroke="black" points="583.618,-111.146 591.738,-104.341 581.146,-104.597 583.618,-111.146"/>
</g>
<!-- node152 -->
<g id="node10" class="node"><title>node152</title>
<polygon fill="none" stroke="black" points="496,-36 456.056,-18 496,-3.55271e-15 535.944,-18 496,-36"/>
<text text-anchor="middle" x="496" y="-14.7" font-family="Times Roman,serif" font-size="12.00">lzma</text>
</g>
<!-- node151&#45;&gt;node152 -->
<g id="edge10" class="edge"><title>node151&#45;&gt;node152</title>
<path fill="none" stroke="black" d="M591.702,-74.0209C571.08,-61.9494 542.935,-45.4743 522.508,-33.5172"/>
<polygon fill="black" stroke="black" points="524.119,-30.4046 513.721,-28.3733 520.583,-36.4457 524.119,-30.4046"/>
</g>
<!-- node187 -->
<g id="node12" class="node"><title>node187</title>
<ellipse fill="none" stroke="black" cx="581" cy="-18" rx="27" ry="18"/>
<text text-anchor="middle" x="581" y="-14.7" font-family="Times Roman,serif" font-size="12.00">dl</text>
</g>
<!-- node151&#45;&gt;node187 -->
<g id="edge12" class="edge"><title>node151&#45;&gt;node187</title>
<path fill="none" stroke="black" d="M609.411,-71.8314C605.038,-63.5451 599.774,-53.5727 594.973,-44.4748"/>
<polygon fill="black" stroke="black" points="597.956,-42.6279 590.193,-35.4177 591.765,-45.8952 597.956,-42.6279"/>
</g>
<!-- node179 -->
<g id="node14" class="node"><title>node179</title>
<ellipse fill="none" stroke="black" cx="656" cy="-18" rx="30.0465" ry="18"/>
<text text-anchor="middle" x="656" y="-14.7" font-family="Times Roman,serif" font-size="12.00">crypt</text>
</g>
<!-- node151&#45;&gt;node179 -->
<g id="edge14" class="edge"><title>node151&#45;&gt;node179</title>
<path fill="none" stroke="black" d="M628.337,-71.8314C632.595,-63.5451 637.72,-53.5727 642.395,-44.4748"/>
<polygon fill="black" stroke="black" points="645.592,-45.9118 647.049,-35.4177 639.365,-42.7123 645.592,-45.9118"/>
</g>
<!-- node188 -->
<g id="node16" class="node"><title>node188</title>
<ellipse fill="none" stroke="black" cx="731" cy="-18" rx="27" ry="18"/>
<text text-anchor="middle" x="731" y="-14.7" font-family="Times Roman,serif" font-size="12.00">rt</text>
</g>
<!-- node151&#45;&gt;node188 -->
<g id="edge16" class="edge"><title>node151&#45;&gt;node188</title>
<path fill="none" stroke="black" d="M646.112,-72.5708C663.313,-61.5133 685.52,-47.237 702.907,-36.06"/>
<polygon fill="black" stroke="black" points="704.988,-38.8829 711.507,-30.5312 701.203,-32.9946 704.988,-38.8829"/>
</g>
</g>
</svg>
