<?xml version="1.0" encoding="UTF-8" standalone="no"?>
<!DOCTYPE svg PUBLIC "-//W3C//DTD SVG 1.1//EN"
 "http://www.w3.org/Graphics/SVG/1.1/DTD/svg11.dtd">
<!-- Generated by graphviz version 2.26.3 (20100126.1600)
 -->
<!-- Title: GG Pages: 1 -->
<svg width="1266pt" height="260pt"
 viewBox="0.00 0.00 1266.00 260.00" xmlns="http://www.w3.org/2000/svg" xmlns:xlink="http://www.w3.org/1999/xlink">
<g id="graph1" class="graph" transform="scale(1 1) rotate(0) translate(4 256)">
<title>GG</title>
<polygon fill="white" stroke="white" points="-4,5 -4,-256 1263,-256 1263,5 -4,5"/>
<!-- node129 -->
<g id="node1" class="node"><title>node129</title>
<polygon fill="none" stroke="black" points="673.933,-239.562 619,-252 564.067,-239.562 564.118,-219.438 673.882,-219.438 673.933,-239.562"/>
<text text-anchor="middle" x="619" y="-230.7" font-family="Times Roman,serif" font-size="12.00">soapplus</text>
</g>
<!-- node151 -->
<g id="node2" class="node"><title>node151</title>
<polygon fill="none" stroke="black" points="646,-108 592,-108 592,-72 646,-72 646,-108"/>
<text text-anchor="middle" x="619" y="-86.7" font-family="Times Roman,serif" font-size="12.00">jlib</text>
</g>
<!-- node129&#45;&gt;node151 -->
<g id="edge2" class="edge"><title>node129&#45;&gt;node151</title>
<path fill="none" stroke="black" d="M619,-219.4C619,-195.838 619,-149.003 619,-118.613"/>
<polygon fill="black" stroke="black" points="622.5,-118.234 619,-108.234 615.5,-118.234 622.5,-118.234"/>
</g>
<!-- node160 -->
<g id="node12" class="node"><title>node160</title>
<polygon fill="none" stroke="black" points="516,-180 462,-180 462,-144 516,-144 516,-180"/>
<text text-anchor="middle" x="489" y="-158.7" font-family="Times Roman,serif" font-size="12.00">xmllib</text>
</g>
<!-- node129&#45;&gt;node160 -->
<g id="edge12" class="edge"><title>node129&#45;&gt;node160</title>
<path fill="none" stroke="black" d="M592.693,-219.43C573.217,-208.643 546.455,-193.821 524.998,-181.937"/>
<polygon fill="black" stroke="black" points="526.607,-178.828 516.163,-177.044 523.215,-184.951 526.607,-178.828"/>
</g>
<!-- node156 -->
<g id="node21" class="node"><title>node156</title>
<polygon fill="none" stroke="black" points="794,-180 700,-180 700,-144 794,-144 794,-180"/>
<text text-anchor="middle" x="747" y="-158.7" font-family="Times Roman,serif" font-size="12.00">securesocket</text>
</g>
<!-- node129&#45;&gt;node156 -->
<g id="edge22" class="edge"><title>node129&#45;&gt;node156</title>
<path fill="none" stroke="black" d="M644.903,-219.43C662.387,-209.595 685.836,-196.405 705.851,-185.146"/>
<polygon fill="black" stroke="black" points="707.773,-188.081 714.773,-180.128 704.341,-181.98 707.773,-188.081"/>
</g>
<!-- node152 -->
<g id="node4" class="node"><title>node152</title>
<polygon fill="none" stroke="black" points="496,-36 456.056,-18 496,-3.55271e-15 535.944,-18 496,-36"/>
<text text-anchor="middle" x="496" y="-14.7" font-family="Times Roman,serif" font-size="12.00">lzma</text>
</g>
<!-- node151&#45;&gt;node152 -->
<g id="edge4" class="edge"><title>node151&#45;&gt;node152</title>
<path fill="none" stroke="black" d="M591.702,-74.0209C571.08,-61.9494 542.935,-45.4743 522.508,-33.5172"/>
<polygon fill="black" stroke="black" points="524.119,-30.4046 513.721,-28.3733 520.583,-36.4457 524.119,-30.4046"/>
</g>
<!-- node187 -->
<g id="node6" class="node"><title>node187</title>
<ellipse fill="none" stroke="black" cx="581" cy="-18" rx="27" ry="18"/>
<text text-anchor="middle" x="581" y="-14.7" font-family="Times Roman,serif" font-size="12.00">dl</text>
</g>
<!-- node151&#45;&gt;node187 -->
<g id="edge6" class="edge"><title>node151&#45;&gt;node187</title>
<path fill="none" stroke="black" d="M609.411,-71.8314C605.038,-63.5451 599.774,-53.5727 594.973,-44.4748"/>
<polygon fill="black" stroke="black" points="597.956,-42.6279 590.193,-35.4177 591.765,-45.8952 597.956,-42.6279"/>
</g>
<!-- node179 -->
<g id="node8" class="node"><title>node179</title>
<ellipse fill="none" stroke="black" cx="656" cy="-18" rx="30.0465" ry="18"/>
<text text-anchor="middle" x="656" y="-14.7" font-family="Times Roman,serif" font-size="12.00">crypt</text>
</g>
<!-- node151&#45;&gt;node179 -->
<g id="edge8" class="edge"><title>node151&#45;&gt;node179</title>
<path fill="none" stroke="black" d="M628.337,-71.8314C632.595,-63.5451 637.72,-53.5727 642.395,-44.4748"/>
<polygon fill="black" stroke="black" points="645.592,-45.9118 647.049,-35.4177 639.365,-42.7123 645.592,-45.9118"/>
</g>
<!-- node188 -->
<g id="node10" class="node"><title>node188</title>
<ellipse fill="none" stroke="black" cx="731" cy="-18" rx="27" ry="18"/>
<text text-anchor="middle" x="731" y="-14.7" font-family="Times Roman,serif" font-size="12.00">rt</text>
</g>
<!-- node151&#45;&gt;node188 -->
<g id="edge10" class="edge"><title>node151&#45;&gt;node188</title>
<path fill="none" stroke="black" d="M646.112,-72.5708C663.313,-61.5133 685.52,-47.237 702.907,-36.06"/>
<polygon fill="black" stroke="black" points="704.988,-38.8829 711.507,-30.5312 701.203,-32.9946 704.988,-38.8829"/>
</g>
<!-- node160&#45;&gt;node151 -->
<g id="edge20" class="edge"><title>node160&#45;&gt;node151</title>
<path fill="none" stroke="black" d="M516.252,-146.906C535.579,-136.202 561.72,-121.724 582.798,-110.051"/>
<polygon fill="black" stroke="black" points="584.731,-112.981 591.784,-105.074 581.34,-106.857 584.731,-112.981"/>
</g>
<!-- node180 -->
<g id="node14" class="node"><title>node180</title>
<ellipse fill="none" stroke="black" cx="489" cy="-90" rx="85.1424" ry="18"/>
<text text-anchor="middle" x="489" y="-86.7" font-family="Times Roman,serif" font-size="12.00">/usr/lib/libxalan&#45;c.so</text>
</g>
<!-- node160&#45;&gt;node180 -->
<g id="edge14" class="edge"><title>node160&#45;&gt;node180</title>
<path fill="none" stroke="black" d="M489,-143.831C489,-136.131 489,-126.974 489,-118.417"/>
<polygon fill="black" stroke="black" points="492.5,-118.413 489,-108.413 485.5,-118.413 492.5,-118.413"/>
</g>
<!-- node181 -->
<g id="node16" class="node"><title>node181</title>
<ellipse fill="none" stroke="black" cx="93" cy="-90" rx="93.0912" ry="18"/>
<text text-anchor="middle" x="93" y="-86.7" font-family="Times Roman,serif" font-size="12.00">/usr/lib/libxalanMsg.so</text>
</g>
<!-- node160&#45;&gt;node181 -->
<g id="edge16" class="edge"><title>node160&#45;&gt;node181</title>
<path fill="none" stroke="black" d="M461.781,-157.051C402.639,-146.298 260.537,-120.461 171,-104.182"/>
<polygon fill="black" stroke="black" points="171.355,-100.689 160.89,-102.344 170.103,-107.576 171.355,-100.689"/>
</g>
<!-- node182 -->
<g id="node18" class="node"><title>node182</title>
<ellipse fill="none" stroke="black" cx="295" cy="-90" rx="90.9919" ry="18"/>
<text text-anchor="middle" x="295" y="-86.7" font-family="Times Roman,serif" font-size="12.00">/usr/lib/libxerces&#45;c.so</text>
</g>
<!-- node160&#45;&gt;node182 -->
<g id="edge18" class="edge"><title>node160&#45;&gt;node182</title>
<path fill="none" stroke="black" d="M461.616,-151.837C432.086,-140.877 384.361,-123.165 347.542,-109.5"/>
<polygon fill="black" stroke="black" points="348.546,-106.14 337.953,-105.941 346.111,-112.702 348.546,-106.14"/>
</g>
<!-- node156&#45;&gt;node151 -->
<g id="edge24" class="edge"><title>node156&#45;&gt;node151</title>
<path fill="none" stroke="black" d="M714.7,-143.831C696.498,-133.592 673.718,-120.779 654.95,-110.222"/>
<polygon fill="black" stroke="black" points="656.528,-107.094 646.097,-105.242 653.096,-113.195 656.528,-107.094"/>
</g>
<!-- node191 -->
<g id="node24" class="node"><title>node191</title>
<ellipse fill="none" stroke="black" cx="801" cy="-90" rx="137.138" ry="18"/>
<text text-anchor="middle" x="801" y="-86.7" font-family="Times Roman,serif" font-size="12.00">/usr/lib/x86_64&#45;linux&#45;gnu/libssl.so</text>
</g>
<!-- node156&#45;&gt;node191 -->
<g id="edge26" class="edge"><title>node156&#45;&gt;node191</title>
<path fill="none" stroke="black" d="M760.626,-143.831C766.942,-135.411 774.563,-125.249 781.475,-116.034"/>
<polygon fill="black" stroke="black" points="784.365,-118.013 787.565,-107.913 778.765,-113.813 784.365,-118.013"/>
</g>
<!-- node192 -->
<g id="node26" class="node"><title>node192</title>
<ellipse fill="none" stroke="black" cx="1107" cy="-90" rx="150.937" ry="18"/>
<text text-anchor="middle" x="1107" y="-86.7" font-family="Times Roman,serif" font-size="12.00">/usr/lib/x86_64&#45;linux&#45;gnu/libcrypto.so</text>
</g>
<!-- node156&#45;&gt;node192 -->
<g id="edge28" class="edge"><title>node156&#45;&gt;node192</title>
<path fill="none" stroke="black" d="M794.064,-152.587C851.221,-141.156 948.783,-121.643 1019.81,-107.438"/>
<polygon fill="black" stroke="black" points="1020.53,-110.864 1029.65,-105.471 1019.15,-104 1020.53,-110.864"/>
</g>
</g>
</svg>
