<?xml version="1.0" encoding="UTF-8" standalone="no"?>
<!DOCTYPE svg PUBLIC "-//W3C//DTD SVG 1.1//EN"
 "http://www.w3.org/Graphics/SVG/1.1/DTD/svg11.dtd">
<!-- Generated by graphviz version 2.26.3 (20100126.1600)
 -->
<!-- Title: GG Pages: 1 -->
<svg width="1575pt" height="404pt"
 viewBox="0.00 0.00 1575.04 404.00" xmlns="http://www.w3.org/2000/svg" xmlns:xlink="http://www.w3.org/1999/xlink">
<g id="graph1" class="graph" transform="scale(1 1) rotate(0) translate(4 400)">
<title>GG</title>
<polygon fill="white" stroke="white" points="-4,5 -4,-400 1572.04,-400 1572.04,5 -4,5"/>
<!-- node63 -->
<g id="node1" class="node"><title>node63</title>
<polygon fill="none" stroke="black" points="686.036,-396 610.036,-396 610.036,-360 686.036,-360 686.036,-396"/>
<text text-anchor="middle" x="648.036" y="-374.7" font-family="Times Roman,serif" font-size="12.00">thorhelper</text>
</g>
<!-- node151 -->
<g id="node2" class="node"><title>node151</title>
<polygon fill="none" stroke="black" points="685.036,-108 631.036,-108 631.036,-72 685.036,-72 685.036,-108"/>
<text text-anchor="middle" x="658.036" y="-86.7" font-family="Times Roman,serif" font-size="12.00">jlib</text>
</g>
<!-- node63&#45;&gt;node151 -->
<g id="edge2" class="edge"><title>node63&#45;&gt;node151</title>
<path fill="none" stroke="black" d="M609.627,-376.796C482.662,-371.909 80.3363,-348.896 6.0364,-252 -3.69959,-239.303 0.350311,-230.956 6.0364,-216 21.2519,-175.98 31.823,-163.309 70.0364,-144 119.107,-119.205 498.846,-98.0458 620.601,-91.8404"/>
<polygon fill="black" stroke="black" points="621.093,-95.3201 630.904,-91.3198 620.74,-88.329 621.093,-95.3201"/>
</g>
<!-- node147 -->
<g id="node12" class="node"><title>node147</title>
<polygon fill="none" stroke="black" points="685.036,-180 631.036,-180 631.036,-144 685.036,-144 685.036,-180"/>
<text text-anchor="middle" x="658.036" y="-158.7" font-family="Times Roman,serif" font-size="12.00">nbcd</text>
</g>
<!-- node63&#45;&gt;node147 -->
<g id="edge12" class="edge"><title>node63&#45;&gt;node147</title>
<path fill="none" stroke="black" d="M648.872,-359.955C650.611,-322.394 654.631,-235.554 656.721,-190.41"/>
<polygon fill="black" stroke="black" points="660.23,-190.296 657.196,-180.145 653.238,-189.972 660.23,-190.296"/>
</g>
<!-- node146 -->
<g id="node15" class="node"><title>node146</title>
<polygon fill="none" stroke="black" points="871.036,-252 817.036,-252 817.036,-216 871.036,-216 871.036,-252"/>
<text text-anchor="middle" x="844.036" y="-230.7" font-family="Times Roman,serif" font-size="12.00">eclrtl</text>
</g>
<!-- node63&#45;&gt;node146 -->
<g id="edge16" class="edge"><title>node63&#45;&gt;node146</title>
<path fill="none" stroke="black" d="M686.241,-362.086C707.182,-352.51 733.066,-339.234 754.036,-324 779.805,-305.279 805.088,-279.108 822.263,-259.811"/>
<polygon fill="black" stroke="black" points="824.919,-262.09 828.88,-252.264 819.655,-257.475 824.919,-262.09"/>
</g>
<!-- node53 -->
<g id="node27" class="node"><title>node53</title>
<polygon fill="none" stroke="black" points="745.036,-324 685.036,-324 685.036,-288 745.036,-288 745.036,-324"/>
<text text-anchor="middle" x="715.036" y="-302.7" font-family="Times Roman,serif" font-size="12.00">deftype</text>
</g>
<!-- node63&#45;&gt;node53 -->
<g id="edge30" class="edge"><title>node63&#45;&gt;node53</title>
<path fill="none" stroke="black" d="M664.943,-359.831C672.818,-351.369 682.328,-341.149 690.938,-331.897"/>
<polygon fill="black" stroke="black" points="693.652,-334.118 697.902,-324.413 688.527,-329.35 693.652,-334.118"/>
</g>
<!-- node156 -->
<g id="node32" class="node"><title>node156</title>
<polygon fill="none" stroke="black" points="377.036,-324 283.036,-324 283.036,-288 377.036,-288 377.036,-324"/>
<text text-anchor="middle" x="330.036" y="-302.7" font-family="Times Roman,serif" font-size="12.00">securesocket</text>
</g>
<!-- node63&#45;&gt;node156 -->
<g id="edge38" class="edge"><title>node63&#45;&gt;node156</title>
<path fill="none" stroke="black" d="M609.994,-369.387C554.676,-356.862 451.621,-333.529 387.16,-318.934"/>
<polygon fill="black" stroke="black" points="387.685,-315.464 377.159,-316.669 386.139,-322.291 387.685,-315.464"/>
</g>
<!-- node152 -->
<g id="node4" class="node"><title>node152</title>
<polygon fill="none" stroke="black" points="536.036,-36 496.093,-18 536.036,-3.55271e-15 575.98,-18 536.036,-36"/>
<text text-anchor="middle" x="536.036" y="-14.7" font-family="Times Roman,serif" font-size="12.00">lzma</text>
</g>
<!-- node151&#45;&gt;node152 -->
<g id="edge4" class="edge"><title>node151&#45;&gt;node152</title>
<path fill="none" stroke="black" d="M630.961,-74.0209C610.506,-61.9494 582.59,-45.4743 562.329,-33.5172"/>
<polygon fill="black" stroke="black" points="564.004,-30.4417 553.613,-28.3733 560.447,-36.4701 564.004,-30.4417"/>
</g>
<!-- node187 -->
<g id="node6" class="node"><title>node187</title>
<ellipse fill="none" stroke="black" cx="621.036" cy="-18" rx="27" ry="18"/>
<text text-anchor="middle" x="621.036" y="-14.7" font-family="Times Roman,serif" font-size="12.00">dl</text>
</g>
<!-- node151&#45;&gt;node187 -->
<g id="edge6" class="edge"><title>node151&#45;&gt;node187</title>
<path fill="none" stroke="black" d="M648.7,-71.8314C644.442,-63.5451 639.317,-53.5727 634.641,-44.4748"/>
<polygon fill="black" stroke="black" points="637.671,-42.7123 629.987,-35.4177 631.445,-45.9118 637.671,-42.7123"/>
</g>
<!-- node179 -->
<g id="node8" class="node"><title>node179</title>
<ellipse fill="none" stroke="black" cx="696.036" cy="-18" rx="30.0465" ry="18"/>
<text text-anchor="middle" x="696.036" y="-14.7" font-family="Times Roman,serif" font-size="12.00">crypt</text>
</g>
<!-- node151&#45;&gt;node179 -->
<g id="edge8" class="edge"><title>node151&#45;&gt;node179</title>
<path fill="none" stroke="black" d="M667.625,-71.8314C671.999,-63.5451 677.262,-53.5727 682.064,-44.4748"/>
<polygon fill="black" stroke="black" points="685.271,-45.8952 686.844,-35.4177 679.081,-42.6279 685.271,-45.8952"/>
</g>
<!-- node188 -->
<g id="node10" class="node"><title>node188</title>
<ellipse fill="none" stroke="black" cx="771.036" cy="-18" rx="27" ry="18"/>
<text text-anchor="middle" x="771.036" y="-14.7" font-family="Times Roman,serif" font-size="12.00">rt</text>
</g>
<!-- node151&#45;&gt;node188 -->
<g id="edge10" class="edge"><title>node151&#45;&gt;node188</title>
<path fill="none" stroke="black" d="M685.103,-72.7542C702.45,-61.7009 724.934,-47.375 742.552,-36.1494"/>
<polygon fill="black" stroke="black" points="744.716,-38.9209 751.268,-30.5955 740.954,-33.0174 744.716,-38.9209"/>
</g>
<!-- node147&#45;&gt;node151 -->
<g id="edge14" class="edge"><title>node147&#45;&gt;node151</title>
<path fill="none" stroke="black" d="M658.036,-143.831C658.036,-136.131 658.036,-126.974 658.036,-118.417"/>
<polygon fill="black" stroke="black" points="661.536,-118.413 658.036,-108.413 654.536,-118.413 661.536,-118.413"/>
</g>
<!-- node146&#45;&gt;node151 -->
<g id="edge26" class="edge"><title>node146&#45;&gt;node151</title>
<path fill="none" stroke="black" d="M818.381,-215.918C803.995,-205.619 785.822,-192.345 770.036,-180 750.403,-164.645 746.409,-159.683 727.036,-144 714.837,-134.124 701.261,-123.436 689.401,-114.195"/>
<polygon fill="black" stroke="black" points="691.546,-111.43 681.503,-108.057 687.251,-116.957 691.546,-111.43"/>
</g>
<!-- node146&#45;&gt;node147 -->
<g id="edge28" class="edge"><title>node146&#45;&gt;node147</title>
<path fill="none" stroke="black" d="M816.99,-223.531C784.757,-211.053 730.744,-190.145 694.755,-176.214"/>
<polygon fill="black" stroke="black" points="695.704,-172.828 685.115,-172.482 693.177,-179.356 695.704,-172.828"/>
</g>
<!-- node186 -->
<g id="node17" class="node"><title>node186</title>
<ellipse fill="none" stroke="black" cx="1274.04" cy="-162" rx="118.939" ry="18"/>
<text text-anchor="middle" x="1274.04" y="-158.7" font-family="Times Roman,serif" font-size="12.00">/usr/lib/libboost_regex&#45;mt.so</text>
</g>
<!-- node146&#45;&gt;node186 -->
<g id="edge18" class="edge"><title>node146&#45;&gt;node186</title>
<path fill="none" stroke="black" d="M871.261,-229.441C932.928,-219.116 1085.56,-193.558 1184.22,-177.038"/>
<polygon fill="black" stroke="black" points="1184.91,-180.473 1194.19,-175.369 1183.75,-173.569 1184.91,-180.473"/>
</g>
<!-- node183 -->
<g id="node19" class="node"><title>node183</title>
<ellipse fill="none" stroke="black" cx="1489.04" cy="-162" rx="77.9931" ry="18"/>
<text text-anchor="middle" x="1489.04" y="-158.7" font-family="Times Roman,serif" font-size="12.00">/usr/lib/libicuuc.so</text>
</g>
<!-- node146&#45;&gt;node183 -->
<g id="edge20" class="edge"><title>node146&#45;&gt;node183</title>
<path fill="none" stroke="black" d="M871.166,-232.413C952.169,-227.451 1199.23,-210.702 1402.04,-180 1408.7,-178.992 1415.62,-177.804 1422.51,-176.526"/>
<polygon fill="black" stroke="black" points="1423.4,-179.919 1432.57,-174.602 1422.09,-173.044 1423.4,-179.919"/>
</g>
<!-- node184 -->
<g id="node21" class="node"><title>node184</title>
<ellipse fill="none" stroke="black" cx="864.036" cy="-162" rx="85.1424" ry="18"/>
<text text-anchor="middle" x="864.036" y="-158.7" font-family="Times Roman,serif" font-size="12.00">/usr/lib/libicui18n.so</text>
</g>
<!-- node146&#45;&gt;node184 -->
<g id="edge22" class="edge"><title>node146&#45;&gt;node184</title>
<path fill="none" stroke="black" d="M849.083,-215.831C851.246,-208.046 853.822,-198.773 856.221,-190.135"/>
<polygon fill="black" stroke="black" points="859.617,-190.985 858.922,-180.413 852.873,-189.112 859.617,-190.985"/>
</g>
<!-- node185 -->
<g id="node23" class="node"><title>node185</title>
<ellipse fill="none" stroke="black" cx="1052.04" cy="-162" rx="85.1424" ry="18"/>
<text text-anchor="middle" x="1052.04" y="-158.7" font-family="Times Roman,serif" font-size="12.00">/usr/lib/libicudata.so</text>
</g>
<!-- node146&#45;&gt;node185 -->
<g id="edge24" class="edge"><title>node146&#45;&gt;node185</title>
<path fill="none" stroke="black" d="M871.229,-224.587C903.24,-213.507 957.186,-194.833 997.84,-180.76"/>
<polygon fill="black" stroke="black" points="999.038,-184.049 1007.34,-177.471 996.749,-177.434 999.038,-184.049"/>
</g>
<!-- node53&#45;&gt;node151 -->
<g id="edge32" class="edge"><title>node53&#45;&gt;node151</title>
<path fill="none" stroke="black" d="M715.337,-287.861C715.271,-257.212 712.642,-193.663 694.036,-144 690.457,-134.446 684.906,-124.895 679.226,-116.54"/>
<polygon fill="black" stroke="black" points="682.005,-114.409 673.337,-108.316 676.314,-118.485 682.005,-114.409"/>
</g>
<!-- node53&#45;&gt;node147 -->
<g id="edge34" class="edge"><title>node53&#45;&gt;node147</title>
<path fill="none" stroke="black" d="M707.817,-287.762C698.009,-262.985 680.39,-218.471 668.959,-189.594"/>
<polygon fill="black" stroke="black" points="672.132,-188.099 665.197,-180.09 665.623,-190.676 672.132,-188.099"/>
</g>
<!-- node53&#45;&gt;node146 -->
<g id="edge36" class="edge"><title>node53&#45;&gt;node146</title>
<path fill="none" stroke="black" d="M745.281,-289.119C763.925,-278.713 787.947,-265.305 807.631,-254.319"/>
<polygon fill="black" stroke="black" points="809.592,-257.233 816.618,-249.303 806.181,-251.121 809.592,-257.233"/>
</g>
<!-- node156&#45;&gt;node151 -->
<g id="edge40" class="edge"><title>node156&#45;&gt;node151</title>
<path fill="none" stroke="black" d="M282.899,-304.997C203.986,-302.212 50.4726,-291.699 17.0364,-252 6.7292,-239.762 6.87216,-228.357 17.0364,-216 94.6574,-121.636 495.715,-96.8589 620.76,-91.3789"/>
<polygon fill="black" stroke="black" points="621.132,-94.8664 630.975,-90.9476 620.837,-87.8726 621.132,-94.8664"/>
</g>
<!-- node191 -->
<g id="node35" class="node"><title>node191</title>
<ellipse fill="none" stroke="black" cx="483.036" cy="-234" rx="137.138" ry="18"/>
<text text-anchor="middle" x="483.036" y="-230.7" font-family="Times Roman,serif" font-size="12.00">/usr/lib/x86_64&#45;linux&#45;gnu/libssl.so</text>
</g>
<!-- node156&#45;&gt;node191 -->
<g id="edge42" class="edge"><title>node156&#45;&gt;node191</title>
<path fill="none" stroke="black" d="M368.645,-287.831C389.404,-278.062 415.143,-265.95 436.947,-255.689"/>
<polygon fill="black" stroke="black" points="438.466,-258.843 446.024,-251.418 435.485,-252.509 438.466,-258.843"/>
</g>
<!-- node192 -->
<g id="node37" class="node"><title>node192</title>
<ellipse fill="none" stroke="black" cx="177.036" cy="-234" rx="150.937" ry="18"/>
<text text-anchor="middle" x="177.036" y="-230.7" font-family="Times Roman,serif" font-size="12.00">/usr/lib/x86_64&#45;linux&#45;gnu/libcrypto.so</text>
</g>
<!-- node156&#45;&gt;node192 -->
<g id="edge44" class="edge"><title>node156&#45;&gt;node192</title>
<path fill="none" stroke="black" d="M291.428,-287.831C270.746,-278.099 245.121,-266.04 223.37,-255.804"/>
<polygon fill="black" stroke="black" points="224.85,-252.632 214.312,-251.541 221.869,-258.966 224.85,-252.632"/>
</g>
</g>
</svg>
