<?xml version="1.0" encoding="UTF-8" standalone="no"?>
<!DOCTYPE svg PUBLIC "-//W3C//DTD SVG 1.1//EN"
 "http://www.w3.org/Graphics/SVG/1.1/DTD/svg11.dtd">
<!-- Generated by graphviz version 2.26.3 (20100126.1600)
 -->
<!-- Title: GG Pages: 1 -->
<svg width="1444pt" height="620pt"
 viewBox="0.00 0.00 1443.81 620.00" xmlns="http://www.w3.org/2000/svg" xmlns:xlink="http://www.w3.org/1999/xlink">
<g id="graph1" class="graph" transform="scale(1 1) rotate(0) translate(4 616)">
<title>GG</title>
<polygon fill="white" stroke="white" points="-4,5 -4,-616 1440.81,-616 1440.81,5 -4,5"/>
<!-- node74 -->
<g id="node1" class="node"><title>node74</title>
<polygon fill="none" stroke="black" points="141,-612 87,-612 87,-576 141,-576 141,-612"/>
<text text-anchor="middle" x="114" y="-590.7" font-family="Times Roman,serif" font-size="12.00">dfuwu</text>
</g>
<!-- node64 -->
<g id="node2" class="node"><title>node64</title>
<polygon fill="none" stroke="black" points="1195,-540 1127,-540 1127,-504 1195,-504 1195,-540"/>
<text text-anchor="middle" x="1161" y="-518.7" font-family="Times Roman,serif" font-size="12.00">workunit</text>
</g>
<!-- node74&#45;&gt;node64 -->
<g id="edge2" class="edge"><title>node74&#45;&gt;node64</title>
<path fill="none" stroke="black" d="M141.199,-592.13C283.224,-582.363 939.89,-537.205 1116.93,-525.031"/>
<polygon fill="black" stroke="black" points="1117.19,-528.521 1126.93,-524.343 1116.71,-521.537 1117.19,-528.521"/>
</g>
<!-- node151 -->
<g id="node4" class="node"><title>node151</title>
<polygon fill="none" stroke="black" points="456,-108 402,-108 402,-72 456,-72 456,-108"/>
<text text-anchor="middle" x="429" y="-86.7" font-family="Times Roman,serif" font-size="12.00">jlib</text>
</g>
<!-- node74&#45;&gt;node151 -->
<g id="edge90" class="edge"><title>node74&#45;&gt;node151</title>
<path fill="none" stroke="black" d="M86.9836,-576.633C53.2722,-552.602 0,-505.8 0,-450 0,-450 0,-450 0,-234 0,-151.684 287.452,-107.643 391.759,-94.3715"/>
<polygon fill="black" stroke="black" points="392.35,-97.825 401.839,-93.1127 391.482,-90.879 392.35,-97.825"/>
</g>
<!-- node66 -->
<g id="node14" class="node"><title>node66</title>
<polygon fill="none" stroke="black" points="258,-324 196,-324 196,-288 258,-288 258,-324"/>
<text text-anchor="middle" x="227" y="-302.7" font-family="Times Roman,serif" font-size="12.00">dalibase</text>
</g>
<!-- node74&#45;&gt;node66 -->
<g id="edge98" class="edge"><title>node74&#45;&gt;node66</title>
<path fill="none" stroke="black" d="M121.069,-575.984C140.252,-527.092 193.383,-391.679 216.277,-333.33"/>
<polygon fill="black" stroke="black" points="219.54,-334.596 219.934,-324.009 213.023,-332.04 219.54,-334.596"/>
</g>
<!-- node153 -->
<g id="node17" class="node"><title>node153</title>
<polygon fill="none" stroke="black" points="325,-180 271,-180 271,-144 325,-144 325,-180"/>
<text text-anchor="middle" x="298" y="-158.7" font-family="Times Roman,serif" font-size="12.00">mp</text>
</g>
<!-- node74&#45;&gt;node153 -->
<g id="edge92" class="edge"><title>node74&#45;&gt;node153</title>
<path fill="none" stroke="black" d="M96.7544,-575.619C74.3312,-549.719 38,-500.035 38,-450 38,-450 38,-450 38,-306 38,-205.425 188.723,-174.525 260.653,-165.505"/>
<polygon fill="black" stroke="black" points="261.144,-168.971 270.667,-164.327 260.326,-162.019 261.144,-168.971"/>
</g>
<!-- node149 -->
<g id="node20" class="node"><title>node149</title>
<polygon fill="none" stroke="black" points="456,-252 402,-252 402,-216 456,-216 456,-252"/>
<text text-anchor="middle" x="429" y="-230.7" font-family="Times Roman,serif" font-size="12.00">hrpc</text>
</g>
<!-- node74&#45;&gt;node149 -->
<g id="edge94" class="edge"><title>node74&#45;&gt;node149</title>
<path fill="none" stroke="black" d="M141.178,-593.433C299.499,-590.025 1099.42,-571.36 1204,-540 1334.95,-500.733 1383.38,-454.845 1423,-324 1427.64,-308.687 1434,-299.617 1423,-288 1389.48,-252.609 642.83,-237.654 466.209,-234.605"/>
<polygon fill="black" stroke="black" points="466.167,-231.104 456.109,-234.433 466.048,-238.103 466.167,-231.104"/>
</g>
<!-- node59 -->
<g id="node24" class="node"><title>node59</title>
<polygon fill="none" stroke="black" points="194,-252 136,-252 136,-216 194,-216 194,-252"/>
<text text-anchor="middle" x="165" y="-230.7" font-family="Times Roman,serif" font-size="12.00">remote</text>
</g>
<!-- node74&#45;&gt;node59 -->
<g id="edge96" class="edge"><title>node74&#45;&gt;node59</title>
<path fill="none" stroke="black" d="M105.941,-575.767C94.7866,-548.825 76,-496.54 76,-450 76,-450 76,-450 76,-378 76,-330.922 110.847,-286.378 136.931,-259.631"/>
<polygon fill="black" stroke="black" points="139.736,-261.778 144.358,-252.244 134.799,-256.815 139.736,-261.778"/>
</g>
<!-- node64&#45;&gt;node151 -->
<g id="edge4" class="edge"><title>node64&#45;&gt;node151</title>
<path fill="none" stroke="black" d="M1195.33,-505.807C1196.9,-505.176 1198.46,-504.571 1200,-504 1254.6,-483.737 1278.8,-502.113 1326,-468 1388.54,-422.802 1400.64,-397.855 1423,-324 1447.06,-244.534 1439.86,-193.223 1373,-144 1335.87,-116.668 636.762,-95.7168 466.262,-90.9996"/>
<polygon fill="black" stroke="black" points="466.125,-87.4947 456.033,-90.7186 465.933,-94.492 466.125,-87.4947"/>
</g>
<!-- node64&#45;&gt;node66 -->
<g id="edge14" class="edge"><title>node64&#45;&gt;node66</title>
<path fill="none" stroke="black" d="M1126.87,-520.843C1031.7,-517.24 755.453,-504.203 529,-468 391.465,-446.012 310.436,-505.216 224,-396 210.348,-378.75 212.61,-353.273 217.416,-333.824"/>
<polygon fill="black" stroke="black" points="220.84,-334.578 220.177,-324.004 214.101,-332.684 220.84,-334.578"/>
</g>
<!-- node54 -->
<g id="node28" class="node"><title>node54</title>
<polygon fill="none" stroke="black" points="604,-468 538,-468 538,-432 604,-432 604,-468"/>
<text text-anchor="middle" x="571" y="-446.7" font-family="Times Roman,serif" font-size="12.00">dllserver</text>
</g>
<!-- node64&#45;&gt;node54 -->
<g id="edge34" class="edge"><title>node64&#45;&gt;node54</title>
<path fill="none" stroke="black" d="M1126.73,-517.818C1025.25,-505.434 726.406,-468.965 614.215,-455.274"/>
<polygon fill="black" stroke="black" points="614.616,-451.797 604.265,-454.06 613.768,-458.745 614.616,-451.797"/>
</g>
<!-- node146 -->
<g id="node35" class="node"><title>node146</title>
<polygon fill="none" stroke="black" points="1188,-396 1134,-396 1134,-360 1188,-360 1188,-396"/>
<text text-anchor="middle" x="1161" y="-374.7" font-family="Times Roman,serif" font-size="12.00">eclrtl</text>
</g>
<!-- node64&#45;&gt;node146 -->
<g id="edge80" class="edge"><title>node64&#45;&gt;node146</title>
<path fill="none" stroke="black" d="M1161,-503.762C1161,-479.201 1161,-435.247 1161,-406.354"/>
<polygon fill="black" stroke="black" points="1164.5,-406.09 1161,-396.09 1157.5,-406.09 1164.5,-406.09"/>
</g>
<!-- node147 -->
<g id="node46" class="node"><title>node147</title>
<polygon fill="none" stroke="black" points="1414,-324 1360,-324 1360,-288 1414,-288 1414,-324"/>
<text text-anchor="middle" x="1387" y="-302.7" font-family="Times Roman,serif" font-size="12.00">nbcd</text>
</g>
<!-- node64&#45;&gt;node147 -->
<g id="edge78" class="edge"><title>node64&#45;&gt;node147</title>
<path fill="none" stroke="black" d="M1195.05,-513.297C1223.42,-504.902 1263.91,-490.174 1294,-468 1327.31,-443.459 1332.31,-431.824 1353,-396 1364.37,-376.322 1373.26,-352.14 1379.09,-333.799"/>
<polygon fill="black" stroke="black" points="1382.5,-334.602 1382.09,-324.015 1375.81,-332.55 1382.5,-334.602"/>
</g>
<!-- node53 -->
<g id="node63" class="node"><title>node53</title>
<polygon fill="none" stroke="black" points="1285,-468 1225,-468 1225,-432 1285,-432 1285,-468"/>
<text text-anchor="middle" x="1255" y="-446.7" font-family="Times Roman,serif" font-size="12.00">deftype</text>
</g>
<!-- node64&#45;&gt;node53 -->
<g id="edge82" class="edge"><title>node64&#45;&gt;node53</title>
<path fill="none" stroke="black" d="M1184.72,-503.831C1196.41,-494.878 1210.67,-483.956 1223.28,-474.295"/>
<polygon fill="black" stroke="black" points="1225.48,-477.022 1231.29,-468.163 1221.22,-471.465 1225.48,-477.022"/>
</g>
<!-- node152 -->
<g id="node6" class="node"><title>node152</title>
<polygon fill="none" stroke="black" points="307,-36 267.056,-18 307,-3.55271e-15 346.944,-18 307,-36"/>
<text text-anchor="middle" x="307" y="-14.7" font-family="Times Roman,serif" font-size="12.00">lzma</text>
</g>
<!-- node151&#45;&gt;node152 -->
<g id="edge6" class="edge"><title>node151&#45;&gt;node152</title>
<path fill="none" stroke="black" d="M401.924,-74.0209C381.47,-61.9494 353.554,-45.4743 333.293,-33.5172"/>
<polygon fill="black" stroke="black" points="334.968,-30.4417 324.577,-28.3733 331.41,-36.4701 334.968,-30.4417"/>
</g>
<!-- node187 -->
<g id="node8" class="node"><title>node187</title>
<ellipse fill="none" stroke="black" cx="392" cy="-18" rx="27" ry="18"/>
<text text-anchor="middle" x="392" y="-14.7" font-family="Times Roman,serif" font-size="12.00">dl</text>
</g>
<!-- node151&#45;&gt;node187 -->
<g id="edge8" class="edge"><title>node151&#45;&gt;node187</title>
<path fill="none" stroke="black" d="M419.663,-71.8314C415.405,-63.5451 410.28,-53.5727 405.605,-44.4748"/>
<polygon fill="black" stroke="black" points="408.635,-42.7123 400.951,-35.4177 402.408,-45.9118 408.635,-42.7123"/>
</g>
<!-- node179 -->
<g id="node10" class="node"><title>node179</title>
<ellipse fill="none" stroke="black" cx="467" cy="-18" rx="30.0465" ry="18"/>
<text text-anchor="middle" x="467" y="-14.7" font-family="Times Roman,serif" font-size="12.00">crypt</text>
</g>
<!-- node151&#45;&gt;node179 -->
<g id="edge10" class="edge"><title>node151&#45;&gt;node179</title>
<path fill="none" stroke="black" d="M438.589,-71.8314C442.962,-63.5451 448.226,-53.5727 453.027,-44.4748"/>
<polygon fill="black" stroke="black" points="456.235,-45.8952 457.807,-35.4177 450.044,-42.6279 456.235,-45.8952"/>
</g>
<!-- node188 -->
<g id="node12" class="node"><title>node188</title>
<ellipse fill="none" stroke="black" cx="542" cy="-18" rx="27" ry="18"/>
<text text-anchor="middle" x="542" y="-14.7" font-family="Times Roman,serif" font-size="12.00">rt</text>
</g>
<!-- node151&#45;&gt;node188 -->
<g id="edge12" class="edge"><title>node151&#45;&gt;node188</title>
<path fill="none" stroke="black" d="M456.066,-72.7542C473.414,-61.7009 495.898,-47.375 513.516,-36.1494"/>
<polygon fill="black" stroke="black" points="515.679,-38.9209 522.232,-30.5955 511.918,-33.0174 515.679,-38.9209"/>
</g>
<!-- node66&#45;&gt;node151 -->
<g id="edge16" class="edge"><title>node66&#45;&gt;node151</title>
<path fill="none" stroke="black" d="M225.492,-287.854C223.793,-254.874 225.129,-184.754 262,-144 279.506,-124.65 348.336,-107.021 391.98,-97.4716"/>
<polygon fill="black" stroke="black" points="392.908,-100.852 401.952,-95.3339 391.441,-94.0078 392.908,-100.852"/>
</g>
<!-- node66&#45;&gt;node153 -->
<g id="edge18" class="edge"><title>node66&#45;&gt;node153</title>
<path fill="none" stroke="black" d="M235.992,-287.762C248.262,-262.876 270.348,-218.082 284.581,-189.216"/>
<polygon fill="black" stroke="black" points="287.798,-190.606 289.081,-180.09 281.519,-187.511 287.798,-190.606"/>
</g>
<!-- node66&#45;&gt;node149 -->
<g id="edge22" class="edge"><title>node66&#45;&gt;node149</title>
<path fill="none" stroke="black" d="M258.12,-294.908C294.185,-282.053 353.565,-260.888 391.972,-247.198"/>
<polygon fill="black" stroke="black" points="393.489,-250.373 401.734,-243.719 391.139,-243.779 393.489,-250.373"/>
</g>
<!-- node66&#45;&gt;node59 -->
<g id="edge28" class="edge"><title>node66&#45;&gt;node59</title>
<path fill="none" stroke="black" d="M211.355,-287.831C204.141,-279.454 195.443,-269.353 187.54,-260.175"/>
<polygon fill="black" stroke="black" points="190.033,-257.707 180.856,-252.413 184.729,-262.275 190.033,-257.707"/>
</g>
<!-- node153&#45;&gt;node151 -->
<g id="edge20" class="edge"><title>node153&#45;&gt;node151</title>
<path fill="none" stroke="black" d="M325.143,-147.082C344.816,-136.269 371.616,-121.539 393.064,-109.751"/>
<polygon fill="black" stroke="black" points="394.814,-112.783 401.891,-104.899 391.442,-106.649 394.814,-112.783"/>
</g>
<!-- node149&#45;&gt;node151 -->
<g id="edge24" class="edge"><title>node149&#45;&gt;node151</title>
<path fill="none" stroke="black" d="M429,-215.762C429,-191.201 429,-147.247 429,-118.354"/>
<polygon fill="black" stroke="black" points="432.5,-118.09 429,-108.09 425.5,-118.09 432.5,-118.09"/>
</g>
<!-- node149&#45;&gt;node153 -->
<g id="edge26" class="edge"><title>node149&#45;&gt;node153</title>
<path fill="none" stroke="black" d="M401.857,-219.082C382.184,-208.269 355.384,-193.539 333.936,-181.751"/>
<polygon fill="black" stroke="black" points="335.558,-178.649 325.109,-176.899 332.186,-184.783 335.558,-178.649"/>
</g>
<!-- node59&#45;&gt;node151 -->
<g id="edge30" class="edge"><title>node59&#45;&gt;node151</title>
<path fill="none" stroke="black" d="M168.746,-215.911C173.959,-195.373 185.422,-162.346 208,-144 235.933,-121.302 336.106,-103.553 391.501,-95.211"/>
<polygon fill="black" stroke="black" points="392.241,-98.6398 401.623,-93.7165 391.219,-91.7149 392.241,-98.6398"/>
</g>
<!-- node59&#45;&gt;node153 -->
<g id="edge32" class="edge"><title>node59&#45;&gt;node153</title>
<path fill="none" stroke="black" d="M194.187,-218.199C214.037,-207.454 240.444,-193.158 261.657,-181.674"/>
<polygon fill="black" stroke="black" points="263.568,-184.62 270.695,-176.781 260.235,-178.464 263.568,-184.62"/>
</g>
<!-- node54&#45;&gt;node151 -->
<g id="edge38" class="edge"><title>node54&#45;&gt;node151</title>
<path fill="none" stroke="black" d="M604.172,-448.902C710.246,-445.054 1036.06,-430.496 1067,-396 1077.68,-384.09 1077.97,-371.649 1067,-360 975.735,-263.076 562.043,-419.218 469,-324 464.804,-319.706 465.943,-221.93 465,-216 459.506,-181.442 447.619,-142.927 439.003,-117.684"/>
<polygon fill="black" stroke="black" points="442.244,-116.347 435.654,-108.051 435.632,-118.646 442.244,-116.347"/>
</g>
<!-- node54&#45;&gt;node66 -->
<g id="edge62" class="edge"><title>node54&#45;&gt;node66</title>
<path fill="none" stroke="black" d="M537.768,-449.032C463.734,-446.176 288.491,-435.328 247,-396 230.457,-380.319 226.13,-354.235 225.547,-334.173"/>
<polygon fill="black" stroke="black" points="229.047,-334.035 225.547,-324.035 222.047,-334.035 229.047,-334.035"/>
</g>
<!-- node54&#45;&gt;node153 -->
<g id="edge40" class="edge"><title>node54&#45;&gt;node153</title>
<path fill="none" stroke="black" d="M537.731,-446.289C502.697,-440.802 447.758,-427.516 412,-396 378.808,-366.746 329.696,-245.34 308.437,-189.87"/>
<polygon fill="black" stroke="black" points="311.63,-188.419 304.802,-180.317 305.087,-190.908 311.63,-188.419"/>
</g>
<!-- node54&#45;&gt;node149 -->
<g id="edge42" class="edge"><title>node54&#45;&gt;node149</title>
<path fill="none" stroke="black" d="M537.836,-441.791C500.553,-431.818 443.565,-414.074 431,-396 403.354,-356.234 411.993,-296.673 420.613,-261.936"/>
<polygon fill="black" stroke="black" points="424.067,-262.564 423.247,-252.001 417.301,-260.77 424.067,-262.564"/>
</g>
<!-- node54&#45;&gt;node59 -->
<g id="edge60" class="edge"><title>node54&#45;&gt;node59</title>
<path fill="none" stroke="black" d="M537.749,-447.875C461.632,-442.531 277.198,-426.709 224,-396 188.412,-375.457 179.882,-362.675 166,-324 158.895,-304.206 158.984,-280.35 160.667,-262.173"/>
<polygon fill="black" stroke="black" points="164.149,-262.532 161.8,-252.201 157.193,-261.742 164.149,-262.532"/>
</g>
<!-- node176 -->
<g id="node30" class="node"><title>node176</title>
<ellipse fill="none" stroke="black" cx="571" cy="-378" rx="130.789" ry="18"/>
<text text-anchor="middle" x="571" y="-374.7" font-family="Times Roman,serif" font-size="12.00">/usr/lib/x86_64&#45;linux&#45;gnu/libz.so</text>
</g>
<!-- node54&#45;&gt;node176 -->
<g id="edge36" class="edge"><title>node54&#45;&gt;node176</title>
<path fill="none" stroke="black" d="M571,-431.831C571,-424.131 571,-414.974 571,-406.417"/>
<polygon fill="black" stroke="black" points="574.5,-406.413 571,-396.413 567.5,-406.413 574.5,-406.413"/>
</g>
<!-- node54&#45;&gt;node146 -->
<g id="edge44" class="edge"><title>node54&#45;&gt;node146</title>
<path fill="none" stroke="black" d="M604.123,-448.749C687.903,-445.127 914.764,-432.457 1100,-396 1107.92,-394.441 1116.3,-392.304 1124.22,-390.046"/>
<polygon fill="black" stroke="black" points="1125.35,-393.36 1133.94,-387.156 1123.36,-386.65 1125.35,-393.36"/>
</g>
<!-- node55 -->
<g id="node51" class="node"><title>node55</title>
<polygon fill="none" stroke="black" points="346,-396 256,-396 256,-360 346,-360 346,-396"/>
<text text-anchor="middle" x="301" y="-374.7" font-family="Times Roman,serif" font-size="12.00">environment</text>
</g>
<!-- node54&#45;&gt;node55 -->
<g id="edge64" class="edge"><title>node54&#45;&gt;node55</title>
<path fill="none" stroke="black" d="M537.983,-442.044C496.345,-431.898 422.623,-413.556 360,-396 358.582,-395.603 357.146,-395.196 355.699,-394.782"/>
<polygon fill="black" stroke="black" points="356.616,-391.404 346.036,-391.971 354.66,-398.125 356.616,-391.404"/>
</g>
<!-- node177 -->
<g id="node57" class="node"><title>node177</title>
<ellipse fill="none" stroke="black" cx="791" cy="-378" rx="70.8437" ry="18"/>
<text text-anchor="middle" x="791" y="-374.7" font-family="Times Roman,serif" font-size="12.00">/usr/lib/libbfd.so</text>
</g>
<!-- node54&#45;&gt;node177 -->
<g id="edge74" class="edge"><title>node54&#45;&gt;node177</title>
<path fill="none" stroke="black" d="M604.413,-439.065C639.801,-427.483 696.183,-409.031 737.715,-395.439"/>
<polygon fill="black" stroke="black" points="738.984,-398.706 747.4,-392.269 736.807,-392.053 738.984,-398.706"/>
</g>
<!-- node178 -->
<g id="node59" class="node"><title>node178</title>
<ellipse fill="none" stroke="black" cx="969" cy="-378" rx="89.0421" ry="18"/>
<text text-anchor="middle" x="969" y="-374.7" font-family="Times Roman,serif" font-size="12.00">/usr/lib/libiberty_pic.a</text>
</g>
<!-- node54&#45;&gt;node178 -->
<g id="edge76" class="edge"><title>node54&#45;&gt;node178</title>
<path fill="none" stroke="black" d="M604.302,-444.045C659.671,-434.137 774.156,-413.61 871,-396 878.219,-394.687 885.735,-393.316 893.253,-391.94"/>
<polygon fill="black" stroke="black" points="893.906,-395.379 903.112,-390.135 892.645,-388.494 893.906,-395.379"/>
</g>
<!-- node146&#45;&gt;node151 -->
<g id="edge54" class="edge"><title>node146&#45;&gt;node151</title>
<path fill="none" stroke="black" d="M1188.15,-373.631C1215.42,-367.64 1256.03,-353.979 1275,-324 1283.56,-310.48 1284.94,-300.537 1275,-288 1171.46,-157.428 616.461,-104.753 466.416,-92.7759"/>
<polygon fill="black" stroke="black" points="466.568,-89.2771 456.325,-91.9834 466.02,-96.2557 466.568,-89.2771"/>
</g>
<!-- node186 -->
<g id="node37" class="node"><title>node186</title>
<ellipse fill="none" stroke="black" cx="597" cy="-306" rx="118.939" ry="18"/>
<text text-anchor="middle" x="597" y="-302.7" font-family="Times Roman,serif" font-size="12.00">/usr/lib/libboost_regex&#45;mt.so</text>
</g>
<!-- node146&#45;&gt;node186 -->
<g id="edge46" class="edge"><title>node146&#45;&gt;node186</title>
<path fill="none" stroke="black" d="M1133.95,-368.808C1123.46,-365.564 1111.27,-362.184 1100,-360 935.622,-328.161 891.274,-343.663 725,-324 714.507,-322.759 703.543,-321.366 692.637,-319.918"/>
<polygon fill="black" stroke="black" points="693.03,-316.439 682.653,-318.576 692.098,-323.377 693.03,-316.439"/>
</g>
<!-- node183 -->
<g id="node39" class="node"><title>node183</title>
<ellipse fill="none" stroke="black" cx="812" cy="-306" rx="77.9931" ry="18"/>
<text text-anchor="middle" x="812" y="-302.7" font-family="Times Roman,serif" font-size="12.00">/usr/lib/libicuuc.so</text>
</g>
<!-- node146&#45;&gt;node183 -->
<g id="edge48" class="edge"><title>node146&#45;&gt;node183</title>
<path fill="none" stroke="black" d="M1133.84,-369.292C1123.34,-366.107 1111.18,-362.641 1100,-360 1011.68,-339.126 988.111,-341.195 899,-324 892.838,-322.811 886.437,-321.545 880.029,-320.257"/>
<polygon fill="black" stroke="black" points="880.482,-316.778 869.986,-318.222 879.092,-323.638 880.482,-316.778"/>
</g>
<!-- node184 -->
<g id="node41" class="node"><title>node184</title>
<ellipse fill="none" stroke="black" cx="993" cy="-306" rx="85.1424" ry="18"/>
<text text-anchor="middle" x="993" y="-302.7" font-family="Times Roman,serif" font-size="12.00">/usr/lib/libicui18n.so</text>
</g>
<!-- node146&#45;&gt;node184 -->
<g id="edge50" class="edge"><title>node146&#45;&gt;node184</title>
<path fill="none" stroke="black" d="M1133.63,-366.272C1108.38,-355.449 1070.34,-339.148 1040.19,-326.226"/>
<polygon fill="black" stroke="black" points="1041.28,-322.883 1030.71,-322.161 1038.52,-329.317 1041.28,-322.883"/>
</g>
<!-- node185 -->
<g id="node43" class="node"><title>node185</title>
<ellipse fill="none" stroke="black" cx="1181" cy="-306" rx="85.1424" ry="18"/>
<text text-anchor="middle" x="1181" y="-302.7" font-family="Times Roman,serif" font-size="12.00">/usr/lib/libicudata.so</text>
</g>
<!-- node146&#45;&gt;node185 -->
<g id="edge52" class="edge"><title>node146&#45;&gt;node185</title>
<path fill="none" stroke="black" d="M1166.05,-359.831C1168.21,-352.046 1170.79,-342.773 1173.18,-334.135"/>
<polygon fill="black" stroke="black" points="1176.58,-334.985 1175.89,-324.413 1169.84,-333.112 1176.58,-334.985"/>
</g>
<!-- node146&#45;&gt;node147 -->
<g id="edge56" class="edge"><title>node146&#45;&gt;node147</title>
<path fill="none" stroke="black" d="M1188.26,-369.315C1228.75,-356.415 1304.88,-332.162 1350.26,-317.706"/>
<polygon fill="black" stroke="black" points="1351.53,-320.974 1359.99,-314.604 1349.4,-314.304 1351.53,-320.974"/>
</g>
<!-- node147&#45;&gt;node151 -->
<g id="edge58" class="edge"><title>node147&#45;&gt;node151</title>
<path fill="none" stroke="black" d="M1388.61,-287.878C1390.54,-253.637 1389.15,-179.679 1346,-144 1311.56,-115.522 634.159,-95.5086 466.357,-90.9749"/>
<polygon fill="black" stroke="black" points="466.366,-87.4739 456.275,-90.7046 466.178,-94.4714 466.366,-87.4739"/>
</g>
<!-- node55&#45;&gt;node151 -->
<g id="edge66" class="edge"><title>node55&#45;&gt;node151</title>
<path fill="none" stroke="black" d="M309.007,-359.984C330.737,-311.092 390.921,-175.679 416.853,-117.33"/>
<polygon fill="black" stroke="black" points="420.133,-118.569 420.996,-108.009 413.736,-115.725 420.133,-118.569"/>
</g>
<!-- node55&#45;&gt;node66 -->
<g id="edge72" class="edge"><title>node55&#45;&gt;node66</title>
<path fill="none" stroke="black" d="M282.327,-359.831C273.475,-351.219 262.751,-340.785 253.111,-331.405"/>
<polygon fill="black" stroke="black" points="255.275,-328.628 245.667,-324.163 250.394,-333.645 255.275,-328.628"/>
</g>
<!-- node55&#45;&gt;node153 -->
<g id="edge68" class="edge"><title>node55&#45;&gt;node153</title>
<path fill="none" stroke="black" d="M300.749,-359.955C300.228,-322.394 299.022,-235.554 298.395,-190.41"/>
<polygon fill="black" stroke="black" points="301.891,-190.095 298.252,-180.145 294.891,-190.193 301.891,-190.095"/>
</g>
<!-- node55&#45;&gt;node59 -->
<g id="edge70" class="edge"><title>node55&#45;&gt;node59</title>
<path fill="none" stroke="black" d="M255.871,-366.814C232.106,-358.694 204.369,-345.3 187,-324 172.848,-306.645 167.582,-281.549 165.723,-262.265"/>
<polygon fill="black" stroke="black" points="169.21,-261.959 165.005,-252.235 162.228,-262.459 169.21,-261.959"/>
</g>
<!-- node53&#45;&gt;node151 -->
<g id="edge84" class="edge"><title>node53&#45;&gt;node151</title>
<path fill="none" stroke="black" d="M1266.5,-431.734C1284.33,-400.897 1314.4,-337.079 1292,-288 1271.73,-243.573 1251.69,-239.717 1209,-216 1114.25,-163.36 1082.25,-165.433 976,-144 786.784,-105.831 555.076,-94.2661 466.159,-91.0934"/>
<polygon fill="black" stroke="black" points="466.149,-87.5911 456.035,-90.7468 465.91,-94.587 466.149,-87.5911"/>
</g>
<!-- node53&#45;&gt;node146 -->
<g id="edge88" class="edge"><title>node53&#45;&gt;node146</title>
<path fill="none" stroke="black" d="M1231.28,-431.831C1219.59,-422.878 1205.33,-411.956 1192.72,-402.295"/>
<polygon fill="black" stroke="black" points="1194.78,-399.465 1184.71,-396.163 1190.52,-405.022 1194.78,-399.465"/>
</g>
<!-- node53&#45;&gt;node147 -->
<g id="edge86" class="edge"><title>node53&#45;&gt;node147</title>
<path fill="none" stroke="black" d="M1282.55,-431.792C1296.16,-422.07 1312.33,-409.37 1325,-396 1343.28,-376.707 1360.12,-351.581 1371.62,-332.782"/>
<polygon fill="black" stroke="black" points="1374.68,-334.49 1376.82,-324.115 1368.67,-330.889 1374.68,-334.49"/>
</g>
</g>
</svg>
