<?xml version="1.0" encoding="UTF-8" standalone="no"?>
<!DOCTYPE svg PUBLIC "-//W3C//DTD SVG 1.1//EN"
 "http://www.w3.org/Graphics/SVG/1.1/DTD/svg11.dtd">
<!-- Generated by graphviz version 2.26.3 (20100126.1600)
 -->
<!-- Title: GG Pages: 1 -->
<svg width="1432pt" height="620pt"
 viewBox="0.00 0.00 1432.00 620.00" xmlns="http://www.w3.org/2000/svg" xmlns:xlink="http://www.w3.org/1999/xlink">
<g id="graph1" class="graph" transform="scale(1 1) rotate(0) translate(4 616)">
<title>GG</title>
<polygon fill="white" stroke="white" points="-4,5 -4,-616 1429,-616 1429,5 -4,5"/>
<!-- node45 -->
<g id="node1" class="node"><title>node45</title>
<polygon fill="none" stroke="black" points="193,-612 105,-612 105,-576 193,-576 193,-612"/>
<text text-anchor="middle" x="149" y="-590.7" font-family="Times Roman,serif" font-size="12.00">swapnodelib</text>
</g>
<!-- node151 -->
<g id="node2" class="node"><title>node151</title>
<polygon fill="none" stroke="black" points="349,-108 295,-108 295,-72 349,-72 349,-108"/>
<text text-anchor="middle" x="322" y="-86.7" font-family="Times Roman,serif" font-size="12.00">jlib</text>
</g>
<!-- node45&#45;&gt;node151 -->
<g id="edge2" class="edge"><title>node45&#45;&gt;node151</title>
<path fill="none" stroke="black" d="M107.891,-575.874C63.7876,-553.309 0,-510.257 0,-450 0,-450 0,-450 0,-234 4.19167e-15,-165.543 63.2326,-173.516 125,-144 177.689,-118.822 244.103,-103.692 284.786,-96.1014"/>
<polygon fill="black" stroke="black" points="285.582,-99.5142 294.799,-94.2888 284.335,-92.6262 285.582,-99.5142"/>
</g>
<!-- node59 -->
<g id="node12" class="node"><title>node59</title>
<polygon fill="none" stroke="black" points="218,-252 160,-252 160,-216 218,-216 218,-252"/>
<text text-anchor="middle" x="189" y="-230.7" font-family="Times Roman,serif" font-size="12.00">remote</text>
</g>
<!-- node45&#45;&gt;node59 -->
<g id="edge12" class="edge"><title>node45&#45;&gt;node59</title>
<path fill="none" stroke="black" d="M138.105,-575.775C115.755,-535.972 68.9289,-438.546 95,-360 108.188,-320.266 139.323,-282.91 162.161,-259.348"/>
<polygon fill="black" stroke="black" points="164.695,-261.762 169.251,-252.197 159.725,-256.834 164.695,-261.762"/>
</g>
<!-- node66 -->
<g id="node18" class="node"><title>node66</title>
<polygon fill="none" stroke="black" points="346,-324 284,-324 284,-288 346,-288 346,-324"/>
<text text-anchor="middle" x="315" y="-302.7" font-family="Times Roman,serif" font-size="12.00">dalibase</text>
</g>
<!-- node45&#45;&gt;node66 -->
<g id="edge20" class="edge"><title>node45&#45;&gt;node66</title>
<path fill="none" stroke="black" d="M159.384,-575.984C187.623,-526.991 265.939,-391.119 299.455,-332.969"/>
<polygon fill="black" stroke="black" points="302.658,-334.421 304.62,-324.009 296.594,-330.925 302.658,-334.421"/>
</g>
<!-- node64 -->
<g id="node27" class="node"><title>node64</title>
<polygon fill="none" stroke="black" points="525,-540 457,-540 457,-504 525,-504 525,-540"/>
<text text-anchor="middle" x="491" y="-518.7" font-family="Times Roman,serif" font-size="12.00">workunit</text>
</g>
<!-- node45&#45;&gt;node64 -->
<g id="edge34" class="edge"><title>node45&#45;&gt;node64</title>
<path fill="none" stroke="black" d="M193.01,-584.735C258.598,-570.927 381.285,-545.098 446.916,-531.281"/>
<polygon fill="black" stroke="black" points="447.877,-534.655 456.941,-529.17 446.435,-527.805 447.877,-534.655"/>
</g>
<!-- node55 -->
<g id="node54" class="node"><title>node55</title>
<polygon fill="none" stroke="black" points="194,-396 104,-396 104,-360 194,-360 194,-396"/>
<text text-anchor="middle" x="149" y="-374.7" font-family="Times Roman,serif" font-size="12.00">environment</text>
</g>
<!-- node45&#45;&gt;node55 -->
<g id="edge96" class="edge"><title>node45&#45;&gt;node55</title>
<path fill="none" stroke="black" d="M149,-575.955C149,-538.394 149,-451.554 149,-406.41"/>
<polygon fill="black" stroke="black" points="152.5,-406.145 149,-396.145 145.5,-406.145 152.5,-406.145"/>
</g>
<!-- node152 -->
<g id="node4" class="node"><title>node152</title>
<polygon fill="none" stroke="black" points="200,-36 160.056,-18 200,-3.55271e-15 239.944,-18 200,-36"/>
<text text-anchor="middle" x="200" y="-14.7" font-family="Times Roman,serif" font-size="12.00">lzma</text>
</g>
<!-- node151&#45;&gt;node152 -->
<g id="edge4" class="edge"><title>node151&#45;&gt;node152</title>
<path fill="none" stroke="black" d="M294.924,-74.0209C274.47,-61.9494 246.554,-45.4743 226.293,-33.5172"/>
<polygon fill="black" stroke="black" points="227.968,-30.4417 217.577,-28.3733 224.41,-36.4701 227.968,-30.4417"/>
</g>
<!-- node187 -->
<g id="node6" class="node"><title>node187</title>
<ellipse fill="none" stroke="black" cx="285" cy="-18" rx="27" ry="18"/>
<text text-anchor="middle" x="285" y="-14.7" font-family="Times Roman,serif" font-size="12.00">dl</text>
</g>
<!-- node151&#45;&gt;node187 -->
<g id="edge6" class="edge"><title>node151&#45;&gt;node187</title>
<path fill="none" stroke="black" d="M312.663,-71.8314C308.405,-63.5451 303.28,-53.5727 298.605,-44.4748"/>
<polygon fill="black" stroke="black" points="301.635,-42.7123 293.951,-35.4177 295.408,-45.9118 301.635,-42.7123"/>
</g>
<!-- node179 -->
<g id="node8" class="node"><title>node179</title>
<ellipse fill="none" stroke="black" cx="360" cy="-18" rx="30.0465" ry="18"/>
<text text-anchor="middle" x="360" y="-14.7" font-family="Times Roman,serif" font-size="12.00">crypt</text>
</g>
<!-- node151&#45;&gt;node179 -->
<g id="edge8" class="edge"><title>node151&#45;&gt;node179</title>
<path fill="none" stroke="black" d="M331.589,-71.8314C335.962,-63.5451 341.226,-53.5727 346.027,-44.4748"/>
<polygon fill="black" stroke="black" points="349.235,-45.8952 350.807,-35.4177 343.044,-42.6279 349.235,-45.8952"/>
</g>
<!-- node188 -->
<g id="node10" class="node"><title>node188</title>
<ellipse fill="none" stroke="black" cx="435" cy="-18" rx="27" ry="18"/>
<text text-anchor="middle" x="435" y="-14.7" font-family="Times Roman,serif" font-size="12.00">rt</text>
</g>
<!-- node151&#45;&gt;node188 -->
<g id="edge10" class="edge"><title>node151&#45;&gt;node188</title>
<path fill="none" stroke="black" d="M349.066,-72.7542C366.414,-61.7009 388.898,-47.375 406.516,-36.1494"/>
<polygon fill="black" stroke="black" points="408.679,-38.9209 415.232,-30.5955 404.918,-33.0174 408.679,-38.9209"/>
</g>
<!-- node59&#45;&gt;node151 -->
<g id="edge14" class="edge"><title>node59&#45;&gt;node151</title>
<path fill="none" stroke="black" d="M193.909,-215.962C199.975,-196.38 211.902,-165.088 231,-144 246.017,-127.419 267.338,-114.394 285.568,-105.293"/>
<polygon fill="black" stroke="black" points="287.257,-108.365 294.769,-100.894 284.238,-102.05 287.257,-108.365"/>
</g>
<!-- node153 -->
<g id="node15" class="node"><title>node153</title>
<polygon fill="none" stroke="black" points="294,-180 240,-180 240,-144 294,-144 294,-180"/>
<text text-anchor="middle" x="267" y="-158.7" font-family="Times Roman,serif" font-size="12.00">mp</text>
</g>
<!-- node59&#45;&gt;node153 -->
<g id="edge16" class="edge"><title>node59&#45;&gt;node153</title>
<path fill="none" stroke="black" d="M208.683,-215.831C218.105,-207.134 229.54,-196.578 239.78,-187.127"/>
<polygon fill="black" stroke="black" points="242.35,-189.517 247.324,-180.163 237.602,-184.374 242.35,-189.517"/>
</g>
<!-- node153&#45;&gt;node151 -->
<g id="edge18" class="edge"><title>node153&#45;&gt;node151</title>
<path fill="none" stroke="black" d="M280.879,-143.831C287.214,-135.539 294.838,-125.557 301.793,-116.453"/>
<polygon fill="black" stroke="black" points="304.645,-118.485 307.934,-108.413 299.083,-114.235 304.645,-118.485"/>
</g>
<!-- node66&#45;&gt;node151 -->
<g id="edge22" class="edge"><title>node66&#45;&gt;node151</title>
<path fill="none" stroke="black" d="M315.585,-287.955C316.802,-250.394 319.616,-163.554 321.079,-118.41"/>
<polygon fill="black" stroke="black" points="324.586,-118.253 321.412,-108.145 317.59,-118.026 324.586,-118.253"/>
</g>
<!-- node66&#45;&gt;node59 -->
<g id="edge32" class="edge"><title>node66&#45;&gt;node59</title>
<path fill="none" stroke="black" d="M283.854,-288.202C266.726,-278.415 245.335,-266.191 227.204,-255.831"/>
<polygon fill="black" stroke="black" points="228.479,-252.528 218.06,-250.606 225.006,-258.606 228.479,-252.528"/>
</g>
<!-- node66&#45;&gt;node153 -->
<g id="edge24" class="edge"><title>node66&#45;&gt;node153</title>
<path fill="none" stroke="black" d="M308.921,-287.762C300.662,-262.985 285.824,-218.471 276.198,-189.594"/>
<polygon fill="black" stroke="black" points="279.513,-188.47 273.03,-180.09 272.872,-190.683 279.513,-188.47"/>
</g>
<!-- node149 -->
<g id="node22" class="node"><title>node149</title>
<polygon fill="none" stroke="black" points="442,-252 388,-252 388,-216 442,-216 442,-252"/>
<text text-anchor="middle" x="415" y="-230.7" font-family="Times Roman,serif" font-size="12.00">hrpc</text>
</g>
<!-- node66&#45;&gt;node149 -->
<g id="edge26" class="edge"><title>node66&#45;&gt;node149</title>
<path fill="none" stroke="black" d="M340.234,-287.831C352.788,-278.793 368.128,-267.748 381.639,-258.02"/>
<polygon fill="black" stroke="black" points="383.704,-260.846 389.774,-252.163 379.613,-255.166 383.704,-260.846"/>
</g>
<!-- node149&#45;&gt;node151 -->
<g id="edge28" class="edge"><title>node149&#45;&gt;node151</title>
<path fill="none" stroke="black" d="M403.221,-215.762C387.079,-190.768 357.968,-145.692 339.335,-116.841"/>
<polygon fill="black" stroke="black" points="342.048,-114.591 333.683,-108.09 336.168,-118.389 342.048,-114.591"/>
</g>
<!-- node149&#45;&gt;node153 -->
<g id="edge30" class="edge"><title>node149&#45;&gt;node153</title>
<path fill="none" stroke="black" d="M387.855,-220.794C364.146,-209.26 329.536,-192.423 303.424,-179.72"/>
<polygon fill="black" stroke="black" points="304.747,-176.471 294.224,-175.244 301.685,-182.766 304.747,-176.471"/>
</g>
<!-- node64&#45;&gt;node151 -->
<g id="edge36" class="edge"><title>node64&#45;&gt;node151</title>
<path fill="none" stroke="black" d="M456.922,-516.378C369.11,-501.129 138.915,-456.058 95,-396 26.5272,-302.358 80.6931,-225.749 163,-144 195.851,-111.372 249.139,-98.4442 284.861,-93.3313"/>
<polygon fill="black" stroke="black" points="285.422,-96.788 294.89,-92.0341 284.524,-89.8459 285.422,-96.788"/>
</g>
<!-- node64&#45;&gt;node66 -->
<g id="edge38" class="edge"><title>node64&#45;&gt;node66</title>
<path fill="none" stroke="black" d="M456.79,-505.198C419.205,-484.827 360.178,-446.811 330,-396 318.978,-377.442 315.44,-353.143 314.541,-334.471"/>
<polygon fill="black" stroke="black" points="318.033,-334.121 314.28,-324.214 311.036,-334.299 318.033,-334.121"/>
</g>
<!-- node54 -->
<g id="node31" class="node"><title>node54</title>
<polygon fill="none" stroke="black" points="524,-468 458,-468 458,-432 524,-432 524,-468"/>
<text text-anchor="middle" x="491" y="-446.7" font-family="Times Roman,serif" font-size="12.00">dllserver</text>
</g>
<!-- node64&#45;&gt;node54 -->
<g id="edge40" class="edge"><title>node64&#45;&gt;node54</title>
<path fill="none" stroke="black" d="M491,-503.831C491,-496.131 491,-486.974 491,-478.417"/>
<polygon fill="black" stroke="black" points="494.5,-478.413 491,-468.413 487.5,-478.413 494.5,-478.413"/>
</g>
<!-- node146 -->
<g id="node38" class="node"><title>node146</title>
<polygon fill="none" stroke="black" points="1168,-396 1114,-396 1114,-360 1168,-360 1168,-396"/>
<text text-anchor="middle" x="1141" y="-374.7" font-family="Times Roman,serif" font-size="12.00">eclrtl</text>
</g>
<!-- node64&#45;&gt;node146 -->
<g id="edge86" class="edge"><title>node64&#45;&gt;node146</title>
<path fill="none" stroke="black" d="M525.311,-517.479C619.024,-504.583 886.566,-464.099 1100,-396 1101.43,-395.542 1102.89,-395.051 1104.35,-394.533"/>
<polygon fill="black" stroke="black" points="1105.89,-397.688 1113.96,-390.82 1103.37,-391.158 1105.89,-397.688"/>
</g>
<!-- node147 -->
<g id="node49" class="node"><title>node147</title>
<polygon fill="none" stroke="black" points="1396,-324 1342,-324 1342,-288 1396,-288 1396,-324"/>
<text text-anchor="middle" x="1369" y="-302.7" font-family="Times Roman,serif" font-size="12.00">nbcd</text>
</g>
<!-- node64&#45;&gt;node147 -->
<g id="edge84" class="edge"><title>node64&#45;&gt;node147</title>
<path fill="none" stroke="black" d="M525.266,-521.708C670.142,-520.202 1227.89,-511.597 1292,-468 1337.35,-437.16 1356.75,-372.082 1364.43,-334.47"/>
<polygon fill="black" stroke="black" points="1367.96,-334.671 1366.38,-324.194 1361.08,-333.367 1367.96,-334.671"/>
</g>
<!-- node53 -->
<g id="node66" class="node"><title>node53</title>
<polygon fill="none" stroke="black" points="1283,-468 1223,-468 1223,-432 1283,-432 1283,-468"/>
<text text-anchor="middle" x="1253" y="-446.7" font-family="Times Roman,serif" font-size="12.00">deftype</text>
</g>
<!-- node64&#45;&gt;node53 -->
<g id="edge88" class="edge"><title>node64&#45;&gt;node53</title>
<path fill="none" stroke="black" d="M525.222,-518.766C649.706,-507.004 1078.16,-466.521 1212.43,-453.834"/>
<polygon fill="black" stroke="black" points="1213.05,-457.29 1222.68,-452.865 1212.39,-450.322 1213.05,-457.29"/>
</g>
<!-- node54&#45;&gt;node151 -->
<g id="edge44" class="edge"><title>node54&#45;&gt;node151</title>
<path fill="none" stroke="black" d="M524.088,-448.121C643.838,-441.166 1048.57,-416.236 1067,-396 1077.77,-384.17 1077.96,-371.66 1067,-360 978.874,-266.214 591.658,-401.61 489,-324 448.41,-293.313 477.65,-259.348 451,-216 427.787,-178.243 413.827,-174.846 382,-144 371.995,-134.303 360.711,-123.993 350.651,-115.009"/>
<polygon fill="black" stroke="black" points="352.696,-112.145 342.894,-108.126 348.05,-117.381 352.696,-112.145"/>
</g>
<!-- node54&#45;&gt;node59 -->
<g id="edge66" class="edge"><title>node54&#45;&gt;node59</title>
<path fill="none" stroke="black" d="M457.882,-444.238C423.635,-437.112 369.71,-422.536 330,-396 275.271,-359.427 228.972,-296.256 205.502,-260.563"/>
<polygon fill="black" stroke="black" points="208.406,-258.609 200.036,-252.114 202.529,-262.411 208.406,-258.609"/>
</g>
<!-- node54&#45;&gt;node153 -->
<g id="edge46" class="edge"><title>node54&#45;&gt;node153</title>
<path fill="none" stroke="black" d="M458.429,-431.882C443.618,-422.53 426.625,-410.119 414,-396 377.542,-355.228 383.751,-334.529 355,-288 334.521,-254.858 327.322,-247.931 305,-216 298.793,-207.121 291.991,-197.439 285.878,-188.757"/>
<polygon fill="black" stroke="black" points="288.664,-186.634 280.043,-180.474 282.941,-190.665 288.664,-186.634"/>
</g>
<!-- node54&#45;&gt;node66 -->
<g id="edge68" class="edge"><title>node54&#45;&gt;node66</title>
<path fill="none" stroke="black" d="M457.831,-443.256C428.972,-435.912 387.563,-421.629 360,-396 341.916,-379.184 330.082,-353.497 323.111,-333.864"/>
<polygon fill="black" stroke="black" points="326.382,-332.609 319.901,-324.228 319.74,-334.821 326.382,-332.609"/>
</g>
<!-- node54&#45;&gt;node149 -->
<g id="edge48" class="edge"><title>node54&#45;&gt;node149</title>
<path fill="none" stroke="black" d="M463.065,-431.989C451.12,-422.74 438.273,-410.382 431,-396 409.363,-353.216 409.376,-295.998 411.847,-262.262"/>
<polygon fill="black" stroke="black" points="415.344,-262.445 412.712,-252.182 408.37,-261.847 415.344,-262.445"/>
</g>
<!-- node176 -->
<g id="node33" class="node"><title>node176</title>
<ellipse fill="none" stroke="black" cx="571" cy="-378" rx="130.789" ry="18"/>
<text text-anchor="middle" x="571" y="-374.7" font-family="Times Roman,serif" font-size="12.00">/usr/lib/x86_64&#45;linux&#45;gnu/libz.so</text>
</g>
<!-- node54&#45;&gt;node176 -->
<g id="edge42" class="edge"><title>node54&#45;&gt;node176</title>
<path fill="none" stroke="black" d="M511.187,-431.831C521.021,-422.981 532.991,-412.208 543.632,-402.631"/>
<polygon fill="black" stroke="black" points="546.005,-405.205 551.096,-395.913 541.322,-400.002 546.005,-405.205"/>
</g>
<!-- node54&#45;&gt;node146 -->
<g id="edge50" class="edge"><title>node54&#45;&gt;node146</title>
<path fill="none" stroke="black" d="M524.354,-448.47C635.046,-443.168 989.473,-424.348 1100,-396 1101.27,-395.674 1102.55,-395.313 1103.84,-394.923"/>
<polygon fill="black" stroke="black" points="1105.38,-398.089 1113.65,-391.459 1103.05,-391.488 1105.38,-398.089"/>
</g>
<!-- node54&#45;&gt;node55 -->
<g id="edge70" class="edge"><title>node54&#45;&gt;node55</title>
<path fill="none" stroke="black" d="M457.897,-443.031C399.179,-430.669 276.229,-404.785 204.414,-389.666"/>
<polygon fill="black" stroke="black" points="204.71,-386.152 194.204,-387.517 203.268,-393.002 204.71,-386.152"/>
</g>
<!-- node177 -->
<g id="node60" class="node"><title>node177</title>
<ellipse fill="none" stroke="black" cx="791" cy="-378" rx="70.8437" ry="18"/>
<text text-anchor="middle" x="791" y="-374.7" font-family="Times Roman,serif" font-size="12.00">/usr/lib/libbfd.so</text>
</g>
<!-- node54&#45;&gt;node177 -->
<g id="edge80" class="edge"><title>node54&#45;&gt;node177</title>
<path fill="none" stroke="black" d="M524.251,-442.02C573.602,-430.176 667.076,-407.742 729.217,-392.828"/>
<polygon fill="black" stroke="black" points="730.384,-396.147 739.291,-390.41 728.75,-389.341 730.384,-396.147"/>
</g>
<!-- node178 -->
<g id="node62" class="node"><title>node178</title>
<ellipse fill="none" stroke="black" cx="969" cy="-378" rx="89.0421" ry="18"/>
<text text-anchor="middle" x="969" y="-374.7" font-family="Times Roman,serif" font-size="12.00">/usr/lib/libiberty_pic.a</text>
</g>
<!-- node54&#45;&gt;node178 -->
<g id="edge82" class="edge"><title>node54&#45;&gt;node178</title>
<path fill="none" stroke="black" d="M524.107,-445.754C590.186,-437.178 743.079,-416.828 871,-396 878.42,-394.792 886.144,-393.475 893.857,-392.122"/>
<polygon fill="black" stroke="black" points="894.728,-395.522 903.961,-390.327 893.503,-388.63 894.728,-395.522"/>
</g>
<!-- node146&#45;&gt;node151 -->
<g id="edge60" class="edge"><title>node146&#45;&gt;node151</title>
<path fill="none" stroke="black" d="M1168.33,-373.311C1222.16,-362.931 1333.5,-335.123 1295,-288 1173.2,-138.92 523.318,-99.2585 359.509,-91.566"/>
<polygon fill="black" stroke="black" points="359.582,-88.0658 349.433,-91.1047 359.262,-95.0585 359.582,-88.0658"/>
</g>
<!-- node186 -->
<g id="node40" class="node"><title>node186</title>
<ellipse fill="none" stroke="black" cx="993" cy="-306" rx="118.939" ry="18"/>
<text text-anchor="middle" x="993" y="-302.7" font-family="Times Roman,serif" font-size="12.00">/usr/lib/libboost_regex&#45;mt.so</text>
</g>
<!-- node146&#45;&gt;node186 -->
<g id="edge52" class="edge"><title>node146&#45;&gt;node186</title>
<path fill="none" stroke="black" d="M1113.85,-364.794C1092.54,-354.427 1062.43,-339.774 1037.59,-327.691"/>
<polygon fill="black" stroke="black" points="1038.88,-324.427 1028.36,-323.2 1035.82,-330.722 1038.88,-324.427"/>
</g>
<!-- node183 -->
<g id="node42" class="node"><title>node183</title>
<ellipse fill="none" stroke="black" cx="1208" cy="-306" rx="77.9931" ry="18"/>
<text text-anchor="middle" x="1208" y="-302.7" font-family="Times Roman,serif" font-size="12.00">/usr/lib/libicuuc.so</text>
</g>
<!-- node146&#45;&gt;node183 -->
<g id="edge54" class="edge"><title>node146&#45;&gt;node183</title>
<path fill="none" stroke="black" d="M1157.91,-359.831C1165.9,-351.239 1175.59,-340.834 1184.3,-331.471"/>
<polygon fill="black" stroke="black" points="1187.08,-333.618 1191.33,-323.913 1181.96,-328.85 1187.08,-333.618"/>
</g>
<!-- node184 -->
<g id="node44" class="node"><title>node184</title>
<ellipse fill="none" stroke="black" cx="583" cy="-306" rx="85.1424" ry="18"/>
<text text-anchor="middle" x="583" y="-302.7" font-family="Times Roman,serif" font-size="12.00">/usr/lib/libicui18n.so</text>
</g>
<!-- node146&#45;&gt;node184 -->
<g id="edge56" class="edge"><title>node146&#45;&gt;node184</title>
<path fill="none" stroke="black" d="M1113.65,-364.527C1109.17,-362.751 1104.52,-361.151 1100,-360 917.153,-313.449 863.91,-349.778 677,-324 669.419,-322.955 661.524,-321.703 653.672,-320.352"/>
<polygon fill="black" stroke="black" points="654.235,-316.898 643.778,-318.598 653.013,-323.79 654.235,-316.898"/>
</g>
<!-- node185 -->
<g id="node46" class="node"><title>node185</title>
<ellipse fill="none" stroke="black" cx="771" cy="-306" rx="85.1424" ry="18"/>
<text text-anchor="middle" x="771" y="-302.7" font-family="Times Roman,serif" font-size="12.00">/usr/lib/libicudata.so</text>
</g>
<!-- node146&#45;&gt;node185 -->
<g id="edge58" class="edge"><title>node146&#45;&gt;node185</title>
<path fill="none" stroke="black" d="M1113.58,-364.792C1109.11,-362.982 1104.48,-361.302 1100,-360 998.536,-330.51 969.129,-341.939 865,-324 857.964,-322.788 850.642,-321.475 843.327,-320.131"/>
<polygon fill="black" stroke="black" points="843.857,-316.669 833.386,-318.283 842.578,-323.552 843.857,-316.669"/>
</g>
<!-- node146&#45;&gt;node147 -->
<g id="edge62" class="edge"><title>node146&#45;&gt;node147</title>
<path fill="none" stroke="black" d="M1168.3,-371.329C1205.05,-362.077 1272.24,-344.191 1328,-324 1329.42,-323.487 1330.85,-322.949 1332.3,-322.392"/>
<polygon fill="black" stroke="black" points="1333.9,-325.518 1341.86,-318.517 1331.27,-319.03 1333.9,-325.518"/>
</g>
<!-- node147&#45;&gt;node151 -->
<g id="edge64" class="edge"><title>node147&#45;&gt;node151</title>
<path fill="none" stroke="black" d="M1370.63,-287.858C1372.59,-253.582 1371.25,-179.567 1328,-144 1289.88,-112.647 536.604,-94.5965 359.193,-90.7699"/>
<polygon fill="black" stroke="black" points="359.124,-87.2677 349.052,-90.5532 358.975,-94.2661 359.124,-87.2677"/>
</g>
<!-- node55&#45;&gt;node151 -->
<g id="edge72" class="edge"><title>node55&#45;&gt;node151</title>
<path fill="none" stroke="black" d="M145.714,-359.906C140.921,-329.324 134.282,-265.87 151,-216 163.629,-178.326 173.171,-169.069 204,-144 227.966,-124.512 260.109,-110.409 284.795,-101.513"/>
<polygon fill="black" stroke="black" points="286.234,-104.718 294.533,-98.1317 283.938,-98.1053 286.234,-104.718"/>
</g>
<!-- node55&#45;&gt;node59 -->
<g id="edge76" class="edge"><title>node55&#45;&gt;node59</title>
<path fill="none" stroke="black" d="M154.066,-359.762C160.919,-335.093 173.206,-290.86 181.23,-261.973"/>
<polygon fill="black" stroke="black" points="184.671,-262.662 183.975,-252.09 177.926,-260.788 184.671,-262.662"/>
</g>
<!-- node55&#45;&gt;node153 -->
<g id="edge74" class="edge"><title>node55&#45;&gt;node153</title>
<path fill="none" stroke="black" d="M160.706,-359.544C167.29,-349.129 175.642,-335.862 183,-324 202.769,-292.131 209.57,-285.205 227,-252 237.729,-231.561 248.266,-207.651 255.829,-189.614"/>
<polygon fill="black" stroke="black" points="259.112,-190.835 259.708,-180.257 252.646,-188.155 259.112,-190.835"/>
</g>
<!-- node55&#45;&gt;node66 -->
<g id="edge78" class="edge"><title>node55&#45;&gt;node66</title>
<path fill="none" stroke="black" d="M190.889,-359.831C216.524,-348.712 249.159,-334.557 274.53,-323.553"/>
<polygon fill="black" stroke="black" points="276.087,-326.693 283.868,-319.503 273.301,-320.271 276.087,-326.693"/>
</g>
<!-- node53&#45;&gt;node151 -->
<g id="edge90" class="edge"><title>node53&#45;&gt;node151</title>
<path fill="none" stroke="black" d="M1283.18,-440.218C1332.27,-422.192 1424,-378.772 1424,-306 1424,-306 1424,-306 1424,-234 1424,-183.597 1399.6,-167.475 1355,-144 1265.54,-96.9189 534.339,-90.8833 359.466,-90.1124"/>
<polygon fill="black" stroke="black" points="359.239,-86.6116 349.225,-90.0706 359.211,-93.6115 359.239,-86.6116"/>
</g>
<!-- node53&#45;&gt;node146 -->
<g id="edge94" class="edge"><title>node53&#45;&gt;node146</title>
<path fill="none" stroke="black" d="M1224.74,-431.831C1210.22,-422.498 1192.37,-411.026 1176.89,-401.074"/>
<polygon fill="black" stroke="black" points="1178.4,-397.881 1168.09,-395.418 1174.61,-403.769 1178.4,-397.881"/>
</g>
<!-- node53&#45;&gt;node147 -->
<g id="edge92" class="edge"><title>node53&#45;&gt;node147</title>
<path fill="none" stroke="black" d="M1267.69,-431.762C1288,-406.552 1324.77,-360.91 1347.98,-332.095"/>
<polygon fill="black" stroke="black" points="1350.88,-334.073 1354.43,-324.09 1345.43,-329.682 1350.88,-334.073"/>
</g>
</g>
</svg>
