<?xml version="1.0" encoding="UTF-8" standalone="no"?>
<!DOCTYPE svg PUBLIC "-//W3C//DTD SVG 1.1//EN"
 "http://www.w3.org/Graphics/SVG/1.1/DTD/svg11.dtd">
<!-- Generated by graphviz version 2.26.3 (20100126.1600)
 -->
<!-- Title: GG Pages: 1 -->
<svg width="2555pt" height="692pt"
 viewBox="0.00 0.00 2554.86 692.00" xmlns="http://www.w3.org/2000/svg" xmlns:xlink="http://www.w3.org/1999/xlink">
<g id="graph1" class="graph" transform="scale(1 1) rotate(0) translate(4 688)">
<title>GG</title>
<polygon fill="white" stroke="white" points="-4,5 -4,-688 2551.86,-688 2551.86,5 -4,5"/>
<!-- node62 -->
<g id="node1" class="node"><title>node62</title>
<polygon fill="none" stroke="black" points="1213.86,-684 1115.86,-684 1115.86,-648 1213.86,-648 1213.86,-684"/>
<text text-anchor="middle" x="1164.86" y="-662.7" font-family="Times Roman,serif" font-size="12.00">roxiemanager</text>
</g>
<!-- node151 -->
<g id="node2" class="node"><title>node151</title>
<polygon fill="none" stroke="black" points="1381.86,-108 1327.86,-108 1327.86,-72 1381.86,-72 1381.86,-108"/>
<text text-anchor="middle" x="1354.86" y="-86.7" font-family="Times Roman,serif" font-size="12.00">jlib</text>
</g>
<!-- node62&#45;&gt;node151 -->
<g id="edge2" class="edge"><title>node62&#45;&gt;node151</title>
<path fill="none" stroke="black" d="M1115.62,-665.063C904.885,-660.872 87.69,-642.692 42.8592,-612 6.74024,-587.272 2.85921,-565.773 2.85921,-522 2.85921,-522 2.85921,-522 2.85921,-234 2.85921,-193.024 -8.57763,-170.282 22.8592,-144 73.854,-101.367 1106.2,-91.7632 1317.34,-90.242"/>
<polygon fill="black" stroke="black" points="1317.62,-93.7402 1327.6,-90.1699 1317.57,-86.7404 1317.62,-93.7402"/>
</g>
<!-- node60 -->
<g id="node12" class="node"><title>node60</title>
<polygon fill="none" stroke="black" points="125.859,-180 31.8592,-180 31.8592,-144 125.859,-144 125.859,-180"/>
<text text-anchor="middle" x="78.8592" y="-158.7" font-family="Times Roman,serif" font-size="12.00">roxiecommlib</text>
</g>
<!-- node62&#45;&gt;node60 -->
<g id="edge12" class="edge"><title>node62&#45;&gt;node60</title>
<path fill="none" stroke="black" d="M1115.64,-665.043C908.783,-660.831 118.539,-642.775 75.8592,-612 41.0472,-586.898 40.8592,-564.918 40.8592,-522 40.8592,-522 40.8592,-522 40.8592,-306 40.8592,-264.368 55.892,-218.14 67.0473,-189.567"/>
<polygon fill="black" stroke="black" points="70.317,-190.817 70.8004,-180.233 63.8224,-188.206 70.317,-190.817"/>
</g>
<!-- node153 -->
<g id="node15" class="node"><title>node153</title>
<polygon fill="none" stroke="black" points="975.859,-180 921.859,-180 921.859,-144 975.859,-144 975.859,-180"/>
<text text-anchor="middle" x="948.859" y="-158.7" font-family="Times Roman,serif" font-size="12.00">mp</text>
</g>
<!-- node62&#45;&gt;node153 -->
<g id="edge16" class="edge"><title>node62&#45;&gt;node153</title>
<path fill="none" stroke="black" d="M1115.77,-665.72C954.727,-664.375 443.751,-656.608 285.859,-612 203.967,-588.863 116.859,-607.098 116.859,-522 116.859,-522 116.859,-522 116.859,-378 116.859,-286.512 161.007,-254.8 243.859,-216 304.533,-187.587 774.427,-168.363 911.465,-163.319"/>
<polygon fill="black" stroke="black" points="911.619,-166.816 921.484,-162.954 911.364,-159.82 911.619,-166.816"/>
</g>
<!-- node149 -->
<g id="node18" class="node"><title>node149</title>
<polygon fill="none" stroke="black" points="1238.86,-252 1184.86,-252 1184.86,-216 1238.86,-216 1238.86,-252"/>
<text text-anchor="middle" x="1211.86" y="-230.7" font-family="Times Roman,serif" font-size="12.00">hrpc</text>
</g>
<!-- node62&#45;&gt;node149 -->
<g id="edge20" class="edge"><title>node62&#45;&gt;node149</title>
<path fill="none" stroke="black" d="M1167.52,-647.878C1174.89,-596.963 1195.79,-448.235 1206.86,-324 1208.69,-303.476 1209.96,-280.255 1210.76,-262.542"/>
<polygon fill="black" stroke="black" points="1214.27,-262.438 1211.2,-252.297 1207.27,-262.138 1214.27,-262.438"/>
</g>
<!-- node59 -->
<g id="node22" class="node"><title>node59</title>
<polygon fill="none" stroke="black" points="310.859,-252 252.859,-252 252.859,-216 310.859,-216 310.859,-252"/>
<text text-anchor="middle" x="281.859" y="-230.7" font-family="Times Roman,serif" font-size="12.00">remote</text>
</g>
<!-- node62&#45;&gt;node59 -->
<g id="edge26" class="edge"><title>node62&#45;&gt;node59</title>
<path fill="none" stroke="black" d="M1115.74,-665.101C912.075,-661.171 142.678,-644.233 102.859,-612 70.6824,-585.953 78.8592,-563.398 78.8592,-522 78.8592,-522 78.8592,-522 78.8592,-378 78.8592,-298.349 184.113,-258.743 243.041,-242.81"/>
<polygon fill="black" stroke="black" points="243.977,-246.183 252.774,-240.28 242.215,-239.409 243.977,-246.183"/>
</g>
<!-- node66 -->
<g id="node26" class="node"><title>node66</title>
<polygon fill="none" stroke="black" points="483.859,-324 421.859,-324 421.859,-288 483.859,-288 483.859,-324"/>
<text text-anchor="middle" x="452.859" y="-302.7" font-family="Times Roman,serif" font-size="12.00">dalibase</text>
</g>
<!-- node62&#45;&gt;node66 -->
<g id="edge32" class="edge"><title>node62&#45;&gt;node66</title>
<path fill="none" stroke="black" d="M1115.66,-662.667C937.84,-649.975 338.859,-601.333 338.859,-522 338.859,-522 338.859,-522 338.859,-450 338.859,-399.147 383.104,-355.767 416.466,-330.286"/>
<polygon fill="black" stroke="black" points="418.729,-332.966 424.679,-324.2 414.561,-327.341 418.729,-332.966"/>
</g>
<!-- node55 -->
<g id="node32" class="node"><title>node55</title>
<polygon fill="none" stroke="black" points="272.859,-396 182.859,-396 182.859,-360 272.859,-360 272.859,-396"/>
<text text-anchor="middle" x="227.859" y="-374.7" font-family="Times Roman,serif" font-size="12.00">environment</text>
</g>
<!-- node62&#45;&gt;node55 -->
<g id="edge42" class="edge"><title>node62&#45;&gt;node55</title>
<path fill="none" stroke="black" d="M1115.77,-664.272C940.92,-657.932 357.171,-635.117 324.859,-612 256.575,-563.147 236.19,-457.013 230.239,-406.208"/>
<polygon fill="black" stroke="black" points="233.718,-405.819 229.176,-396.247 226.757,-406.562 233.718,-405.819"/>
</g>
<!-- node54 -->
<g id="node38" class="node"><title>node54</title>
<polygon fill="none" stroke="black" points="1042.86,-468 976.859,-468 976.859,-432 1042.86,-432 1042.86,-468"/>
<text text-anchor="middle" x="1009.86" y="-446.7" font-family="Times Roman,serif" font-size="12.00">dllserver</text>
</g>
<!-- node62&#45;&gt;node54 -->
<g id="edge52" class="edge"><title>node62&#45;&gt;node54</title>
<path fill="none" stroke="black" d="M1151.91,-647.955C1124.56,-609.838 1060.79,-520.973 1028.83,-476.434"/>
<polygon fill="black" stroke="black" points="1031.55,-474.229 1022.88,-468.145 1025.87,-478.31 1031.55,-474.229"/>
</g>
<!-- node146 -->
<g id="node45" class="node"><title>node146</title>
<polygon fill="none" stroke="black" points="2162.86,-396 2108.86,-396 2108.86,-360 2162.86,-360 2162.86,-396"/>
<text text-anchor="middle" x="2135.86" y="-374.7" font-family="Times Roman,serif" font-size="12.00">eclrtl</text>
</g>
<!-- node62&#45;&gt;node146 -->
<g id="edge90" class="edge"><title>node62&#45;&gt;node146</title>
<path fill="none" stroke="black" d="M1214.09,-664.137C1381.08,-657.061 1923.68,-627.668 2070.86,-540 2105,-519.666 2108.99,-504.848 2123.86,-468 2131.8,-448.326 2134.71,-424.464 2135.68,-406.254"/>
<polygon fill="black" stroke="black" points="2139.18,-406.384 2136.05,-396.26 2132.18,-406.123 2139.18,-406.384"/>
</g>
<!-- node147 -->
<g id="node56" class="node"><title>node147</title>
<polygon fill="none" stroke="black" points="2394.86,-324 2340.86,-324 2340.86,-288 2394.86,-288 2394.86,-324"/>
<text text-anchor="middle" x="2367.86" y="-302.7" font-family="Times Roman,serif" font-size="12.00">nbcd</text>
</g>
<!-- node62&#45;&gt;node147 -->
<g id="edge88" class="edge"><title>node62&#45;&gt;node147</title>
<path fill="none" stroke="black" d="M1214.06,-664.986C1432.52,-660.331 2306.11,-640.024 2356.86,-612 2450.95,-560.044 2403.28,-399.287 2379.08,-333.995"/>
<polygon fill="black" stroke="black" points="2382.24,-332.472 2375.42,-324.367 2375.7,-334.958 2382.24,-332.472"/>
</g>
<!-- node53 -->
<g id="node68" class="node"><title>node53</title>
<polygon fill="none" stroke="black" points="2327.86,-468 2267.86,-468 2267.86,-432 2327.86,-432 2327.86,-468"/>
<text text-anchor="middle" x="2297.86" y="-446.7" font-family="Times Roman,serif" font-size="12.00">deftype</text>
</g>
<!-- node62&#45;&gt;node53 -->
<g id="edge92" class="edge"><title>node62&#45;&gt;node53</title>
<path fill="none" stroke="black" d="M1213.96,-665.654C1409.25,-663.982 2124.64,-654.956 2215.86,-612 2255.13,-593.506 2262.63,-578.918 2281.86,-540 2291.38,-520.732 2295.31,-496.665 2296.89,-478.267"/>
<polygon fill="black" stroke="black" points="2300.39,-478.384 2297.58,-468.169 2293.41,-477.908 2300.39,-478.384"/>
</g>
<!-- node64 -->
<g id="node73" class="node"><title>node64</title>
<polygon fill="none" stroke="black" points="1799.86,-540 1731.86,-540 1731.86,-504 1799.86,-504 1799.86,-540"/>
<text text-anchor="middle" x="1765.86" y="-518.7" font-family="Times Roman,serif" font-size="12.00">workunit</text>
</g>
<!-- node62&#45;&gt;node64 -->
<g id="edge100" class="edge"><title>node62&#45;&gt;node64</title>
<path fill="none" stroke="black" d="M1214.01,-654.645C1260.79,-643.805 1333.16,-626.953 1395.86,-612 1513.6,-583.918 1652.2,-549.966 1721.58,-532.906"/>
<polygon fill="black" stroke="black" points="1722.83,-536.203 1731.71,-530.416 1721.16,-529.406 1722.83,-536.203"/>
</g>
<!-- node150 -->
<g id="node81" class="node"><title>node150</title>
<polygon fill="none" stroke="black" points="2546.86,-540 2492.86,-540 2492.86,-504 2546.86,-504 2546.86,-540"/>
<text text-anchor="middle" x="2519.86" y="-518.7" font-family="Times Roman,serif" font-size="12.00">jhtree</text>
</g>
<!-- node62&#45;&gt;node150 -->
<g id="edge114" class="edge"><title>node62&#45;&gt;node150</title>
<path fill="none" stroke="black" d="M1214.1,-665.413C1446.59,-662.459 2425.46,-647.923 2478.86,-612 2499.58,-598.062 2509.99,-570.915 2515.12,-550.065"/>
<polygon fill="black" stroke="black" points="2518.57,-550.647 2517.29,-540.13 2511.73,-549.153 2518.57,-550.647"/>
</g>
<!-- node99 -->
<g id="node84" class="node"><title>node99</title>
<polygon fill="none" stroke="black" points="2397.86,-540 2343.86,-540 2343.86,-504 2397.86,-504 2397.86,-540"/>
<text text-anchor="middle" x="2370.86" y="-518.7" font-family="Times Roman,serif" font-size="12.00">hql</text>
</g>
<!-- node62&#45;&gt;node99 -->
<g id="edge118" class="edge"><title>node62&#45;&gt;node99</title>
<path fill="none" stroke="black" d="M1214.16,-665.143C1429.99,-661.208 2283.01,-643.698 2329.86,-612 2350.54,-598.008 2360.96,-570.868 2366.09,-550.034"/>
<polygon fill="black" stroke="black" points="2369.55,-550.626 2368.27,-540.109 2362.71,-549.127 2369.55,-550.626"/>
</g>
<!-- node56 -->
<g id="node90" class="node"><title>node56</title>
<polygon fill="none" stroke="black" points="1386.86,-612 1322.86,-612 1322.86,-576 1386.86,-576 1386.86,-612"/>
<text text-anchor="middle" x="1354.86" y="-590.7" font-family="Times Roman,serif" font-size="12.00">fileview2</text>
</g>
<!-- node62&#45;&gt;node56 -->
<g id="edge128" class="edge"><title>node62&#45;&gt;node56</title>
<path fill="none" stroke="black" d="M1212.8,-647.831C1243.72,-636.116 1283.53,-621.031 1313.13,-609.812"/>
<polygon fill="black" stroke="black" points="1314.65,-612.982 1322.76,-606.165 1312.16,-606.436 1314.65,-612.982"/>
</g>
<!-- node152 -->
<g id="node4" class="node"><title>node152</title>
<polygon fill="none" stroke="black" points="1232.86,-36 1192.92,-18 1232.86,-3.55271e-15 1272.8,-18 1232.86,-36"/>
<text text-anchor="middle" x="1232.86" y="-14.7" font-family="Times Roman,serif" font-size="12.00">lzma</text>
</g>
<!-- node151&#45;&gt;node152 -->
<g id="edge4" class="edge"><title>node151&#45;&gt;node152</title>
<path fill="none" stroke="black" d="M1327.78,-74.0209C1307.33,-61.9494 1279.41,-45.4743 1259.15,-33.5172"/>
<polygon fill="black" stroke="black" points="1260.83,-30.4417 1250.44,-28.3733 1257.27,-36.4701 1260.83,-30.4417"/>
</g>
<!-- node187 -->
<g id="node6" class="node"><title>node187</title>
<ellipse fill="none" stroke="black" cx="1317.86" cy="-18" rx="27" ry="18"/>
<text text-anchor="middle" x="1317.86" y="-14.7" font-family="Times Roman,serif" font-size="12.00">dl</text>
</g>
<!-- node151&#45;&gt;node187 -->
<g id="edge6" class="edge"><title>node151&#45;&gt;node187</title>
<path fill="none" stroke="black" d="M1345.52,-71.8314C1341.26,-63.5451 1336.14,-53.5727 1331.46,-44.4748"/>
<polygon fill="black" stroke="black" points="1334.49,-42.7123 1326.81,-35.4177 1328.27,-45.9118 1334.49,-42.7123"/>
</g>
<!-- node179 -->
<g id="node8" class="node"><title>node179</title>
<ellipse fill="none" stroke="black" cx="1392.86" cy="-18" rx="30.0465" ry="18"/>
<text text-anchor="middle" x="1392.86" y="-14.7" font-family="Times Roman,serif" font-size="12.00">crypt</text>
</g>
<!-- node151&#45;&gt;node179 -->
<g id="edge8" class="edge"><title>node151&#45;&gt;node179</title>
<path fill="none" stroke="black" d="M1364.45,-71.8314C1368.82,-63.5451 1374.08,-53.5727 1378.89,-44.4748"/>
<polygon fill="black" stroke="black" points="1382.09,-45.8952 1383.67,-35.4177 1375.9,-42.6279 1382.09,-45.8952"/>
</g>
<!-- node188 -->
<g id="node10" class="node"><title>node188</title>
<ellipse fill="none" stroke="black" cx="1467.86" cy="-18" rx="27" ry="18"/>
<text text-anchor="middle" x="1467.86" y="-14.7" font-family="Times Roman,serif" font-size="12.00">rt</text>
</g>
<!-- node151&#45;&gt;node188 -->
<g id="edge10" class="edge"><title>node151&#45;&gt;node188</title>
<path fill="none" stroke="black" d="M1381.93,-72.7542C1399.27,-61.7009 1421.76,-47.375 1439.37,-36.1494"/>
<polygon fill="black" stroke="black" points="1441.54,-38.9209 1448.09,-30.5955 1437.78,-33.0174 1441.54,-38.9209"/>
</g>
<!-- node60&#45;&gt;node151 -->
<g id="edge14" class="edge"><title>node60&#45;&gt;node151</title>
<path fill="none" stroke="black" d="M125.983,-147.064C130.969,-145.861 135.993,-144.803 140.859,-144 375.704,-105.256 1139.69,-92.8591 1317.6,-90.4636"/>
<polygon fill="black" stroke="black" points="1317.8,-93.9612 1327.76,-90.3291 1317.71,-86.9618 1317.8,-93.9612"/>
</g>
<!-- node153&#45;&gt;node151 -->
<g id="edge18" class="edge"><title>node153&#45;&gt;node151</title>
<path fill="none" stroke="black" d="M976.128,-157.164C1046.91,-144.611 1236.61,-110.97 1317.49,-96.6265"/>
<polygon fill="black" stroke="black" points="1318.47,-100.007 1327.71,-94.8149 1317.25,-93.1149 1318.47,-100.007"/>
</g>
<!-- node149&#45;&gt;node151 -->
<g id="edge22" class="edge"><title>node149&#45;&gt;node151</title>
<path fill="none" stroke="black" d="M1229.97,-215.762C1255.22,-190.335 1301.11,-144.125 1329.68,-115.357"/>
<polygon fill="black" stroke="black" points="1332.33,-117.652 1336.9,-108.09 1327.37,-112.719 1332.33,-117.652"/>
</g>
<!-- node149&#45;&gt;node153 -->
<g id="edge24" class="edge"><title>node149&#45;&gt;node153</title>
<path fill="none" stroke="black" d="M1184.7,-226.566C1137.24,-213.571 1039.14,-186.715 985.631,-172.067"/>
<polygon fill="black" stroke="black" points="986.436,-168.658 975.867,-169.394 984.587,-175.41 986.436,-168.658"/>
</g>
<!-- node59&#45;&gt;node151 -->
<g id="edge28" class="edge"><title>node59&#45;&gt;node151</title>
<path fill="none" stroke="black" d="M291.994,-215.953C305.185,-194.457 330.432,-159.512 362.859,-144 450.161,-102.239 1146.85,-92.1971 1317.32,-90.3557"/>
<polygon fill="black" stroke="black" points="1317.59,-93.8532 1327.55,-90.2483 1317.51,-86.8536 1317.59,-93.8532"/>
</g>
<!-- node59&#45;&gt;node153 -->
<g id="edge30" class="edge"><title>node59&#45;&gt;node153</title>
<path fill="none" stroke="black" d="M311.058,-220.367C315.602,-218.66 320.301,-217.122 324.859,-216 437.359,-188.304 794.942,-169.3 911.636,-163.708"/>
<polygon fill="black" stroke="black" points="912.023,-167.194 921.846,-163.224 911.691,-160.202 912.023,-167.194"/>
</g>
<!-- node66&#45;&gt;node151 -->
<g id="edge34" class="edge"><title>node66&#45;&gt;node151</title>
<path fill="none" stroke="black" d="M483.942,-292.39C557.143,-260.933 746.748,-182.91 912.859,-144 1060.41,-109.438 1241.16,-96.1437 1317.75,-91.8117"/>
<polygon fill="black" stroke="black" points="1318.06,-95.3002 1327.85,-91.2587 1317.67,-88.3107 1318.06,-95.3002"/>
</g>
<!-- node66&#45;&gt;node153 -->
<g id="edge36" class="edge"><title>node66&#45;&gt;node153</title>
<path fill="none" stroke="black" d="M484.132,-303.358C540.55,-297.971 662.63,-283.468 760.859,-252 816.137,-234.292 875.953,-203.44 912.917,-182.868"/>
<polygon fill="black" stroke="black" points="914.802,-185.824 921.806,-177.874 911.373,-179.721 914.802,-185.824"/>
</g>
<!-- node66&#45;&gt;node149 -->
<g id="edge38" class="edge"><title>node66&#45;&gt;node149</title>
<path fill="none" stroke="black" d="M484.028,-303.043C605.025,-291.565 1043.38,-249.982 1174.54,-237.541"/>
<polygon fill="black" stroke="black" points="1174.88,-241.024 1184.5,-236.595 1174.22,-234.055 1174.88,-241.024"/>
</g>
<!-- node66&#45;&gt;node59 -->
<g id="edge40" class="edge"><title>node66&#45;&gt;node59</title>
<path fill="none" stroke="black" d="M421.495,-292.794C393.045,-280.815 351.01,-263.116 320.498,-250.269"/>
<polygon fill="black" stroke="black" points="321.602,-246.936 311.028,-246.281 318.886,-253.388 321.602,-246.936"/>
</g>
<!-- node55&#45;&gt;node151 -->
<g id="edge44" class="edge"><title>node55&#45;&gt;node151</title>
<path fill="none" stroke="black" d="M225.872,-359.965C223.248,-328.925 221.304,-264.107 243.859,-216 262.938,-175.309 273.863,-162.413 314.859,-144 407.748,-102.281 1142.55,-92.1696 1317.55,-90.3438"/>
<polygon fill="black" stroke="black" points="1317.83,-93.8413 1327.79,-90.2398 1317.76,-86.8416 1317.83,-93.8413"/>
</g>
<!-- node55&#45;&gt;node153 -->
<g id="edge46" class="edge"><title>node55&#45;&gt;node153</title>
<path fill="none" stroke="black" d="M259.666,-359.82C295.795,-339.817 356.999,-307.875 412.859,-288 594.817,-223.26 823.417,-182.228 911.706,-167.806"/>
<polygon fill="black" stroke="black" points="912.452,-171.231 921.765,-166.179 911.334,-164.32 912.452,-171.231"/>
</g>
<!-- node55&#45;&gt;node59 -->
<g id="edge48" class="edge"><title>node55&#45;&gt;node59</title>
<path fill="none" stroke="black" d="M234.698,-359.762C243.99,-334.985 260.682,-290.471 271.512,-261.594"/>
<polygon fill="black" stroke="black" points="274.841,-262.682 275.076,-252.09 268.287,-260.224 274.841,-262.682"/>
</g>
<!-- node55&#45;&gt;node66 -->
<g id="edge50" class="edge"><title>node55&#45;&gt;node66</title>
<path fill="none" stroke="black" d="M273.121,-363.516C313.73,-350.521 372.803,-331.618 412.003,-319.074"/>
<polygon fill="black" stroke="black" points="413.305,-322.332 421.762,-315.951 411.171,-315.665 413.305,-322.332"/>
</g>
<!-- node54&#45;&gt;node151 -->
<g id="edge56" class="edge"><title>node54&#45;&gt;node151</title>
<path fill="none" stroke="black" d="M976.848,-448.319C863.616,-442.35 495.382,-421.175 448.859,-396 403.807,-371.621 376.859,-357.225 376.859,-306 376.859,-306 376.859,-306 376.859,-234 376.859,-137.083 1138.3,-99.0844 1317.44,-91.4858"/>
<polygon fill="black" stroke="black" points="1317.84,-94.9725 1327.68,-91.0579 1317.54,-87.9786 1317.84,-94.9725"/>
</g>
<!-- node54&#45;&gt;node153 -->
<g id="edge58" class="edge"><title>node54&#45;&gt;node153</title>
<path fill="none" stroke="black" d="M1042.99,-441.376C1065.61,-433.569 1093.93,-419.583 1107.86,-396 1116,-382.224 1113.17,-375.093 1107.86,-360 1082.25,-287.201 1017.32,-221.382 978.818,-187.036"/>
<polygon fill="black" stroke="black" points="980.85,-184.163 971.027,-180.194 976.231,-189.422 980.85,-184.163"/>
</g>
<!-- node54&#45;&gt;node149 -->
<g id="edge60" class="edge"><title>node54&#45;&gt;node149</title>
<path fill="none" stroke="black" d="M1043.06,-443.66C1072.14,-436.559 1113.87,-422.404 1140.86,-396 1178.86,-358.832 1197.93,-297.864 1206.3,-262.272"/>
<polygon fill="black" stroke="black" points="1209.81,-262.617 1208.56,-252.096 1202.97,-261.098 1209.81,-262.617"/>
</g>
<!-- node54&#45;&gt;node59 -->
<g id="edge78" class="edge"><title>node54&#45;&gt;node59</title>
<path fill="none" stroke="black" d="M976.547,-441.779C960.943,-438.229 942.045,-434.357 924.859,-432 862.867,-423.496 415.007,-430.582 362.859,-396 316.508,-365.263 295.54,-299.668 287.006,-262.055"/>
<polygon fill="black" stroke="black" points="290.423,-261.293 284.918,-252.24 283.576,-262.749 290.423,-261.293"/>
</g>
<!-- node54&#45;&gt;node66 -->
<g id="edge80" class="edge"><title>node54&#45;&gt;node66</title>
<path fill="none" stroke="black" d="M976.852,-435.984C972.218,-434.422 967.464,-433.027 962.859,-432 909.469,-420.091 513.058,-431.986 471.859,-396 454.732,-381.039 450.78,-354.874 450.645,-334.598"/>
<polygon fill="black" stroke="black" points="454.15,-334.416 450.888,-324.336 447.152,-334.251 454.15,-334.416"/>
</g>
<!-- node54&#45;&gt;node55 -->
<g id="edge82" class="edge"><title>node54&#45;&gt;node55</title>
<path fill="none" stroke="black" d="M976.555,-441.72C960.953,-438.157 942.054,-434.292 924.859,-432 643.343,-394.472 566.466,-445.795 286.859,-396 285.584,-395.773 284.298,-395.527 283.004,-395.265"/>
<polygon fill="black" stroke="black" points="283.539,-391.797 273.009,-392.97 281.972,-398.619 283.539,-391.797"/>
</g>
<!-- node176 -->
<g id="node40" class="node"><title>node176</title>
<ellipse fill="none" stroke="black" cx="611.859" cy="-378" rx="130.789" ry="18"/>
<text text-anchor="middle" x="611.859" y="-374.7" font-family="Times Roman,serif" font-size="12.00">/usr/lib/x86_64&#45;linux&#45;gnu/libz.so</text>
</g>
<!-- node54&#45;&gt;node176 -->
<g id="edge54" class="edge"><title>node54&#45;&gt;node176</title>
<path fill="none" stroke="black" d="M976.769,-436.324C972.148,-434.709 967.42,-433.209 962.859,-432 917.787,-420.049 803.437,-403.368 717.412,-391.719"/>
<polygon fill="black" stroke="black" points="717.711,-388.228 707.333,-390.36 716.776,-395.165 717.711,-388.228"/>
</g>
<!-- node54&#45;&gt;node146 -->
<g id="edge62" class="edge"><title>node54&#45;&gt;node146</title>
<path fill="none" stroke="black" d="M1043.22,-449.509C1170.82,-447.357 1639.96,-436.954 2023.86,-396 2048.93,-393.325 2076.95,-388.823 2098.68,-384.99"/>
<polygon fill="black" stroke="black" points="2099.58,-388.384 2108.81,-383.174 2098.35,-381.494 2099.58,-388.384"/>
</g>
<!-- node177 -->
<g id="node62" class="node"><title>node177</title>
<ellipse fill="none" stroke="black" cx="831.859" cy="-378" rx="70.8437" ry="18"/>
<text text-anchor="middle" x="831.859" y="-374.7" font-family="Times Roman,serif" font-size="12.00">/usr/lib/libbfd.so</text>
</g>
<!-- node54&#45;&gt;node177 -->
<g id="edge84" class="edge"><title>node54&#45;&gt;node177</title>
<path fill="none" stroke="black" d="M976.796,-436.626C949.398,-425.544 910.107,-409.651 879.344,-397.207"/>
<polygon fill="black" stroke="black" points="880.264,-393.804 869.682,-393.299 877.639,-400.293 880.264,-393.804"/>
</g>
<!-- node178 -->
<g id="node64" class="node"><title>node178</title>
<ellipse fill="none" stroke="black" cx="1009.86" cy="-378" rx="89.0421" ry="18"/>
<text text-anchor="middle" x="1009.86" y="-374.7" font-family="Times Roman,serif" font-size="12.00">/usr/lib/libiberty_pic.a</text>
</g>
<!-- node54&#45;&gt;node178 -->
<g id="edge86" class="edge"><title>node54&#45;&gt;node178</title>
<path fill="none" stroke="black" d="M1009.86,-431.831C1009.86,-424.131 1009.86,-414.974 1009.86,-406.417"/>
<polygon fill="black" stroke="black" points="1013.36,-406.413 1009.86,-396.413 1006.36,-406.413 1013.36,-406.413"/>
</g>
<!-- node146&#45;&gt;node151 -->
<g id="edge72" class="edge"><title>node146&#45;&gt;node151</title>
<path fill="none" stroke="black" d="M2162.88,-362.235C2164.54,-361.44 2166.21,-360.687 2167.86,-360 2221.61,-337.57 2258.79,-370.497 2293.86,-324 2303.49,-311.226 2303.94,-300.426 2293.86,-288 2177.03,-143.965 1553.22,-100.703 1392.6,-91.8733"/>
<polygon fill="black" stroke="black" points="1392.45,-88.3602 1382.27,-91.3184 1392.07,-95.3501 1392.45,-88.3602"/>
</g>
<!-- node186 -->
<g id="node47" class="node"><title>node186</title>
<ellipse fill="none" stroke="black" cx="1991.86" cy="-306" rx="118.939" ry="18"/>
<text text-anchor="middle" x="1991.86" y="-302.7" font-family="Times Roman,serif" font-size="12.00">/usr/lib/libboost_regex&#45;mt.so</text>
</g>
<!-- node146&#45;&gt;node186 -->
<g id="edge64" class="edge"><title>node146&#45;&gt;node186</title>
<path fill="none" stroke="black" d="M2108.77,-364.457C2088.2,-354.172 2059.49,-339.815 2035.67,-327.904"/>
<polygon fill="black" stroke="black" points="2036.98,-324.646 2026.47,-323.304 2033.85,-330.907 2036.98,-324.646"/>
</g>
<!-- node183 -->
<g id="node49" class="node"><title>node183</title>
<ellipse fill="none" stroke="black" cx="2206.86" cy="-306" rx="77.9931" ry="18"/>
<text text-anchor="middle" x="2206.86" y="-302.7" font-family="Times Roman,serif" font-size="12.00">/usr/lib/libicuuc.so</text>
</g>
<!-- node146&#45;&gt;node183 -->
<g id="edge66" class="edge"><title>node146&#45;&gt;node183</title>
<path fill="none" stroke="black" d="M2153.78,-359.831C2162.33,-351.153 2172.71,-340.626 2182.02,-331.19"/>
<polygon fill="black" stroke="black" points="2184.67,-333.491 2189.19,-323.913 2179.68,-328.576 2184.67,-333.491"/>
</g>
<!-- node184 -->
<g id="node51" class="node"><title>node184</title>
<ellipse fill="none" stroke="black" cx="1581.86" cy="-306" rx="85.1424" ry="18"/>
<text text-anchor="middle" x="1581.86" y="-302.7" font-family="Times Roman,serif" font-size="12.00">/usr/lib/libicui18n.so</text>
</g>
<!-- node146&#45;&gt;node184 -->
<g id="edge68" class="edge"><title>node146&#45;&gt;node184</title>
<path fill="none" stroke="black" d="M2108.51,-364.53C2104.03,-362.754 2099.38,-361.153 2094.86,-360 1913.75,-313.813 1861,-349.61 1675.86,-324 1668.28,-322.951 1660.38,-321.698 1652.53,-320.346"/>
<polygon fill="black" stroke="black" points="1653.1,-316.892 1642.64,-318.591 1651.87,-323.784 1653.1,-316.892"/>
</g>
<!-- node185 -->
<g id="node53" class="node"><title>node185</title>
<ellipse fill="none" stroke="black" cx="1769.86" cy="-306" rx="85.1424" ry="18"/>
<text text-anchor="middle" x="1769.86" y="-302.7" font-family="Times Roman,serif" font-size="12.00">/usr/lib/libicudata.so</text>
</g>
<!-- node146&#45;&gt;node185 -->
<g id="edge70" class="edge"><title>node146&#45;&gt;node185</title>
<path fill="none" stroke="black" d="M2108.43,-364.802C2103.97,-362.991 2099.34,-361.308 2094.86,-360 1995.12,-330.871 1966.23,-341.774 1863.86,-324 1856.82,-322.779 1849.5,-321.46 1842.19,-320.112"/>
<polygon fill="black" stroke="black" points="1842.72,-316.651 1832.25,-318.261 1841.44,-323.532 1842.72,-316.651"/>
</g>
<!-- node146&#45;&gt;node147 -->
<g id="edge74" class="edge"><title>node146&#45;&gt;node147</title>
<path fill="none" stroke="black" d="M2162.94,-365.304C2167.53,-363.386 2172.29,-361.537 2176.86,-360 2241.84,-338.133 2261.88,-345.867 2326.86,-324 2328.29,-323.52 2329.73,-323.009 2331.19,-322.475"/>
<polygon fill="black" stroke="black" points="2332.76,-325.618 2340.78,-318.696 2330.19,-319.105 2332.76,-325.618"/>
</g>
<!-- node147&#45;&gt;node151 -->
<g id="edge76" class="edge"><title>node147&#45;&gt;node151</title>
<path fill="none" stroke="black" d="M2369.48,-287.865C2371.43,-253.602 2370.07,-179.607 2326.86,-144 2290.15,-113.75 1566.09,-94.9385 1392.18,-90.8452"/>
<polygon fill="black" stroke="black" points="1392.07,-87.3418 1381.99,-90.6075 1391.91,-94.3399 1392.07,-87.3418"/>
</g>
<!-- node53&#45;&gt;node151 -->
<g id="edge94" class="edge"><title>node53&#45;&gt;node151</title>
<path fill="none" stroke="black" d="M2320.53,-431.96C2346.41,-409.76 2387.31,-369.387 2403.86,-324 2432.31,-245.996 2420.8,-193.118 2353.86,-144 2314.36,-115.019 1568.39,-95.1746 1392.01,-90.8755"/>
<polygon fill="black" stroke="black" points="1392.01,-87.3745 1381.92,-90.6315 1391.84,-94.3724 1392.01,-87.3745"/>
</g>
<!-- node53&#45;&gt;node146 -->
<g id="edge98" class="edge"><title>node53&#45;&gt;node146</title>
<path fill="none" stroke="black" d="M2267.77,-436.626C2240.8,-424.642 2201.18,-407.032 2172.4,-394.242"/>
<polygon fill="black" stroke="black" points="2173.65,-390.968 2163.09,-390.104 2170.81,-397.364 2173.65,-390.968"/>
</g>
<!-- node53&#45;&gt;node147 -->
<g id="edge96" class="edge"><title>node53&#45;&gt;node147</title>
<path fill="none" stroke="black" d="M2306.72,-431.762C2318.82,-406.876 2340.6,-362.082 2354.63,-333.216"/>
<polygon fill="black" stroke="black" points="2357.84,-334.613 2359.07,-324.09 2351.55,-331.553 2357.84,-334.613"/>
</g>
<!-- node64&#45;&gt;node151 -->
<g id="edge102" class="edge"><title>node64&#45;&gt;node151</title>
<path fill="none" stroke="black" d="M1800.08,-516.733C1838.29,-509.788 1901.04,-495.14 1948.86,-468 1969.37,-456.357 1969.38,-446.668 1987.86,-432 2010.16,-414.294 2027.53,-421.164 2040.86,-396 2048.35,-381.861 2051.8,-371.675 2040.86,-360 1956.66,-270.137 1585.56,-398.972 1487.86,-324 1420.85,-272.576 1476.42,-212.401 1426.86,-144 1417.32,-130.841 1403.65,-119.462 1390.78,-110.588"/>
<polygon fill="black" stroke="black" points="1392.34,-107.422 1382.06,-104.853 1388.49,-113.271 1392.34,-107.422"/>
</g>
<!-- node64&#45;&gt;node66 -->
<g id="edge104" class="edge"><title>node64&#45;&gt;node66</title>
<path fill="none" stroke="black" d="M1731.67,-519.997C1663.53,-515.404 1506.41,-501.785 1378.86,-468 1253.52,-434.801 1234.08,-389.653 1107.86,-360 990.214,-332.362 618.802,-313.49 494.128,-307.8"/>
<polygon fill="black" stroke="black" points="494.016,-304.291 483.868,-307.336 493.699,-311.284 494.016,-304.291"/>
</g>
<!-- node64&#45;&gt;node54 -->
<g id="edge106" class="edge"><title>node64&#45;&gt;node54</title>
<path fill="none" stroke="black" d="M1731.71,-518.887C1642.46,-510.733 1394.9,-488.001 1188.86,-468 1142.6,-463.509 1089.64,-458.157 1053.39,-454.463"/>
<polygon fill="black" stroke="black" points="1053.48,-450.953 1043.17,-453.419 1052.77,-457.917 1053.48,-450.953"/>
</g>
<!-- node64&#45;&gt;node146 -->
<g id="edge110" class="edge"><title>node64&#45;&gt;node146</title>
<path fill="none" stroke="black" d="M1800,-518.05C1844.86,-511.904 1925.27,-497.548 1987.86,-468 2011.97,-456.616 2013.4,-446.375 2035.86,-432 2056.28,-418.929 2080.14,-405.964 2099.43,-396.015"/>
<polygon fill="black" stroke="black" points="2101.18,-399.05 2108.5,-391.385 2098,-392.815 2101.18,-399.05"/>
</g>
<!-- node64&#45;&gt;node147 -->
<g id="edge108" class="edge"><title>node64&#45;&gt;node147</title>
<path fill="none" stroke="black" d="M1800.14,-518.584C1850.89,-512.714 1948.35,-498.293 2025.86,-468 2054.82,-456.679 2058.11,-446.041 2085.86,-432 2122.83,-413.292 2137.96,-419.827 2171.86,-396 2189.62,-383.519 2186.45,-371.491 2204.86,-360 2252.82,-330.071 2273.76,-343.402 2326.86,-324 2328.27,-323.483 2329.71,-322.941 2331.15,-322.381"/>
<polygon fill="black" stroke="black" points="2332.76,-325.505 2340.71,-318.494 2330.13,-319.021 2332.76,-325.505"/>
</g>
<!-- node64&#45;&gt;node53 -->
<g id="edge112" class="edge"><title>node64&#45;&gt;node53</title>
<path fill="none" stroke="black" d="M1799.95,-517.387C1893.97,-504.661 2156.69,-469.106 2257.64,-455.444"/>
<polygon fill="black" stroke="black" points="2258.29,-458.887 2267.73,-454.077 2257.35,-451.95 2258.29,-458.887"/>
</g>
<!-- node150&#45;&gt;node151 -->
<g id="edge116" class="edge"><title>node150&#45;&gt;node151</title>
<path fill="none" stroke="black" d="M2518.2,-503.833C2515.86,-476.539 2511.86,-423.32 2511.86,-378 2511.86,-378 2511.86,-378 2511.86,-234 2511.86,-180.186 2479.45,-167.119 2430.86,-144 2335.48,-98.6225 1570.68,-91.2814 1392.07,-90.1821"/>
<polygon fill="black" stroke="black" points="1391.88,-86.6811 1381.86,-90.1223 1391.84,-93.681 1391.88,-86.6811"/>
</g>
<!-- node99&#45;&gt;node151 -->
<g id="edge120" class="edge"><title>node99&#45;&gt;node151</title>
<path fill="none" stroke="black" d="M2385.68,-503.936C2413.3,-468.381 2469.86,-385.821 2469.86,-306 2469.86,-306 2469.86,-306 2469.86,-234 2469.86,-179.587 2436.11,-167.13 2386.86,-144 2295.45,-101.07 1566.5,-91.8834 1392.2,-90.2931"/>
<polygon fill="black" stroke="black" points="1392.02,-86.7915 1381.99,-90.203 1391.96,-93.7913 1392.02,-86.7915"/>
</g>
<!-- node99&#45;&gt;node146 -->
<g id="edge124" class="edge"><title>node99&#45;&gt;node146</title>
<path fill="none" stroke="black" d="M2368.88,-503.72C2365.7,-483.32 2357.53,-450.726 2336.86,-432 2312.93,-410.327 2224.48,-392.6 2173.23,-383.87"/>
<polygon fill="black" stroke="black" points="2173.65,-380.391 2163.21,-382.196 2172.49,-387.295 2173.65,-380.391"/>
</g>
<!-- node99&#45;&gt;node147 -->
<g id="edge122" class="edge"><title>node99&#45;&gt;node147</title>
<path fill="none" stroke="black" d="M2370.61,-503.955C2370.09,-466.394 2368.88,-379.554 2368.25,-334.41"/>
<polygon fill="black" stroke="black" points="2371.75,-334.095 2368.11,-324.145 2364.75,-334.193 2371.75,-334.095"/>
</g>
<!-- node99&#45;&gt;node53 -->
<g id="edge126" class="edge"><title>node99&#45;&gt;node53</title>
<path fill="none" stroke="black" d="M2352.44,-503.831C2343.71,-495.219 2333.13,-484.785 2323.62,-475.405"/>
<polygon fill="black" stroke="black" points="2325.85,-472.693 2316.27,-468.163 2320.94,-477.677 2325.85,-472.693"/>
</g>
<!-- node56&#45;&gt;node151 -->
<g id="edge130" class="edge"><title>node56&#45;&gt;node151</title>
<path fill="none" stroke="black" d="M1354.86,-575.815C1354.86,-548.498 1354.86,-495.25 1354.86,-450 1354.86,-450 1354.86,-450 1354.86,-234 1354.86,-193.876 1354.86,-147.463 1354.86,-118.418"/>
<polygon fill="black" stroke="black" points="1358.36,-118.185 1354.86,-108.185 1351.36,-118.185 1358.36,-118.185"/>
</g>
<!-- node56&#45;&gt;node153 -->
<g id="edge132" class="edge"><title>node56&#45;&gt;node153</title>
<path fill="none" stroke="black" d="M1346.8,-575.767C1335.65,-548.825 1316.86,-496.54 1316.86,-450 1316.86,-450 1316.86,-450 1316.86,-306 1316.86,-255.597 1290.89,-242.246 1247.86,-216 1204.38,-189.482 1056.39,-172.246 986.279,-165.376"/>
<polygon fill="black" stroke="black" points="986.411,-161.873 976.122,-164.4 985.742,-168.841 986.411,-161.873"/>
</g>
<!-- node56&#45;&gt;node149 -->
<g id="edge134" class="edge"><title>node56&#45;&gt;node149</title>
<path fill="none" stroke="black" d="M1332.92,-575.99C1322.44,-566.319 1310.53,-553.603 1302.86,-540 1282.52,-503.943 1278.86,-491.398 1278.86,-450 1278.86,-450 1278.86,-450 1278.86,-378 1278.86,-336.602 1273.48,-324.974 1254.86,-288 1249.88,-278.104 1242.88,-268.313 1235.98,-259.842"/>
<polygon fill="black" stroke="black" points="1238.6,-257.522 1229.46,-252.164 1233.27,-262.052 1238.6,-257.522"/>
</g>
<!-- node56&#45;&gt;node59 -->
<g id="edge136" class="edge"><title>node56&#45;&gt;node59</title>
<path fill="none" stroke="black" d="M1322.82,-591.138C1141.44,-574.618 248.942,-488.935 173.859,-396 136.441,-349.685 201.648,-290.408 245.969,-257.934"/>
<polygon fill="black" stroke="black" points="248.157,-260.672 254.244,-252 244.078,-254.983 248.157,-260.672"/>
</g>
<!-- node56&#45;&gt;node66 -->
<g id="edge144" class="edge"><title>node56&#45;&gt;node66</title>
<path fill="none" stroke="black" d="M1322.44,-585.422C1259.12,-568.788 1114.48,-531.379 991.859,-504 984.355,-502.324 453.737,-401.944 448.859,-396 434.833,-378.909 437.517,-353.251 442.733,-333.699"/>
<polygon fill="black" stroke="black" points="446.089,-334.692 445.616,-324.108 439.385,-332.677 446.089,-334.692"/>
</g>
<!-- node56&#45;&gt;node55 -->
<g id="edge146" class="edge"><title>node56&#45;&gt;node55</title>
<path fill="none" stroke="black" d="M1322.65,-587.826C1165.99,-557.802 483.23,-426.944 283.149,-388.597"/>
<polygon fill="black" stroke="black" points="283.636,-385.126 273.156,-386.681 282.318,-392.001 283.636,-385.126"/>
</g>
<!-- node56&#45;&gt;node54 -->
<g id="edge148" class="edge"><title>node56&#45;&gt;node54</title>
<path fill="none" stroke="black" d="M1322.71,-575.791C1305.31,-565.671 1283.61,-552.608 1264.86,-540 1242.73,-525.12 1240.88,-515.583 1216.86,-504 1163.44,-478.237 1096.11,-463.602 1053.02,-456.238"/>
<polygon fill="black" stroke="black" points="1053.58,-452.783 1043.14,-454.605 1052.44,-459.69 1053.58,-452.783"/>
</g>
<!-- node56&#45;&gt;node146 -->
<g id="edge140" class="edge"><title>node56&#45;&gt;node146</title>
<path fill="none" stroke="black" d="M1387.02,-593.181C1514.87,-589.693 1982.99,-574.643 2038.86,-540 2088.26,-509.367 2115.77,-443.442 2128,-405.816"/>
<polygon fill="black" stroke="black" points="2131.43,-406.595 2131.06,-396.007 2124.74,-404.515 2131.43,-406.595"/>
</g>
<!-- node56&#45;&gt;node147 -->
<g id="edge138" class="edge"><title>node56&#45;&gt;node147</title>
<path fill="none" stroke="black" d="M1386.86,-592.687C1517.5,-587.177 2006.53,-565.045 2070.86,-540 2190.18,-493.542 2300.1,-382.023 2345.67,-331.566"/>
<polygon fill="black" stroke="black" points="2348.37,-333.799 2352.42,-324.011 2343.15,-329.135 2348.37,-333.799"/>
</g>
<!-- node56&#45;&gt;node53 -->
<g id="edge150" class="edge"><title>node56&#45;&gt;node53</title>
<path fill="none" stroke="black" d="M1386.97,-592.976C1543.11,-587.88 2217.07,-564.53 2253.86,-540 2274.9,-525.969 2286.24,-498.835 2292.1,-478.013"/>
<polygon fill="black" stroke="black" points="2295.55,-478.648 2294.63,-468.093 2288.77,-476.921 2295.55,-478.648"/>
</g>
<!-- node56&#45;&gt;node64 -->
<g id="edge152" class="edge"><title>node56&#45;&gt;node64</title>
<path fill="none" stroke="black" d="M1387.11,-588.35C1460.23,-575.541 1638.69,-544.278 1721.86,-529.709"/>
<polygon fill="black" stroke="black" points="1722.5,-533.149 1731.75,-527.975 1721.3,-526.254 1722.5,-533.149"/>
</g>
<!-- node56&#45;&gt;node150 -->
<g id="edge142" class="edge"><title>node56&#45;&gt;node150</title>
<path fill="none" stroke="black" d="M1387.24,-593.596C1516.28,-591.72 2006.27,-582.065 2406.86,-540 2432.27,-537.331 2460.68,-532.8 2482.65,-528.952"/>
<polygon fill="black" stroke="black" points="2483.34,-532.385 2492.57,-527.185 2482.11,-525.493 2483.34,-532.385"/>
</g>
<!-- node56&#45;&gt;node99 -->
<g id="edge172" class="edge"><title>node56&#45;&gt;node99</title>
<path fill="none" stroke="black" d="M1387.13,-592.863C1530.59,-587.697 2111.37,-565.581 2291.86,-540 2305.6,-538.053 2320.48,-534.934 2333.58,-531.836"/>
<polygon fill="black" stroke="black" points="2334.76,-535.149 2343.65,-529.378 2333.1,-528.349 2334.76,-535.149"/>
</g>
<!-- node63 -->
<g id="node104" class="node"><title>node63</title>
<polygon fill="none" stroke="black" points="2029.86,-540 1953.86,-540 1953.86,-504 2029.86,-504 2029.86,-540"/>
<text text-anchor="middle" x="1991.86" y="-518.7" font-family="Times Roman,serif" font-size="12.00">thorhelper</text>
</g>
<!-- node56&#45;&gt;node63 -->
<g id="edge154" class="edge"><title>node56&#45;&gt;node63</title>
<path fill="none" stroke="black" d="M1386.88,-590.38C1490.81,-578.634 1819.09,-541.528 1943.46,-527.47"/>
<polygon fill="black" stroke="black" points="1943.92,-530.941 1953.46,-526.34 1943.13,-523.986 1943.92,-530.941"/>
</g>
<!-- node63&#45;&gt;node151 -->
<g id="edge156" class="edge"><title>node63&#45;&gt;node151</title>
<path fill="none" stroke="black" d="M1953.48,-516.908C1821.27,-498.855 1392.86,-435.89 1392.86,-378 1392.86,-378 1392.86,-378 1392.86,-234 1392.86,-192.368 1377.83,-146.14 1366.67,-117.567"/>
<polygon fill="black" stroke="black" points="1369.9,-116.206 1362.92,-108.233 1363.4,-118.817 1369.9,-116.206"/>
</g>
<!-- node63&#45;&gt;node146 -->
<g id="edge160" class="edge"><title>node63&#45;&gt;node146</title>
<path fill="none" stroke="black" d="M2010.1,-503.762C2035.52,-478.335 2081.73,-432.125 2110.5,-403.357"/>
<polygon fill="black" stroke="black" points="2113.17,-405.636 2117.77,-396.09 2108.22,-400.686 2113.17,-405.636"/>
</g>
<!-- node63&#45;&gt;node147 -->
<g id="edge158" class="edge"><title>node63&#45;&gt;node147</title>
<path fill="none" stroke="black" d="M2025.02,-503.872C2067.51,-480.311 2143.05,-437.282 2204.86,-396 2227.03,-381.189 2230,-373.739 2252.86,-360 2266.91,-351.551 2303.44,-334.7 2331.59,-322.057"/>
<polygon fill="black" stroke="black" points="2333.07,-325.228 2340.77,-317.949 2330.21,-318.838 2333.07,-325.228"/>
</g>
<!-- node63&#45;&gt;node53 -->
<g id="edge162" class="edge"><title>node63&#45;&gt;node53</title>
<path fill="none" stroke="black" d="M2030,-513.027C2088.15,-499.343 2198.49,-473.381 2257.78,-459.43"/>
<polygon fill="black" stroke="black" points="2258.61,-462.831 2267.54,-457.134 2257,-456.017 2258.61,-462.831"/>
</g>
<!-- node156 -->
<g id="node110" class="node"><title>node156</title>
<polygon fill="none" stroke="black" points="1939.86,-468 1845.86,-468 1845.86,-432 1939.86,-432 1939.86,-468"/>
<text text-anchor="middle" x="1892.86" y="-446.7" font-family="Times Roman,serif" font-size="12.00">securesocket</text>
</g>
<!-- node63&#45;&gt;node156 -->
<g id="edge164" class="edge"><title>node63&#45;&gt;node156</title>
<path fill="none" stroke="black" d="M1966.88,-503.831C1954.57,-494.878 1939.55,-483.956 1926.27,-474.295"/>
<polygon fill="black" stroke="black" points="1927.98,-471.214 1917.83,-468.163 1923.86,-476.875 1927.98,-471.214"/>
</g>
<!-- node156&#45;&gt;node151 -->
<g id="edge166" class="edge"><title>node156&#45;&gt;node151</title>
<path fill="none" stroke="black" d="M1940.14,-436.597C1973.51,-426.07 2013.97,-410.769 2023.86,-396 2032.76,-382.704 2034.81,-371.665 2023.86,-360 1937.15,-267.626 1552.84,-404.324 1454.86,-324 1390.83,-271.509 1447.54,-216.115 1406.86,-144 1400.92,-133.479 1392.46,-123.489 1384.08,-115.027"/>
<polygon fill="black" stroke="black" points="1386.43,-112.431 1376.8,-108.01 1381.57,-117.471 1386.43,-112.431"/>
</g>
<!-- node191 -->
<g id="node113" class="node"><title>node191</title>
<ellipse fill="none" stroke="black" cx="1877.86" cy="-378" rx="137.138" ry="18"/>
<text text-anchor="middle" x="1877.86" y="-374.7" font-family="Times Roman,serif" font-size="12.00">/usr/lib/x86_64&#45;linux&#45;gnu/libssl.so</text>
</g>
<!-- node156&#45;&gt;node191 -->
<g id="edge168" class="edge"><title>node156&#45;&gt;node191</title>
<path fill="none" stroke="black" d="M1889.07,-431.831C1887.47,-424.131 1885.56,-414.974 1883.78,-406.417"/>
<polygon fill="black" stroke="black" points="1887.16,-405.489 1881.7,-396.413 1880.31,-406.917 1887.16,-405.489"/>
</g>
<!-- node192 -->
<g id="node115" class="node"><title>node192</title>
<ellipse fill="none" stroke="black" cx="1571.86" cy="-378" rx="150.937" ry="18"/>
<text text-anchor="middle" x="1571.86" y="-374.7" font-family="Times Roman,serif" font-size="12.00">/usr/lib/x86_64&#45;linux&#45;gnu/libcrypto.so</text>
</g>
<!-- node156&#45;&gt;node192 -->
<g id="edge170" class="edge"><title>node156&#45;&gt;node192</title>
<path fill="none" stroke="black" d="M1845.84,-439.453C1795.2,-428.094 1713.69,-409.813 1652.73,-396.138"/>
<polygon fill="black" stroke="black" points="1653.27,-392.673 1642.74,-393.899 1651.73,-399.503 1653.27,-392.673"/>
</g>
</g>
</svg>
