<?xml version="1.0" encoding="UTF-8" standalone="no"?>
<!DOCTYPE svg PUBLIC "-//W3C//DTD SVG 1.1//EN"
 "http://www.w3.org/Graphics/SVG/1.1/DTD/svg11.dtd">
<!-- Generated by graphviz version 2.26.3 (20100126.1600)
 -->
<!-- Title: GG Pages: 1 -->
<svg width="1908pt" height="476pt"
 viewBox="0.00 0.00 1907.67 476.00" xmlns="http://www.w3.org/2000/svg" xmlns:xlink="http://www.w3.org/1999/xlink">
<g id="graph1" class="graph" transform="scale(1 1) rotate(0) translate(4 472)">
<title>GG</title>
<polygon fill="white" stroke="white" points="-4,5 -4,-472 1904.67,-472 1904.67,5 -4,5"/>
<!-- node61 -->
<g id="node1" class="node"><title>node61</title>
<polygon fill="none" stroke="black" points="1678.67,-468 1596.67,-468 1596.67,-432 1678.67,-432 1678.67,-468"/>
<text text-anchor="middle" x="1637.67" y="-446.7" font-family="Times Roman,serif" font-size="12.00">roxiehelper</text>
</g>
<!-- node151 -->
<g id="node2" class="node"><title>node151</title>
<polygon fill="none" stroke="black" points="1681.67,-108 1627.67,-108 1627.67,-72 1681.67,-72 1681.67,-108"/>
<text text-anchor="middle" x="1654.67" y="-86.7" font-family="Times Roman,serif" font-size="12.00">jlib</text>
</g>
<!-- node61&#45;&gt;node151 -->
<g id="edge2" class="edge"><title>node61&#45;&gt;node151</title>
<path fill="none" stroke="black" d="M1678.9,-446.149C1752.68,-436.746 1899.67,-405.525 1899.67,-306 1899.67,-306 1899.67,-306 1899.67,-234 1899.67,-138.735 1760.29,-105.257 1691.79,-94.5554"/>
<polygon fill="black" stroke="black" points="1692.23,-91.083 1681.82,-93.0821 1691.21,-98.0076 1692.23,-91.083"/>
</g>
<!-- node146 -->
<g id="node12" class="node"><title>node146</title>
<polygon fill="none" stroke="black" points="1424.67,-252 1370.67,-252 1370.67,-216 1424.67,-216 1424.67,-252"/>
<text text-anchor="middle" x="1397.67" y="-230.7" font-family="Times Roman,serif" font-size="12.00">eclrtl</text>
</g>
<!-- node61&#45;&gt;node146 -->
<g id="edge12" class="edge"><title>node61&#45;&gt;node146</title>
<path fill="none" stroke="black" d="M1622.05,-431.781C1594.74,-400.463 1535.74,-335.238 1478.67,-288 1464.65,-276.399 1448.1,-265.005 1433.62,-255.696"/>
<polygon fill="black" stroke="black" points="1435.24,-252.578 1424.92,-250.186 1431.5,-258.492 1435.24,-252.578"/>
</g>
<!-- node63 -->
<g id="node26" class="node"><title>node63</title>
<polygon fill="none" stroke="black" points="1448.67,-396 1372.67,-396 1372.67,-360 1448.67,-360 1448.67,-396"/>
<text text-anchor="middle" x="1410.67" y="-374.7" font-family="Times Roman,serif" font-size="12.00">thorhelper</text>
</g>
<!-- node61&#45;&gt;node63 -->
<g id="edge28" class="edge"><title>node61&#45;&gt;node63</title>
<path fill="none" stroke="black" d="M1596.56,-436.961C1557.73,-424.644 1499.49,-406.173 1458.57,-393.195"/>
<polygon fill="black" stroke="black" points="1459.42,-389.79 1448.83,-390.103 1457.3,-396.463 1459.42,-389.79"/>
</g>
<!-- node142 -->
<g id="node43" class="node"><title>node142</title>
<polygon fill="none" stroke="black" points="1674.67,-396 1600.67,-396 1600.67,-360 1674.67,-360 1674.67,-396"/>
<text text-anchor="middle" x="1637.67" y="-374.7" font-family="Times Roman,serif" font-size="12.00">roxiemem</text>
</g>
<!-- node61&#45;&gt;node142 -->
<g id="edge52" class="edge"><title>node61&#45;&gt;node142</title>
<path fill="none" stroke="black" d="M1637.67,-431.831C1637.67,-424.131 1637.67,-414.974 1637.67,-406.417"/>
<polygon fill="black" stroke="black" points="1641.17,-406.413 1637.67,-396.413 1634.17,-406.413 1641.17,-406.413"/>
</g>
<!-- node66 -->
<g id="node46" class="node"><title>node66</title>
<polygon fill="none" stroke="black" points="1778.67,-324 1716.67,-324 1716.67,-288 1778.67,-288 1778.67,-324"/>
<text text-anchor="middle" x="1747.67" y="-302.7" font-family="Times Roman,serif" font-size="12.00">dalibase</text>
</g>
<!-- node61&#45;&gt;node66 -->
<g id="edge56" class="edge"><title>node61&#45;&gt;node66</title>
<path fill="none" stroke="black" d="M1653.83,-431.837C1662.84,-421.514 1674.13,-408.241 1683.67,-396 1699.87,-375.204 1717.13,-350.783 1729.64,-332.632"/>
<polygon fill="black" stroke="black" points="1732.61,-334.495 1735.37,-324.267 1726.83,-330.537 1732.61,-334.495"/>
</g>
<!-- node152 -->
<g id="node4" class="node"><title>node152</title>
<polygon fill="none" stroke="black" points="1532.67,-36 1492.73,-18 1532.67,-3.55271e-15 1572.61,-18 1532.67,-36"/>
<text text-anchor="middle" x="1532.67" y="-14.7" font-family="Times Roman,serif" font-size="12.00">lzma</text>
</g>
<!-- node151&#45;&gt;node152 -->
<g id="edge4" class="edge"><title>node151&#45;&gt;node152</title>
<path fill="none" stroke="black" d="M1627.59,-74.0209C1607.14,-61.9494 1579.22,-45.4743 1558.96,-33.5172"/>
<polygon fill="black" stroke="black" points="1560.64,-30.4417 1550.25,-28.3733 1557.08,-36.4701 1560.64,-30.4417"/>
</g>
<!-- node187 -->
<g id="node6" class="node"><title>node187</title>
<ellipse fill="none" stroke="black" cx="1617.67" cy="-18" rx="27" ry="18"/>
<text text-anchor="middle" x="1617.67" y="-14.7" font-family="Times Roman,serif" font-size="12.00">dl</text>
</g>
<!-- node151&#45;&gt;node187 -->
<g id="edge6" class="edge"><title>node151&#45;&gt;node187</title>
<path fill="none" stroke="black" d="M1645.33,-71.8314C1641.07,-63.5451 1635.95,-53.5727 1631.27,-44.4748"/>
<polygon fill="black" stroke="black" points="1634.3,-42.7123 1626.62,-35.4177 1628.08,-45.9118 1634.3,-42.7123"/>
</g>
<!-- node179 -->
<g id="node8" class="node"><title>node179</title>
<ellipse fill="none" stroke="black" cx="1692.67" cy="-18" rx="30.0465" ry="18"/>
<text text-anchor="middle" x="1692.67" y="-14.7" font-family="Times Roman,serif" font-size="12.00">crypt</text>
</g>
<!-- node151&#45;&gt;node179 -->
<g id="edge8" class="edge"><title>node151&#45;&gt;node179</title>
<path fill="none" stroke="black" d="M1664.26,-71.8314C1668.63,-63.5451 1673.89,-53.5727 1678.7,-44.4748"/>
<polygon fill="black" stroke="black" points="1681.9,-45.8952 1683.48,-35.4177 1675.71,-42.6279 1681.9,-45.8952"/>
</g>
<!-- node188 -->
<g id="node10" class="node"><title>node188</title>
<ellipse fill="none" stroke="black" cx="1767.67" cy="-18" rx="27" ry="18"/>
<text text-anchor="middle" x="1767.67" y="-14.7" font-family="Times Roman,serif" font-size="12.00">rt</text>
</g>
<!-- node151&#45;&gt;node188 -->
<g id="edge10" class="edge"><title>node151&#45;&gt;node188</title>
<path fill="none" stroke="black" d="M1681.74,-72.7542C1699.08,-61.7009 1721.57,-47.375 1739.18,-36.1494"/>
<polygon fill="black" stroke="black" points="1741.35,-38.9209 1747.9,-30.5955 1737.59,-33.0174 1741.35,-38.9209"/>
</g>
<!-- node146&#45;&gt;node151 -->
<g id="edge22" class="edge"><title>node146&#45;&gt;node151</title>
<path fill="none" stroke="black" d="M1424.79,-225.736C1451.7,-216.827 1493.47,-201.044 1525.67,-180 1545.14,-167.274 1545.11,-158.023 1563.67,-144 1580.74,-131.106 1601.1,-118.771 1618.24,-109.152"/>
<polygon fill="black" stroke="black" points="1620.32,-112 1627.38,-104.102 1616.94,-105.873 1620.32,-112"/>
</g>
<!-- node186 -->
<g id="node14" class="node"><title>node186</title>
<ellipse fill="none" stroke="black" cx="1397.67" cy="-162" rx="118.939" ry="18"/>
<text text-anchor="middle" x="1397.67" y="-158.7" font-family="Times Roman,serif" font-size="12.00">/usr/lib/libboost_regex&#45;mt.so</text>
</g>
<!-- node146&#45;&gt;node186 -->
<g id="edge14" class="edge"><title>node146&#45;&gt;node186</title>
<path fill="none" stroke="black" d="M1397.67,-215.831C1397.67,-208.131 1397.67,-198.974 1397.67,-190.417"/>
<polygon fill="black" stroke="black" points="1401.17,-190.413 1397.67,-180.413 1394.17,-190.413 1401.17,-190.413"/>
</g>
<!-- node183 -->
<g id="node16" class="node"><title>node183</title>
<ellipse fill="none" stroke="black" cx="806.669" cy="-162" rx="77.9931" ry="18"/>
<text text-anchor="middle" x="806.669" y="-158.7" font-family="Times Roman,serif" font-size="12.00">/usr/lib/libicuuc.so</text>
</g>
<!-- node146&#45;&gt;node183 -->
<g id="edge16" class="edge"><title>node146&#45;&gt;node183</title>
<path fill="none" stroke="black" d="M1370.5,-232.025C1294.73,-226.314 1074.72,-208.36 893.669,-180 887.014,-178.958 880.098,-177.747 873.204,-176.456"/>
<polygon fill="black" stroke="black" points="873.632,-172.974 863.15,-174.517 872.307,-179.848 873.632,-172.974"/>
</g>
<!-- node184 -->
<g id="node18" class="node"><title>node184</title>
<ellipse fill="none" stroke="black" cx="987.669" cy="-162" rx="85.1424" ry="18"/>
<text text-anchor="middle" x="987.669" y="-158.7" font-family="Times Roman,serif" font-size="12.00">/usr/lib/libicui18n.so</text>
</g>
<!-- node146&#45;&gt;node184 -->
<g id="edge18" class="edge"><title>node146&#45;&gt;node184</title>
<path fill="none" stroke="black" d="M1370.58,-229.559C1315.91,-220.552 1188.46,-199.347 1081.67,-180 1074.7,-178.737 1067.45,-177.396 1060.19,-176.038"/>
<polygon fill="black" stroke="black" points="1060.81,-172.592 1050.34,-174.18 1059.51,-179.471 1060.81,-172.592"/>
</g>
<!-- node185 -->
<g id="node20" class="node"><title>node185</title>
<ellipse fill="none" stroke="black" cx="1175.67" cy="-162" rx="85.1424" ry="18"/>
<text text-anchor="middle" x="1175.67" y="-158.7" font-family="Times Roman,serif" font-size="12.00">/usr/lib/libicudata.so</text>
</g>
<!-- node146&#45;&gt;node185 -->
<g id="edge20" class="edge"><title>node146&#45;&gt;node185</title>
<path fill="none" stroke="black" d="M1370.45,-225.171C1336.22,-214.07 1276.58,-194.726 1232.28,-180.361"/>
<polygon fill="black" stroke="black" points="1233.1,-176.948 1222.51,-177.192 1230.94,-183.607 1233.1,-176.948"/>
</g>
<!-- node147 -->
<g id="node23" class="node"><title>node147</title>
<polygon fill="none" stroke="black" points="1626.67,-180 1572.67,-180 1572.67,-144 1626.67,-144 1626.67,-180"/>
<text text-anchor="middle" x="1599.67" y="-158.7" font-family="Times Roman,serif" font-size="12.00">nbcd</text>
</g>
<!-- node146&#45;&gt;node147 -->
<g id="edge24" class="edge"><title>node146&#45;&gt;node147</title>
<path fill="none" stroke="black" d="M1424.86,-224.033C1432.24,-221.375 1440.25,-218.538 1447.67,-216 1496.74,-199.214 1510.2,-198.447 1558.67,-180 1560.08,-179.464 1561.51,-178.907 1562.95,-178.333"/>
<polygon fill="black" stroke="black" points="1564.58,-181.447 1572.48,-174.39 1561.9,-174.978 1564.58,-181.447"/>
</g>
<!-- node147&#45;&gt;node151 -->
<g id="edge26" class="edge"><title>node147&#45;&gt;node151</title>
<path fill="none" stroke="black" d="M1613.55,-143.831C1619.88,-135.539 1627.51,-125.557 1634.46,-116.453"/>
<polygon fill="black" stroke="black" points="1637.31,-118.485 1640.6,-108.413 1631.75,-114.235 1637.31,-118.485"/>
</g>
<!-- node63&#45;&gt;node151 -->
<g id="edge30" class="edge"><title>node63&#45;&gt;node151</title>
<path fill="none" stroke="black" d="M1372.28,-376.868C1248.29,-372.96 847.49,-358.338 517.669,-324 297.59,-301.087 -115.787,-380.975 31.6693,-216 86.3886,-154.78 1379.62,-100.861 1617.31,-91.451"/>
<polygon fill="black" stroke="black" points="1617.66,-94.94 1627.52,-91.0488 1617.39,-87.9455 1617.66,-94.94"/>
</g>
<!-- node63&#45;&gt;node146 -->
<g id="edge34" class="edge"><title>node63&#45;&gt;node146</title>
<path fill="none" stroke="black" d="M1406.56,-359.607C1404.41,-349.211 1401.97,-335.943 1400.67,-324 1398.44,-303.439 1397.71,-280.094 1397.53,-262.333"/>
<polygon fill="black" stroke="black" points="1401.03,-262.31 1397.48,-252.328 1394.03,-262.346 1401.03,-262.31"/>
</g>
<!-- node63&#45;&gt;node147 -->
<g id="edge32" class="edge"><title>node63&#45;&gt;node147</title>
<path fill="none" stroke="black" d="M1436.53,-359.95C1449.81,-350.079 1465.86,-337.196 1478.67,-324 1520.69,-280.717 1560.82,-222.546 1582.66,-188.978"/>
<polygon fill="black" stroke="black" points="1585.85,-190.496 1588.32,-180.195 1579.96,-186.703 1585.85,-190.496"/>
</g>
<!-- node53 -->
<g id="node31" class="node"><title>node53</title>
<polygon fill="none" stroke="black" points="1469.67,-324 1409.67,-324 1409.67,-288 1469.67,-288 1469.67,-324"/>
<text text-anchor="middle" x="1439.67" y="-302.7" font-family="Times Roman,serif" font-size="12.00">deftype</text>
</g>
<!-- node63&#45;&gt;node53 -->
<g id="edge36" class="edge"><title>node63&#45;&gt;node53</title>
<path fill="none" stroke="black" d="M1417.99,-359.831C1421.16,-351.962 1424.94,-342.571 1428.45,-333.853"/>
<polygon fill="black" stroke="black" points="1431.76,-334.997 1432.25,-324.413 1425.27,-332.381 1431.76,-334.997"/>
</g>
<!-- node156 -->
<g id="node36" class="node"><title>node156</title>
<polygon fill="none" stroke="black" points="620.669,-324 526.669,-324 526.669,-288 620.669,-288 620.669,-324"/>
<text text-anchor="middle" x="573.669" y="-302.7" font-family="Times Roman,serif" font-size="12.00">securesocket</text>
</g>
<!-- node63&#45;&gt;node156 -->
<g id="edge44" class="edge"><title>node63&#45;&gt;node156</title>
<path fill="none" stroke="black" d="M1372.53,-374.719C1238.83,-363.218 790.837,-324.681 630.964,-310.929"/>
<polygon fill="black" stroke="black" points="631.12,-307.429 620.856,-310.059 630.52,-314.403 631.12,-307.429"/>
</g>
<!-- node53&#45;&gt;node151 -->
<g id="edge38" class="edge"><title>node53&#45;&gt;node151</title>
<path fill="none" stroke="black" d="M1409.22,-304.246C1260.34,-295.134 620.069,-249.519 719.669,-144 750.997,-110.811 1446.74,-94.2986 1617.22,-90.7421"/>
<polygon fill="black" stroke="black" points="1617.3,-94.2413 1627.22,-90.5357 1617.15,-87.2428 1617.3,-94.2413"/>
</g>
<!-- node53&#45;&gt;node146 -->
<g id="edge42" class="edge"><title>node53&#45;&gt;node146</title>
<path fill="none" stroke="black" d="M1429.07,-287.831C1424.38,-279.792 1418.77,-270.167 1413.59,-261.292"/>
<polygon fill="black" stroke="black" points="1416.47,-259.288 1408.41,-252.413 1410.43,-262.815 1416.47,-259.288"/>
</g>
<!-- node53&#45;&gt;node147 -->
<g id="edge40" class="edge"><title>node53&#45;&gt;node147</title>
<path fill="none" stroke="black" d="M1446.96,-287.743C1455.61,-267.97 1471.69,-236.511 1493.67,-216 1504.6,-205.804 1537.05,-189.878 1563.19,-177.959"/>
<polygon fill="black" stroke="black" points="1564.81,-181.068 1572.49,-173.767 1561.93,-174.687 1564.81,-181.068"/>
</g>
<!-- node156&#45;&gt;node151 -->
<g id="edge46" class="edge"><title>node156&#45;&gt;node151</title>
<path fill="none" stroke="black" d="M602.037,-287.981C615.691,-278.399 631.661,-265.763 643.669,-252 680.057,-210.296 658.579,-173.082 705.669,-144 745.122,-119.635 1447.02,-96.4225 1617.56,-91.1255"/>
<polygon fill="black" stroke="black" points="1617.68,-94.6237 1627.56,-90.8165 1617.46,-87.627 1617.68,-94.6237"/>
</g>
<!-- node191 -->
<g id="node39" class="node"><title>node191</title>
<ellipse fill="none" stroke="black" cx="177.669" cy="-234" rx="137.138" ry="18"/>
<text text-anchor="middle" x="177.669" y="-230.7" font-family="Times Roman,serif" font-size="12.00">/usr/lib/x86_64&#45;linux&#45;gnu/libssl.so</text>
</g>
<!-- node156&#45;&gt;node191 -->
<g id="edge48" class="edge"><title>node156&#45;&gt;node191</title>
<path fill="none" stroke="black" d="M526.296,-297.387C462.705,-285.825 348.458,-265.052 268.121,-250.446"/>
<polygon fill="black" stroke="black" points="268.471,-246.952 258.006,-248.607 267.219,-253.839 268.471,-246.952"/>
</g>
<!-- node192 -->
<g id="node41" class="node"><title>node192</title>
<ellipse fill="none" stroke="black" cx="483.669" cy="-234" rx="150.937" ry="18"/>
<text text-anchor="middle" x="483.669" y="-230.7" font-family="Times Roman,serif" font-size="12.00">/usr/lib/x86_64&#45;linux&#45;gnu/libcrypto.so</text>
</g>
<!-- node156&#45;&gt;node192 -->
<g id="edge50" class="edge"><title>node156&#45;&gt;node192</title>
<path fill="none" stroke="black" d="M550.959,-287.831C539.789,-278.896 526.168,-267.999 514.11,-258.352"/>
<polygon fill="black" stroke="black" points="516.056,-255.427 506.061,-251.913 511.683,-260.893 516.056,-255.427"/>
</g>
<!-- node142&#45;&gt;node151 -->
<g id="edge54" class="edge"><title>node142&#45;&gt;node151</title>
<path fill="none" stroke="black" d="M1638.73,-359.984C1641.61,-311.294 1649.55,-176.796 1653.01,-118.057"/>
<polygon fill="black" stroke="black" points="1656.51,-118.198 1653.61,-108.009 1649.52,-117.785 1656.51,-118.198"/>
</g>
<!-- node66&#45;&gt;node151 -->
<g id="edge58" class="edge"><title>node66&#45;&gt;node151</title>
<path fill="none" stroke="black" d="M1778.88,-297.431C1800.98,-289.55 1829.03,-275.449 1842.67,-252 1850.72,-238.171 1846.43,-231.551 1842.67,-216 1834.21,-181.031 1832.72,-167.717 1805.67,-144 1773.37,-115.681 1725.15,-101.882 1691.93,-95.3876"/>
<polygon fill="black" stroke="black" points="1692.18,-91.8753 1681.72,-93.5266 1690.93,-98.762 1692.18,-91.8753"/>
</g>
<!-- node153 -->
<g id="node49" class="node"><title>node153</title>
<polygon fill="none" stroke="black" points="1774.67,-180 1720.67,-180 1720.67,-144 1774.67,-144 1774.67,-180"/>
<text text-anchor="middle" x="1747.67" y="-158.7" font-family="Times Roman,serif" font-size="12.00">mp</text>
</g>
<!-- node66&#45;&gt;node153 -->
<g id="edge60" class="edge"><title>node66&#45;&gt;node153</title>
<path fill="none" stroke="black" d="M1747.67,-287.762C1747.67,-263.201 1747.67,-219.247 1747.67,-190.354"/>
<polygon fill="black" stroke="black" points="1751.17,-190.09 1747.67,-180.09 1744.17,-190.09 1751.17,-190.09"/>
</g>
<!-- node149 -->
<g id="node52" class="node"><title>node149</title>
<polygon fill="none" stroke="black" points="1719.67,-252 1665.67,-252 1665.67,-216 1719.67,-216 1719.67,-252"/>
<text text-anchor="middle" x="1692.67" y="-230.7" font-family="Times Roman,serif" font-size="12.00">hrpc</text>
</g>
<!-- node66&#45;&gt;node149 -->
<g id="edge64" class="edge"><title>node66&#45;&gt;node149</title>
<path fill="none" stroke="black" d="M1733.79,-287.831C1727.46,-279.539 1719.83,-269.557 1712.88,-260.453"/>
<polygon fill="black" stroke="black" points="1715.59,-258.235 1706.74,-252.413 1710.02,-262.485 1715.59,-258.235"/>
</g>
<!-- node59 -->
<g id="node56" class="node"><title>node59</title>
<polygon fill="none" stroke="black" points="1833.67,-252 1775.67,-252 1775.67,-216 1833.67,-216 1833.67,-252"/>
<text text-anchor="middle" x="1804.67" y="-230.7" font-family="Times Roman,serif" font-size="12.00">remote</text>
</g>
<!-- node66&#45;&gt;node59 -->
<g id="edge70" class="edge"><title>node66&#45;&gt;node59</title>
<path fill="none" stroke="black" d="M1762.05,-287.831C1768.62,-279.539 1776.52,-269.557 1783.73,-260.453"/>
<polygon fill="black" stroke="black" points="1786.63,-262.426 1790.09,-252.413 1781.14,-258.081 1786.63,-262.426"/>
</g>
<!-- node153&#45;&gt;node151 -->
<g id="edge62" class="edge"><title>node153&#45;&gt;node151</title>
<path fill="none" stroke="black" d="M1724.2,-143.831C1712.64,-134.878 1698.53,-123.956 1686.05,-114.295"/>
<polygon fill="black" stroke="black" points="1688.18,-111.517 1678.13,-108.163 1683.89,-117.052 1688.18,-111.517"/>
</g>
<!-- node149&#45;&gt;node151 -->
<g id="edge66" class="edge"><title>node149&#45;&gt;node151</title>
<path fill="none" stroke="black" d="M1687.86,-215.762C1681.35,-191.093 1669.67,-146.86 1662.05,-117.973"/>
<polygon fill="black" stroke="black" points="1665.38,-116.866 1659.44,-108.09 1658.61,-118.652 1665.38,-116.866"/>
</g>
<!-- node149&#45;&gt;node153 -->
<g id="edge68" class="edge"><title>node149&#45;&gt;node153</title>
<path fill="none" stroke="black" d="M1706.55,-215.831C1712.88,-207.539 1720.51,-197.557 1727.46,-188.453"/>
<polygon fill="black" stroke="black" points="1730.31,-190.485 1733.6,-180.413 1724.75,-186.235 1730.31,-190.485"/>
</g>
<!-- node59&#45;&gt;node151 -->
<g id="edge72" class="edge"><title>node59&#45;&gt;node151</title>
<path fill="none" stroke="black" d="M1805.08,-215.992C1804.59,-196.144 1800.86,-164.34 1783.67,-144 1760.46,-116.55 1720.96,-102.79 1691.76,-96.0654"/>
<polygon fill="black" stroke="black" points="1692.42,-92.6268 1681.91,-93.9694 1690.96,-99.4736 1692.42,-92.6268"/>
</g>
<!-- node59&#45;&gt;node153 -->
<g id="edge74" class="edge"><title>node59&#45;&gt;node153</title>
<path fill="none" stroke="black" d="M1790.29,-215.831C1783.72,-207.539 1775.82,-197.557 1768.61,-188.453"/>
<polygon fill="black" stroke="black" points="1771.2,-186.081 1762.25,-180.413 1765.71,-190.426 1771.2,-186.081"/>
</g>
</g>
</svg>
