<?xml version="1.0" encoding="UTF-8" standalone="no"?>
<!DOCTYPE svg PUBLIC "-//W3C//DTD SVG 1.1//EN"
 "http://www.w3.org/Graphics/SVG/1.1/DTD/svg11.dtd">
<!-- Generated by graphviz version 2.26.3 (20100126.1600)
 -->
<!-- Title: GG Pages: 1 -->
<svg width="2321pt" height="692pt"
 viewBox="0.00 0.00 2320.58 692.00" xmlns="http://www.w3.org/2000/svg" xmlns:xlink="http://www.w3.org/1999/xlink">
<g id="graph1" class="graph" transform="scale(1 1) rotate(0) translate(4 688)">
<title>GG</title>
<polygon fill="white" stroke="white" points="-4,5 -4,-688 2317.58,-688 2317.58,5 -4,5"/>
<!-- node169 -->
<g id="node1" class="node"><title>node169</title>
<polygon fill="none" stroke="black" points="223,-684 137,-684 137,-648 223,-648 223,-684"/>
<text text-anchor="middle" x="180" y="-662.7" font-family="Times Roman,serif" font-size="12.00">thorsort_lcr</text>
</g>
<!-- node151 -->
<g id="node2" class="node"><title>node151</title>
<polygon fill="none" stroke="black" points="573,-108 519,-108 519,-72 573,-72 573,-108"/>
<text text-anchor="middle" x="546" y="-86.7" font-family="Times Roman,serif" font-size="12.00">jlib</text>
</g>
<!-- node169&#45;&gt;node151 -->
<g id="edge2" class="edge"><title>node169&#45;&gt;node151</title>
<path fill="none" stroke="black" d="M136.886,-652.742C83.6341,-633.372 0,-591.834 0,-522 0,-522 0,-522 0,-234 0,-184.397 23.0784,-168.863 66,-144 141.176,-100.453 409.104,-92.0229 508.519,-90.3914"/>
<polygon fill="black" stroke="black" points="508.751,-93.8884 518.697,-90.2388 508.646,-86.8892 508.751,-93.8884"/>
</g>
<!-- node146 -->
<g id="node12" class="node"><title>node146</title>
<polygon fill="none" stroke="black" points="1348,-396 1294,-396 1294,-360 1348,-360 1348,-396"/>
<text text-anchor="middle" x="1321" y="-374.7" font-family="Times Roman,serif" font-size="12.00">eclrtl</text>
</g>
<!-- node169&#45;&gt;node146 -->
<g id="edge12" class="edge"><title>node169&#45;&gt;node146</title>
<path fill="none" stroke="black" d="M223.183,-664.566C422.407,-657.518 1246.25,-623.46 1321,-540 1353.71,-503.485 1341.88,-441.598 1330.99,-405.813"/>
<polygon fill="black" stroke="black" points="1334.24,-404.474 1327.84,-396.029 1327.58,-406.62 1334.24,-404.474"/>
</g>
<!-- node52 -->
<g id="node26" class="node"><title>node52</title>
<polygon fill="none" stroke="black" points="114,-540 28,-540 28,-504 114,-504 114,-540"/>
<text text-anchor="middle" x="71" y="-518.7" font-family="Times Roman,serif" font-size="12.00">commonext</text>
</g>
<!-- node169&#45;&gt;node52 -->
<g id="edge28" class="edge"><title>node169&#45;&gt;node52</title>
<path fill="none" stroke="black" d="M160.73,-647.86C150.477,-637.76 137.966,-624.694 128,-612 112.27,-591.963 96.9672,-567.436 86.1847,-549.049"/>
<polygon fill="black" stroke="black" points="89.1641,-547.21 81.1264,-540.307 83.1052,-550.715 89.1641,-547.21"/>
</g>
<!-- node63 -->
<g id="node29" class="node"><title>node63</title>
<polygon fill="none" stroke="black" points="1636,-540 1560,-540 1560,-504 1636,-504 1636,-540"/>
<text text-anchor="middle" x="1598" y="-518.7" font-family="Times Roman,serif" font-size="12.00">thorhelper</text>
</g>
<!-- node169&#45;&gt;node63 -->
<g id="edge32" class="edge"><title>node169&#45;&gt;node63</title>
<path fill="none" stroke="black" d="M223.045,-664.877C422.785,-659.555 1254.4,-636.119 1368,-612 1434.96,-597.783 1507.85,-566.298 1553.24,-544.61"/>
<polygon fill="black" stroke="black" points="1555.01,-547.641 1562.49,-540.141 1551.96,-541.338 1555.01,-547.641"/>
</g>
<!-- node153 -->
<g id="node46" class="node"><title>node153</title>
<polygon fill="none" stroke="black" points="490,-180 436,-180 436,-144 490,-144 490,-180"/>
<text text-anchor="middle" x="463" y="-158.7" font-family="Times Roman,serif" font-size="12.00">mp</text>
</g>
<!-- node169&#45;&gt;node153 -->
<g id="edge56" class="edge"><title>node169&#45;&gt;node153</title>
<path fill="none" stroke="black" d="M171.941,-647.767C160.787,-620.825 142,-568.54 142,-522 142,-522 142,-522 142,-450 142,-298.578 342.341,-206.661 426.48,-174.734"/>
<polygon fill="black" stroke="black" points="427.758,-177.993 435.908,-171.224 425.316,-171.433 427.758,-177.993"/>
</g>
<!-- node66 -->
<g id="node49" class="node"><title>node66</title>
<polygon fill="none" stroke="black" points="437,-324 375,-324 375,-288 437,-288 437,-324"/>
<text text-anchor="middle" x="406" y="-302.7" font-family="Times Roman,serif" font-size="12.00">dalibase</text>
</g>
<!-- node169&#45;&gt;node66 -->
<g id="edge60" class="edge"><title>node169&#45;&gt;node66</title>
<path fill="none" stroke="black" d="M180,-647.815C180,-620.498 180,-567.25 180,-522 180,-522 180,-522 180,-450 180,-402.653 199.531,-388.945 237,-360 274.494,-331.036 327.943,-317.383 364.639,-311.098"/>
<polygon fill="black" stroke="black" points="365.662,-314.479 374.984,-309.445 364.557,-307.567 365.662,-314.479"/>
</g>
<!-- node164 -->
<g id="node61" class="node"><title>node164</title>
<polygon fill="none" stroke="black" points="437,-612 367,-612 367,-576 437,-576 437,-612"/>
<text text-anchor="middle" x="402" y="-590.7" font-family="Times Roman,serif" font-size="12.00">graph_lcr</text>
</g>
<!-- node169&#45;&gt;node164 -->
<g id="edge78" class="edge"><title>node169&#45;&gt;node164</title>
<path fill="none" stroke="black" d="M223.067,-652.032C261.659,-639.516 318.052,-621.226 357.173,-608.538"/>
<polygon fill="black" stroke="black" points="358.293,-611.855 366.726,-605.44 356.134,-605.196 358.293,-611.855"/>
</g>
<!-- node152 -->
<g id="node4" class="node"><title>node152</title>
<polygon fill="none" stroke="black" points="424,-36 384.056,-18 424,-3.55271e-15 463.944,-18 424,-36"/>
<text text-anchor="middle" x="424" y="-14.7" font-family="Times Roman,serif" font-size="12.00">lzma</text>
</g>
<!-- node151&#45;&gt;node152 -->
<g id="edge4" class="edge"><title>node151&#45;&gt;node152</title>
<path fill="none" stroke="black" d="M518.924,-74.0209C498.47,-61.9494 470.554,-45.4743 450.293,-33.5172"/>
<polygon fill="black" stroke="black" points="451.968,-30.4417 441.577,-28.3733 448.41,-36.4701 451.968,-30.4417"/>
</g>
<!-- node187 -->
<g id="node6" class="node"><title>node187</title>
<ellipse fill="none" stroke="black" cx="509" cy="-18" rx="27" ry="18"/>
<text text-anchor="middle" x="509" y="-14.7" font-family="Times Roman,serif" font-size="12.00">dl</text>
</g>
<!-- node151&#45;&gt;node187 -->
<g id="edge6" class="edge"><title>node151&#45;&gt;node187</title>
<path fill="none" stroke="black" d="M536.663,-71.8314C532.405,-63.5451 527.28,-53.5727 522.605,-44.4748"/>
<polygon fill="black" stroke="black" points="525.635,-42.7123 517.951,-35.4177 519.408,-45.9118 525.635,-42.7123"/>
</g>
<!-- node179 -->
<g id="node8" class="node"><title>node179</title>
<ellipse fill="none" stroke="black" cx="584" cy="-18" rx="30.0465" ry="18"/>
<text text-anchor="middle" x="584" y="-14.7" font-family="Times Roman,serif" font-size="12.00">crypt</text>
</g>
<!-- node151&#45;&gt;node179 -->
<g id="edge8" class="edge"><title>node151&#45;&gt;node179</title>
<path fill="none" stroke="black" d="M555.589,-71.8314C559.962,-63.5451 565.226,-53.5727 570.027,-44.4748"/>
<polygon fill="black" stroke="black" points="573.235,-45.8952 574.807,-35.4177 567.044,-42.6279 573.235,-45.8952"/>
</g>
<!-- node188 -->
<g id="node10" class="node"><title>node188</title>
<ellipse fill="none" stroke="black" cx="659" cy="-18" rx="27" ry="18"/>
<text text-anchor="middle" x="659" y="-14.7" font-family="Times Roman,serif" font-size="12.00">rt</text>
</g>
<!-- node151&#45;&gt;node188 -->
<g id="edge10" class="edge"><title>node151&#45;&gt;node188</title>
<path fill="none" stroke="black" d="M573.066,-72.7542C590.414,-61.7009 612.898,-47.375 630.516,-36.1494"/>
<polygon fill="black" stroke="black" points="632.679,-38.9209 639.232,-30.5955 628.918,-33.0174 632.679,-38.9209"/>
</g>
<!-- node146&#45;&gt;node151 -->
<g id="edge22" class="edge"><title>node146&#45;&gt;node151</title>
<path fill="none" stroke="black" d="M1293.65,-364.541C1289.17,-362.764 1284.52,-361.159 1280,-360 1104.96,-315.086 1039.74,-398.266 875,-324 853.791,-314.439 854.798,-302.982 837,-288 755.124,-219.079 733.968,-201.961 644,-144 624.163,-131.22 601.085,-118.409 582.309,-108.475"/>
<polygon fill="black" stroke="black" points="583.68,-105.242 573.198,-103.7 580.431,-111.442 583.68,-105.242"/>
</g>
<!-- node186 -->
<g id="node14" class="node"><title>node186</title>
<ellipse fill="none" stroke="black" cx="1003" cy="-306" rx="118.939" ry="18"/>
<text text-anchor="middle" x="1003" y="-302.7" font-family="Times Roman,serif" font-size="12.00">/usr/lib/libboost_regex&#45;mt.so</text>
</g>
<!-- node146&#45;&gt;node186 -->
<g id="edge14" class="edge"><title>node146&#45;&gt;node186</title>
<path fill="none" stroke="black" d="M1293.97,-365.135C1289.38,-363.236 1284.6,-361.439 1280,-360 1221.9,-341.83 1154.95,-328.577 1101.43,-319.749"/>
<polygon fill="black" stroke="black" points="1101.68,-316.245 1091.25,-318.097 1100.56,-323.154 1101.68,-316.245"/>
</g>
<!-- node183 -->
<g id="node16" class="node"><title>node183</title>
<ellipse fill="none" stroke="black" cx="1218" cy="-306" rx="77.9931" ry="18"/>
<text text-anchor="middle" x="1218" y="-302.7" font-family="Times Roman,serif" font-size="12.00">/usr/lib/libicuuc.so</text>
</g>
<!-- node146&#45;&gt;node183 -->
<g id="edge16" class="edge"><title>node146&#45;&gt;node183</title>
<path fill="none" stroke="black" d="M1295.01,-359.831C1281.68,-350.517 1265.31,-339.071 1251.09,-329.132"/>
<polygon fill="black" stroke="black" points="1252.77,-326.032 1242.56,-323.171 1248.76,-331.769 1252.77,-326.032"/>
</g>
<!-- node184 -->
<g id="node18" class="node"><title>node184</title>
<ellipse fill="none" stroke="black" cx="1399" cy="-306" rx="85.1424" ry="18"/>
<text text-anchor="middle" x="1399" y="-302.7" font-family="Times Roman,serif" font-size="12.00">/usr/lib/libicui18n.so</text>
</g>
<!-- node146&#45;&gt;node184 -->
<g id="edge18" class="edge"><title>node146&#45;&gt;node184</title>
<path fill="none" stroke="black" d="M1340.68,-359.831C1350.25,-351.001 1361.89,-340.256 1372.25,-330.694"/>
<polygon fill="black" stroke="black" points="1374.89,-333.02 1379.86,-323.665 1370.14,-327.876 1374.89,-333.02"/>
</g>
<!-- node185 -->
<g id="node20" class="node"><title>node185</title>
<ellipse fill="none" stroke="black" cx="743" cy="-306" rx="85.1424" ry="18"/>
<text text-anchor="middle" x="743" y="-302.7" font-family="Times Roman,serif" font-size="12.00">/usr/lib/libicudata.so</text>
</g>
<!-- node146&#45;&gt;node185 -->
<g id="edge20" class="edge"><title>node146&#45;&gt;node185</title>
<path fill="none" stroke="black" d="M1293.65,-364.515C1289.18,-362.741 1284.52,-361.144 1280,-360 1090.65,-312.084 1035.65,-349.501 842,-324 833.38,-322.865 824.37,-321.491 815.447,-320.014"/>
<polygon fill="black" stroke="black" points="815.881,-316.537 805.436,-318.309 814.706,-323.438 815.881,-316.537"/>
</g>
<!-- node147 -->
<g id="node23" class="node"><title>node147</title>
<polygon fill="none" stroke="black" points="1594,-324 1540,-324 1540,-288 1594,-288 1594,-324"/>
<text text-anchor="middle" x="1567" y="-302.7" font-family="Times Roman,serif" font-size="12.00">nbcd</text>
</g>
<!-- node146&#45;&gt;node147 -->
<g id="edge24" class="edge"><title>node146&#45;&gt;node147</title>
<path fill="none" stroke="black" d="M1348.27,-370.02C1392.62,-357.038 1480.45,-331.333 1530.26,-316.753"/>
<polygon fill="black" stroke="black" points="1531.37,-320.075 1539.99,-313.906 1529.41,-313.356 1531.37,-320.075"/>
</g>
<!-- node147&#45;&gt;node151 -->
<g id="edge26" class="edge"><title>node147&#45;&gt;node151</title>
<path fill="none" stroke="black" d="M1568.63,-287.863C1570.58,-253.597 1569.22,-179.597 1526,-144 1488.96,-113.494 758.178,-94.8605 583.342,-90.8282"/>
<polygon fill="black" stroke="black" points="583.18,-87.3236 573.102,-90.5941 583.02,-94.3218 583.18,-87.3236"/>
</g>
<!-- node52&#45;&gt;node151 -->
<g id="edge30" class="edge"><title>node52&#45;&gt;node151</title>
<path fill="none" stroke="black" d="M69.964,-503.822C68.4995,-476.514 66,-423.277 66,-378 66,-378 66,-378 66,-234 66,-192.109 61.7997,-170.796 94,-144 125.683,-117.635 405.892,-98.38 508.534,-92.1554"/>
<polygon fill="black" stroke="black" points="508.973,-95.6355 518.746,-91.5437 508.554,-88.648 508.973,-95.6355"/>
</g>
<!-- node63&#45;&gt;node151 -->
<g id="edge34" class="edge"><title>node63&#45;&gt;node151</title>
<path fill="none" stroke="black" d="M1611.45,-503.978C1629.69,-477.712 1660,-426.722 1660,-378 1660,-378 1660,-378 1660,-234 1660,-183.866 1636.29,-167.491 1592,-144 1546.57,-119.904 764.475,-96.2224 583.271,-91.0425"/>
<polygon fill="black" stroke="black" points="583.264,-87.541 573.168,-90.7551 583.065,-94.5381 583.264,-87.541"/>
</g>
<!-- node63&#45;&gt;node146 -->
<g id="edge38" class="edge"><title>node63&#45;&gt;node146</title>
<path fill="none" stroke="black" d="M1559.79,-511.226C1528.97,-501.82 1484.99,-486.75 1449,-468 1413.28,-449.395 1376.01,-422.158 1350.96,-402.525"/>
<polygon fill="black" stroke="black" points="1352.97,-399.648 1342.95,-396.182 1348.62,-405.135 1352.97,-399.648"/>
</g>
<!-- node63&#45;&gt;node147 -->
<g id="edge36" class="edge"><title>node63&#45;&gt;node147</title>
<path fill="none" stroke="black" d="M1595.41,-503.955C1590.01,-466.314 1577.5,-379.187 1571.04,-334.125"/>
<polygon fill="black" stroke="black" points="1574.49,-333.546 1569.6,-324.145 1567.56,-334.541 1574.49,-333.546"/>
</g>
<!-- node53 -->
<g id="node34" class="node"><title>node53</title>
<polygon fill="none" stroke="black" points="1518,-468 1458,-468 1458,-432 1518,-432 1518,-468"/>
<text text-anchor="middle" x="1488" y="-446.7" font-family="Times Roman,serif" font-size="12.00">deftype</text>
</g>
<!-- node63&#45;&gt;node53 -->
<g id="edge40" class="edge"><title>node63&#45;&gt;node53</title>
<path fill="none" stroke="black" d="M1570.24,-503.831C1556.3,-494.707 1539.24,-483.539 1524.28,-473.745"/>
<polygon fill="black" stroke="black" points="1526.03,-470.711 1515.75,-468.163 1522.2,-476.568 1526.03,-470.711"/>
</g>
<!-- node156 -->
<g id="node39" class="node"><title>node156</title>
<polygon fill="none" stroke="black" points="2039,-468 1945,-468 1945,-432 2039,-432 2039,-468"/>
<text text-anchor="middle" x="1992" y="-446.7" font-family="Times Roman,serif" font-size="12.00">securesocket</text>
</g>
<!-- node63&#45;&gt;node156 -->
<g id="edge48" class="edge"><title>node63&#45;&gt;node156</title>
<path fill="none" stroke="black" d="M1636.14,-515.031C1705.59,-502.339 1853.04,-475.394 1934.65,-460.479"/>
<polygon fill="black" stroke="black" points="1935.55,-463.875 1944.75,-458.634 1934.29,-456.989 1935.55,-463.875"/>
</g>
<!-- node53&#45;&gt;node151 -->
<g id="edge42" class="edge"><title>node53&#45;&gt;node151</title>
<path fill="none" stroke="black" d="M1518.07,-434.782C1557.58,-412.402 1622,-366.616 1622,-306 1622,-306 1622,-306 1622,-234 1622,-183.597 1597.59,-167.505 1553,-144 1465.96,-98.1169 755.324,-91.1765 583.363,-90.1662"/>
<polygon fill="black" stroke="black" points="583.3,-86.6659 573.281,-90.1103 583.261,-93.6658 583.3,-86.6659"/>
</g>
<!-- node53&#45;&gt;node146 -->
<g id="edge46" class="edge"><title>node53&#45;&gt;node146</title>
<path fill="none" stroke="black" d="M1457.76,-436.961C1429.6,-424.821 1387.57,-406.702 1357.55,-393.757"/>
<polygon fill="black" stroke="black" points="1358.82,-390.495 1348.25,-389.75 1356.05,-396.923 1358.82,-390.495"/>
</g>
<!-- node53&#45;&gt;node147 -->
<g id="edge44" class="edge"><title>node53&#45;&gt;node147</title>
<path fill="none" stroke="black" d="M1496.14,-431.741C1504.53,-413.321 1518.3,-384.22 1532,-360 1537.14,-350.907 1543.2,-341.252 1548.82,-332.658"/>
<polygon fill="black" stroke="black" points="1551.85,-334.424 1554.45,-324.155 1546.01,-330.557 1551.85,-334.424"/>
</g>
<!-- node156&#45;&gt;node151 -->
<g id="edge50" class="edge"><title>node156&#45;&gt;node151</title>
<path fill="none" stroke="black" d="M2039.25,-447.743C2114.29,-443.161 2255.85,-430.129 2291,-396 2320.33,-367.52 2310,-346.882 2310,-306 2310,-306 2310,-306 2310,-234 2310,-144.166 837.539,-98.282 583.2,-91.0265"/>
<polygon fill="black" stroke="black" points="583.097,-87.5223 573.002,-90.7378 582.899,-94.5195 583.097,-87.5223"/>
</g>
<!-- node191 -->
<g id="node42" class="node"><title>node191</title>
<ellipse fill="none" stroke="black" cx="2145" cy="-378" rx="137.138" ry="18"/>
<text text-anchor="middle" x="2145" y="-374.7" font-family="Times Roman,serif" font-size="12.00">/usr/lib/x86_64&#45;linux&#45;gnu/libssl.so</text>
</g>
<!-- node156&#45;&gt;node191 -->
<g id="edge52" class="edge"><title>node156&#45;&gt;node191</title>
<path fill="none" stroke="black" d="M2030.61,-431.831C2051.37,-422.062 2077.11,-409.95 2098.91,-399.689"/>
<polygon fill="black" stroke="black" points="2100.43,-402.843 2107.99,-395.418 2097.45,-396.509 2100.43,-402.843"/>
</g>
<!-- node192 -->
<g id="node44" class="node"><title>node192</title>
<ellipse fill="none" stroke="black" cx="1839" cy="-378" rx="150.937" ry="18"/>
<text text-anchor="middle" x="1839" y="-374.7" font-family="Times Roman,serif" font-size="12.00">/usr/lib/x86_64&#45;linux&#45;gnu/libcrypto.so</text>
</g>
<!-- node156&#45;&gt;node192 -->
<g id="edge54" class="edge"><title>node156&#45;&gt;node192</title>
<path fill="none" stroke="black" d="M1953.39,-431.831C1932.71,-422.099 1907.08,-410.04 1885.33,-399.804"/>
<polygon fill="black" stroke="black" points="1886.81,-396.632 1876.28,-395.541 1883.83,-402.966 1886.81,-396.632"/>
</g>
<!-- node153&#45;&gt;node151 -->
<g id="edge58" class="edge"><title>node153&#45;&gt;node151</title>
<path fill="none" stroke="black" d="M483.944,-143.831C494.069,-135.048 506.378,-124.371 517.355,-114.849"/>
<polygon fill="black" stroke="black" points="519.802,-117.359 525.062,-108.163 515.215,-112.072 519.802,-117.359"/>
</g>
<!-- node66&#45;&gt;node151 -->
<g id="edge62" class="edge"><title>node66&#45;&gt;node151</title>
<path fill="none" stroke="black" d="M402.681,-287.806C397.809,-255.058 392.68,-185.725 427,-144 447.639,-118.908 482.425,-104.991 509.072,-97.5982"/>
<polygon fill="black" stroke="black" points="510.033,-100.965 518.84,-95.0746 508.282,-94.1874 510.033,-100.965"/>
</g>
<!-- node66&#45;&gt;node153 -->
<g id="edge64" class="edge"><title>node66&#45;&gt;node153</title>
<path fill="none" stroke="black" d="M407.667,-287.756C409.868,-269.093 414.737,-239.573 425,-216 429.144,-206.483 435.11,-196.943 441.091,-188.586"/>
<polygon fill="black" stroke="black" points="444.061,-190.459 447.254,-180.357 438.458,-186.263 444.061,-190.459"/>
</g>
<!-- node149 -->
<g id="node53" class="node"><title>node149</title>
<polygon fill="none" stroke="black" points="602,-252 548,-252 548,-216 602,-216 602,-252"/>
<text text-anchor="middle" x="575" y="-230.7" font-family="Times Roman,serif" font-size="12.00">hrpc</text>
</g>
<!-- node66&#45;&gt;node149 -->
<g id="edge66" class="edge"><title>node66&#45;&gt;node149</title>
<path fill="none" stroke="black" d="M437.392,-292.626C466.074,-280.406 508.486,-262.337 538.634,-249.493"/>
<polygon fill="black" stroke="black" points="540.13,-252.66 547.958,-245.521 537.386,-246.221 540.13,-252.66"/>
</g>
<!-- node59 -->
<g id="node57" class="node"><title>node59</title>
<polygon fill="none" stroke="black" points="492,-252 434,-252 434,-216 492,-216 492,-252"/>
<text text-anchor="middle" x="463" y="-230.7" font-family="Times Roman,serif" font-size="12.00">remote</text>
</g>
<!-- node66&#45;&gt;node59 -->
<g id="edge72" class="edge"><title>node66&#45;&gt;node59</title>
<path fill="none" stroke="black" d="M420.384,-287.831C426.949,-279.539 434.851,-269.557 442.058,-260.453"/>
<polygon fill="black" stroke="black" points="444.96,-262.426 448.423,-252.413 439.472,-258.081 444.96,-262.426"/>
</g>
<!-- node149&#45;&gt;node151 -->
<g id="edge68" class="edge"><title>node149&#45;&gt;node151</title>
<path fill="none" stroke="black" d="M571.327,-215.762C566.359,-191.093 557.451,-146.86 551.633,-117.973"/>
<polygon fill="black" stroke="black" points="555.048,-117.202 549.643,-108.09 548.186,-118.584 555.048,-117.202"/>
</g>
<!-- node149&#45;&gt;node153 -->
<g id="edge70" class="edge"><title>node149&#45;&gt;node153</title>
<path fill="none" stroke="black" d="M547.888,-216.571C533.139,-207.09 514.71,-195.242 498.794,-185.011"/>
<polygon fill="black" stroke="black" points="500.555,-181.982 490.251,-179.518 496.77,-187.87 500.555,-181.982"/>
</g>
<!-- node59&#45;&gt;node151 -->
<g id="edge74" class="edge"><title>node59&#45;&gt;node151</title>
<path fill="none" stroke="black" d="M475.826,-215.818C482.932,-205.488 491.766,-192.216 499,-180 511.125,-159.524 523.532,-135.615 532.552,-117.589"/>
<polygon fill="black" stroke="black" points="535.882,-118.752 537.191,-108.239 529.612,-115.641 535.882,-118.752"/>
</g>
<!-- node59&#45;&gt;node153 -->
<g id="edge76" class="edge"><title>node59&#45;&gt;node153</title>
<path fill="none" stroke="black" d="M463,-215.831C463,-208.131 463,-198.974 463,-190.417"/>
<polygon fill="black" stroke="black" points="466.5,-190.413 463,-180.413 459.5,-190.413 466.5,-190.413"/>
</g>
<!-- node164&#45;&gt;node151 -->
<g id="edge80" class="edge"><title>node164&#45;&gt;node151</title>
<path fill="none" stroke="black" d="M373.397,-575.899C320.039,-539.599 212.81,-453.352 237,-360 264.822,-252.63 273.623,-211.022 362,-144 405.587,-110.945 469.026,-98.0762 508.875,-93.0983"/>
<polygon fill="black" stroke="black" points="509.425,-96.5584 518.962,-91.9441 508.629,-89.6038 509.425,-96.5584"/>
</g>
<!-- node164&#45;&gt;node146 -->
<g id="edge124" class="edge"><title>node164&#45;&gt;node146</title>
<path fill="none" stroke="black" d="M437.371,-588.534C557.554,-569.436 960.49,-501.083 1280,-396 1281.43,-395.529 1282.88,-395.027 1284.34,-394.5"/>
<polygon fill="black" stroke="black" points="1285.9,-397.648 1293.94,-390.75 1283.35,-391.128 1285.9,-397.648"/>
</g>
<!-- node164&#45;&gt;node147 -->
<g id="edge122" class="edge"><title>node164&#45;&gt;node147</title>
<path fill="none" stroke="black" d="M437.222,-593.856C589.549,-592.956 1192.17,-586.471 1375,-540 1447.45,-521.585 1479.69,-525.877 1527,-468 1558.57,-429.378 1565.77,-369.422 1567.1,-334.303"/>
<polygon fill="black" stroke="black" points="1570.6,-334.335 1567.34,-324.253 1563.6,-334.165 1570.6,-334.335"/>
</g>
<!-- node164&#45;&gt;node52 -->
<g id="edge142" class="edge"><title>node164&#45;&gt;node52</title>
<path fill="none" stroke="black" d="M366.891,-586.363C308.81,-573.729 192.384,-548.404 124.171,-533.566"/>
<polygon fill="black" stroke="black" points="124.576,-530.072 114.061,-531.367 123.088,-536.912 124.576,-530.072"/>
</g>
<!-- node164&#45;&gt;node63 -->
<g id="edge144" class="edge"><title>node164&#45;&gt;node63</title>
<path fill="none" stroke="black" d="M437.192,-593.691C605.102,-592.009 1325.74,-582.408 1546,-540 1547.27,-539.756 1548.54,-539.488 1549.83,-539.199"/>
<polygon fill="black" stroke="black" points="1550.92,-542.53 1559.72,-536.622 1549.16,-535.757 1550.92,-542.53"/>
</g>
<!-- node164&#45;&gt;node53 -->
<g id="edge126" class="edge"><title>node164&#45;&gt;node53</title>
<path fill="none" stroke="black" d="M437.188,-592.834C595.152,-587.478 1234.85,-564.446 1321,-540 1370.52,-525.947 1421.83,-495.503 1454.28,-473.923"/>
<polygon fill="black" stroke="black" points="1456.58,-476.589 1462.91,-468.092 1452.67,-470.788 1456.58,-476.589"/>
</g>
<!-- node164&#45;&gt;node66 -->
<g id="edge88" class="edge"><title>node164&#45;&gt;node66</title>
<path fill="none" stroke="black" d="M396.03,-575.732C392.959,-565.376 389.544,-552.105 388,-540 377.88,-460.643 375.185,-438.967 388,-360 389.418,-351.262 392.048,-342.027 394.867,-333.714"/>
<polygon fill="black" stroke="black" points="398.225,-334.719 398.332,-324.124 391.642,-332.34 398.225,-334.719"/>
</g>
<!-- node164&#45;&gt;node59 -->
<g id="edge86" class="edge"><title>node164&#45;&gt;node59</title>
<path fill="none" stroke="black" d="M405.109,-575.653C415.062,-516.913 446.191,-333.201 458.204,-262.305"/>
<polygon fill="black" stroke="black" points="461.677,-262.755 459.897,-252.31 454.776,-261.585 461.677,-262.755"/>
</g>
<!-- node150 -->
<g id="node64" class="node"><title>node150</title>
<polygon fill="none" stroke="black" points="157,-180 103,-180 103,-144 157,-144 157,-180"/>
<text text-anchor="middle" x="130" y="-158.7" font-family="Times Roman,serif" font-size="12.00">jhtree</text>
</g>
<!-- node164&#45;&gt;node150 -->
<g id="edge82" class="edge"><title>node164&#45;&gt;node150</title>
<path fill="none" stroke="black" d="M366.912,-586.152C325.321,-576.188 259.44,-558.106 242,-540 145.32,-439.631 131.58,-259.806 130.005,-190.405"/>
<polygon fill="black" stroke="black" points="133.502,-190.188 129.846,-180.244 126.503,-190.298 133.502,-190.188"/>
</g>
<!-- node55 -->
<g id="node69" class="node"><title>node55</title>
<polygon fill="none" stroke="black" points="336,-396 246,-396 246,-360 336,-360 336,-396"/>
<text text-anchor="middle" x="291" y="-374.7" font-family="Times Roman,serif" font-size="12.00">environment</text>
</g>
<!-- node164&#45;&gt;node55 -->
<g id="edge90" class="edge"><title>node164&#45;&gt;node55</title>
<path fill="none" stroke="black" d="M380.825,-575.934C370.41,-566.155 358.337,-553.36 350,-540 323.118,-496.922 305.956,-439.799 297.435,-406.162"/>
<polygon fill="black" stroke="black" points="300.752,-404.992 294.971,-396.113 293.954,-406.659 300.752,-404.992"/>
</g>
<!-- node54 -->
<g id="node75" class="node"><title>node54</title>
<polygon fill="none" stroke="black" points="675,-468 609,-468 609,-432 675,-432 675,-468"/>
<text text-anchor="middle" x="642" y="-446.7" font-family="Times Roman,serif" font-size="12.00">dllserver</text>
</g>
<!-- node164&#45;&gt;node54 -->
<g id="edge100" class="edge"><title>node164&#45;&gt;node54</title>
<path fill="none" stroke="black" d="M432.396,-575.762C475.766,-549.74 555.415,-501.951 603.056,-473.366"/>
<polygon fill="black" stroke="black" points="605.076,-476.236 611.851,-468.09 601.475,-470.233 605.076,-476.236"/>
</g>
<!-- node64 -->
<g id="node93" class="node"><title>node64</title>
<polygon fill="none" stroke="black" points="1312,-540 1244,-540 1244,-504 1312,-504 1312,-540"/>
<text text-anchor="middle" x="1278" y="-518.7" font-family="Times Roman,serif" font-size="12.00">workunit</text>
</g>
<!-- node164&#45;&gt;node64 -->
<g id="edge128" class="edge"><title>node164&#45;&gt;node64</title>
<path fill="none" stroke="black" d="M437.153,-591.111C575.206,-579.764 1080.16,-538.261 1233.53,-525.655"/>
<polygon fill="black" stroke="black" points="1233.85,-529.14 1243.53,-524.833 1233.28,-522.164 1233.85,-529.14"/>
</g>
<!-- node150&#45;&gt;node151 -->
<g id="edge84" class="edge"><title>node150&#45;&gt;node151</title>
<path fill="none" stroke="black" d="M157.232,-151.301C164.835,-148.613 173.162,-145.944 181,-144 298.739,-114.802 442.014,-99.2525 508.62,-93.1362"/>
<polygon fill="black" stroke="black" points="508.99,-96.6172 518.636,-92.235 508.363,-89.6454 508.99,-96.6172"/>
</g>
<!-- node55&#45;&gt;node151 -->
<g id="edge92" class="edge"><title>node55&#45;&gt;node151</title>
<path fill="none" stroke="black" d="M291.719,-359.787C292.981,-341.149 296.452,-311.649 306,-288 335.076,-215.982 343.985,-192.054 405,-144 435.805,-119.738 478.753,-105.392 509.135,-97.658"/>
<polygon fill="black" stroke="black" points="510.028,-101.043 518.921,-95.2838 508.378,-94.2403 510.028,-101.043"/>
</g>
<!-- node55&#45;&gt;node153 -->
<g id="edge94" class="edge"><title>node55&#45;&gt;node153</title>
<path fill="none" stroke="black" d="M296.15,-359.982C302.123,-340.976 313.212,-310.694 329,-288 357.338,-247.267 400.645,-209.56 430.308,-186.213"/>
<polygon fill="black" stroke="black" points="432.536,-188.914 438.289,-180.018 428.244,-183.385 432.536,-188.914"/>
</g>
<!-- node55&#45;&gt;node66 -->
<g id="edge98" class="edge"><title>node55&#45;&gt;node66</title>
<path fill="none" stroke="black" d="M320.019,-359.831C334.729,-350.622 352.764,-339.33 368.512,-329.471"/>
<polygon fill="black" stroke="black" points="370.371,-332.436 376.99,-324.163 366.657,-326.503 370.371,-332.436"/>
</g>
<!-- node55&#45;&gt;node59 -->
<g id="edge96" class="edge"><title>node55&#45;&gt;node59</title>
<path fill="none" stroke="black" d="M303.146,-359.73C316.76,-340.234 340.317,-309.284 366,-288 383.647,-273.376 405.828,-260.687 424.524,-251.29"/>
<polygon fill="black" stroke="black" points="426.22,-254.356 433.663,-246.816 423.142,-248.069 426.22,-254.356"/>
</g>
<!-- node54&#45;&gt;node151 -->
<g id="edge104" class="edge"><title>node54&#45;&gt;node151</title>
<path fill="none" stroke="black" d="M675.04,-448.277C798.613,-441.676 1227.52,-417.3 1247,-396 1257.8,-384.194 1257.97,-371.649 1247,-360 1155.74,-263.076 755.28,-404.176 649,-324 608.378,-293.355 630.862,-262.848 611,-216 597.035,-183.061 591.465,-175.763 575,-144 570.468,-135.258 565.424,-125.781 560.829,-117.242"/>
<polygon fill="black" stroke="black" points="563.898,-115.559 556.066,-108.424 557.739,-118.886 563.898,-115.559"/>
</g>
<!-- node54&#45;&gt;node146 -->
<g id="edge110" class="edge"><title>node54&#45;&gt;node146</title>
<path fill="none" stroke="black" d="M675.271,-447.827C797.984,-439.723 1221.15,-410.968 1280,-396 1281.27,-395.677 1282.55,-395.318 1283.84,-394.929"/>
<polygon fill="black" stroke="black" points="1285.38,-398.097 1293.65,-391.475 1283.06,-391.495 1285.38,-398.097"/>
</g>
<!-- node54&#45;&gt;node153 -->
<g id="edge106" class="edge"><title>node54&#45;&gt;node153</title>
<path fill="none" stroke="black" d="M624.755,-431.818C615.627,-421.706 604.567,-408.642 596,-396 545.253,-321.117 548.236,-293.146 501,-216 495.343,-206.761 488.685,-196.985 482.535,-188.327"/>
<polygon fill="black" stroke="black" points="485.295,-186.171 476.61,-180.103 479.615,-190.263 485.295,-186.171"/>
</g>
<!-- node54&#45;&gt;node66 -->
<g id="edge114" class="edge"><title>node54&#45;&gt;node66</title>
<path fill="none" stroke="black" d="M608.929,-441.188C579.454,-432.442 535.867,-417.263 502,-396 473.646,-378.198 446.295,-351.285 428.091,-331.525"/>
<polygon fill="black" stroke="black" points="430.65,-329.137 421.344,-324.073 425.461,-333.835 430.65,-329.137"/>
</g>
<!-- node54&#45;&gt;node149 -->
<g id="edge108" class="edge"><title>node54&#45;&gt;node149</title>
<path fill="none" stroke="black" d="M629.639,-431.703C623.271,-421.558 615.846,-408.498 611,-396 593.5,-350.869 583.465,-295.201 578.633,-262.265"/>
<polygon fill="black" stroke="black" points="582.05,-261.429 577.191,-252.015 575.119,-262.405 582.05,-261.429"/>
</g>
<!-- node54&#45;&gt;node59 -->
<g id="edge112" class="edge"><title>node54&#45;&gt;node59</title>
<path fill="none" stroke="black" d="M608.678,-438.694C586.864,-429.896 558.987,-415.825 540,-396 520.351,-375.483 489.597,-301.921 473.548,-261.348"/>
<polygon fill="black" stroke="black" points="476.804,-260.064 469.893,-252.033 470.288,-262.621 476.804,-260.064"/>
</g>
<!-- node54&#45;&gt;node55 -->
<g id="edge116" class="edge"><title>node54&#45;&gt;node55</title>
<path fill="none" stroke="black" d="M608.979,-443.226C548.672,-430.856 420.137,-404.49 346.284,-389.34"/>
<polygon fill="black" stroke="black" points="346.738,-385.861 336.239,-387.28 345.331,-392.718 346.738,-385.861"/>
</g>
<!-- node176 -->
<g id="node77" class="node"><title>node176</title>
<ellipse fill="none" stroke="black" cx="1107" cy="-378" rx="130.789" ry="18"/>
<text text-anchor="middle" x="1107" y="-374.7" font-family="Times Roman,serif" font-size="12.00">/usr/lib/x86_64&#45;linux&#45;gnu/libz.so</text>
</g>
<!-- node54&#45;&gt;node176 -->
<g id="edge102" class="edge"><title>node54&#45;&gt;node176</title>
<path fill="none" stroke="black" d="M675.069,-444.88C743.912,-434.22 904.922,-409.29 1009.73,-393.061"/>
<polygon fill="black" stroke="black" points="1010.35,-396.507 1019.69,-391.518 1009.28,-389.59 1010.35,-396.507"/>
</g>
<!-- node177 -->
<g id="node86" class="node"><title>node177</title>
<ellipse fill="none" stroke="black" cx="691" cy="-378" rx="70.8437" ry="18"/>
<text text-anchor="middle" x="691" y="-374.7" font-family="Times Roman,serif" font-size="12.00">/usr/lib/libbfd.so</text>
</g>
<!-- node54&#45;&gt;node177 -->
<g id="edge118" class="edge"><title>node54&#45;&gt;node177</title>
<path fill="none" stroke="black" d="M654.365,-431.831C660.037,-423.497 666.87,-413.457 673.09,-404.316"/>
<polygon fill="black" stroke="black" points="676.076,-406.15 678.809,-395.913 670.289,-402.211 676.076,-406.15"/>
</g>
<!-- node178 -->
<g id="node88" class="node"><title>node178</title>
<ellipse fill="none" stroke="black" cx="869" cy="-378" rx="89.0421" ry="18"/>
<text text-anchor="middle" x="869" y="-374.7" font-family="Times Roman,serif" font-size="12.00">/usr/lib/libiberty_pic.a</text>
</g>
<!-- node54&#45;&gt;node178 -->
<g id="edge120" class="edge"><title>node54&#45;&gt;node178</title>
<path fill="none" stroke="black" d="M675.008,-439.531C710.6,-428.241 767.95,-410.051 811.082,-396.371"/>
<polygon fill="black" stroke="black" points="812.411,-399.621 820.885,-393.261 810.295,-392.948 812.411,-399.621"/>
</g>
<!-- node64&#45;&gt;node151 -->
<g id="edge130" class="edge"><title>node64&#45;&gt;node151</title>
<path fill="none" stroke="black" d="M1289.67,-503.934C1302.45,-484.887 1324.19,-454.572 1347,-432 1384.91,-394.488 1400.02,-391.583 1443,-360 1465.07,-343.784 1480.52,-348.372 1493,-324 1500.29,-309.76 1503.09,-300.418 1493,-288 1374.96,-142.731 744.649,-100.33 583.526,-91.7904"/>
<polygon fill="black" stroke="black" points="583.342,-88.2763 573.175,-91.2545 582.98,-95.2669 583.342,-88.2763"/>
</g>
<!-- node64&#45;&gt;node146 -->
<g id="edge138" class="edge"><title>node64&#45;&gt;node146</title>
<path fill="none" stroke="black" d="M1282.37,-503.953C1286.9,-485.698 1294.37,-456.722 1302,-432 1304.63,-423.494 1307.74,-414.328 1310.68,-406.007"/>
<polygon fill="black" stroke="black" points="1314.05,-406.971 1314.14,-396.376 1307.46,-404.607 1314.05,-406.971"/>
</g>
<!-- node64&#45;&gt;node147 -->
<g id="edge136" class="edge"><title>node64&#45;&gt;node147</title>
<path fill="none" stroke="black" d="M1302.14,-503.955C1353.99,-465.203 1476.02,-373.997 1534.56,-330.244"/>
<polygon fill="black" stroke="black" points="1536.81,-332.935 1542.72,-324.145 1532.62,-327.328 1536.81,-332.935"/>
</g>
<!-- node64&#45;&gt;node53 -->
<g id="edge140" class="edge"><title>node64&#45;&gt;node53</title>
<path fill="none" stroke="black" d="M1312.21,-510.272C1349.49,-497.488 1409.07,-477.061 1448.37,-463.588"/>
<polygon fill="black" stroke="black" points="1449.57,-466.876 1457.89,-460.322 1447.3,-460.254 1449.57,-466.876"/>
</g>
<!-- node64&#45;&gt;node66 -->
<g id="edge132" class="edge"><title>node64&#45;&gt;node66</title>
<path fill="none" stroke="black" d="M1243.77,-520.978C1123.87,-517.133 723.374,-501.988 600,-468 530.248,-448.784 505.966,-446.339 454,-396 436.129,-378.688 423.415,-353.268 415.581,-333.855"/>
<polygon fill="black" stroke="black" points="418.776,-332.41 411.928,-324.325 412.24,-334.916 418.776,-332.41"/>
</g>
<!-- node64&#45;&gt;node54 -->
<g id="edge134" class="edge"><title>node64&#45;&gt;node54</title>
<path fill="none" stroke="black" d="M1243.81,-518.129C1136.23,-505.951 804.813,-468.432 685.427,-454.916"/>
<polygon fill="black" stroke="black" points="685.539,-451.407 675.208,-453.759 684.751,-458.362 685.539,-451.407"/>
</g>
</g>
</svg>
