<?xml version="1.0" encoding="UTF-8" standalone="no"?>
<!DOCTYPE svg PUBLIC "-//W3C//DTD SVG 1.1//EN"
 "http://www.w3.org/Graphics/SVG/1.1/DTD/svg11.dtd">
<!-- Generated by graphviz version 2.26.3 (20100126.1600)
 -->
<!-- Title: GG Pages: 1 -->
<svg width="310pt" height="332pt"
 viewBox="0.00 0.00 310.00 332.00" xmlns="http://www.w3.org/2000/svg" xmlns:xlink="http://www.w3.org/1999/xlink">
<g id="graph1" class="graph" transform="scale(1 1) rotate(0) translate(4 328)">
<title>GG</title>
<polygon fill="white" stroke="white" points="-4,5 -4,-328 307,-328 307,5 -4,5"/>
<!-- node145 -->
<g id="node1" class="node"><title>node145</title>
<polygon fill="none" stroke="black" points="223.822,-311.562 148,-324 72.1784,-311.562 72.2492,-291.438 223.751,-291.438 223.822,-311.562"/>
<text text-anchor="middle" x="148" y="-302.7" font-family="Times Roman,serif" font-size="12.00">udptransport</text>
</g>
<!-- node151 -->
<g id="node2" class="node"><title>node151</title>
<polygon fill="none" stroke="black" points="189,-108 135,-108 135,-72 189,-72 189,-108"/>
<text text-anchor="middle" x="162" y="-86.7" font-family="Times Roman,serif" font-size="12.00">jlib</text>
</g>
<!-- node145&#45;&gt;node151 -->
<g id="edge2" class="edge"><title>node145&#45;&gt;node151</title>
<path fill="none" stroke="black" d="M139.897,-291.28C125.069,-262.314 96.7837,-196.192 116,-144 119.805,-133.666 126.564,-123.962 133.75,-115.71"/>
<polygon fill="black" stroke="black" points="136.428,-117.97 140.687,-108.269 131.308,-113.197 136.428,-117.97"/>
</g>
<!-- node142 -->
<g id="node12" class="node"><title>node142</title>
<polygon fill="none" stroke="black" points="199,-180 125,-180 125,-144 199,-144 199,-180"/>
<text text-anchor="middle" x="162" y="-158.7" font-family="Times Roman,serif" font-size="12.00">roxiemem</text>
</g>
<!-- node145&#45;&gt;node142 -->
<g id="edge12" class="edge"><title>node145&#45;&gt;node142</title>
<path fill="none" stroke="black" d="M149.419,-291.4C151.72,-267.735 156.304,-220.592 159.257,-190.214"/>
<polygon fill="black" stroke="black" points="162.743,-190.526 160.227,-180.234 155.776,-189.849 162.743,-190.526"/>
</g>
<!-- node144 -->
<g id="node15" class="node"><title>node144</title>
<polygon fill="none" stroke="black" points="230,-252 176,-252 176,-216 230,-216 230,-252"/>
<text text-anchor="middle" x="203" y="-230.7" font-family="Times Roman,serif" font-size="12.00">udplib</text>
</g>
<!-- node145&#45;&gt;node144 -->
<g id="edge16" class="edge"><title>node145&#45;&gt;node144</title>
<path fill="none" stroke="black" d="M159.13,-291.43C165.966,-282.481 174.924,-270.754 182.962,-260.232"/>
<polygon fill="black" stroke="black" points="185.863,-262.199 189.152,-252.128 180.3,-257.95 185.863,-262.199"/>
</g>
<!-- node152 -->
<g id="node4" class="node"><title>node152</title>
<polygon fill="none" stroke="black" points="40,-36 0.0563759,-18 40,-3.55271e-15 79.9436,-18 40,-36"/>
<text text-anchor="middle" x="40" y="-14.7" font-family="Times Roman,serif" font-size="12.00">lzma</text>
</g>
<!-- node151&#45;&gt;node152 -->
<g id="edge4" class="edge"><title>node151&#45;&gt;node152</title>
<path fill="none" stroke="black" d="M134.924,-74.0209C114.47,-61.9494 86.5536,-45.4743 66.293,-33.5172"/>
<polygon fill="black" stroke="black" points="67.968,-30.4417 57.577,-28.3733 64.4102,-36.4701 67.968,-30.4417"/>
</g>
<!-- node187 -->
<g id="node6" class="node"><title>node187</title>
<ellipse fill="none" stroke="black" cx="125" cy="-18" rx="27" ry="18"/>
<text text-anchor="middle" x="125" y="-14.7" font-family="Times Roman,serif" font-size="12.00">dl</text>
</g>
<!-- node151&#45;&gt;node187 -->
<g id="edge6" class="edge"><title>node151&#45;&gt;node187</title>
<path fill="none" stroke="black" d="M152.663,-71.8314C148.405,-63.5451 143.28,-53.5727 138.605,-44.4748"/>
<polygon fill="black" stroke="black" points="141.635,-42.7123 133.951,-35.4177 135.408,-45.9118 141.635,-42.7123"/>
</g>
<!-- node179 -->
<g id="node8" class="node"><title>node179</title>
<ellipse fill="none" stroke="black" cx="200" cy="-18" rx="30.0465" ry="18"/>
<text text-anchor="middle" x="200" y="-14.7" font-family="Times Roman,serif" font-size="12.00">crypt</text>
</g>
<!-- node151&#45;&gt;node179 -->
<g id="edge8" class="edge"><title>node151&#45;&gt;node179</title>
<path fill="none" stroke="black" d="M171.589,-71.8314C175.962,-63.5451 181.226,-53.5727 186.027,-44.4748"/>
<polygon fill="black" stroke="black" points="189.235,-45.8952 190.807,-35.4177 183.044,-42.6279 189.235,-45.8952"/>
</g>
<!-- node188 -->
<g id="node10" class="node"><title>node188</title>
<ellipse fill="none" stroke="black" cx="275" cy="-18" rx="27" ry="18"/>
<text text-anchor="middle" x="275" y="-14.7" font-family="Times Roman,serif" font-size="12.00">rt</text>
</g>
<!-- node151&#45;&gt;node188 -->
<g id="edge10" class="edge"><title>node151&#45;&gt;node188</title>
<path fill="none" stroke="black" d="M189.066,-72.7542C206.414,-61.7009 228.898,-47.375 246.516,-36.1494"/>
<polygon fill="black" stroke="black" points="248.679,-38.9209 255.232,-30.5955 244.918,-33.0174 248.679,-38.9209"/>
</g>
<!-- node142&#45;&gt;node151 -->
<g id="edge14" class="edge"><title>node142&#45;&gt;node151</title>
<path fill="none" stroke="black" d="M162,-143.831C162,-136.131 162,-126.974 162,-118.417"/>
<polygon fill="black" stroke="black" points="165.5,-118.413 162,-108.413 158.5,-118.413 165.5,-118.413"/>
</g>
<!-- node144&#45;&gt;node151 -->
<g id="edge18" class="edge"><title>node144&#45;&gt;node151</title>
<path fill="none" stroke="black" d="M208.151,-215.785C212.483,-197.145 216.705,-167.643 208,-144 204.195,-133.666 197.436,-123.962 190.25,-115.71"/>
<polygon fill="black" stroke="black" points="192.692,-113.197 183.313,-108.269 187.572,-117.97 192.692,-113.197"/>
</g>
<!-- node144&#45;&gt;node142 -->
<g id="edge20" class="edge"><title>node144&#45;&gt;node142</title>
<path fill="none" stroke="black" d="M192.654,-215.831C188.076,-207.792 182.595,-198.167 177.541,-189.292"/>
<polygon fill="black" stroke="black" points="180.475,-187.371 172.485,-180.413 174.392,-190.835 180.475,-187.371"/>
</g>
</g>
</svg>
