<?xml version="1.0" encoding="UTF-8" standalone="no"?>
<!DOCTYPE svg PUBLIC "-//W3C//DTD SVG 1.1//EN"
 "http://www.w3.org/Graphics/SVG/1.1/DTD/svg11.dtd">
<!-- Generated by graphviz version 2.26.3 (20100126.1600)
 -->
<!-- Title: GG Pages: 1 -->
<svg width="3184pt" height="620pt"
 viewBox="0.00 0.00 3184.08 620.00" xmlns="http://www.w3.org/2000/svg" xmlns:xlink="http://www.w3.org/1999/xlink">
<g id="graph1" class="graph" transform="scale(1 1) rotate(0) translate(4 616)">
<title>GG</title>
<polygon fill="white" stroke="white" points="-4,5 -4,-616 3181.08,-616 3181.08,5 -4,5"/>
<!-- node125 -->
<g id="node1" class="node"><title>node125</title>
<polygon fill="none" stroke="black" points="1471,-612 1395,-612 1395,-576 1471,-576 1471,-612"/>
<text text-anchor="middle" x="1433" y="-590.7" font-family="Times Roman,serif" font-size="12.00">WsDeploy</text>
</g>
<!-- node151 -->
<g id="node2" class="node"><title>node151</title>
<polygon fill="none" stroke="black" points="1587,-108 1533,-108 1533,-72 1587,-72 1587,-108"/>
<text text-anchor="middle" x="1560" y="-86.7" font-family="Times Roman,serif" font-size="12.00">jlib</text>
</g>
<!-- node125&#45;&gt;node151 -->
<g id="edge2" class="edge"><title>node125&#45;&gt;node151</title>
<path fill="none" stroke="black" d="M1471.37,-592.897C1726.97,-585.301 3173,-538.425 3173,-450 3173,-450 3173,-450 3173,-234 3173,-193.118 3185.31,-170.284 3154,-144 3123.19,-118.139 1834.36,-94.7243 1597.27,-90.6314"/>
<polygon fill="black" stroke="black" points="1597.15,-87.129 1587.09,-90.4565 1597.03,-94.1279 1597.15,-87.129"/>
</g>
<!-- node160 -->
<g id="node12" class="node"><title>node160</title>
<polygon fill="none" stroke="black" points="580,-396 526,-396 526,-360 580,-360 580,-396"/>
<text text-anchor="middle" x="553" y="-374.7" font-family="Times Roman,serif" font-size="12.00">xmllib</text>
</g>
<!-- node125&#45;&gt;node160 -->
<g id="edge12" class="edge"><title>node125&#45;&gt;node160</title>
<path fill="none" stroke="black" d="M1394.91,-584.649C1249.92,-549.061 733.484,-422.301 590.139,-387.116"/>
<polygon fill="black" stroke="black" points="590.636,-383.634 580.09,-384.649 588.968,-390.432 590.636,-383.634"/>
</g>
<!-- node110 -->
<g id="node21" class="node"><title>node110</title>
<polygon fill="none" stroke="black" points="398,-468 336,-468 336,-432 398,-432 398,-468"/>
<text text-anchor="middle" x="367" y="-446.7" font-family="Times Roman,serif" font-size="12.00">esphttp</text>
</g>
<!-- node125&#45;&gt;node110 -->
<g id="edge22" class="edge"><title>node125&#45;&gt;node110</title>
<path fill="none" stroke="black" d="M1394.77,-590.151C1313.99,-581.909 1120.08,-561.546 958,-540 750.784,-512.454 503.802,-472.543 407.892,-456.774"/>
<polygon fill="black" stroke="black" points="408.454,-453.32 398.019,-455.148 407.317,-460.227 408.454,-453.32"/>
</g>
<!-- node66 -->
<g id="node28" class="node"><title>node66</title>
<polygon fill="none" stroke="black" points="1598,-324 1536,-324 1536,-288 1598,-288 1598,-324"/>
<text text-anchor="middle" x="1567" y="-302.7" font-family="Times Roman,serif" font-size="12.00">dalibase</text>
</g>
<!-- node125&#45;&gt;node66 -->
<g id="edge34" class="edge"><title>node125&#45;&gt;node66</title>
<path fill="none" stroke="black" d="M1441.38,-575.984C1464.13,-527.092 1527.14,-391.679 1554.28,-333.33"/>
<polygon fill="black" stroke="black" points="1557.58,-334.552 1558.62,-324.009 1551.23,-331.599 1557.58,-334.552"/>
</g>
<!-- node55 -->
<g id="node42" class="node"><title>node55</title>
<polygon fill="none" stroke="black" points="1477,-396 1387,-396 1387,-360 1477,-360 1477,-396"/>
<text text-anchor="middle" x="1432" y="-374.7" font-family="Times Roman,serif" font-size="12.00">environment</text>
</g>
<!-- node125&#45;&gt;node55 -->
<g id="edge54" class="edge"><title>node125&#45;&gt;node55</title>
<path fill="none" stroke="black" d="M1432.92,-575.955C1432.74,-538.394 1432.34,-451.554 1432.13,-406.41"/>
<polygon fill="black" stroke="black" points="1435.63,-406.129 1432.08,-396.145 1428.63,-406.161 1435.63,-406.129"/>
</g>
<!-- node54 -->
<g id="node48" class="node"><title>node54</title>
<polygon fill="none" stroke="black" points="1691,-468 1625,-468 1625,-432 1691,-432 1691,-468"/>
<text text-anchor="middle" x="1658" y="-446.7" font-family="Times Roman,serif" font-size="12.00">dllserver</text>
</g>
<!-- node125&#45;&gt;node54 -->
<g id="edge64" class="edge"><title>node125&#45;&gt;node54</title>
<path fill="none" stroke="black" d="M1471.25,-581.177C1496.86,-571.721 1530.74,-557.485 1558,-540 1586.64,-521.632 1615.06,-495.028 1634.24,-475.508"/>
<polygon fill="black" stroke="black" points="1636.93,-477.763 1641.37,-468.144 1631.9,-472.894 1636.93,-477.763"/>
</g>
<!-- node146 -->
<g id="node55" class="node"><title>node146</title>
<polygon fill="none" stroke="black" points="2469,-252 2415,-252 2415,-216 2469,-216 2469,-252"/>
<text text-anchor="middle" x="2442" y="-230.7" font-family="Times Roman,serif" font-size="12.00">eclrtl</text>
</g>
<!-- node125&#45;&gt;node146 -->
<g id="edge100" class="edge"><title>node125&#45;&gt;node146</title>
<path fill="none" stroke="black" d="M1471.19,-592.853C1659.49,-586.706 2480,-553.954 2480,-450 2480,-450 2480,-450 2480,-378 2480,-337.519 2477.43,-326.834 2466,-288 2463.38,-279.087 2459.61,-269.722 2455.83,-261.341"/>
<polygon fill="black" stroke="black" points="2458.88,-259.602 2451.46,-252.039 2452.54,-262.579 2458.88,-259.602"/>
</g>
<!-- node99 -->
<g id="node77" class="node"><title>node99</title>
<polygon fill="none" stroke="black" points="2414,-396 2360,-396 2360,-360 2414,-360 2414,-396"/>
<text text-anchor="middle" x="2387" y="-374.7" font-family="Times Roman,serif" font-size="12.00">hql</text>
</g>
<!-- node125&#45;&gt;node99 -->
<g id="edge102" class="edge"><title>node125&#45;&gt;node99</title>
<path fill="none" stroke="black" d="M1471.11,-588.539C1597.72,-569.807 2015.07,-503.33 2346,-396 2347.43,-395.535 2348.88,-395.038 2350.34,-394.515"/>
<polygon fill="black" stroke="black" points="2351.89,-397.667 2359.95,-390.782 2349.36,-391.142 2351.89,-397.667"/>
</g>
<!-- node156 -->
<g id="node87" class="node"><title>node156</title>
<polygon fill="none" stroke="black" points="1200,-396 1106,-396 1106,-360 1200,-360 1200,-396"/>
<text text-anchor="middle" x="1153" y="-374.7" font-family="Times Roman,serif" font-size="12.00">securesocket</text>
</g>
<!-- node125&#45;&gt;node156 -->
<g id="edge118" class="edge"><title>node125&#45;&gt;node156</title>
<path fill="none" stroke="black" d="M1394.91,-583.738C1366.76,-574.994 1328.39,-560.553 1299,-540 1244.36,-501.799 1195.82,-439.509 1170.83,-404.34"/>
<polygon fill="black" stroke="black" points="1173.6,-402.195 1165,-396.014 1167.87,-406.212 1173.6,-402.195"/>
</g>
<!-- node87 -->
<g id="node94" class="node"><title>node87</title>
<polygon fill="none" stroke="black" points="1327,-468 1273,-468 1273,-432 1327,-432 1327,-468"/>
<text text-anchor="middle" x="1300" y="-446.7" font-family="Times Roman,serif" font-size="12.00">deploy</text>
</g>
<!-- node125&#45;&gt;node87 -->
<g id="edge126" class="edge"><title>node125&#45;&gt;node87</title>
<path fill="none" stroke="black" d="M1394.74,-585.595C1369.19,-577.98 1336.91,-564.134 1318,-540 1304.32,-522.538 1300.19,-497.451 1299.28,-478.197"/>
<polygon fill="black" stroke="black" points="1302.78,-478.107 1299.06,-468.186 1295.78,-478.261 1302.78,-478.107"/>
</g>
<!-- node88 -->
<g id="node100" class="node"><title>node88</title>
<polygon fill="none" stroke="black" points="1405,-540 1327,-540 1327,-504 1405,-504 1405,-540"/>
<text text-anchor="middle" x="1366" y="-518.7" font-family="Times Roman,serif" font-size="12.00">deployutils</text>
</g>
<!-- node125&#45;&gt;node88 -->
<g id="edge136" class="edge"><title>node125&#45;&gt;node88</title>
<path fill="none" stroke="black" d="M1416.09,-575.831C1408.22,-567.369 1398.71,-557.149 1390.1,-547.897"/>
<polygon fill="black" stroke="black" points="1392.51,-545.35 1383.13,-540.413 1387.38,-550.118 1392.51,-545.35"/>
</g>
<!-- node152 -->
<g id="node4" class="node"><title>node152</title>
<polygon fill="none" stroke="black" points="1438,-36 1398.06,-18 1438,-3.55271e-15 1477.94,-18 1438,-36"/>
<text text-anchor="middle" x="1438" y="-14.7" font-family="Times Roman,serif" font-size="12.00">lzma</text>
</g>
<!-- node151&#45;&gt;node152 -->
<g id="edge4" class="edge"><title>node151&#45;&gt;node152</title>
<path fill="none" stroke="black" d="M1532.92,-74.0209C1512.47,-61.9494 1484.55,-45.4743 1464.29,-33.5172"/>
<polygon fill="black" stroke="black" points="1465.97,-30.4417 1455.58,-28.3733 1462.41,-36.4701 1465.97,-30.4417"/>
</g>
<!-- node187 -->
<g id="node6" class="node"><title>node187</title>
<ellipse fill="none" stroke="black" cx="1523" cy="-18" rx="27" ry="18"/>
<text text-anchor="middle" x="1523" y="-14.7" font-family="Times Roman,serif" font-size="12.00">dl</text>
</g>
<!-- node151&#45;&gt;node187 -->
<g id="edge6" class="edge"><title>node151&#45;&gt;node187</title>
<path fill="none" stroke="black" d="M1550.66,-71.8314C1546.41,-63.5451 1541.28,-53.5727 1536.61,-44.4748"/>
<polygon fill="black" stroke="black" points="1539.63,-42.7123 1531.95,-35.4177 1533.41,-45.9118 1539.63,-42.7123"/>
</g>
<!-- node179 -->
<g id="node8" class="node"><title>node179</title>
<ellipse fill="none" stroke="black" cx="1598" cy="-18" rx="30.0465" ry="18"/>
<text text-anchor="middle" x="1598" y="-14.7" font-family="Times Roman,serif" font-size="12.00">crypt</text>
</g>
<!-- node151&#45;&gt;node179 -->
<g id="edge8" class="edge"><title>node151&#45;&gt;node179</title>
<path fill="none" stroke="black" d="M1569.59,-71.8314C1573.96,-63.5451 1579.23,-53.5727 1584.03,-44.4748"/>
<polygon fill="black" stroke="black" points="1587.24,-45.8952 1588.81,-35.4177 1581.04,-42.6279 1587.24,-45.8952"/>
</g>
<!-- node188 -->
<g id="node10" class="node"><title>node188</title>
<ellipse fill="none" stroke="black" cx="1673" cy="-18" rx="27" ry="18"/>
<text text-anchor="middle" x="1673" y="-14.7" font-family="Times Roman,serif" font-size="12.00">rt</text>
</g>
<!-- node151&#45;&gt;node188 -->
<g id="edge10" class="edge"><title>node151&#45;&gt;node188</title>
<path fill="none" stroke="black" d="M1587.07,-72.7542C1604.41,-61.7009 1626.9,-47.375 1644.52,-36.1494"/>
<polygon fill="black" stroke="black" points="1646.68,-38.9209 1653.23,-30.5955 1642.92,-33.0174 1646.68,-38.9209"/>
</g>
<!-- node160&#45;&gt;node151 -->
<g id="edge20" class="edge"><title>node160&#45;&gt;node151</title>
<path fill="none" stroke="black" d="M572.44,-359.854C616.549,-318.728 721.094,-221.547 730,-216 804.538,-169.571 828.461,-163.865 914,-144 1031.19,-116.784 1403.2,-97.3634 1522.67,-91.6999"/>
<polygon fill="black" stroke="black" points="1522.96,-95.1903 1532.79,-91.2248 1522.63,-88.198 1522.96,-95.1903"/>
</g>
<!-- node180 -->
<g id="node14" class="node"><title>node180</title>
<ellipse fill="none" stroke="black" cx="313" cy="-306" rx="85.1424" ry="18"/>
<text text-anchor="middle" x="313" y="-302.7" font-family="Times Roman,serif" font-size="12.00">/usr/lib/libxalan&#45;c.so</text>
</g>
<!-- node160&#45;&gt;node180 -->
<g id="edge14" class="edge"><title>node160&#45;&gt;node180</title>
<path fill="none" stroke="black" d="M525.935,-369.881C488.891,-358.767 421.401,-338.52 372.307,-323.792"/>
<polygon fill="black" stroke="black" points="373.022,-320.353 362.438,-320.831 371.011,-327.057 373.022,-320.353"/>
</g>
<!-- node181 -->
<g id="node16" class="node"><title>node181</title>
<ellipse fill="none" stroke="black" cx="509" cy="-306" rx="93.0912" ry="18"/>
<text text-anchor="middle" x="509" y="-302.7" font-family="Times Roman,serif" font-size="12.00">/usr/lib/libxalanMsg.so</text>
</g>
<!-- node160&#45;&gt;node181 -->
<g id="edge16" class="edge"><title>node160&#45;&gt;node181</title>
<path fill="none" stroke="black" d="M541.897,-359.831C536.856,-351.583 530.794,-341.664 525.255,-332.599"/>
<polygon fill="black" stroke="black" points="528.148,-330.621 519.947,-323.913 522.175,-334.271 528.148,-330.621"/>
</g>
<!-- node182 -->
<g id="node18" class="node"><title>node182</title>
<ellipse fill="none" stroke="black" cx="119" cy="-306" rx="90.9919" ry="18"/>
<text text-anchor="middle" x="119" y="-302.7" font-family="Times Roman,serif" font-size="12.00">/usr/lib/libxerces&#45;c.so</text>
</g>
<!-- node160&#45;&gt;node182 -->
<g id="edge18" class="edge"><title>node160&#45;&gt;node182</title>
<path fill="none" stroke="black" d="M525.697,-373.754C468.672,-364.85 332.774,-343.435 219,-324 211.481,-322.716 203.649,-321.351 195.824,-319.971"/>
<polygon fill="black" stroke="black" points="196.398,-316.519 185.94,-318.219 195.176,-323.411 196.398,-316.519"/>
</g>
<!-- node110&#45;&gt;node151 -->
<g id="edge30" class="edge"><title>node110&#45;&gt;node151</title>
<path fill="none" stroke="black" d="M335.71,-444.684C246.959,-428.726 0,-377.867 0,-306 0,-306 0,-306 0,-234 0,-154.979 1285.94,-100.746 1522.76,-91.4279"/>
<polygon fill="black" stroke="black" points="1523.07,-94.9185 1532.92,-91.0302 1522.79,-87.9239 1523.07,-94.9185"/>
</g>
<!-- node110&#45;&gt;node160 -->
<g id="edge32" class="edge"><title>node110&#45;&gt;node160</title>
<path fill="none" stroke="black" d="M398.132,-437.949C430.606,-425.378 481.497,-405.678 516.002,-392.322"/>
<polygon fill="black" stroke="black" points="517.645,-395.439 525.707,-388.565 515.118,-388.911 517.645,-395.439"/>
</g>
<!-- node110&#45;&gt;node180 -->
<g id="edge24" class="edge"><title>node110&#45;&gt;node180</title>
<path fill="none" stroke="black" d="M360.161,-431.762C350.869,-406.985 334.177,-362.471 323.348,-333.594"/>
<polygon fill="black" stroke="black" points="326.572,-332.224 319.784,-324.09 320.018,-334.682 326.572,-332.224"/>
</g>
<!-- node110&#45;&gt;node181 -->
<g id="edge26" class="edge"><title>node110&#45;&gt;node181</title>
<path fill="none" stroke="black" d="M384.984,-431.762C410.058,-406.335 455.626,-360.125 483.995,-331.357"/>
<polygon fill="black" stroke="black" points="486.632,-333.668 491.162,-324.09 481.648,-328.752 486.632,-333.668"/>
</g>
<!-- node110&#45;&gt;node182 -->
<g id="edge28" class="edge"><title>node110&#45;&gt;node182</title>
<path fill="none" stroke="black" d="M335.842,-431.908C290.528,-405.597 206.509,-356.812 157.421,-328.309"/>
<polygon fill="black" stroke="black" points="159.084,-325.228 148.679,-323.233 155.569,-331.281 159.084,-325.228"/>
</g>
<!-- node66&#45;&gt;node151 -->
<g id="edge36" class="edge"><title>node66&#45;&gt;node151</title>
<path fill="none" stroke="black" d="M1568.33,-287.982C1570.3,-258.032 1573.32,-196.138 1569,-144 1568.31,-135.608 1567.01,-126.558 1565.62,-118.309"/>
<polygon fill="black" stroke="black" points="1569.05,-117.623 1563.84,-108.4 1562.16,-118.861 1569.05,-117.623"/>
</g>
<!-- node153 -->
<g id="node31" class="node"><title>node153</title>
<polygon fill="none" stroke="black" points="1560,-180 1506,-180 1506,-144 1560,-144 1560,-180"/>
<text text-anchor="middle" x="1533" y="-158.7" font-family="Times Roman,serif" font-size="12.00">mp</text>
</g>
<!-- node66&#45;&gt;node153 -->
<g id="edge38" class="edge"><title>node66&#45;&gt;node153</title>
<path fill="none" stroke="black" d="M1562.69,-287.762C1556.87,-263.093 1546.43,-218.86 1539.6,-189.973"/>
<polygon fill="black" stroke="black" points="1542.98,-189.018 1537.27,-180.09 1536.16,-190.626 1542.98,-189.018"/>
</g>
<!-- node149 -->
<g id="node34" class="node"><title>node149</title>
<polygon fill="none" stroke="black" points="1708,-252 1654,-252 1654,-216 1708,-216 1708,-252"/>
<text text-anchor="middle" x="1681" y="-230.7" font-family="Times Roman,serif" font-size="12.00">hrpc</text>
</g>
<!-- node66&#45;&gt;node149 -->
<g id="edge42" class="edge"><title>node66&#45;&gt;node149</title>
<path fill="none" stroke="black" d="M1595.77,-287.831C1610.79,-278.341 1629.32,-266.639 1645.26,-256.572"/>
<polygon fill="black" stroke="black" points="1647.23,-259.471 1653.81,-251.171 1643.49,-253.552 1647.23,-259.471"/>
</g>
<!-- node59 -->
<g id="node38" class="node"><title>node59</title>
<polygon fill="none" stroke="black" points="1522,-252 1464,-252 1464,-216 1522,-216 1522,-252"/>
<text text-anchor="middle" x="1493" y="-230.7" font-family="Times Roman,serif" font-size="12.00">remote</text>
</g>
<!-- node66&#45;&gt;node59 -->
<g id="edge48" class="edge"><title>node66&#45;&gt;node59</title>
<path fill="none" stroke="black" d="M1548.33,-287.831C1539.48,-279.219 1528.75,-268.785 1519.11,-259.405"/>
<polygon fill="black" stroke="black" points="1521.28,-256.628 1511.67,-252.163 1516.39,-261.645 1521.28,-256.628"/>
</g>
<!-- node153&#45;&gt;node151 -->
<g id="edge40" class="edge"><title>node153&#45;&gt;node151</title>
<path fill="none" stroke="black" d="M1539.81,-143.831C1542.76,-135.962 1546.29,-126.571 1549.56,-117.853"/>
<polygon fill="black" stroke="black" points="1552.86,-119.006 1553.1,-108.413 1546.31,-116.548 1552.86,-119.006"/>
</g>
<!-- node149&#45;&gt;node151 -->
<g id="edge44" class="edge"><title>node149&#45;&gt;node151</title>
<path fill="none" stroke="black" d="M1665.68,-215.762C1644.49,-190.552 1606.14,-144.91 1581.93,-116.095"/>
<polygon fill="black" stroke="black" points="1584.31,-113.494 1575.2,-108.09 1578.95,-117.997 1584.31,-113.494"/>
</g>
<!-- node149&#45;&gt;node153 -->
<g id="edge46" class="edge"><title>node149&#45;&gt;node153</title>
<path fill="none" stroke="black" d="M1653.85,-220.794C1630.15,-209.26 1595.54,-192.423 1569.42,-179.72"/>
<polygon fill="black" stroke="black" points="1570.75,-176.471 1560.22,-175.244 1567.68,-182.766 1570.75,-176.471"/>
</g>
<!-- node59&#45;&gt;node151 -->
<g id="edge50" class="edge"><title>node59&#45;&gt;node151</title>
<path fill="none" stroke="black" d="M1489.73,-215.722C1487.25,-196.769 1485.9,-166.779 1497,-144 1503.18,-131.306 1513.87,-120.417 1524.7,-111.811"/>
<polygon fill="black" stroke="black" points="1527,-114.459 1532.94,-105.683 1522.83,-108.842 1527,-114.459"/>
</g>
<!-- node59&#45;&gt;node153 -->
<g id="edge52" class="edge"><title>node59&#45;&gt;node153</title>
<path fill="none" stroke="black" d="M1503.09,-215.831C1507.56,-207.792 1512.91,-198.167 1517.84,-189.292"/>
<polygon fill="black" stroke="black" points="1520.97,-190.855 1522.77,-180.413 1514.85,-187.455 1520.97,-190.855"/>
</g>
<!-- node55&#45;&gt;node151 -->
<g id="edge56" class="edge"><title>node55&#45;&gt;node151</title>
<path fill="none" stroke="black" d="M1428.41,-359.735C1423.2,-328.901 1416.09,-265.085 1435,-216 1448.92,-179.881 1456.91,-171.645 1484,-144 1495.9,-131.862 1510.82,-120.596 1524.28,-111.53"/>
<polygon fill="black" stroke="black" points="1526.43,-114.309 1532.88,-105.902 1522.59,-108.454 1526.43,-114.309"/>
</g>
<!-- node55&#45;&gt;node66 -->
<g id="edge62" class="edge"><title>node55&#45;&gt;node66</title>
<path fill="none" stroke="black" d="M1466.07,-359.831C1484.54,-349.977 1507.49,-337.739 1526.83,-327.422"/>
<polygon fill="black" stroke="black" points="1528.54,-330.476 1535.72,-322.682 1525.25,-324.3 1528.54,-330.476"/>
</g>
<!-- node55&#45;&gt;node153 -->
<g id="edge58" class="edge"><title>node55&#45;&gt;node153</title>
<path fill="none" stroke="black" d="M1430.11,-359.906C1427.7,-328.212 1426.79,-261.683 1455,-216 1464.91,-199.951 1481.56,-187.454 1496.94,-178.543"/>
<polygon fill="black" stroke="black" points="1498.69,-181.576 1505.79,-173.711 1495.34,-175.432 1498.69,-181.576"/>
</g>
<!-- node55&#45;&gt;node59 -->
<g id="edge60" class="edge"><title>node55&#45;&gt;node59</title>
<path fill="none" stroke="black" d="M1439.73,-359.762C1450.22,-334.985 1469.08,-290.471 1481.31,-261.594"/>
<polygon fill="black" stroke="black" points="1484.66,-262.663 1485.34,-252.09 1478.21,-259.932 1484.66,-262.663"/>
</g>
<!-- node54&#45;&gt;node151 -->
<g id="edge68" class="edge"><title>node54&#45;&gt;node151</title>
<path fill="none" stroke="black" d="M1691.06,-448.507C1821.16,-442.478 2291.7,-419.133 2313,-396 2323.84,-384.231 2322.21,-373.084 2313,-360 2307.46,-352.133 1747,-155.472 1596.72,-102.849"/>
<polygon fill="black" stroke="black" points="1597.62,-99.455 1587.02,-99.4538 1595.3,-106.062 1597.62,-99.455"/>
</g>
<!-- node54&#45;&gt;node66 -->
<g id="edge92" class="edge"><title>node54&#45;&gt;node66</title>
<path fill="none" stroke="black" d="M1637.41,-431.964C1627.03,-422.098 1614.8,-409.214 1606,-396 1593.09,-376.629 1582.85,-352.286 1576.11,-333.803"/>
<polygon fill="black" stroke="black" points="1579.35,-332.474 1572.73,-324.206 1572.75,-334.801 1579.35,-332.474"/>
</g>
<!-- node54&#45;&gt;node153 -->
<g id="edge70" class="edge"><title>node54&#45;&gt;node153</title>
<path fill="none" stroke="black" d="M1653.64,-431.529C1646.1,-400.929 1629.26,-338.121 1607,-288 1591.04,-252.072 1567.29,-213.469 1551.02,-188.596"/>
<polygon fill="black" stroke="black" points="1553.83,-186.498 1545.4,-180.084 1547.99,-190.357 1553.83,-186.498"/>
</g>
<!-- node54&#45;&gt;node149 -->
<g id="edge72" class="edge"><title>node54&#45;&gt;node149</title>
<path fill="none" stroke="black" d="M1659.92,-431.955C1663.93,-394.314 1673.21,-307.187 1678.01,-262.125"/>
<polygon fill="black" stroke="black" points="1681.49,-262.459 1679.07,-252.145 1674.53,-261.718 1681.49,-262.459"/>
</g>
<!-- node54&#45;&gt;node59 -->
<g id="edge90" class="edge"><title>node54&#45;&gt;node59</title>
<path fill="none" stroke="black" d="M1628.27,-431.898C1613.54,-422.203 1595.97,-409.495 1582,-396 1553.04,-368.023 1546.54,-359.207 1527,-324 1516.04,-304.254 1507.17,-280.259 1501.24,-262.012"/>
<polygon fill="black" stroke="black" points="1504.52,-260.759 1498.18,-252.27 1497.84,-262.859 1504.52,-260.759"/>
</g>
<!-- node54&#45;&gt;node55 -->
<g id="edge94" class="edge"><title>node54&#45;&gt;node55</title>
<path fill="none" stroke="black" d="M1624.65,-439.376C1588.43,-427.836 1529.99,-409.217 1486.96,-395.508"/>
<polygon fill="black" stroke="black" points="1487.79,-392.101 1477.2,-392.4 1485.67,-398.77 1487.79,-392.101"/>
</g>
<!-- node176 -->
<g id="node50" class="node"><title>node176</title>
<ellipse fill="none" stroke="black" cx="1817" cy="-378" rx="130.789" ry="18"/>
<text text-anchor="middle" x="1817" y="-374.7" font-family="Times Roman,serif" font-size="12.00">/usr/lib/x86_64&#45;linux&#45;gnu/libz.so</text>
</g>
<!-- node54&#45;&gt;node176 -->
<g id="edge66" class="edge"><title>node54&#45;&gt;node176</title>
<path fill="none" stroke="black" d="M1691.33,-434.906C1713.94,-424.668 1744.17,-410.978 1769.32,-399.591"/>
<polygon fill="black" stroke="black" points="1771.02,-402.665 1778.68,-395.352 1768.13,-396.289 1771.02,-402.665"/>
</g>
<!-- node54&#45;&gt;node146 -->
<g id="edge74" class="edge"><title>node54&#45;&gt;node146</title>
<path fill="none" stroke="black" d="M1691.04,-448.835C1834.34,-443.632 2396.13,-421.658 2423,-396 2458.88,-361.739 2454.55,-298.494 2448.24,-261.985"/>
<polygon fill="black" stroke="black" points="2451.65,-261.183 2446.35,-252.009 2444.77,-262.486 2451.65,-261.183"/>
</g>
<!-- node177 -->
<g id="node72" class="node"><title>node177</title>
<ellipse fill="none" stroke="black" cx="2037" cy="-378" rx="70.8437" ry="18"/>
<text text-anchor="middle" x="2037" y="-374.7" font-family="Times Roman,serif" font-size="12.00">/usr/lib/libbfd.so</text>
</g>
<!-- node54&#45;&gt;node177 -->
<g id="edge96" class="edge"><title>node54&#45;&gt;node177</title>
<path fill="none" stroke="black" d="M1691.27,-444.468C1746.57,-435.166 1860.84,-415.492 1957,-396 1962.63,-394.859 1968.48,-393.63 1974.32,-392.369"/>
<polygon fill="black" stroke="black" points="1975.11,-395.779 1984.14,-390.228 1973.62,-388.94 1975.11,-395.779"/>
</g>
<!-- node178 -->
<g id="node74" class="node"><title>node178</title>
<ellipse fill="none" stroke="black" cx="2215" cy="-378" rx="89.0421" ry="18"/>
<text text-anchor="middle" x="2215" y="-374.7" font-family="Times Roman,serif" font-size="12.00">/usr/lib/libiberty_pic.a</text>
</g>
<!-- node54&#45;&gt;node178 -->
<g id="edge98" class="edge"><title>node54&#45;&gt;node178</title>
<path fill="none" stroke="black" d="M1691.22,-446.835C1766.95,-439.456 1958.11,-419.912 2117,-396 2124.64,-394.851 2132.59,-393.555 2140.52,-392.198"/>
<polygon fill="black" stroke="black" points="2141.27,-395.62 2150.52,-390.454 2140.07,-388.724 2141.27,-395.62"/>
</g>
<!-- node146&#45;&gt;node151 -->
<g id="edge84" class="edge"><title>node146&#45;&gt;node151</title>
<path fill="none" stroke="black" d="M2414.61,-220.477C2395.27,-210.408 2369.14,-195.733 2348,-180 2329.34,-166.108 2331.29,-153.383 2310,-144 2244.45,-115.108 1739.9,-96.0609 1597.38,-91.2178"/>
<polygon fill="black" stroke="black" points="1597.49,-87.7194 1587.37,-90.8809 1597.25,-94.7155 1597.49,-87.7194"/>
</g>
<!-- node186 -->
<g id="node57" class="node"><title>node186</title>
<ellipse fill="none" stroke="black" cx="2664" cy="-162" rx="118.939" ry="18"/>
<text text-anchor="middle" x="2664" y="-158.7" font-family="Times Roman,serif" font-size="12.00">/usr/lib/libboost_regex&#45;mt.so</text>
</g>
<!-- node146&#45;&gt;node186 -->
<g id="edge76" class="edge"><title>node146&#45;&gt;node186</title>
<path fill="none" stroke="black" d="M2469.22,-225.171C2502.48,-214.384 2559.74,-195.815 2603.59,-181.592"/>
<polygon fill="black" stroke="black" points="2604.86,-184.859 2613.29,-178.445 2602.7,-178.201 2604.86,-184.859"/>
</g>
<!-- node183 -->
<g id="node59" class="node"><title>node183</title>
<ellipse fill="none" stroke="black" cx="2879" cy="-162" rx="77.9931" ry="18"/>
<text text-anchor="middle" x="2879" y="-158.7" font-family="Times Roman,serif" font-size="12.00">/usr/lib/libicuuc.so</text>
</g>
<!-- node146&#45;&gt;node183 -->
<g id="edge78" class="edge"><title>node146&#45;&gt;node183</title>
<path fill="none" stroke="black" d="M2469.31,-230.27C2528.34,-222.1 2672.2,-201.62 2792,-180 2798.28,-178.867 2804.79,-177.631 2811.31,-176.354"/>
<polygon fill="black" stroke="black" points="2812.39,-179.708 2821.52,-174.324 2811.03,-172.842 2812.39,-179.708"/>
</g>
<!-- node184 -->
<g id="node61" class="node"><title>node184</title>
<ellipse fill="none" stroke="black" cx="3060" cy="-162" rx="85.1424" ry="18"/>
<text text-anchor="middle" x="3060" y="-158.7" font-family="Times Roman,serif" font-size="12.00">/usr/lib/libicui18n.so</text>
</g>
<!-- node146&#45;&gt;node184 -->
<g id="edge80" class="edge"><title>node146&#45;&gt;node184</title>
<path fill="none" stroke="black" d="M2469.1,-232.04C2546.76,-226.243 2776.67,-207.83 2966,-180 2973.37,-178.916 2981.05,-177.66 2988.69,-176.324"/>
<polygon fill="black" stroke="black" points="2989.47,-179.741 2998.69,-174.531 2988.23,-172.851 2989.47,-179.741"/>
</g>
<!-- node185 -->
<g id="node63" class="node"><title>node185</title>
<ellipse fill="none" stroke="black" cx="2442" cy="-162" rx="85.1424" ry="18"/>
<text text-anchor="middle" x="2442" y="-158.7" font-family="Times Roman,serif" font-size="12.00">/usr/lib/libicudata.so</text>
</g>
<!-- node146&#45;&gt;node185 -->
<g id="edge82" class="edge"><title>node146&#45;&gt;node185</title>
<path fill="none" stroke="black" d="M2442,-215.831C2442,-208.131 2442,-198.974 2442,-190.417"/>
<polygon fill="black" stroke="black" points="2445.5,-190.413 2442,-180.413 2438.5,-190.413 2445.5,-190.413"/>
</g>
<!-- node147 -->
<g id="node66" class="node"><title>node147</title>
<polygon fill="none" stroke="black" points="2301,-180 2247,-180 2247,-144 2301,-144 2301,-180"/>
<text text-anchor="middle" x="2274" y="-158.7" font-family="Times Roman,serif" font-size="12.00">nbcd</text>
</g>
<!-- node146&#45;&gt;node147 -->
<g id="edge86" class="edge"><title>node146&#45;&gt;node147</title>
<path fill="none" stroke="black" d="M2414.71,-222.504C2388.96,-211.634 2349.31,-194.825 2315,-180 2313.62,-179.403 2312.21,-178.792 2310.79,-178.175"/>
<polygon fill="black" stroke="black" points="2311.89,-174.839 2301.33,-174.05 2309.1,-181.256 2311.89,-174.839"/>
</g>
<!-- node147&#45;&gt;node151 -->
<g id="edge88" class="edge"><title>node147&#45;&gt;node151</title>
<path fill="none" stroke="black" d="M2246.65,-148.507C2242.18,-146.734 2237.52,-145.14 2233,-144 2110.96,-113.244 1720.11,-96.0896 1597.3,-91.3591"/>
<polygon fill="black" stroke="black" points="1597.38,-87.8599 1587.26,-90.9772 1597.12,-94.8548 1597.38,-87.8599"/>
</g>
<!-- node99&#45;&gt;node151 -->
<g id="edge104" class="edge"><title>node99&#45;&gt;node151</title>
<path fill="none" stroke="black" d="M2359.72,-365.839C2355.15,-363.856 2350.45,-361.847 2346,-360 2305.45,-343.171 2286.87,-353.109 2254,-324 2185.96,-263.753 2232.85,-194.058 2157,-144 2110.32,-113.19 1721.02,-96.0448 1597.47,-91.3417"/>
<polygon fill="black" stroke="black" points="1597.48,-87.8398 1587.36,-90.9621 1597.22,-94.8349 1597.48,-87.8398"/>
</g>
<!-- node99&#45;&gt;node146 -->
<g id="edge108" class="edge"><title>node99&#45;&gt;node146</title>
<path fill="none" stroke="black" d="M2393.97,-359.762C2403.43,-334.985 2420.43,-290.471 2431.46,-261.594"/>
<polygon fill="black" stroke="black" points="2434.79,-262.68 2435.09,-252.09 2428.25,-260.183 2434.79,-262.68"/>
</g>
<!-- node99&#45;&gt;node147 -->
<g id="edge106" class="edge"><title>node99&#45;&gt;node147</title>
<path fill="none" stroke="black" d="M2377.56,-359.955C2357.74,-322.076 2311.71,-234.082 2288.27,-189.274"/>
<polygon fill="black" stroke="black" points="2291.23,-187.383 2283.49,-180.145 2285.03,-190.628 2291.23,-187.383"/>
</g>
<!-- node53 -->
<g id="node82" class="node"><title>node53</title>
<polygon fill="none" stroke="black" points="2323,-324 2263,-324 2263,-288 2323,-288 2323,-324"/>
<text text-anchor="middle" x="2293" y="-302.7" font-family="Times Roman,serif" font-size="12.00">deftype</text>
</g>
<!-- node99&#45;&gt;node53 -->
<g id="edge110" class="edge"><title>node99&#45;&gt;node53</title>
<path fill="none" stroke="black" d="M2363.28,-359.831C2351.59,-350.878 2337.33,-339.956 2324.72,-330.295"/>
<polygon fill="black" stroke="black" points="2326.78,-327.465 2316.71,-324.163 2322.52,-333.022 2326.78,-327.465"/>
</g>
<!-- node53&#45;&gt;node151 -->
<g id="edge112" class="edge"><title>node53&#45;&gt;node151</title>
<path fill="none" stroke="black" d="M2287.99,-287.748C2277.37,-252.941 2249.03,-177.559 2195,-144 2144.15,-112.416 1725.47,-95.6411 1597.2,-91.2086"/>
<polygon fill="black" stroke="black" points="1597.2,-87.7066 1587.09,-90.8639 1596.96,-94.7025 1597.2,-87.7066"/>
</g>
<!-- node53&#45;&gt;node146 -->
<g id="edge116" class="edge"><title>node53&#45;&gt;node146</title>
<path fill="none" stroke="black" d="M2323.15,-291.43C2346.98,-279.916 2380.32,-263.804 2405.63,-251.575"/>
<polygon fill="black" stroke="black" points="2407.42,-254.598 2414.9,-247.096 2404.37,-248.296 2407.42,-254.598"/>
</g>
<!-- node53&#45;&gt;node147 -->
<g id="edge114" class="edge"><title>node53&#45;&gt;node147</title>
<path fill="none" stroke="black" d="M2290.59,-287.762C2287.35,-263.201 2281.55,-219.247 2277.74,-190.354"/>
<polygon fill="black" stroke="black" points="2281.16,-189.546 2276.39,-180.09 2274.23,-190.462 2281.16,-189.546"/>
</g>
<!-- node156&#45;&gt;node151 -->
<g id="edge120" class="edge"><title>node156&#45;&gt;node151</title>
<path fill="none" stroke="black" d="M1105.72,-376.022C992.77,-370.813 714.561,-354.939 687,-324 676.357,-312.053 677.055,-300.534 687,-288 793.954,-153.21 1369.06,-103.459 1522.4,-92.4822"/>
<polygon fill="black" stroke="black" points="1522.97,-95.9509 1532.7,-91.7582 1522.48,-88.9681 1522.97,-95.9509"/>
</g>
<!-- node191 -->
<g id="node90" class="node"><title>node191</title>
<ellipse fill="none" stroke="black" cx="1153" cy="-306" rx="137.138" ry="18"/>
<text text-anchor="middle" x="1153" y="-302.7" font-family="Times Roman,serif" font-size="12.00">/usr/lib/x86_64&#45;linux&#45;gnu/libssl.so</text>
</g>
<!-- node156&#45;&gt;node191 -->
<g id="edge122" class="edge"><title>node156&#45;&gt;node191</title>
<path fill="none" stroke="black" d="M1153,-359.831C1153,-352.131 1153,-342.974 1153,-334.417"/>
<polygon fill="black" stroke="black" points="1156.5,-334.413 1153,-324.413 1149.5,-334.413 1156.5,-334.413"/>
</g>
<!-- node192 -->
<g id="node92" class="node"><title>node192</title>
<ellipse fill="none" stroke="black" cx="847" cy="-306" rx="150.937" ry="18"/>
<text text-anchor="middle" x="847" y="-302.7" font-family="Times Roman,serif" font-size="12.00">/usr/lib/x86_64&#45;linux&#45;gnu/libcrypto.so</text>
</g>
<!-- node156&#45;&gt;node192 -->
<g id="edge124" class="edge"><title>node156&#45;&gt;node192</title>
<path fill="none" stroke="black" d="M1105.86,-366.908C1057.86,-355.614 982.596,-337.905 925.571,-324.487"/>
<polygon fill="black" stroke="black" points="926.042,-321.003 915.506,-322.119 924.439,-327.817 926.042,-321.003"/>
</g>
<!-- node87&#45;&gt;node151 -->
<g id="edge128" class="edge"><title>node87&#45;&gt;node151</title>
<path fill="none" stroke="black" d="M1303.73,-431.905C1309,-404.705 1318,-351.602 1318,-306 1318,-306 1318,-306 1318,-234 1318,-192.602 1312.47,-173.011 1342,-144 1367.41,-119.036 1467.61,-102.198 1522.89,-94.604"/>
<polygon fill="black" stroke="black" points="1523.54,-98.0483 1532.98,-93.2512 1522.61,-91.1103 1523.54,-98.0483"/>
</g>
<!-- node87&#45;&gt;node160 -->
<g id="edge132" class="edge"><title>node87&#45;&gt;node160</title>
<path fill="none" stroke="black" d="M1272.93,-439.72C1264.14,-436.767 1254.26,-433.849 1245,-432 1117.83,-406.608 715.367,-385.743 590.392,-379.741"/>
<polygon fill="black" stroke="black" points="590.341,-376.234 580.186,-379.254 590.008,-383.226 590.341,-376.234"/>
</g>
<!-- node87&#45;&gt;node55 -->
<g id="edge130" class="edge"><title>node87&#45;&gt;node55</title>
<path fill="none" stroke="black" d="M1327.03,-435.256C1345.16,-425.365 1369.41,-412.138 1390.04,-400.889"/>
<polygon fill="black" stroke="black" points="1391.82,-403.904 1398.92,-396.042 1388.47,-397.758 1391.82,-403.904"/>
</g>
<!-- node87&#45;&gt;node156 -->
<g id="edge134" class="edge"><title>node87&#45;&gt;node156</title>
<path fill="none" stroke="black" d="M1272.69,-436.626C1252.01,-426.493 1223.11,-412.338 1198.89,-400.475"/>
<polygon fill="black" stroke="black" points="1200.38,-397.31 1189.86,-396.054 1197.3,-403.596 1200.38,-397.31"/>
</g>
<!-- node88&#45;&gt;node151 -->
<g id="edge138" class="edge"><title>node88&#45;&gt;node151</title>
<path fill="none" stroke="black" d="M1363.93,-503.843C1361,-476.562 1356,-423.359 1356,-378 1356,-378 1356,-378 1356,-234 1356,-153.231 1464.05,-113.754 1522.88,-98.2469"/>
<polygon fill="black" stroke="black" points="1524.07,-101.555 1532.91,-95.7092 1522.36,-94.7691 1524.07,-101.555"/>
</g>
<!-- node88&#45;&gt;node160 -->
<g id="edge142" class="edge"><title>node88&#45;&gt;node160</title>
<path fill="none" stroke="black" d="M1326.91,-511.256C1258.35,-492.75 1111.77,-454.668 986,-432 840.682,-405.81 665.638,-388.197 590.374,-381.283"/>
<polygon fill="black" stroke="black" points="590.285,-377.761 580.009,-380.341 589.651,-384.732 590.285,-377.761"/>
</g>
<!-- node88&#45;&gt;node55 -->
<g id="edge140" class="edge"><title>node88&#45;&gt;node55</title>
<path fill="none" stroke="black" d="M1374.36,-503.762C1385.76,-478.876 1406.3,-434.082 1419.53,-405.216"/>
<polygon fill="black" stroke="black" points="1422.72,-406.639 1423.71,-396.09 1416.36,-403.722 1422.72,-406.639"/>
</g>
<!-- node88&#45;&gt;node87 -->
<g id="edge144" class="edge"><title>node88&#45;&gt;node87</title>
<path fill="none" stroke="black" d="M1349.35,-503.831C1341.59,-495.369 1332.22,-485.149 1323.74,-475.897"/>
<polygon fill="black" stroke="black" points="1326.22,-473.42 1316.88,-468.413 1321.06,-478.15 1326.22,-473.42"/>
</g>
</g>
</svg>
