<?xml version="1.0" encoding="UTF-8" standalone="no"?>
<!DOCTYPE svg PUBLIC "-//W3C//DTD SVG 1.1//EN"
 "http://www.w3.org/Graphics/SVG/1.1/DTD/svg11.dtd">
<!-- Generated by graphviz version 2.26.3 (20100126.1600)
 -->
<!-- Title: GG Pages: 1 -->
<svg width="4242pt" height="764pt"
 viewBox="0.00 0.00 4242.00 764.00" xmlns="http://www.w3.org/2000/svg" xmlns:xlink="http://www.w3.org/1999/xlink">
<g id="graph1" class="graph" transform="scale(1 1) rotate(0) translate(4 760)">
<title>GG</title>
<polygon fill="white" stroke="white" points="-4,5 -4,-760 4239,-760 4239,5 -4,5"/>
<!-- node75 -->
<g id="node1" class="node"><title>node75</title>
<polygon fill="none" stroke="black" points="714.202,-743.562 666,-756 617.798,-743.562 617.843,-723.438 714.157,-723.438 714.202,-743.562"/>
<text text-anchor="middle" x="666" y="-734.7" font-family="Times Roman,serif" font-size="12.00">dfuplus</text>
</g>
<!-- node151 -->
<g id="node2" class="node"><title>node151</title>
<polygon fill="none" stroke="black" points="2053,-108 1999,-108 1999,-72 2053,-72 2053,-108"/>
<text text-anchor="middle" x="2026" y="-86.7" font-family="Times Roman,serif" font-size="12.00">jlib</text>
</g>
<!-- node75&#45;&gt;node151 -->
<g id="edge2" class="edge"><title>node75&#45;&gt;node151</title>
<path fill="none" stroke="black" d="M617.835,-732.724C464.852,-715.325 0,-657.252 0,-594 0,-594 0,-594 0,-234 0,-189.476 6.55477,-168.089 44,-144 86.517,-116.648 1720.94,-94.0111 1988.99,-90.479"/>
<polygon fill="black" stroke="black" points="1989.04,-93.9787 1998.99,-90.3477 1988.95,-86.9793 1989.04,-93.9787"/>
</g>
<!-- node59 -->
<g id="node12" class="node"><title>node59</title>
<polygon fill="none" stroke="black" points="1273,-252 1215,-252 1215,-216 1273,-216 1273,-252"/>
<text text-anchor="middle" x="1244" y="-230.7" font-family="Times Roman,serif" font-size="12.00">remote</text>
</g>
<!-- node75&#45;&gt;node59 -->
<g id="edge12" class="edge"><title>node75&#45;&gt;node59</title>
<path fill="none" stroke="black" d="M672.967,-723.242C684.428,-697.574 706,-642.78 706,-594 706,-594 706,-594 706,-522 706,-295.782 1080.29,-246.573 1204.49,-236.471"/>
<polygon fill="black" stroke="black" points="1204.99,-239.943 1214.69,-235.684 1204.45,-232.964 1204.99,-239.943"/>
</g>
<!-- node160 -->
<g id="node18" class="node"><title>node160</title>
<polygon fill="none" stroke="black" points="565,-468 511,-468 511,-432 565,-432 565,-468"/>
<text text-anchor="middle" x="538" y="-446.7" font-family="Times Roman,serif" font-size="12.00">xmllib</text>
</g>
<!-- node75&#45;&gt;node160 -->
<g id="edge20" class="edge"><title>node75&#45;&gt;node160</title>
<path fill="none" stroke="black" d="M659.476,-723.322C639.16,-677.609 576.794,-537.286 550.209,-477.471"/>
<polygon fill="black" stroke="black" points="553.375,-475.976 546.115,-468.26 546.979,-478.819 553.375,-475.976"/>
</g>
<!-- node110 -->
<g id="node27" class="node"><title>node110</title>
<polygon fill="none" stroke="black" points="656,-540 594,-540 594,-504 656,-504 656,-540"/>
<text text-anchor="middle" x="625" y="-518.7" font-family="Times Roman,serif" font-size="12.00">esphttp</text>
</g>
<!-- node75&#45;&gt;node110 -->
<g id="edge30" class="edge"><title>node75&#45;&gt;node110</title>
<path fill="none" stroke="black" d="M663.182,-723.153C656.418,-687.518 639.172,-596.665 630.36,-550.239"/>
<polygon fill="black" stroke="black" points="633.767,-549.418 628.463,-540.246 626.89,-550.723 633.767,-549.418"/>
</g>
<!-- node119 -->
<g id="node34" class="node"><title>node119</title>
<polygon fill="none" stroke="black" points="809,-684 755,-684 755,-648 809,-648 809,-684"/>
<text text-anchor="middle" x="782" y="-662.7" font-family="Times Roman,serif" font-size="12.00">ws_fs</text>
</g>
<!-- node75&#45;&gt;node119 -->
<g id="edge42" class="edge"><title>node75&#45;&gt;node119</title>
<path fill="none" stroke="black" d="M689.474,-723.43C705.746,-713.33 727.717,-699.693 746.166,-688.242"/>
<polygon fill="black" stroke="black" points="748.249,-691.069 754.899,-682.821 744.557,-685.121 748.249,-691.069"/>
</g>
<!-- node116 -->
<g id="node120" class="node"><title>node116</title>
<polygon fill="none" stroke="black" points="2042,-684 1984,-684 1984,-648 2042,-648 2042,-684"/>
<text text-anchor="middle" x="2013" y="-662.7" font-family="Times Roman,serif" font-size="12.00">ws_dfu</text>
</g>
<!-- node75&#45;&gt;node116 -->
<g id="edge176" class="edge"><title>node75&#45;&gt;node116</title>
<path fill="none" stroke="black" d="M714.338,-735.416C927.397,-724.028 1780.64,-678.42 1973.93,-668.088"/>
<polygon fill="black" stroke="black" points="1974.12,-671.583 1983.92,-667.554 1973.75,-664.593 1974.12,-671.583"/>
</g>
<!-- node152 -->
<g id="node4" class="node"><title>node152</title>
<polygon fill="none" stroke="black" points="1904,-36 1864.06,-18 1904,-3.55271e-15 1943.94,-18 1904,-36"/>
<text text-anchor="middle" x="1904" y="-14.7" font-family="Times Roman,serif" font-size="12.00">lzma</text>
</g>
<!-- node151&#45;&gt;node152 -->
<g id="edge4" class="edge"><title>node151&#45;&gt;node152</title>
<path fill="none" stroke="black" d="M1998.92,-74.0209C1978.47,-61.9494 1950.55,-45.4743 1930.29,-33.5172"/>
<polygon fill="black" stroke="black" points="1931.97,-30.4417 1921.58,-28.3733 1928.41,-36.4701 1931.97,-30.4417"/>
</g>
<!-- node187 -->
<g id="node6" class="node"><title>node187</title>
<ellipse fill="none" stroke="black" cx="1989" cy="-18" rx="27" ry="18"/>
<text text-anchor="middle" x="1989" y="-14.7" font-family="Times Roman,serif" font-size="12.00">dl</text>
</g>
<!-- node151&#45;&gt;node187 -->
<g id="edge6" class="edge"><title>node151&#45;&gt;node187</title>
<path fill="none" stroke="black" d="M2016.66,-71.8314C2012.41,-63.5451 2007.28,-53.5727 2002.61,-44.4748"/>
<polygon fill="black" stroke="black" points="2005.63,-42.7123 1997.95,-35.4177 1999.41,-45.9118 2005.63,-42.7123"/>
</g>
<!-- node179 -->
<g id="node8" class="node"><title>node179</title>
<ellipse fill="none" stroke="black" cx="2064" cy="-18" rx="30.0465" ry="18"/>
<text text-anchor="middle" x="2064" y="-14.7" font-family="Times Roman,serif" font-size="12.00">crypt</text>
</g>
<!-- node151&#45;&gt;node179 -->
<g id="edge8" class="edge"><title>node151&#45;&gt;node179</title>
<path fill="none" stroke="black" d="M2035.59,-71.8314C2039.96,-63.5451 2045.23,-53.5727 2050.03,-44.4748"/>
<polygon fill="black" stroke="black" points="2053.24,-45.8952 2054.81,-35.4177 2047.04,-42.6279 2053.24,-45.8952"/>
</g>
<!-- node188 -->
<g id="node10" class="node"><title>node188</title>
<ellipse fill="none" stroke="black" cx="2139" cy="-18" rx="27" ry="18"/>
<text text-anchor="middle" x="2139" y="-14.7" font-family="Times Roman,serif" font-size="12.00">rt</text>
</g>
<!-- node151&#45;&gt;node188 -->
<g id="edge10" class="edge"><title>node151&#45;&gt;node188</title>
<path fill="none" stroke="black" d="M2053.07,-72.7542C2070.41,-61.7009 2092.9,-47.375 2110.52,-36.1494"/>
<polygon fill="black" stroke="black" points="2112.68,-38.9209 2119.23,-30.5955 2108.92,-33.0174 2112.68,-38.9209"/>
</g>
<!-- node59&#45;&gt;node151 -->
<g id="edge14" class="edge"><title>node59&#45;&gt;node151</title>
<path fill="none" stroke="black" d="M1263.11,-215.681C1286.77,-194.261 1329.33,-159.737 1373,-144 1487.66,-102.685 1867.89,-92.7003 1988.76,-90.5432"/>
<polygon fill="black" stroke="black" points="1989.05,-94.039 1998.99,-90.3687 1988.93,-87.04 1989.05,-94.039"/>
</g>
<!-- node153 -->
<g id="node15" class="node"><title>node153</title>
<polygon fill="none" stroke="black" points="1753,-180 1699,-180 1699,-144 1753,-144 1753,-180"/>
<text text-anchor="middle" x="1726" y="-158.7" font-family="Times Roman,serif" font-size="12.00">mp</text>
</g>
<!-- node59&#45;&gt;node153 -->
<g id="edge16" class="edge"><title>node59&#45;&gt;node153</title>
<path fill="none" stroke="black" d="M1273.07,-229.658C1356.36,-217.216 1595.86,-181.441 1688.65,-167.58"/>
<polygon fill="black" stroke="black" points="1689.33,-171.016 1698.7,-166.077 1688.3,-164.093 1689.33,-171.016"/>
</g>
<!-- node153&#45;&gt;node151 -->
<g id="edge18" class="edge"><title>node153&#45;&gt;node151</title>
<path fill="none" stroke="black" d="M1753.07,-153.764C1763.89,-150.569 1776.5,-146.972 1788,-144 1858.56,-125.771 1941.73,-107.662 1988.73,-97.7396"/>
<polygon fill="black" stroke="black" points="1989.68,-101.116 1998.75,-95.6324 1988.24,-94.2654 1989.68,-101.116"/>
</g>
<!-- node160&#45;&gt;node151 -->
<g id="edge28" class="edge"><title>node160&#45;&gt;node151</title>
<path fill="none" stroke="black" d="M531.214,-431.65C521.82,-404.562 506,-352.098 506,-306 506,-306 506,-306 506,-234 506,-126.709 625.108,-166.559 730,-144 855.724,-116.96 1788.9,-95.182 1988.5,-90.8036"/>
<polygon fill="black" stroke="black" points="1988.84,-94.2971 1998.76,-90.5797 1988.69,-87.2987 1988.84,-94.2971"/>
</g>
<!-- node180 -->
<g id="node20" class="node"><title>node180</title>
<ellipse fill="none" stroke="black" cx="189" cy="-378" rx="85.1424" ry="18"/>
<text text-anchor="middle" x="189" y="-374.7" font-family="Times Roman,serif" font-size="12.00">/usr/lib/libxalan&#45;c.so</text>
</g>
<!-- node160&#45;&gt;node180 -->
<g id="edge22" class="edge"><title>node160&#45;&gt;node180</title>
<path fill="none" stroke="black" d="M510.905,-444.41C457.643,-433.422 337.758,-408.689 260.271,-392.703"/>
<polygon fill="black" stroke="black" points="260.601,-389.198 250.1,-390.605 259.187,-396.054 260.601,-389.198"/>
</g>
<!-- node181 -->
<g id="node22" class="node"><title>node181</title>
<ellipse fill="none" stroke="black" cx="385" cy="-378" rx="93.0912" ry="18"/>
<text text-anchor="middle" x="385" y="-374.7" font-family="Times Roman,serif" font-size="12.00">/usr/lib/libxalanMsg.so</text>
</g>
<!-- node160&#45;&gt;node181 -->
<g id="edge24" class="edge"><title>node160&#45;&gt;node181</title>
<path fill="none" stroke="black" d="M510.999,-437.294C488.612,-426.759 456.315,-411.56 430.025,-399.188"/>
<polygon fill="black" stroke="black" points="431.179,-395.863 420.64,-394.772 428.198,-402.197 431.179,-395.863"/>
</g>
<!-- node182 -->
<g id="node24" class="node"><title>node182</title>
<ellipse fill="none" stroke="black" cx="625" cy="-378" rx="90.9919" ry="18"/>
<text text-anchor="middle" x="625" y="-374.7" font-family="Times Roman,serif" font-size="12.00">/usr/lib/libxerces&#45;c.so</text>
</g>
<!-- node160&#45;&gt;node182 -->
<g id="edge26" class="edge"><title>node160&#45;&gt;node182</title>
<path fill="none" stroke="black" d="M559.954,-431.831C570.833,-422.828 584.118,-411.833 595.839,-402.133"/>
<polygon fill="black" stroke="black" points="598.182,-404.737 603.655,-395.665 593.719,-399.344 598.182,-404.737"/>
</g>
<!-- node110&#45;&gt;node151 -->
<g id="edge38" class="edge"><title>node110&#45;&gt;node151</title>
<path fill="none" stroke="black" d="M593.91,-520.607C477.773,-514.572 76,-485.898 76,-378 76,-378 76,-378 76,-234 76,-32.2178 320.614,-167.697 521,-144 818.008,-108.877 1786.14,-93.4036 1988.65,-90.5104"/>
<polygon fill="black" stroke="black" points="1988.83,-94.0083 1998.78,-90.3671 1988.73,-87.009 1988.83,-94.0083"/>
</g>
<!-- node110&#45;&gt;node160 -->
<g id="edge40" class="edge"><title>node110&#45;&gt;node160</title>
<path fill="none" stroke="black" d="M603.046,-503.831C592.331,-494.963 579.281,-484.164 567.691,-474.572"/>
<polygon fill="black" stroke="black" points="569.882,-471.842 559.947,-468.163 565.419,-477.235 569.882,-471.842"/>
</g>
<!-- node110&#45;&gt;node180 -->
<g id="edge32" class="edge"><title>node110&#45;&gt;node180</title>
<path fill="none" stroke="black" d="M593.872,-512.896C558.432,-502.44 498.856,-484.587 448,-468 376.36,-444.634 294.287,-415.753 242.075,-397.111"/>
<polygon fill="black" stroke="black" points="242.958,-393.71 232.363,-393.638 240.601,-400.301 242.958,-393.71"/>
</g>
<!-- node110&#45;&gt;node181 -->
<g id="edge34" class="edge"><title>node110&#45;&gt;node181</title>
<path fill="none" stroke="black" d="M593.912,-510.767C568.415,-500.992 531.799,-485.648 502,-468 469.455,-448.725 435.545,-421.759 412.663,-402.378"/>
<polygon fill="black" stroke="black" points="414.923,-399.706 405.05,-395.864 410.373,-405.024 414.923,-399.706"/>
</g>
<!-- node110&#45;&gt;node182 -->
<g id="edge36" class="edge"><title>node110&#45;&gt;node182</title>
<path fill="none" stroke="black" d="M625,-503.762C625,-479.201 625,-435.247 625,-406.354"/>
<polygon fill="black" stroke="black" points="628.5,-406.09 625,-396.09 621.5,-406.09 628.5,-406.09"/>
</g>
<!-- node119&#45;&gt;node151 -->
<g id="edge44" class="edge"><title>node119&#45;&gt;node151</title>
<path fill="none" stroke="black" d="M754.638,-661.657C620.411,-639.6 38,-534.859 38,-378 38,-378 38,-378 38,-234 38,-189.279 45.288,-168.038 83,-144 124.728,-117.402 1722.02,-94.1999 1988.49,-90.5103"/>
<polygon fill="black" stroke="black" points="1988.85,-94.0059 1998.8,-90.3682 1988.75,-87.0065 1988.85,-94.0059"/>
</g>
<!-- node119&#45;&gt;node110 -->
<g id="edge46" class="edge"><title>node119&#45;&gt;node110</title>
<path fill="none" stroke="black" d="M762.116,-647.762C734.276,-622.227 683.582,-575.732 652.247,-546.991"/>
<polygon fill="black" stroke="black" points="654.458,-544.27 644.723,-540.09 649.727,-549.428 654.458,-544.27"/>
</g>
<!-- node66 -->
<g id="node38" class="node"><title>node66</title>
<polygon fill="none" stroke="black" points="1357,-324 1295,-324 1295,-288 1357,-288 1357,-324"/>
<text text-anchor="middle" x="1326" y="-302.7" font-family="Times Roman,serif" font-size="12.00">dalibase</text>
</g>
<!-- node119&#45;&gt;node66 -->
<g id="edge48" class="edge"><title>node119&#45;&gt;node66</title>
<path fill="none" stroke="black" d="M792.477,-647.827C817.217,-606.007 882.866,-501.243 958,-432 1002.07,-391.389 1016.49,-382.583 1072,-360 1143.69,-330.833 1233.45,-316.501 1284.81,-310.224"/>
<polygon fill="black" stroke="black" points="1285.34,-313.686 1294.86,-309.039 1284.52,-306.734 1285.34,-313.686"/>
</g>
<!-- node55 -->
<g id="node47" class="node"><title>node55</title>
<polygon fill="none" stroke="black" points="1470,-396 1380,-396 1380,-360 1470,-360 1470,-396"/>
<text text-anchor="middle" x="1425" y="-374.7" font-family="Times Roman,serif" font-size="12.00">environment</text>
</g>
<!-- node119&#45;&gt;node55 -->
<g id="edge62" class="edge"><title>node119&#45;&gt;node55</title>
<path fill="none" stroke="black" d="M809.114,-654.009C877.723,-623.592 1063.67,-540.683 1217,-468 1249.69,-452.505 1256.96,-446.729 1290,-432 1316.16,-420.341 1345.64,-408.411 1370.37,-398.74"/>
<polygon fill="black" stroke="black" points="1371.89,-401.902 1379.94,-395.014 1369.35,-395.378 1371.89,-401.902"/>
</g>
<!-- node127 -->
<g id="node53" class="node"><title>node127</title>
<polygon fill="none" stroke="black" points="1134,-612 1076,-612 1076,-576 1134,-576 1134,-612"/>
<text text-anchor="middle" x="1105" y="-590.7" font-family="Times Roman,serif" font-size="12.00">SMCLib</text>
</g>
<!-- node119&#45;&gt;node127 -->
<g id="edge72" class="edge"><title>node119&#45;&gt;node127</title>
<path fill="none" stroke="black" d="M809.26,-659.923C866.43,-647.18 999.058,-617.616 1065.53,-602.798"/>
<polygon fill="black" stroke="black" points="1066.61,-606.143 1075.61,-600.551 1065.09,-599.311 1066.61,-606.143"/>
</g>
<!-- node74 -->
<g id="node112" class="node"><title>node74</title>
<polygon fill="none" stroke="black" points="1360,-612 1306,-612 1306,-576 1360,-576 1360,-612"/>
<text text-anchor="middle" x="1333" y="-590.7" font-family="Times Roman,serif" font-size="12.00">dfuwu</text>
</g>
<!-- node119&#45;&gt;node74 -->
<g id="edge162" class="edge"><title>node119&#45;&gt;node74</title>
<path fill="none" stroke="black" d="M809.324,-662.43C900.123,-650.565 1191.89,-612.439 1295.81,-598.86"/>
<polygon fill="black" stroke="black" points="1296.37,-602.316 1305.84,-597.549 1295.47,-595.375 1296.37,-602.316"/>
</g>
<!-- node66&#45;&gt;node151 -->
<g id="edge50" class="edge"><title>node66&#45;&gt;node151</title>
<path fill="none" stroke="black" d="M1336.62,-287.914C1358.2,-253.048 1410.88,-177.064 1478,-144 1523.69,-121.493 1873.03,-99.0392 1988.84,-92.1452"/>
<polygon fill="black" stroke="black" points="1989.21,-95.6295 1998.98,-91.5455 1988.79,-88.6417 1989.21,-95.6295"/>
</g>
<!-- node66&#45;&gt;node59 -->
<g id="edge60" class="edge"><title>node66&#45;&gt;node59</title>
<path fill="none" stroke="black" d="M1305.31,-287.831C1295.31,-279.048 1283.14,-268.371 1272.3,-258.849"/>
<polygon fill="black" stroke="black" points="1274.51,-256.131 1264.69,-252.163 1269.89,-261.391 1274.51,-256.131"/>
</g>
<!-- node66&#45;&gt;node153 -->
<g id="edge52" class="edge"><title>node66&#45;&gt;node153</title>
<path fill="none" stroke="black" d="M1357.08,-292.91C1400.72,-274.72 1482.79,-241.196 1554,-216 1600.19,-199.656 1654.21,-183.108 1689.21,-172.717"/>
<polygon fill="black" stroke="black" points="1690.39,-176.017 1698.99,-169.826 1688.41,-169.304 1690.39,-176.017"/>
</g>
<!-- node149 -->
<g id="node42" class="node"><title>node149</title>
<polygon fill="none" stroke="black" points="2085,-252 2031,-252 2031,-216 2085,-216 2085,-252"/>
<text text-anchor="middle" x="2058" y="-230.7" font-family="Times Roman,serif" font-size="12.00">hrpc</text>
</g>
<!-- node66&#45;&gt;node149 -->
<g id="edge54" class="edge"><title>node66&#45;&gt;node149</title>
<path fill="none" stroke="black" d="M1357.45,-302.906C1475.63,-291.282 1892.85,-250.244 2020.57,-237.682"/>
<polygon fill="black" stroke="black" points="2021.03,-241.153 2030.64,-236.691 2020.35,-234.187 2021.03,-241.153"/>
</g>
<!-- node149&#45;&gt;node151 -->
<g id="edge56" class="edge"><title>node149&#45;&gt;node151</title>
<path fill="none" stroke="black" d="M2053.95,-215.762C2048.47,-191.093 2038.64,-146.86 2032.22,-117.973"/>
<polygon fill="black" stroke="black" points="2035.61,-117.092 2030.02,-108.09 2028.77,-118.611 2035.61,-117.092"/>
</g>
<!-- node149&#45;&gt;node153 -->
<g id="edge58" class="edge"><title>node149&#45;&gt;node153</title>
<path fill="none" stroke="black" d="M2030.83,-228.108C1971.59,-215.26 1830.71,-184.708 1763.25,-170.079"/>
<polygon fill="black" stroke="black" points="1763.59,-166.571 1753.08,-167.872 1762.11,-173.412 1763.59,-166.571"/>
</g>
<!-- node55&#45;&gt;node151 -->
<g id="edge64" class="edge"><title>node55&#45;&gt;node151</title>
<path fill="none" stroke="black" d="M1438.68,-359.945C1474.29,-314.484 1575.1,-195.279 1690,-144 1743.07,-120.313 1913.03,-101.139 1988.86,-93.5327"/>
<polygon fill="black" stroke="black" points="1989.31,-97.0056 1998.91,-92.5368 1988.62,-90.0397 1989.31,-97.0056"/>
</g>
<!-- node55&#45;&gt;node59 -->
<g id="edge68" class="edge"><title>node55&#45;&gt;node59</title>
<path fill="none" stroke="black" d="M1417.02,-359.89C1407.44,-339.951 1389.65,-308.065 1366,-288 1341.83,-267.494 1308.64,-253.482 1282.98,-244.879"/>
<polygon fill="black" stroke="black" points="1283.79,-241.463 1273.2,-241.737 1281.65,-248.128 1283.79,-241.463"/>
</g>
<!-- node55&#45;&gt;node153 -->
<g id="edge66" class="edge"><title>node55&#45;&gt;node153</title>
<path fill="none" stroke="black" d="M1470.07,-364.58C1495.21,-355.674 1526.16,-342.242 1550,-324 1598.73,-286.717 1589.84,-256.43 1636,-216 1652.08,-201.919 1672.31,-189.406 1689.52,-179.98"/>
<polygon fill="black" stroke="black" points="1691.55,-182.865 1698.73,-175.07 1688.25,-176.688 1691.55,-182.865"/>
</g>
<!-- node55&#45;&gt;node66 -->
<g id="edge70" class="edge"><title>node55&#45;&gt;node66</title>
<path fill="none" stroke="black" d="M1400.02,-359.831C1387.71,-350.878 1372.69,-339.956 1359.41,-330.295"/>
<polygon fill="black" stroke="black" points="1361.12,-327.214 1350.97,-324.163 1357,-332.875 1361.12,-327.214"/>
</g>
<!-- node127&#45;&gt;node151 -->
<g id="edge74" class="edge"><title>node127&#45;&gt;node151</title>
<path fill="none" stroke="black" d="M1075.76,-583.579C989.822,-552.055 744,-455.144 744,-378 744,-378 744,-378 744,-234 744,-118.414 874.78,-167.266 988,-144 1184.98,-103.522 1825.75,-92.595 1988.26,-90.4451"/>
<polygon fill="black" stroke="black" points="1988.74,-93.9393 1998.7,-90.3106 1988.65,-86.9399 1988.74,-93.9393"/>
</g>
<!-- node127&#45;&gt;node59 -->
<g id="edge76" class="edge"><title>node127&#45;&gt;node59</title>
<path fill="none" stroke="black" d="M1087.36,-575.855C1039.03,-524.039 913.419,-373.629 995,-288 1023.34,-258.255 1141.65,-243.245 1204.45,-237.247"/>
<polygon fill="black" stroke="black" points="1205.12,-240.7 1214.76,-236.296 1204.48,-233.73 1205.12,-240.7"/>
</g>
<!-- node127&#45;&gt;node160 -->
<g id="edge78" class="edge"><title>node127&#45;&gt;node160</title>
<path fill="none" stroke="black" d="M1075.81,-584.679C1021.22,-567.433 899.809,-529.94 796,-504 718.076,-484.528 625.728,-466.373 575.363,-456.882"/>
<polygon fill="black" stroke="black" points="575.746,-453.393 565.273,-454.991 574.457,-460.274 575.746,-453.393"/>
</g>
<!-- node127&#45;&gt;node110 -->
<g id="edge80" class="edge"><title>node127&#45;&gt;node110</title>
<path fill="none" stroke="black" d="M1075.7,-589.604C993.591,-577.289 761.109,-542.416 666.162,-528.174"/>
<polygon fill="black" stroke="black" points="666.488,-524.684 656.079,-526.662 665.449,-531.607 666.488,-524.684"/>
</g>
<!-- node127&#45;&gt;node66 -->
<g id="edge82" class="edge"><title>node127&#45;&gt;node66</title>
<path fill="none" stroke="black" d="M1106.07,-575.847C1109.74,-531.201 1125.81,-415.653 1195,-360 1221.46,-338.716 1257.48,-324.684 1285.05,-316.272"/>
<polygon fill="black" stroke="black" points="1286.17,-319.589 1294.79,-313.424 1284.21,-312.87 1286.17,-319.589"/>
</g>
<!-- node127&#45;&gt;node55 -->
<g id="edge84" class="edge"><title>node127&#45;&gt;node55</title>
<path fill="none" stroke="black" d="M1131.73,-575.955C1189.26,-537.123 1324.82,-445.623 1389.48,-401.976"/>
<polygon fill="black" stroke="black" points="1391.79,-404.641 1398.12,-396.145 1387.87,-398.839 1391.79,-404.641"/>
</g>
<!-- node78 -->
<g id="node61" class="node"><title>node78</title>
<polygon fill="none" stroke="black" points="1208,-468 1154,-468 1154,-432 1208,-432 1208,-468"/>
<text text-anchor="middle" x="1181" y="-446.7" font-family="Times Roman,serif" font-size="12.00">dalift</text>
</g>
<!-- node127&#45;&gt;node78 -->
<g id="edge86" class="edge"><title>node127&#45;&gt;node78</title>
<path fill="none" stroke="black" d="M1113.03,-575.797C1121.29,-557.421 1134.79,-528.353 1148,-504 1152.9,-494.969 1158.62,-485.33 1163.92,-476.733"/>
<polygon fill="black" stroke="black" points="1166.9,-478.557 1169.22,-468.219 1160.96,-474.855 1166.9,-478.557"/>
</g>
<!-- node54 -->
<g id="node69" class="node"><title>node54</title>
<polygon fill="none" stroke="black" points="1911,-468 1845,-468 1845,-432 1911,-432 1911,-468"/>
<text text-anchor="middle" x="1878" y="-446.7" font-family="Times Roman,serif" font-size="12.00">dllserver</text>
</g>
<!-- node127&#45;&gt;node54 -->
<g id="edge100" class="edge"><title>node127&#45;&gt;node54</title>
<path fill="none" stroke="black" d="M1134.08,-588.633C1228.02,-571.29 1531.78,-515.144 1783,-468 1799.78,-464.851 1818.23,-461.362 1834.36,-458.301"/>
<polygon fill="black" stroke="black" points="1835.42,-461.663 1844.59,-456.36 1834.11,-454.786 1835.42,-461.663"/>
</g>
<!-- node146 -->
<g id="node76" class="node"><title>node146</title>
<polygon fill="none" stroke="black" points="2862,-396 2808,-396 2808,-360 2862,-360 2862,-396"/>
<text text-anchor="middle" x="2835" y="-374.7" font-family="Times Roman,serif" font-size="12.00">eclrtl</text>
</g>
<!-- node127&#45;&gt;node146 -->
<g id="edge138" class="edge"><title>node127&#45;&gt;node146</title>
<path fill="none" stroke="black" d="M1134.35,-590.273C1200.08,-581.864 1364.11,-560.547 1501,-540 1647.75,-517.973 2012.69,-449.932 2160,-432 2223.42,-424.28 2665.77,-390.74 2797.85,-380.791"/>
<polygon fill="black" stroke="black" points="2798.17,-384.277 2807.88,-380.036 2797.65,-377.297 2798.17,-384.277"/>
</g>
<!-- node147 -->
<g id="node87" class="node"><title>node147</title>
<polygon fill="none" stroke="black" points="3233,-324 3179,-324 3179,-288 3233,-288 3233,-324"/>
<text text-anchor="middle" x="3206" y="-302.7" font-family="Times Roman,serif" font-size="12.00">nbcd</text>
</g>
<!-- node127&#45;&gt;node147 -->
<g id="edge136" class="edge"><title>node127&#45;&gt;node147</title>
<path fill="none" stroke="black" d="M1134.25,-590.904C1171.86,-587.003 1239.24,-580.291 1297,-576 1369.8,-570.592 1887.01,-571.214 1953,-540 1972.62,-530.719 1966.44,-513.411 1986,-504 2091.98,-453.008 2397.25,-482.166 2514,-468 2698.1,-445.662 2744.54,-438.718 2925,-396 2979.18,-383.174 3112.74,-343.228 3165,-324 3166.41,-323.48 3167.85,-322.935 3169.29,-322.373"/>
<polygon fill="black" stroke="black" points="3170.91,-325.495 3178.84,-318.477 3168.26,-319.014 3170.91,-325.495"/>
</g>
<!-- node53 -->
<g id="node99" class="node"><title>node53</title>
<polygon fill="none" stroke="black" points="3092,-468 3032,-468 3032,-432 3092,-432 3092,-468"/>
<text text-anchor="middle" x="3062" y="-446.7" font-family="Times Roman,serif" font-size="12.00">deftype</text>
</g>
<!-- node127&#45;&gt;node53 -->
<g id="edge140" class="edge"><title>node127&#45;&gt;node53</title>
<path fill="none" stroke="black" d="M1134.24,-590.88C1171.86,-586.953 1239.23,-580.215 1297,-576 1449.91,-564.842 1836.9,-575.731 1986,-540 2024.31,-530.819 2028.63,-512.936 2067,-504 2264.75,-457.944 2778.61,-493.868 2980,-468 2993.82,-466.224 3008.76,-463.264 3022.05,-460.251"/>
<polygon fill="black" stroke="black" points="3022.91,-463.645 3031.85,-457.956 3021.31,-456.829 3022.91,-463.645"/>
</g>
<!-- node64 -->
<g id="node104" class="node"><title>node64</title>
<polygon fill="none" stroke="black" points="1944,-540 1876,-540 1876,-504 1944,-504 1944,-540"/>
<text text-anchor="middle" x="1910" y="-518.7" font-family="Times Roman,serif" font-size="12.00">workunit</text>
</g>
<!-- node127&#45;&gt;node64 -->
<g id="edge148" class="edge"><title>node127&#45;&gt;node64</title>
<path fill="none" stroke="black" d="M1134.27,-591.196C1171.91,-587.604 1239.32,-581.218 1297,-576 1480.5,-559.401 1526.47,-556.258 1710,-540 1763.51,-535.26 1825.06,-529.705 1865.59,-526.033"/>
<polygon fill="black" stroke="black" points="1866.03,-529.507 1875.67,-525.119 1865.4,-522.536 1866.03,-529.507"/>
</g>
<!-- node78&#45;&gt;node151 -->
<g id="edge88" class="edge"><title>node78&#45;&gt;node151</title>
<path fill="none" stroke="black" d="M1178.02,-431.932C1172.14,-390.333 1163.06,-286.002 1206,-216 1234.45,-169.623 1253.93,-162.746 1305,-144 1369.46,-120.342 1850.42,-97.6778 1988.83,-91.5907"/>
<polygon fill="black" stroke="black" points="1989.1,-95.0823 1998.94,-91.149 1988.8,-88.089 1989.1,-95.0823"/>
</g>
<!-- node78&#45;&gt;node59 -->
<g id="edge94" class="edge"><title>node78&#45;&gt;node59</title>
<path fill="none" stroke="black" d="M1182.66,-431.831C1184.61,-413.481 1188.43,-384.433 1195,-360 1204.36,-325.183 1220.13,-286.783 1231.25,-261.636"/>
<polygon fill="black" stroke="black" points="1234.51,-262.919 1235.4,-252.362 1228.12,-260.056 1234.51,-262.919"/>
</g>
<!-- node78&#45;&gt;node153 -->
<g id="edge90" class="edge"><title>node78&#45;&gt;node153</title>
<path fill="none" stroke="black" d="M1208.01,-433.698C1273.98,-394.164 1449.02,-290.928 1601,-216 1630.2,-201.604 1664.16,-187.069 1689.31,-176.711"/>
<polygon fill="black" stroke="black" points="1690.89,-179.843 1698.82,-172.817 1688.24,-173.365 1690.89,-179.843"/>
</g>
<!-- node78&#45;&gt;node66 -->
<g id="edge96" class="edge"><title>node78&#45;&gt;node66</title>
<path fill="none" stroke="black" d="M1185.94,-431.783C1192.07,-412.044 1204.22,-380.616 1224,-360 1240.89,-342.403 1264.78,-329.331 1285.19,-320.46"/>
<polygon fill="black" stroke="black" points="1286.69,-323.627 1294.59,-316.56 1284.01,-317.161 1286.69,-323.627"/>
</g>
<!-- node78&#45;&gt;node149 -->
<g id="edge92" class="edge"><title>node78&#45;&gt;node149</title>
<path fill="none" stroke="black" d="M1208.29,-445.931C1260.95,-437.886 1380.1,-418.743 1479,-396 1586.52,-371.273 1911.3,-276.914 2021.19,-244.786"/>
<polygon fill="black" stroke="black" points="2022.23,-248.13 2030.84,-241.963 2020.26,-241.411 2022.23,-248.13"/>
</g>
<!-- node78&#45;&gt;node55 -->
<g id="edge98" class="edge"><title>node78&#45;&gt;node55</title>
<path fill="none" stroke="black" d="M1208.04,-442.02C1246.9,-430.555 1319.37,-409.169 1369.81,-394.284"/>
<polygon fill="black" stroke="black" points="1370.99,-397.586 1379.59,-391.399 1369.01,-390.872 1370.99,-397.586"/>
</g>
<!-- node54&#45;&gt;node151 -->
<g id="edge104" class="edge"><title>node54&#45;&gt;node151</title>
<path fill="none" stroke="black" d="M1911.25,-435.837C1915.81,-434.32 1920.47,-432.976 1925,-432 1991.15,-417.731 2486.58,-445.247 2533,-396 2543.97,-384.357 2543.89,-371.723 2533,-360 2459.15,-280.488 2131.63,-390.655 2046,-324 1984.29,-275.968 2003.82,-168.571 2017.5,-117.716"/>
<polygon fill="black" stroke="black" points="2020.88,-118.622 2020.21,-108.048 2014.14,-116.729 2020.88,-118.622"/>
</g>
<!-- node54&#45;&gt;node59 -->
<g id="edge126" class="edge"><title>node54&#45;&gt;node59</title>
<path fill="none" stroke="black" d="M1844.77,-436.098C1773.23,-406.474 1598.96,-335.924 1449,-288 1391.96,-269.771 1324.61,-252.899 1283.1,-243.024"/>
<polygon fill="black" stroke="black" points="1283.67,-239.561 1273.13,-240.668 1282.06,-246.373 1283.67,-239.561"/>
</g>
<!-- node54&#45;&gt;node153 -->
<g id="edge106" class="edge"><title>node54&#45;&gt;node153</title>
<path fill="none" stroke="black" d="M1868.49,-431.984C1842.63,-382.991 1770.92,-247.119 1740.23,-188.969"/>
<polygon fill="black" stroke="black" points="1743.27,-187.219 1735.5,-180.009 1737.08,-190.486 1743.27,-187.219"/>
</g>
<!-- node54&#45;&gt;node66 -->
<g id="edge128" class="edge"><title>node54&#45;&gt;node66</title>
<path fill="none" stroke="black" d="M1844.71,-441.316C1748.84,-416.306 1472.26,-344.154 1367.17,-316.741"/>
<polygon fill="black" stroke="black" points="1367.82,-313.292 1357.26,-314.155 1366.05,-320.066 1367.82,-313.292"/>
</g>
<!-- node54&#45;&gt;node149 -->
<g id="edge108" class="edge"><title>node54&#45;&gt;node149</title>
<path fill="none" stroke="black" d="M1911.25,-435.824C1915.8,-434.309 1920.47,-432.97 1925,-432 1994.75,-417.065 2516.99,-447.836 2566,-396 2576.99,-384.373 2576.9,-371.712 2566,-360 2489.95,-278.293 2144.16,-402.695 2065,-324 2049.17,-308.265 2048.79,-282.186 2051.56,-262.141"/>
<polygon fill="black" stroke="black" points="2055.06,-262.459 2053.29,-252.013 2048.16,-261.28 2055.06,-262.459"/>
</g>
<!-- node54&#45;&gt;node55 -->
<g id="edge130" class="edge"><title>node54&#45;&gt;node55</title>
<path fill="none" stroke="black" d="M1844.66,-443.259C1826.47,-439.689 1803.54,-435.361 1783,-432 1667.44,-413.094 1637.6,-414.687 1522,-396 1508.53,-393.822 1494.04,-391.256 1480.48,-388.754"/>
<polygon fill="black" stroke="black" points="1480.8,-385.252 1470.32,-386.861 1479.51,-392.134 1480.8,-385.252"/>
</g>
<!-- node176 -->
<g id="node71" class="node"><title>node176</title>
<ellipse fill="none" stroke="black" cx="2037" cy="-378" rx="130.789" ry="18"/>
<text text-anchor="middle" x="2037" y="-374.7" font-family="Times Roman,serif" font-size="12.00">/usr/lib/x86_64&#45;linux&#45;gnu/libz.so</text>
</g>
<!-- node54&#45;&gt;node176 -->
<g id="edge102" class="edge"><title>node54&#45;&gt;node176</title>
<path fill="none" stroke="black" d="M1911.33,-434.906C1933.94,-424.668 1964.17,-410.978 1989.32,-399.591"/>
<polygon fill="black" stroke="black" points="1991.02,-402.665 1998.68,-395.352 1988.13,-396.289 1991.02,-402.665"/>
</g>
<!-- node54&#45;&gt;node146 -->
<g id="edge110" class="edge"><title>node54&#45;&gt;node146</title>
<path fill="none" stroke="black" d="M1911.3,-441.718C1926.91,-438.155 1945.8,-434.29 1963,-432 2245.84,-394.334 2319.3,-415.085 2604,-396 2672.51,-391.407 2752.37,-384.936 2797.97,-381.134"/>
<polygon fill="black" stroke="black" points="2798.31,-384.618 2807.99,-380.296 2797.73,-377.642 2798.31,-384.618"/>
</g>
<!-- node177 -->
<g id="node93" class="node"><title>node177</title>
<ellipse fill="none" stroke="black" cx="2257" cy="-378" rx="70.8437" ry="18"/>
<text text-anchor="middle" x="2257" y="-374.7" font-family="Times Roman,serif" font-size="12.00">/usr/lib/libbfd.so</text>
</g>
<!-- node54&#45;&gt;node177 -->
<g id="edge132" class="edge"><title>node54&#45;&gt;node177</title>
<path fill="none" stroke="black" d="M1911.08,-436.278C1915.7,-434.671 1920.43,-433.185 1925,-432 2034.51,-403.591 2065.72,-416.434 2177,-396 2182.83,-394.929 2188.88,-393.731 2194.93,-392.474"/>
<polygon fill="black" stroke="black" points="2196,-395.824 2205.05,-390.317 2194.54,-388.977 2196,-395.824"/>
</g>
<!-- node178 -->
<g id="node95" class="node"><title>node178</title>
<ellipse fill="none" stroke="black" cx="2435" cy="-378" rx="89.0421" ry="18"/>
<text text-anchor="middle" x="2435" y="-374.7" font-family="Times Roman,serif" font-size="12.00">/usr/lib/libiberty_pic.a</text>
</g>
<!-- node54&#45;&gt;node178 -->
<g id="edge134" class="edge"><title>node54&#45;&gt;node178</title>
<path fill="none" stroke="black" d="M1911.02,-436.044C1915.65,-434.473 1920.4,-433.059 1925,-432 2104.12,-390.731 2154.85,-420.63 2337,-396 2344.92,-394.929 2353.18,-393.658 2361.39,-392.294"/>
<polygon fill="black" stroke="black" points="2362.09,-395.726 2371.35,-390.592 2360.91,-388.826 2362.09,-395.726"/>
</g>
<!-- node146&#45;&gt;node151 -->
<g id="edge120" class="edge"><title>node146&#45;&gt;node151</title>
<path fill="none" stroke="black" d="M2862.29,-361.838C2863.86,-361.164 2865.43,-360.545 2867,-360 2915.24,-343.216 3060.83,-362.841 3094,-324 3104.39,-311.832 3104.23,-300.302 3094,-288 2958.33,-124.86 2235.9,-95.536 2063.13,-90.8292"/>
<polygon fill="black" stroke="black" points="2063.1,-87.3273 2053.02,-90.5649 2062.92,-94.3249 2063.1,-87.3273"/>
</g>
<!-- node186 -->
<g id="node78" class="node"><title>node186</title>
<ellipse fill="none" stroke="black" cx="2416" cy="-306" rx="118.939" ry="18"/>
<text text-anchor="middle" x="2416" y="-302.7" font-family="Times Roman,serif" font-size="12.00">/usr/lib/libboost_regex&#45;mt.so</text>
</g>
<!-- node146&#45;&gt;node186 -->
<g id="edge112" class="edge"><title>node146&#45;&gt;node186</title>
<path fill="none" stroke="black" d="M2807.59,-364.752C2803.12,-362.947 2798.49,-361.279 2794,-360 2790.6,-359.032 2624.2,-335.419 2513.33,-319.742"/>
<polygon fill="black" stroke="black" points="2513.51,-316.233 2503.11,-318.298 2512.53,-323.164 2513.51,-316.233"/>
</g>
<!-- node183 -->
<g id="node80" class="node"><title>node183</title>
<ellipse fill="none" stroke="black" cx="2631" cy="-306" rx="77.9931" ry="18"/>
<text text-anchor="middle" x="2631" y="-302.7" font-family="Times Roman,serif" font-size="12.00">/usr/lib/libicuuc.so</text>
</g>
<!-- node146&#45;&gt;node183 -->
<g id="edge114" class="edge"><title>node146&#45;&gt;node183</title>
<path fill="none" stroke="black" d="M2807.8,-365.634C2803.22,-363.676 2798.5,-361.729 2794,-360 2759.35,-346.687 2719.84,-333.549 2688.4,-323.565"/>
<polygon fill="black" stroke="black" points="2689.08,-320.11 2678.49,-320.438 2686.97,-326.786 2689.08,-320.11"/>
</g>
<!-- node184 -->
<g id="node82" class="node"><title>node184</title>
<ellipse fill="none" stroke="black" cx="2812" cy="-306" rx="85.1424" ry="18"/>
<text text-anchor="middle" x="2812" y="-302.7" font-family="Times Roman,serif" font-size="12.00">/usr/lib/libicui18n.so</text>
</g>
<!-- node146&#45;&gt;node184 -->
<g id="edge116" class="edge"><title>node146&#45;&gt;node184</title>
<path fill="none" stroke="black" d="M2829.2,-359.831C2826.71,-352.046 2823.75,-342.773 2820.99,-334.135"/>
<polygon fill="black" stroke="black" points="2824.26,-332.874 2817.88,-324.413 2817.59,-335.004 2824.26,-332.874"/>
</g>
<!-- node185 -->
<g id="node84" class="node"><title>node185</title>
<ellipse fill="none" stroke="black" cx="3000" cy="-306" rx="85.1424" ry="18"/>
<text text-anchor="middle" x="3000" y="-302.7" font-family="Times Roman,serif" font-size="12.00">/usr/lib/libicudata.so</text>
</g>
<!-- node146&#45;&gt;node185 -->
<g id="edge118" class="edge"><title>node146&#45;&gt;node185</title>
<path fill="none" stroke="black" d="M2862.34,-365.983C2866.9,-363.982 2871.58,-361.931 2876,-360 2901.53,-348.838 2930.03,-336.423 2953.26,-326.314"/>
<polygon fill="black" stroke="black" points="2954.77,-329.475 2962.55,-322.276 2951.98,-323.055 2954.77,-329.475"/>
</g>
<!-- node146&#45;&gt;node147 -->
<g id="edge122" class="edge"><title>node146&#45;&gt;node147</title>
<path fill="none" stroke="black" d="M2862.41,-364.754C2866.88,-362.949 2871.51,-361.28 2876,-360 2984.37,-329.064 3016.19,-344.535 3127,-324 3140.64,-321.472 3155.5,-318.22 3168.61,-315.177"/>
<polygon fill="black" stroke="black" points="3169.76,-318.501 3178.69,-312.799 3168.16,-311.688 3169.76,-318.501"/>
</g>
<!-- node147&#45;&gt;node151 -->
<g id="edge124" class="edge"><title>node147&#45;&gt;node151</title>
<path fill="none" stroke="black" d="M3207.65,-287.833C3209.64,-253.516 3208.36,-179.431 3165,-144 3121.39,-108.365 2255.23,-93.4128 2063.4,-90.5315"/>
<polygon fill="black" stroke="black" points="2063.31,-87.0298 2053.26,-90.381 2063.2,-94.029 2063.31,-87.0298"/>
</g>
<!-- node53&#45;&gt;node151 -->
<g id="edge142" class="edge"><title>node53&#45;&gt;node151</title>
<path fill="none" stroke="black" d="M3092.21,-439.276C3134.76,-422.325 3210.64,-384.868 3242,-324 3280.03,-250.191 3259.13,-192.859 3192,-144 3145.32,-110.023 2257.36,-93.7405 2063.27,-90.5794"/>
<polygon fill="black" stroke="black" points="2063.07,-87.0759 2053.02,-90.4142 2062.96,-94.075 2063.07,-87.0759"/>
</g>
<!-- node53&#45;&gt;node146 -->
<g id="edge146" class="edge"><title>node53&#45;&gt;node146</title>
<path fill="none" stroke="black" d="M3031.86,-440.439C2990.48,-427.316 2916.18,-403.747 2871.64,-389.622"/>
<polygon fill="black" stroke="black" points="2872.67,-386.275 2862.08,-386.588 2870.55,-392.948 2872.67,-386.275"/>
</g>
<!-- node53&#45;&gt;node147 -->
<g id="edge144" class="edge"><title>node53&#45;&gt;node147</title>
<path fill="none" stroke="black" d="M3077.44,-431.847C3093.51,-413.256 3119.67,-383.793 3144,-360 3154.17,-350.059 3165.81,-339.679 3176.24,-330.706"/>
<polygon fill="black" stroke="black" points="3178.59,-333.299 3183.93,-324.149 3174.05,-327.971 3178.59,-333.299"/>
</g>
<!-- node64&#45;&gt;node151 -->
<g id="edge150" class="edge"><title>node64&#45;&gt;node151</title>
<path fill="none" stroke="black" d="M1877.09,-503.903C1862.86,-494.711 1846.98,-482.425 1836,-468 1810.1,-433.981 1802,-420.759 1802,-378 1802,-378 1802,-378 1802,-234 1802,-146.194 1925.29,-109.415 1988.94,-96.2785"/>
<polygon fill="black" stroke="black" points="1989.85,-99.6669 1998.98,-94.2997 1988.49,-92.7989 1989.85,-99.6669"/>
</g>
<!-- node64&#45;&gt;node66 -->
<g id="edge152" class="edge"><title>node64&#45;&gt;node66</title>
<path fill="none" stroke="black" d="M1875.91,-517.851C1770.37,-504.428 1451.23,-459.352 1371,-396 1351.3,-380.441 1339.53,-353.986 1333,-333.773"/>
<polygon fill="black" stroke="black" points="1336.35,-332.727 1330.13,-324.145 1329.64,-334.729 1336.35,-332.727"/>
</g>
<!-- node64&#45;&gt;node54 -->
<g id="edge154" class="edge"><title>node64&#45;&gt;node54</title>
<path fill="none" stroke="black" d="M1901.93,-503.831C1898.39,-495.877 1894.16,-486.369 1890.25,-477.572"/>
<polygon fill="black" stroke="black" points="1893.44,-476.13 1886.18,-468.413 1887.05,-478.973 1893.44,-476.13"/>
</g>
<!-- node64&#45;&gt;node146 -->
<g id="edge158" class="edge"><title>node64&#45;&gt;node146</title>
<path fill="none" stroke="black" d="M1944.06,-508.203C1948.7,-506.628 1953.43,-505.17 1958,-504 2121.91,-462.02 2651.76,-399.142 2797.56,-382.285"/>
<polygon fill="black" stroke="black" points="2798.24,-385.73 2807.77,-381.107 2797.44,-378.776 2798.24,-385.73"/>
</g>
<!-- node64&#45;&gt;node147 -->
<g id="edge156" class="edge"><title>node64&#45;&gt;node147</title>
<path fill="none" stroke="black" d="M1944.02,-508.048C1948.66,-506.497 1953.41,-505.088 1958,-504 2104.14,-469.358 2144.81,-485.299 2294,-468 2550.71,-438.233 2622.01,-465.227 2871,-396 2908.96,-385.447 2914.49,-372.039 2952,-360 3027.61,-335.734 3049.4,-340.821 3127,-324 3140.8,-321.008 3155.93,-317.594 3169.22,-314.549"/>
<polygon fill="black" stroke="black" points="3170.01,-317.959 3178.97,-312.306 3168.44,-311.137 3170.01,-317.959"/>
</g>
<!-- node64&#45;&gt;node53 -->
<g id="edge160" class="edge"><title>node64&#45;&gt;node53</title>
<path fill="none" stroke="black" d="M1944.1,-513.498C1959.8,-509.936 1978.74,-506.133 1996,-504 2396.82,-454.459 2501.31,-498.879 2904,-468 2944.06,-464.928 2989.64,-459.531 3021.52,-455.445"/>
<polygon fill="black" stroke="black" points="3022.31,-458.872 3031.77,-454.115 3021.41,-451.93 3022.31,-458.872"/>
</g>
<!-- node74&#45;&gt;node151 -->
<g id="edge166" class="edge"><title>node74&#45;&gt;node151</title>
<path fill="none" stroke="black" d="M1305.86,-587.936C1249.03,-574.227 1115.23,-536.583 1024,-468 950.653,-412.859 896,-397.762 896,-306 896,-306 896,-306 896,-234 896,-121.185 1793.72,-95.0777 1988.86,-90.7354"/>
<polygon fill="black" stroke="black" points="1988.98,-94.2336 1998.91,-90.5174 1988.83,-87.2352 1988.98,-94.2336"/>
</g>
<!-- node74&#45;&gt;node59 -->
<g id="edge172" class="edge"><title>node74&#45;&gt;node59</title>
<path fill="none" stroke="black" d="M1313.99,-575.723C1291.75,-555.326 1252.99,-522.734 1214,-504 1155.31,-475.803 1129.03,-499.405 1072,-468 1051.62,-456.778 1005.19,-417.371 996,-396 975.894,-349.256 994.066,-319.536 1034,-288 1060.31,-267.221 1151.68,-249.215 1204.83,-240.182"/>
<polygon fill="black" stroke="black" points="1205.63,-243.597 1214.92,-238.497 1204.48,-236.692 1205.63,-243.597"/>
</g>
<!-- node74&#45;&gt;node153 -->
<g id="edge168" class="edge"><title>node74&#45;&gt;node153</title>
<path fill="none" stroke="black" d="M1349.82,-575.71C1389.82,-532.189 1493.73,-419.009 1580,-324 1623.64,-275.936 1674.32,-219.58 1703.03,-187.603"/>
<polygon fill="black" stroke="black" points="1705.76,-189.799 1709.84,-180.019 1700.56,-185.123 1705.76,-189.799"/>
</g>
<!-- node74&#45;&gt;node66 -->
<g id="edge174" class="edge"><title>node74&#45;&gt;node66</title>
<path fill="none" stroke="black" d="M1326.01,-575.904C1311.7,-536.355 1281.88,-439.397 1300,-360 1302.09,-350.861 1305.92,-341.466 1310.02,-333.128"/>
<polygon fill="black" stroke="black" points="1313.14,-334.715 1314.68,-324.232 1306.94,-331.467 1313.14,-334.715"/>
</g>
<!-- node74&#45;&gt;node149 -->
<g id="edge170" class="edge"><title>node74&#45;&gt;node149</title>
<path fill="none" stroke="black" d="M1360.19,-587.747C1465.07,-563.848 1853.66,-477.353 2178,-432 2222.85,-425.728 2553.42,-429.408 2584,-396 2594.8,-384.197 2594.88,-371.728 2584,-360 2511.09,-281.429 2192.01,-383.718 2103,-324 2081.9,-309.846 2070.25,-282.728 2064.13,-261.944"/>
<polygon fill="black" stroke="black" points="2067.44,-260.798 2061.47,-252.045 2060.68,-262.61 2067.44,-260.798"/>
</g>
<!-- node74&#45;&gt;node64 -->
<g id="edge164" class="edge"><title>node74&#45;&gt;node64</title>
<path fill="none" stroke="black" d="M1360,-591.954C1434.32,-586.125 1648.06,-568.02 1824,-540 1837.68,-537.821 1852.49,-534.921 1865.89,-532.087"/>
<polygon fill="black" stroke="black" points="1866.79,-535.475 1875.82,-529.946 1865.31,-528.632 1866.79,-535.475"/>
</g>
<!-- node116&#45;&gt;node151 -->
<g id="edge178" class="edge"><title>node116&#45;&gt;node151</title>
<path fill="none" stroke="black" d="M2042.28,-665.585C2235.83,-662.758 3333.78,-645.445 3667,-612 3867.77,-591.849 4112,-723.782 4112,-522 4112,-522 4112,-522 4112,-234 4112,-190.752 4110.61,-168.546 4075,-144 4031.93,-114.306 2337.97,-93.5882 2063.42,-90.4222"/>
<polygon fill="black" stroke="black" points="2063.22,-86.9198 2053.18,-90.3047 2063.14,-93.9194 2063.22,-86.9198"/>
</g>
<!-- node116&#45;&gt;node59 -->
<g id="edge184" class="edge"><title>node116&#45;&gt;node59</title>
<path fill="none" stroke="black" d="M1983.8,-665.273C1825.63,-661.224 1077.17,-640.599 1038,-612 919.09,-525.185 871.575,-398.385 969,-288 999.561,-253.374 1136.03,-240.407 1204.52,-236.018"/>
<polygon fill="black" stroke="black" points="1205.13,-239.487 1214.9,-235.385 1204.71,-232.5 1205.13,-239.487"/>
</g>
<!-- node116&#45;&gt;node153 -->
<g id="edge180" class="edge"><title>node116&#45;&gt;node153</title>
<path fill="none" stroke="black" d="M2013.44,-647.758C2015.31,-613.979 2024.36,-541.709 2067,-504 2251.45,-340.872 2767.68,-542.165 2602,-360 2545.08,-297.413 2301.59,-355.331 2223,-324 2174.77,-304.771 2170.11,-286.154 2131,-252 2113.72,-236.908 2114.57,-226.159 2094,-216 2036.23,-187.474 1844.94,-170.61 1763.37,-164.559"/>
<polygon fill="black" stroke="black" points="1763.3,-161.044 1753.07,-163.809 1762.79,-168.026 1763.3,-161.044"/>
</g>
<!-- node116&#45;&gt;node160 -->
<g id="edge260" class="edge"><title>node116&#45;&gt;node160</title>
<path fill="none" stroke="black" d="M1983.97,-665.174C1821.29,-660.465 1026.31,-636.358 920,-612 917.73,-611.48 669.623,-505.989 574.523,-465.538"/>
<polygon fill="black" stroke="black" points="575.855,-462.301 565.283,-461.607 573.115,-468.742 575.855,-462.301"/>
</g>
<!-- node116&#45;&gt;node110 -->
<g id="edge262" class="edge"><title>node116&#45;&gt;node110</title>
<path fill="none" stroke="black" d="M1983.92,-665.253C1814.48,-660.823 958.304,-637.325 844,-612 778.755,-597.544 708.059,-565.153 665.146,-543.436"/>
<polygon fill="black" stroke="black" points="666.659,-540.279 656.162,-538.839 663.47,-546.51 666.659,-540.279"/>
</g>
<!-- node116&#45;&gt;node66 -->
<g id="edge194" class="edge"><title>node116&#45;&gt;node66</title>
<path fill="none" stroke="black" d="M1983.97,-665.452C1828.4,-662.378 1099.28,-646.177 1067,-612 985.233,-525.433 1068.5,-438.546 1158,-360 1193.68,-328.691 1247.7,-315.5 1284.8,-309.964"/>
<polygon fill="black" stroke="black" points="1285.36,-313.421 1294.79,-308.597 1284.41,-306.486 1285.36,-313.421"/>
</g>
<!-- node116&#45;&gt;node149 -->
<g id="edge182" class="edge"><title>node116&#45;&gt;node149</title>
<path fill="none" stroke="black" d="M2042.25,-665.436C2160.76,-662.457 2602.6,-644.397 2681,-540 2727.4,-478.215 2700.66,-424.129 2602,-360 2521.79,-307.862 2262.06,-358.941 2173,-324 2137.11,-309.919 2103.28,-280.809 2081.73,-259.494"/>
<polygon fill="black" stroke="black" points="2084.15,-256.968 2074.63,-252.317 2079.17,-261.889 2084.15,-256.968"/>
</g>
<!-- node116&#45;&gt;node55 -->
<g id="edge196" class="edge"><title>node116&#45;&gt;node55</title>
<path fill="none" stroke="black" d="M1983.73,-658.461C1948.58,-649.07 1888.11,-631.825 1838,-612 1702.33,-558.33 1667.16,-544.613 1543,-468 1511.03,-448.273 1477.2,-421.821 1454,-402.705"/>
<polygon fill="black" stroke="black" points="1456.18,-399.97 1446.25,-396.272 1451.71,-405.354 1456.18,-399.97"/>
</g>
<!-- node116&#45;&gt;node127 -->
<g id="edge266" class="edge"><title>node116&#45;&gt;node127</title>
<path fill="none" stroke="black" d="M1983.97,-665.484C1852.5,-662.952 1312.29,-650.363 1148,-612 1146.57,-611.666 1145.13,-611.29 1143.68,-610.878"/>
<polygon fill="black" stroke="black" points="1144.77,-607.55 1134.18,-607.731 1142.57,-614.196 1144.77,-607.55"/>
</g>
<!-- node116&#45;&gt;node78 -->
<g id="edge264" class="edge"><title>node116&#45;&gt;node78</title>
<path fill="none" stroke="black" d="M1983.82,-665.249C1857.04,-661.794 1357.64,-646.106 1297,-612 1243.31,-581.802 1208.18,-515.222 1191.77,-477.492"/>
<polygon fill="black" stroke="black" points="1194.93,-475.972 1187.82,-468.115 1188.48,-478.689 1194.93,-475.972"/>
</g>
<!-- node116&#45;&gt;node54 -->
<g id="edge198" class="edge"><title>node116&#45;&gt;node54</title>
<path fill="none" stroke="black" d="M1983.93,-651.416C1948.4,-631.723 1890.16,-592.906 1867,-540 1858.37,-520.29 1862.09,-495.97 1867.44,-477.582"/>
<polygon fill="black" stroke="black" points="1870.77,-478.635 1870.5,-468.043 1864.11,-476.492 1870.77,-478.635"/>
</g>
<!-- node116&#45;&gt;node146 -->
<g id="edge188" class="edge"><title>node116&#45;&gt;node146</title>
<path fill="none" stroke="black" d="M2042.18,-665.32C2191.39,-661.706 2863.18,-643.707 2893,-612 2947.66,-553.879 2888.75,-452.56 2855.1,-404.609"/>
<polygon fill="black" stroke="black" points="2857.82,-402.388 2849.15,-396.299 2852.13,-406.466 2857.82,-402.388"/>
</g>
<!-- node116&#45;&gt;node147 -->
<g id="edge186" class="edge"><title>node116&#45;&gt;node147</title>
<path fill="none" stroke="black" d="M2042.46,-665.9C2193.88,-665.179 2885.56,-659.308 3094,-612 3174.82,-593.658 3220.09,-608.991 3266,-540 3309.78,-474.208 3256.6,-378.487 3225.48,-332.545"/>
<polygon fill="black" stroke="black" points="3228.16,-330.267 3219.59,-324.044 3222.41,-334.256 3228.16,-330.267"/>
</g>
<!-- node116&#45;&gt;node53 -->
<g id="edge200" class="edge"><title>node116&#45;&gt;node53</title>
<path fill="none" stroke="black" d="M2042.09,-665.391C2203.07,-661.901 2979.03,-643.487 3018,-612 3057.82,-579.824 3063.71,-515.53 3063.48,-478.344"/>
<polygon fill="black" stroke="black" points="3066.98,-478.104 3063.27,-468.181 3059.98,-478.254 3066.98,-478.104"/>
</g>
<!-- node116&#45;&gt;node64 -->
<g id="edge202" class="edge"><title>node116&#45;&gt;node64</title>
<path fill="none" stroke="black" d="M1999.95,-647.762C1982,-622.66 1949.56,-577.302 1928.93,-548.467"/>
<polygon fill="black" stroke="black" points="1931.6,-546.187 1922.94,-540.09 1925.91,-550.259 1931.6,-546.187"/>
</g>
<!-- node116&#45;&gt;node74 -->
<g id="edge290" class="edge"><title>node116&#45;&gt;node74</title>
<path fill="none" stroke="black" d="M1983.74,-663.746C1900.44,-657.208 1654.95,-637.098 1452,-612 1424.54,-608.605 1393.65,-603.906 1370.23,-600.161"/>
<polygon fill="black" stroke="black" points="1370.79,-596.706 1360.36,-598.568 1369.67,-603.616 1370.79,-596.706"/>
</g>
<!-- node150 -->
<g id="node128" class="node"><title>node150</title>
<polygon fill="none" stroke="black" points="4084,-540 4030,-540 4030,-504 4084,-504 4084,-540"/>
<text text-anchor="middle" x="4057" y="-518.7" font-family="Times Roman,serif" font-size="12.00">jhtree</text>
</g>
<!-- node116&#45;&gt;node150 -->
<g id="edge190" class="edge"><title>node116&#45;&gt;node150</title>
<path fill="none" stroke="black" d="M2042.44,-665.873C2192.42,-665.021 2886.41,-658.619 3452,-612 3703.85,-591.241 3772.48,-607.484 4016,-540 4017.26,-539.65 4018.54,-539.267 4019.82,-538.859"/>
<polygon fill="black" stroke="black" points="4021.4,-542.009 4029.61,-535.307 4019.01,-535.429 4021.4,-542.009"/>
</g>
<!-- node99 -->
<g id="node136" class="node"><title>node99</title>
<polygon fill="none" stroke="black" points="3141,-540 3087,-540 3087,-504 3141,-504 3141,-540"/>
<text text-anchor="middle" x="3114" y="-518.7" font-family="Times Roman,serif" font-size="12.00">hql</text>
</g>
<!-- node116&#45;&gt;node99 -->
<g id="edge204" class="edge"><title>node116&#45;&gt;node99</title>
<path fill="none" stroke="black" d="M2042,-665.316C2207.01,-661.321 3021.58,-640.224 3066,-612 3087.84,-598.126 3100.38,-570.776 3107.13,-549.85"/>
<polygon fill="black" stroke="black" points="3110.51,-550.763 3109.99,-540.18 3103.8,-548.776 3110.51,-550.763"/>
</g>
<!-- node56 -->
<g id="node142" class="node"><title>node56</title>
<polygon fill="none" stroke="black" points="2884,-612 2820,-612 2820,-576 2884,-576 2884,-612"/>
<text text-anchor="middle" x="2852" y="-590.7" font-family="Times Roman,serif" font-size="12.00">fileview2</text>
</g>
<!-- node116&#45;&gt;node56 -->
<g id="edge214" class="edge"><title>node116&#45;&gt;node56</title>
<path fill="none" stroke="black" d="M2042.1,-664.311C2138.16,-658.618 2453.88,-638.965 2714,-612 2746.28,-608.653 2782.69,-603.862 2810,-600.065"/>
<polygon fill="black" stroke="black" points="2810.57,-603.518 2819.99,-598.663 2809.6,-596.586 2810.57,-603.518"/>
</g>
<!-- node156 -->
<g id="node162" class="node"><title>node156</title>
<polygon fill="none" stroke="black" points="3574,-468 3480,-468 3480,-432 3574,-432 3574,-468"/>
<text text-anchor="middle" x="3527" y="-446.7" font-family="Times Roman,serif" font-size="12.00">securesocket</text>
</g>
<!-- node116&#45;&gt;node156 -->
<g id="edge292" class="edge"><title>node116&#45;&gt;node156</title>
<path fill="none" stroke="black" d="M2042.14,-665.884C2224.08,-665.015 3200.22,-658.216 3324,-612 3400.7,-583.36 3470.73,-513.843 3504.96,-475.848"/>
<polygon fill="black" stroke="black" points="3507.69,-478.047 3511.71,-468.245 3502.45,-473.399 3507.69,-478.047"/>
</g>
<!-- node77 -->
<g id="node174" class="node"><title>node77</title>
<polygon fill="none" stroke="black" points="1774,-468 1694,-468 1694,-432 1774,-432 1774,-468"/>
<text text-anchor="middle" x="1734" y="-446.7" font-family="Times Roman,serif" font-size="12.00">dfuXRefLib</text>
</g>
<!-- node116&#45;&gt;node77 -->
<g id="edge268" class="edge"><title>node116&#45;&gt;node77</title>
<path fill="none" stroke="black" d="M1983.77,-657.43C1956.84,-648.673 1916.54,-633.332 1886,-612 1830.47,-573.22 1779.6,-511.409 1753.12,-476.416"/>
<polygon fill="black" stroke="black" points="1755.72,-474.043 1746.93,-468.127 1750.11,-478.233 1755.72,-474.043"/>
</g>
<!-- node155 -->
<g id="node182" class="node"><title>node155</title>
<polygon fill="none" stroke="black" points="2424,-612 2332,-612 2332,-576 2424,-576 2424,-612"/>
<text text-anchor="middle" x="2378" y="-590.7" font-family="Times Roman,serif" font-size="12.00">LdapSecurity</text>
</g>
<!-- node116&#45;&gt;node155 -->
<g id="edge282" class="edge"><title>node116&#45;&gt;node155</title>
<path fill="none" stroke="black" d="M2042.25,-660.23C2102.8,-648.286 2242.78,-620.674 2321.54,-605.138"/>
<polygon fill="black" stroke="black" points="2322.63,-608.49 2331.76,-603.121 2321.28,-601.622 2322.63,-608.49"/>
</g>
<!-- node60 -->
<g id="node191" class="node"><title>node60</title>
<polygon fill="none" stroke="black" points="4234,-180 4140,-180 4140,-144 4234,-144 4234,-180"/>
<text text-anchor="middle" x="4187" y="-158.7" font-family="Times Roman,serif" font-size="12.00">roxiecommlib</text>
</g>
<!-- node116&#45;&gt;node60 -->
<g id="edge294" class="edge"><title>node116&#45;&gt;node60</title>
<path fill="none" stroke="black" d="M2042.19,-665.68C2293.27,-662.879 4080.34,-641.908 4126,-612 4162.93,-587.815 4168,-566.141 4168,-522 4168,-522 4168,-522 4168,-306 4168,-265.528 4175.47,-219.204 4181.04,-190.272"/>
<polygon fill="black" stroke="black" points="4184.55,-190.575 4183.06,-180.084 4177.68,-189.211 4184.55,-190.575"/>
</g>
<!-- node150&#45;&gt;node151 -->
<g id="edge192" class="edge"><title>node150&#45;&gt;node151</title>
<path fill="none" stroke="black" d="M4060.52,-503.896C4065.5,-476.682 4074,-423.564 4074,-378 4074,-378 4074,-378 4074,-234 4074,-192.602 4082.49,-169.657 4050,-144 4009.46,-111.988 2336.24,-93.2291 2063.43,-90.3806"/>
<polygon fill="black" stroke="black" points="2063.29,-86.879 2053.25,-90.275 2063.21,-93.8787 2063.29,-86.879"/>
</g>
<!-- node99&#45;&gt;node151 -->
<g id="edge206" class="edge"><title>node99&#45;&gt;node151</title>
<path fill="none" stroke="black" d="M3141.25,-508.322C3195.11,-479.138 3310,-405.249 3310,-306 3310,-306 3310,-306 3310,-234 3310,-178.98 3275.02,-166.91 3225,-144 3170.94,-119.239 2259.74,-95.6954 2063.18,-90.8902"/>
<polygon fill="black" stroke="black" points="2063.15,-87.3885 2053.06,-90.6441 2062.98,-94.3864 2063.15,-87.3885"/>
</g>
<!-- node99&#45;&gt;node146 -->
<g id="edge210" class="edge"><title>node99&#45;&gt;node146</title>
<path fill="none" stroke="black" d="M3116.94,-503.879C3119.12,-483.625 3119.11,-451.165 3101,-432 3070.19,-399.39 2938.07,-385.417 2872.38,-380.396"/>
<polygon fill="black" stroke="black" points="2872.28,-376.88 2862.05,-379.64 2871.77,-383.861 2872.28,-376.88"/>
</g>
<!-- node99&#45;&gt;node147 -->
<g id="edge208" class="edge"><title>node99&#45;&gt;node147</title>
<path fill="none" stroke="black" d="M3121.69,-503.955C3137.79,-466.156 3175.14,-378.451 3194.26,-333.556"/>
<polygon fill="black" stroke="black" points="3197.57,-334.717 3198.27,-324.145 3191.13,-331.974 3197.57,-334.717"/>
</g>
<!-- node99&#45;&gt;node53 -->
<g id="edge212" class="edge"><title>node99&#45;&gt;node53</title>
<path fill="none" stroke="black" d="M3100.88,-503.831C3094.95,-495.623 3087.83,-485.761 3081.31,-476.732"/>
<polygon fill="black" stroke="black" points="3083.99,-474.471 3075.3,-468.413 3078.32,-478.569 3083.99,-474.471"/>
</g>
<!-- node56&#45;&gt;node151 -->
<g id="edge216" class="edge"><title>node56&#45;&gt;node151</title>
<path fill="none" stroke="black" d="M2884.05,-590.52C2953.73,-582.799 3124.17,-563.082 3266,-540 3619.03,-482.546 4036,-663.676 4036,-306 4036,-306 4036,-306 4036,-234 4036,-208.598 4033.57,-188.306 3645,-144 3324.01,-107.399 2275.12,-92.9999 2063.44,-90.4322"/>
<polygon fill="black" stroke="black" points="2063.2,-86.9293 2053.16,-90.309 2063.12,-93.9288 2063.2,-86.9293"/>
</g>
<!-- node56&#45;&gt;node59 -->
<g id="edge222" class="edge"><title>node56&#45;&gt;node59</title>
<path fill="none" stroke="black" d="M2819.94,-592.589C2749.78,-589.51 2577.4,-581.983 2433,-576 2032.14,-559.39 1929.69,-584.901 1531,-540 1487.65,-535.117 1172.88,-501.56 1145,-468 1091.2,-403.235 1172.66,-304.962 1217.59,-259.153"/>
<polygon fill="black" stroke="black" points="1220.14,-261.555 1224.73,-252.005 1215.19,-256.61 1220.14,-261.555"/>
</g>
<!-- node56&#45;&gt;node153 -->
<g id="edge218" class="edge"><title>node56&#45;&gt;node153</title>
<path fill="none" stroke="black" d="M2842.03,-575.769C2815.83,-529.896 2740.01,-409.803 2639,-360 2498.35,-290.65 2435.18,-378.123 2288,-324 2208.51,-294.769 2210.04,-246.433 2131,-216 2064.12,-190.247 1850.48,-171.504 1763.44,-164.751"/>
<polygon fill="black" stroke="black" points="1763.47,-161.243 1753.23,-163.969 1762.93,-168.222 1763.47,-161.243"/>
</g>
<!-- node56&#45;&gt;node66 -->
<g id="edge230" class="edge"><title>node56&#45;&gt;node66</title>
<path fill="none" stroke="black" d="M2819.88,-592.636C2642.07,-585.061 1784.36,-548.216 1729,-540 1599.34,-520.757 1562.23,-522.445 1443,-468 1392.19,-444.8 1369.55,-443.396 1340,-396 1328.55,-377.631 1325.34,-353.172 1324.83,-334.388"/>
<polygon fill="black" stroke="black" points="1328.33,-334.332 1324.8,-324.343 1321.33,-334.355 1328.33,-334.332"/>
</g>
<!-- node56&#45;&gt;node149 -->
<g id="edge220" class="edge"><title>node56&#45;&gt;node149</title>
<path fill="none" stroke="black" d="M2847.8,-575.978C2836.18,-530.595 2798.95,-411.556 2718,-360 2637.12,-308.487 2381.4,-345.698 2288,-324 2216.99,-307.503 2138.85,-273.22 2094.37,-252.053"/>
<polygon fill="black" stroke="black" points="2095.67,-248.794 2085.14,-247.618 2092.64,-255.103 2095.67,-248.794"/>
</g>
<!-- node56&#45;&gt;node55 -->
<g id="edge232" class="edge"><title>node56&#45;&gt;node55</title>
<path fill="none" stroke="black" d="M2819.87,-592.506C2655.51,-584.833 1914.7,-549.821 1867,-540 1717.39,-509.198 1550.64,-437.022 1471.52,-400.303"/>
<polygon fill="black" stroke="black" points="1472.86,-397.064 1462.31,-396.006 1469.9,-403.407 1472.86,-397.064"/>
</g>
<!-- node56&#45;&gt;node54 -->
<g id="edge234" class="edge"><title>node56&#45;&gt;node54</title>
<path fill="none" stroke="black" d="M2821.36,-575.888C2780.38,-552.014 2709.57,-512.086 2681,-504 2536.23,-463.027 2066.75,-452.775 1921.34,-450.553"/>
<polygon fill="black" stroke="black" points="1921.09,-447.049 1911.04,-450.401 1920.99,-454.048 1921.09,-447.049"/>
</g>
<!-- node56&#45;&gt;node146 -->
<g id="edge226" class="edge"><title>node56&#45;&gt;node146</title>
<path fill="none" stroke="black" d="M2857.97,-575.732C2861.04,-565.376 2864.46,-552.105 2866,-540 2868.02,-524.129 2871.19,-519.134 2866,-504 2859.42,-484.827 2844.9,-487.06 2838,-468 2830.84,-448.215 2830.38,-424.358 2831.55,-406.179"/>
<polygon fill="black" stroke="black" points="2835.04,-406.464 2832.39,-396.205 2828.07,-405.875 2835.04,-406.464"/>
</g>
<!-- node56&#45;&gt;node147 -->
<g id="edge224" class="edge"><title>node56&#45;&gt;node147</title>
<path fill="none" stroke="black" d="M2869.62,-575.756C2887.55,-557.347 2916.28,-528.255 2942,-504 2977.41,-470.613 3066.94,-387.639 3107,-360 3126.8,-346.336 3150.41,-333.347 3169.6,-323.533"/>
<polygon fill="black" stroke="black" points="3171.28,-326.608 3178.63,-318.982 3168.13,-320.357 3171.28,-326.608"/>
</g>
<!-- node56&#45;&gt;node53 -->
<g id="edge236" class="edge"><title>node56&#45;&gt;node53</title>
<path fill="none" stroke="black" d="M2884.15,-575.791C2901.55,-565.671 2923.25,-552.608 2942,-540 2973.12,-519.073 3007.21,-493.207 3031.07,-474.584"/>
<polygon fill="black" stroke="black" points="3033.35,-477.242 3039.06,-468.318 3029.03,-471.733 3033.35,-477.242"/>
</g>
<!-- node56&#45;&gt;node64 -->
<g id="edge238" class="edge"><title>node56&#45;&gt;node64</title>
<path fill="none" stroke="black" d="M2819.81,-592.312C2712.72,-586.584 2358.8,-566.75 2067,-540 2028.95,-536.512 1985.84,-531.493 1954.43,-527.64"/>
<polygon fill="black" stroke="black" points="1954.61,-524.135 1944.26,-526.382 1953.75,-531.082 1954.61,-524.135"/>
</g>
<!-- node56&#45;&gt;node150 -->
<g id="edge228" class="edge"><title>node56&#45;&gt;node150</title>
<path fill="none" stroke="black" d="M2884.06,-593.213C3059.88,-588.805 3903.17,-566.421 4016,-540 4017.28,-539.701 4018.56,-539.363 4019.85,-538.993"/>
<polygon fill="black" stroke="black" points="4021.36,-542.177 4029.69,-535.627 4019.09,-535.554 4021.36,-542.177"/>
</g>
<!-- node56&#45;&gt;node99 -->
<g id="edge258" class="edge"><title>node56&#45;&gt;node99</title>
<path fill="none" stroke="black" d="M2884.13,-585.171C2932.93,-571.759 3025.52,-546.315 3077.05,-532.155"/>
<polygon fill="black" stroke="black" points="3078.06,-535.505 3086.78,-529.48 3076.21,-528.755 3078.06,-535.505"/>
</g>
<!-- node63 -->
<g id="node156" class="node"><title>node63</title>
<polygon fill="none" stroke="black" points="3257,-540 3181,-540 3181,-504 3257,-504 3257,-540"/>
<text text-anchor="middle" x="3219" y="-518.7" font-family="Times Roman,serif" font-size="12.00">thorhelper</text>
</g>
<!-- node56&#45;&gt;node63 -->
<g id="edge240" class="edge"><title>node56&#45;&gt;node63</title>
<path fill="none" stroke="black" d="M2884.35,-588.964C2939.24,-580.236 3053.99,-561.19 3150,-540 3156.74,-538.512 3163.82,-536.818 3170.77,-535.079"/>
<polygon fill="black" stroke="black" points="3171.98,-538.382 3180.8,-532.517 3170.25,-531.6 3171.98,-538.382"/>
</g>
<!-- node63&#45;&gt;node151 -->
<g id="edge242" class="edge"><title>node63&#45;&gt;node151</title>
<path fill="none" stroke="black" d="M3252.22,-503.899C3290.44,-480.364 3348,-435.395 3348,-378 3348,-378 3348,-378 3348,-234 3348,-181.068 3317.66,-167.026 3270,-144 3214.33,-117.107 2264.63,-95.1538 2063.31,-90.7895"/>
<polygon fill="black" stroke="black" points="2063.3,-87.2887 2053.23,-90.5722 2063.15,-94.287 2063.3,-87.2887"/>
</g>
<!-- node63&#45;&gt;node146 -->
<g id="edge246" class="edge"><title>node63&#45;&gt;node146</title>
<path fill="none" stroke="black" d="M3205.02,-503.937C3187.84,-483.102 3156.67,-449.478 3122,-432 3078.7,-410.172 2939.9,-390.817 2872.47,-382.425"/>
<polygon fill="black" stroke="black" points="2872.63,-378.919 2862.28,-381.173 2871.78,-385.867 2872.63,-378.919"/>
</g>
<!-- node63&#45;&gt;node147 -->
<g id="edge244" class="edge"><title>node63&#45;&gt;node147</title>
<path fill="none" stroke="black" d="M3217.91,-503.955C3215.65,-466.394 3210.43,-379.554 3207.71,-334.41"/>
<polygon fill="black" stroke="black" points="3211.19,-333.917 3207.09,-324.145 3204.2,-334.337 3211.19,-333.917"/>
</g>
<!-- node63&#45;&gt;node53 -->
<g id="edge248" class="edge"><title>node63&#45;&gt;node53</title>
<path fill="none" stroke="black" d="M3180.99,-504.571C3156.88,-493.512 3125.74,-479.233 3101.37,-468.055"/>
<polygon fill="black" stroke="black" points="3102.6,-464.77 3092.05,-463.783 3099.68,-471.133 3102.6,-464.77"/>
</g>
<!-- node63&#45;&gt;node156 -->
<g id="edge250" class="edge"><title>node63&#45;&gt;node156</title>
<path fill="none" stroke="black" d="M3257.08,-513.099C3310.44,-500.625 3407.87,-477.848 3469.93,-463.341"/>
<polygon fill="black" stroke="black" points="3471.01,-466.683 3479.95,-460.999 3469.42,-459.867 3471.01,-466.683"/>
</g>
<!-- node156&#45;&gt;node151 -->
<g id="edge252" class="edge"><title>node156&#45;&gt;node151</title>
<path fill="none" stroke="black" d="M3574.1,-447.448C3683.84,-441.074 3949.48,-423.002 3979,-396 4009.17,-368.409 3998,-346.882 3998,-306 3998,-306 3998,-306 3998,-234 3998,-133.117 2334.72,-96.0782 2063.25,-90.7049"/>
<polygon fill="black" stroke="black" points="2063.19,-87.2031 2053.13,-90.5064 2063.06,-94.2018 2063.19,-87.2031"/>
</g>
<!-- node191 -->
<g id="node165" class="node"><title>node191</title>
<ellipse fill="none" stroke="black" cx="3833" cy="-378" rx="137.138" ry="18"/>
<text text-anchor="middle" x="3833" y="-374.7" font-family="Times Roman,serif" font-size="12.00">/usr/lib/x86_64&#45;linux&#45;gnu/libssl.so</text>
</g>
<!-- node156&#45;&gt;node191 -->
<g id="edge254" class="edge"><title>node156&#45;&gt;node191</title>
<path fill="none" stroke="black" d="M3574.14,-438.908C3622.72,-427.479 3699.21,-409.48 3756.47,-396.007"/>
<polygon fill="black" stroke="black" points="3757.27,-399.414 3766.21,-393.716 3755.67,-392.6 3757.27,-399.414"/>
</g>
<!-- node192 -->
<g id="node167" class="node"><title>node192</title>
<ellipse fill="none" stroke="black" cx="3527" cy="-378" rx="150.937" ry="18"/>
<text text-anchor="middle" x="3527" y="-374.7" font-family="Times Roman,serif" font-size="12.00">/usr/lib/x86_64&#45;linux&#45;gnu/libcrypto.so</text>
</g>
<!-- node156&#45;&gt;node192 -->
<g id="edge256" class="edge"><title>node156&#45;&gt;node192</title>
<path fill="none" stroke="black" d="M3527,-431.831C3527,-424.131 3527,-414.974 3527,-406.417"/>
<polygon fill="black" stroke="black" points="3530.5,-406.413 3527,-396.413 3523.5,-406.413 3530.5,-406.413"/>
</g>
<!-- node77&#45;&gt;node151 -->
<g id="edge270" class="edge"><title>node77&#45;&gt;node151</title>
<path fill="none" stroke="black" d="M1766.77,-431.871C1799.67,-413.674 1851.83,-384.854 1897,-360 1984.48,-311.868 2043.12,-337.915 2094,-252 2120.91,-206.564 2080.32,-148.495 2051.23,-115.658"/>
<polygon fill="black" stroke="black" points="2053.81,-113.3 2044.49,-108.266 2048.64,-118.015 2053.81,-113.3"/>
</g>
<!-- node77&#45;&gt;node59 -->
<g id="edge276" class="edge"><title>node77&#45;&gt;node59</title>
<path fill="none" stroke="black" d="M1698.91,-431.761C1637.97,-400.414 1508.21,-335.146 1395,-288 1357.31,-272.305 1313.26,-256.874 1282.5,-246.553"/>
<polygon fill="black" stroke="black" points="1283.59,-243.229 1273,-243.388 1281.38,-249.87 1283.59,-243.229"/>
</g>
<!-- node77&#45;&gt;node153 -->
<g id="edge272" class="edge"><title>node77&#45;&gt;node153</title>
<path fill="none" stroke="black" d="M1733.5,-431.984C1732.15,-383.294 1728.41,-248.796 1726.78,-190.057"/>
<polygon fill="black" stroke="black" points="1730.28,-189.908 1726.5,-180.009 1723.28,-190.102 1730.28,-189.908"/>
</g>
<!-- node77&#45;&gt;node66 -->
<g id="edge278" class="edge"><title>node77&#45;&gt;node66</title>
<path fill="none" stroke="black" d="M1693.74,-436.1C1689.12,-434.651 1684.47,-433.252 1680,-432 1610.64,-412.589 1586.52,-428.008 1522,-396 1499.67,-384.923 1500.65,-372.345 1479,-360 1443.45,-339.732 1398.98,-325.077 1367.15,-316.192"/>
<polygon fill="black" stroke="black" points="1367.86,-312.758 1357.29,-313.51 1366.03,-319.512 1367.86,-312.758"/>
</g>
<!-- node77&#45;&gt;node149 -->
<g id="edge274" class="edge"><title>node77&#45;&gt;node149</title>
<path fill="none" stroke="black" d="M1749.68,-431.917C1767.05,-412.58 1796.52,-381.765 1826,-360 1890.16,-312.627 1974.29,-271.439 2021.6,-249.916"/>
<polygon fill="black" stroke="black" points="2023.15,-253.054 2030.83,-245.752 2020.28,-246.673 2023.15,-253.054"/>
</g>
<!-- node77&#45;&gt;node55 -->
<g id="edge280" class="edge"><title>node77&#45;&gt;node55</title>
<path fill="none" stroke="black" d="M1693.79,-435.91C1689.16,-434.495 1684.5,-433.157 1680,-432 1594.22,-409.942 1570.05,-416.957 1484,-396 1482.74,-395.694 1481.47,-395.376 1480.19,-395.049"/>
<polygon fill="black" stroke="black" points="1480.84,-391.599 1470.27,-392.384 1479.02,-398.359 1480.84,-391.599"/>
</g>
<!-- node155&#45;&gt;node151 -->
<g id="edge284" class="edge"><title>node155&#45;&gt;node151</title>
<path fill="none" stroke="black" d="M2424.19,-589.956C2484.5,-583.736 2592.77,-569.329 2681,-540 2706.37,-531.567 3096.97,-346.754 3111,-324 3119.4,-310.382 3117.64,-302.556 3111,-288 3046.25,-146.117 2944.36,-172.336 2791,-144 2648.71,-117.709 2196.54,-97.1339 2063.29,-91.5222"/>
<polygon fill="black" stroke="black" points="2063.32,-88.0203 2053.18,-91.0994 2063.03,-95.0142 2063.32,-88.0203"/>
</g>
<!-- node189 -->
<g id="node185" class="node"><title>node189</title>
<ellipse fill="none" stroke="black" cx="2225" cy="-522" rx="148.987" ry="18"/>
<text text-anchor="middle" x="2225" y="-518.7" font-family="Times Roman,serif" font-size="12.00">/usr/lib/x86_64&#45;linux&#45;gnu/libldap_r.so</text>
</g>
<!-- node155&#45;&gt;node189 -->
<g id="edge286" class="edge"><title>node155&#45;&gt;node189</title>
<path fill="none" stroke="black" d="M2339.39,-575.831C2318.71,-566.099 2293.08,-554.04 2271.33,-543.804"/>
<polygon fill="black" stroke="black" points="2272.81,-540.632 2262.28,-539.541 2269.83,-546.966 2272.81,-540.632"/>
</g>
<!-- node190 -->
<g id="node187" class="node"><title>node190</title>
<ellipse fill="none" stroke="black" cx="2532" cy="-522" rx="139.888" ry="18"/>
<text text-anchor="middle" x="2532" y="-518.7" font-family="Times Roman,serif" font-size="12.00">/usr/lib/x86_64&#45;linux&#45;gnu/liblber.so</text>
</g>
<!-- node155&#45;&gt;node190 -->
<g id="edge288" class="edge"><title>node155&#45;&gt;node190</title>
<path fill="none" stroke="black" d="M2416.86,-575.831C2437.76,-566.062 2463.66,-553.95 2485.61,-543.689"/>
<polygon fill="black" stroke="black" points="2487.17,-546.824 2494.75,-539.418 2484.2,-540.482 2487.17,-546.824"/>
</g>
<!-- node60&#45;&gt;node151 -->
<g id="edge296" class="edge"><title>node60&#45;&gt;node151</title>
<path fill="none" stroke="black" d="M4139.99,-146.808C4135.3,-145.692 4130.58,-144.722 4126,-144 3914.8,-110.713 2328.45,-93.0983 2063.48,-90.3743"/>
<polygon fill="black" stroke="black" points="2063.27,-86.872 2053.23,-90.2696 2063.19,-93.8717 2063.27,-86.872"/>
</g>
</g>
</svg>
