<?xml version="1.0" encoding="UTF-8" standalone="no"?>
<!DOCTYPE svg PUBLIC "-//W3C//DTD SVG 1.1//EN"
 "http://www.w3.org/Graphics/SVG/1.1/DTD/svg11.dtd">
<!-- Generated by graphviz version 2.26.3 (20100126.1600)
 -->
<!-- Title: GG Pages: 1 -->
<svg width="2312pt" height="620pt"
 viewBox="0.00 0.00 2312.00 620.00" xmlns="http://www.w3.org/2000/svg" xmlns:xlink="http://www.w3.org/1999/xlink">
<g id="graph1" class="graph" transform="scale(1 1) rotate(0) translate(4 616)">
<title>GG</title>
<polygon fill="white" stroke="white" points="-4,5 -4,-616 2309,-616 2309,5 -4,5"/>
<!-- node127 -->
<g id="node1" class="node"><title>node127</title>
<polygon fill="none" stroke="black" points="1212,-612 1154,-612 1154,-576 1212,-576 1212,-612"/>
<text text-anchor="middle" x="1183" y="-590.7" font-family="Times Roman,serif" font-size="12.00">SMCLib</text>
</g>
<!-- node151 -->
<g id="node2" class="node"><title>node151</title>
<polygon fill="none" stroke="black" points="769,-108 715,-108 715,-72 769,-72 769,-108"/>
<text text-anchor="middle" x="742" y="-86.7" font-family="Times Roman,serif" font-size="12.00">jlib</text>
</g>
<!-- node127&#45;&gt;node151 -->
<g id="edge2" class="edge"><title>node127&#45;&gt;node151</title>
<path fill="none" stroke="black" d="M1153.95,-593.17C998.831,-588.64 271.637,-566.149 175,-540 90.5755,-517.155 0,-537.461 0,-450 0,-450 0,-450 0,-234 0,-154.34 79.1107,-168.217 155,-144 258.186,-111.072 592.049,-95.6783 704.576,-91.3347"/>
<polygon fill="black" stroke="black" points="704.9,-94.825 714.76,-90.9486 704.634,-87.8301 704.9,-94.825"/>
</g>
<!-- node59 -->
<g id="node12" class="node"><title>node59</title>
<polygon fill="none" stroke="black" points="279,-252 221,-252 221,-216 279,-216 279,-252"/>
<text text-anchor="middle" x="250" y="-230.7" font-family="Times Roman,serif" font-size="12.00">remote</text>
</g>
<!-- node127&#45;&gt;node59 -->
<g id="edge12" class="edge"><title>node127&#45;&gt;node59</title>
<path fill="none" stroke="black" d="M1153.85,-593.421C1006.08,-590.338 343.456,-574.663 259,-540 158.879,-498.907 48.4995,-457.727 95,-360 118.97,-309.624 174.02,-272.806 211.624,-252.398"/>
<polygon fill="black" stroke="black" points="213.57,-255.329 220.779,-247.565 210.302,-249.138 213.57,-255.329"/>
</g>
<!-- node160 -->
<g id="node18" class="node"><title>node160</title>
<polygon fill="none" stroke="black" points="1915,-468 1861,-468 1861,-432 1915,-432 1915,-468"/>
<text text-anchor="middle" x="1888" y="-446.7" font-family="Times Roman,serif" font-size="12.00">xmllib</text>
</g>
<!-- node127&#45;&gt;node160 -->
<g id="edge20" class="edge"><title>node127&#45;&gt;node160</title>
<path fill="none" stroke="black" d="M1212.13,-593.117C1286.25,-590.339 1487.61,-579.451 1650,-540 1723.74,-522.086 1805.68,-487.689 1851.62,-466.996"/>
<polygon fill="black" stroke="black" points="1853.2,-470.122 1860.85,-462.799 1850.3,-463.748 1853.2,-470.122"/>
</g>
<!-- node110 -->
<g id="node27" class="node"><title>node110</title>
<polygon fill="none" stroke="black" points="1975,-540 1913,-540 1913,-504 1975,-504 1975,-540"/>
<text text-anchor="middle" x="1944" y="-518.7" font-family="Times Roman,serif" font-size="12.00">esphttp</text>
</g>
<!-- node127&#45;&gt;node110 -->
<g id="edge30" class="edge"><title>node127&#45;&gt;node110</title>
<path fill="none" stroke="black" d="M1212.2,-591.636C1299.42,-584.522 1565.63,-562.417 1786,-540 1825.61,-535.971 1870.72,-530.77 1902.58,-526.995"/>
<polygon fill="black" stroke="black" points="1903.33,-530.431 1912.85,-525.774 1902.5,-523.48 1903.33,-530.431"/>
</g>
<!-- node66 -->
<g id="node34" class="node"><title>node66</title>
<polygon fill="none" stroke="black" points="426,-324 364,-324 364,-288 426,-288 426,-324"/>
<text text-anchor="middle" x="395" y="-302.7" font-family="Times Roman,serif" font-size="12.00">dalibase</text>
</g>
<!-- node127&#45;&gt;node66 -->
<g id="edge42" class="edge"><title>node127&#45;&gt;node66</title>
<path fill="none" stroke="black" d="M1153.86,-586.407C1113.79,-575.963 1039.42,-556.575 976,-540 731.527,-476.109 611.303,-567.79 426,-396 408.844,-380.095 401.183,-354.261 397.761,-334.341"/>
<polygon fill="black" stroke="black" points="401.199,-333.659 396.297,-324.267 394.272,-334.666 401.199,-333.659"/>
</g>
<!-- node55 -->
<g id="node43" class="node"><title>node55</title>
<polygon fill="none" stroke="black" points="194,-396 104,-396 104,-360 194,-360 194,-396"/>
<text text-anchor="middle" x="149" y="-374.7" font-family="Times Roman,serif" font-size="12.00">environment</text>
</g>
<!-- node127&#45;&gt;node55 -->
<g id="edge56" class="edge"><title>node127&#45;&gt;node55</title>
<path fill="none" stroke="black" d="M1153.76,-593.094C1012.74,-588.597 406.413,-567.782 327,-540 255.131,-514.857 195.39,-443.43 166.924,-404.347"/>
<polygon fill="black" stroke="black" points="169.671,-402.171 161.011,-396.069 163.975,-406.24 169.671,-402.171"/>
</g>
<!-- node78 -->
<g id="node49" class="node"><title>node78</title>
<polygon fill="none" stroke="black" points="287,-468 233,-468 233,-432 287,-432 287,-468"/>
<text text-anchor="middle" x="260" y="-446.7" font-family="Times Roman,serif" font-size="12.00">dalift</text>
</g>
<!-- node127&#45;&gt;node78 -->
<g id="edge66" class="edge"><title>node127&#45;&gt;node78</title>
<path fill="none" stroke="black" d="M1153.57,-592.855C1019.59,-587.523 470.699,-564.357 398,-540 356.151,-525.979 314.616,-496.163 288.219,-474.687"/>
<polygon fill="black" stroke="black" points="290.132,-471.726 280.2,-468.038 285.664,-477.115 290.132,-471.726"/>
</g>
<!-- node54 -->
<g id="node57" class="node"><title>node54</title>
<polygon fill="none" stroke="black" points="888,-468 822,-468 822,-432 888,-432 888,-468"/>
<text text-anchor="middle" x="855" y="-446.7" font-family="Times Roman,serif" font-size="12.00">dllserver</text>
</g>
<!-- node127&#45;&gt;node54 -->
<g id="edge80" class="edge"><title>node127&#45;&gt;node54</title>
<path fill="none" stroke="black" d="M1153.89,-581.221C1095.91,-555.766 965.755,-498.624 897.936,-468.85"/>
<polygon fill="black" stroke="black" points="898.962,-465.478 888.398,-464.663 896.148,-471.887 898.962,-465.478"/>
</g>
<!-- node146 -->
<g id="node64" class="node"><title>node146</title>
<polygon fill="none" stroke="black" points="1360,-396 1306,-396 1306,-360 1360,-360 1360,-396"/>
<text text-anchor="middle" x="1333" y="-374.7" font-family="Times Roman,serif" font-size="12.00">eclrtl</text>
</g>
<!-- node127&#45;&gt;node146 -->
<g id="edge118" class="edge"><title>node127&#45;&gt;node146</title>
<path fill="none" stroke="black" d="M1212.28,-591.217C1244.12,-586.497 1293.83,-573.837 1319,-540 1348.01,-500.998 1344.33,-441.173 1338.81,-406.181"/>
<polygon fill="black" stroke="black" points="1342.23,-405.423 1337.07,-396.169 1335.33,-406.621 1342.23,-405.423"/>
</g>
<!-- node147 -->
<g id="node75" class="node"><title>node147</title>
<polygon fill="none" stroke="black" points="1808,-324 1754,-324 1754,-288 1808,-288 1808,-324"/>
<text text-anchor="middle" x="1781" y="-302.7" font-family="Times Roman,serif" font-size="12.00">nbcd</text>
</g>
<!-- node127&#45;&gt;node147 -->
<g id="edge116" class="edge"><title>node127&#45;&gt;node147</title>
<path fill="none" stroke="black" d="M1212.22,-590.238C1254.99,-583.966 1336.46,-569.085 1400,-540 1526.14,-482.261 1533.1,-426.214 1655,-360 1690.34,-340.803 1703.88,-341.455 1744.82,-323.854"/>
<polygon fill="black" stroke="black" points="1746.25,-327.047 1753.99,-319.807 1743.43,-320.643 1746.25,-327.047"/>
</g>
<!-- node53 -->
<g id="node87" class="node"><title>node53</title>
<polygon fill="none" stroke="black" points="1478,-468 1418,-468 1418,-432 1478,-432 1478,-468"/>
<text text-anchor="middle" x="1448" y="-446.7" font-family="Times Roman,serif" font-size="12.00">deftype</text>
</g>
<!-- node127&#45;&gt;node53 -->
<g id="edge120" class="edge"><title>node127&#45;&gt;node53</title>
<path fill="none" stroke="black" d="M1212.26,-590.343C1250.16,-584.542 1317.15,-570.587 1366,-540 1392.18,-523.608 1415.19,-496.606 1430.12,-476.447"/>
<polygon fill="black" stroke="black" points="1433,-478.436 1436.01,-468.277 1427.32,-474.343 1433,-478.436"/>
</g>
<!-- node64 -->
<g id="node92" class="node"><title>node64</title>
<polygon fill="none" stroke="black" points="1310,-540 1242,-540 1242,-504 1310,-504 1310,-540"/>
<text text-anchor="middle" x="1276" y="-518.7" font-family="Times Roman,serif" font-size="12.00">workunit</text>
</g>
<!-- node127&#45;&gt;node64 -->
<g id="edge128" class="edge"><title>node127&#45;&gt;node64</title>
<path fill="none" stroke="black" d="M1206.47,-575.831C1218.03,-566.878 1232.14,-555.956 1244.62,-546.295"/>
<polygon fill="black" stroke="black" points="1246.78,-549.052 1252.54,-540.163 1242.49,-543.517 1246.78,-549.052"/>
</g>
<!-- node152 -->
<g id="node4" class="node"><title>node152</title>
<polygon fill="none" stroke="black" points="620,-36 580.056,-18 620,-3.55271e-15 659.944,-18 620,-36"/>
<text text-anchor="middle" x="620" y="-14.7" font-family="Times Roman,serif" font-size="12.00">lzma</text>
</g>
<!-- node151&#45;&gt;node152 -->
<g id="edge4" class="edge"><title>node151&#45;&gt;node152</title>
<path fill="none" stroke="black" d="M714.924,-74.0209C694.47,-61.9494 666.554,-45.4743 646.293,-33.5172"/>
<polygon fill="black" stroke="black" points="647.968,-30.4417 637.577,-28.3733 644.41,-36.4701 647.968,-30.4417"/>
</g>
<!-- node187 -->
<g id="node6" class="node"><title>node187</title>
<ellipse fill="none" stroke="black" cx="705" cy="-18" rx="27" ry="18"/>
<text text-anchor="middle" x="705" y="-14.7" font-family="Times Roman,serif" font-size="12.00">dl</text>
</g>
<!-- node151&#45;&gt;node187 -->
<g id="edge6" class="edge"><title>node151&#45;&gt;node187</title>
<path fill="none" stroke="black" d="M732.663,-71.8314C728.405,-63.5451 723.28,-53.5727 718.605,-44.4748"/>
<polygon fill="black" stroke="black" points="721.635,-42.7123 713.951,-35.4177 715.408,-45.9118 721.635,-42.7123"/>
</g>
<!-- node179 -->
<g id="node8" class="node"><title>node179</title>
<ellipse fill="none" stroke="black" cx="780" cy="-18" rx="30.0465" ry="18"/>
<text text-anchor="middle" x="780" y="-14.7" font-family="Times Roman,serif" font-size="12.00">crypt</text>
</g>
<!-- node151&#45;&gt;node179 -->
<g id="edge8" class="edge"><title>node151&#45;&gt;node179</title>
<path fill="none" stroke="black" d="M751.589,-71.8314C755.962,-63.5451 761.226,-53.5727 766.027,-44.4748"/>
<polygon fill="black" stroke="black" points="769.235,-45.8952 770.807,-35.4177 763.044,-42.6279 769.235,-45.8952"/>
</g>
<!-- node188 -->
<g id="node10" class="node"><title>node188</title>
<ellipse fill="none" stroke="black" cx="855" cy="-18" rx="27" ry="18"/>
<text text-anchor="middle" x="855" y="-14.7" font-family="Times Roman,serif" font-size="12.00">rt</text>
</g>
<!-- node151&#45;&gt;node188 -->
<g id="edge10" class="edge"><title>node151&#45;&gt;node188</title>
<path fill="none" stroke="black" d="M769.066,-72.7542C786.414,-61.7009 808.898,-47.375 826.516,-36.1494"/>
<polygon fill="black" stroke="black" points="828.679,-38.9209 835.232,-30.5955 824.918,-33.0174 828.679,-38.9209"/>
</g>
<!-- node59&#45;&gt;node151 -->
<g id="edge14" class="edge"><title>node59&#45;&gt;node151</title>
<path fill="none" stroke="black" d="M260.199,-215.987C273.212,-194.868 297.818,-160.64 329,-144 393.752,-109.445 615.502,-95.737 704.548,-91.542"/>
<polygon fill="black" stroke="black" points="704.9,-95.0297 714.729,-91.0769 704.58,-88.037 704.9,-95.0297"/>
</g>
<!-- node153 -->
<g id="node15" class="node"><title>node153</title>
<polygon fill="none" stroke="black" points="392,-180 338,-180 338,-144 392,-144 392,-180"/>
<text text-anchor="middle" x="365" y="-158.7" font-family="Times Roman,serif" font-size="12.00">mp</text>
</g>
<!-- node59&#45;&gt;node153 -->
<g id="edge16" class="edge"><title>node59&#45;&gt;node153</title>
<path fill="none" stroke="black" d="M279.019,-215.831C294.29,-206.271 313.146,-194.465 329.305,-184.348"/>
<polygon fill="black" stroke="black" points="331.346,-187.2 337.965,-178.926 327.632,-181.266 331.346,-187.2"/>
</g>
<!-- node153&#45;&gt;node151 -->
<g id="edge18" class="edge"><title>node153&#45;&gt;node151</title>
<path fill="none" stroke="black" d="M392.431,-148.821C396.897,-147.007 401.526,-145.318 406,-144 511.809,-112.826 641.994,-98.401 704.724,-92.8757"/>
<polygon fill="black" stroke="black" points="705.251,-96.3435 714.917,-92.0046 704.655,-89.369 705.251,-96.3435"/>
</g>
<!-- node160&#45;&gt;node151 -->
<g id="edge28" class="edge"><title>node160&#45;&gt;node151</title>
<path fill="none" stroke="black" d="M1885.1,-431.87C1881,-404.623 1874,-351.463 1874,-306 1874,-306 1874,-306 1874,-234 1874,-120.989 974.69,-95.035 779.208,-90.7284"/>
<polygon fill="black" stroke="black" points="779.216,-87.2279 769.143,-90.5123 779.065,-94.2263 779.216,-87.2279"/>
</g>
<!-- node180 -->
<g id="node20" class="node"><title>node180</title>
<ellipse fill="none" stroke="black" cx="1987" cy="-378" rx="85.1424" ry="18"/>
<text text-anchor="middle" x="1987" y="-374.7" font-family="Times Roman,serif" font-size="12.00">/usr/lib/libxalan&#45;c.so</text>
</g>
<!-- node160&#45;&gt;node180 -->
<g id="edge22" class="edge"><title>node160&#45;&gt;node180</title>
<path fill="none" stroke="black" d="M1912.98,-431.831C1925.69,-422.586 1941.29,-411.241 1954.89,-401.354"/>
<polygon fill="black" stroke="black" points="1957.02,-404.13 1963.05,-395.418 1952.9,-398.469 1957.02,-404.13"/>
</g>
<!-- node181 -->
<g id="node22" class="node"><title>node181</title>
<ellipse fill="none" stroke="black" cx="2183" cy="-378" rx="93.0912" ry="18"/>
<text text-anchor="middle" x="2183" y="-374.7" font-family="Times Roman,serif" font-size="12.00">/usr/lib/libxalanMsg.so</text>
</g>
<!-- node160&#45;&gt;node181 -->
<g id="edge24" class="edge"><title>node160&#45;&gt;node181</title>
<path fill="none" stroke="black" d="M1915.22,-443.355C1960.31,-432.351 2051.79,-410.025 2115.19,-394.55"/>
<polygon fill="black" stroke="black" points="2116.23,-397.9 2125.11,-392.128 2114.57,-391.099 2116.23,-397.9"/>
</g>
<!-- node182 -->
<g id="node24" class="node"><title>node182</title>
<ellipse fill="none" stroke="black" cx="1755" cy="-378" rx="90.9919" ry="18"/>
<text text-anchor="middle" x="1755" y="-374.7" font-family="Times Roman,serif" font-size="12.00">/usr/lib/libxerces&#45;c.so</text>
</g>
<!-- node160&#45;&gt;node182 -->
<g id="edge26" class="edge"><title>node160&#45;&gt;node182</title>
<path fill="none" stroke="black" d="M1860.76,-435.256C1841.88,-425.032 1816.41,-411.245 1795.2,-399.762"/>
<polygon fill="black" stroke="black" points="1796.86,-396.682 1786.4,-394.999 1793.53,-402.838 1796.86,-396.682"/>
</g>
<!-- node110&#45;&gt;node151 -->
<g id="edge38" class="edge"><title>node110&#45;&gt;node151</title>
<path fill="none" stroke="black" d="M1975,-516.511C2062.33,-500.177 2304,-448.596 2304,-378 2304,-378 2304,-378 2304,-234 2304,-154.879 1016.41,-100.727 779.292,-91.4254"/>
<polygon fill="black" stroke="black" points="779.24,-87.9208 769.111,-91.0284 778.967,-94.9155 779.24,-87.9208"/>
</g>
<!-- node110&#45;&gt;node160 -->
<g id="edge40" class="edge"><title>node110&#45;&gt;node160</title>
<path fill="none" stroke="black" d="M1929.87,-503.831C1923.42,-495.539 1915.66,-485.557 1908.57,-476.453"/>
<polygon fill="black" stroke="black" points="1911.22,-474.158 1902.32,-468.413 1905.7,-478.456 1911.22,-474.158"/>
</g>
<!-- node110&#45;&gt;node180 -->
<g id="edge32" class="edge"><title>node110&#45;&gt;node180</title>
<path fill="none" stroke="black" d="M1949.45,-503.762C1956.81,-479.093 1970.02,-434.86 1978.65,-405.973"/>
<polygon fill="black" stroke="black" points="1982.09,-406.673 1981.6,-396.09 1975.38,-404.67 1982.09,-406.673"/>
</g>
<!-- node110&#45;&gt;node181 -->
<g id="edge34" class="edge"><title>node110&#45;&gt;node181</title>
<path fill="none" stroke="black" d="M1974.27,-503.762C2017.93,-477.456 2098.51,-428.904 2145.76,-400.436"/>
<polygon fill="black" stroke="black" points="2147.7,-403.352 2154.46,-395.193 2144.09,-397.356 2147.7,-403.352"/>
</g>
<!-- node110&#45;&gt;node182 -->
<g id="edge36" class="edge"><title>node110&#45;&gt;node182</title>
<path fill="none" stroke="black" d="M1912.69,-505.842C1894.38,-495.856 1871.17,-482.256 1852,-468 1825.31,-448.154 1797.78,-421.969 1778.9,-402.964"/>
<polygon fill="black" stroke="black" points="1781.37,-400.482 1771.86,-395.806 1776.38,-405.39 1781.37,-400.482"/>
</g>
<!-- node66&#45;&gt;node151 -->
<g id="edge44" class="edge"><title>node66&#45;&gt;node151</title>
<path fill="none" stroke="black" d="M400.183,-287.806C406.574,-268.088 419.101,-236.677 439,-216 513.283,-138.814 641.91,-107.038 704.975,-95.6065"/>
<polygon fill="black" stroke="black" points="705.626,-99.0459 714.877,-93.8821 704.425,-92.1497 705.626,-99.0459"/>
</g>
<!-- node66&#45;&gt;node59 -->
<g id="edge54" class="edge"><title>node66&#45;&gt;node59</title>
<path fill="none" stroke="black" d="M363.894,-290.554C341.708,-279.538 311.745,-264.66 288.12,-252.929"/>
<polygon fill="black" stroke="black" points="289.593,-249.752 279.08,-248.44 286.48,-256.022 289.593,-249.752"/>
</g>
<!-- node66&#45;&gt;node153 -->
<g id="edge46" class="edge"><title>node66&#45;&gt;node153</title>
<path fill="none" stroke="black" d="M391.2,-287.762C386.061,-263.093 376.846,-218.86 370.828,-189.973"/>
<polygon fill="black" stroke="black" points="374.235,-189.166 368.769,-180.09 367.382,-190.593 374.235,-189.166"/>
</g>
<!-- node149 -->
<g id="node38" class="node"><title>node149</title>
<polygon fill="none" stroke="black" points="502,-252 448,-252 448,-216 502,-216 502,-252"/>
<text text-anchor="middle" x="475" y="-230.7" font-family="Times Roman,serif" font-size="12.00">hrpc</text>
</g>
<!-- node66&#45;&gt;node149 -->
<g id="edge48" class="edge"><title>node66&#45;&gt;node149</title>
<path fill="none" stroke="black" d="M415.187,-287.831C424.851,-279.134 436.58,-268.578 447.082,-259.127"/>
<polygon fill="black" stroke="black" points="449.728,-261.454 454.819,-252.163 445.045,-256.251 449.728,-261.454"/>
</g>
<!-- node149&#45;&gt;node151 -->
<g id="edge50" class="edge"><title>node149&#45;&gt;node151</title>
<path fill="none" stroke="black" d="M502.071,-219.4C550.447,-193.31 651.732,-138.684 705.941,-109.447"/>
<polygon fill="black" stroke="black" points="707.718,-112.466 714.858,-104.639 704.395,-106.305 707.718,-112.466"/>
</g>
<!-- node149&#45;&gt;node153 -->
<g id="edge52" class="edge"><title>node149&#45;&gt;node153</title>
<path fill="none" stroke="black" d="M447.809,-216.202C433.662,-206.943 416.184,-195.502 400.937,-185.522"/>
<polygon fill="black" stroke="black" points="402.543,-182.391 392.259,-179.843 398.71,-188.248 402.543,-182.391"/>
</g>
<!-- node55&#45;&gt;node151 -->
<g id="edge58" class="edge"><title>node55&#45;&gt;node151</title>
<path fill="none" stroke="black" d="M147.824,-359.872C146.69,-327.534 148.774,-259.245 182,-216 215.587,-172.286 231.568,-163.843 283,-144 360.025,-114.283 609.811,-97.4488 704.839,-91.9878"/>
<polygon fill="black" stroke="black" points="705.07,-95.4805 714.856,-91.4216 704.674,-88.4916 705.07,-95.4805"/>
</g>
<!-- node55&#45;&gt;node59 -->
<g id="edge62" class="edge"><title>node55&#45;&gt;node59</title>
<path fill="none" stroke="black" d="M167.268,-359.849C176.961,-349.746 188.747,-336.68 198,-324 212.584,-304.015 226.461,-279.622 236.206,-261.275"/>
<polygon fill="black" stroke="black" points="239.374,-262.771 240.907,-252.287 233.171,-259.526 239.374,-262.771"/>
</g>
<!-- node55&#45;&gt;node153 -->
<g id="edge60" class="edge"><title>node55&#45;&gt;node153</title>
<path fill="none" stroke="black" d="M151.079,-359.989C155.833,-326.914 170.497,-256.212 212,-216 243.626,-185.358 293.68,-172.003 327.863,-166.248"/>
<polygon fill="black" stroke="black" points="328.575,-169.68 337.924,-164.696 327.507,-162.762 328.575,-169.68"/>
</g>
<!-- node55&#45;&gt;node66 -->
<g id="edge64" class="edge"><title>node55&#45;&gt;node66</title>
<path fill="none" stroke="black" d="M194.12,-364.794C239.803,-351.424 309.833,-330.927 353.986,-318.004"/>
<polygon fill="black" stroke="black" points="355.195,-321.297 363.809,-315.129 353.228,-314.579 355.195,-321.297"/>
</g>
<!-- node78&#45;&gt;node151 -->
<g id="edge68" class="edge"><title>node78&#45;&gt;node151</title>
<path fill="none" stroke="black" d="M232.741,-445.052C190.245,-436.722 111.364,-418.573 95,-396 22.6344,-296.174 104.49,-206.109 211,-144 253.499,-119.217 590.914,-98.3905 704.69,-92.0113"/>
<polygon fill="black" stroke="black" points="704.886,-95.5059 714.676,-91.4564 704.497,-88.5167 704.886,-95.5059"/>
</g>
<!-- node78&#45;&gt;node59 -->
<g id="edge74" class="edge"><title>node78&#45;&gt;node59</title>
<path fill="none" stroke="black" d="M254.03,-431.732C250.959,-421.376 247.544,-408.105 246,-396 240.053,-349.364 243.574,-294.583 246.737,-262.163"/>
<polygon fill="black" stroke="black" points="250.233,-262.377 247.782,-252.07 243.271,-261.657 250.233,-262.377"/>
</g>
<!-- node78&#45;&gt;node153 -->
<g id="edge70" class="edge"><title>node78&#45;&gt;node153</title>
<path fill="none" stroke="black" d="M266.568,-431.984C284.357,-383.193 333.559,-248.238 354.904,-189.693"/>
<polygon fill="black" stroke="black" points="358.297,-190.603 358.434,-180.009 351.721,-188.205 358.297,-190.603"/>
</g>
<!-- node78&#45;&gt;node66 -->
<g id="edge76" class="edge"><title>node78&#45;&gt;node66</title>
<path fill="none" stroke="black" d="M277.098,-431.762C300.834,-406.444 343.889,-360.518 370.883,-331.725"/>
<polygon fill="black" stroke="black" points="373.755,-333.779 378.041,-324.09 368.648,-328.991 373.755,-333.779"/>
</g>
<!-- node78&#45;&gt;node149 -->
<g id="edge72" class="edge"><title>node78&#45;&gt;node149</title>
<path fill="none" stroke="black" d="M287.065,-436.806C324.948,-417.096 393.759,-376.582 435,-324 449.58,-305.411 460.074,-280.671 466.645,-261.834"/>
<polygon fill="black" stroke="black" points="469.974,-262.914 469.809,-252.32 463.332,-260.705 469.974,-262.914"/>
</g>
<!-- node78&#45;&gt;node55 -->
<g id="edge78" class="edge"><title>node78&#45;&gt;node55</title>
<path fill="none" stroke="black" d="M232.846,-432.387C218.682,-423.199 201.151,-411.827 185.786,-401.861"/>
<polygon fill="black" stroke="black" points="187.327,-398.689 177.032,-396.183 183.517,-404.561 187.327,-398.689"/>
</g>
<!-- node54&#45;&gt;node151 -->
<g id="edge84" class="edge"><title>node54&#45;&gt;node151</title>
<path fill="none" stroke="black" d="M888.127,-446.927C967.258,-439.253 1162.12,-418.26 1181,-396 1191.35,-383.797 1191.65,-371.943 1181,-360 1134.41,-307.741 925.955,-363.283 868,-324 795.082,-274.575 760.846,-168.722 748.151,-118.097"/>
<polygon fill="black" stroke="black" points="751.506,-117.076 745.763,-108.172 744.7,-118.714 751.506,-117.076"/>
</g>
<!-- node54&#45;&gt;node59 -->
<g id="edge106" class="edge"><title>node54&#45;&gt;node59</title>
<path fill="none" stroke="black" d="M821.93,-448.434C734.04,-443.866 496.556,-428.753 426,-396 358.522,-364.676 299.3,-297.865 269.821,-260.57"/>
<polygon fill="black" stroke="black" points="272.217,-257.949 263.316,-252.203 266.69,-262.246 272.217,-257.949"/>
</g>
<!-- node54&#45;&gt;node153 -->
<g id="edge86" class="edge"><title>node54&#45;&gt;node153</title>
<path fill="none" stroke="black" d="M843.591,-431.821C830.778,-412.401 808.542,-381.517 784,-360 664.586,-255.305 480.219,-194.346 402.055,-171.92"/>
<polygon fill="black" stroke="black" points="402.76,-168.483 392.185,-169.132 400.857,-175.219 402.76,-168.483"/>
</g>
<!-- node54&#45;&gt;node66 -->
<g id="edge108" class="edge"><title>node54&#45;&gt;node66</title>
<path fill="none" stroke="black" d="M821.749,-448.43C739.601,-444.069 529.356,-429.826 469,-396 443.022,-381.441 422.451,-353.864 409.658,-333.056"/>
<polygon fill="black" stroke="black" points="412.6,-331.154 404.498,-324.327 406.574,-334.717 412.6,-331.154"/>
</g>
<!-- node54&#45;&gt;node149 -->
<g id="edge88" class="edge"><title>node54&#45;&gt;node149</title>
<path fill="none" stroke="black" d="M833.88,-431.944C803.626,-406.096 751.309,-361.472 749,-360 669.404,-309.264 566.032,-267.5 511.843,-247.233"/>
<polygon fill="black" stroke="black" points="512.907,-243.895 502.314,-243.701 510.475,-250.458 512.907,-243.895"/>
</g>
<!-- node54&#45;&gt;node55 -->
<g id="edge110" class="edge"><title>node54&#45;&gt;node55</title>
<path fill="none" stroke="black" d="M821.939,-446.682C738.248,-438.275 511.207,-415.428 322,-396 282.663,-391.961 238.302,-387.344 204.35,-383.797"/>
<polygon fill="black" stroke="black" points="204.474,-380.291 194.164,-382.733 203.746,-387.254 204.474,-380.291"/>
</g>
<!-- node176 -->
<g id="node59" class="node"><title>node176</title>
<ellipse fill="none" stroke="black" cx="609" cy="-378" rx="130.789" ry="18"/>
<text text-anchor="middle" x="609" y="-374.7" font-family="Times Roman,serif" font-size="12.00">/usr/lib/x86_64&#45;linux&#45;gnu/libz.so</text>
</g>
<!-- node54&#45;&gt;node176 -->
<g id="edge82" class="edge"><title>node54&#45;&gt;node176</title>
<path fill="none" stroke="black" d="M821.823,-440.29C784.357,-429.324 722.443,-411.203 675.027,-397.325"/>
<polygon fill="black" stroke="black" points="675.724,-393.882 665.143,-394.432 673.758,-400.6 675.724,-393.882"/>
</g>
<!-- node54&#45;&gt;node146 -->
<g id="edge90" class="edge"><title>node54&#45;&gt;node146</title>
<path fill="none" stroke="black" d="M888.163,-445.021C951.493,-435.511 1094.03,-414.096 1214,-396 1241.23,-391.892 1271.97,-387.242 1295.38,-383.698"/>
<polygon fill="black" stroke="black" points="1296.22,-387.111 1305.59,-382.153 1295.18,-380.19 1296.22,-387.111"/>
</g>
<!-- node177 -->
<g id="node81" class="node"><title>node177</title>
<ellipse fill="none" stroke="black" cx="905" cy="-378" rx="70.8437" ry="18"/>
<text text-anchor="middle" x="905" y="-374.7" font-family="Times Roman,serif" font-size="12.00">/usr/lib/libbfd.so</text>
</g>
<!-- node54&#45;&gt;node177 -->
<g id="edge112" class="edge"><title>node54&#45;&gt;node177</title>
<path fill="none" stroke="black" d="M867.617,-431.831C873.405,-423.497 880.377,-413.457 886.725,-404.316"/>
<polygon fill="black" stroke="black" points="889.731,-406.124 892.56,-395.913 883.981,-402.131 889.731,-406.124"/>
</g>
<!-- node178 -->
<g id="node83" class="node"><title>node178</title>
<ellipse fill="none" stroke="black" cx="1083" cy="-378" rx="89.0421" ry="18"/>
<text text-anchor="middle" x="1083" y="-374.7" font-family="Times Roman,serif" font-size="12.00">/usr/lib/libiberty_pic.a</text>
</g>
<!-- node54&#45;&gt;node178 -->
<g id="edge114" class="edge"><title>node54&#45;&gt;node178</title>
<path fill="none" stroke="black" d="M888.153,-439.531C923.978,-428.218 981.748,-409.974 1025.1,-396.284"/>
<polygon fill="black" stroke="black" points="1026.19,-399.61 1034.67,-393.261 1024.08,-392.935 1026.19,-399.61"/>
</g>
<!-- node146&#45;&gt;node151 -->
<g id="edge100" class="edge"><title>node146&#45;&gt;node151</title>
<path fill="none" stroke="black" d="M1305.65,-365.15C1300.54,-363.153 1295.18,-361.318 1290,-360 1214.02,-340.653 997.987,-375.658 939,-324 877.123,-269.811 951.097,-205.07 896,-144 866.073,-110.828 814.584,-98.0336 779.451,-93.0985"/>
<polygon fill="black" stroke="black" points="779.472,-89.5739 769.115,-91.8054 778.603,-96.5198 779.472,-89.5739"/>
</g>
<!-- node186 -->
<g id="node66" class="node"><title>node186</title>
<ellipse fill="none" stroke="black" cx="1067" cy="-306" rx="118.939" ry="18"/>
<text text-anchor="middle" x="1067" y="-302.7" font-family="Times Roman,serif" font-size="12.00">/usr/lib/libboost_regex&#45;mt.so</text>
</g>
<!-- node146&#45;&gt;node186 -->
<g id="edge92" class="edge"><title>node146&#45;&gt;node186</title>
<path fill="none" stroke="black" d="M1305.95,-365.911C1300.71,-363.79 1295.23,-361.716 1290,-360 1244.01,-344.912 1191.44,-331.981 1148.89,-322.559"/>
<polygon fill="black" stroke="black" points="1149.38,-319.083 1138.86,-320.361 1147.88,-325.921 1149.38,-319.083"/>
</g>
<!-- node183 -->
<g id="node68" class="node"><title>node183</title>
<ellipse fill="none" stroke="black" cx="1282" cy="-306" rx="77.9931" ry="18"/>
<text text-anchor="middle" x="1282" y="-302.7" font-family="Times Roman,serif" font-size="12.00">/usr/lib/libicuuc.so</text>
</g>
<!-- node146&#45;&gt;node183 -->
<g id="edge94" class="edge"><title>node146&#45;&gt;node183</title>
<path fill="none" stroke="black" d="M1320.13,-359.831C1314.23,-351.497 1307.12,-341.457 1300.64,-332.316"/>
<polygon fill="black" stroke="black" points="1303.32,-330.051 1294.69,-323.913 1297.61,-334.097 1303.32,-330.051"/>
</g>
<!-- node184 -->
<g id="node70" class="node"><title>node184</title>
<ellipse fill="none" stroke="black" cx="1463" cy="-306" rx="85.1424" ry="18"/>
<text text-anchor="middle" x="1463" y="-302.7" font-family="Times Roman,serif" font-size="12.00">/usr/lib/libicui18n.so</text>
</g>
<!-- node146&#45;&gt;node184 -->
<g id="edge96" class="edge"><title>node146&#45;&gt;node184</title>
<path fill="none" stroke="black" d="M1360.25,-362.906C1378.67,-352.705 1403.28,-339.076 1423.79,-327.714"/>
<polygon fill="black" stroke="black" points="1425.55,-330.744 1432.6,-322.837 1422.16,-324.62 1425.55,-330.744"/>
</g>
<!-- node185 -->
<g id="node72" class="node"><title>node185</title>
<ellipse fill="none" stroke="black" cx="1651" cy="-306" rx="85.1424" ry="18"/>
<text text-anchor="middle" x="1651" y="-302.7" font-family="Times Roman,serif" font-size="12.00">/usr/lib/libicudata.so</text>
</g>
<!-- node146&#45;&gt;node185 -->
<g id="edge98" class="edge"><title>node146&#45;&gt;node185</title>
<path fill="none" stroke="black" d="M1360.45,-365.54C1365.56,-363.503 1370.89,-361.554 1376,-360 1380.9,-358.511 1498.21,-335.64 1578.02,-320.145"/>
<polygon fill="black" stroke="black" points="1578.89,-323.542 1588.04,-318.2 1577.56,-316.67 1578.89,-323.542"/>
</g>
<!-- node146&#45;&gt;node147 -->
<g id="edge102" class="edge"><title>node146&#45;&gt;node147</title>
<path fill="none" stroke="black" d="M1360.34,-365.129C1365.45,-363.134 1370.82,-361.305 1376,-360 1532.66,-320.523 1584.63,-367.695 1744.24,-323.583"/>
<polygon fill="black" stroke="black" points="1745.24,-326.936 1753.9,-320.837 1743.33,-320.202 1745.24,-326.936"/>
</g>
<!-- node147&#45;&gt;node151 -->
<g id="edge104" class="edge"><title>node147&#45;&gt;node151</title>
<path fill="none" stroke="black" d="M1753.81,-291.458C1750.88,-290.178 1747.91,-288.994 1745,-288 1380.33,-163.387 912.758,-107.724 779.144,-93.691"/>
<polygon fill="black" stroke="black" points="779.34,-90.1926 769.032,-92.6419 778.617,-97.1553 779.34,-90.1926"/>
</g>
<!-- node53&#45;&gt;node151 -->
<g id="edge122" class="edge"><title>node53&#45;&gt;node151</title>
<path fill="none" stroke="black" d="M1478.19,-436.021C1526.77,-413.674 1620.34,-371.27 1655,-360 1725.14,-337.191 1770.85,-381.533 1817,-324 1827.01,-311.519 1826.55,-300.837 1817,-288 1689.47,-116.594 954.675,-93.534 779.49,-90.4655"/>
<polygon fill="black" stroke="black" points="779.289,-86.9619 769.233,-90.2979 779.175,-93.9609 779.289,-86.9619"/>
</g>
<!-- node53&#45;&gt;node146 -->
<g id="edge126" class="edge"><title>node53&#45;&gt;node146</title>
<path fill="none" stroke="black" d="M1418.98,-431.831C1403.71,-422.271 1384.85,-410.465 1368.69,-400.348"/>
<polygon fill="black" stroke="black" points="1370.37,-397.266 1360.04,-394.926 1366.65,-403.2 1370.37,-397.266"/>
</g>
<!-- node53&#45;&gt;node147 -->
<g id="edge124" class="edge"><title>node53&#45;&gt;node147</title>
<path fill="none" stroke="black" d="M1470.11,-431.643C1495.87,-411.172 1540.49,-378.513 1584,-360 1648.57,-332.526 1673.74,-347.177 1744.04,-323.847"/>
<polygon fill="black" stroke="black" points="1745.48,-327.049 1753.78,-320.467 1743.19,-320.436 1745.48,-327.049"/>
</g>
<!-- node64&#45;&gt;node151 -->
<g id="edge130" class="edge"><title>node64&#45;&gt;node151</title>
<path fill="none" stroke="black" d="M1275.63,-503.751C1273.77,-468.24 1263.91,-390.651 1214,-360 1098.81,-289.264 1028.59,-392.401 912,-324 890.321,-311.281 798.563,-175.318 759.607,-116.674"/>
<polygon fill="black" stroke="black" points="762.485,-114.681 754.042,-108.281 756.651,-118.549 762.485,-114.681"/>
</g>
<!-- node64&#45;&gt;node66 -->
<g id="edge132" class="edge"><title>node64&#45;&gt;node66</title>
<path fill="none" stroke="black" d="M1271.44,-503.957C1261.6,-469.165 1234.77,-393.304 1181,-360 1149.1,-340.244 594.271,-314.676 436.524,-307.779"/>
<polygon fill="black" stroke="black" points="436.433,-304.272 426.291,-307.334 436.129,-311.265 436.433,-304.272"/>
</g>
<!-- node64&#45;&gt;node54 -->
<g id="edge134" class="edge"><title>node64&#45;&gt;node54</title>
<path fill="none" stroke="black" d="M1241.9,-516.169C1165.8,-503.153 982.183,-471.751 898.215,-457.391"/>
<polygon fill="black" stroke="black" points="898.69,-453.921 888.243,-455.685 897.51,-460.821 898.69,-453.921"/>
</g>
<!-- node64&#45;&gt;node146 -->
<g id="edge138" class="edge"><title>node64&#45;&gt;node146</title>
<path fill="none" stroke="black" d="M1283.22,-503.762C1293.03,-478.985 1310.65,-434.471 1322.08,-405.594"/>
<polygon fill="black" stroke="black" points="1325.41,-406.676 1325.84,-396.09 1318.9,-404.099 1325.41,-406.676"/>
</g>
<!-- node64&#45;&gt;node147 -->
<g id="edge136" class="edge"><title>node64&#45;&gt;node147</title>
<path fill="none" stroke="black" d="M1302.71,-503.845C1329.54,-485.63 1372.09,-456.795 1409,-432 1456.89,-399.834 1463.26,-380.985 1517,-360 1609.57,-323.848 1645.07,-353.337 1744.07,-323.713"/>
<polygon fill="black" stroke="black" points="1745.35,-326.98 1753.85,-320.657 1743.26,-320.298 1745.35,-326.98"/>
</g>
<!-- node64&#45;&gt;node53 -->
<g id="edge140" class="edge"><title>node64&#45;&gt;node53</title>
<path fill="none" stroke="black" d="M1310.39,-507.603C1338.79,-495.716 1379.1,-478.843 1408.75,-466.43"/>
<polygon fill="black" stroke="black" points="1410.1,-469.658 1417.98,-462.568 1407.4,-463.201 1410.1,-469.658"/>
</g>
</g>
</svg>
