<?xml version="1.0" encoding="UTF-8" standalone="no"?>
<!DOCTYPE svg PUBLIC "-//W3C//DTD SVG 1.1//EN"
 "http://www.w3.org/Graphics/SVG/1.1/DTD/svg11.dtd">
<!-- Generated by graphviz version 2.26.3 (20100126.1600)
 -->
<!-- Title: GG Pages: 1 -->
<svg width="789pt" height="260pt"
 viewBox="0.00 0.00 789.00 260.00" xmlns="http://www.w3.org/2000/svg" xmlns:xlink="http://www.w3.org/1999/xlink">
<g id="graph1" class="graph" transform="scale(1 1) rotate(0) translate(4 256)">
<title>GG</title>
<polygon fill="white" stroke="white" points="-4,5 -4,-256 786,-256 786,5 -4,5"/>
<!-- node161 -->
<g id="node1" class="node"><title>node161</title>
<polygon fill="none" stroke="black" points="316.843,-239.562 259,-252 201.157,-239.562 201.211,-219.438 316.789,-219.438 316.843,-239.562"/>
<text text-anchor="middle" x="259" y="-230.7" font-family="Times Roman,serif" font-size="12.00">xmllibtest</text>
</g>
<!-- node151 -->
<g id="node2" class="node"><title>node151</title>
<polygon fill="none" stroke="black" points="189,-108 135,-108 135,-72 189,-72 189,-108"/>
<text text-anchor="middle" x="162" y="-86.7" font-family="Times Roman,serif" font-size="12.00">jlib</text>
</g>
<!-- node161&#45;&gt;node151 -->
<g id="edge2" class="edge"><title>node161&#45;&gt;node151</title>
<path fill="none" stroke="black" d="M249.165,-219.4C232.946,-195.321 200.354,-146.938 179.943,-116.638"/>
<polygon fill="black" stroke="black" points="182.773,-114.573 174.283,-108.234 176.967,-118.484 182.773,-114.573"/>
</g>
<!-- node160 -->
<g id="node12" class="node"><title>node160</title>
<polygon fill="none" stroke="black" points="319,-180 265,-180 265,-144 319,-144 319,-180"/>
<text text-anchor="middle" x="292" y="-158.7" font-family="Times Roman,serif" font-size="12.00">xmllib</text>
</g>
<!-- node161&#45;&gt;node160 -->
<g id="edge12" class="edge"><title>node161&#45;&gt;node160</title>
<path fill="none" stroke="black" d="M265.678,-219.43C269.617,-210.835 274.731,-199.679 279.401,-189.488"/>
<polygon fill="black" stroke="black" points="282.706,-190.677 283.691,-180.128 276.343,-187.76 282.706,-190.677"/>
</g>
<!-- node152 -->
<g id="node4" class="node"><title>node152</title>
<polygon fill="none" stroke="black" points="40,-36 0.0563759,-18 40,-3.55271e-15 79.9436,-18 40,-36"/>
<text text-anchor="middle" x="40" y="-14.7" font-family="Times Roman,serif" font-size="12.00">lzma</text>
</g>
<!-- node151&#45;&gt;node152 -->
<g id="edge4" class="edge"><title>node151&#45;&gt;node152</title>
<path fill="none" stroke="black" d="M134.924,-74.0209C114.47,-61.9494 86.5536,-45.4743 66.293,-33.5172"/>
<polygon fill="black" stroke="black" points="67.968,-30.4417 57.577,-28.3733 64.4102,-36.4701 67.968,-30.4417"/>
</g>
<!-- node187 -->
<g id="node6" class="node"><title>node187</title>
<ellipse fill="none" stroke="black" cx="125" cy="-18" rx="27" ry="18"/>
<text text-anchor="middle" x="125" y="-14.7" font-family="Times Roman,serif" font-size="12.00">dl</text>
</g>
<!-- node151&#45;&gt;node187 -->
<g id="edge6" class="edge"><title>node151&#45;&gt;node187</title>
<path fill="none" stroke="black" d="M152.663,-71.8314C148.405,-63.5451 143.28,-53.5727 138.605,-44.4748"/>
<polygon fill="black" stroke="black" points="141.635,-42.7123 133.951,-35.4177 135.408,-45.9118 141.635,-42.7123"/>
</g>
<!-- node179 -->
<g id="node8" class="node"><title>node179</title>
<ellipse fill="none" stroke="black" cx="200" cy="-18" rx="30.0465" ry="18"/>
<text text-anchor="middle" x="200" y="-14.7" font-family="Times Roman,serif" font-size="12.00">crypt</text>
</g>
<!-- node151&#45;&gt;node179 -->
<g id="edge8" class="edge"><title>node151&#45;&gt;node179</title>
<path fill="none" stroke="black" d="M171.589,-71.8314C175.962,-63.5451 181.226,-53.5727 186.027,-44.4748"/>
<polygon fill="black" stroke="black" points="189.235,-45.8952 190.807,-35.4177 183.044,-42.6279 189.235,-45.8952"/>
</g>
<!-- node188 -->
<g id="node10" class="node"><title>node188</title>
<ellipse fill="none" stroke="black" cx="275" cy="-18" rx="27" ry="18"/>
<text text-anchor="middle" x="275" y="-14.7" font-family="Times Roman,serif" font-size="12.00">rt</text>
</g>
<!-- node151&#45;&gt;node188 -->
<g id="edge10" class="edge"><title>node151&#45;&gt;node188</title>
<path fill="none" stroke="black" d="M189.066,-72.7542C206.414,-61.7009 228.898,-47.375 246.516,-36.1494"/>
<polygon fill="black" stroke="black" points="248.679,-38.9209 255.232,-30.5955 244.918,-33.0174 248.679,-38.9209"/>
</g>
<!-- node160&#45;&gt;node151 -->
<g id="edge20" class="edge"><title>node160&#45;&gt;node151</title>
<path fill="none" stroke="black" d="M264.748,-146.906C245.421,-136.202 219.28,-121.724 198.202,-110.051"/>
<polygon fill="black" stroke="black" points="199.66,-106.857 189.216,-105.074 196.269,-112.981 199.66,-106.857"/>
</g>
<!-- node180 -->
<g id="node14" class="node"><title>node180</title>
<ellipse fill="none" stroke="black" cx="292" cy="-90" rx="85.1424" ry="18"/>
<text text-anchor="middle" x="292" y="-86.7" font-family="Times Roman,serif" font-size="12.00">/usr/lib/libxalan&#45;c.so</text>
</g>
<!-- node160&#45;&gt;node180 -->
<g id="edge14" class="edge"><title>node160&#45;&gt;node180</title>
<path fill="none" stroke="black" d="M292,-143.831C292,-136.131 292,-126.974 292,-118.417"/>
<polygon fill="black" stroke="black" points="295.5,-118.413 292,-108.413 288.5,-118.413 295.5,-118.413"/>
</g>
<!-- node181 -->
<g id="node16" class="node"><title>node181</title>
<ellipse fill="none" stroke="black" cx="488" cy="-90" rx="93.0912" ry="18"/>
<text text-anchor="middle" x="488" y="-86.7" font-family="Times Roman,serif" font-size="12.00">/usr/lib/libxalanMsg.so</text>
</g>
<!-- node160&#45;&gt;node181 -->
<g id="edge16" class="edge"><title>node160&#45;&gt;node181</title>
<path fill="none" stroke="black" d="M319.253,-151.989C348.993,-141.064 397.345,-123.302 434.685,-109.585"/>
<polygon fill="black" stroke="black" points="436.23,-112.746 444.41,-106.013 433.816,-106.176 436.23,-112.746"/>
</g>
<!-- node182 -->
<g id="node18" class="node"><title>node182</title>
<ellipse fill="none" stroke="black" cx="690" cy="-90" rx="90.9919" ry="18"/>
<text text-anchor="middle" x="690" y="-86.7" font-family="Times Roman,serif" font-size="12.00">/usr/lib/libxerces&#45;c.so</text>
</g>
<!-- node160&#45;&gt;node182 -->
<g id="edge18" class="edge"><title>node160&#45;&gt;node182</title>
<path fill="none" stroke="black" d="M319.043,-157.108C378.572,-146.339 522.802,-120.247 612.87,-103.953"/>
<polygon fill="black" stroke="black" points="613.546,-107.388 622.764,-102.163 612.3,-100.5 613.546,-107.388"/>
</g>
</g>
</svg>
