<?xml version="1.0" encoding="UTF-8" standalone="no"?>
<!DOCTYPE svg PUBLIC "-//W3C//DTD SVG 1.1//EN"
 "http://www.w3.org/Graphics/SVG/1.1/DTD/svg11.dtd">
<!-- Generated by graphviz version 2.26.3 (20100126.1600)
 -->
<!-- Title: GG Pages: 1 -->
<svg width="2382pt" height="620pt"
 viewBox="0.00 0.00 2382.00 620.00" xmlns="http://www.w3.org/2000/svg" xmlns:xlink="http://www.w3.org/1999/xlink">
<g id="graph1" class="graph" transform="scale(1 1) rotate(0) translate(4 616)">
<title>GG</title>
<polygon fill="white" stroke="white" points="-4,5 -4,-616 2379,-616 2379,5 -4,5"/>
<!-- node100 -->
<g id="node1" class="node"><title>node100</title>
<polygon fill="none" stroke="black" points="950,-612 894,-612 894,-576 950,-576 950,-612"/>
<text text-anchor="middle" x="922" y="-590.7" font-family="Times Roman,serif" font-size="12.00">hqlcpp</text>
</g>
<!-- node151 -->
<g id="node2" class="node"><title>node151</title>
<polygon fill="none" stroke="black" points="1418,-108 1364,-108 1364,-72 1418,-72 1418,-108"/>
<text text-anchor="middle" x="1391" y="-86.7" font-family="Times Roman,serif" font-size="12.00">jlib</text>
</g>
<!-- node100&#45;&gt;node151 -->
<g id="edge2" class="edge"><title>node100&#45;&gt;node151</title>
<path fill="none" stroke="black" d="M893.903,-592.653C739.383,-584.883 0,-542.852 0,-450 0,-450 0,-450 0,-234 0,-189.279 7.43673,-168.269 45,-144 101.445,-107.531 1141.85,-93.0155 1353.58,-90.4329"/>
<polygon fill="black" stroke="black" points="1353.91,-93.9293 1363.86,-90.3089 1353.82,-86.9298 1353.91,-93.9293"/>
</g>
<!-- node147 -->
<g id="node12" class="node"><title>node147</title>
<polygon fill="none" stroke="black" points="530,-324 476,-324 476,-288 530,-288 530,-324"/>
<text text-anchor="middle" x="503" y="-302.7" font-family="Times Roman,serif" font-size="12.00">nbcd</text>
</g>
<!-- node100&#45;&gt;node147 -->
<g id="edge12" class="edge"><title>node100&#45;&gt;node147</title>
<path fill="none" stroke="black" d="M893.674,-588.551C850.348,-579.659 770.572,-560.911 751,-540 694.723,-479.872 764.935,-418.531 707,-360 661.501,-314.033 628.434,-340.886 566,-324 557.555,-321.716 548.499,-319.18 539.96,-316.749"/>
<polygon fill="black" stroke="black" points="540.819,-313.355 530.242,-313.966 538.891,-320.084 540.819,-313.355"/>
</g>
<!-- node146 -->
<g id="node15" class="node"><title>node146</title>
<polygon fill="none" stroke="black" points="1038,-396 984,-396 984,-360 1038,-360 1038,-396"/>
<text text-anchor="middle" x="1011" y="-374.7" font-family="Times Roman,serif" font-size="12.00">eclrtl</text>
</g>
<!-- node100&#45;&gt;node146 -->
<g id="edge16" class="edge"><title>node100&#45;&gt;node146</title>
<path fill="none" stroke="black" d="M935.975,-575.759C943.26,-565.63 951.897,-552.568 958,-540 979.813,-495.084 995.897,-438.997 1004.33,-405.98"/>
<polygon fill="black" stroke="black" points="1007.76,-406.664 1006.79,-396.114 1000.97,-404.967 1007.76,-406.664"/>
</g>
<!-- node53 -->
<g id="node27" class="node"><title>node53</title>
<polygon fill="none" stroke="black" points="890,-468 830,-468 830,-432 890,-432 890,-468"/>
<text text-anchor="middle" x="860" y="-446.7" font-family="Times Roman,serif" font-size="12.00">deftype</text>
</g>
<!-- node100&#45;&gt;node53 -->
<g id="edge30" class="edge"><title>node100&#45;&gt;node53</title>
<path fill="none" stroke="black" d="M907.849,-575.843C900.513,-565.738 891.883,-552.673 886,-540 876.783,-520.146 870.071,-496.293 865.778,-478.132"/>
<polygon fill="black" stroke="black" points="869.146,-477.155 863.529,-468.171 862.317,-478.696 869.146,-477.155"/>
</g>
<!-- node63 -->
<g id="node32" class="node"><title>node63</title>
<polygon fill="none" stroke="black" points="836,-540 760,-540 760,-504 836,-504 836,-540"/>
<text text-anchor="middle" x="798" y="-518.7" font-family="Times Roman,serif" font-size="12.00">thorhelper</text>
</g>
<!-- node100&#45;&gt;node63 -->
<g id="edge38" class="edge"><title>node100&#45;&gt;node63</title>
<path fill="none" stroke="black" d="M893.862,-577.662C877.283,-568.035 856.042,-555.702 837.771,-545.093"/>
<polygon fill="black" stroke="black" points="839.478,-542.037 829.073,-540.042 835.963,-548.091 839.478,-542.037"/>
</g>
<!-- node99 -->
<g id="node45" class="node"><title>node99</title>
<polygon fill="none" stroke="black" points="949,-540 895,-540 895,-504 949,-504 949,-540"/>
<text text-anchor="middle" x="922" y="-518.7" font-family="Times Roman,serif" font-size="12.00">hql</text>
</g>
<!-- node100&#45;&gt;node99 -->
<g id="edge56" class="edge"><title>node100&#45;&gt;node99</title>
<path fill="none" stroke="black" d="M922,-575.831C922,-568.131 922,-558.974 922,-550.417"/>
<polygon fill="black" stroke="black" points="925.5,-550.413 922,-540.413 918.5,-550.413 925.5,-550.413"/>
</g>
<!-- node64 -->
<g id="node51" class="node"><title>node64</title>
<polygon fill="none" stroke="black" points="1436,-540 1368,-540 1368,-504 1436,-504 1436,-540"/>
<text text-anchor="middle" x="1402" y="-518.7" font-family="Times Roman,serif" font-size="12.00">workunit</text>
</g>
<!-- node100&#45;&gt;node64 -->
<g id="edge66" class="edge"><title>node100&#45;&gt;node64</title>
<path fill="none" stroke="black" d="M950.234,-589.765C1030.51,-577.724 1260.5,-543.225 1357.74,-528.639"/>
<polygon fill="black" stroke="black" points="1358.46,-532.071 1367.83,-527.126 1357.42,-525.148 1358.46,-532.071"/>
</g>
<!-- node177 -->
<g id="node84" class="node"><title>node177</title>
<ellipse fill="none" stroke="black" cx="2079" cy="-378" rx="70.8437" ry="18"/>
<text text-anchor="middle" x="2079" y="-374.7" font-family="Times Roman,serif" font-size="12.00">/usr/lib/libbfd.so</text>
</g>
<!-- node100&#45;&gt;node177 -->
<g id="edge126" class="edge"><title>node100&#45;&gt;node177</title>
<path fill="none" stroke="black" d="M950.267,-592.549C1029.1,-588.187 1257.86,-573.383 1445,-540 1662.18,-501.259 1914.68,-428.078 2023.95,-394.997"/>
<polygon fill="black" stroke="black" points="2025.21,-398.273 2033.76,-392.018 2023.17,-391.575 2025.21,-398.273"/>
</g>
<!-- node178 -->
<g id="node86" class="node"><title>node178</title>
<ellipse fill="none" stroke="black" cx="2257" cy="-378" rx="89.0421" ry="18"/>
<text text-anchor="middle" x="2257" y="-374.7" font-family="Times Roman,serif" font-size="12.00">/usr/lib/libiberty_pic.a</text>
</g>
<!-- node100&#45;&gt;node178 -->
<g id="edge128" class="edge"><title>node100&#45;&gt;node178</title>
<path fill="none" stroke="black" d="M950.235,-592.9C1038.17,-589.183 1314.78,-575.294 1541,-540 1785.29,-501.888 2070.5,-428.509 2194.33,-395.199"/>
<polygon fill="black" stroke="black" points="2195.29,-398.566 2204.03,-392.583 2193.47,-391.807 2195.29,-398.566"/>
</g>
<!-- node152 -->
<g id="node4" class="node"><title>node152</title>
<polygon fill="none" stroke="black" points="1269,-36 1229.06,-18 1269,-3.55271e-15 1308.94,-18 1269,-36"/>
<text text-anchor="middle" x="1269" y="-14.7" font-family="Times Roman,serif" font-size="12.00">lzma</text>
</g>
<!-- node151&#45;&gt;node152 -->
<g id="edge4" class="edge"><title>node151&#45;&gt;node152</title>
<path fill="none" stroke="black" d="M1363.92,-74.0209C1343.47,-61.9494 1315.55,-45.4743 1295.29,-33.5172"/>
<polygon fill="black" stroke="black" points="1296.97,-30.4417 1286.58,-28.3733 1293.41,-36.4701 1296.97,-30.4417"/>
</g>
<!-- node187 -->
<g id="node6" class="node"><title>node187</title>
<ellipse fill="none" stroke="black" cx="1354" cy="-18" rx="27" ry="18"/>
<text text-anchor="middle" x="1354" y="-14.7" font-family="Times Roman,serif" font-size="12.00">dl</text>
</g>
<!-- node151&#45;&gt;node187 -->
<g id="edge6" class="edge"><title>node151&#45;&gt;node187</title>
<path fill="none" stroke="black" d="M1381.66,-71.8314C1377.41,-63.5451 1372.28,-53.5727 1367.61,-44.4748"/>
<polygon fill="black" stroke="black" points="1370.63,-42.7123 1362.95,-35.4177 1364.41,-45.9118 1370.63,-42.7123"/>
</g>
<!-- node179 -->
<g id="node8" class="node"><title>node179</title>
<ellipse fill="none" stroke="black" cx="1429" cy="-18" rx="30.0465" ry="18"/>
<text text-anchor="middle" x="1429" y="-14.7" font-family="Times Roman,serif" font-size="12.00">crypt</text>
</g>
<!-- node151&#45;&gt;node179 -->
<g id="edge8" class="edge"><title>node151&#45;&gt;node179</title>
<path fill="none" stroke="black" d="M1400.59,-71.8314C1404.96,-63.5451 1410.23,-53.5727 1415.03,-44.4748"/>
<polygon fill="black" stroke="black" points="1418.24,-45.8952 1419.81,-35.4177 1412.04,-42.6279 1418.24,-45.8952"/>
</g>
<!-- node188 -->
<g id="node10" class="node"><title>node188</title>
<ellipse fill="none" stroke="black" cx="1504" cy="-18" rx="27" ry="18"/>
<text text-anchor="middle" x="1504" y="-14.7" font-family="Times Roman,serif" font-size="12.00">rt</text>
</g>
<!-- node151&#45;&gt;node188 -->
<g id="edge10" class="edge"><title>node151&#45;&gt;node188</title>
<path fill="none" stroke="black" d="M1418.07,-72.7542C1435.41,-61.7009 1457.9,-47.375 1475.52,-36.1494"/>
<polygon fill="black" stroke="black" points="1477.68,-38.9209 1484.23,-30.5955 1473.92,-33.0174 1477.68,-38.9209"/>
</g>
<!-- node147&#45;&gt;node151 -->
<g id="edge14" class="edge"><title>node147&#45;&gt;node151</title>
<path fill="none" stroke="black" d="M501.402,-287.897C499.5,-253.689 500.933,-179.783 544,-144 575.574,-117.766 1194.18,-96.2807 1353.72,-91.1604"/>
<polygon fill="black" stroke="black" points="1354.09,-94.6504 1363.98,-90.8335 1353.87,-87.6539 1354.09,-94.6504"/>
</g>
<!-- node146&#45;&gt;node151 -->
<g id="edge26" class="edge"><title>node146&#45;&gt;node151</title>
<path fill="none" stroke="black" d="M983.809,-370.318C970.158,-366.712 953.308,-362.637 938,-360 858.55,-346.315 631.105,-383.769 577,-324 566.262,-312.138 567.113,-300.58 577,-288 675.964,-162.077 1207.11,-106.274 1353.58,-93.1401"/>
<polygon fill="black" stroke="black" points="1354.18,-96.6002 1363.84,-92.2338 1353.57,-89.6273 1354.18,-96.6002"/>
</g>
<!-- node146&#45;&gt;node147 -->
<g id="edge28" class="edge"><title>node146&#45;&gt;node147</title>
<path fill="none" stroke="black" d="M983.65,-364.524C979.174,-362.749 974.52,-361.149 970,-360 785.852,-313.176 728.148,-370.824 544,-324 542.729,-323.677 541.447,-323.318 540.161,-322.929"/>
<polygon fill="black" stroke="black" points="540.945,-319.495 530.35,-319.476 538.62,-326.098 540.945,-319.495"/>
</g>
<!-- node186 -->
<g id="node17" class="node"><title>node186</title>
<ellipse fill="none" stroke="black" cx="705" cy="-306" rx="118.939" ry="18"/>
<text text-anchor="middle" x="705" y="-302.7" font-family="Times Roman,serif" font-size="12.00">/usr/lib/libboost_regex&#45;mt.so</text>
</g>
<!-- node146&#45;&gt;node186 -->
<g id="edge18" class="edge"><title>node146&#45;&gt;node186</title>
<path fill="none" stroke="black" d="M983.964,-365.168C979.367,-363.266 974.594,-361.458 970,-360 914.829,-342.488 851.34,-329.319 800.338,-320.372"/>
<polygon fill="black" stroke="black" points="800.761,-316.893 790.311,-318.639 799.569,-323.791 800.761,-316.893"/>
</g>
<!-- node183 -->
<g id="node19" class="node"><title>node183</title>
<ellipse fill="none" stroke="black" cx="920" cy="-306" rx="77.9931" ry="18"/>
<text text-anchor="middle" x="920" y="-302.7" font-family="Times Roman,serif" font-size="12.00">/usr/lib/libicuuc.so</text>
</g>
<!-- node146&#45;&gt;node183 -->
<g id="edge20" class="edge"><title>node146&#45;&gt;node183</title>
<path fill="none" stroke="black" d="M988.037,-359.831C976.462,-350.673 962.283,-339.455 949.871,-329.634"/>
<polygon fill="black" stroke="black" points="952.028,-326.878 942.014,-323.418 947.685,-332.367 952.028,-326.878"/>
</g>
<!-- node184 -->
<g id="node21" class="node"><title>node184</title>
<ellipse fill="none" stroke="black" cx="1101" cy="-306" rx="85.1424" ry="18"/>
<text text-anchor="middle" x="1101" y="-302.7" font-family="Times Roman,serif" font-size="12.00">/usr/lib/libicui18n.so</text>
</g>
<!-- node146&#45;&gt;node184 -->
<g id="edge22" class="edge"><title>node146&#45;&gt;node184</title>
<path fill="none" stroke="black" d="M1033.71,-359.831C1045.05,-350.76 1058.91,-339.668 1071.11,-329.915"/>
<polygon fill="black" stroke="black" points="1073.61,-332.398 1079.23,-323.418 1069.23,-326.932 1073.61,-332.398"/>
</g>
<!-- node185 -->
<g id="node23" class="node"><title>node185</title>
<ellipse fill="none" stroke="black" cx="1289" cy="-306" rx="85.1424" ry="18"/>
<text text-anchor="middle" x="1289" y="-302.7" font-family="Times Roman,serif" font-size="12.00">/usr/lib/libicudata.so</text>
</g>
<!-- node146&#45;&gt;node185 -->
<g id="edge24" class="edge"><title>node146&#45;&gt;node185</title>
<path fill="none" stroke="black" d="M1038.16,-370.965C1081.17,-359.826 1166.11,-337.827 1225.17,-322.532"/>
<polygon fill="black" stroke="black" points="1226.34,-325.844 1235.14,-319.949 1224.58,-319.068 1226.34,-325.844"/>
</g>
<!-- node53&#45;&gt;node151 -->
<g id="edge32" class="edge"><title>node53&#45;&gt;node151</title>
<path fill="none" stroke="black" d="M836.009,-431.905C807.047,-411.038 756.095,-377.384 707,-360 656.163,-341.999 502.192,-364.865 467,-324 426.421,-276.88 410.887,-223.763 514,-144 547.686,-117.942 1190.13,-96.2497 1353.48,-91.1397"/>
<polygon fill="black" stroke="black" points="1353.65,-94.6363 1363.53,-90.8273 1353.43,-87.6397 1353.65,-94.6363"/>
</g>
<!-- node53&#45;&gt;node147 -->
<g id="edge34" class="edge"><title>node53&#45;&gt;node147</title>
<path fill="none" stroke="black" d="M856.475,-431.831C851.391,-410.893 839.857,-377.17 816,-360 717.025,-288.767 661.439,-356.836 544,-324 542.737,-323.647 541.462,-323.262 540.182,-322.851"/>
<polygon fill="black" stroke="black" points="540.994,-319.422 530.4,-319.288 538.598,-325.999 540.994,-319.422"/>
</g>
<!-- node53&#45;&gt;node146 -->
<g id="edge36" class="edge"><title>node53&#45;&gt;node146</title>
<path fill="none" stroke="black" d="M890.194,-435.603C914.57,-423.98 948.943,-407.59 974.795,-395.263"/>
<polygon fill="black" stroke="black" points="976.379,-398.385 983.899,-390.922 973.367,-392.067 976.379,-398.385"/>
</g>
<!-- node63&#45;&gt;node151 -->
<g id="edge40" class="edge"><title>node63&#45;&gt;node151</title>
<path fill="none" stroke="black" d="M759.791,-518.866C605.676,-505.726 38,-452.28 38,-378 38,-378 38,-378 38,-234 38,-188.874 46.8975,-168.177 85,-144 139.971,-109.119 1146.08,-93.3786 1353.71,-90.4945"/>
<polygon fill="black" stroke="black" points="1353.85,-93.9929 1363.8,-90.3557 1353.76,-86.9936 1353.85,-93.9929"/>
</g>
<!-- node63&#45;&gt;node147 -->
<g id="edge42" class="edge"><title>node63&#45;&gt;node147</title>
<path fill="none" stroke="black" d="M797.153,-503.916C794.535,-470.073 783.823,-397.236 740,-360 672.506,-302.651 628.673,-349.976 544,-324 542.56,-323.558 541.103,-323.08 539.64,-322.574"/>
<polygon fill="black" stroke="black" points="540.603,-319.195 530.012,-318.909 538.112,-325.737 540.603,-319.195"/>
</g>
<!-- node63&#45;&gt;node146 -->
<g id="edge44" class="edge"><title>node63&#45;&gt;node146</title>
<path fill="none" stroke="black" d="M797.594,-503.927C798.149,-483.717 802.212,-451.297 821,-432 842.161,-410.266 924.816,-392.782 973.865,-384.054"/>
<polygon fill="black" stroke="black" points="974.536,-387.49 983.787,-382.326 973.335,-380.593 974.536,-387.49"/>
</g>
<!-- node63&#45;&gt;node53 -->
<g id="edge46" class="edge"><title>node63&#45;&gt;node53</title>
<path fill="none" stroke="black" d="M813.645,-503.831C820.859,-495.454 829.557,-485.353 837.46,-476.175"/>
<polygon fill="black" stroke="black" points="840.271,-478.275 844.144,-468.413 834.967,-473.707 840.271,-478.275"/>
</g>
<!-- node156 -->
<g id="node38" class="node"><title>node156</title>
<polygon fill="none" stroke="black" points="441,-468 347,-468 347,-432 441,-432 441,-468"/>
<text text-anchor="middle" x="394" y="-446.7" font-family="Times Roman,serif" font-size="12.00">securesocket</text>
</g>
<!-- node63&#45;&gt;node156 -->
<g id="edge48" class="edge"><title>node63&#45;&gt;node156</title>
<path fill="none" stroke="black" d="M759.993,-515.226C688.738,-502.528 534.732,-475.081 451.002,-460.159"/>
<polygon fill="black" stroke="black" points="451.608,-456.712 441.149,-458.403 450.38,-463.603 451.608,-456.712"/>
</g>
<!-- node156&#45;&gt;node151 -->
<g id="edge50" class="edge"><title>node156&#45;&gt;node151</title>
<path fill="none" stroke="black" d="M346.75,-447.743C271.706,-443.161 130.147,-430.129 95,-396 65.6708,-367.52 76,-346.882 76,-306 76,-306 76,-306 76,-234 76,-53.9451 292.74,-169.362 471,-144 645.992,-119.103 1204.23,-96.9574 1353.82,-91.3597"/>
<polygon fill="black" stroke="black" points="1354.01,-94.8551 1363.87,-90.9854 1353.75,-87.8599 1354.01,-94.8551"/>
</g>
<!-- node191 -->
<g id="node41" class="node"><title>node191</title>
<ellipse fill="none" stroke="black" cx="241" cy="-378" rx="137.138" ry="18"/>
<text text-anchor="middle" x="241" y="-374.7" font-family="Times Roman,serif" font-size="12.00">/usr/lib/x86_64&#45;linux&#45;gnu/libssl.so</text>
</g>
<!-- node156&#45;&gt;node191 -->
<g id="edge52" class="edge"><title>node156&#45;&gt;node191</title>
<path fill="none" stroke="black" d="M355.392,-431.831C334.632,-422.062 308.893,-409.95 287.09,-399.689"/>
<polygon fill="black" stroke="black" points="288.551,-396.509 278.013,-395.418 285.571,-402.843 288.551,-396.509"/>
</g>
<!-- node192 -->
<g id="node43" class="node"><title>node192</title>
<ellipse fill="none" stroke="black" cx="547" cy="-378" rx="150.937" ry="18"/>
<text text-anchor="middle" x="547" y="-374.7" font-family="Times Roman,serif" font-size="12.00">/usr/lib/x86_64&#45;linux&#45;gnu/libcrypto.so</text>
</g>
<!-- node156&#45;&gt;node192 -->
<g id="edge54" class="edge"><title>node156&#45;&gt;node192</title>
<path fill="none" stroke="black" d="M432.608,-431.831C453.29,-422.099 478.915,-410.04 500.666,-399.804"/>
<polygon fill="black" stroke="black" points="502.167,-402.966 509.725,-395.541 499.186,-396.632 502.167,-402.966"/>
</g>
<!-- node99&#45;&gt;node151 -->
<g id="edge58" class="edge"><title>node99&#45;&gt;node151</title>
<path fill="none" stroke="black" d="M949.229,-519.946C1031.61,-512.105 1278.91,-476.265 1383,-324 1383.36,-323.476 1388.04,-180.959 1390.07,-118.625"/>
<polygon fill="black" stroke="black" points="1393.58,-118.421 1390.41,-108.312 1386.58,-118.193 1393.58,-118.421"/>
</g>
<!-- node99&#45;&gt;node147 -->
<g id="edge60" class="edge"><title>node99&#45;&gt;node147</title>
<path fill="none" stroke="black" d="M919.828,-503.932C914.446,-468.382 896.856,-390.189 844,-360 727.39,-293.397 673.547,-359.374 544,-324 542.734,-323.654 541.458,-323.276 540.177,-322.871"/>
<polygon fill="black" stroke="black" points="540.981,-319.44 530.386,-319.337 538.604,-326.024 540.981,-319.44"/>
</g>
<!-- node99&#45;&gt;node146 -->
<g id="edge62" class="edge"><title>node99&#45;&gt;node146</title>
<path fill="none" stroke="black" d="M933.272,-503.762C948.72,-478.768 976.579,-433.692 994.411,-404.841"/>
<polygon fill="black" stroke="black" points="997.539,-406.436 999.82,-396.09 991.585,-402.756 997.539,-406.436"/>
</g>
<!-- node99&#45;&gt;node53 -->
<g id="edge64" class="edge"><title>node99&#45;&gt;node53</title>
<path fill="none" stroke="black" d="M906.355,-503.831C899.141,-495.454 890.443,-485.353 882.54,-476.175"/>
<polygon fill="black" stroke="black" points="885.033,-473.707 875.856,-468.413 879.729,-478.275 885.033,-473.707"/>
</g>
<!-- node64&#45;&gt;node151 -->
<g id="edge68" class="edge"><title>node64&#45;&gt;node151</title>
<path fill="none" stroke="black" d="M1436.02,-520.626C1608.06,-513.241 2374,-474.917 2374,-378 2374,-378 2374,-378 2374,-234 2374,-136.545 1607.84,-98.9295 1428.32,-91.4534"/>
<polygon fill="black" stroke="black" points="1428.19,-87.9456 1418.06,-91.0328 1427.91,-94.9397 1428.19,-87.9456"/>
</g>
<!-- node64&#45;&gt;node147 -->
<g id="edge120" class="edge"><title>node64&#45;&gt;node147</title>
<path fill="none" stroke="black" d="M1367.75,-516.199C1319.84,-507.695 1230.31,-490.395 1156,-468 1124.17,-458.408 909.3,-367.854 877,-360 732.352,-324.83 687.833,-362.369 544,-324 542.732,-323.662 541.454,-323.29 540.171,-322.891"/>
<polygon fill="black" stroke="black" points="540.968,-319.459 530.374,-319.383 538.609,-326.049 540.968,-319.459"/>
</g>
<!-- node64&#45;&gt;node146 -->
<g id="edge122" class="edge"><title>node64&#45;&gt;node146</title>
<path fill="none" stroke="black" d="M1367.99,-509.473C1294.82,-482.525 1123,-419.249 1047.58,-391.473"/>
<polygon fill="black" stroke="black" points="1048.62,-388.125 1038.03,-387.953 1046.2,-394.694 1048.62,-388.125"/>
</g>
<!-- node64&#45;&gt;node53 -->
<g id="edge124" class="edge"><title>node64&#45;&gt;node53</title>
<path fill="none" stroke="black" d="M1367.68,-517.441C1271.96,-504.725 1002.32,-468.906 900.03,-455.318"/>
<polygon fill="black" stroke="black" points="900.471,-451.846 890.097,-453.998 899.549,-458.785 900.471,-451.846"/>
</g>
<!-- node66 -->
<g id="node54" class="node"><title>node66</title>
<polygon fill="none" stroke="black" points="1568,-324 1506,-324 1506,-288 1568,-288 1568,-324"/>
<text text-anchor="middle" x="1537" y="-302.7" font-family="Times Roman,serif" font-size="12.00">dalibase</text>
</g>
<!-- node64&#45;&gt;node66 -->
<g id="edge70" class="edge"><title>node64&#45;&gt;node66</title>
<path fill="none" stroke="black" d="M1413.28,-503.955C1437.05,-465.917 1492.41,-377.343 1520.3,-332.713"/>
<polygon fill="black" stroke="black" points="1523.33,-334.48 1525.66,-324.145 1517.39,-330.77 1523.33,-334.48"/>
</g>
<!-- node54 -->
<g id="node68" class="node"><title>node54</title>
<polygon fill="none" stroke="black" points="1587,-468 1521,-468 1521,-432 1587,-432 1587,-468"/>
<text text-anchor="middle" x="1554" y="-446.7" font-family="Times Roman,serif" font-size="12.00">dllserver</text>
</g>
<!-- node64&#45;&gt;node54 -->
<g id="edge90" class="edge"><title>node64&#45;&gt;node54</title>
<path fill="none" stroke="black" d="M1436.11,-505.842C1458.44,-495.264 1487.79,-481.362 1511.62,-470.075"/>
<polygon fill="black" stroke="black" points="1513.25,-473.177 1520.79,-465.733 1510.25,-466.851 1513.25,-473.177"/>
</g>
<!-- node66&#45;&gt;node151 -->
<g id="edge72" class="edge"><title>node66&#45;&gt;node151</title>
<path fill="none" stroke="black" d="M1541.32,-287.877C1547.91,-255.548 1556.6,-187.271 1525,-144 1502.54,-113.246 1459.58,-99.9772 1428.34,-94.2706"/>
<polygon fill="black" stroke="black" points="1428.68,-90.7791 1418.25,-92.6109 1427.55,-97.6865 1428.68,-90.7791"/>
</g>
<!-- node153 -->
<g id="node57" class="node"><title>node153</title>
<polygon fill="none" stroke="black" points="1516,-180 1462,-180 1462,-144 1516,-144 1516,-180"/>
<text text-anchor="middle" x="1489" y="-158.7" font-family="Times Roman,serif" font-size="12.00">mp</text>
</g>
<!-- node66&#45;&gt;node153 -->
<g id="edge74" class="edge"><title>node66&#45;&gt;node153</title>
<path fill="none" stroke="black" d="M1530.92,-287.762C1522.66,-262.985 1507.82,-218.471 1498.2,-189.594"/>
<polygon fill="black" stroke="black" points="1501.51,-188.47 1495.03,-180.09 1494.87,-190.683 1501.51,-188.47"/>
</g>
<!-- node149 -->
<g id="node60" class="node"><title>node149</title>
<polygon fill="none" stroke="black" points="1450,-252 1396,-252 1396,-216 1450,-216 1450,-252"/>
<text text-anchor="middle" x="1423" y="-230.7" font-family="Times Roman,serif" font-size="12.00">hrpc</text>
</g>
<!-- node66&#45;&gt;node149 -->
<g id="edge78" class="edge"><title>node66&#45;&gt;node149</title>
<path fill="none" stroke="black" d="M1508.23,-287.831C1493.21,-278.341 1474.68,-266.639 1458.74,-256.572"/>
<polygon fill="black" stroke="black" points="1460.51,-253.552 1450.19,-251.171 1456.77,-259.471 1460.51,-253.552"/>
</g>
<!-- node59 -->
<g id="node64" class="node"><title>node59</title>
<polygon fill="none" stroke="black" points="1640,-252 1582,-252 1582,-216 1640,-216 1640,-252"/>
<text text-anchor="middle" x="1611" y="-230.7" font-family="Times Roman,serif" font-size="12.00">remote</text>
</g>
<!-- node66&#45;&gt;node59 -->
<g id="edge84" class="edge"><title>node66&#45;&gt;node59</title>
<path fill="none" stroke="black" d="M1555.67,-287.831C1564.52,-279.219 1575.25,-268.785 1584.89,-259.405"/>
<polygon fill="black" stroke="black" points="1587.61,-261.645 1592.33,-252.163 1582.72,-256.628 1587.61,-261.645"/>
</g>
<!-- node153&#45;&gt;node151 -->
<g id="edge76" class="edge"><title>node153&#45;&gt;node151</title>
<path fill="none" stroke="black" d="M1464.27,-143.831C1452.08,-134.878 1437.22,-123.956 1424.07,-114.295"/>
<polygon fill="black" stroke="black" points="1425.85,-111.263 1415.72,-108.163 1421.71,-116.904 1425.85,-111.263"/>
</g>
<!-- node149&#45;&gt;node151 -->
<g id="edge80" class="edge"><title>node149&#45;&gt;node151</title>
<path fill="none" stroke="black" d="M1418.95,-215.762C1413.47,-191.093 1403.64,-146.86 1397.22,-117.973"/>
<polygon fill="black" stroke="black" points="1400.61,-117.092 1395.02,-108.09 1393.77,-118.611 1400.61,-117.092"/>
</g>
<!-- node149&#45;&gt;node153 -->
<g id="edge82" class="edge"><title>node149&#45;&gt;node153</title>
<path fill="none" stroke="black" d="M1439.65,-215.831C1447.41,-207.369 1456.78,-197.149 1465.26,-187.897"/>
<polygon fill="black" stroke="black" points="1467.94,-190.15 1472.12,-180.413 1462.78,-185.42 1467.94,-190.15"/>
</g>
<!-- node59&#45;&gt;node151 -->
<g id="edge86" class="edge"><title>node59&#45;&gt;node151</title>
<path fill="none" stroke="black" d="M1606.97,-215.77C1601.54,-195.416 1589.92,-162.864 1568,-144 1528.38,-109.903 1467.62,-97.3351 1428.6,-92.7029"/>
<polygon fill="black" stroke="black" points="1428.52,-89.1747 1418.21,-91.5955 1427.78,-96.1353 1428.52,-89.1747"/>
</g>
<!-- node59&#45;&gt;node153 -->
<g id="edge88" class="edge"><title>node59&#45;&gt;node153</title>
<path fill="none" stroke="black" d="M1581.78,-216.754C1564.85,-206.764 1543.39,-194.1 1525.38,-183.468"/>
<polygon fill="black" stroke="black" points="1526.7,-180.187 1516.31,-178.118 1523.14,-186.215 1526.7,-180.187"/>
</g>
<!-- node54&#45;&gt;node151 -->
<g id="edge94" class="edge"><title>node54&#45;&gt;node151</title>
<path fill="none" stroke="black" d="M1587.03,-446.662C1681.56,-436.975 1947.26,-408.732 1961,-396 1990.99,-368.214 1980,-346.882 1980,-306 1980,-306 1980,-306 1980,-234 1980,-119.963 1558.12,-95.8084 1428.45,-91.0776"/>
<polygon fill="black" stroke="black" points="1428.34,-87.5717 1418.23,-90.7231 1428.1,-94.5675 1428.34,-87.5717"/>
</g>
<!-- node54&#45;&gt;node146 -->
<g id="edge100" class="edge"><title>node54&#45;&gt;node146</title>
<path fill="none" stroke="black" d="M1520.85,-445.604C1425.11,-432.91 1148.63,-396.25 1048.1,-382.92"/>
<polygon fill="black" stroke="black" points="1048.48,-379.439 1038.11,-381.594 1047.56,-386.379 1048.48,-379.439"/>
</g>
<!-- node54&#45;&gt;node66 -->
<g id="edge104" class="edge"><title>node54&#45;&gt;node66</title>
<path fill="none" stroke="black" d="M1548.19,-431.711C1545.16,-421.348 1541.75,-408.078 1540,-396 1537.02,-375.402 1536.33,-351.888 1536.35,-334.062"/>
<polygon fill="black" stroke="black" points="1539.85,-334.062 1536.44,-324.032 1532.85,-334.001 1539.85,-334.062"/>
</g>
<!-- node54&#45;&gt;node153 -->
<g id="edge96" class="edge"><title>node54&#45;&gt;node153</title>
<path fill="none" stroke="black" d="M1543.22,-431.998C1529.62,-408.223 1506.81,-364.607 1497,-324 1485.95,-278.26 1485.92,-223.205 1487.23,-190.487"/>
<polygon fill="black" stroke="black" points="1490.73,-190.448 1487.71,-180.294 1483.74,-190.117 1490.73,-190.448"/>
</g>
<!-- node54&#45;&gt;node149 -->
<g id="edge98" class="edge"><title>node54&#45;&gt;node149</title>
<path fill="none" stroke="black" d="M1520.77,-437.652C1501.47,-428.85 1478.24,-415.159 1464,-396 1434.41,-356.184 1426.06,-297.281 1423.77,-262.553"/>
<polygon fill="black" stroke="black" points="1427.25,-261.984 1423.22,-252.183 1420.26,-262.353 1427.25,-261.984"/>
</g>
<!-- node54&#45;&gt;node59 -->
<g id="edge102" class="edge"><title>node54&#45;&gt;node59</title>
<path fill="none" stroke="black" d="M1557.34,-431.966C1560.83,-413.721 1566.67,-384.754 1573,-360 1581.71,-325.954 1593.67,-287.336 1601.83,-261.929"/>
<polygon fill="black" stroke="black" points="1605.22,-262.818 1604.97,-252.226 1598.56,-260.664 1605.22,-262.818"/>
</g>
<!-- node176 -->
<g id="node70" class="node"><title>node176</title>
<ellipse fill="none" stroke="black" cx="1713" cy="-378" rx="130.789" ry="18"/>
<text text-anchor="middle" x="1713" y="-374.7" font-family="Times Roman,serif" font-size="12.00">/usr/lib/x86_64&#45;linux&#45;gnu/libz.so</text>
</g>
<!-- node54&#45;&gt;node176 -->
<g id="edge92" class="edge"><title>node54&#45;&gt;node176</title>
<path fill="none" stroke="black" d="M1587.33,-434.906C1609.94,-424.668 1640.17,-410.978 1665.32,-399.591"/>
<polygon fill="black" stroke="black" points="1667.02,-402.665 1674.68,-395.352 1664.13,-396.289 1667.02,-402.665"/>
</g>
<!-- node55 -->
<g id="node78" class="node"><title>node55</title>
<polygon fill="none" stroke="black" points="1952,-396 1862,-396 1862,-360 1952,-360 1952,-396"/>
<text text-anchor="middle" x="1907" y="-374.7" font-family="Times Roman,serif" font-size="12.00">environment</text>
</g>
<!-- node54&#45;&gt;node55 -->
<g id="edge106" class="edge"><title>node54&#45;&gt;node55</title>
<path fill="none" stroke="black" d="M1587.07,-445.607C1640.82,-438.127 1750.55,-421.445 1851.98,-396.082"/>
<polygon fill="black" stroke="black" points="1852.93,-399.45 1861.77,-393.6 1851.21,-392.665 1852.93,-399.45"/>
</g>
<!-- node54&#45;&gt;node177 -->
<g id="edge116" class="edge"><title>node54&#45;&gt;node177</title>
<path fill="none" stroke="black" d="M1587.26,-446.911C1660.85,-439.859 1842.94,-421.216 1994,-396 2001.06,-394.822 2008.42,-393.462 2015.73,-392.029"/>
<polygon fill="black" stroke="black" points="2016.52,-395.441 2025.63,-390.039 2015.14,-388.578 2016.52,-395.441"/>
</g>
<!-- node54&#45;&gt;node178 -->
<g id="edge118" class="edge"><title>node54&#45;&gt;node178</title>
<path fill="none" stroke="black" d="M1587.24,-448.118C1678.74,-442.705 1941.93,-425.558 2159,-396 2166.86,-394.93 2175.05,-393.665 2183.2,-392.311"/>
<polygon fill="black" stroke="black" points="2183.82,-395.755 2193.09,-390.621 2182.64,-388.855 2183.82,-395.755"/>
</g>
<!-- node55&#45;&gt;node151 -->
<g id="edge108" class="edge"><title>node55&#45;&gt;node151</title>
<path fill="none" stroke="black" d="M1892.2,-359.822C1876.1,-340.682 1849.03,-310.289 1822,-288 1729.83,-211.983 1704.48,-191.847 1595,-144 1539.29,-119.654 1470.09,-104.181 1428.3,-96.3079"/>
<polygon fill="black" stroke="black" points="1428.75,-92.8334 1418.29,-94.4692 1427.49,-99.7182 1428.75,-92.8334"/>
</g>
<!-- node55&#45;&gt;node66 -->
<g id="edge114" class="edge"><title>node55&#45;&gt;node66</title>
<path fill="none" stroke="black" d="M1861.77,-362.368C1858.82,-361.519 1855.88,-360.721 1853,-360 1755.78,-335.641 1638.97,-318.831 1578.24,-311.004"/>
<polygon fill="black" stroke="black" points="1578.64,-307.526 1568.28,-309.735 1577.75,-314.47 1578.64,-307.526"/>
</g>
<!-- node55&#45;&gt;node153 -->
<g id="edge110" class="edge"><title>node55&#45;&gt;node153</title>
<path fill="none" stroke="black" d="M1882.99,-359.784C1838.82,-327.002 1740.76,-257.615 1649,-216 1608.11,-197.454 1558.88,-181.771 1525.92,-172.164"/>
<polygon fill="black" stroke="black" points="1526.82,-168.781 1516.24,-169.381 1524.89,-175.508 1526.82,-168.781"/>
</g>
<!-- node55&#45;&gt;node59 -->
<g id="edge112" class="edge"><title>node55&#45;&gt;node59</title>
<path fill="none" stroke="black" d="M1869.81,-359.908C1813.33,-332.431 1706.47,-280.446 1649.32,-252.644"/>
<polygon fill="black" stroke="black" points="1650.78,-249.462 1640.26,-248.234 1647.72,-255.756 1650.78,-249.462"/>
</g>
</g>
</svg>
