<?xml version="1.0" encoding="UTF-8" standalone="no"?>
<!DOCTYPE svg PUBLIC "-//W3C//DTD SVG 1.1//EN"
 "http://www.w3.org/Graphics/SVG/1.1/DTD/svg11.dtd">
<!-- Generated by graphviz version 2.26.3 (20100126.1600)
 -->
<!-- Title: GG Pages: 1 -->
<svg width="3360pt" height="764pt"
 viewBox="0.00 0.00 3359.59 764.00" xmlns="http://www.w3.org/2000/svg" xmlns:xlink="http://www.w3.org/1999/xlink">
<g id="graph1" class="graph" transform="scale(1 1) rotate(0) translate(4 760)">
<title>GG</title>
<polygon fill="white" stroke="white" points="-4,5 -4,-760 3356.59,-760 3356.59,5 -4,5"/>
<!-- node117 -->
<g id="node1" class="node"><title>node117</title>
<polygon fill="none" stroke="black" points="1455,-756 1401,-756 1401,-720 1455,-720 1455,-756"/>
<text text-anchor="middle" x="1428" y="-734.7" font-family="Times Roman,serif" font-size="12.00">ws_ecl</text>
</g>
<!-- node151 -->
<g id="node2" class="node"><title>node151</title>
<polygon fill="none" stroke="black" points="1226,-108 1172,-108 1172,-72 1226,-72 1226,-108"/>
<text text-anchor="middle" x="1199" y="-86.7" font-family="Times Roman,serif" font-size="12.00">jlib</text>
</g>
<!-- node117&#45;&gt;node151 -->
<g id="edge2" class="edge"><title>node117&#45;&gt;node151</title>
<path fill="none" stroke="black" d="M1400.77,-737.551C1214.54,-734.4 134.532,-714.837 73,-684 26.955,-660.924 0,-645.504 0,-594 0,-594 0,-594 0,-234 0,-186.653 16.0705,-167.802 57,-144 105.809,-115.615 970.296,-95.023 1161.69,-90.7997"/>
<polygon fill="black" stroke="black" points="1161.89,-94.2962 1171.81,-90.5778 1161.74,-87.2979 1161.89,-94.2962"/>
</g>
<!-- node160 -->
<g id="node12" class="node"><title>node160</title>
<polygon fill="none" stroke="black" points="2294,-612 2240,-612 2240,-576 2294,-576 2294,-612"/>
<text text-anchor="middle" x="2267" y="-590.7" font-family="Times Roman,serif" font-size="12.00">xmllib</text>
</g>
<!-- node117&#45;&gt;node160 -->
<g id="edge12" class="edge"><title>node117&#45;&gt;node160</title>
<path fill="none" stroke="black" d="M1455.21,-737.385C1536.4,-735.119 1783.78,-725.079 1984,-684 2074.57,-665.417 2177.13,-628.702 2230.43,-608.38"/>
<polygon fill="black" stroke="black" points="2231.72,-611.636 2239.8,-604.784 2229.21,-605.101 2231.72,-611.636"/>
</g>
<!-- node110 -->
<g id="node21" class="node"><title>node110</title>
<polygon fill="none" stroke="black" points="2340,-684 2278,-684 2278,-648 2340,-648 2340,-684"/>
<text text-anchor="middle" x="2309" y="-662.7" font-family="Times Roman,serif" font-size="12.00">esphttp</text>
</g>
<!-- node117&#45;&gt;node110 -->
<g id="edge22" class="edge"><title>node117&#45;&gt;node110</title>
<path fill="none" stroke="black" d="M1455.28,-736.346C1550.94,-730.466 1880.01,-709.547 2151,-684 2190.63,-680.264 2235.75,-675.025 2267.6,-671.163"/>
<polygon fill="black" stroke="black" points="2268.36,-674.596 2277.86,-669.91 2267.51,-667.647 2268.36,-674.596"/>
</g>
<!-- node155 -->
<g id="node28" class="node"><title>node155</title>
<polygon fill="none" stroke="black" points="3073,-684 2981,-684 2981,-648 3073,-648 3073,-684"/>
<text text-anchor="middle" x="3027" y="-662.7" font-family="Times Roman,serif" font-size="12.00">LdapSecurity</text>
</g>
<!-- node117&#45;&gt;node155 -->
<g id="edge34" class="edge"><title>node117&#45;&gt;node155</title>
<path fill="none" stroke="black" d="M1455.08,-736.781C1639.46,-728.478 2710.61,-680.247 2970.3,-668.553"/>
<polygon fill="black" stroke="black" points="2970.8,-672.034 2980.63,-668.088 2970.48,-665.042 2970.8,-672.034"/>
</g>
<!-- node153 -->
<g id="node35" class="node"><title>node153</title>
<polygon fill="none" stroke="black" points="442,-180 388,-180 388,-144 442,-144 442,-180"/>
<text text-anchor="middle" x="415" y="-158.7" font-family="Times Roman,serif" font-size="12.00">mp</text>
</g>
<!-- node117&#45;&gt;node153 -->
<g id="edge42" class="edge"><title>node117&#45;&gt;node153</title>
<path fill="none" stroke="black" d="M1400.98,-737.306C1240.88,-733.115 419.891,-710.465 311,-684 217.463,-661.266 114,-690.26 114,-594 114,-594 114,-594 114,-450 114,-337.756 124.67,-290.076 209,-216 234,-194.04 325.687,-176.265 377.923,-167.646"/>
<polygon fill="black" stroke="black" points="378.5,-171.098 387.812,-166.046 377.382,-164.188 378.5,-171.098"/>
</g>
<!-- node149 -->
<g id="node38" class="node"><title>node149</title>
<polygon fill="none" stroke="black" points="852,-252 798,-252 798,-216 852,-216 852,-252"/>
<text text-anchor="middle" x="825" y="-230.7" font-family="Times Roman,serif" font-size="12.00">hrpc</text>
</g>
<!-- node117&#45;&gt;node149 -->
<g id="edge46" class="edge"><title>node117&#45;&gt;node149</title>
<path fill="none" stroke="black" d="M1400.88,-735.527C1366.47,-731.015 1307.24,-718.462 1271,-684 1158.56,-577.08 1263.75,-454.897 1141,-360 1041.04,-282.722 958.171,-402.292 859,-324 840.133,-309.105 831.734,-282.515 827.996,-262.085"/>
<polygon fill="black" stroke="black" points="831.431,-261.401 826.435,-252.058 824.515,-262.477 831.431,-261.401"/>
</g>
<!-- node59 -->
<g id="node42" class="node"><title>node59</title>
<polygon fill="none" stroke="black" points="276,-252 218,-252 218,-216 276,-216 276,-252"/>
<text text-anchor="middle" x="247" y="-230.7" font-family="Times Roman,serif" font-size="12.00">remote</text>
</g>
<!-- node117&#45;&gt;node59 -->
<g id="edge52" class="edge"><title>node117&#45;&gt;node59</title>
<path fill="none" stroke="black" d="M1400.84,-737.802C1216.33,-736.349 152.619,-726.153 100,-684 67.6912,-658.117 76,-635.398 76,-594 76,-594 76,-594 76,-450 76,-364.547 159.29,-293.163 209.612,-257.831"/>
<polygon fill="black" stroke="black" points="211.738,-260.618 217.992,-252.066 207.77,-254.851 211.738,-260.618"/>
</g>
<!-- node66 -->
<g id="node46" class="node"><title>node66</title>
<polygon fill="none" stroke="black" points="778,-324 716,-324 716,-288 778,-288 778,-324"/>
<text text-anchor="middle" x="747" y="-302.7" font-family="Times Roman,serif" font-size="12.00">dalibase</text>
</g>
<!-- node117&#45;&gt;node66 -->
<g id="edge58" class="edge"><title>node117&#45;&gt;node66</title>
<path fill="none" stroke="black" d="M1400.9,-735.78C1320.38,-728.984 1083.63,-707.492 1010,-684 750.495,-601.207 609.234,-629.521 469,-396 460.763,-382.283 458.822,-372.345 469,-360 498.526,-324.187 635.717,-311.827 705.701,-307.806"/>
<polygon fill="black" stroke="black" points="706.128,-311.288 715.924,-307.251 705.748,-304.298 706.128,-311.288"/>
</g>
<!-- node55 -->
<g id="node52" class="node"><title>node55</title>
<polygon fill="none" stroke="black" points="346,-396 256,-396 256,-360 346,-360 346,-396"/>
<text text-anchor="middle" x="301" y="-374.7" font-family="Times Roman,serif" font-size="12.00">environment</text>
</g>
<!-- node117&#45;&gt;node55 -->
<g id="edge68" class="edge"><title>node117&#45;&gt;node55</title>
<path fill="none" stroke="black" d="M1400.86,-737.286C1239.32,-732.955 409.965,-709.534 363,-684 319.651,-660.432 298,-643.341 298,-594 298,-594 298,-594 298,-522 298,-481.867 299.179,-435.457 300.059,-406.414"/>
<polygon fill="black" stroke="black" points="303.565,-406.287 300.378,-396.183 296.568,-406.069 303.565,-406.287"/>
</g>
<!-- node54 -->
<g id="node58" class="node"><title>node54</title>
<polygon fill="none" stroke="black" points="712,-468 646,-468 646,-432 712,-432 712,-468"/>
<text text-anchor="middle" x="679" y="-446.7" font-family="Times Roman,serif" font-size="12.00">dllserver</text>
</g>
<!-- node117&#45;&gt;node54 -->
<g id="edge78" class="edge"><title>node117&#45;&gt;node54</title>
<path fill="none" stroke="black" d="M1400.99,-736.064C1345.35,-731.504 1214.42,-717.815 1110,-684 972.338,-639.42 943.834,-611.444 818,-540 781.342,-519.187 741.075,-492.69 713.361,-473.848"/>
<polygon fill="black" stroke="black" points="715.056,-470.767 704.824,-468.017 711.107,-476.547 715.056,-470.767"/>
</g>
<!-- node146 -->
<g id="node65" class="node"><title>node146</title>
<polygon fill="none" stroke="black" points="1476,-396 1422,-396 1422,-360 1476,-360 1476,-396"/>
<text text-anchor="middle" x="1449" y="-374.7" font-family="Times Roman,serif" font-size="12.00">eclrtl</text>
</g>
<!-- node117&#45;&gt;node146 -->
<g id="edge116" class="edge"><title>node117&#45;&gt;node146</title>
<path fill="none" stroke="black" d="M1436.06,-719.767C1447.21,-692.825 1466,-640.54 1466,-594 1466,-594 1466,-594 1466,-522 1466,-481.597 1459.32,-435.255 1454.33,-406.301"/>
<polygon fill="black" stroke="black" points="1457.72,-405.339 1452.52,-396.104 1450.82,-406.562 1457.72,-405.339"/>
</g>
<!-- node147 -->
<g id="node76" class="node"><title>node147</title>
<polygon fill="none" stroke="black" points="1884,-324 1830,-324 1830,-288 1884,-288 1884,-324"/>
<text text-anchor="middle" x="1857" y="-302.7" font-family="Times Roman,serif" font-size="12.00">nbcd</text>
</g>
<!-- node117&#45;&gt;node147 -->
<g id="edge114" class="edge"><title>node117&#45;&gt;node147</title>
<path fill="none" stroke="black" d="M1455.28,-735.429C1553.88,-725.395 1886,-684.853 1886,-594 1886,-594 1886,-594 1886,-522 1886,-453.953 1871.69,-374.912 1863.17,-333.907"/>
<polygon fill="black" stroke="black" points="1866.59,-333.153 1861.09,-324.095 1859.74,-334.604 1866.59,-333.153"/>
</g>
<!-- node53 -->
<g id="node88" class="node"><title>node53</title>
<polygon fill="none" stroke="black" points="1668,-468 1608,-468 1608,-432 1668,-432 1668,-468"/>
<text text-anchor="middle" x="1638" y="-446.7" font-family="Times Roman,serif" font-size="12.00">deftype</text>
</g>
<!-- node117&#45;&gt;node53 -->
<g id="edge118" class="edge"><title>node117&#45;&gt;node53</title>
<path fill="none" stroke="black" d="M1449.31,-719.965C1486.37,-687.54 1562.93,-615.689 1607,-540 1618.31,-520.569 1626.36,-496.371 1631.41,-477.961"/>
<polygon fill="black" stroke="black" points="1634.84,-478.694 1633.98,-468.134 1628.06,-476.924 1634.84,-478.694"/>
</g>
<!-- node64 -->
<g id="node93" class="node"><title>node64</title>
<polygon fill="none" stroke="black" points="1438,-540 1370,-540 1370,-504 1438,-504 1438,-540"/>
<text text-anchor="middle" x="1404" y="-518.7" font-family="Times Roman,serif" font-size="12.00">workunit</text>
</g>
<!-- node117&#45;&gt;node64 -->
<g id="edge126" class="edge"><title>node117&#45;&gt;node64</title>
<path fill="none" stroke="black" d="M1426,-719.955C1421.81,-682.314 1412.13,-595.187 1407.12,-550.125"/>
<polygon fill="black" stroke="black" points="1410.6,-549.697 1406.02,-540.145 1403.64,-550.47 1410.6,-549.697"/>
</g>
<!-- node65 -->
<g id="node101" class="node"><title>node65</title>
<polygon fill="none" stroke="black" points="1362,-684 1280,-684 1280,-648 1362,-648 1362,-684"/>
<text text-anchor="middle" x="1321" y="-662.7" font-family="Times Roman,serif" font-size="12.00">wuwebview</text>
</g>
<!-- node117&#45;&gt;node65 -->
<g id="edge140" class="edge"><title>node117&#45;&gt;node65</title>
<path fill="none" stroke="black" d="M1401,-719.831C1387.57,-710.793 1371.15,-699.748 1356.7,-690.02"/>
<polygon fill="black" stroke="black" points="1358.24,-686.842 1347.99,-684.163 1354.33,-692.649 1358.24,-686.842"/>
</g>
<!-- node56 -->
<g id="node105" class="node"><title>node56</title>
<polygon fill="none" stroke="black" points="1357,-612 1293,-612 1293,-576 1357,-576 1357,-612"/>
<text text-anchor="middle" x="1325" y="-590.7" font-family="Times Roman,serif" font-size="12.00">fileview2</text>
</g>
<!-- node117&#45;&gt;node56 -->
<g id="edge210" class="edge"><title>node117&#45;&gt;node56</title>
<path fill="none" stroke="black" d="M1417.58,-719.92C1406.66,-701.388 1388.66,-671.971 1371,-648 1364.06,-638.588 1355.95,-628.73 1348.48,-620.051"/>
<polygon fill="black" stroke="black" points="1351.06,-617.693 1341.85,-612.46 1345.79,-622.296 1351.06,-617.693"/>
</g>
<!-- node150 -->
<g id="node113" class="node"><title>node150</title>
<polygon fill="none" stroke="black" points="2006,-540 1952,-540 1952,-504 2006,-504 2006,-540"/>
<text text-anchor="middle" x="1979" y="-518.7" font-family="Times Roman,serif" font-size="12.00">jhtree</text>
</g>
<!-- node117&#45;&gt;node150 -->
<g id="edge206" class="edge"><title>node117&#45;&gt;node150</title>
<path fill="none" stroke="black" d="M1455.26,-736.914C1555.7,-732.672 1901.25,-715.857 1938,-684 1976.41,-650.706 1981.45,-587.104 1980.8,-550.274"/>
<polygon fill="black" stroke="black" points="1984.3,-550.085 1980.47,-540.205 1977.3,-550.315 1984.3,-550.085"/>
</g>
<!-- node156 -->
<g id="node127" class="node"><title>node156</title>
<polygon fill="none" stroke="black" points="2145,-468 2051,-468 2051,-432 2145,-432 2145,-468"/>
<text text-anchor="middle" x="2098" y="-446.7" font-family="Times Roman,serif" font-size="12.00">securesocket</text>
</g>
<!-- node117&#45;&gt;node156 -->
<g id="edge212" class="edge"><title>node117&#45;&gt;node156</title>
<path fill="none" stroke="black" d="M1455.19,-736.688C1550.65,-731.842 1866.51,-713.675 1900,-684 1961.56,-629.45 1887.84,-565.015 1943,-504 1956.51,-489.058 2002.36,-474.152 2040.72,-463.798"/>
<polygon fill="black" stroke="black" points="2042.02,-467.074 2050.8,-461.135 2040.23,-460.307 2042.02,-467.074"/>
</g>
<!-- node99 -->
<g id="node134" class="node"><title>node99</title>
<polygon fill="none" stroke="black" points="1720,-540 1666,-540 1666,-504 1720,-504 1720,-540"/>
<text text-anchor="middle" x="1693" y="-518.7" font-family="Times Roman,serif" font-size="12.00">hql</text>
</g>
<!-- node117&#45;&gt;node99 -->
<g id="edge208" class="edge"><title>node117&#45;&gt;node99</title>
<path fill="none" stroke="black" d="M1455.12,-733.084C1511.62,-722.612 1637.92,-697.922 1652,-684 1687.8,-648.6 1693.91,-586.746 1694.12,-550.574"/>
<polygon fill="black" stroke="black" points="1697.62,-550.198 1694.03,-540.23 1690.62,-550.262 1697.62,-550.198"/>
</g>
<!-- node152 -->
<g id="node4" class="node"><title>node152</title>
<polygon fill="none" stroke="black" points="1077,-36 1037.06,-18 1077,-3.55271e-15 1116.94,-18 1077,-36"/>
<text text-anchor="middle" x="1077" y="-14.7" font-family="Times Roman,serif" font-size="12.00">lzma</text>
</g>
<!-- node151&#45;&gt;node152 -->
<g id="edge4" class="edge"><title>node151&#45;&gt;node152</title>
<path fill="none" stroke="black" d="M1171.92,-74.0209C1151.47,-61.9494 1123.55,-45.4743 1103.29,-33.5172"/>
<polygon fill="black" stroke="black" points="1104.97,-30.4417 1094.58,-28.3733 1101.41,-36.4701 1104.97,-30.4417"/>
</g>
<!-- node187 -->
<g id="node6" class="node"><title>node187</title>
<ellipse fill="none" stroke="black" cx="1162" cy="-18" rx="27" ry="18"/>
<text text-anchor="middle" x="1162" y="-14.7" font-family="Times Roman,serif" font-size="12.00">dl</text>
</g>
<!-- node151&#45;&gt;node187 -->
<g id="edge6" class="edge"><title>node151&#45;&gt;node187</title>
<path fill="none" stroke="black" d="M1189.66,-71.8314C1185.41,-63.5451 1180.28,-53.5727 1175.61,-44.4748"/>
<polygon fill="black" stroke="black" points="1178.63,-42.7123 1170.95,-35.4177 1172.41,-45.9118 1178.63,-42.7123"/>
</g>
<!-- node179 -->
<g id="node8" class="node"><title>node179</title>
<ellipse fill="none" stroke="black" cx="1237" cy="-18" rx="30.0465" ry="18"/>
<text text-anchor="middle" x="1237" y="-14.7" font-family="Times Roman,serif" font-size="12.00">crypt</text>
</g>
<!-- node151&#45;&gt;node179 -->
<g id="edge8" class="edge"><title>node151&#45;&gt;node179</title>
<path fill="none" stroke="black" d="M1208.59,-71.8314C1212.96,-63.5451 1218.23,-53.5727 1223.03,-44.4748"/>
<polygon fill="black" stroke="black" points="1226.24,-45.8952 1227.81,-35.4177 1220.04,-42.6279 1226.24,-45.8952"/>
</g>
<!-- node188 -->
<g id="node10" class="node"><title>node188</title>
<ellipse fill="none" stroke="black" cx="1312" cy="-18" rx="27" ry="18"/>
<text text-anchor="middle" x="1312" y="-14.7" font-family="Times Roman,serif" font-size="12.00">rt</text>
</g>
<!-- node151&#45;&gt;node188 -->
<g id="edge10" class="edge"><title>node151&#45;&gt;node188</title>
<path fill="none" stroke="black" d="M1226.07,-72.7542C1243.41,-61.7009 1265.9,-47.375 1283.52,-36.1494"/>
<polygon fill="black" stroke="black" points="1285.68,-38.9209 1292.23,-30.5955 1281.92,-33.0174 1285.68,-38.9209"/>
</g>
<!-- node160&#45;&gt;node151 -->
<g id="edge20" class="edge"><title>node160&#45;&gt;node151</title>
<path fill="none" stroke="black" d="M2265.23,-575.891C2264.32,-555.335 2266.37,-522.291 2286,-504 2371.34,-424.467 2438.78,-513.974 2546,-468 2605.01,-442.697 2659,-442.205 2659,-378 2659,-378 2659,-378 2659,-234 2659,-158.862 3241.39,-278.358 2360,-144 2135.8,-109.823 1410.14,-94.0303 1236.56,-90.688"/>
<polygon fill="black" stroke="black" points="1236.45,-87.1855 1226.39,-90.4944 1236.32,-94.1843 1236.45,-87.1855"/>
</g>
<!-- node180 -->
<g id="node14" class="node"><title>node180</title>
<ellipse fill="none" stroke="black" cx="2380" cy="-522" rx="85.1424" ry="18"/>
<text text-anchor="middle" x="2380" y="-518.7" font-family="Times Roman,serif" font-size="12.00">/usr/lib/libxalan&#45;c.so</text>
</g>
<!-- node160&#45;&gt;node180 -->
<g id="edge14" class="edge"><title>node160&#45;&gt;node180</title>
<path fill="none" stroke="black" d="M2294.07,-576.754C2309.16,-567.136 2328.15,-555.04 2344.43,-544.665"/>
<polygon fill="black" stroke="black" points="2346.6,-547.43 2353.15,-539.105 2342.84,-541.527 2346.6,-547.43"/>
</g>
<!-- node181 -->
<g id="node16" class="node"><title>node181</title>
<ellipse fill="none" stroke="black" cx="2576" cy="-522" rx="93.0912" ry="18"/>
<text text-anchor="middle" x="2576" y="-518.7" font-family="Times Roman,serif" font-size="12.00">/usr/lib/libxalanMsg.so</text>
</g>
<!-- node160&#45;&gt;node181 -->
<g id="edge16" class="edge"><title>node160&#45;&gt;node181</title>
<path fill="none" stroke="black" d="M2294.15,-587.674C2341.22,-576.707 2439.34,-553.842 2506.45,-538.207"/>
<polygon fill="black" stroke="black" points="2507.58,-541.536 2516.52,-535.858 2505.99,-534.719 2507.58,-541.536"/>
</g>
<!-- node182 -->
<g id="node18" class="node"><title>node182</title>
<ellipse fill="none" stroke="black" cx="2148" cy="-522" rx="90.9919" ry="18"/>
<text text-anchor="middle" x="2148" y="-518.7" font-family="Times Roman,serif" font-size="12.00">/usr/lib/libxerces&#45;c.so</text>
</g>
<!-- node160&#45;&gt;node182 -->
<g id="edge18" class="edge"><title>node160&#45;&gt;node182</title>
<path fill="none" stroke="black" d="M2240,-577.662C2223.88,-567.911 2203.17,-555.383 2185.49,-544.682"/>
<polygon fill="black" stroke="black" points="2186.92,-541.459 2176.56,-539.277 2183.3,-547.449 2186.92,-541.459"/>
</g>
<!-- node110&#45;&gt;node151 -->
<g id="edge30" class="edge"><title>node110&#45;&gt;node151</title>
<path fill="none" stroke="black" d="M2340.1,-661.347C2432.17,-646.704 2697,-597.982 2697,-522 2697,-522 2697,-522 2697,-234 2697,-184.639 2916.95,-233.296 2485,-144 2360.03,-118.166 1434.22,-95.4417 1236.21,-90.8456"/>
<polygon fill="black" stroke="black" points="1236.1,-87.3423 1226.02,-90.6104 1235.94,-94.3405 1236.1,-87.3423"/>
</g>
<!-- node110&#45;&gt;node160 -->
<g id="edge32" class="edge"><title>node110&#45;&gt;node160</title>
<path fill="none" stroke="black" d="M2298.4,-647.831C2293.71,-639.792 2288.1,-630.167 2282.92,-621.292"/>
<polygon fill="black" stroke="black" points="2285.8,-619.288 2277.74,-612.413 2279.76,-622.815 2285.8,-619.288"/>
</g>
<!-- node110&#45;&gt;node180 -->
<g id="edge24" class="edge"><title>node110&#45;&gt;node180</title>
<path fill="none" stroke="black" d="M2317.99,-647.762C2330.26,-622.876 2352.35,-578.082 2366.58,-549.216"/>
<polygon fill="black" stroke="black" points="2369.8,-550.606 2371.08,-540.09 2363.52,-547.511 2369.8,-550.606"/>
</g>
<!-- node110&#45;&gt;node181 -->
<g id="edge26" class="edge"><title>node110&#45;&gt;node181</title>
<path fill="none" stroke="black" d="M2340.15,-649.2C2388.53,-623.11 2481.71,-572.854 2535.33,-543.936"/>
<polygon fill="black" stroke="black" points="2537.08,-546.967 2544.22,-539.14 2533.76,-540.806 2537.08,-546.967"/>
</g>
<!-- node110&#45;&gt;node182 -->
<g id="edge28" class="edge"><title>node110&#45;&gt;node182</title>
<path fill="none" stroke="black" d="M2279.72,-647.94C2264.59,-638.066 2246.16,-625.184 2231,-612 2208.23,-592.198 2185.18,-566.675 2169.17,-547.87"/>
<polygon fill="black" stroke="black" points="2171.67,-545.4 2162.55,-540.003 2166.31,-549.907 2171.67,-545.4"/>
</g>
<!-- node155&#45;&gt;node151 -->
<g id="edge36" class="edge"><title>node155&#45;&gt;node151</title>
<path fill="none" stroke="black" d="M3073.05,-663.94C3148.59,-659.587 3294.07,-646.809 3330,-612 3359.36,-583.554 3349,-562.882 3349,-522 3349,-522 3349,-522 3349,-234 3349,-123.656 1522.34,-94.3859 1236.44,-90.4803"/>
<polygon fill="black" stroke="black" points="1236.23,-86.9773 1226.18,-90.3421 1236.14,-93.9766 1236.23,-86.9773"/>
</g>
<!-- node189 -->
<g id="node31" class="node"><title>node189</title>
<ellipse fill="none" stroke="black" cx="2874" cy="-594" rx="148.987" ry="18"/>
<text text-anchor="middle" x="2874" y="-590.7" font-family="Times Roman,serif" font-size="12.00">/usr/lib/x86_64&#45;linux&#45;gnu/libldap_r.so</text>
</g>
<!-- node155&#45;&gt;node189 -->
<g id="edge38" class="edge"><title>node155&#45;&gt;node189</title>
<path fill="none" stroke="black" d="M2988.39,-647.831C2967.71,-638.099 2942.08,-626.04 2920.33,-615.804"/>
<polygon fill="black" stroke="black" points="2921.81,-612.632 2911.28,-611.541 2918.83,-618.966 2921.81,-612.632"/>
</g>
<!-- node190 -->
<g id="node33" class="node"><title>node190</title>
<ellipse fill="none" stroke="black" cx="3181" cy="-594" rx="139.888" ry="18"/>
<text text-anchor="middle" x="3181" y="-590.7" font-family="Times Roman,serif" font-size="12.00">/usr/lib/x86_64&#45;linux&#45;gnu/liblber.so</text>
</g>
<!-- node155&#45;&gt;node190 -->
<g id="edge40" class="edge"><title>node155&#45;&gt;node190</title>
<path fill="none" stroke="black" d="M3065.86,-647.831C3086.76,-638.062 3112.66,-625.95 3134.61,-615.689"/>
<polygon fill="black" stroke="black" points="3136.17,-618.824 3143.75,-611.418 3133.2,-612.482 3136.17,-618.824"/>
</g>
<!-- node153&#45;&gt;node151 -->
<g id="edge44" class="edge"><title>node153&#45;&gt;node151</title>
<path fill="none" stroke="black" d="M442.443,-159.48C560.527,-148.635 1025.51,-105.933 1161.47,-93.4466"/>
<polygon fill="black" stroke="black" points="1162.14,-96.8998 1171.78,-92.4998 1161.5,-89.9291 1162.14,-96.8998"/>
</g>
<!-- node149&#45;&gt;node151 -->
<g id="edge48" class="edge"><title>node149&#45;&gt;node151</title>
<path fill="none" stroke="black" d="M835.965,-215.892C849.627,-195.013 874.997,-161.347 906,-144 949.472,-119.677 1093.39,-101.386 1162,-93.8189"/>
<polygon fill="black" stroke="black" points="1162.38,-97.298 1171.95,-92.739 1161.63,-90.3389 1162.38,-97.298"/>
</g>
<!-- node149&#45;&gt;node153 -->
<g id="edge50" class="edge"><title>node149&#45;&gt;node153</title>
<path fill="none" stroke="black" d="M797.781,-229.22C726.491,-216.701 534.2,-182.933 452.521,-168.589"/>
<polygon fill="black" stroke="black" points="452.664,-165.061 442.209,-166.778 451.453,-171.955 452.664,-165.061"/>
</g>
<!-- node59&#45;&gt;node151 -->
<g id="edge54" class="edge"><title>node59&#45;&gt;node151</title>
<path fill="none" stroke="black" d="M250.028,-215.917C254.627,-194.729 265.575,-160.432 290,-144 326.7,-119.309 994.153,-96.5126 1161.3,-91.1738"/>
<polygon fill="black" stroke="black" points="1161.69,-94.6633 1171.57,-90.8476 1161.46,-87.6668 1161.69,-94.6633"/>
</g>
<!-- node59&#45;&gt;node153 -->
<g id="edge56" class="edge"><title>node59&#45;&gt;node153</title>
<path fill="none" stroke="black" d="M276.263,-221.459C304.596,-209.316 347.645,-190.866 378.268,-177.742"/>
<polygon fill="black" stroke="black" points="379.927,-180.839 387.739,-173.683 377.169,-174.405 379.927,-180.839"/>
</g>
<!-- node66&#45;&gt;node151 -->
<g id="edge60" class="edge"><title>node66&#45;&gt;node151</title>
<path fill="none" stroke="black" d="M753.163,-287.727C766.276,-252.174 800.693,-174.513 860,-144 912.195,-117.146 1084.78,-99.6461 1161.58,-93.0048"/>
<polygon fill="black" stroke="black" points="1162.09,-96.4741 1171.76,-92.1399 1161.5,-89.4992 1162.09,-96.4741"/>
</g>
<!-- node66&#45;&gt;node153 -->
<g id="edge62" class="edge"><title>node66&#45;&gt;node153</title>
<path fill="none" stroke="black" d="M715.766,-292.453C654.198,-265.748 517.446,-206.434 451.697,-177.917"/>
<polygon fill="black" stroke="black" points="452.719,-174.545 442.152,-173.777 449.934,-180.967 452.719,-174.545"/>
</g>
<!-- node66&#45;&gt;node149 -->
<g id="edge64" class="edge"><title>node66&#45;&gt;node149</title>
<path fill="none" stroke="black" d="M766.683,-287.831C776.105,-279.134 787.54,-268.578 797.78,-259.127"/>
<polygon fill="black" stroke="black" points="800.35,-261.517 805.324,-252.163 795.602,-256.374 800.35,-261.517"/>
</g>
<!-- node66&#45;&gt;node59 -->
<g id="edge66" class="edge"><title>node66&#45;&gt;node59</title>
<path fill="none" stroke="black" d="M715.723,-301.496C628.453,-288.929 382.405,-253.498 286.225,-239.648"/>
<polygon fill="black" stroke="black" points="286.453,-236.145 276.056,-238.184 285.455,-243.074 286.453,-236.145"/>
</g>
<!-- node55&#45;&gt;node151 -->
<g id="edge70" class="edge"><title>node55&#45;&gt;node151</title>
<path fill="none" stroke="black" d="M300.413,-359.721C300.069,-313.736 306.433,-193.4 379,-144 444.288,-99.5553 1010.15,-91.5958 1161.76,-90.2567"/>
<polygon fill="black" stroke="black" points="1161.98,-93.7551 1171.95,-90.1714 1161.92,-86.7554 1161.98,-93.7551"/>
</g>
<!-- node55&#45;&gt;node153 -->
<g id="edge72" class="edge"><title>node55&#45;&gt;node153</title>
<path fill="none" stroke="black" d="M307.342,-359.904C320.361,-323.178 350.204,-241.238 366,-216 372.273,-205.977 380.492,-196.079 388.402,-187.549"/>
<polygon fill="black" stroke="black" points="391.116,-189.775 395.514,-180.136 386.065,-184.929 391.116,-189.775"/>
</g>
<!-- node55&#45;&gt;node59 -->
<g id="edge74" class="edge"><title>node55&#45;&gt;node59</title>
<path fill="none" stroke="black" d="M294.161,-359.762C284.869,-334.985 268.177,-290.471 257.348,-261.594"/>
<polygon fill="black" stroke="black" points="260.572,-260.224 253.784,-252.09 254.018,-262.682 260.572,-260.224"/>
</g>
<!-- node55&#45;&gt;node66 -->
<g id="edge76" class="edge"><title>node55&#45;&gt;node66</title>
<path fill="none" stroke="black" d="M346.35,-369.294C362.62,-366.247 381.115,-362.872 398,-360 509.018,-341.115 640.386,-321.531 705.754,-311.973"/>
<polygon fill="black" stroke="black" points="706.275,-315.434 715.665,-310.527 705.264,-308.508 706.275,-315.434"/>
</g>
<!-- node54&#45;&gt;node151 -->
<g id="edge82" class="edge"><title>node54&#45;&gt;node151</title>
<path fill="none" stroke="black" d="M645.731,-448.376C546.174,-443.2 255.631,-425.664 226,-396 169.212,-339.148 184.985,-292.684 209,-216 220.643,-178.821 225.01,-163.039 259,-144 338.718,-99.3466 996.245,-91.5011 1161.45,-90.2303"/>
<polygon fill="black" stroke="black" points="1161.64,-93.7291 1171.61,-90.1557 1161.58,-86.7293 1161.64,-93.7291"/>
</g>
<!-- node54&#45;&gt;node153 -->
<g id="edge84" class="edge"><title>node54&#45;&gt;node153</title>
<path fill="none" stroke="black" d="M645.929,-443.456C589.963,-432.098 481.42,-408.733 469,-396 414.058,-339.673 410.776,-239.221 412.845,-190.316"/>
<polygon fill="black" stroke="black" points="416.35,-190.317 413.386,-180.146 409.36,-189.945 416.35,-190.317"/>
</g>
<!-- node54&#45;&gt;node149 -->
<g id="edge86" class="edge"><title>node54&#45;&gt;node149</title>
<path fill="none" stroke="black" d="M712.116,-448.458C810.479,-443.544 1095.78,-426.735 1123,-396 1133.61,-384.023 1133.6,-371.984 1123,-360 1036.07,-261.732 919.626,-419.818 830,-324 814.867,-307.822 814.941,-282.016 818.032,-262.177"/>
<polygon fill="black" stroke="black" points="821.509,-262.624 819.92,-252.15 814.63,-261.329 821.509,-262.624"/>
</g>
<!-- node54&#45;&gt;node59 -->
<g id="edge104" class="edge"><title>node54&#45;&gt;node59</title>
<path fill="none" stroke="black" d="M645.75,-448.333C549.095,-443.151 273.355,-425.855 247,-396 214.643,-359.346 226.231,-297.771 237.002,-262.022"/>
<polygon fill="black" stroke="black" points="240.418,-262.83 240.124,-252.239 233.749,-260.701 240.418,-262.83"/>
</g>
<!-- node54&#45;&gt;node66 -->
<g id="edge106" class="edge"><title>node54&#45;&gt;node66</title>
<path fill="none" stroke="black" d="M712.13,-448.278C807.752,-442.973 1079.06,-425.434 1105,-396 1115.58,-383.996 1115.65,-371.943 1105,-360 1058.41,-307.741 859.88,-341.153 792,-324 790.572,-323.639 789.13,-323.244 787.681,-322.82"/>
<polygon fill="black" stroke="black" points="788.71,-319.474 778.117,-319.679 786.526,-326.125 788.71,-319.474"/>
</g>
<!-- node54&#45;&gt;node55 -->
<g id="edge108" class="edge"><title>node54&#45;&gt;node55</title>
<path fill="none" stroke="black" d="M645.786,-443.674C580.654,-431.267 435.589,-403.636 355.953,-388.467"/>
<polygon fill="black" stroke="black" points="356.584,-385.025 346.105,-386.591 355.274,-391.901 356.584,-385.025"/>
</g>
<!-- node176 -->
<g id="node60" class="node"><title>node176</title>
<ellipse fill="none" stroke="black" cx="609" cy="-378" rx="130.789" ry="18"/>
<text text-anchor="middle" x="609" y="-374.7" font-family="Times Roman,serif" font-size="12.00">/usr/lib/x86_64&#45;linux&#45;gnu/libz.so</text>
</g>
<!-- node54&#45;&gt;node176 -->
<g id="edge80" class="edge"><title>node54&#45;&gt;node176</title>
<path fill="none" stroke="black" d="M661.336,-431.831C652.899,-423.153 642.664,-412.626 633.49,-403.19"/>
<polygon fill="black" stroke="black" points="635.896,-400.644 626.416,-395.913 630.877,-405.523 635.896,-400.644"/>
</g>
<!-- node54&#45;&gt;node146 -->
<g id="edge88" class="edge"><title>node54&#45;&gt;node146</title>
<path fill="none" stroke="black" d="M712.086,-446.906C837.085,-435.218 1280.13,-393.791 1411.82,-381.477"/>
<polygon fill="black" stroke="black" points="1412.19,-384.957 1421.82,-380.541 1411.54,-377.988 1412.19,-384.957"/>
</g>
<!-- node177 -->
<g id="node82" class="node"><title>node177</title>
<ellipse fill="none" stroke="black" cx="829" cy="-378" rx="70.8437" ry="18"/>
<text text-anchor="middle" x="829" y="-374.7" font-family="Times Roman,serif" font-size="12.00">/usr/lib/libbfd.so</text>
</g>
<!-- node54&#45;&gt;node177 -->
<g id="edge110" class="edge"><title>node54&#45;&gt;node177</title>
<path fill="none" stroke="black" d="M712.29,-434.021C734.234,-423.487 763.164,-409.601 786.731,-398.289"/>
<polygon fill="black" stroke="black" points="788.303,-401.417 795.803,-393.934 785.273,-395.106 788.303,-401.417"/>
</g>
<!-- node178 -->
<g id="node84" class="node"><title>node178</title>
<ellipse fill="none" stroke="black" cx="1007" cy="-378" rx="89.0421" ry="18"/>
<text text-anchor="middle" x="1007" y="-374.7" font-family="Times Roman,serif" font-size="12.00">/usr/lib/libiberty_pic.a</text>
</g>
<!-- node54&#45;&gt;node178 -->
<g id="edge112" class="edge"><title>node54&#45;&gt;node178</title>
<path fill="none" stroke="black" d="M712.255,-442.7C764.568,-431.217 867.246,-408.678 936.508,-393.474"/>
<polygon fill="black" stroke="black" points="937.457,-396.849 946.474,-391.286 935.956,-390.012 937.457,-396.849"/>
</g>
<!-- node146&#45;&gt;node151 -->
<g id="edge98" class="edge"><title>node146&#45;&gt;node151</title>
<path fill="none" stroke="black" d="M1446.32,-359.876C1442.84,-340.781 1435.44,-310.426 1421,-288 1371.28,-210.786 1283.52,-145.306 1234.56,-112.514"/>
<polygon fill="black" stroke="black" points="1236.44,-109.566 1226.17,-106.966 1232.58,-115.404 1236.44,-109.566"/>
</g>
<!-- node186 -->
<g id="node67" class="node"><title>node186</title>
<ellipse fill="none" stroke="black" cx="1293" cy="-306" rx="118.939" ry="18"/>
<text text-anchor="middle" x="1293" y="-302.7" font-family="Times Roman,serif" font-size="12.00">/usr/lib/libboost_regex&#45;mt.so</text>
</g>
<!-- node146&#45;&gt;node186 -->
<g id="edge90" class="edge"><title>node146&#45;&gt;node186</title>
<path fill="none" stroke="black" d="M1421.83,-365.459C1399.1,-354.971 1366.19,-339.778 1339.31,-327.375"/>
<polygon fill="black" stroke="black" points="1340.63,-324.13 1330.09,-323.117 1337.7,-330.486 1340.63,-324.13"/>
</g>
<!-- node183 -->
<g id="node69" class="node"><title>node183</title>
<ellipse fill="none" stroke="black" cx="1546" cy="-306" rx="77.9931" ry="18"/>
<text text-anchor="middle" x="1546" y="-302.7" font-family="Times Roman,serif" font-size="12.00">/usr/lib/libicuuc.so</text>
</g>
<!-- node146&#45;&gt;node183 -->
<g id="edge92" class="edge"><title>node146&#45;&gt;node183</title>
<path fill="none" stroke="black" d="M1473.48,-359.831C1485.82,-350.673 1500.93,-339.455 1514.16,-329.634"/>
<polygon fill="black" stroke="black" points="1516.59,-332.188 1522.53,-323.418 1512.42,-326.568 1516.59,-332.188"/>
</g>
<!-- node184 -->
<g id="node71" class="node"><title>node184</title>
<ellipse fill="none" stroke="black" cx="1727" cy="-306" rx="85.1424" ry="18"/>
<text text-anchor="middle" x="1727" y="-302.7" font-family="Times Roman,serif" font-size="12.00">/usr/lib/libicui18n.so</text>
</g>
<!-- node146&#45;&gt;node184 -->
<g id="edge94" class="edge"><title>node146&#45;&gt;node184</title>
<path fill="none" stroke="black" d="M1476.07,-365.259C1480.66,-363.346 1485.42,-361.511 1490,-360 1520.35,-349.98 1597.77,-332.91 1655.93,-320.642"/>
<polygon fill="black" stroke="black" points="1656.75,-324.046 1665.81,-318.563 1655.31,-317.196 1656.75,-324.046"/>
</g>
<!-- node185 -->
<g id="node73" class="node"><title>node185</title>
<ellipse fill="none" stroke="black" cx="1071" cy="-306" rx="85.1424" ry="18"/>
<text text-anchor="middle" x="1071" y="-302.7" font-family="Times Roman,serif" font-size="12.00">/usr/lib/libicudata.so</text>
</g>
<!-- node146&#45;&gt;node185 -->
<g id="edge96" class="edge"><title>node146&#45;&gt;node185</title>
<path fill="none" stroke="black" d="M1421.74,-365.93C1415.96,-363.705 1409.85,-361.587 1404,-360 1300.33,-331.865 1270.88,-342.105 1165,-324 1157.96,-322.797 1150.64,-321.49 1143.32,-320.149"/>
<polygon fill="black" stroke="black" points="1143.85,-316.687 1133.38,-318.305 1142.58,-323.57 1143.85,-316.687"/>
</g>
<!-- node146&#45;&gt;node147 -->
<g id="edge100" class="edge"><title>node146&#45;&gt;node147</title>
<path fill="none" stroke="black" d="M1476.37,-364.62C1480.85,-362.832 1485.49,-361.204 1490,-360 1629.76,-322.671 1676.91,-363.814 1819.88,-323.699"/>
<polygon fill="black" stroke="black" points="1821.26,-326.944 1829.89,-320.803 1819.31,-320.22 1821.26,-326.944"/>
</g>
<!-- node147&#45;&gt;node151 -->
<g id="edge102" class="edge"><title>node147&#45;&gt;node151</title>
<path fill="none" stroke="black" d="M1830,-292.173C1826.98,-290.726 1823.94,-289.307 1821,-288 1660.92,-216.748 1621.84,-194.322 1454,-144 1377.92,-121.189 1286.3,-104.274 1236.21,-95.8924"/>
<polygon fill="black" stroke="black" points="1236.61,-92.4109 1226.17,-94.2343 1235.46,-99.3173 1236.61,-92.4109"/>
</g>
<!-- node53&#45;&gt;node151 -->
<g id="edge120" class="edge"><title>node53&#45;&gt;node151</title>
<path fill="none" stroke="black" d="M1668.03,-445.492C1723.93,-435.3 1842.83,-404.742 1893,-324 1901.44,-310.409 1901.96,-301.258 1893,-288 1816.77,-175.167 1369.66,-111.198 1236.44,-94.4585"/>
<polygon fill="black" stroke="black" points="1236.68,-90.961 1226.32,-93.2024 1235.82,-97.9077 1236.68,-90.961"/>
</g>
<!-- node53&#45;&gt;node146 -->
<g id="edge124" class="edge"><title>node53&#45;&gt;node146</title>
<path fill="none" stroke="black" d="M1607.63,-438.432C1574.44,-425.787 1521.26,-405.528 1485.74,-391.997"/>
<polygon fill="black" stroke="black" points="1486.81,-388.66 1476.22,-388.371 1484.32,-395.202 1486.81,-388.66"/>
</g>
<!-- node53&#45;&gt;node147 -->
<g id="edge122" class="edge"><title>node53&#45;&gt;node147</title>
<path fill="none" stroke="black" d="M1650.45,-431.658C1664.98,-411.51 1690.79,-379.438 1720,-360 1757.19,-335.25 1774.89,-341.693 1820.2,-323.986"/>
<polygon fill="black" stroke="black" points="1821.72,-327.144 1829.64,-320.107 1819.06,-320.669 1821.72,-327.144"/>
</g>
<!-- node64&#45;&gt;node151 -->
<g id="edge128" class="edge"><title>node64&#45;&gt;node151</title>
<path fill="none" stroke="black" d="M1405.89,-503.783C1408.29,-469.715 1407.94,-396.515 1366,-360 1300.52,-302.996 1035.49,-388.153 977,-324 901.046,-240.693 1081.84,-143.701 1162.54,-106.066"/>
<polygon fill="black" stroke="black" points="1164.24,-109.136 1171.86,-101.776 1161.32,-102.777 1164.24,-109.136"/>
</g>
<!-- node64&#45;&gt;node66 -->
<g id="edge130" class="edge"><title>node64&#45;&gt;node66</title>
<path fill="none" stroke="black" d="M1385.52,-503.846C1349.01,-469.208 1263.55,-394.107 1176,-360 1140.28,-346.084 888.421,-319.995 788.095,-310.019"/>
<polygon fill="black" stroke="black" points="788.326,-306.525 778.029,-309.022 787.635,-313.491 788.326,-306.525"/>
</g>
<!-- node64&#45;&gt;node54 -->
<g id="edge132" class="edge"><title>node64&#45;&gt;node54</title>
<path fill="none" stroke="black" d="M1369.52,-518.576C1250.06,-506.712 854.012,-467.381 722.139,-454.284"/>
<polygon fill="black" stroke="black" points="722.314,-450.784 712.017,-453.279 721.622,-457.75 722.314,-450.784"/>
</g>
<!-- node64&#45;&gt;node146 -->
<g id="edge136" class="edge"><title>node64&#45;&gt;node146</title>
<path fill="none" stroke="black" d="M1409.7,-503.762C1417.41,-479.093 1431.23,-434.86 1440.26,-405.973"/>
<polygon fill="black" stroke="black" points="1443.7,-406.678 1443.35,-396.09 1437.02,-404.59 1443.7,-406.678"/>
</g>
<!-- node64&#45;&gt;node147 -->
<g id="edge134" class="edge"><title>node64&#45;&gt;node147</title>
<path fill="none" stroke="black" d="M1415.94,-503.891C1439.82,-469.333 1497.13,-394.363 1566,-360 1665.52,-310.345 1709.22,-355.334 1820,-323.674"/>
<polygon fill="black" stroke="black" points="1821.3,-326.94 1829.86,-320.706 1819.28,-320.237 1821.3,-326.94"/>
</g>
<!-- node64&#45;&gt;node53 -->
<g id="edge138" class="edge"><title>node64&#45;&gt;node53</title>
<path fill="none" stroke="black" d="M1438.03,-511.531C1480.45,-498.477 1552.86,-476.197 1597.93,-462.331"/>
<polygon fill="black" stroke="black" points="1599.13,-465.623 1607.66,-459.337 1597.07,-458.932 1599.13,-465.623"/>
</g>
<!-- node65&#45;&gt;node151 -->
<g id="edge142" class="edge"><title>node65&#45;&gt;node151</title>
<path fill="none" stroke="black" d="M1279.81,-663.879C1151.62,-656.501 749.232,-627.442 429,-540 247.54,-490.451 38,-566.103 38,-378 38,-378 38,-378 38,-234 38,-144.16 132.139,-166.943 219,-144 311.337,-119.61 993.544,-96.5245 1161.65,-91.1642"/>
<polygon fill="black" stroke="black" points="1161.86,-94.6594 1171.74,-90.844 1161.64,-87.6629 1161.86,-94.6594"/>
</g>
<!-- node65&#45;&gt;node160 -->
<g id="edge204" class="edge"><title>node65&#45;&gt;node160</title>
<path fill="none" stroke="black" d="M1362.26,-662.86C1519.4,-650.9 2079.23,-608.291 2229.6,-596.847"/>
<polygon fill="black" stroke="black" points="2230,-600.326 2239.7,-596.078 2229.47,-593.347 2230,-600.326"/>
</g>
<!-- node65&#45;&gt;node54 -->
<g id="edge202" class="edge"><title>node65&#45;&gt;node54</title>
<path fill="none" stroke="black" d="M1279.71,-653.689C1207.05,-631.859 1051.7,-584.468 922,-540 851.331,-515.771 770.096,-485.106 721.738,-466.549"/>
<polygon fill="black" stroke="black" points="722.816,-463.214 712.226,-462.892 720.304,-469.748 722.816,-463.214"/>
</g>
<!-- node65&#45;&gt;node64 -->
<g id="edge144" class="edge"><title>node65&#45;&gt;node64</title>
<path fill="none" stroke="black" d="M1338.71,-647.554C1347.67,-637.575 1358.25,-624.715 1366,-612 1378.06,-592.201 1388.08,-567.887 1394.79,-549.524"/>
<polygon fill="black" stroke="black" points="1398.12,-550.595 1398.17,-540.001 1391.53,-548.252 1398.12,-550.595"/>
</g>
<!-- node65&#45;&gt;node56 -->
<g id="edge146" class="edge"><title>node65&#45;&gt;node56</title>
<path fill="none" stroke="black" d="M1322.01,-647.831C1322.44,-640.131 1322.95,-630.974 1323.42,-622.417"/>
<polygon fill="black" stroke="black" points="1326.92,-622.592 1323.98,-612.413 1319.93,-622.204 1326.92,-622.592"/>
</g>
<!-- node56&#45;&gt;node151 -->
<g id="edge148" class="edge"><title>node56&#45;&gt;node151</title>
<path fill="none" stroke="black" d="M1326.52,-575.968C1330.25,-526.525 1337.58,-390.464 1308,-360 1253.22,-303.589 1008.7,-382.36 956,-324 897.687,-259.419 959.14,-189.998 1033,-144 1073.39,-118.847 1126.67,-104.235 1161.85,-96.6961"/>
<polygon fill="black" stroke="black" points="1162.61,-100.112 1171.7,-94.6668 1161.2,-93.2553 1162.61,-100.112"/>
</g>
<!-- node56&#45;&gt;node153 -->
<g id="edge150" class="edge"><title>node56&#45;&gt;node153</title>
<path fill="none" stroke="black" d="M1292.73,-591.42C1148.3,-579.209 562.891,-522.463 440,-396 386.151,-340.586 398.221,-239.337 408.202,-190.219"/>
<polygon fill="black" stroke="black" points="411.657,-190.8 410.339,-180.288 404.814,-189.328 411.657,-190.8"/>
</g>
<!-- node56&#45;&gt;node149 -->
<g id="edge152" class="edge"><title>node56&#45;&gt;node149</title>
<path fill="none" stroke="black" d="M1294.02,-575.878C1281.64,-566.826 1268.74,-554.658 1262,-540 1241.94,-496.391 1246.42,-477.402 1262,-432 1268.58,-412.827 1283.42,-415.173 1290,-396 1295.19,-380.866 1300.77,-371.83 1290,-360 1232.29,-296.63 982.579,-362.489 906,-324 878.061,-309.958 855.243,-281.848 841.027,-260.76"/>
<polygon fill="black" stroke="black" points="843.856,-258.69 835.471,-252.213 837.987,-262.505 843.856,-258.69"/>
</g>
<!-- node56&#45;&gt;node59 -->
<g id="edge154" class="edge"><title>node56&#45;&gt;node59</title>
<path fill="none" stroke="black" d="M1292.75,-593.703C1159.38,-592.196 650.643,-583.645 497,-540 496.487,-539.854 226.284,-396.451 226,-396 200.412,-355.367 213.032,-334.972 223,-288 224.898,-279.056 228.384,-269.794 232.121,-261.52"/>
<polygon fill="black" stroke="black" points="235.357,-262.868 236.544,-252.34 229.051,-259.829 235.357,-262.868"/>
</g>
<!-- node56&#45;&gt;node66 -->
<g id="edge164" class="edge"><title>node56&#45;&gt;node66</title>
<path fill="none" stroke="black" d="M1292.9,-582.398C1271.42,-573.396 1243.6,-559.204 1224,-540 1158.48,-475.798 1199.18,-411.102 1123,-360 1068.52,-323.456 894.678,-334.963 830,-324 816.215,-321.663 801.253,-318.588 787.879,-315.642"/>
<polygon fill="black" stroke="black" points="788.53,-312.201 778.006,-313.428 786.999,-319.031 788.53,-312.201"/>
</g>
<!-- node56&#45;&gt;node55 -->
<g id="edge166" class="edge"><title>node56&#45;&gt;node55</title>
<path fill="none" stroke="black" d="M1292.68,-593.477C1168.92,-591.189 725.32,-580.293 591,-540 489.698,-509.612 384.712,-439.626 333.306,-402.37"/>
<polygon fill="black" stroke="black" points="335.072,-399.325 324.934,-396.247 330.939,-404.975 335.072,-399.325"/>
</g>
<!-- node56&#45;&gt;node54 -->
<g id="edge168" class="edge"><title>node56&#45;&gt;node54</title>
<path fill="none" stroke="black" d="M1292.96,-586.859C1186.47,-563.12 844.166,-486.817 722.455,-459.687"/>
<polygon fill="black" stroke="black" points="722.908,-456.202 712.386,-457.442 721.385,-463.034 722.908,-456.202"/>
</g>
<!-- node56&#45;&gt;node146 -->
<g id="edge158" class="edge"><title>node56&#45;&gt;node146</title>
<path fill="none" stroke="black" d="M1330.88,-575.866C1337.21,-557.291 1348.13,-527.841 1361,-504 1380.62,-467.667 1408.68,-429.217 1427.8,-404.487"/>
<polygon fill="black" stroke="black" points="1430.77,-406.373 1434.16,-396.337 1425.25,-402.065 1430.77,-406.373"/>
</g>
<!-- node56&#45;&gt;node147 -->
<g id="edge156" class="edge"><title>node56&#45;&gt;node147</title>
<path fill="none" stroke="black" d="M1357.16,-582.294C1382.4,-572.515 1418,-557.398 1447,-540 1558.31,-473.221 1560.37,-416.988 1677,-360 1733.49,-332.395 1756.91,-345.5 1820.13,-323.849"/>
<polygon fill="black" stroke="black" points="1821.53,-327.066 1829.76,-320.393 1819.16,-320.478 1821.53,-327.066"/>
</g>
<!-- node56&#45;&gt;node53 -->
<g id="edge170" class="edge"><title>node56&#45;&gt;node53</title>
<path fill="none" stroke="black" d="M1357.09,-590.085C1416.39,-582.37 1540.34,-563.86 1576,-540 1598.87,-524.696 1615.73,-497.847 1626.04,-477.445"/>
<polygon fill="black" stroke="black" points="1629.26,-478.836 1630.45,-468.309 1622.95,-475.795 1629.26,-478.836"/>
</g>
<!-- node56&#45;&gt;node64 -->
<g id="edge172" class="edge"><title>node56&#45;&gt;node64</title>
<path fill="none" stroke="black" d="M1344.94,-575.831C1354.48,-567.134 1366.06,-556.578 1376.43,-547.127"/>
<polygon fill="black" stroke="black" points="1379.04,-549.486 1384.07,-540.163 1374.32,-544.312 1379.04,-549.486"/>
</g>
<!-- node56&#45;&gt;node150 -->
<g id="edge160" class="edge"><title>node56&#45;&gt;node150</title>
<path fill="none" stroke="black" d="M1357.27,-590.892C1438.44,-583.013 1657.63,-561.366 1840,-540 1874.5,-535.958 1913.75,-530.826 1941.72,-527.077"/>
<polygon fill="black" stroke="black" points="1942.41,-530.516 1951.86,-525.713 1941.48,-523.578 1942.41,-530.516"/>
</g>
<!-- node63 -->
<g id="node121" class="node"><title>node63</title>
<polygon fill="none" stroke="black" points="1831,-540 1755,-540 1755,-504 1831,-504 1831,-540"/>
<text text-anchor="middle" x="1793" y="-518.7" font-family="Times Roman,serif" font-size="12.00">thorhelper</text>
</g>
<!-- node56&#45;&gt;node63 -->
<g id="edge174" class="edge"><title>node56&#45;&gt;node63</title>
<path fill="none" stroke="black" d="M1357.21,-591.254C1425.99,-585.05 1592.13,-568.247 1729,-540 1734.3,-538.906 1739.8,-537.61 1745.26,-536.221"/>
<polygon fill="black" stroke="black" points="1746.21,-539.591 1754.98,-533.646 1744.41,-532.825 1746.21,-539.591"/>
</g>
<!-- node56&#45;&gt;node99 -->
<g id="edge192" class="edge"><title>node56&#45;&gt;node99</title>
<path fill="none" stroke="black" d="M1357.16,-588.417C1410.6,-579.043 1521.04,-559.268 1614,-540 1627.59,-537.184 1642.43,-533.866 1655.55,-530.851"/>
<polygon fill="black" stroke="black" points="1656.69,-534.18 1665.64,-528.513 1655.11,-527.36 1656.69,-534.18"/>
</g>
<!-- node150&#45;&gt;node151 -->
<g id="edge162" class="edge"><title>node150&#45;&gt;node151</title>
<path fill="none" stroke="black" d="M2006.11,-514.541C2018.79,-511.151 2034.13,-507.194 2048,-504 2175.05,-474.749 2621,-508.376 2621,-378 2621,-378 2621,-378 2621,-234 2621,-208.024 2633.41,-194.263 2217,-144 2021.41,-120.391 1396.08,-97.0046 1236.4,-91.3096"/>
<polygon fill="black" stroke="black" points="1236.26,-87.8025 1226.14,-90.9453 1236.01,-94.7981 1236.26,-87.8025"/>
</g>
<!-- node63&#45;&gt;node151 -->
<g id="edge176" class="edge"><title>node63&#45;&gt;node151</title>
<path fill="none" stroke="black" d="M1812.81,-503.963C1846.22,-471.807 1911.72,-400.717 1928,-324 1939.1,-271.696 1916.85,-249.272 1875,-216 1811.73,-165.703 1786.18,-164.496 1708,-144 1618.54,-120.55 1338.09,-99.5362 1236.35,-92.4981"/>
<polygon fill="black" stroke="black" points="1236.45,-88.9969 1226.23,-91.8039 1235.97,-95.9805 1236.45,-88.9969"/>
</g>
<!-- node63&#45;&gt;node146 -->
<g id="edge180" class="edge"><title>node63&#45;&gt;node146</title>
<path fill="none" stroke="black" d="M1775,-503.958C1753.51,-483.465 1715.63,-450.48 1677,-432 1613.89,-401.808 1532.66,-387.81 1486.15,-381.875"/>
<polygon fill="black" stroke="black" points="1486.57,-378.4 1476.22,-380.663 1485.72,-385.348 1486.57,-378.4"/>
</g>
<!-- node63&#45;&gt;node147 -->
<g id="edge178" class="edge"><title>node63&#45;&gt;node147</title>
<path fill="none" stroke="black" d="M1798.35,-503.955C1809.52,-466.235 1835.42,-378.819 1848.75,-333.84"/>
<polygon fill="black" stroke="black" points="1852.14,-334.727 1851.62,-324.145 1845.43,-332.739 1852.14,-334.727"/>
</g>
<!-- node63&#45;&gt;node53 -->
<g id="edge182" class="edge"><title>node63&#45;&gt;node53</title>
<path fill="none" stroke="black" d="M1754.69,-504.202C1731.1,-493.247 1700.95,-479.24 1677.2,-468.209"/>
<polygon fill="black" stroke="black" points="1678.66,-465.026 1668.11,-463.988 1675.71,-471.375 1678.66,-465.026"/>
</g>
<!-- node63&#45;&gt;node156 -->
<g id="edge184" class="edge"><title>node63&#45;&gt;node156</title>
<path fill="none" stroke="black" d="M1831.01,-513.027C1883.8,-500.564 1979.73,-477.918 2041.08,-463.436"/>
<polygon fill="black" stroke="black" points="2042.07,-466.8 2051,-461.096 2040.46,-459.987 2042.07,-466.8"/>
</g>
<!-- node156&#45;&gt;node151 -->
<g id="edge186" class="edge"><title>node156&#45;&gt;node151</title>
<path fill="none" stroke="black" d="M2145.31,-447.617C2257.65,-441.527 2533.41,-423.876 2564,-396 2594.22,-368.463 2583,-346.882 2583,-306 2583,-306 2583,-306 2583,-234 2583,-164.255 1456.43,-103.145 1236.11,-91.8607"/>
<polygon fill="black" stroke="black" points="1236.19,-88.3603 1226.03,-91.3466 1235.83,-95.3512 1236.19,-88.3603"/>
</g>
<!-- node191 -->
<g id="node130" class="node"><title>node191</title>
<ellipse fill="none" stroke="black" cx="2098" cy="-378" rx="137.138" ry="18"/>
<text text-anchor="middle" x="2098" y="-374.7" font-family="Times Roman,serif" font-size="12.00">/usr/lib/x86_64&#45;linux&#45;gnu/libssl.so</text>
</g>
<!-- node156&#45;&gt;node191 -->
<g id="edge188" class="edge"><title>node156&#45;&gt;node191</title>
<path fill="none" stroke="black" d="M2098,-431.831C2098,-424.131 2098,-414.974 2098,-406.417"/>
<polygon fill="black" stroke="black" points="2101.5,-406.413 2098,-396.413 2094.5,-406.413 2101.5,-406.413"/>
</g>
<!-- node192 -->
<g id="node132" class="node"><title>node192</title>
<ellipse fill="none" stroke="black" cx="2404" cy="-378" rx="150.937" ry="18"/>
<text text-anchor="middle" x="2404" y="-374.7" font-family="Times Roman,serif" font-size="12.00">/usr/lib/x86_64&#45;linux&#45;gnu/libcrypto.so</text>
</g>
<!-- node156&#45;&gt;node192 -->
<g id="edge190" class="edge"><title>node156&#45;&gt;node192</title>
<path fill="none" stroke="black" d="M2145.14,-438.908C2193.14,-427.614 2268.4,-409.905 2325.43,-396.487"/>
<polygon fill="black" stroke="black" points="2326.56,-399.817 2335.49,-394.119 2324.96,-393.003 2326.56,-399.817"/>
</g>
<!-- node99&#45;&gt;node151 -->
<g id="edge194" class="edge"><title>node99&#45;&gt;node151</title>
<path fill="none" stroke="black" d="M1720.15,-508.836C1770.94,-482.341 1878.18,-417.059 1911,-324 1916.32,-308.911 1917.37,-302.677 1911,-288 1892.35,-245.021 1874.18,-240.103 1834,-216 1749.03,-165.026 1719.53,-166.373 1623,-144 1482.44,-111.421 1310.8,-97.1799 1236.38,-92.2145"/>
<polygon fill="black" stroke="black" points="1236.33,-88.7037 1226.12,-91.5481 1235.87,-95.6889 1236.33,-88.7037"/>
</g>
<!-- node99&#45;&gt;node146 -->
<g id="edge198" class="edge"><title>node99&#45;&gt;node146</title>
<path fill="none" stroke="black" d="M1665.77,-506.54C1646.96,-495.815 1621.4,-481.151 1599,-468 1559.84,-445.006 1515.25,-418.168 1484.93,-399.821"/>
<polygon fill="black" stroke="black" points="1486.37,-396.601 1476.01,-394.414 1482.75,-402.588 1486.37,-396.601"/>
</g>
<!-- node99&#45;&gt;node147 -->
<g id="edge196" class="edge"><title>node99&#45;&gt;node147</title>
<path fill="none" stroke="black" d="M1705.74,-503.914C1718.69,-485.628 1739.44,-456.629 1758,-432 1784.32,-397.067 1815.65,-357.516 1835.91,-332.196"/>
<polygon fill="black" stroke="black" points="1838.81,-334.174 1842.34,-324.182 1833.35,-329.796 1838.81,-334.174"/>
</g>
<!-- node99&#45;&gt;node53 -->
<g id="edge200" class="edge"><title>node99&#45;&gt;node53</title>
<path fill="none" stroke="black" d="M1679.12,-503.831C1672.79,-495.539 1665.16,-485.557 1658.21,-476.453"/>
<polygon fill="black" stroke="black" points="1660.92,-474.235 1652.07,-468.413 1655.35,-478.485 1660.92,-474.235"/>
</g>
</g>
</svg>
