<?xml version="1.0" encoding="UTF-8" standalone="no"?>
<!DOCTYPE svg PUBLIC "-//W3C//DTD SVG 1.1//EN"
 "http://www.w3.org/Graphics/SVG/1.1/DTD/svg11.dtd">
<!-- Generated by graphviz version 2.26.3 (20100126.1600)
 -->
<!-- Title: GG Pages: 1 -->
<svg width="310pt" height="404pt"
 viewBox="0.00 0.00 310.00 404.00" xmlns="http://www.w3.org/2000/svg" xmlns:xlink="http://www.w3.org/1999/xlink">
<g id="graph1" class="graph" transform="scale(1 1) rotate(0) translate(4 400)">
<title>GG</title>
<polygon fill="white" stroke="white" points="-4,5 -4,-400 307,-400 307,5 -4,5"/>
<!-- node81 -->
<g id="node1" class="node"><title>node81</title>
<polygon fill="none" stroke="black" points="186.039,-383.562 129,-396 71.9605,-383.562 72.0138,-363.438 185.986,-363.438 186.039,-383.562"/>
<text text-anchor="middle" x="129" y="-374.7" font-family="Times Roman,serif" font-size="12.00">daliadmin</text>
</g>
<!-- node151 -->
<g id="node2" class="node"><title>node151</title>
<polygon fill="none" stroke="black" points="189,-108 135,-108 135,-72 189,-72 189,-108"/>
<text text-anchor="middle" x="162" y="-86.7" font-family="Times Roman,serif" font-size="12.00">jlib</text>
</g>
<!-- node81&#45;&gt;node151 -->
<g id="edge2" class="edge"><title>node81&#45;&gt;node151</title>
<path fill="none" stroke="black" d="M114.553,-363.222C88.9966,-335.216 40.1182,-272.181 58,-216 71.0976,-174.85 105.401,-138.08 131.054,-115.035"/>
<polygon fill="black" stroke="black" points="133.488,-117.555 138.705,-108.334 128.876,-112.29 133.488,-117.555"/>
</g>
<!-- node153 -->
<g id="node12" class="node"><title>node153</title>
<polygon fill="none" stroke="black" points="189,-180 135,-180 135,-144 189,-144 189,-180"/>
<text text-anchor="middle" x="162" y="-158.7" font-family="Times Roman,serif" font-size="12.00">mp</text>
</g>
<!-- node81&#45;&gt;node153 -->
<g id="edge12" class="edge"><title>node81&#45;&gt;node153</title>
<path fill="none" stroke="black" d="M131.268,-363.153C136.713,-327.518 150.593,-236.665 157.686,-190.239"/>
<polygon fill="black" stroke="black" points="161.162,-190.66 159.212,-180.246 154.242,-189.603 161.162,-190.66"/>
</g>
<!-- node59 -->
<g id="node15" class="node"><title>node59</title>
<polygon fill="none" stroke="black" points="125,-252 67,-252 67,-216 125,-216 125,-252"/>
<text text-anchor="middle" x="96" y="-230.7" font-family="Times Roman,serif" font-size="12.00">remote</text>
</g>
<!-- node81&#45;&gt;node59 -->
<g id="edge16" class="edge"><title>node81&#45;&gt;node59</title>
<path fill="none" stroke="black" d="M125.654,-363.4C120.231,-339.735 109.427,-292.592 102.466,-262.214"/>
<polygon fill="black" stroke="black" points="105.824,-261.2 100.179,-252.234 99.001,-262.763 105.824,-261.2"/>
</g>
<!-- node66 -->
<g id="node19" class="node"><title>node66</title>
<polygon fill="none" stroke="black" points="243,-324 181,-324 181,-288 243,-288 243,-324"/>
<text text-anchor="middle" x="212" y="-302.7" font-family="Times Roman,serif" font-size="12.00">dalibase</text>
</g>
<!-- node81&#45;&gt;node66 -->
<g id="edge22" class="edge"><title>node81&#45;&gt;node66</title>
<path fill="none" stroke="black" d="M145.796,-363.43C156.521,-354.126 170.706,-341.821 183.194,-330.988"/>
<polygon fill="black" stroke="black" points="185.842,-333.325 191.102,-324.128 181.255,-328.037 185.842,-333.325"/>
</g>
<!-- node152 -->
<g id="node4" class="node"><title>node152</title>
<polygon fill="none" stroke="black" points="40,-36 0.0563759,-18 40,-3.55271e-15 79.9436,-18 40,-36"/>
<text text-anchor="middle" x="40" y="-14.7" font-family="Times Roman,serif" font-size="12.00">lzma</text>
</g>
<!-- node151&#45;&gt;node152 -->
<g id="edge4" class="edge"><title>node151&#45;&gt;node152</title>
<path fill="none" stroke="black" d="M134.924,-74.0209C114.47,-61.9494 86.5536,-45.4743 66.293,-33.5172"/>
<polygon fill="black" stroke="black" points="67.968,-30.4417 57.577,-28.3733 64.4102,-36.4701 67.968,-30.4417"/>
</g>
<!-- node187 -->
<g id="node6" class="node"><title>node187</title>
<ellipse fill="none" stroke="black" cx="125" cy="-18" rx="27" ry="18"/>
<text text-anchor="middle" x="125" y="-14.7" font-family="Times Roman,serif" font-size="12.00">dl</text>
</g>
<!-- node151&#45;&gt;node187 -->
<g id="edge6" class="edge"><title>node151&#45;&gt;node187</title>
<path fill="none" stroke="black" d="M152.663,-71.8314C148.405,-63.5451 143.28,-53.5727 138.605,-44.4748"/>
<polygon fill="black" stroke="black" points="141.635,-42.7123 133.951,-35.4177 135.408,-45.9118 141.635,-42.7123"/>
</g>
<!-- node179 -->
<g id="node8" class="node"><title>node179</title>
<ellipse fill="none" stroke="black" cx="200" cy="-18" rx="30.0465" ry="18"/>
<text text-anchor="middle" x="200" y="-14.7" font-family="Times Roman,serif" font-size="12.00">crypt</text>
</g>
<!-- node151&#45;&gt;node179 -->
<g id="edge8" class="edge"><title>node151&#45;&gt;node179</title>
<path fill="none" stroke="black" d="M171.589,-71.8314C175.962,-63.5451 181.226,-53.5727 186.027,-44.4748"/>
<polygon fill="black" stroke="black" points="189.235,-45.8952 190.807,-35.4177 183.044,-42.6279 189.235,-45.8952"/>
</g>
<!-- node188 -->
<g id="node10" class="node"><title>node188</title>
<ellipse fill="none" stroke="black" cx="275" cy="-18" rx="27" ry="18"/>
<text text-anchor="middle" x="275" y="-14.7" font-family="Times Roman,serif" font-size="12.00">rt</text>
</g>
<!-- node151&#45;&gt;node188 -->
<g id="edge10" class="edge"><title>node151&#45;&gt;node188</title>
<path fill="none" stroke="black" d="M189.066,-72.7542C206.414,-61.7009 228.898,-47.375 246.516,-36.1494"/>
<polygon fill="black" stroke="black" points="248.679,-38.9209 255.232,-30.5955 244.918,-33.0174 248.679,-38.9209"/>
</g>
<!-- node153&#45;&gt;node151 -->
<g id="edge14" class="edge"><title>node153&#45;&gt;node151</title>
<path fill="none" stroke="black" d="M162,-143.831C162,-136.131 162,-126.974 162,-118.417"/>
<polygon fill="black" stroke="black" points="165.5,-118.413 162,-108.413 158.5,-118.413 165.5,-118.413"/>
</g>
<!-- node59&#45;&gt;node151 -->
<g id="edge18" class="edge"><title>node59&#45;&gt;node151</title>
<path fill="none" stroke="black" d="M100.515,-215.858C105.488,-197.276 114.35,-167.821 126,-144 130.556,-134.685 136.489,-125.088 142.22,-116.617"/>
<polygon fill="black" stroke="black" points="145.202,-118.459 148.053,-108.255 139.461,-114.454 145.202,-118.459"/>
</g>
<!-- node59&#45;&gt;node153 -->
<g id="edge20" class="edge"><title>node59&#45;&gt;node153</title>
<path fill="none" stroke="black" d="M112.655,-215.831C120.411,-207.369 129.78,-197.149 138.261,-187.897"/>
<polygon fill="black" stroke="black" points="140.944,-190.15 145.121,-180.413 135.784,-185.42 140.944,-190.15"/>
</g>
<!-- node66&#45;&gt;node151 -->
<g id="edge24" class="edge"><title>node66&#45;&gt;node151</title>
<path fill="none" stroke="black" d="M243.033,-290.692C257.721,-281.642 273.807,-268.667 282,-252 289.058,-237.641 287.508,-231.022 282,-216 266.194,-172.891 226.854,-136.555 197.499,-114.146"/>
<polygon fill="black" stroke="black" points="199.243,-111.082 189.13,-107.924 195.067,-116.699 199.243,-111.082"/>
</g>
<!-- node66&#45;&gt;node153 -->
<g id="edge26" class="edge"><title>node66&#45;&gt;node153</title>
<path fill="none" stroke="black" d="M205.667,-287.762C197.064,-262.985 181.608,-218.471 171.581,-189.594"/>
<polygon fill="black" stroke="black" points="174.868,-188.388 168.281,-180.09 168.255,-190.684 174.868,-188.388"/>
</g>
<!-- node66&#45;&gt;node59 -->
<g id="edge34" class="edge"><title>node66&#45;&gt;node59</title>
<path fill="none" stroke="black" d="M182.728,-287.831C167.891,-278.622 149.698,-267.33 133.814,-257.471"/>
<polygon fill="black" stroke="black" points="135.605,-254.463 125.262,-252.163 131.913,-260.41 135.605,-254.463"/>
</g>
<!-- node149 -->
<g id="node23" class="node"><title>node149</title>
<polygon fill="none" stroke="black" points="273,-252 219,-252 219,-216 273,-216 273,-252"/>
<text text-anchor="middle" x="246" y="-230.7" font-family="Times Roman,serif" font-size="12.00">hrpc</text>
</g>
<!-- node66&#45;&gt;node149 -->
<g id="edge28" class="edge"><title>node66&#45;&gt;node149</title>
<path fill="none" stroke="black" d="M220.58,-287.831C224.336,-279.877 228.826,-270.369 232.98,-261.572"/>
<polygon fill="black" stroke="black" points="236.2,-262.95 237.305,-252.413 229.87,-259.961 236.2,-262.95"/>
</g>
<!-- node149&#45;&gt;node151 -->
<g id="edge30" class="edge"><title>node149&#45;&gt;node151</title>
<path fill="none" stroke="black" d="M236.948,-215.782C227.657,-197.394 212.542,-168.317 198,-144 192.592,-134.957 186.331,-125.315 180.562,-116.718"/>
<polygon fill="black" stroke="black" points="183.297,-114.515 174.785,-108.207 177.505,-118.446 183.297,-114.515"/>
</g>
<!-- node149&#45;&gt;node153 -->
<g id="edge32" class="edge"><title>node149&#45;&gt;node153</title>
<path fill="none" stroke="black" d="M224.803,-215.831C214.557,-207.048 202.1,-196.371 190.99,-186.849"/>
<polygon fill="black" stroke="black" points="193.06,-184.013 183.19,-180.163 188.505,-189.328 193.06,-184.013"/>
</g>
</g>
</svg>
