<?xml version="1.0" encoding="UTF-8" standalone="no"?>
<!DOCTYPE svg PUBLIC "-//W3C//DTD SVG 1.1//EN"
 "http://www.w3.org/Graphics/SVG/1.1/DTD/svg11.dtd">
<!-- Generated by graphviz version 2.26.3 (20100126.1600)
 -->
<!-- Title: GG Pages: 1 -->
<svg width="2612pt" height="692pt"
 viewBox="0.00 0.00 2612.00 692.00" xmlns="http://www.w3.org/2000/svg" xmlns:xlink="http://www.w3.org/1999/xlink">
<g id="graph1" class="graph" transform="scale(1 1) rotate(0) translate(4 688)">
<title>GG</title>
<polygon fill="white" stroke="white" points="-4,5 -4,-688 2609,-688 2609,5 -4,5"/>
<!-- node168 -->
<g id="node1" class="node"><title>node168</title>
<polygon fill="none" stroke="black" points="1434,-684 1318,-684 1318,-648 1434,-648 1434,-684"/>
<text text-anchor="middle" x="1376" y="-662.7" font-family="Times Roman,serif" font-size="12.00">mfilemanager_lcr</text>
</g>
<!-- node151 -->
<g id="node2" class="node"><title>node151</title>
<polygon fill="none" stroke="black" points="728,-108 674,-108 674,-72 728,-72 728,-108"/>
<text text-anchor="middle" x="701" y="-86.7" font-family="Times Roman,serif" font-size="12.00">jlib</text>
</g>
<!-- node168&#45;&gt;node151 -->
<g id="edge2" class="edge"><title>node168&#45;&gt;node151</title>
<path fill="none" stroke="black" d="M1317.62,-665.168C1068.91,-661.428 107.909,-644.891 53,-612 13.1773,-588.146 2.84234e-15,-568.421 0,-522 0,-522 0,-522 0,-234 7.00085e-15,-119.664 129.863,-170.859 241,-144 394.962,-106.791 584.345,-94.8717 663.479,-91.3538"/>
<polygon fill="black" stroke="black" points="664.056,-94.8326 673.899,-90.9114 663.759,-87.8389 664.056,-94.8326"/>
</g>
<!-- node59 -->
<g id="node12" class="node"><title>node59</title>
<polygon fill="none" stroke="black" points="342,-252 284,-252 284,-216 342,-216 342,-252"/>
<text text-anchor="middle" x="313" y="-230.7" font-family="Times Roman,serif" font-size="12.00">remote</text>
</g>
<!-- node168&#45;&gt;node59 -->
<g id="edge12" class="edge"><title>node168&#45;&gt;node59</title>
<path fill="none" stroke="black" d="M1317.8,-665.656C1119.37,-664.095 470.424,-655.691 267,-612 160.082,-589.037 38,-631.356 38,-522 38,-522 38,-522 38,-378 38,-272.869 197.682,-244.345 273.687,-236.722"/>
<polygon fill="black" stroke="black" points="274.197,-240.19 283.831,-235.78 273.55,-233.22 274.197,-240.19"/>
</g>
<!-- node66 -->
<g id="node18" class="node"><title>node66</title>
<polygon fill="none" stroke="black" points="498,-324 436,-324 436,-288 498,-288 498,-324"/>
<text text-anchor="middle" x="467" y="-302.7" font-family="Times Roman,serif" font-size="12.00">dalibase</text>
</g>
<!-- node168&#45;&gt;node66 -->
<g id="edge20" class="edge"><title>node168&#45;&gt;node66</title>
<path fill="none" stroke="black" d="M1317.8,-663.815C1103.95,-655.028 374,-618.001 374,-522 374,-522 374,-522 374,-450 374,-402.123 410.727,-357.552 438.02,-331.04"/>
<polygon fill="black" stroke="black" points="440.556,-333.46 445.43,-324.053 435.753,-328.367 440.556,-333.46"/>
</g>
<!-- node55 -->
<g id="node27" class="node"><title>node55</title>
<polygon fill="none" stroke="black" points="346,-396 256,-396 256,-360 346,-360 346,-396"/>
<text text-anchor="middle" x="301" y="-374.7" font-family="Times Roman,serif" font-size="12.00">environment</text>
</g>
<!-- node168&#45;&gt;node55 -->
<g id="edge34" class="edge"><title>node168&#45;&gt;node55</title>
<path fill="none" stroke="black" d="M1317.94,-664.805C1107.8,-660.237 397.17,-642.582 360,-612 298.51,-561.41 295.802,-456.965 298.487,-406.512"/>
<polygon fill="black" stroke="black" points="301.994,-406.525 299.144,-396.321 295.008,-406.075 301.994,-406.525"/>
</g>
<!-- node78 -->
<g id="node33" class="node"><title>node78</title>
<polygon fill="none" stroke="black" points="255,-468 201,-468 201,-432 255,-432 255,-468"/>
<text text-anchor="middle" x="228" y="-446.7" font-family="Times Roman,serif" font-size="12.00">dalift</text>
</g>
<!-- node168&#45;&gt;node78 -->
<g id="edge44" class="edge"><title>node168&#45;&gt;node78</title>
<path fill="none" stroke="black" d="M1317.63,-664.707C1100.18,-659.677 347.361,-640.285 305,-612 259.272,-581.466 239.993,-515.985 232.432,-478.291"/>
<polygon fill="black" stroke="black" points="235.788,-477.193 230.521,-468 228.906,-478.471 235.788,-477.193"/>
</g>
<!-- node54 -->
<g id="node41" class="node"><title>node54</title>
<polygon fill="none" stroke="black" points="976,-468 910,-468 910,-432 976,-432 976,-468"/>
<text text-anchor="middle" x="943" y="-446.7" font-family="Times Roman,serif" font-size="12.00">dllserver</text>
</g>
<!-- node168&#45;&gt;node54 -->
<g id="edge58" class="edge"><title>node168&#45;&gt;node54</title>
<path fill="none" stroke="black" d="M1339.83,-647.955C1260.19,-608.228 1070.05,-513.378 985.169,-471.036"/>
<polygon fill="black" stroke="black" points="986.589,-467.833 976.078,-466.501 983.464,-474.097 986.589,-467.833"/>
</g>
<!-- node146 -->
<g id="node48" class="node"><title>node146</title>
<polygon fill="none" stroke="black" points="1436,-396 1382,-396 1382,-360 1436,-360 1436,-396"/>
<text text-anchor="middle" x="1409" y="-374.7" font-family="Times Roman,serif" font-size="12.00">eclrtl</text>
</g>
<!-- node168&#45;&gt;node146 -->
<g id="edge96" class="edge"><title>node168&#45;&gt;node146</title>
<path fill="none" stroke="black" d="M1384.38,-647.711C1394.92,-623.626 1412.42,-579.675 1419,-540 1426.71,-493.546 1420.09,-438.71 1414.57,-406.229"/>
<polygon fill="black" stroke="black" points="1417.96,-405.343 1412.76,-396.116 1411.07,-406.576 1417.96,-405.343"/>
</g>
<!-- node147 -->
<g id="node59" class="node"><title>node147</title>
<polygon fill="none" stroke="black" points="1741,-324 1687,-324 1687,-288 1741,-288 1741,-324"/>
<text text-anchor="middle" x="1714" y="-302.7" font-family="Times Roman,serif" font-size="12.00">nbcd</text>
</g>
<!-- node168&#45;&gt;node147 -->
<g id="edge94" class="edge"><title>node168&#45;&gt;node147</title>
<path fill="none" stroke="black" d="M1434.26,-664.138C1653.69,-656.363 2418,-622.1 2418,-522 2418,-522 2418,-522 2418,-450 2418,-401.678 2398.71,-384.406 2357,-360 2304.69,-329.388 1881.3,-311.942 1751.61,-307.278"/>
<polygon fill="black" stroke="black" points="1751.51,-303.772 1741.39,-306.915 1751.26,-310.768 1751.51,-303.772"/>
</g>
<!-- node53 -->
<g id="node71" class="node"><title>node53</title>
<polygon fill="none" stroke="black" points="1592,-468 1532,-468 1532,-432 1592,-432 1592,-468"/>
<text text-anchor="middle" x="1562" y="-446.7" font-family="Times Roman,serif" font-size="12.00">deftype</text>
</g>
<!-- node168&#45;&gt;node53 -->
<g id="edge98" class="edge"><title>node168&#45;&gt;node53</title>
<path fill="none" stroke="black" d="M1434.27,-654.92C1478.28,-645.288 1533.5,-630.061 1548,-612 1578.51,-573.994 1574.24,-513.574 1568.22,-478.255"/>
<polygon fill="black" stroke="black" points="1571.61,-477.34 1566.33,-468.152 1564.73,-478.625 1571.61,-477.34"/>
</g>
<!-- node64 -->
<g id="node76" class="node"><title>node64</title>
<polygon fill="none" stroke="black" points="1410,-540 1342,-540 1342,-504 1410,-504 1410,-540"/>
<text text-anchor="middle" x="1376" y="-518.7" font-family="Times Roman,serif" font-size="12.00">workunit</text>
</g>
<!-- node168&#45;&gt;node64 -->
<g id="edge106" class="edge"><title>node168&#45;&gt;node64</title>
<path fill="none" stroke="black" d="M1376,-647.762C1376,-623.201 1376,-579.247 1376,-550.354"/>
<polygon fill="black" stroke="black" points="1379.5,-550.09 1376,-540.09 1372.5,-550.09 1379.5,-550.09"/>
</g>
<!-- node150 -->
<g id="node84" class="node"><title>node150</title>
<polygon fill="none" stroke="black" points="2500,-540 2446,-540 2446,-504 2500,-504 2500,-540"/>
<text text-anchor="middle" x="2473" y="-518.7" font-family="Times Roman,serif" font-size="12.00">jhtree</text>
</g>
<!-- node168&#45;&gt;node150 -->
<g id="edge120" class="edge"><title>node168&#45;&gt;node150</title>
<path fill="none" stroke="black" d="M1434.3,-664.687C1649.72,-659.621 2390.52,-640.211 2432,-612 2452.65,-597.958 2463.07,-570.826 2468.22,-550.007"/>
<polygon fill="black" stroke="black" points="2471.67,-550.608 2470.4,-540.089 2464.83,-549.103 2471.67,-550.608"/>
</g>
<!-- node52 -->
<g id="node87" class="node"><title>node52</title>
<polygon fill="none" stroke="black" points="2604,-540 2518,-540 2518,-504 2604,-504 2604,-540"/>
<text text-anchor="middle" x="2561" y="-518.7" font-family="Times Roman,serif" font-size="12.00">commonext</text>
</g>
<!-- node168&#45;&gt;node52 -->
<g id="edge124" class="edge"><title>node168&#45;&gt;node52</title>
<path fill="none" stroke="black" d="M1434.22,-665.34C1645.44,-662.637 2363.97,-650.665 2459,-612 2492.17,-598.505 2521.83,-569.423 2540.5,-547.952"/>
<polygon fill="black" stroke="black" points="2543.32,-550.04 2547.1,-540.144 2537.97,-545.52 2543.32,-550.04"/>
</g>
<!-- node164 -->
<g id="node90" class="node"><title>node164</title>
<polygon fill="none" stroke="black" points="1539,-612 1469,-612 1469,-576 1539,-576 1539,-612"/>
<text text-anchor="middle" x="1504" y="-590.7" font-family="Times Roman,serif" font-size="12.00">graph_lcr</text>
</g>
<!-- node168&#45;&gt;node164 -->
<g id="edge128" class="edge"><title>node168&#45;&gt;node164</title>
<path fill="none" stroke="black" d="M1408.3,-647.831C1424.82,-638.537 1445.12,-627.121 1462.76,-617.197"/>
<polygon fill="black" stroke="black" points="1464.71,-620.116 1471.71,-612.163 1461.28,-614.015 1464.71,-620.116"/>
</g>
<!-- node152 -->
<g id="node4" class="node"><title>node152</title>
<polygon fill="none" stroke="black" points="579,-36 539.056,-18 579,-3.55271e-15 618.944,-18 579,-36"/>
<text text-anchor="middle" x="579" y="-14.7" font-family="Times Roman,serif" font-size="12.00">lzma</text>
</g>
<!-- node151&#45;&gt;node152 -->
<g id="edge4" class="edge"><title>node151&#45;&gt;node152</title>
<path fill="none" stroke="black" d="M673.924,-74.0209C653.47,-61.9494 625.554,-45.4743 605.293,-33.5172"/>
<polygon fill="black" stroke="black" points="606.968,-30.4417 596.577,-28.3733 603.41,-36.4701 606.968,-30.4417"/>
</g>
<!-- node187 -->
<g id="node6" class="node"><title>node187</title>
<ellipse fill="none" stroke="black" cx="664" cy="-18" rx="27" ry="18"/>
<text text-anchor="middle" x="664" y="-14.7" font-family="Times Roman,serif" font-size="12.00">dl</text>
</g>
<!-- node151&#45;&gt;node187 -->
<g id="edge6" class="edge"><title>node151&#45;&gt;node187</title>
<path fill="none" stroke="black" d="M691.663,-71.8314C687.405,-63.5451 682.28,-53.5727 677.605,-44.4748"/>
<polygon fill="black" stroke="black" points="680.635,-42.7123 672.951,-35.4177 674.408,-45.9118 680.635,-42.7123"/>
</g>
<!-- node179 -->
<g id="node8" class="node"><title>node179</title>
<ellipse fill="none" stroke="black" cx="739" cy="-18" rx="30.0465" ry="18"/>
<text text-anchor="middle" x="739" y="-14.7" font-family="Times Roman,serif" font-size="12.00">crypt</text>
</g>
<!-- node151&#45;&gt;node179 -->
<g id="edge8" class="edge"><title>node151&#45;&gt;node179</title>
<path fill="none" stroke="black" d="M710.589,-71.8314C714.962,-63.5451 720.226,-53.5727 725.027,-44.4748"/>
<polygon fill="black" stroke="black" points="728.235,-45.8952 729.807,-35.4177 722.044,-42.6279 728.235,-45.8952"/>
</g>
<!-- node188 -->
<g id="node10" class="node"><title>node188</title>
<ellipse fill="none" stroke="black" cx="814" cy="-18" rx="27" ry="18"/>
<text text-anchor="middle" x="814" y="-14.7" font-family="Times Roman,serif" font-size="12.00">rt</text>
</g>
<!-- node151&#45;&gt;node188 -->
<g id="edge10" class="edge"><title>node151&#45;&gt;node188</title>
<path fill="none" stroke="black" d="M728.066,-72.7542C745.414,-61.7009 767.898,-47.375 785.516,-36.1494"/>
<polygon fill="black" stroke="black" points="787.679,-38.9209 794.232,-30.5955 783.918,-33.0174 787.679,-38.9209"/>
</g>
<!-- node59&#45;&gt;node151 -->
<g id="edge14" class="edge"><title>node59&#45;&gt;node151</title>
<path fill="none" stroke="black" d="M331.262,-215.727C353.064,-195.016 391.557,-161.827 431,-144 509.001,-108.746 609.981,-96.3903 663.633,-92.1478"/>
<polygon fill="black" stroke="black" points="663.996,-95.6306 673.711,-91.4032 663.481,-88.6497 663.996,-95.6306"/>
</g>
<!-- node153 -->
<g id="node15" class="node"><title>node153</title>
<polygon fill="none" stroke="black" points="494,-180 440,-180 440,-144 494,-144 494,-180"/>
<text text-anchor="middle" x="467" y="-158.7" font-family="Times Roman,serif" font-size="12.00">mp</text>
</g>
<!-- node59&#45;&gt;node153 -->
<g id="edge16" class="edge"><title>node59&#45;&gt;node153</title>
<path fill="none" stroke="black" d="M342.329,-220.288C367.466,-208.536 403.777,-191.559 430.734,-178.955"/>
<polygon fill="black" stroke="black" points="432.269,-182.101 439.846,-174.695 429.305,-175.76 432.269,-182.101"/>
</g>
<!-- node153&#45;&gt;node151 -->
<g id="edge18" class="edge"><title>node153&#45;&gt;node151</title>
<path fill="none" stroke="black" d="M494.301,-153.6C536.308,-140.675 616.868,-115.887 664.054,-101.368"/>
<polygon fill="black" stroke="black" points="665.345,-104.633 673.873,-98.3467 663.286,-97.9424 665.345,-104.633"/>
</g>
<!-- node66&#45;&gt;node151 -->
<g id="edge22" class="edge"><title>node66&#45;&gt;node151</title>
<path fill="none" stroke="black" d="M482.643,-287.947C509.978,-256.879 568.884,-192.022 625,-144 637.61,-133.209 652.311,-122.399 665.406,-113.317"/>
<polygon fill="black" stroke="black" points="667.463,-116.15 673.74,-107.615 663.51,-110.372 667.463,-116.15"/>
</g>
<!-- node66&#45;&gt;node59 -->
<g id="edge32" class="edge"><title>node66&#45;&gt;node59</title>
<path fill="none" stroke="black" d="M435.836,-291.43C411.414,-280.012 377.319,-264.071 351.245,-251.881"/>
<polygon fill="black" stroke="black" points="352.575,-248.639 342.034,-247.574 349.611,-254.98 352.575,-248.639"/>
</g>
<!-- node66&#45;&gt;node153 -->
<g id="edge24" class="edge"><title>node66&#45;&gt;node153</title>
<path fill="none" stroke="black" d="M467,-287.762C467,-263.201 467,-219.247 467,-190.354"/>
<polygon fill="black" stroke="black" points="470.5,-190.09 467,-180.09 463.5,-190.09 470.5,-190.09"/>
</g>
<!-- node149 -->
<g id="node22" class="node"><title>node149</title>
<polygon fill="none" stroke="black" points="635,-252 581,-252 581,-216 635,-216 635,-252"/>
<text text-anchor="middle" x="608" y="-230.7" font-family="Times Roman,serif" font-size="12.00">hrpc</text>
</g>
<!-- node66&#45;&gt;node149 -->
<g id="edge26" class="edge"><title>node66&#45;&gt;node149</title>
<path fill="none" stroke="black" d="M498.292,-290.021C519.97,-278.951 548.899,-264.179 571.608,-252.583"/>
<polygon fill="black" stroke="black" points="573.29,-255.654 580.605,-247.989 570.107,-249.42 573.29,-255.654"/>
</g>
<!-- node149&#45;&gt;node151 -->
<g id="edge28" class="edge"><title>node149&#45;&gt;node151</title>
<path fill="none" stroke="black" d="M614.199,-215.813C621.098,-196.934 633.363,-167.004 649,-144 655.904,-133.843 664.783,-123.838 673.243,-115.251"/>
<polygon fill="black" stroke="black" points="675.836,-117.611 680.51,-108.103 670.927,-112.621 675.836,-117.611"/>
</g>
<!-- node149&#45;&gt;node153 -->
<g id="edge30" class="edge"><title>node149&#45;&gt;node153</title>
<path fill="none" stroke="black" d="M580.814,-220.118C558.772,-208.862 527.507,-192.897 503.322,-180.547"/>
<polygon fill="black" stroke="black" points="504.601,-177.27 494.103,-175.84 501.417,-183.505 504.601,-177.27"/>
</g>
<!-- node55&#45;&gt;node151 -->
<g id="edge36" class="edge"><title>node55&#45;&gt;node151</title>
<path fill="none" stroke="black" d="M291.402,-359.92C276.299,-328.814 251.051,-263.898 275,-216 298.851,-168.297 321.936,-164.909 371,-144 423.303,-121.711 588.749,-101.918 663.588,-93.8492"/>
<polygon fill="black" stroke="black" points="664.375,-97.2852 673.948,-92.7449 663.633,-90.3246 664.375,-97.2852"/>
</g>
<!-- node55&#45;&gt;node59 -->
<g id="edge40" class="edge"><title>node55&#45;&gt;node59</title>
<path fill="none" stroke="black" d="M302.52,-359.762C304.567,-335.201 308.229,-291.247 310.637,-262.354"/>
<polygon fill="black" stroke="black" points="314.15,-262.346 311.493,-252.09 307.174,-261.764 314.15,-262.346"/>
</g>
<!-- node55&#45;&gt;node153 -->
<g id="edge38" class="edge"><title>node55&#45;&gt;node153</title>
<path fill="none" stroke="black" d="M337.585,-359.781C353.295,-350.639 370.992,-338.427 384,-324 420.499,-283.521 445.492,-224.052 457.915,-189.555"/>
<polygon fill="black" stroke="black" points="461.22,-190.707 461.226,-180.112 454.614,-188.391 461.22,-190.707"/>
</g>
<!-- node55&#45;&gt;node66 -->
<g id="edge42" class="edge"><title>node55&#45;&gt;node66</title>
<path fill="none" stroke="black" d="M342.889,-359.831C368.524,-348.712 401.159,-334.557 426.53,-323.553"/>
<polygon fill="black" stroke="black" points="428.087,-326.693 435.868,-319.503 425.301,-320.271 428.087,-326.693"/>
</g>
<!-- node78&#45;&gt;node151 -->
<g id="edge46" class="edge"><title>node78&#45;&gt;node151</title>
<path fill="none" stroke="black" d="M200.863,-433.806C188.039,-424.522 174.027,-411.605 167,-396 160.431,-381.411 164.145,-375.743 167,-360 186.951,-249.977 200.297,-201.827 296,-144 357.55,-106.81 575.658,-94.6564 663.719,-91.2097"/>
<polygon fill="black" stroke="black" points="663.933,-94.7043 673.795,-90.8315 663.67,-87.7092 663.933,-94.7043"/>
</g>
<!-- node78&#45;&gt;node59 -->
<g id="edge52" class="edge"><title>node78&#45;&gt;node59</title>
<path fill="none" stroke="black" d="M203.42,-431.777C192.852,-422.402 181.646,-410.002 176,-396 170.017,-381.161 169.569,-374.651 176,-360 196.148,-314.095 242.189,-277.555 275.34,-255.888"/>
<polygon fill="black" stroke="black" points="277.339,-258.765 283.891,-250.439 273.577,-252.861 277.339,-258.765"/>
</g>
<!-- node78&#45;&gt;node153 -->
<g id="edge48" class="edge"><title>node78&#45;&gt;node153</title>
<path fill="none" stroke="black" d="M222.697,-431.765C218.237,-412.848 214.154,-382.887 225,-360 230.729,-347.911 371.157,-237.014 435.42,-186.664"/>
<polygon fill="black" stroke="black" points="437.88,-189.184 443.596,-180.263 433.565,-183.672 437.88,-189.184"/>
</g>
<!-- node78&#45;&gt;node66 -->
<g id="edge54" class="edge"><title>node78&#45;&gt;node66</title>
<path fill="none" stroke="black" d="M226.567,-431.878C226.018,-411.624 228.453,-379.163 247,-360 253.283,-353.508 363.913,-328.51 425.842,-314.92"/>
<polygon fill="black" stroke="black" points="426.685,-318.319 435.705,-312.762 425.188,-311.481 426.685,-318.319"/>
</g>
<!-- node78&#45;&gt;node149 -->
<g id="edge50" class="edge"><title>node78&#45;&gt;node149</title>
<path fill="none" stroke="black" d="M255.239,-441.019C306.932,-423.277 421.71,-380.506 507,-324 535.347,-305.22 563.935,-278.895 583.425,-259.567"/>
<polygon fill="black" stroke="black" points="586.11,-261.831 590.684,-252.274 581.149,-256.893 586.11,-261.831"/>
</g>
<!-- node78&#45;&gt;node55 -->
<g id="edge56" class="edge"><title>node78&#45;&gt;node55</title>
<path fill="none" stroke="black" d="M246.421,-431.831C255.153,-423.219 265.732,-412.785 275.242,-403.405"/>
<polygon fill="black" stroke="black" points="277.923,-405.677 282.585,-396.163 273.007,-400.693 277.923,-405.677"/>
</g>
<!-- node54&#45;&gt;node151 -->
<g id="edge62" class="edge"><title>node54&#45;&gt;node151</title>
<path fill="none" stroke="black" d="M976.259,-449.001C1045.88,-446.135 1203.24,-435.354 1236,-396 1246.24,-383.704 1246.94,-371.678 1236,-360 1152.42,-270.764 770.576,-413.236 687,-324 634.165,-267.587 667.427,-166.092 688.121,-117.451"/>
<polygon fill="black" stroke="black" points="691.374,-118.746 692.186,-108.183 684.964,-115.934 691.374,-118.746"/>
</g>
<!-- node54&#45;&gt;node59 -->
<g id="edge84" class="edge"><title>node54&#45;&gt;node59</title>
<path fill="none" stroke="black" d="M909.721,-448.413C820.066,-443.747 575.315,-428.322 502,-396 430.862,-364.638 366.374,-297.356 334.318,-260.124"/>
<polygon fill="black" stroke="black" points="336.751,-257.582 327.613,-252.221 331.413,-262.111 336.751,-257.582"/>
</g>
<!-- node54&#45;&gt;node153 -->
<g id="edge64" class="edge"><title>node54&#45;&gt;node153</title>
<path fill="none" stroke="black" d="M909.764,-448.872C830.834,-445.598 634.843,-433.778 583,-396 547.036,-369.793 498.028,-246.21 477.12,-189.98"/>
<polygon fill="black" stroke="black" points="480.296,-188.476 473.553,-180.303 473.728,-190.897 480.296,-188.476"/>
</g>
<!-- node54&#45;&gt;node66 -->
<g id="edge86" class="edge"><title>node54&#45;&gt;node66</title>
<path fill="none" stroke="black" d="M909.873,-448.315C826.944,-443.646 612.576,-428.673 550,-396 522.138,-381.453 498.77,-353.682 484.001,-332.818"/>
<polygon fill="black" stroke="black" points="486.747,-330.633 478.21,-324.358 480.97,-334.587 486.747,-330.633"/>
</g>
<!-- node54&#45;&gt;node149 -->
<g id="edge66" class="edge"><title>node54&#45;&gt;node149</title>
<path fill="none" stroke="black" d="M976.11,-448.593C1042.59,-445 1188.55,-432.987 1219,-396 1229.17,-383.648 1229.95,-371.665 1219,-360 1132.13,-267.469 753.521,-395.999 649,-324 628.436,-309.835 618.005,-282.719 612.83,-261.938"/>
<polygon fill="black" stroke="black" points="616.217,-261.045 610.634,-252.04 609.383,-262.561 616.217,-261.045"/>
</g>
<!-- node54&#45;&gt;node55 -->
<g id="edge88" class="edge"><title>node54&#45;&gt;node55</title>
<path fill="none" stroke="black" d="M909.705,-447.689C824.372,-441.551 590.979,-423.415 398,-396 384.487,-394.08 369.988,-391.612 356.426,-389.122"/>
<polygon fill="black" stroke="black" points="356.742,-385.62 346.269,-387.222 355.455,-392.501 356.742,-385.62"/>
</g>
<!-- node176 -->
<g id="node43" class="node"><title>node176</title>
<ellipse fill="none" stroke="black" cx="723" cy="-378" rx="130.789" ry="18"/>
<text text-anchor="middle" x="723" y="-374.7" font-family="Times Roman,serif" font-size="12.00">/usr/lib/x86_64&#45;linux&#45;gnu/libz.so</text>
</g>
<!-- node54&#45;&gt;node176 -->
<g id="edge60" class="edge"><title>node54&#45;&gt;node176</title>
<path fill="none" stroke="black" d="M909.587,-439.065C876.202,-428.139 824.133,-411.098 783.474,-397.791"/>
<polygon fill="black" stroke="black" points="784.523,-394.452 773.93,-394.668 782.346,-401.105 784.523,-394.452"/>
</g>
<!-- node54&#45;&gt;node146 -->
<g id="edge68" class="edge"><title>node54&#45;&gt;node146</title>
<path fill="none" stroke="black" d="M976.14,-444.88C1060.56,-431.836 1283.27,-397.426 1371.88,-383.736"/>
<polygon fill="black" stroke="black" points="1372.65,-387.158 1382,-382.172 1371.58,-380.24 1372.65,-387.158"/>
</g>
<!-- node177 -->
<g id="node65" class="node"><title>node177</title>
<ellipse fill="none" stroke="black" cx="943" cy="-378" rx="70.8437" ry="18"/>
<text text-anchor="middle" x="943" y="-374.7" font-family="Times Roman,serif" font-size="12.00">/usr/lib/libbfd.so</text>
</g>
<!-- node54&#45;&gt;node177 -->
<g id="edge90" class="edge"><title>node54&#45;&gt;node177</title>
<path fill="none" stroke="black" d="M943,-431.831C943,-424.131 943,-414.974 943,-406.417"/>
<polygon fill="black" stroke="black" points="946.5,-406.413 943,-396.413 939.5,-406.413 946.5,-406.413"/>
</g>
<!-- node178 -->
<g id="node67" class="node"><title>node178</title>
<ellipse fill="none" stroke="black" cx="1121" cy="-378" rx="89.0421" ry="18"/>
<text text-anchor="middle" x="1121" y="-374.7" font-family="Times Roman,serif" font-size="12.00">/usr/lib/libiberty_pic.a</text>
</g>
<!-- node54&#45;&gt;node178 -->
<g id="edge92" class="edge"><title>node54&#45;&gt;node178</title>
<path fill="none" stroke="black" d="M976.063,-436.626C1002.83,-425.801 1040.94,-410.385 1071.36,-398.078"/>
<polygon fill="black" stroke="black" points="1072.99,-401.196 1080.95,-394.201 1070.36,-394.707 1072.99,-401.196"/>
</g>
<!-- node146&#45;&gt;node151 -->
<g id="edge78" class="edge"><title>node146&#45;&gt;node151</title>
<path fill="none" stroke="black" d="M1436.07,-374.012C1464.03,-368.292 1506.29,-354.811 1526,-324 1534.62,-310.523 1535.91,-300.565 1526,-288 1425.47,-160.483 886.145,-105.746 738.429,-93.0126"/>
<polygon fill="black" stroke="black" points="738.348,-89.4932 728.088,-92.135 737.756,-96.4682 738.348,-89.4932"/>
</g>
<!-- node186 -->
<g id="node50" class="node"><title>node186</title>
<ellipse fill="none" stroke="black" cx="1398" cy="-306" rx="118.939" ry="18"/>
<text text-anchor="middle" x="1398" y="-302.7" font-family="Times Roman,serif" font-size="12.00">/usr/lib/libboost_regex&#45;mt.so</text>
</g>
<!-- node146&#45;&gt;node186 -->
<g id="edge70" class="edge"><title>node146&#45;&gt;node186</title>
<path fill="none" stroke="black" d="M1406.22,-359.831C1405.05,-352.131 1403.65,-342.974 1402.34,-334.417"/>
<polygon fill="black" stroke="black" points="1405.78,-333.77 1400.81,-324.413 1398.86,-334.827 1405.78,-333.77"/>
</g>
<!-- node183 -->
<g id="node52" class="node"><title>node183</title>
<ellipse fill="none" stroke="black" cx="807" cy="-306" rx="77.9931" ry="18"/>
<text text-anchor="middle" x="807" y="-302.7" font-family="Times Roman,serif" font-size="12.00">/usr/lib/libicuuc.so</text>
</g>
<!-- node146&#45;&gt;node183 -->
<g id="edge72" class="edge"><title>node146&#45;&gt;node183</title>
<path fill="none" stroke="black" d="M1381.68,-365.039C1376.57,-363.052 1371.19,-361.25 1366,-360 1161.46,-310.75 1102.33,-353.373 894,-324 887.227,-323.045 880.191,-321.881 873.185,-320.609"/>
<polygon fill="black" stroke="black" points="873.452,-317.097 862.976,-318.679 872.152,-323.976 873.452,-317.097"/>
</g>
<!-- node184 -->
<g id="node54" class="node"><title>node184</title>
<ellipse fill="none" stroke="black" cx="988" cy="-306" rx="85.1424" ry="18"/>
<text text-anchor="middle" x="988" y="-302.7" font-family="Times Roman,serif" font-size="12.00">/usr/lib/libicui18n.so</text>
</g>
<!-- node146&#45;&gt;node184 -->
<g id="edge74" class="edge"><title>node146&#45;&gt;node184</title>
<path fill="none" stroke="black" d="M1381.63,-365.252C1376.52,-363.244 1371.16,-361.38 1366,-360 1243.09,-327.136 1207.65,-343.974 1082,-324 1074.75,-322.848 1067.21,-321.558 1059.69,-320.212"/>
<polygon fill="black" stroke="black" points="1060.31,-316.767 1049.84,-318.417 1059.05,-323.654 1060.31,-316.767"/>
</g>
<!-- node185 -->
<g id="node56" class="node"><title>node185</title>
<ellipse fill="none" stroke="black" cx="1176" cy="-306" rx="85.1424" ry="18"/>
<text text-anchor="middle" x="1176" y="-302.7" font-family="Times Roman,serif" font-size="12.00">/usr/lib/libicudata.so</text>
</g>
<!-- node146&#45;&gt;node185 -->
<g id="edge76" class="edge"><title>node146&#45;&gt;node185</title>
<path fill="none" stroke="black" d="M1381.89,-366.077C1376.66,-363.94 1371.19,-361.818 1366,-360 1324.85,-345.597 1277.71,-332.181 1240.68,-322.324"/>
<polygon fill="black" stroke="black" points="1241.57,-318.939 1231.01,-319.769 1239.78,-325.707 1241.57,-318.939"/>
</g>
<!-- node146&#45;&gt;node147 -->
<g id="edge80" class="edge"><title>node146&#45;&gt;node147</title>
<path fill="none" stroke="black" d="M1436,-365.765C1441.24,-363.658 1446.74,-361.626 1452,-360 1530.45,-335.744 1625.52,-319.234 1676.83,-311.341"/>
<polygon fill="black" stroke="black" points="1677.42,-314.79 1686.79,-309.833 1676.38,-307.869 1677.42,-314.79"/>
</g>
<!-- node147&#45;&gt;node151 -->
<g id="edge82" class="edge"><title>node147&#45;&gt;node151</title>
<path fill="none" stroke="black" d="M1715.62,-287.865C1717.57,-253.602 1716.21,-179.607 1673,-144 1636.29,-113.75 912.235,-94.9385 738.32,-90.8452"/>
<polygon fill="black" stroke="black" points="738.21,-87.3418 728.131,-90.6075 738.047,-94.3399 738.21,-87.3418"/>
</g>
<!-- node53&#45;&gt;node151 -->
<g id="edge100" class="edge"><title>node53&#45;&gt;node151</title>
<path fill="none" stroke="black" d="M1563.9,-431.775C1566.32,-400.448 1567.61,-335.21 1543,-288 1520.74,-245.287 1503.96,-239.647 1462,-216 1367.57,-162.788 1335.21,-165.619 1229,-144 1047.41,-107.036 825.273,-94.823 738.365,-91.285"/>
<polygon fill="black" stroke="black" points="738.339,-87.7814 728.209,-90.8864 738.064,-94.776 738.339,-87.7814"/>
</g>
<!-- node53&#45;&gt;node146 -->
<g id="edge104" class="edge"><title>node53&#45;&gt;node146</title>
<path fill="none" stroke="black" d="M1531.77,-435.775C1506.95,-424.095 1471.72,-407.517 1445.36,-395.112"/>
<polygon fill="black" stroke="black" points="1446.63,-391.839 1436.09,-390.748 1443.65,-398.173 1446.63,-391.839"/>
</g>
<!-- node53&#45;&gt;node147 -->
<g id="edge102" class="edge"><title>node53&#45;&gt;node147</title>
<path fill="none" stroke="black" d="M1581.25,-431.762C1608.2,-406.227 1657.28,-359.732 1687.62,-330.991"/>
<polygon fill="black" stroke="black" points="1690.05,-333.508 1694.91,-324.09 1685.24,-328.426 1690.05,-333.508"/>
</g>
<!-- node64&#45;&gt;node151 -->
<g id="edge108" class="edge"><title>node64&#45;&gt;node151</title>
<path fill="none" stroke="black" d="M1368.36,-503.814C1352.54,-468.771 1312.54,-392.491 1252,-360 1147.59,-303.97 804.349,-407.221 720,-324 691.643,-296.022 695.513,-174.345 698.928,-118.369"/>
<polygon fill="black" stroke="black" points="702.44,-118.302 699.596,-108.096 695.455,-117.848 702.44,-118.302"/>
</g>
<!-- node64&#45;&gt;node66 -->
<g id="edge110" class="edge"><title>node64&#45;&gt;node66</title>
<path fill="none" stroke="black" d="M1341.78,-521.664C1196.67,-519.567 633.622,-504.459 502,-396 483.49,-380.748 474.738,-354.435 470.618,-334.188"/>
<polygon fill="black" stroke="black" points="474.047,-333.481 468.859,-324.244 467.154,-334.7 474.047,-333.481"/>
</g>
<!-- node64&#45;&gt;node54 -->
<g id="edge112" class="edge"><title>node64&#45;&gt;node54</title>
<path fill="none" stroke="black" d="M1341.66,-516.29C1263.43,-503.282 1072.1,-471.467 986.101,-457.167"/>
<polygon fill="black" stroke="black" points="986.59,-453.7 976.151,-455.512 985.441,-460.605 986.59,-453.7"/>
</g>
<!-- node64&#45;&gt;node146 -->
<g id="edge116" class="edge"><title>node64&#45;&gt;node146</title>
<path fill="none" stroke="black" d="M1380.18,-503.762C1385.83,-479.093 1395.97,-434.86 1402.59,-405.973"/>
<polygon fill="black" stroke="black" points="1406.03,-406.619 1404.85,-396.09 1399.21,-405.055 1406.03,-406.619"/>
</g>
<!-- node64&#45;&gt;node147 -->
<g id="edge114" class="edge"><title>node64&#45;&gt;node147</title>
<path fill="none" stroke="black" d="M1400.94,-503.92C1443.84,-473.087 1534.75,-408.927 1615,-360 1635.4,-347.563 1658.85,-334.713 1677.8,-324.669"/>
<polygon fill="black" stroke="black" points="1679.49,-327.734 1686.71,-319.978 1676.23,-321.54 1679.49,-327.734"/>
</g>
<!-- node64&#45;&gt;node53 -->
<g id="edge118" class="edge"><title>node64&#45;&gt;node53</title>
<path fill="none" stroke="black" d="M1410.12,-508.794C1441.81,-496.527 1488.99,-478.261 1522.35,-465.349"/>
<polygon fill="black" stroke="black" points="1523.73,-468.567 1531.79,-461.693 1521.2,-462.039 1523.73,-468.567"/>
</g>
<!-- node150&#45;&gt;node151 -->
<g id="edge122" class="edge"><title>node150&#45;&gt;node151</title>
<path fill="none" stroke="black" d="M2477.35,-503.938C2483.5,-476.779 2494,-423.729 2494,-378 2494,-378 2494,-378 2494,-234 2494,-192.602 2502.44,-169.719 2470,-144 2434.84,-116.125 990.335,-94.151 738.311,-90.5258"/>
<polygon fill="black" stroke="black" points="738.247,-87.0246 728.197,-90.3809 738.146,-94.0239 738.247,-87.0246"/>
</g>
<!-- node52&#45;&gt;node151 -->
<g id="edge126" class="edge"><title>node52&#45;&gt;node151</title>
<path fill="none" stroke="black" d="M2558.1,-503.87C2554,-476.623 2547,-423.463 2547,-378 2547,-378 2547,-378 2547,-234 2547,-187.803 2534.66,-167.691 2495,-144 2416.92,-97.3545 988.514,-90.8752 738.262,-90.097"/>
<polygon fill="black" stroke="black" points="738.226,-86.597 728.215,-90.0669 738.205,-93.5969 738.226,-86.597"/>
</g>
<!-- node164&#45;&gt;node151 -->
<g id="edge130" class="edge"><title>node164&#45;&gt;node151</title>
<path fill="none" stroke="black" d="M1539.31,-591.862C1648.89,-585.049 1982.15,-562.946 2088,-540 2183.2,-519.364 2206.15,-507.917 2295,-468 2369.78,-434.406 2456,-459.977 2456,-378 2456,-378 2456,-378 2456,-234 2456,-144.668 992.595,-98.4094 738.411,-91.0483"/>
<polygon fill="black" stroke="black" points="738.311,-87.5441 728.215,-90.7552 738.11,-94.5412 738.311,-87.5441"/>
</g>
<!-- node164&#45;&gt;node59 -->
<g id="edge134" class="edge"><title>node164&#45;&gt;node59</title>
<path fill="none" stroke="black" d="M1468.98,-592.924C1270.7,-586.533 294.012,-550.986 192,-468 129.937,-417.512 139.361,-346.441 194,-288 215.338,-265.177 248.157,-251.282 273.929,-243.314"/>
<polygon fill="black" stroke="black" points="275.153,-246.603 283.777,-240.447 273.197,-239.882 275.153,-246.603"/>
</g>
<!-- node164&#45;&gt;node66 -->
<g id="edge136" class="edge"><title>node164&#45;&gt;node66</title>
<path fill="none" stroke="black" d="M1468.96,-590.106C1431.9,-584.465 1373.33,-571.05 1333,-540 1257.96,-482.237 1300.37,-408.434 1219,-360 1168.09,-329.697 746.082,-328.416 687,-324 624.733,-319.346 552.606,-313.325 508.396,-309.562"/>
<polygon fill="black" stroke="black" points="508.582,-306.065 498.321,-308.702 507.987,-313.04 508.582,-306.065"/>
</g>
<!-- node164&#45;&gt;node55 -->
<g id="edge138" class="edge"><title>node164&#45;&gt;node55</title>
<path fill="none" stroke="black" d="M1468.8,-591.657C1344.49,-582.877 915.035,-548.234 570,-468 494.207,-450.375 409.495,-420.219 355.749,-399.717"/>
<polygon fill="black" stroke="black" points="357.002,-396.448 346.412,-396.133 354.494,-402.984 357.002,-396.448"/>
</g>
<!-- node164&#45;&gt;node54 -->
<g id="edge140" class="edge"><title>node164&#45;&gt;node54</title>
<path fill="none" stroke="black" d="M1468.91,-584.992C1370.73,-559.791 1093.44,-488.615 986.142,-461.074"/>
<polygon fill="black" stroke="black" points="986.857,-457.644 976.301,-458.548 985.117,-464.424 986.857,-457.644"/>
</g>
<!-- node164&#45;&gt;node146 -->
<g id="edge144" class="edge"><title>node164&#45;&gt;node146</title>
<path fill="none" stroke="black" d="M1498.17,-575.561C1488.25,-545.007 1466.72,-482.264 1442,-432 1437.47,-422.78 1431.84,-413.09 1426.53,-404.504"/>
<polygon fill="black" stroke="black" points="1429.46,-402.602 1421.16,-396.022 1423.55,-406.344 1429.46,-402.602"/>
</g>
<!-- node164&#45;&gt;node147 -->
<g id="edge142" class="edge"><title>node164&#45;&gt;node147</title>
<path fill="none" stroke="black" d="M1539.16,-592.223C1687.91,-583.816 2261.39,-542.133 2340,-396 2347.58,-381.909 2350.82,-371.79 2340,-360 2300.1,-316.511 1880.28,-307.959 1751.41,-306.355"/>
<polygon fill="black" stroke="black" points="1751.29,-302.853 1741.25,-306.235 1751.2,-309.853 1751.29,-302.853"/>
</g>
<!-- node164&#45;&gt;node53 -->
<g id="edge146" class="edge"><title>node164&#45;&gt;node53</title>
<path fill="none" stroke="black" d="M1511.35,-575.762C1521.33,-550.985 1539.25,-506.471 1550.89,-477.594"/>
<polygon fill="black" stroke="black" points="1554.22,-478.673 1554.71,-468.09 1547.73,-476.058 1554.22,-478.673"/>
</g>
<!-- node164&#45;&gt;node64 -->
<g id="edge148" class="edge"><title>node164&#45;&gt;node64</title>
<path fill="none" stroke="black" d="M1471.7,-575.831C1455.18,-566.537 1434.88,-555.121 1417.24,-545.197"/>
<polygon fill="black" stroke="black" points="1418.72,-542.015 1408.29,-540.163 1415.29,-548.116 1418.72,-542.015"/>
</g>
<!-- node164&#45;&gt;node150 -->
<g id="edge132" class="edge"><title>node164&#45;&gt;node150</title>
<path fill="none" stroke="black" d="M1539.37,-592.628C1683.2,-586.929 2224.49,-564.288 2394,-540 2407.73,-538.032 2422.61,-534.909 2435.71,-531.812"/>
<polygon fill="black" stroke="black" points="2436.9,-535.126 2445.78,-529.357 2435.24,-528.325 2436.9,-535.126"/>
</g>
<!-- node164&#45;&gt;node52 -->
<g id="edge150" class="edge"><title>node164&#45;&gt;node52</title>
<path fill="none" stroke="black" d="M1539.22,-593.425C1691.83,-590.735 2297.42,-577.962 2507.82,-539.846"/>
<polygon fill="black" stroke="black" points="2508.66,-543.249 2517.84,-537.953 2507.36,-536.371 2508.66,-543.249"/>
</g>
<!-- node63 -->
<g id="node103" class="node"><title>node63</title>
<polygon fill="none" stroke="black" points="1690,-540 1614,-540 1614,-504 1690,-504 1690,-540"/>
<text text-anchor="middle" x="1652" y="-518.7" font-family="Times Roman,serif" font-size="12.00">thorhelper</text>
</g>
<!-- node164&#45;&gt;node63 -->
<g id="edge152" class="edge"><title>node164&#45;&gt;node63</title>
<path fill="none" stroke="black" d="M1539.07,-576.937C1558.95,-567.265 1584.08,-555.044 1605.57,-544.585"/>
<polygon fill="black" stroke="black" points="1607.39,-547.594 1614.85,-540.072 1604.33,-541.299 1607.39,-547.594"/>
</g>
<!-- node63&#45;&gt;node151 -->
<g id="edge154" class="edge"><title>node63&#45;&gt;node151</title>
<path fill="none" stroke="black" d="M1649.17,-503.734C1639.73,-449.572 1604.01,-289.088 1503,-216 1432.53,-165.006 1405.66,-163.983 1321,-144 1209.08,-117.584 854.65,-97.7638 738.359,-91.8335"/>
<polygon fill="black" stroke="black" points="738.343,-88.3283 728.179,-91.3189 737.989,-95.3193 738.343,-88.3283"/>
</g>
<!-- node63&#45;&gt;node146 -->
<g id="edge158" class="edge"><title>node63&#45;&gt;node146</title>
<path fill="none" stroke="black" d="M1646.35,-503.638C1639.12,-483.163 1624.61,-450.5 1601,-432 1576.95,-413.156 1494.84,-394.635 1446.13,-384.944"/>
<polygon fill="black" stroke="black" points="1446.76,-381.501 1436.28,-383.013 1445.42,-388.37 1446.76,-381.501"/>
</g>
<!-- node63&#45;&gt;node147 -->
<g id="edge156" class="edge"><title>node63&#45;&gt;node147</title>
<path fill="none" stroke="black" d="M1690.04,-520.948C1819.76,-516.488 2241.26,-494.517 2323,-396 2333.22,-383.686 2333.8,-371.803 2323,-360 2284.35,-317.774 1878.43,-308.369 1751.63,-306.454"/>
<polygon fill="black" stroke="black" points="1751.32,-302.949 1741.27,-306.305 1751.22,-309.948 1751.32,-302.949"/>
</g>
<!-- node63&#45;&gt;node53 -->
<g id="edge160" class="edge"><title>node63&#45;&gt;node53</title>
<path fill="none" stroke="black" d="M1629.29,-503.831C1618.2,-494.963 1604.7,-484.164 1592.71,-474.572"/>
<polygon fill="black" stroke="black" points="1594.7,-471.677 1584.7,-468.163 1590.33,-477.143 1594.7,-471.677"/>
</g>
<!-- node156 -->
<g id="node109" class="node"><title>node156</title>
<polygon fill="none" stroke="black" points="1839,-468 1745,-468 1745,-432 1839,-432 1839,-468"/>
<text text-anchor="middle" x="1792" y="-446.7" font-family="Times Roman,serif" font-size="12.00">securesocket</text>
</g>
<!-- node63&#45;&gt;node156 -->
<g id="edge162" class="edge"><title>node63&#45;&gt;node156</title>
<path fill="none" stroke="black" d="M1687.33,-503.831C1705.65,-494.409 1728.21,-482.806 1747.69,-472.788"/>
<polygon fill="black" stroke="black" points="1749.39,-475.849 1756.68,-468.163 1746.19,-469.624 1749.39,-475.849"/>
</g>
<!-- node156&#45;&gt;node151 -->
<g id="edge164" class="edge"><title>node156&#45;&gt;node151</title>
<path fill="none" stroke="black" d="M1756.02,-431.876C1740.63,-422.754 1723.39,-410.53 1711,-396 1688.15,-369.22 1689.48,-357.277 1678,-324 1651.18,-246.244 1698.07,-196.8 1635,-144 1600.06,-114.749 908.5,-95.2818 738.5,-90.9262"/>
<polygon fill="black" stroke="black" points="738.379,-87.4221 728.294,-90.6669 738.202,-94.4199 738.379,-87.4221"/>
</g>
<!-- node191 -->
<g id="node112" class="node"><title>node191</title>
<ellipse fill="none" stroke="black" cx="1857" cy="-378" rx="137.138" ry="18"/>
<text text-anchor="middle" x="1857" y="-374.7" font-family="Times Roman,serif" font-size="12.00">/usr/lib/x86_64&#45;linux&#45;gnu/libssl.so</text>
</g>
<!-- node156&#45;&gt;node191 -->
<g id="edge166" class="edge"><title>node156&#45;&gt;node191</title>
<path fill="none" stroke="black" d="M1808.4,-431.831C1816.16,-423.239 1825.55,-412.834 1834.01,-403.471"/>
<polygon fill="black" stroke="black" points="1836.73,-405.681 1840.83,-395.913 1831.53,-400.991 1836.73,-405.681"/>
</g>
<!-- node192 -->
<g id="node114" class="node"><title>node192</title>
<ellipse fill="none" stroke="black" cx="2163" cy="-378" rx="150.937" ry="18"/>
<text text-anchor="middle" x="2163" y="-374.7" font-family="Times Roman,serif" font-size="12.00">/usr/lib/x86_64&#45;linux&#45;gnu/libcrypto.so</text>
</g>
<!-- node156&#45;&gt;node192 -->
<g id="edge168" class="edge"><title>node156&#45;&gt;node192</title>
<path fill="none" stroke="black" d="M1839.36,-440.808C1898.23,-429.384 1999.9,-409.652 2073.61,-395.348"/>
<polygon fill="black" stroke="black" points="2074.67,-398.709 2083.82,-393.367 2073.33,-391.837 2074.67,-398.709"/>
</g>
</g>
</svg>
