<?xml version="1.0" encoding="UTF-8" standalone="no"?>
<!DOCTYPE svg PUBLIC "-//W3C//DTD SVG 1.1//EN"
 "http://www.w3.org/Graphics/SVG/1.1/DTD/svg11.dtd">
<!-- Generated by graphviz version 2.26.3 (20100126.1600)
 -->
<!-- Title: GG Pages: 1 -->
<svg width="991pt" height="260pt"
 viewBox="0.00 0.00 991.00 260.00" xmlns="http://www.w3.org/2000/svg" xmlns:xlink="http://www.w3.org/1999/xlink">
<g id="graph1" class="graph" transform="scale(1 1) rotate(0) translate(4 256)">
<title>GG</title>
<polygon fill="white" stroke="white" points="-4,5 -4,-256 988,-256 988,5 -4,5"/>
<!-- node146 -->
<g id="node1" class="node"><title>node146</title>
<polygon fill="none" stroke="black" points="636,-252 582,-252 582,-216 636,-216 636,-252"/>
<text text-anchor="middle" x="609" y="-230.7" font-family="Times Roman,serif" font-size="12.00">eclrtl</text>
</g>
<!-- node186 -->
<g id="node2" class="node"><title>node186</title>
<ellipse fill="none" stroke="black" cx="119" cy="-162" rx="118.939" ry="18"/>
<text text-anchor="middle" x="119" y="-158.7" font-family="Times Roman,serif" font-size="12.00">/usr/lib/libboost_regex&#45;mt.so</text>
</g>
<!-- node146&#45;&gt;node186 -->
<g id="edge2" class="edge"><title>node146&#45;&gt;node186</title>
<path fill="none" stroke="black" d="M581.958,-230.026C513.21,-219.925 329.122,-192.875 214.87,-176.087"/>
<polygon fill="black" stroke="black" points="215.124,-172.587 204.721,-174.596 214.106,-179.512 215.124,-172.587"/>
</g>
<!-- node183 -->
<g id="node4" class="node"><title>node183</title>
<ellipse fill="none" stroke="black" cx="334" cy="-162" rx="77.9931" ry="18"/>
<text text-anchor="middle" x="334" y="-158.7" font-family="Times Roman,serif" font-size="12.00">/usr/lib/libicuuc.so</text>
</g>
<!-- node146&#45;&gt;node183 -->
<g id="edge4" class="edge"><title>node146&#45;&gt;node183</title>
<path fill="none" stroke="black" d="M581.879,-226.899C538.84,-215.631 453.804,-193.367 395.442,-178.087"/>
<polygon fill="black" stroke="black" points="396.155,-174.655 385.594,-175.508 394.382,-181.427 396.155,-174.655"/>
</g>
<!-- node184 -->
<g id="node6" class="node"><title>node184</title>
<ellipse fill="none" stroke="black" cx="515" cy="-162" rx="85.1424" ry="18"/>
<text text-anchor="middle" x="515" y="-158.7" font-family="Times Roman,serif" font-size="12.00">/usr/lib/libicui18n.so</text>
</g>
<!-- node146&#45;&gt;node184 -->
<g id="edge6" class="edge"><title>node146&#45;&gt;node184</title>
<path fill="none" stroke="black" d="M585.28,-215.831C573.323,-206.673 558.677,-195.455 545.855,-185.634"/>
<polygon fill="black" stroke="black" points="547.807,-182.72 537.74,-179.418 543.55,-188.277 547.807,-182.72"/>
</g>
<!-- node185 -->
<g id="node8" class="node"><title>node185</title>
<ellipse fill="none" stroke="black" cx="703" cy="-162" rx="85.1424" ry="18"/>
<text text-anchor="middle" x="703" y="-158.7" font-family="Times Roman,serif" font-size="12.00">/usr/lib/libicudata.so</text>
</g>
<!-- node146&#45;&gt;node185 -->
<g id="edge8" class="edge"><title>node146&#45;&gt;node185</title>
<path fill="none" stroke="black" d="M632.72,-215.831C644.677,-206.673 659.323,-195.455 672.145,-185.634"/>
<polygon fill="black" stroke="black" points="674.45,-188.277 680.26,-179.418 670.193,-182.72 674.45,-188.277"/>
</g>
<!-- node151 -->
<g id="node10" class="node"><title>node151</title>
<polygon fill="none" stroke="black" points="870,-108 816,-108 816,-72 870,-72 870,-108"/>
<text text-anchor="middle" x="843" y="-86.7" font-family="Times Roman,serif" font-size="12.00">jlib</text>
</g>
<!-- node146&#45;&gt;node151 -->
<g id="edge10" class="edge"><title>node146&#45;&gt;node151</title>
<path fill="none" stroke="black" d="M636.166,-228.961C682.042,-220.008 772.295,-200.348 797,-180 816.35,-164.062 828.429,-137.884 835.326,-117.859"/>
<polygon fill="black" stroke="black" points="838.666,-118.906 838.388,-108.315 832,-116.767 838.666,-118.906"/>
</g>
<!-- node147 -->
<g id="node20" class="node"><title>node147</title>
<polygon fill="none" stroke="black" points="898,-180 844,-180 844,-144 898,-144 898,-180"/>
<text text-anchor="middle" x="871" y="-158.7" font-family="Times Roman,serif" font-size="12.00">nbcd</text>
</g>
<!-- node146&#45;&gt;node147 -->
<g id="edge20" class="edge"><title>node146&#45;&gt;node147</title>
<path fill="none" stroke="black" d="M636.309,-228.922C678.483,-220.725 761.73,-203.13 830,-180 831.427,-179.517 832.872,-179.003 834.325,-178.468"/>
<polygon fill="black" stroke="black" points="835.9,-181.609 843.914,-174.679 833.328,-175.098 835.9,-181.609"/>
</g>
<!-- node152 -->
<g id="node12" class="node"><title>node152</title>
<polygon fill="none" stroke="black" points="721,-36 681.056,-18 721,-3.55271e-15 760.944,-18 721,-36"/>
<text text-anchor="middle" x="721" y="-14.7" font-family="Times Roman,serif" font-size="12.00">lzma</text>
</g>
<!-- node151&#45;&gt;node152 -->
<g id="edge12" class="edge"><title>node151&#45;&gt;node152</title>
<path fill="none" stroke="black" d="M815.924,-74.0209C795.47,-61.9494 767.554,-45.4743 747.293,-33.5172"/>
<polygon fill="black" stroke="black" points="748.968,-30.4417 738.577,-28.3733 745.41,-36.4701 748.968,-30.4417"/>
</g>
<!-- node187 -->
<g id="node14" class="node"><title>node187</title>
<ellipse fill="none" stroke="black" cx="806" cy="-18" rx="27" ry="18"/>
<text text-anchor="middle" x="806" y="-14.7" font-family="Times Roman,serif" font-size="12.00">dl</text>
</g>
<!-- node151&#45;&gt;node187 -->
<g id="edge14" class="edge"><title>node151&#45;&gt;node187</title>
<path fill="none" stroke="black" d="M833.663,-71.8314C829.405,-63.5451 824.28,-53.5727 819.605,-44.4748"/>
<polygon fill="black" stroke="black" points="822.635,-42.7123 814.951,-35.4177 816.408,-45.9118 822.635,-42.7123"/>
</g>
<!-- node179 -->
<g id="node16" class="node"><title>node179</title>
<ellipse fill="none" stroke="black" cx="881" cy="-18" rx="30.0465" ry="18"/>
<text text-anchor="middle" x="881" y="-14.7" font-family="Times Roman,serif" font-size="12.00">crypt</text>
</g>
<!-- node151&#45;&gt;node179 -->
<g id="edge16" class="edge"><title>node151&#45;&gt;node179</title>
<path fill="none" stroke="black" d="M852.589,-71.8314C856.962,-63.5451 862.226,-53.5727 867.027,-44.4748"/>
<polygon fill="black" stroke="black" points="870.235,-45.8952 871.807,-35.4177 864.044,-42.6279 870.235,-45.8952"/>
</g>
<!-- node188 -->
<g id="node18" class="node"><title>node188</title>
<ellipse fill="none" stroke="black" cx="956" cy="-18" rx="27" ry="18"/>
<text text-anchor="middle" x="956" y="-14.7" font-family="Times Roman,serif" font-size="12.00">rt</text>
</g>
<!-- node151&#45;&gt;node188 -->
<g id="edge18" class="edge"><title>node151&#45;&gt;node188</title>
<path fill="none" stroke="black" d="M870.066,-72.7542C887.414,-61.7009 909.898,-47.375 927.516,-36.1494"/>
<polygon fill="black" stroke="black" points="929.679,-38.9209 936.232,-30.5955 925.918,-33.0174 929.679,-38.9209"/>
</g>
<!-- node147&#45;&gt;node151 -->
<g id="edge22" class="edge"><title>node147&#45;&gt;node151</title>
<path fill="none" stroke="black" d="M863.934,-143.831C860.874,-135.962 857.222,-126.571 853.832,-117.853"/>
<polygon fill="black" stroke="black" points="857.047,-116.465 850.161,-108.413 850.523,-119.002 857.047,-116.465"/>
</g>
</g>
</svg>
