<?xml version="1.0" encoding="UTF-8" standalone="no"?>
<!DOCTYPE svg PUBLIC "-//W3C//DTD SVG 1.1//EN"
 "http://www.w3.org/Graphics/SVG/1.1/DTD/svg11.dtd">
<!-- Generated by graphviz version 2.26.3 (20100126.1600)
 -->
<!-- Title: GG Pages: 1 -->
<svg width="811pt" height="188pt"
 viewBox="0.00 0.00 811.00 188.00" xmlns="http://www.w3.org/2000/svg" xmlns:xlink="http://www.w3.org/1999/xlink">
<g id="graph1" class="graph" transform="scale(1 1) rotate(0) translate(4 184)">
<title>GG</title>
<polygon fill="white" stroke="white" points="-4,5 -4,-184 808,-184 808,5 -4,5"/>
<!-- node155 -->
<g id="node1" class="node"><title>node155</title>
<polygon fill="none" stroke="black" points="402,-180 310,-180 310,-144 402,-144 402,-180"/>
<text text-anchor="middle" x="356" y="-158.7" font-family="Times Roman,serif" font-size="12.00">LdapSecurity</text>
</g>
<!-- node151 -->
<g id="node2" class="node"><title>node151</title>
<polygon fill="none" stroke="black" points="189,-108 135,-108 135,-72 189,-72 189,-108"/>
<text text-anchor="middle" x="162" y="-86.7" font-family="Times Roman,serif" font-size="12.00">jlib</text>
</g>
<!-- node155&#45;&gt;node151 -->
<g id="edge2" class="edge"><title>node155&#45;&gt;node151</title>
<path fill="none" stroke="black" d="M309.759,-148.004C280.106,-138.622 240.731,-125.408 198.645,-108.036"/>
<polygon fill="black" stroke="black" points="199.916,-104.774 189.34,-104.145 197.216,-111.232 199.916,-104.774"/>
</g>
<!-- node189 -->
<g id="node12" class="node"><title>node189</title>
<ellipse fill="none" stroke="black" cx="356" cy="-90" rx="148.987" ry="18"/>
<text text-anchor="middle" x="356" y="-86.7" font-family="Times Roman,serif" font-size="12.00">/usr/lib/x86_64&#45;linux&#45;gnu/libldap_r.so</text>
</g>
<!-- node155&#45;&gt;node189 -->
<g id="edge12" class="edge"><title>node155&#45;&gt;node189</title>
<path fill="none" stroke="black" d="M356,-143.831C356,-136.131 356,-126.974 356,-118.417"/>
<polygon fill="black" stroke="black" points="359.5,-118.413 356,-108.413 352.5,-118.413 359.5,-118.413"/>
</g>
<!-- node190 -->
<g id="node14" class="node"><title>node190</title>
<ellipse fill="none" stroke="black" cx="663" cy="-90" rx="139.888" ry="18"/>
<text text-anchor="middle" x="663" y="-86.7" font-family="Times Roman,serif" font-size="12.00">/usr/lib/x86_64&#45;linux&#45;gnu/liblber.so</text>
</g>
<!-- node155&#45;&gt;node190 -->
<g id="edge14" class="edge"><title>node155&#45;&gt;node190</title>
<path fill="none" stroke="black" d="M402.293,-151.143C450.826,-139.761 527.918,-121.68 585.704,-108.128"/>
<polygon fill="black" stroke="black" points="586.593,-111.515 595.53,-105.824 584.995,-104.699 586.593,-111.515"/>
</g>
<!-- node152 -->
<g id="node4" class="node"><title>node152</title>
<polygon fill="none" stroke="black" points="40,-36 0.0563759,-18 40,-3.55271e-15 79.9436,-18 40,-36"/>
<text text-anchor="middle" x="40" y="-14.7" font-family="Times Roman,serif" font-size="12.00">lzma</text>
</g>
<!-- node151&#45;&gt;node152 -->
<g id="edge4" class="edge"><title>node151&#45;&gt;node152</title>
<path fill="none" stroke="black" d="M134.924,-74.0209C114.47,-61.9494 86.5536,-45.4743 66.293,-33.5172"/>
<polygon fill="black" stroke="black" points="67.968,-30.4417 57.577,-28.3733 64.4102,-36.4701 67.968,-30.4417"/>
</g>
<!-- node187 -->
<g id="node6" class="node"><title>node187</title>
<ellipse fill="none" stroke="black" cx="125" cy="-18" rx="27" ry="18"/>
<text text-anchor="middle" x="125" y="-14.7" font-family="Times Roman,serif" font-size="12.00">dl</text>
</g>
<!-- node151&#45;&gt;node187 -->
<g id="edge6" class="edge"><title>node151&#45;&gt;node187</title>
<path fill="none" stroke="black" d="M152.663,-71.8314C148.405,-63.5451 143.28,-53.5727 138.605,-44.4748"/>
<polygon fill="black" stroke="black" points="141.635,-42.7123 133.951,-35.4177 135.408,-45.9118 141.635,-42.7123"/>
</g>
<!-- node179 -->
<g id="node8" class="node"><title>node179</title>
<ellipse fill="none" stroke="black" cx="200" cy="-18" rx="30.0465" ry="18"/>
<text text-anchor="middle" x="200" y="-14.7" font-family="Times Roman,serif" font-size="12.00">crypt</text>
</g>
<!-- node151&#45;&gt;node179 -->
<g id="edge8" class="edge"><title>node151&#45;&gt;node179</title>
<path fill="none" stroke="black" d="M171.589,-71.8314C175.962,-63.5451 181.226,-53.5727 186.027,-44.4748"/>
<polygon fill="black" stroke="black" points="189.235,-45.8952 190.807,-35.4177 183.044,-42.6279 189.235,-45.8952"/>
</g>
<!-- node188 -->
<g id="node10" class="node"><title>node188</title>
<ellipse fill="none" stroke="black" cx="275" cy="-18" rx="27" ry="18"/>
<text text-anchor="middle" x="275" y="-14.7" font-family="Times Roman,serif" font-size="12.00">rt</text>
</g>
<!-- node151&#45;&gt;node188 -->
<g id="edge10" class="edge"><title>node151&#45;&gt;node188</title>
<path fill="none" stroke="black" d="M189.066,-72.7542C206.414,-61.7009 228.898,-47.375 246.516,-36.1494"/>
<polygon fill="black" stroke="black" points="248.679,-38.9209 255.232,-30.5955 244.918,-33.0174 248.679,-38.9209"/>
</g>
</g>
</svg>
