<?xml version="1.0" encoding="UTF-8" standalone="no"?>
<!DOCTYPE svg PUBLIC "-//W3C//DTD SVG 1.1//EN"
 "http://www.w3.org/Graphics/SVG/1.1/DTD/svg11.dtd">
<!-- Generated by graphviz version 2.26.3 (20100126.1600)
 -->
<!-- Title: GG Pages: 1 -->
<svg width="2086pt" height="692pt"
 viewBox="0.00 0.00 2086.00 692.00" xmlns="http://www.w3.org/2000/svg" xmlns:xlink="http://www.w3.org/1999/xlink">
<g id="graph1" class="graph" transform="scale(1 1) rotate(0) translate(4 688)">
<title>GG</title>
<polygon fill="white" stroke="white" points="-4,5 -4,-688 2083,-688 2083,5 -4,5"/>
<!-- node44 -->
<g id="node1" class="node"><title>node44</title>
<polygon fill="none" stroke="black" points="143.86,-671.562 82,-684 20.1403,-671.562 20.198,-651.438 143.802,-651.438 143.86,-671.562"/>
<text text-anchor="middle" x="82" y="-662.7" font-family="Times Roman,serif" font-size="12.00">swapnode</text>
</g>
<!-- node151 -->
<g id="node2" class="node"><title>node151</title>
<polygon fill="none" stroke="black" points="1051,-108 997,-108 997,-72 1051,-72 1051,-108"/>
<text text-anchor="middle" x="1024" y="-86.7" font-family="Times Roman,serif" font-size="12.00">jlib</text>
</g>
<!-- node44&#45;&gt;node151 -->
<g id="edge2" class="edge"><title>node44&#45;&gt;node151</title>
<path fill="none" stroke="black" d="M66.5764,-651.196C42.823,-626.724 0,-575.223 0,-522 0,-522 0,-522 0,-234 0,-141.764 97.7816,-167.399 187,-144 341.262,-103.541 844.321,-92.7843 986.351,-90.5217"/>
<polygon fill="black" stroke="black" points="986.759,-94.0159 996.704,-90.3618 986.651,-87.0167 986.759,-94.0159"/>
</g>
<!-- node45 -->
<g id="node12" class="node"><title>node45</title>
<polygon fill="none" stroke="black" points="192,-612 104,-612 104,-576 192,-576 192,-612"/>
<text text-anchor="middle" x="148" y="-590.7" font-family="Times Roman,serif" font-size="12.00">swapnodelib</text>
</g>
<!-- node44&#45;&gt;node45 -->
<g id="edge12" class="edge"><title>node44&#45;&gt;node45</title>
<path fill="none" stroke="black" d="M95.3561,-651.43C103.722,-642.304 114.735,-630.289 124.525,-619.609"/>
<polygon fill="black" stroke="black" points="127.205,-621.865 131.383,-612.128 122.045,-617.134 127.205,-621.865"/>
</g>
<!-- node152 -->
<g id="node4" class="node"><title>node152</title>
<polygon fill="none" stroke="black" points="902,-36 862.056,-18 902,-3.55271e-15 941.944,-18 902,-36"/>
<text text-anchor="middle" x="902" y="-14.7" font-family="Times Roman,serif" font-size="12.00">lzma</text>
</g>
<!-- node151&#45;&gt;node152 -->
<g id="edge4" class="edge"><title>node151&#45;&gt;node152</title>
<path fill="none" stroke="black" d="M996.924,-74.0209C976.47,-61.9494 948.554,-45.4743 928.293,-33.5172"/>
<polygon fill="black" stroke="black" points="929.968,-30.4417 919.577,-28.3733 926.41,-36.4701 929.968,-30.4417"/>
</g>
<!-- node187 -->
<g id="node6" class="node"><title>node187</title>
<ellipse fill="none" stroke="black" cx="987" cy="-18" rx="27" ry="18"/>
<text text-anchor="middle" x="987" y="-14.7" font-family="Times Roman,serif" font-size="12.00">dl</text>
</g>
<!-- node151&#45;&gt;node187 -->
<g id="edge6" class="edge"><title>node151&#45;&gt;node187</title>
<path fill="none" stroke="black" d="M1014.66,-71.8314C1010.41,-63.5451 1005.28,-53.5727 1000.61,-44.4748"/>
<polygon fill="black" stroke="black" points="1003.63,-42.7123 995.951,-35.4177 997.408,-45.9118 1003.63,-42.7123"/>
</g>
<!-- node179 -->
<g id="node8" class="node"><title>node179</title>
<ellipse fill="none" stroke="black" cx="1062" cy="-18" rx="30.0465" ry="18"/>
<text text-anchor="middle" x="1062" y="-14.7" font-family="Times Roman,serif" font-size="12.00">crypt</text>
</g>
<!-- node151&#45;&gt;node179 -->
<g id="edge8" class="edge"><title>node151&#45;&gt;node179</title>
<path fill="none" stroke="black" d="M1033.59,-71.8314C1037.96,-63.5451 1043.23,-53.5727 1048.03,-44.4748"/>
<polygon fill="black" stroke="black" points="1051.24,-45.8952 1052.81,-35.4177 1045.04,-42.6279 1051.24,-45.8952"/>
</g>
<!-- node188 -->
<g id="node10" class="node"><title>node188</title>
<ellipse fill="none" stroke="black" cx="1137" cy="-18" rx="27" ry="18"/>
<text text-anchor="middle" x="1137" y="-14.7" font-family="Times Roman,serif" font-size="12.00">rt</text>
</g>
<!-- node151&#45;&gt;node188 -->
<g id="edge10" class="edge"><title>node151&#45;&gt;node188</title>
<path fill="none" stroke="black" d="M1051.07,-72.7542C1068.41,-61.7009 1090.9,-47.375 1108.52,-36.1494"/>
<polygon fill="black" stroke="black" points="1110.68,-38.9209 1117.23,-30.5955 1106.92,-33.0174 1110.68,-38.9209"/>
</g>
<!-- node45&#45;&gt;node151 -->
<g id="edge14" class="edge"><title>node45&#45;&gt;node151</title>
<path fill="none" stroke="black" d="M192.4,-593.082C480.933,-586.83 2078,-547.808 2078,-450 2078,-450 2078,-450 2078,-234 2078,-183.866 2054.25,-167.56 2010,-144 1925.09,-98.7949 1231.21,-91.3478 1061.4,-90.1987"/>
<polygon fill="black" stroke="black" points="1061.23,-86.6976 1051.21,-90.1331 1061.18,-93.6975 1061.23,-86.6976"/>
</g>
<!-- node59 -->
<g id="node15" class="node"><title>node59</title>
<polygon fill="none" stroke="black" points="251,-252 193,-252 193,-216 251,-216 251,-252"/>
<text text-anchor="middle" x="222" y="-230.7" font-family="Times Roman,serif" font-size="12.00">remote</text>
</g>
<!-- node45&#45;&gt;node59 -->
<g id="edge16" class="edge"><title>node45&#45;&gt;node59</title>
<path fill="none" stroke="black" d="M130.853,-575.801C95.5753,-536.048 21.0784,-438.715 57,-360 81.6587,-305.966 142.941,-269.287 183.479,-250.009"/>
<polygon fill="black" stroke="black" points="185.186,-253.076 192.799,-245.708 182.253,-246.72 185.186,-253.076"/>
</g>
<!-- node66 -->
<g id="node21" class="node"><title>node66</title>
<polygon fill="none" stroke="black" points="312,-324 250,-324 250,-288 312,-288 312,-324"/>
<text text-anchor="middle" x="281" y="-302.7" font-family="Times Roman,serif" font-size="12.00">dalibase</text>
</g>
<!-- node45&#45;&gt;node66 -->
<g id="edge24" class="edge"><title>node45&#45;&gt;node66</title>
<path fill="none" stroke="black" d="M156.32,-575.984C178.899,-527.092 241.433,-391.679 268.379,-333.33"/>
<polygon fill="black" stroke="black" points="271.668,-334.555 272.683,-324.009 265.313,-331.62 271.668,-334.555"/>
</g>
<!-- node64 -->
<g id="node30" class="node"><title>node64</title>
<polygon fill="none" stroke="black" points="1120,-540 1052,-540 1052,-504 1120,-504 1120,-540"/>
<text text-anchor="middle" x="1086" y="-518.7" font-family="Times Roman,serif" font-size="12.00">workunit</text>
</g>
<!-- node45&#45;&gt;node64 -->
<g id="edge38" class="edge"><title>node45&#45;&gt;node64</title>
<path fill="none" stroke="black" d="M192.297,-590.6C350.088,-578.488 883.728,-537.526 1041.63,-525.406"/>
<polygon fill="black" stroke="black" points="1042.21,-528.872 1051.91,-524.617 1041.67,-521.892 1042.21,-528.872"/>
</g>
<!-- node55 -->
<g id="node57" class="node"><title>node55</title>
<polygon fill="none" stroke="black" points="156,-396 66,-396 66,-360 156,-360 156,-396"/>
<text text-anchor="middle" x="111" y="-374.7" font-family="Times Roman,serif" font-size="12.00">environment</text>
</g>
<!-- node45&#45;&gt;node55 -->
<g id="edge100" class="edge"><title>node45&#45;&gt;node55</title>
<path fill="none" stroke="black" d="M144.909,-575.955C138.461,-538.314 123.537,-451.187 115.818,-406.125"/>
<polygon fill="black" stroke="black" points="119.246,-405.411 114.108,-396.145 112.347,-406.592 119.246,-405.411"/>
</g>
<!-- node59&#45;&gt;node151 -->
<g id="edge18" class="edge"><title>node59&#45;&gt;node151</title>
<path fill="none" stroke="black" d="M225.061,-215.965C229.692,-194.824 240.671,-160.575 265,-144 325.045,-103.092 842.404,-92.6146 986.745,-90.4765"/>
<polygon fill="black" stroke="black" points="986.918,-93.9744 996.867,-90.3313 986.818,-86.9752 986.918,-93.9744"/>
</g>
<!-- node153 -->
<g id="node18" class="node"><title>node153</title>
<polygon fill="none" stroke="black" points="810,-180 756,-180 756,-144 810,-144 810,-180"/>
<text text-anchor="middle" x="783" y="-158.7" font-family="Times Roman,serif" font-size="12.00">mp</text>
</g>
<!-- node59&#45;&gt;node153 -->
<g id="edge20" class="edge"><title>node59&#45;&gt;node153</title>
<path fill="none" stroke="black" d="M251.097,-226.745C266.456,-223.116 285.665,-218.893 303,-216 466.863,-188.656 664.56,-171.295 745.598,-164.841"/>
<polygon fill="black" stroke="black" points="746.1,-168.312 755.794,-164.037 745.55,-161.334 746.1,-168.312"/>
</g>
<!-- node153&#45;&gt;node151 -->
<g id="edge22" class="edge"><title>node153&#45;&gt;node151</title>
<path fill="none" stroke="black" d="M810.177,-153.881C853.504,-140.936 938.307,-115.601 987.087,-101.028"/>
<polygon fill="black" stroke="black" points="988.342,-104.306 996.922,-98.0897 986.339,-97.5987 988.342,-104.306"/>
</g>
<!-- node66&#45;&gt;node151 -->
<g id="edge26" class="edge"><title>node66&#45;&gt;node151</title>
<path fill="none" stroke="black" d="M312.272,-288.6C348.756,-268.859 411.321,-236.725 468,-216 656.89,-146.93 896.228,-108.123 986.912,-95.0536"/>
<polygon fill="black" stroke="black" points="987.565,-98.4961 996.972,-93.622 986.579,-91.5659 987.565,-98.4961"/>
</g>
<!-- node66&#45;&gt;node59 -->
<g id="edge36" class="edge"><title>node66&#45;&gt;node59</title>
<path fill="none" stroke="black" d="M266.112,-287.831C259.247,-279.454 250.97,-269.353 243.449,-260.175"/>
<polygon fill="black" stroke="black" points="246.134,-257.93 237.089,-252.413 240.72,-262.366 246.134,-257.93"/>
</g>
<!-- node66&#45;&gt;node153 -->
<g id="edge28" class="edge"><title>node66&#45;&gt;node153</title>
<path fill="none" stroke="black" d="M312.024,-297.101C400.092,-271.838 651.38,-199.756 746.19,-172.559"/>
<polygon fill="black" stroke="black" points="747.268,-175.891 755.915,-169.769 745.338,-169.162 747.268,-175.891"/>
</g>
<!-- node149 -->
<g id="node25" class="node"><title>node149</title>
<polygon fill="none" stroke="black" points="1020,-252 966,-252 966,-216 1020,-216 1020,-252"/>
<text text-anchor="middle" x="993" y="-230.7" font-family="Times Roman,serif" font-size="12.00">hrpc</text>
</g>
<!-- node66&#45;&gt;node149 -->
<g id="edge30" class="edge"><title>node66&#45;&gt;node149</title>
<path fill="none" stroke="black" d="M312.052,-302.86C427.265,-291.209 830.065,-250.477 955.45,-237.797"/>
<polygon fill="black" stroke="black" points="956.095,-241.25 965.692,-236.761 955.391,-234.285 956.095,-241.25"/>
</g>
<!-- node149&#45;&gt;node151 -->
<g id="edge32" class="edge"><title>node149&#45;&gt;node151</title>
<path fill="none" stroke="black" d="M996.926,-215.762C1002.24,-191.093 1011.76,-146.86 1017.98,-117.973"/>
<polygon fill="black" stroke="black" points="1021.42,-118.602 1020.11,-108.09 1014.58,-117.129 1021.42,-118.602"/>
</g>
<!-- node149&#45;&gt;node153 -->
<g id="edge34" class="edge"><title>node149&#45;&gt;node153</title>
<path fill="none" stroke="black" d="M965.817,-221.593C961.238,-219.639 956.508,-217.705 952,-216 907.159,-199.046 854.377,-182.748 819.883,-172.574"/>
<polygon fill="black" stroke="black" points="820.808,-169.198 810.227,-169.746 818.84,-175.916 820.808,-169.198"/>
</g>
<!-- node64&#45;&gt;node151 -->
<g id="edge40" class="edge"><title>node64&#45;&gt;node151</title>
<path fill="none" stroke="black" d="M1086,-503.815C1086,-476.498 1086,-423.25 1086,-378 1086,-378 1086,-378 1086,-234 1086,-190.036 1061.32,-144.226 1043.1,-116.4"/>
<polygon fill="black" stroke="black" points="1045.95,-114.357 1037.45,-108.022 1040.14,-118.271 1045.95,-114.357"/>
</g>
<!-- node64&#45;&gt;node66 -->
<g id="edge42" class="edge"><title>node64&#45;&gt;node66</title>
<path fill="none" stroke="black" d="M1051.79,-519.079C905.938,-506.297 341.006,-453.367 288,-396 272.944,-379.705 272.399,-353.912 274.92,-334.108"/>
<polygon fill="black" stroke="black" points="278.397,-334.525 276.51,-324.1 271.484,-333.427 278.397,-334.525"/>
</g>
<!-- node54 -->
<g id="node34" class="node"><title>node54</title>
<polygon fill="none" stroke="black" points="846,-468 780,-468 780,-432 846,-432 846,-468"/>
<text text-anchor="middle" x="813" y="-446.7" font-family="Times Roman,serif" font-size="12.00">dllserver</text>
</g>
<!-- node64&#45;&gt;node54 -->
<g id="edge44" class="edge"><title>node64&#45;&gt;node54</title>
<path fill="none" stroke="black" d="M1051.98,-513.027C1002.43,-499.959 910.423,-475.694 856.167,-461.385"/>
<polygon fill="black" stroke="black" points="856.731,-457.914 846.169,-458.748 854.946,-464.682 856.731,-457.914"/>
</g>
<!-- node146 -->
<g id="node41" class="node"><title>node146</title>
<polygon fill="none" stroke="black" points="1636,-396 1582,-396 1582,-360 1636,-360 1636,-396"/>
<text text-anchor="middle" x="1609" y="-374.7" font-family="Times Roman,serif" font-size="12.00">eclrtl</text>
</g>
<!-- node64&#45;&gt;node146 -->
<g id="edge90" class="edge"><title>node64&#45;&gt;node146</title>
<path fill="none" stroke="black" d="M1120.32,-512.552C1214.26,-486.687 1475.05,-414.881 1572.04,-388.176"/>
<polygon fill="black" stroke="black" points="1573,-391.543 1581.71,-385.514 1571.14,-384.794 1573,-391.543"/>
</g>
<!-- node147 -->
<g id="node52" class="node"><title>node147</title>
<polygon fill="none" stroke="black" points="2012,-324 1958,-324 1958,-288 2012,-288 2012,-324"/>
<text text-anchor="middle" x="1985" y="-302.7" font-family="Times Roman,serif" font-size="12.00">nbcd</text>
</g>
<!-- node64&#45;&gt;node147 -->
<g id="edge88" class="edge"><title>node64&#45;&gt;node147</title>
<path fill="none" stroke="black" d="M1120.23,-521.37C1237.34,-518.872 1621.15,-507.77 1737,-468 1825.83,-437.503 1914.14,-368.069 1957.46,-330.776"/>
<polygon fill="black" stroke="black" points="1959.76,-333.407 1965.01,-324.203 1955.17,-328.126 1959.76,-333.407"/>
</g>
<!-- node53 -->
<g id="node69" class="node"><title>node53</title>
<polygon fill="none" stroke="black" points="1728,-468 1668,-468 1668,-432 1728,-432 1728,-468"/>
<text text-anchor="middle" x="1698" y="-446.7" font-family="Times Roman,serif" font-size="12.00">deftype</text>
</g>
<!-- node64&#45;&gt;node53 -->
<g id="edge92" class="edge"><title>node64&#45;&gt;node53</title>
<path fill="none" stroke="black" d="M1120.22,-517.975C1225.55,-505.583 1544.62,-468.044 1657.72,-454.739"/>
<polygon fill="black" stroke="black" points="1658.18,-458.209 1667.7,-453.565 1657.36,-451.257 1658.18,-458.209"/>
</g>
<!-- node54&#45;&gt;node151 -->
<g id="edge48" class="edge"><title>node54&#45;&gt;node151</title>
<path fill="none" stroke="black" d="M846.391,-444.304C895.442,-435.359 983.786,-416.87 1008,-396 1041.16,-367.422 1048,-349.773 1048,-306 1048,-306 1048,-306 1048,-234 1048,-193.143 1038.48,-146.642 1031.44,-117.806"/>
<polygon fill="black" stroke="black" points="1034.81,-116.867 1028.97,-108.025 1028.02,-118.577 1034.81,-116.867"/>
</g>
<!-- node54&#45;&gt;node59 -->
<g id="edge70" class="edge"><title>node54&#45;&gt;node59</title>
<path fill="none" stroke="black" d="M779.771,-448.24C670.977,-442.252 330.002,-421.606 288,-396 241.899,-367.895 227.999,-300.695 223.808,-262.255"/>
<polygon fill="black" stroke="black" points="227.286,-261.861 222.865,-252.233 220.317,-262.517 227.286,-261.861"/>
</g>
<!-- node54&#45;&gt;node153 -->
<g id="edge50" class="edge"><title>node54&#45;&gt;node153</title>
<path fill="none" stroke="black" d="M846.202,-441.818C883.523,-431.871 940.546,-414.152 953,-396 962.052,-382.807 958.557,-375.004 953,-360 925.412,-285.517 855.884,-220.192 814.797,-186.412"/>
<polygon fill="black" stroke="black" points="816.954,-183.655 806.979,-180.083 812.549,-189.096 816.954,-183.655"/>
</g>
<!-- node54&#45;&gt;node66 -->
<g id="edge72" class="edge"><title>node54&#45;&gt;node66</title>
<path fill="none" stroke="black" d="M779.942,-448.36C674.96,-442.885 353.866,-423.989 317,-396 297.711,-381.355 288.732,-354.734 284.567,-334.229"/>
<polygon fill="black" stroke="black" points="287.976,-333.404 282.799,-324.16 281.081,-334.614 287.976,-333.404"/>
</g>
<!-- node54&#45;&gt;node149 -->
<g id="edge52" class="edge"><title>node54&#45;&gt;node149</title>
<path fill="none" stroke="black" d="M846.258,-444.269C891.524,-435.73 968.878,-418.258 986,-396 1015.63,-357.479 1008.48,-297.238 1000.68,-262.091"/>
<polygon fill="black" stroke="black" points="1004.01,-260.954 998.281,-252.041 997.201,-262.58 1004.01,-260.954"/>
</g>
<!-- node176 -->
<g id="node36" class="node"><title>node176</title>
<ellipse fill="none" stroke="black" cx="813" cy="-378" rx="130.789" ry="18"/>
<text text-anchor="middle" x="813" y="-374.7" font-family="Times Roman,serif" font-size="12.00">/usr/lib/x86_64&#45;linux&#45;gnu/libz.so</text>
</g>
<!-- node54&#45;&gt;node176 -->
<g id="edge46" class="edge"><title>node54&#45;&gt;node176</title>
<path fill="none" stroke="black" d="M813,-431.831C813,-424.131 813,-414.974 813,-406.417"/>
<polygon fill="black" stroke="black" points="816.5,-406.413 813,-396.413 809.5,-406.413 816.5,-406.413"/>
</g>
<!-- node54&#45;&gt;node146 -->
<g id="edge54" class="edge"><title>node54&#45;&gt;node146</title>
<path fill="none" stroke="black" d="M846.19,-446.998C974.245,-435.415 1435.77,-393.669 1571.32,-381.409"/>
<polygon fill="black" stroke="black" points="1571.95,-384.865 1581.6,-380.479 1571.32,-377.894 1571.95,-384.865"/>
</g>
<!-- node54&#45;&gt;node55 -->
<g id="edge74" class="edge"><title>node54&#45;&gt;node55</title>
<path fill="none" stroke="black" d="M779.757,-448.14C688.251,-442.78 425.047,-425.757 208,-396 194.478,-394.146 179.975,-391.702 166.413,-389.215"/>
<polygon fill="black" stroke="black" points="166.73,-385.714 156.256,-387.314 165.442,-392.595 166.73,-385.714"/>
</g>
<!-- node177 -->
<g id="node63" class="node"><title>node177</title>
<ellipse fill="none" stroke="black" cx="397" cy="-378" rx="70.8437" ry="18"/>
<text text-anchor="middle" x="397" y="-374.7" font-family="Times Roman,serif" font-size="12.00">/usr/lib/libbfd.so</text>
</g>
<!-- node54&#45;&gt;node177 -->
<g id="edge84" class="edge"><title>node54&#45;&gt;node177</title>
<path fill="none" stroke="black" d="M779.973,-445.386C719.613,-436.798 587.518,-417.293 477,-396 471.269,-394.896 465.321,-393.684 459.374,-392.426"/>
<polygon fill="black" stroke="black" points="459.915,-388.963 449.403,-390.279 458.442,-395.806 459.915,-388.963"/>
</g>
<!-- node178 -->
<g id="node65" class="node"><title>node178</title>
<ellipse fill="none" stroke="black" cx="575" cy="-378" rx="89.0421" ry="18"/>
<text text-anchor="middle" x="575" y="-374.7" font-family="Times Roman,serif" font-size="12.00">/usr/lib/libiberty_pic.a</text>
</g>
<!-- node54&#45;&gt;node178 -->
<g id="edge86" class="edge"><title>node54&#45;&gt;node178</title>
<path fill="none" stroke="black" d="M779.907,-439.989C742.424,-428.649 680.591,-409.943 634.636,-396.041"/>
<polygon fill="black" stroke="black" points="635.378,-392.609 624.793,-393.063 633.351,-399.309 635.378,-392.609"/>
</g>
<!-- node146&#45;&gt;node151 -->
<g id="edge64" class="edge"><title>node146&#45;&gt;node151</title>
<path fill="none" stroke="black" d="M1636.01,-375.145C1706.77,-367.398 1893.31,-345.136 1911,-324 1921.27,-311.731 1921.01,-300.485 1911,-288 1801.63,-151.529 1216.56,-102.939 1061.65,-92.3634"/>
<polygon fill="black" stroke="black" points="1061.47,-88.8432 1051.26,-91.667 1061,-95.8276 1061.47,-88.8432"/>
</g>
<!-- node186 -->
<g id="node43" class="node"><title>node186</title>
<ellipse fill="none" stroke="black" cx="1609" cy="-306" rx="118.939" ry="18"/>
<text text-anchor="middle" x="1609" y="-302.7" font-family="Times Roman,serif" font-size="12.00">/usr/lib/libboost_regex&#45;mt.so</text>
</g>
<!-- node146&#45;&gt;node186 -->
<g id="edge56" class="edge"><title>node146&#45;&gt;node186</title>
<path fill="none" stroke="black" d="M1609,-359.831C1609,-352.131 1609,-342.974 1609,-334.417"/>
<polygon fill="black" stroke="black" points="1612.5,-334.413 1609,-324.413 1605.5,-334.413 1612.5,-334.413"/>
</g>
<!-- node183 -->
<g id="node45" class="node"><title>node183</title>
<ellipse fill="none" stroke="black" cx="1824" cy="-306" rx="77.9931" ry="18"/>
<text text-anchor="middle" x="1824" y="-302.7" font-family="Times Roman,serif" font-size="12.00">/usr/lib/libicuuc.so</text>
</g>
<!-- node146&#45;&gt;node183 -->
<g id="edge58" class="edge"><title>node146&#45;&gt;node183</title>
<path fill="none" stroke="black" d="M1636.23,-368.881C1669.67,-357.682 1727.19,-338.421 1769.78,-324.159"/>
<polygon fill="black" stroke="black" points="1771.07,-327.418 1779.44,-320.923 1768.84,-320.78 1771.07,-327.418"/>
</g>
<!-- node184 -->
<g id="node47" class="node"><title>node184</title>
<ellipse fill="none" stroke="black" cx="1199" cy="-306" rx="85.1424" ry="18"/>
<text text-anchor="middle" x="1199" y="-302.7" font-family="Times Roman,serif" font-size="12.00">/usr/lib/libicui18n.so</text>
</g>
<!-- node146&#45;&gt;node184 -->
<g id="edge60" class="edge"><title>node146&#45;&gt;node184</title>
<path fill="none" stroke="black" d="M1581.92,-373.559C1527.24,-364.552 1399.79,-343.347 1293,-324 1286.03,-322.737 1278.78,-321.396 1271.53,-320.038"/>
<polygon fill="black" stroke="black" points="1272.14,-316.592 1261.67,-318.18 1270.84,-323.471 1272.14,-316.592"/>
</g>
<!-- node185 -->
<g id="node49" class="node"><title>node185</title>
<ellipse fill="none" stroke="black" cx="1387" cy="-306" rx="85.1424" ry="18"/>
<text text-anchor="middle" x="1387" y="-302.7" font-family="Times Roman,serif" font-size="12.00">/usr/lib/libicudata.so</text>
</g>
<!-- node146&#45;&gt;node185 -->
<g id="edge62" class="edge"><title>node146&#45;&gt;node185</title>
<path fill="none" stroke="black" d="M1581.78,-369.171C1547.55,-358.07 1487.91,-338.726 1443.61,-324.361"/>
<polygon fill="black" stroke="black" points="1444.44,-320.948 1433.84,-321.192 1442.28,-327.607 1444.44,-320.948"/>
</g>
<!-- node146&#45;&gt;node147 -->
<g id="edge66" class="edge"><title>node146&#45;&gt;node147</title>
<path fill="none" stroke="black" d="M1636.01,-374.049C1710.36,-363.116 1914.51,-332.696 1944,-324 1945.26,-323.629 1946.53,-323.229 1947.8,-322.804"/>
<polygon fill="black" stroke="black" points="1949.41,-325.941 1957.57,-319.177 1946.98,-319.379 1949.41,-325.941"/>
</g>
<!-- node147&#45;&gt;node151 -->
<g id="edge68" class="edge"><title>node147&#45;&gt;node151</title>
<path fill="none" stroke="black" d="M1986.61,-287.877C1988.54,-253.635 1987.16,-179.675 1944,-144 1909.44,-115.433 1229.83,-95.4863 1061.48,-90.9707"/>
<polygon fill="black" stroke="black" points="1061.45,-87.4689 1051.36,-90.7016 1061.27,-94.4664 1061.45,-87.4689"/>
</g>
<!-- node55&#45;&gt;node151 -->
<g id="edge76" class="edge"><title>node55&#45;&gt;node151</title>
<path fill="none" stroke="black" d="M113.835,-359.743C122.163,-313.265 151.328,-190.838 233,-144 298.816,-106.255 838.001,-93.471 986.348,-90.6502"/>
<polygon fill="black" stroke="black" points="986.804,-94.1425 996.737,-90.457 986.674,-87.1437 986.804,-94.1425"/>
</g>
<!-- node55&#45;&gt;node59 -->
<g id="edge80" class="edge"><title>node55&#45;&gt;node59</title>
<path fill="none" stroke="black" d="M121.594,-359.731C132.741,-341.049 151.241,-311.514 170,-288 177.785,-278.243 187.035,-268.217 195.56,-259.494"/>
<polygon fill="black" stroke="black" points="198.24,-261.762 202.809,-252.203 193.277,-256.826 198.24,-261.762"/>
</g>
<!-- node55&#45;&gt;node153 -->
<g id="edge78" class="edge"><title>node55&#45;&gt;node153</title>
<path fill="none" stroke="black" d="M132.738,-359.896C157.578,-339.961 200.095,-308.08 241,-288 417.22,-201.493 655.181,-172.93 745.836,-164.829"/>
<polygon fill="black" stroke="black" points="746.237,-168.307 755.899,-163.96 745.635,-161.333 746.237,-168.307"/>
</g>
<!-- node55&#45;&gt;node66 -->
<g id="edge82" class="edge"><title>node55&#45;&gt;node66</title>
<path fill="none" stroke="black" d="M153.898,-359.831C180.53,-348.552 214.538,-334.149 240.674,-323.079"/>
<polygon fill="black" stroke="black" points="242.075,-326.287 249.918,-319.164 239.345,-319.841 242.075,-326.287"/>
</g>
<!-- node53&#45;&gt;node151 -->
<g id="edge94" class="edge"><title>node53&#45;&gt;node151</title>
<path fill="none" stroke="black" d="M1728.05,-444.091C1811.5,-426.826 2040,-373.403 2040,-306 2040,-306 2040,-306 2040,-234 2040,-183.597 2015.55,-167.58 1971,-144 1889.56,-100.889 1226.55,-91.8837 1061.23,-90.3015"/>
<polygon fill="black" stroke="black" points="1061.11,-86.8002 1051.08,-90.2077 1061.04,-93.7999 1061.11,-86.8002"/>
</g>
<!-- node53&#45;&gt;node146 -->
<g id="edge98" class="edge"><title>node53&#45;&gt;node146</title>
<path fill="none" stroke="black" d="M1675.54,-431.831C1664.58,-422.963 1651.23,-412.164 1639.37,-402.572"/>
<polygon fill="black" stroke="black" points="1641.43,-399.731 1631.45,-396.163 1637.02,-405.173 1641.43,-399.731"/>
</g>
<!-- node53&#45;&gt;node147 -->
<g id="edge96" class="edge"><title>node53&#45;&gt;node147</title>
<path fill="none" stroke="black" d="M1720.12,-431.909C1745.38,-411.986 1788.58,-380.116 1830,-360 1877.79,-336.786 1894.27,-342.707 1944,-324 1945.41,-323.47 1946.84,-322.917 1948.28,-322.347"/>
<polygon fill="black" stroke="black" points="1949.91,-325.463 1957.82,-318.421 1947.24,-318.99 1949.91,-325.463"/>
</g>
</g>
</svg>
