<?xml version="1.0" encoding="UTF-8" standalone="no"?>
<!DOCTYPE svg PUBLIC "-//W3C//DTD SVG 1.1//EN"
 "http://www.w3.org/Graphics/SVG/1.1/DTD/svg11.dtd">
<!-- Generated by graphviz version 2.26.3 (20100126.1600)
 -->
<!-- Title: GG Pages: 1 -->
<svg width="777pt" height="260pt"
 viewBox="0.00 0.00 777.00 260.00" xmlns="http://www.w3.org/2000/svg" xmlns:xlink="http://www.w3.org/1999/xlink">
<g id="graph1" class="graph" transform="scale(1 1) rotate(0) translate(4 256)">
<title>GG</title>
<polygon fill="white" stroke="white" points="-4,5 -4,-256 774,-256 774,5 -4,5"/>
<!-- node85 -->
<g id="node1" class="node"><title>node85</title>
<polygon fill="none" stroke="black" points="523.972,-239.562 483,-252 442.028,-239.562 442.066,-219.438 523.934,-219.438 523.972,-239.562"/>
<text text-anchor="middle" x="483" y="-230.7" font-family="Times Roman,serif" font-size="12.00">sasha</text>
</g>
<!-- node180 -->
<g id="node2" class="node"><title>node180</title>
<ellipse fill="none" stroke="black" cx="85" cy="-162" rx="85.1424" ry="18"/>
<text text-anchor="middle" x="85" y="-158.7" font-family="Times Roman,serif" font-size="12.00">/usr/lib/libxalan&#45;c.so</text>
</g>
<!-- node85&#45;&gt;node180 -->
<g id="edge2" class="edge"><title>node85&#45;&gt;node180</title>
<path fill="none" stroke="black" d="M441.665,-226.838C383.15,-216.659 272.831,-197.317 179,-180 172.248,-178.754 165.227,-177.441 158.2,-176.116"/>
<polygon fill="black" stroke="black" points="158.406,-172.593 147.929,-174.171 157.103,-179.47 158.406,-172.593"/>
</g>
<!-- node181 -->
<g id="node4" class="node"><title>node181</title>
<ellipse fill="none" stroke="black" cx="281" cy="-162" rx="93.0912" ry="18"/>
<text text-anchor="middle" x="281" y="-158.7" font-family="Times Roman,serif" font-size="12.00">/usr/lib/libxalanMsg.so</text>
</g>
<!-- node85&#45;&gt;node181 -->
<g id="edge4" class="edge"><title>node85&#45;&gt;node181</title>
<path fill="none" stroke="black" d="M442.122,-219.43C411.379,-208.472 368.951,-193.349 335.35,-181.372"/>
<polygon fill="black" stroke="black" points="336.272,-177.985 325.678,-177.925 333.922,-184.579 336.272,-177.985"/>
</g>
<!-- node182 -->
<g id="node6" class="node"><title>node182</title>
<ellipse fill="none" stroke="black" cx="483" cy="-162" rx="90.9919" ry="18"/>
<text text-anchor="middle" x="483" y="-158.7" font-family="Times Roman,serif" font-size="12.00">/usr/lib/libxerces&#45;c.so</text>
</g>
<!-- node85&#45;&gt;node182 -->
<g id="edge6" class="edge"><title>node85&#45;&gt;node182</title>
<path fill="none" stroke="black" d="M483,-219.43C483,-211.101 483,-200.366 483,-190.436"/>
<polygon fill="black" stroke="black" points="486.5,-190.128 483,-180.128 479.5,-190.128 486.5,-190.128"/>
</g>
<!-- node151 -->
<g id="node8" class="node"><title>node151</title>
<polygon fill="none" stroke="black" points="656,-108 602,-108 602,-72 656,-72 656,-108"/>
<text text-anchor="middle" x="629" y="-86.7" font-family="Times Roman,serif" font-size="12.00">jlib</text>
</g>
<!-- node85&#45;&gt;node151 -->
<g id="edge8" class="edge"><title>node85&#45;&gt;node151</title>
<path fill="none" stroke="black" d="M522.682,-219.251C542.673,-210.283 566.173,-197.213 583,-180 600.236,-162.37 612.409,-136.98 619.884,-117.66"/>
<polygon fill="black" stroke="black" points="623.203,-118.777 623.367,-108.184 616.633,-116.362 623.203,-118.777"/>
</g>
<!-- node153 -->
<g id="node18" class="node"><title>node153</title>
<polygon fill="none" stroke="black" points="684,-180 630,-180 630,-144 684,-144 684,-180"/>
<text text-anchor="middle" x="657" y="-158.7" font-family="Times Roman,serif" font-size="12.00">mp</text>
</g>
<!-- node85&#45;&gt;node153 -->
<g id="edge18" class="edge"><title>node85&#45;&gt;node153</title>
<path fill="none" stroke="black" d="M519.808,-219.377C546.572,-208.666 583.631,-193.673 616,-180 617.387,-179.414 618.8,-178.813 620.225,-178.204"/>
<polygon fill="black" stroke="black" points="621.906,-181.291 629.699,-174.113 619.131,-174.864 621.906,-181.291"/>
</g>
<!-- node152 -->
<g id="node10" class="node"><title>node152</title>
<polygon fill="none" stroke="black" points="507,-36 467.056,-18 507,-3.55271e-15 546.944,-18 507,-36"/>
<text text-anchor="middle" x="507" y="-14.7" font-family="Times Roman,serif" font-size="12.00">lzma</text>
</g>
<!-- node151&#45;&gt;node152 -->
<g id="edge10" class="edge"><title>node151&#45;&gt;node152</title>
<path fill="none" stroke="black" d="M601.924,-74.0209C581.47,-61.9494 553.554,-45.4743 533.293,-33.5172"/>
<polygon fill="black" stroke="black" points="534.968,-30.4417 524.577,-28.3733 531.41,-36.4701 534.968,-30.4417"/>
</g>
<!-- node187 -->
<g id="node12" class="node"><title>node187</title>
<ellipse fill="none" stroke="black" cx="592" cy="-18" rx="27" ry="18"/>
<text text-anchor="middle" x="592" y="-14.7" font-family="Times Roman,serif" font-size="12.00">dl</text>
</g>
<!-- node151&#45;&gt;node187 -->
<g id="edge12" class="edge"><title>node151&#45;&gt;node187</title>
<path fill="none" stroke="black" d="M619.663,-71.8314C615.405,-63.5451 610.28,-53.5727 605.605,-44.4748"/>
<polygon fill="black" stroke="black" points="608.635,-42.7123 600.951,-35.4177 602.408,-45.9118 608.635,-42.7123"/>
</g>
<!-- node179 -->
<g id="node14" class="node"><title>node179</title>
<ellipse fill="none" stroke="black" cx="667" cy="-18" rx="30.0465" ry="18"/>
<text text-anchor="middle" x="667" y="-14.7" font-family="Times Roman,serif" font-size="12.00">crypt</text>
</g>
<!-- node151&#45;&gt;node179 -->
<g id="edge14" class="edge"><title>node151&#45;&gt;node179</title>
<path fill="none" stroke="black" d="M638.589,-71.8314C642.962,-63.5451 648.226,-53.5727 653.027,-44.4748"/>
<polygon fill="black" stroke="black" points="656.235,-45.8952 657.807,-35.4177 650.044,-42.6279 656.235,-45.8952"/>
</g>
<!-- node188 -->
<g id="node16" class="node"><title>node188</title>
<ellipse fill="none" stroke="black" cx="742" cy="-18" rx="27" ry="18"/>
<text text-anchor="middle" x="742" y="-14.7" font-family="Times Roman,serif" font-size="12.00">rt</text>
</g>
<!-- node151&#45;&gt;node188 -->
<g id="edge16" class="edge"><title>node151&#45;&gt;node188</title>
<path fill="none" stroke="black" d="M656.066,-72.7542C673.414,-61.7009 695.898,-47.375 713.516,-36.1494"/>
<polygon fill="black" stroke="black" points="715.679,-38.9209 722.232,-30.5955 711.918,-33.0174 715.679,-38.9209"/>
</g>
<!-- node153&#45;&gt;node151 -->
<g id="edge20" class="edge"><title>node153&#45;&gt;node151</title>
<path fill="none" stroke="black" d="M649.934,-143.831C646.874,-135.962 643.222,-126.571 639.832,-117.853"/>
<polygon fill="black" stroke="black" points="643.047,-116.465 636.161,-108.413 636.523,-119.002 643.047,-116.465"/>
</g>
</g>
</svg>
