<?xml version="1.0" encoding="UTF-8" standalone="no"?>
<!DOCTYPE svg PUBLIC "-//W3C//DTD SVG 1.1//EN"
 "http://www.w3.org/Graphics/SVG/1.1/DTD/svg11.dtd">
<!-- Generated by graphviz version 2.26.3 (20100126.1600)
 -->
<!-- Title: GG Pages: 1 -->
<svg width="2416pt" height="620pt"
 viewBox="0.00 0.00 2416.00 620.00" xmlns="http://www.w3.org/2000/svg" xmlns:xlink="http://www.w3.org/1999/xlink">
<g id="graph1" class="graph" transform="scale(1 1) rotate(0) translate(4 616)">
<title>GG</title>
<polygon fill="white" stroke="white" points="-4,5 -4,-616 2413,-616 2413,5 -4,5"/>
<!-- node94 -->
<g id="node1" class="node"><title>node94</title>
<polygon fill="none" stroke="black" points="1171,-599.562 1144,-612 1117,-599.562 1117.03,-579.438 1170.97,-579.438 1171,-599.562"/>
<text text-anchor="middle" x="1144" y="-590.7" font-family="Times Roman,serif" font-size="12.00">ecl</text>
</g>
<!-- node151 -->
<g id="node2" class="node"><title>node151</title>
<polygon fill="none" stroke="black" points="1463,-108 1409,-108 1409,-72 1463,-72 1463,-108"/>
<text text-anchor="middle" x="1436" y="-86.7" font-family="Times Roman,serif" font-size="12.00">jlib</text>
</g>
<!-- node94&#45;&gt;node151 -->
<g id="edge2" class="edge"><title>node94&#45;&gt;node151</title>
<path fill="none" stroke="black" d="M1171.28,-593.848C1355.3,-592.478 2408,-578.998 2408,-450 2408,-450 2408,-450 2408,-234 2408,-137.664 1651.23,-99.2213 1473.19,-91.5099"/>
<polygon fill="black" stroke="black" points="1473.15,-88.0053 1463.01,-91.0756 1472.85,-94.9989 1473.15,-88.0053"/>
</g>
<!-- node110 -->
<g id="node12" class="node"><title>node110</title>
<polygon fill="none" stroke="black" points="371,-252 309,-252 309,-216 371,-216 371,-252"/>
<text text-anchor="middle" x="340" y="-230.7" font-family="Times Roman,serif" font-size="12.00">esphttp</text>
</g>
<!-- node94&#45;&gt;node110 -->
<g id="edge12" class="edge"><title>node94&#45;&gt;node110</title>
<path fill="none" stroke="black" d="M1116.94,-591.977C978.734,-581.29 358,-528.902 358,-450 358,-450 358,-450 358,-378 358,-337.564 350.925,-291.23 345.646,-262.287"/>
<polygon fill="black" stroke="black" points="349.017,-261.276 343.73,-252.095 342.138,-262.569 349.017,-261.276"/>
</g>
<!-- node64 -->
<g id="node27" class="node"><title>node64</title>
<polygon fill="none" stroke="black" points="1178,-540 1110,-540 1110,-504 1178,-504 1178,-540"/>
<text text-anchor="middle" x="1144" y="-518.7" font-family="Times Roman,serif" font-size="12.00">workunit</text>
</g>
<!-- node94&#45;&gt;node64 -->
<g id="edge32" class="edge"><title>node94&#45;&gt;node64</title>
<path fill="none" stroke="black" d="M1144,-579.43C1144,-571.101 1144,-560.366 1144,-550.436"/>
<polygon fill="black" stroke="black" points="1147.5,-550.128 1144,-540.128 1140.5,-550.128 1147.5,-550.128"/>
</g>
<!-- node152 -->
<g id="node4" class="node"><title>node152</title>
<polygon fill="none" stroke="black" points="1313,-36 1273.06,-18 1313,-3.55271e-15 1352.94,-18 1313,-36"/>
<text text-anchor="middle" x="1313" y="-14.7" font-family="Times Roman,serif" font-size="12.00">lzma</text>
</g>
<!-- node151&#45;&gt;node152 -->
<g id="edge4" class="edge"><title>node151&#45;&gt;node152</title>
<path fill="none" stroke="black" d="M1408.7,-74.0209C1388.08,-61.9494 1359.94,-45.4743 1339.51,-33.5172"/>
<polygon fill="black" stroke="black" points="1341.12,-30.4046 1330.72,-28.3733 1337.58,-36.4457 1341.12,-30.4046"/>
</g>
<!-- node187 -->
<g id="node6" class="node"><title>node187</title>
<ellipse fill="none" stroke="black" cx="1398" cy="-18" rx="27" ry="18"/>
<text text-anchor="middle" x="1398" y="-14.7" font-family="Times Roman,serif" font-size="12.00">dl</text>
</g>
<!-- node151&#45;&gt;node187 -->
<g id="edge6" class="edge"><title>node151&#45;&gt;node187</title>
<path fill="none" stroke="black" d="M1426.41,-71.8314C1422.04,-63.5451 1416.77,-53.5727 1411.97,-44.4748"/>
<polygon fill="black" stroke="black" points="1414.96,-42.6279 1407.19,-35.4177 1408.76,-45.8952 1414.96,-42.6279"/>
</g>
<!-- node179 -->
<g id="node8" class="node"><title>node179</title>
<ellipse fill="none" stroke="black" cx="1473" cy="-18" rx="30.0465" ry="18"/>
<text text-anchor="middle" x="1473" y="-14.7" font-family="Times Roman,serif" font-size="12.00">crypt</text>
</g>
<!-- node151&#45;&gt;node179 -->
<g id="edge8" class="edge"><title>node151&#45;&gt;node179</title>
<path fill="none" stroke="black" d="M1445.34,-71.8314C1449.59,-63.5451 1454.72,-53.5727 1459.39,-44.4748"/>
<polygon fill="black" stroke="black" points="1462.59,-45.9118 1464.05,-35.4177 1456.37,-42.7123 1462.59,-45.9118"/>
</g>
<!-- node188 -->
<g id="node10" class="node"><title>node188</title>
<ellipse fill="none" stroke="black" cx="1548" cy="-18" rx="27" ry="18"/>
<text text-anchor="middle" x="1548" y="-14.7" font-family="Times Roman,serif" font-size="12.00">rt</text>
</g>
<!-- node151&#45;&gt;node188 -->
<g id="edge10" class="edge"><title>node151&#45;&gt;node188</title>
<path fill="none" stroke="black" d="M1463.11,-72.5708C1480.31,-61.5133 1502.52,-47.237 1519.91,-36.06"/>
<polygon fill="black" stroke="black" points="1521.99,-38.8829 1528.51,-30.5312 1518.2,-32.9946 1521.99,-38.8829"/>
</g>
<!-- node110&#45;&gt;node151 -->
<g id="edge20" class="edge"><title>node110&#45;&gt;node151</title>
<path fill="none" stroke="black" d="M360.767,-215.925C372.637,-205.516 387.753,-192.132 401,-180 418.157,-164.287 417.629,-153.193 439,-144 528.39,-105.547 1228.04,-93.005 1398.6,-90.5037"/>
<polygon fill="black" stroke="black" points="1398.66,-94.0033 1408.61,-90.3597 1398.56,-87.004 1398.66,-94.0033"/>
</g>
<!-- node180 -->
<g id="node14" class="node"><title>node180</title>
<ellipse fill="none" stroke="black" cx="489" cy="-90" rx="85.1424" ry="18"/>
<text text-anchor="middle" x="489" y="-86.7" font-family="Times Roman,serif" font-size="12.00">/usr/lib/libxalan&#45;c.so</text>
</g>
<!-- node110&#45;&gt;node180 -->
<g id="edge14" class="edge"><title>node110&#45;&gt;node180</title>
<path fill="none" stroke="black" d="M349.301,-215.771C359.881,-196.309 378.621,-165.388 401,-144 414.107,-131.473 430.595,-120.415 445.745,-111.621"/>
<polygon fill="black" stroke="black" points="447.475,-114.664 454.475,-106.711 444.044,-108.562 447.475,-114.664"/>
</g>
<!-- node181 -->
<g id="node16" class="node"><title>node181</title>
<ellipse fill="none" stroke="black" cx="93" cy="-90" rx="93.0912" ry="18"/>
<text text-anchor="middle" x="93" y="-86.7" font-family="Times Roman,serif" font-size="12.00">/usr/lib/libxalanMsg.so</text>
</g>
<!-- node110&#45;&gt;node181 -->
<g id="edge16" class="edge"><title>node110&#45;&gt;node181</title>
<path fill="none" stroke="black" d="M308.717,-215.762C263.501,-189.401 179.967,-140.702 131.18,-112.259"/>
<polygon fill="black" stroke="black" points="132.893,-109.206 122.491,-107.193 129.368,-115.254 132.893,-109.206"/>
</g>
<!-- node182 -->
<g id="node18" class="node"><title>node182</title>
<ellipse fill="none" stroke="black" cx="295" cy="-90" rx="90.9919" ry="18"/>
<text text-anchor="middle" x="295" y="-86.7" font-family="Times Roman,serif" font-size="12.00">/usr/lib/libxerces&#45;c.so</text>
</g>
<!-- node110&#45;&gt;node182 -->
<g id="edge18" class="edge"><title>node110&#45;&gt;node182</title>
<path fill="none" stroke="black" d="M314.495,-215.963C303.525,-206.628 291.886,-194.209 286,-180 277.824,-160.262 280.881,-136.083 285.54,-117.759"/>
<polygon fill="black" stroke="black" points="288.95,-118.561 288.313,-107.986 282.216,-116.65 288.95,-118.561"/>
</g>
<!-- node160 -->
<g id="node21" class="node"><title>node160</title>
<polygon fill="none" stroke="black" points="349,-180 295,-180 295,-144 349,-144 349,-180"/>
<text text-anchor="middle" x="322" y="-158.7" font-family="Times Roman,serif" font-size="12.00">xmllib</text>
</g>
<!-- node110&#45;&gt;node160 -->
<g id="edge22" class="edge"><title>node110&#45;&gt;node160</title>
<path fill="none" stroke="black" d="M335.458,-215.831C333.512,-208.046 331.193,-198.773 329.034,-190.135"/>
<polygon fill="black" stroke="black" points="332.424,-189.266 326.603,-180.413 325.633,-190.964 332.424,-189.266"/>
</g>
<!-- node160&#45;&gt;node151 -->
<g id="edge30" class="edge"><title>node160&#45;&gt;node151</title>
<path fill="none" stroke="black" d="M349.207,-154.585C364.341,-150.768 383.584,-146.42 401,-144 599.607,-116.402 1236.9,-95.9278 1398.48,-91.0919"/>
<polygon fill="black" stroke="black" points="1398.96,-94.5792 1408.86,-90.7835 1398.76,-87.5823 1398.96,-94.5792"/>
</g>
<!-- node160&#45;&gt;node180 -->
<g id="edge24" class="edge"><title>node160&#45;&gt;node180</title>
<path fill="none" stroke="black" d="M349.332,-149.96C353.894,-147.963 358.578,-145.918 363,-144 388.906,-132.762 417.865,-120.341 441.482,-110.248"/>
<polygon fill="black" stroke="black" points="443.096,-113.365 450.918,-106.218 440.346,-106.927 443.096,-113.365"/>
</g>
<!-- node160&#45;&gt;node181 -->
<g id="edge26" class="edge"><title>node160&#45;&gt;node181</title>
<path fill="none" stroke="black" d="M294.831,-153.458C259.769,-142.434 197.805,-122.952 151.755,-108.473"/>
<polygon fill="black" stroke="black" points="152.775,-105.125 142.186,-105.464 150.675,-111.803 152.775,-105.125"/>
</g>
<!-- node160&#45;&gt;node182 -->
<g id="edge28" class="edge"><title>node160&#45;&gt;node182</title>
<path fill="none" stroke="black" d="M315.187,-143.831C312.236,-135.962 308.714,-126.571 305.445,-117.853"/>
<polygon fill="black" stroke="black" points="308.693,-116.548 301.905,-108.413 302.139,-119.006 308.693,-116.548"/>
</g>
<!-- node64&#45;&gt;node151 -->
<g id="edge34" class="edge"><title>node64&#45;&gt;node151</title>
<path fill="none" stroke="black" d="M1178.26,-518.492C1247.59,-509.303 1398,-477.861 1398,-378 1398,-378 1398,-378 1398,-234 1398,-192.368 1413.03,-146.14 1424.19,-117.567"/>
<polygon fill="black" stroke="black" points="1427.46,-118.817 1427.94,-108.233 1420.96,-116.206 1427.46,-118.817"/>
</g>
<!-- node66 -->
<g id="node30" class="node"><title>node66</title>
<polygon fill="none" stroke="black" points="2048,-324 1986,-324 1986,-288 2048,-288 2048,-324"/>
<text text-anchor="middle" x="2017" y="-302.7" font-family="Times Roman,serif" font-size="12.00">dalibase</text>
</g>
<!-- node64&#45;&gt;node66 -->
<g id="edge36" class="edge"><title>node64&#45;&gt;node66</title>
<path fill="none" stroke="black" d="M1178.06,-520.939C1360.73,-514.905 2218.91,-482.086 2295,-396 2305.6,-384.012 2305.18,-372.345 2295,-360 2265.47,-324.187 2128.28,-311.827 2058.3,-307.806"/>
<polygon fill="black" stroke="black" points="2058.25,-304.298 2048.08,-307.251 2057.87,-311.288 2058.25,-304.298"/>
</g>
<!-- node54 -->
<g id="node44" class="node"><title>node54</title>
<polygon fill="none" stroke="black" points="1704,-468 1638,-468 1638,-432 1704,-432 1704,-468"/>
<text text-anchor="middle" x="1671" y="-446.7" font-family="Times Roman,serif" font-size="12.00">dllserver</text>
</g>
<!-- node64&#45;&gt;node54 -->
<g id="edge56" class="edge"><title>node64&#45;&gt;node54</title>
<path fill="none" stroke="black" d="M1178.17,-517.331C1270.68,-504.693 1525.87,-469.829 1627.96,-455.88"/>
<polygon fill="black" stroke="black" points="1628.49,-459.34 1637.92,-454.519 1627.54,-452.405 1628.49,-459.34"/>
</g>
<!-- node146 -->
<g id="node51" class="node"><title>node146</title>
<polygon fill="none" stroke="black" points="916,-396 862,-396 862,-360 916,-360 916,-396"/>
<text text-anchor="middle" x="889" y="-374.7" font-family="Times Roman,serif" font-size="12.00">eclrtl</text>
</g>
<!-- node64&#45;&gt;node146 -->
<g id="edge102" class="edge"><title>node64&#45;&gt;node146</title>
<path fill="none" stroke="black" d="M1111.96,-503.908C1064.24,-476.957 974.753,-426.425 924.887,-398.266"/>
<polygon fill="black" stroke="black" points="926.485,-395.148 916.056,-393.279 923.043,-401.244 926.485,-395.148"/>
</g>
<!-- node147 -->
<g id="node62" class="node"><title>node147</title>
<polygon fill="none" stroke="black" points="526,-324 472,-324 472,-288 526,-288 526,-324"/>
<text text-anchor="middle" x="499" y="-302.7" font-family="Times Roman,serif" font-size="12.00">nbcd</text>
</g>
<!-- node64&#45;&gt;node147 -->
<g id="edge100" class="edge"><title>node64&#45;&gt;node147</title>
<path fill="none" stroke="black" d="M1109.96,-521.498C1008.93,-519.536 712.455,-510.234 627,-468 569.626,-439.644 530.02,-372.041 511.305,-333.728"/>
<polygon fill="black" stroke="black" points="514.238,-331.744 506.791,-324.208 507.913,-334.743 514.238,-331.744"/>
</g>
<!-- node53 -->
<g id="node79" class="node"><title>node53</title>
<polygon fill="none" stroke="black" points="696,-468 636,-468 636,-432 696,-432 696,-468"/>
<text text-anchor="middle" x="666" y="-446.7" font-family="Times Roman,serif" font-size="12.00">deftype</text>
</g>
<!-- node64&#45;&gt;node53 -->
<g id="edge104" class="edge"><title>node64&#45;&gt;node53</title>
<path fill="none" stroke="black" d="M1109.62,-516.822C1023.36,-503.829 798.083,-469.895 706.049,-456.032"/>
<polygon fill="black" stroke="black" points="706.427,-452.55 696.017,-454.521 705.384,-459.472 706.427,-452.55"/>
</g>
<!-- node66&#45;&gt;node151 -->
<g id="edge38" class="edge"><title>node66&#45;&gt;node151</title>
<path fill="none" stroke="black" d="M2017.03,-287.906C2016.01,-253.714 2008.47,-179.835 1964,-144 1925.9,-113.3 1587.56,-96.3704 1473.42,-91.4941"/>
<polygon fill="black" stroke="black" points="1473.23,-87.9831 1463.09,-91.0598 1472.93,-94.9769 1473.23,-87.9831"/>
</g>
<!-- node153 -->
<g id="node33" class="node"><title>node153</title>
<polygon fill="none" stroke="black" points="1955,-180 1901,-180 1901,-144 1955,-144 1955,-180"/>
<text text-anchor="middle" x="1928" y="-158.7" font-family="Times Roman,serif" font-size="12.00">mp</text>
</g>
<!-- node66&#45;&gt;node153 -->
<g id="edge40" class="edge"><title>node66&#45;&gt;node153</title>
<path fill="none" stroke="black" d="M2005.73,-287.762C1990.28,-262.768 1962.42,-217.692 1944.59,-188.841"/>
<polygon fill="black" stroke="black" points="1947.42,-186.756 1939.18,-180.09 1941.46,-190.436 1947.42,-186.756"/>
</g>
<!-- node149 -->
<g id="node36" class="node"><title>node149</title>
<polygon fill="none" stroke="black" points="1837,-252 1783,-252 1783,-216 1837,-216 1837,-252"/>
<text text-anchor="middle" x="1810" y="-230.7" font-family="Times Roman,serif" font-size="12.00">hrpc</text>
</g>
<!-- node66&#45;&gt;node149 -->
<g id="edge44" class="edge"><title>node66&#45;&gt;node149</title>
<path fill="none" stroke="black" d="M1985.9,-297.776C1953.2,-288.782 1900.2,-273.23 1846.91,-252.083"/>
<polygon fill="black" stroke="black" points="1847.9,-248.707 1837.31,-248.213 1845.28,-255.199 1847.9,-248.707"/>
</g>
<!-- node59 -->
<g id="node40" class="node"><title>node59</title>
<polygon fill="none" stroke="black" points="1913,-252 1855,-252 1855,-216 1913,-216 1913,-252"/>
<text text-anchor="middle" x="1884" y="-230.7" font-family="Times Roman,serif" font-size="12.00">remote</text>
</g>
<!-- node66&#45;&gt;node59 -->
<g id="edge50" class="edge"><title>node66&#45;&gt;node59</title>
<path fill="none" stroke="black" d="M1985.82,-289.119C1966.78,-278.811 1942.29,-265.555 1922.1,-254.627"/>
<polygon fill="black" stroke="black" points="1923.63,-251.472 1913.17,-249.789 1920.29,-257.628 1923.63,-251.472"/>
</g>
<!-- node153&#45;&gt;node151 -->
<g id="edge42" class="edge"><title>node153&#45;&gt;node151</title>
<path fill="none" stroke="black" d="M1900.8,-151.57C1892.61,-148.754 1883.53,-145.95 1875,-144 1728.44,-110.472 1549.27,-96.6426 1473.11,-91.9921"/>
<polygon fill="black" stroke="black" points="1473.25,-88.4944 1463.06,-91.3958 1472.83,-95.4821 1473.25,-88.4944"/>
</g>
<!-- node149&#45;&gt;node151 -->
<g id="edge46" class="edge"><title>node149&#45;&gt;node151</title>
<path fill="none" stroke="black" d="M1806.8,-215.973C1802.1,-195.173 1791.24,-161.582 1768,-144 1722.08,-109.255 1549.86,-95.9953 1473.2,-91.738"/>
<polygon fill="black" stroke="black" points="1473.22,-88.2337 1463.04,-91.1957 1472.84,-95.2238 1473.22,-88.2337"/>
</g>
<!-- node149&#45;&gt;node153 -->
<g id="edge48" class="edge"><title>node149&#45;&gt;node153</title>
<path fill="none" stroke="black" d="M1837.07,-217.482C1853.3,-207.582 1874.13,-194.871 1891.76,-184.113"/>
<polygon fill="black" stroke="black" points="1893.93,-186.887 1900.65,-178.691 1890.29,-180.912 1893.93,-186.887"/>
</g>
<!-- node59&#45;&gt;node151 -->
<g id="edge52" class="edge"><title>node59&#45;&gt;node151</title>
<path fill="none" stroke="black" d="M1871.62,-215.711C1856.29,-194.657 1828.11,-160.824 1795,-144 1739.14,-115.616 1553.5,-98.7487 1473.37,-92.6302"/>
<polygon fill="black" stroke="black" points="1473.46,-89.1278 1463.23,-91.871 1472.94,-96.1083 1473.46,-89.1278"/>
</g>
<!-- node59&#45;&gt;node153 -->
<g id="edge54" class="edge"><title>node59&#45;&gt;node153</title>
<path fill="none" stroke="black" d="M1895.1,-215.831C1900.07,-207.708 1906.02,-197.964 1911.49,-189.012"/>
<polygon fill="black" stroke="black" points="1914.52,-190.771 1916.75,-180.413 1908.55,-187.121 1914.52,-190.771"/>
</g>
<!-- node54&#45;&gt;node151 -->
<g id="edge60" class="edge"><title>node54&#45;&gt;node151</title>
<path fill="none" stroke="black" d="M1637.82,-444.426C1588.57,-435.574 1499.31,-417.124 1475,-396 1442.09,-367.407 1436,-349.594 1436,-306 1436,-306 1436,-306 1436,-234 1436,-193.876 1436,-147.463 1436,-118.418"/>
<polygon fill="black" stroke="black" points="1439.5,-118.185 1436,-108.185 1432.5,-118.185 1439.5,-118.185"/>
</g>
<!-- node54&#45;&gt;node66 -->
<g id="edge84" class="edge"><title>node54&#45;&gt;node66</title>
<path fill="none" stroke="black" d="M1704.41,-449.582C1825.51,-447.728 2236.28,-438.34 2275,-396 2338.91,-326.116 2146.25,-310.495 2058.31,-307.004"/>
<polygon fill="black" stroke="black" points="2058.25,-303.5 2048.13,-306.636 2058,-310.495 2058.25,-303.5"/>
</g>
<!-- node54&#45;&gt;node153 -->
<g id="edge62" class="edge"><title>node54&#45;&gt;node153</title>
<path fill="none" stroke="black" d="M1704.24,-449.686C1827.68,-448.182 2254.8,-439.824 2295,-396 2403.72,-277.465 2077.93,-194.273 1965.02,-169.599"/>
<polygon fill="black" stroke="black" points="1965.6,-166.144 1955.09,-167.46 1964.13,-172.987 1965.6,-166.144"/>
</g>
<!-- node54&#45;&gt;node149 -->
<g id="edge64" class="edge"><title>node54&#45;&gt;node149</title>
<path fill="none" stroke="black" d="M1637.99,-444.44C1592.62,-436.048 1514.68,-418.686 1498,-396 1469.56,-357.332 1467.09,-324.721 1498,-288 1532.71,-246.764 1697.33,-237.017 1772.46,-234.713"/>
<polygon fill="black" stroke="black" points="1772.97,-238.2 1782.87,-234.424 1772.77,-231.203 1772.97,-238.2"/>
</g>
<!-- node54&#45;&gt;node59 -->
<g id="edge82" class="edge"><title>node54&#45;&gt;node59</title>
<path fill="none" stroke="black" d="M1637.8,-441.818C1600.48,-431.871 1543.45,-414.152 1531,-396 1521.95,-382.807 1521.7,-373.02 1531,-360 1615.18,-242.155 1704.96,-304.923 1845.36,-251.944"/>
<polygon fill="black" stroke="black" points="1846.66,-255.196 1854.69,-248.284 1844.1,-248.681 1846.66,-255.196"/>
</g>
<!-- node176 -->
<g id="node46" class="node"><title>node176</title>
<ellipse fill="none" stroke="black" cx="1671" cy="-378" rx="130.789" ry="18"/>
<text text-anchor="middle" x="1671" y="-374.7" font-family="Times Roman,serif" font-size="12.00">/usr/lib/x86_64&#45;linux&#45;gnu/libz.so</text>
</g>
<!-- node54&#45;&gt;node176 -->
<g id="edge58" class="edge"><title>node54&#45;&gt;node176</title>
<path fill="none" stroke="black" d="M1671,-431.831C1671,-424.131 1671,-414.974 1671,-406.417"/>
<polygon fill="black" stroke="black" points="1674.5,-406.413 1671,-396.413 1667.5,-406.413 1674.5,-406.413"/>
</g>
<!-- node54&#45;&gt;node146 -->
<g id="edge66" class="edge"><title>node54&#45;&gt;node146</title>
<path fill="none" stroke="black" d="M1637.9,-446.952C1511.52,-435.316 1059.85,-393.73 926.39,-381.443"/>
<polygon fill="black" stroke="black" points="926.539,-377.942 916.261,-380.51 925.897,-384.912 926.539,-377.942"/>
</g>
<!-- node55 -->
<g id="node67" class="node"><title>node55</title>
<polygon fill="none" stroke="black" points="2266,-396 2176,-396 2176,-360 2266,-360 2266,-396"/>
<text text-anchor="middle" x="2221" y="-374.7" font-family="Times Roman,serif" font-size="12.00">environment</text>
</g>
<!-- node54&#45;&gt;node55 -->
<g id="edge86" class="edge"><title>node54&#45;&gt;node55</title>
<path fill="none" stroke="black" d="M1704.18,-448.828C1783.05,-445.527 1987.85,-433.915 2166.02,-395.959"/>
<polygon fill="black" stroke="black" points="2166.79,-399.373 2175.82,-393.837 2165.31,-392.531 2166.79,-399.373"/>
</g>
<!-- node177 -->
<g id="node73" class="node"><title>node177</title>
<ellipse fill="none" stroke="black" cx="1891" cy="-378" rx="70.8437" ry="18"/>
<text text-anchor="middle" x="1891" y="-374.7" font-family="Times Roman,serif" font-size="12.00">/usr/lib/libbfd.so</text>
</g>
<!-- node54&#45;&gt;node177 -->
<g id="edge96" class="edge"><title>node54&#45;&gt;node177</title>
<path fill="none" stroke="black" d="M1704.41,-439.065C1739.8,-427.483 1796.18,-409.031 1837.72,-395.439"/>
<polygon fill="black" stroke="black" points="1838.98,-398.706 1847.4,-392.269 1836.81,-392.053 1838.98,-398.706"/>
</g>
<!-- node178 -->
<g id="node75" class="node"><title>node178</title>
<ellipse fill="none" stroke="black" cx="2069" cy="-378" rx="89.0421" ry="18"/>
<text text-anchor="middle" x="2069" y="-374.7" font-family="Times Roman,serif" font-size="12.00">/usr/lib/libiberty_pic.a</text>
</g>
<!-- node54&#45;&gt;node178 -->
<g id="edge98" class="edge"><title>node54&#45;&gt;node178</title>
<path fill="none" stroke="black" d="M1704.3,-444.045C1759.67,-434.137 1874.16,-413.61 1971,-396 1978.22,-394.687 1985.74,-393.316 1993.25,-391.94"/>
<polygon fill="black" stroke="black" points="1993.91,-395.379 2003.11,-390.135 1992.65,-388.494 1993.91,-395.379"/>
</g>
<!-- node146&#45;&gt;node151 -->
<g id="edge76" class="edge"><title>node146&#45;&gt;node151</title>
<path fill="none" stroke="black" d="M861.806,-375.35C788.607,-367.944 591.662,-346.121 573,-324 562.683,-311.77 563.031,-300.515 573,-288 678.922,-155.023 1246.07,-104.022 1398.35,-92.611"/>
<polygon fill="black" stroke="black" points="1398.87,-96.0824 1408.58,-91.8572 1398.35,-89.1013 1398.87,-96.0824"/>
</g>
<!-- node186 -->
<g id="node53" class="node"><title>node186</title>
<ellipse fill="none" stroke="black" cx="889" cy="-306" rx="118.939" ry="18"/>
<text text-anchor="middle" x="889" y="-302.7" font-family="Times Roman,serif" font-size="12.00">/usr/lib/libboost_regex&#45;mt.so</text>
</g>
<!-- node146&#45;&gt;node186 -->
<g id="edge68" class="edge"><title>node146&#45;&gt;node186</title>
<path fill="none" stroke="black" d="M889,-359.831C889,-352.131 889,-342.974 889,-334.417"/>
<polygon fill="black" stroke="black" points="892.5,-334.413 889,-324.413 885.5,-334.413 892.5,-334.413"/>
</g>
<!-- node183 -->
<g id="node55" class="node"><title>node183</title>
<ellipse fill="none" stroke="black" cx="1104" cy="-306" rx="77.9931" ry="18"/>
<text text-anchor="middle" x="1104" y="-302.7" font-family="Times Roman,serif" font-size="12.00">/usr/lib/libicuuc.so</text>
</g>
<!-- node146&#45;&gt;node183 -->
<g id="edge70" class="edge"><title>node146&#45;&gt;node183</title>
<path fill="none" stroke="black" d="M916.23,-368.881C949.67,-357.682 1007.19,-338.421 1049.78,-324.159"/>
<polygon fill="black" stroke="black" points="1051.07,-327.418 1059.44,-320.923 1048.84,-320.78 1051.07,-327.418"/>
</g>
<!-- node184 -->
<g id="node57" class="node"><title>node184</title>
<ellipse fill="none" stroke="black" cx="1285" cy="-306" rx="85.1424" ry="18"/>
<text text-anchor="middle" x="1285" y="-302.7" font-family="Times Roman,serif" font-size="12.00">/usr/lib/libicui18n.so</text>
</g>
<!-- node146&#45;&gt;node184 -->
<g id="edge72" class="edge"><title>node146&#45;&gt;node184</title>
<path fill="none" stroke="black" d="M916.091,-373.271C968.978,-364.013 1089.66,-342.762 1191,-324 1197.75,-322.75 1204.77,-321.435 1211.8,-320.108"/>
<polygon fill="black" stroke="black" points="1212.9,-323.462 1222.07,-318.161 1211.59,-316.585 1212.9,-323.462"/>
</g>
<!-- node185 -->
<g id="node59" class="node"><title>node185</title>
<ellipse fill="none" stroke="black" cx="667" cy="-306" rx="85.1424" ry="18"/>
<text text-anchor="middle" x="667" y="-302.7" font-family="Times Roman,serif" font-size="12.00">/usr/lib/libicudata.so</text>
</g>
<!-- node146&#45;&gt;node185 -->
<g id="edge74" class="edge"><title>node146&#45;&gt;node185</title>
<path fill="none" stroke="black" d="M861.778,-369.171C827.549,-358.07 767.906,-338.726 723.612,-324.361"/>
<polygon fill="black" stroke="black" points="724.435,-320.948 713.843,-321.192 722.276,-327.607 724.435,-320.948"/>
</g>
<!-- node146&#45;&gt;node147 -->
<g id="edge78" class="edge"><title>node146&#45;&gt;node147</title>
<path fill="none" stroke="black" d="M861.773,-376.205C802.317,-371.764 656.841,-358.054 540,-324 538.741,-323.633 537.469,-323.236 536.192,-322.815"/>
<polygon fill="black" stroke="black" points="537.018,-319.388 526.424,-319.202 534.589,-325.954 537.018,-319.388"/>
</g>
<!-- node147&#45;&gt;node151 -->
<g id="edge80" class="edge"><title>node147&#45;&gt;node151</title>
<path fill="none" stroke="black" d="M497.391,-287.883C495.469,-253.652 496.871,-179.709 540,-144 573.585,-116.193 1233.43,-95.7295 1398.71,-91.0263"/>
<polygon fill="black" stroke="black" points="1398.97,-94.5203 1408.87,-90.7393 1398.78,-87.5231 1398.97,-94.5203"/>
</g>
<!-- node55&#45;&gt;node151 -->
<g id="edge88" class="edge"><title>node55&#45;&gt;node151</title>
<path fill="none" stroke="black" d="M2175.81,-362.241C2172.84,-361.424 2169.89,-360.666 2167,-360 2048.18,-332.595 2011.44,-360.214 1895,-324 1727.16,-271.8 1546.53,-161.856 1471.65,-113.578"/>
<polygon fill="black" stroke="black" points="1473.34,-110.506 1463.05,-108.005 1469.54,-116.381 1473.34,-110.506"/>
</g>
<!-- node55&#45;&gt;node66 -->
<g id="edge94" class="edge"><title>node55&#45;&gt;node66</title>
<path fill="none" stroke="black" d="M2175.98,-362.11C2140.74,-349.672 2092.13,-332.518 2057.97,-320.461"/>
<polygon fill="black" stroke="black" points="2058.9,-317.077 2048.31,-317.049 2056.57,-323.678 2058.9,-317.077"/>
</g>
<!-- node55&#45;&gt;node153 -->
<g id="edge90" class="edge"><title>node55&#45;&gt;node153</title>
<path fill="none" stroke="black" d="M2175.76,-362.429C2172.81,-361.565 2169.87,-360.746 2167,-360 2083.82,-338.362 2040.92,-381.454 1977,-324 1938.98,-289.822 1930,-227.265 1928.16,-190.696"/>
<polygon fill="black" stroke="black" points="1931.64,-190.112 1927.79,-180.241 1924.64,-190.358 1931.64,-190.112"/>
</g>
<!-- node55&#45;&gt;node59 -->
<g id="edge92" class="edge"><title>node55&#45;&gt;node59</title>
<path fill="none" stroke="black" d="M2175.79,-362.3C2172.83,-361.468 2169.88,-360.691 2167,-360 2062.11,-334.852 2013.71,-388.153 1927,-324 1906.87,-309.109 1895.77,-282.333 1889.91,-261.846"/>
<polygon fill="black" stroke="black" points="1893.28,-260.885 1887.37,-252.087 1886.5,-262.646 1893.28,-260.885"/>
</g>
<!-- node53&#45;&gt;node151 -->
<g id="edge106" class="edge"><title>node53&#45;&gt;node151</title>
<path fill="none" stroke="black" d="M635.736,-442.139C588.049,-427.873 497.318,-392.637 463,-324 434.682,-267.363 458.477,-183.722 510,-144 545.78,-116.416 1230.56,-95.6929 1398.87,-91.0022"/>
<polygon fill="black" stroke="black" points="1399.08,-94.498 1408.98,-90.7227 1398.89,-87.5007 1399.08,-94.498"/>
</g>
<!-- node53&#45;&gt;node146 -->
<g id="edge110" class="edge"><title>node53&#45;&gt;node146</title>
<path fill="none" stroke="black" d="M696.075,-440.29C736.553,-427.221 808.511,-403.988 852.181,-389.888"/>
<polygon fill="black" stroke="black" points="853.401,-393.172 861.842,-386.768 851.251,-386.51 853.401,-393.172"/>
</g>
<!-- node53&#45;&gt;node147 -->
<g id="edge108" class="edge"><title>node53&#45;&gt;node147</title>
<path fill="none" stroke="black" d="M644.849,-431.762C615.11,-406.119 560.856,-359.337 527.56,-330.626"/>
<polygon fill="black" stroke="black" points="529.838,-327.969 519.979,-324.09 525.267,-333.271 529.838,-327.969"/>
</g>
</g>
</svg>
