<?xml version="1.0" encoding="UTF-8" standalone="no"?>
<!DOCTYPE svg PUBLIC "-//W3C//DTD SVG 1.1//EN"
 "http://www.w3.org/Graphics/SVG/1.1/DTD/svg11.dtd">
<!-- Generated by graphviz version 2.26.3 (20100126.1600)
 -->
<!-- Title: GG Pages: 1 -->
<svg width="789pt" height="332pt"
 viewBox="0.00 0.00 789.00 332.00" xmlns="http://www.w3.org/2000/svg" xmlns:xlink="http://www.w3.org/1999/xlink">
<g id="graph1" class="graph" transform="scale(1 1) rotate(0) translate(4 328)">
<title>GG</title>
<polygon fill="white" stroke="white" points="-4,5 -4,-328 786,-328 786,5 -4,5"/>
<!-- node97 -->
<g id="node1" class="node"><title>node97</title>
<polygon fill="none" stroke="black" points="297.989,-311.562 253,-324 208.011,-311.562 208.053,-291.438 297.947,-291.438 297.989,-311.562"/>
<text text-anchor="middle" x="253" y="-302.7" font-family="Times Roman,serif" font-size="12.00">eclplus</text>
</g>
<!-- node151 -->
<g id="node2" class="node"><title>node151</title>
<polygon fill="none" stroke="black" points="189,-108 135,-108 135,-72 189,-72 189,-108"/>
<text text-anchor="middle" x="162" y="-86.7" font-family="Times Roman,serif" font-size="12.00">jlib</text>
</g>
<!-- node97&#45;&gt;node151 -->
<g id="edge2" class="edge"><title>node97&#45;&gt;node151</title>
<path fill="none" stroke="black" d="M246.745,-291.153C231.669,-255.368 193.133,-163.899 173.651,-117.655"/>
<polygon fill="black" stroke="black" points="176.795,-116.103 169.687,-108.246 170.344,-118.82 176.795,-116.103"/>
</g>
<!-- node110 -->
<g id="node12" class="node"><title>node110</title>
<polygon fill="none" stroke="black" points="350,-252 288,-252 288,-216 350,-216 350,-252"/>
<text text-anchor="middle" x="319" y="-230.7" font-family="Times Roman,serif" font-size="12.00">esphttp</text>
</g>
<!-- node97&#45;&gt;node110 -->
<g id="edge12" class="edge"><title>node97&#45;&gt;node110</title>
<path fill="none" stroke="black" d="M266.356,-291.43C274.722,-282.304 285.735,-270.289 295.525,-259.609"/>
<polygon fill="black" stroke="black" points="298.205,-261.865 302.383,-252.128 293.045,-257.134 298.205,-261.865"/>
</g>
<!-- node152 -->
<g id="node4" class="node"><title>node152</title>
<polygon fill="none" stroke="black" points="40,-36 0.0563759,-18 40,-3.55271e-15 79.9436,-18 40,-36"/>
<text text-anchor="middle" x="40" y="-14.7" font-family="Times Roman,serif" font-size="12.00">lzma</text>
</g>
<!-- node151&#45;&gt;node152 -->
<g id="edge4" class="edge"><title>node151&#45;&gt;node152</title>
<path fill="none" stroke="black" d="M134.924,-74.0209C114.47,-61.9494 86.5536,-45.4743 66.293,-33.5172"/>
<polygon fill="black" stroke="black" points="67.968,-30.4417 57.577,-28.3733 64.4102,-36.4701 67.968,-30.4417"/>
</g>
<!-- node187 -->
<g id="node6" class="node"><title>node187</title>
<ellipse fill="none" stroke="black" cx="125" cy="-18" rx="27" ry="18"/>
<text text-anchor="middle" x="125" y="-14.7" font-family="Times Roman,serif" font-size="12.00">dl</text>
</g>
<!-- node151&#45;&gt;node187 -->
<g id="edge6" class="edge"><title>node151&#45;&gt;node187</title>
<path fill="none" stroke="black" d="M152.663,-71.8314C148.405,-63.5451 143.28,-53.5727 138.605,-44.4748"/>
<polygon fill="black" stroke="black" points="141.635,-42.7123 133.951,-35.4177 135.408,-45.9118 141.635,-42.7123"/>
</g>
<!-- node179 -->
<g id="node8" class="node"><title>node179</title>
<ellipse fill="none" stroke="black" cx="200" cy="-18" rx="30.0465" ry="18"/>
<text text-anchor="middle" x="200" y="-14.7" font-family="Times Roman,serif" font-size="12.00">crypt</text>
</g>
<!-- node151&#45;&gt;node179 -->
<g id="edge8" class="edge"><title>node151&#45;&gt;node179</title>
<path fill="none" stroke="black" d="M171.589,-71.8314C175.962,-63.5451 181.226,-53.5727 186.027,-44.4748"/>
<polygon fill="black" stroke="black" points="189.235,-45.8952 190.807,-35.4177 183.044,-42.6279 189.235,-45.8952"/>
</g>
<!-- node188 -->
<g id="node10" class="node"><title>node188</title>
<ellipse fill="none" stroke="black" cx="275" cy="-18" rx="27" ry="18"/>
<text text-anchor="middle" x="275" y="-14.7" font-family="Times Roman,serif" font-size="12.00">rt</text>
</g>
<!-- node151&#45;&gt;node188 -->
<g id="edge10" class="edge"><title>node151&#45;&gt;node188</title>
<path fill="none" stroke="black" d="M189.066,-72.7542C206.414,-61.7009 228.898,-47.375 246.516,-36.1494"/>
<polygon fill="black" stroke="black" points="248.679,-38.9209 255.232,-30.5955 244.918,-33.0174 248.679,-38.9209"/>
</g>
<!-- node110&#45;&gt;node151 -->
<g id="edge20" class="edge"><title>node110&#45;&gt;node151</title>
<path fill="none" stroke="black" d="M299.116,-215.762C271.276,-190.227 220.582,-143.732 189.247,-114.991"/>
<polygon fill="black" stroke="black" points="191.458,-112.27 181.723,-108.09 186.727,-117.428 191.458,-112.27"/>
</g>
<!-- node180 -->
<g id="node14" class="node"><title>node180</title>
<ellipse fill="none" stroke="black" cx="292" cy="-90" rx="85.1424" ry="18"/>
<text text-anchor="middle" x="292" y="-86.7" font-family="Times Roman,serif" font-size="12.00">/usr/lib/libxalan&#45;c.so</text>
</g>
<!-- node110&#45;&gt;node180 -->
<g id="edge14" class="edge"><title>node110&#45;&gt;node180</title>
<path fill="none" stroke="black" d="M315.58,-215.762C310.955,-191.093 302.661,-146.86 297.245,-117.973"/>
<polygon fill="black" stroke="black" points="300.675,-117.273 295.392,-108.09 293.795,-118.563 300.675,-117.273"/>
</g>
<!-- node181 -->
<g id="node16" class="node"><title>node181</title>
<ellipse fill="none" stroke="black" cx="488" cy="-90" rx="93.0912" ry="18"/>
<text text-anchor="middle" x="488" y="-86.7" font-family="Times Roman,serif" font-size="12.00">/usr/lib/libxalanMsg.so</text>
</g>
<!-- node110&#45;&gt;node181 -->
<g id="edge16" class="edge"><title>node110&#45;&gt;node181</title>
<path fill="none" stroke="black" d="M340.661,-215.795C353.074,-205.344 368.935,-191.961 383,-180 409.111,-157.795 438.753,-132.367 459.868,-114.216"/>
<polygon fill="black" stroke="black" points="462.218,-116.811 467.518,-107.638 457.654,-111.504 462.218,-116.811"/>
</g>
<!-- node182 -->
<g id="node18" class="node"><title>node182</title>
<ellipse fill="none" stroke="black" cx="690" cy="-90" rx="90.9919" ry="18"/>
<text text-anchor="middle" x="690" y="-86.7" font-family="Times Roman,serif" font-size="12.00">/usr/lib/libxerces&#45;c.so</text>
</g>
<!-- node110&#45;&gt;node182 -->
<g id="edge18" class="edge"><title>node110&#45;&gt;node182</title>
<path fill="none" stroke="black" d="M350.312,-221.847C414.391,-196.975 561.006,-140.068 639.004,-109.793"/>
<polygon fill="black" stroke="black" points="640.568,-112.941 648.624,-106.06 638.035,-106.415 640.568,-112.941"/>
</g>
<!-- node160 -->
<g id="node21" class="node"><title>node160</title>
<polygon fill="none" stroke="black" points="374,-180 320,-180 320,-144 374,-144 374,-180"/>
<text text-anchor="middle" x="347" y="-158.7" font-family="Times Roman,serif" font-size="12.00">xmllib</text>
</g>
<!-- node110&#45;&gt;node160 -->
<g id="edge22" class="edge"><title>node110&#45;&gt;node160</title>
<path fill="none" stroke="black" d="M326.066,-215.831C329.126,-207.962 332.778,-198.571 336.168,-189.853"/>
<polygon fill="black" stroke="black" points="339.477,-191.002 339.839,-180.413 332.953,-188.465 339.477,-191.002"/>
</g>
<!-- node160&#45;&gt;node151 -->
<g id="edge30" class="edge"><title>node160&#45;&gt;node151</title>
<path fill="none" stroke="black" d="M319.989,-153.263C291.739,-143.899 246.015,-128.105 198.817,-108.139"/>
<polygon fill="black" stroke="black" points="199.933,-104.81 189.363,-104.091 197.178,-111.245 199.933,-104.81"/>
</g>
<!-- node160&#45;&gt;node180 -->
<g id="edge24" class="edge"><title>node160&#45;&gt;node180</title>
<path fill="none" stroke="black" d="M333.121,-143.831C326.689,-135.411 318.927,-125.249 311.887,-116.034"/>
<polygon fill="black" stroke="black" points="314.536,-113.735 305.684,-107.913 308.973,-117.985 314.536,-113.735"/>
</g>
<!-- node160&#45;&gt;node181 -->
<g id="edge26" class="edge"><title>node160&#45;&gt;node181</title>
<path fill="none" stroke="black" d="M374.186,-148.118C394.533,-137.728 422.738,-123.326 445.979,-111.458"/>
<polygon fill="black" stroke="black" points="447.627,-114.546 454.942,-106.881 444.444,-108.312 447.627,-114.546"/>
</g>
<!-- node160&#45;&gt;node182 -->
<g id="edge28" class="edge"><title>node160&#45;&gt;node182</title>
<path fill="none" stroke="black" d="M374.201,-156.29C426.29,-145.356 541.679,-121.134 617.608,-105.196"/>
<polygon fill="black" stroke="black" points="618.52,-108.581 627.587,-103.101 617.082,-101.73 618.52,-108.581"/>
</g>
</g>
</svg>
