<?xml version="1.0" encoding="UTF-8" standalone="no"?>
<!DOCTYPE svg PUBLIC "-//W3C//DTD SVG 1.1//EN"
 "http://www.w3.org/Graphics/SVG/1.1/DTD/svg11.dtd">
<!-- Generated by graphviz version 2.26.3 (20100126.1600)
 -->
<!-- Title: GG Pages: 1 -->
<svg width="1640pt" height="692pt"
 viewBox="0.00 0.00 1640.00 692.00" xmlns="http://www.w3.org/2000/svg" xmlns:xlink="http://www.w3.org/1999/xlink">
<g id="graph1" class="graph" transform="scale(1 1) rotate(0) translate(4 688)">
<title>GG</title>
<polygon fill="white" stroke="white" points="-4,5 -4,-688 1637,-688 1637,5 -4,5"/>
<!-- node72 -->
<g id="node1" class="node"><title>node72</title>
<polygon fill="none" stroke="black" points="1376.06,-671.562 1315,-684 1253.94,-671.562 1254,-651.438 1376,-651.438 1376.06,-671.562"/>
<text text-anchor="middle" x="1315" y="-662.7" font-family="Times Roman,serif" font-size="12.00">dfuwutest</text>
</g>
<!-- node64 -->
<g id="node2" class="node"><title>node64</title>
<polygon fill="none" stroke="black" points="712,-540 644,-540 644,-504 712,-504 712,-540"/>
<text text-anchor="middle" x="678" y="-518.7" font-family="Times Roman,serif" font-size="12.00">workunit</text>
</g>
<!-- node72&#45;&gt;node64 -->
<g id="edge2" class="edge"><title>node72&#45;&gt;node64</title>
<path fill="none" stroke="black" d="M1253.92,-652.193C1126.19,-623.317 833.464,-557.144 722.105,-531.97"/>
<polygon fill="black" stroke="black" points="722.742,-528.526 712.216,-529.735 721.198,-535.354 722.742,-528.526"/>
</g>
<!-- node151 -->
<g id="node4" class="node"><title>node151</title>
<polygon fill="none" stroke="black" points="1118,-108 1064,-108 1064,-72 1118,-72 1118,-108"/>
<text text-anchor="middle" x="1091" y="-86.7" font-family="Times Roman,serif" font-size="12.00">jlib</text>
</g>
<!-- node72&#45;&gt;node151 -->
<g id="edge90" class="edge"><title>node72&#45;&gt;node151</title>
<path fill="none" stroke="black" d="M1253.76,-665.312C1025.09,-662.459 228.939,-649.877 122,-612 58.4865,-589.504 0,-589.38 0,-522 0,-522 0,-522 0,-234 0,-177.745 37.6895,-167.062 89,-144 178.298,-103.863 883.372,-92.5774 1053.94,-90.4224"/>
<polygon fill="black" stroke="black" points="1053.99,-93.9222 1063.94,-90.2988 1053.9,-86.9227 1053.99,-93.9222"/>
</g>
<!-- node66 -->
<g id="node14" class="node"><title>node66</title>
<polygon fill="none" stroke="black" points="1310,-324 1248,-324 1248,-288 1310,-288 1310,-324"/>
<text text-anchor="middle" x="1279" y="-302.7" font-family="Times Roman,serif" font-size="12.00">dalibase</text>
</g>
<!-- node72&#45;&gt;node66 -->
<g id="edge98" class="edge"><title>node72&#45;&gt;node66</title>
<path fill="none" stroke="black" d="M1311.78,-651.366C1306.36,-625.435 1296,-569.66 1296,-522 1296,-522 1296,-522 1296,-450 1296,-409.597 1289.32,-363.255 1284.33,-334.301"/>
<polygon fill="black" stroke="black" points="1287.72,-333.339 1282.52,-324.104 1280.82,-334.562 1287.72,-333.339"/>
</g>
<!-- node153 -->
<g id="node17" class="node"><title>node153</title>
<polygon fill="none" stroke="black" points="1326,-180 1272,-180 1272,-144 1326,-144 1326,-180"/>
<text text-anchor="middle" x="1299" y="-158.7" font-family="Times Roman,serif" font-size="12.00">mp</text>
</g>
<!-- node72&#45;&gt;node153 -->
<g id="edge92" class="edge"><title>node72&#45;&gt;node153</title>
<path fill="none" stroke="black" d="M1376.12,-651.432C1468.24,-627.672 1632,-577.611 1632,-522 1632,-522 1632,-522 1632,-306 1632,-242.145 1423.11,-189.108 1336.22,-169.809"/>
<polygon fill="black" stroke="black" points="1336.77,-166.346 1326.25,-167.624 1335.27,-173.184 1336.77,-166.346"/>
</g>
<!-- node149 -->
<g id="node20" class="node"><title>node149</title>
<polygon fill="none" stroke="black" points="1150,-252 1096,-252 1096,-216 1150,-216 1150,-252"/>
<text text-anchor="middle" x="1123" y="-230.7" font-family="Times Roman,serif" font-size="12.00">hrpc</text>
</g>
<!-- node72&#45;&gt;node149 -->
<g id="edge94" class="edge"><title>node72&#45;&gt;node149</title>
<path fill="none" stroke="black" d="M1253.84,-665.611C999.404,-663.2 38,-645.894 38,-522 38,-522 38,-522 38,-378 38,-330.653 54.1329,-311.909 95,-288 138.577,-262.505 906.38,-239.94 1085.75,-235.001"/>
<polygon fill="black" stroke="black" points="1085.86,-238.499 1095.76,-234.727 1085.66,-231.502 1085.86,-238.499"/>
</g>
<!-- node59 -->
<g id="node24" class="node"><title>node59</title>
<polygon fill="none" stroke="black" points="1419,-252 1361,-252 1361,-216 1419,-216 1419,-252"/>
<text text-anchor="middle" x="1390" y="-230.7" font-family="Times Roman,serif" font-size="12.00">remote</text>
</g>
<!-- node72&#45;&gt;node59 -->
<g id="edge96" class="edge"><title>node72&#45;&gt;node59</title>
<path fill="none" stroke="black" d="M1373.72,-651.376C1433.67,-632.507 1518,-593.296 1518,-522 1518,-522 1518,-522 1518,-378 1518,-323.19 1465.56,-279.547 1427.81,-255.233"/>
<polygon fill="black" stroke="black" points="1429.38,-252.09 1419.05,-249.762 1425.67,-258.027 1429.38,-252.09"/>
</g>
<!-- node55 -->
<g id="node51" class="node"><title>node55</title>
<polygon fill="none" stroke="black" points="1452,-396 1362,-396 1362,-360 1452,-360 1452,-396"/>
<text text-anchor="middle" x="1407" y="-374.7" font-family="Times Roman,serif" font-size="12.00">environment</text>
</g>
<!-- node72&#45;&gt;node55 -->
<g id="edge114" class="edge"><title>node72&#45;&gt;node55</title>
<path fill="none" stroke="black" d="M1319.69,-651.322C1334.26,-605.703 1378.93,-465.864 1398.11,-405.842"/>
<polygon fill="black" stroke="black" points="1401.46,-406.851 1401.17,-396.26 1394.79,-404.721 1401.46,-406.851"/>
</g>
<!-- node74 -->
<g id="node73" class="node"><title>node74</title>
<polygon fill="none" stroke="black" points="1437,-612 1383,-612 1383,-576 1437,-576 1437,-612"/>
<text text-anchor="middle" x="1410" y="-590.7" font-family="Times Roman,serif" font-size="12.00">dfuwu</text>
</g>
<!-- node72&#45;&gt;node74 -->
<g id="edge100" class="edge"><title>node72&#45;&gt;node74</title>
<path fill="none" stroke="black" d="M1334.22,-651.43C1346.73,-641.949 1363.36,-629.351 1377.84,-618.371"/>
<polygon fill="black" stroke="black" points="1380.23,-620.958 1386.08,-612.128 1376,-615.379 1380.23,-620.958"/>
</g>
<!-- node64&#45;&gt;node151 -->
<g id="edge4" class="edge"><title>node64&#45;&gt;node151</title>
<path fill="none" stroke="black" d="M643.766,-519.722C530.025,-510.448 175.126,-466.979 233,-288 271.624,-168.551 353.599,-171.89 476,-144 587.093,-118.686 937.859,-98.1725 1053.56,-91.9462"/>
<polygon fill="black" stroke="black" points="1053.9,-95.4334 1063.7,-91.4051 1053.53,-88.4433 1053.9,-95.4334"/>
</g>
<!-- node64&#45;&gt;node66 -->
<g id="edge14" class="edge"><title>node64&#45;&gt;node66</title>
<path fill="none" stroke="black" d="M712.134,-517.965C819.409,-504.721 1147.57,-459.742 1231,-396 1251.22,-380.549 1263.87,-354.081 1271.07,-333.835"/>
<polygon fill="black" stroke="black" points="1274.44,-334.783 1274.26,-324.19 1267.8,-332.583 1274.44,-334.783"/>
</g>
<!-- node54 -->
<g id="node28" class="node"><title>node54</title>
<polygon fill="none" stroke="black" points="844,-468 778,-468 778,-432 844,-432 844,-468"/>
<text text-anchor="middle" x="811" y="-446.7" font-family="Times Roman,serif" font-size="12.00">dllserver</text>
</g>
<!-- node64&#45;&gt;node54 -->
<g id="edge34" class="edge"><title>node64&#45;&gt;node54</title>
<path fill="none" stroke="black" d="M711.562,-503.831C729.02,-494.38 750.531,-482.735 769.076,-472.696"/>
<polygon fill="black" stroke="black" points="770.782,-475.752 777.91,-467.913 767.45,-469.596 770.782,-475.752"/>
</g>
<!-- node146 -->
<g id="node35" class="node"><title>node146</title>
<polygon fill="none" stroke="black" points="366,-396 312,-396 312,-360 366,-360 366,-396"/>
<text text-anchor="middle" x="339" y="-374.7" font-family="Times Roman,serif" font-size="12.00">eclrtl</text>
</g>
<!-- node64&#45;&gt;node146 -->
<g id="edge80" class="edge"><title>node64&#45;&gt;node146</title>
<path fill="none" stroke="black" d="M643.97,-507.79C588.561,-484.611 475.433,-437.122 380,-396 378.617,-395.404 377.208,-394.795 375.786,-394.179"/>
<polygon fill="black" stroke="black" points="376.89,-390.842 366.324,-390.058 374.095,-397.26 376.89,-390.842"/>
</g>
<!-- node147 -->
<g id="node46" class="node"><title>node147</title>
<polygon fill="none" stroke="black" points="158,-324 104,-324 104,-288 158,-288 158,-324"/>
<text text-anchor="middle" x="131" y="-302.7" font-family="Times Roman,serif" font-size="12.00">nbcd</text>
</g>
<!-- node64&#45;&gt;node147 -->
<g id="edge78" class="edge"><title>node64&#45;&gt;node147</title>
<path fill="none" stroke="black" d="M643.811,-520.488C536.861,-515.462 213.661,-497.915 178,-468 138.589,-434.939 131.134,-370.974 130.337,-334.082"/>
<polygon fill="black" stroke="black" points="133.836,-333.982 130.271,-324.005 126.837,-334.027 133.836,-333.982"/>
</g>
<!-- node53 -->
<g id="node63" class="node"><title>node53</title>
<polygon fill="none" stroke="black" points="126,-468 66,-468 66,-432 126,-432 126,-468"/>
<text text-anchor="middle" x="96" y="-446.7" font-family="Times Roman,serif" font-size="12.00">deftype</text>
</g>
<!-- node64&#45;&gt;node53 -->
<g id="edge82" class="edge"><title>node64&#45;&gt;node53</title>
<path fill="none" stroke="black" d="M643.978,-519.871C541.425,-513.252 236.439,-492.028 140,-468 138.739,-467.686 137.466,-467.342 136.188,-466.974"/>
<polygon fill="black" stroke="black" points="136.986,-463.551 126.393,-463.747 134.796,-470.2 136.986,-463.551"/>
</g>
<!-- node152 -->
<g id="node6" class="node"><title>node152</title>
<polygon fill="none" stroke="black" points="969,-36 929.056,-18 969,-3.55271e-15 1008.94,-18 969,-36"/>
<text text-anchor="middle" x="969" y="-14.7" font-family="Times Roman,serif" font-size="12.00">lzma</text>
</g>
<!-- node151&#45;&gt;node152 -->
<g id="edge6" class="edge"><title>node151&#45;&gt;node152</title>
<path fill="none" stroke="black" d="M1063.92,-74.0209C1043.47,-61.9494 1015.55,-45.4743 995.293,-33.5172"/>
<polygon fill="black" stroke="black" points="996.968,-30.4417 986.577,-28.3733 993.41,-36.4701 996.968,-30.4417"/>
</g>
<!-- node187 -->
<g id="node8" class="node"><title>node187</title>
<ellipse fill="none" stroke="black" cx="1054" cy="-18" rx="27" ry="18"/>
<text text-anchor="middle" x="1054" y="-14.7" font-family="Times Roman,serif" font-size="12.00">dl</text>
</g>
<!-- node151&#45;&gt;node187 -->
<g id="edge8" class="edge"><title>node151&#45;&gt;node187</title>
<path fill="none" stroke="black" d="M1081.66,-71.8314C1077.41,-63.5451 1072.28,-53.5727 1067.61,-44.4748"/>
<polygon fill="black" stroke="black" points="1070.63,-42.7123 1062.95,-35.4177 1064.41,-45.9118 1070.63,-42.7123"/>
</g>
<!-- node179 -->
<g id="node10" class="node"><title>node179</title>
<ellipse fill="none" stroke="black" cx="1129" cy="-18" rx="30.0465" ry="18"/>
<text text-anchor="middle" x="1129" y="-14.7" font-family="Times Roman,serif" font-size="12.00">crypt</text>
</g>
<!-- node151&#45;&gt;node179 -->
<g id="edge10" class="edge"><title>node151&#45;&gt;node179</title>
<path fill="none" stroke="black" d="M1100.59,-71.8314C1104.96,-63.5451 1110.23,-53.5727 1115.03,-44.4748"/>
<polygon fill="black" stroke="black" points="1118.24,-45.8952 1119.81,-35.4177 1112.04,-42.6279 1118.24,-45.8952"/>
</g>
<!-- node188 -->
<g id="node12" class="node"><title>node188</title>
<ellipse fill="none" stroke="black" cx="1204" cy="-18" rx="27" ry="18"/>
<text text-anchor="middle" x="1204" y="-14.7" font-family="Times Roman,serif" font-size="12.00">rt</text>
</g>
<!-- node151&#45;&gt;node188 -->
<g id="edge12" class="edge"><title>node151&#45;&gt;node188</title>
<path fill="none" stroke="black" d="M1118.07,-72.7542C1135.41,-61.7009 1157.9,-47.375 1175.52,-36.1494"/>
<polygon fill="black" stroke="black" points="1177.68,-38.9209 1184.23,-30.5955 1173.92,-33.0174 1177.68,-38.9209"/>
</g>
<!-- node66&#45;&gt;node151 -->
<g id="edge16" class="edge"><title>node66&#45;&gt;node151</title>
<path fill="none" stroke="black" d="M1263.29,-287.955C1229.98,-249.679 1152.13,-160.232 1113.52,-115.879"/>
<polygon fill="black" stroke="black" points="1116,-113.39 1106.79,-108.145 1110.72,-117.986 1116,-113.39"/>
</g>
<!-- node66&#45;&gt;node153 -->
<g id="edge18" class="edge"><title>node66&#45;&gt;node153</title>
<path fill="none" stroke="black" d="M1281.53,-287.762C1284.94,-263.201 1291.05,-219.247 1295.06,-190.354"/>
<polygon fill="black" stroke="black" points="1298.58,-190.476 1296.49,-180.09 1291.65,-189.513 1298.58,-190.476"/>
</g>
<!-- node66&#45;&gt;node149 -->
<g id="edge22" class="edge"><title>node66&#45;&gt;node149</title>
<path fill="none" stroke="black" d="M1247.81,-291.603C1222.39,-279.87 1186.44,-263.28 1159.65,-250.916"/>
<polygon fill="black" stroke="black" points="1160.78,-247.581 1150.23,-246.568 1157.84,-253.937 1160.78,-247.581"/>
</g>
<!-- node66&#45;&gt;node59 -->
<g id="edge28" class="edge"><title>node66&#45;&gt;node59</title>
<path fill="none" stroke="black" d="M1307.01,-287.831C1321.08,-278.707 1338.29,-267.539 1353.39,-257.745"/>
<polygon fill="black" stroke="black" points="1355.51,-260.541 1362,-252.163 1351.7,-254.668 1355.51,-260.541"/>
</g>
<!-- node153&#45;&gt;node151 -->
<g id="edge20" class="edge"><title>node153&#45;&gt;node151</title>
<path fill="none" stroke="black" d="M1271.81,-152.587C1234.98,-139.84 1169.12,-117.043 1127.87,-102.763"/>
<polygon fill="black" stroke="black" points="1128.79,-99.3788 1118.2,-99.4151 1126.5,-105.994 1128.79,-99.3788"/>
</g>
<!-- node149&#45;&gt;node151 -->
<g id="edge24" class="edge"><title>node149&#45;&gt;node151</title>
<path fill="none" stroke="black" d="M1118.95,-215.762C1113.47,-191.093 1103.64,-146.86 1097.22,-117.973"/>
<polygon fill="black" stroke="black" points="1100.61,-117.092 1095.02,-108.09 1093.77,-118.611 1100.61,-117.092"/>
</g>
<!-- node149&#45;&gt;node153 -->
<g id="edge26" class="edge"><title>node149&#45;&gt;node153</title>
<path fill="none" stroke="black" d="M1150.11,-222.908C1180.22,-210.593 1228.96,-190.652 1262.42,-176.963"/>
<polygon fill="black" stroke="black" points="1263.92,-180.131 1271.85,-173.105 1261.27,-173.652 1263.92,-180.131"/>
</g>
<!-- node59&#45;&gt;node151 -->
<g id="edge30" class="edge"><title>node59&#45;&gt;node151</title>
<path fill="none" stroke="black" d="M1383.85,-215.744C1375.9,-195.049 1360.04,-161.875 1335,-144 1302.19,-120.575 1188.43,-102.703 1128.54,-94.6661"/>
<polygon fill="black" stroke="black" points="1128.74,-91.1618 1118.36,-93.3258 1127.82,-98.1018 1128.74,-91.1618"/>
</g>
<!-- node59&#45;&gt;node153 -->
<g id="edge32" class="edge"><title>node59&#45;&gt;node153</title>
<path fill="none" stroke="black" d="M1367.04,-215.831C1355.83,-206.963 1342.18,-196.164 1330.06,-186.572"/>
<polygon fill="black" stroke="black" points="1331.97,-183.623 1321.96,-180.163 1327.63,-189.112 1331.97,-183.623"/>
</g>
<!-- node54&#45;&gt;node151 -->
<g id="edge38" class="edge"><title>node54&#45;&gt;node151</title>
<path fill="none" stroke="black" d="M777.76,-447.629C690.682,-441.083 461.099,-421.538 439,-396 428.53,-383.901 428.025,-371.642 439,-360 532.148,-261.193 947.457,-414.157 1049,-324 1079.17,-297.217 1087.75,-174.911 1090.13,-118.569"/>
<polygon fill="black" stroke="black" points="1093.64,-118.355 1090.52,-108.228 1086.64,-118.087 1093.64,-118.355"/>
</g>
<!-- node54&#45;&gt;node66 -->
<g id="edge62" class="edge"><title>node54&#45;&gt;node66</title>
<path fill="none" stroke="black" d="M844.052,-448.212C925.725,-443.345 1134.87,-428.028 1196,-396 1223.84,-381.414 1247.21,-353.649 1261.99,-332.797"/>
<polygon fill="black" stroke="black" points="1265.02,-334.57 1267.78,-324.342 1259.24,-330.613 1265.02,-334.57"/>
</g>
<!-- node54&#45;&gt;node153 -->
<g id="edge40" class="edge"><title>node54&#45;&gt;node153</title>
<path fill="none" stroke="black" d="M844.468,-446.129C908.522,-438.289 1045.76,-419.283 1087,-396 1088.51,-395.146 1220.79,-248.665 1275.61,-187.924"/>
<polygon fill="black" stroke="black" points="1278.4,-190.051 1282.5,-180.282 1273.21,-185.361 1278.4,-190.051"/>
</g>
<!-- node54&#45;&gt;node149 -->
<g id="edge42" class="edge"><title>node54&#45;&gt;node149</title>
<path fill="none" stroke="black" d="M777.906,-447.472C692.939,-440.648 472.265,-420.693 451,-396 440.559,-383.876 440.013,-371.631 451,-360 499.222,-308.949 1024.05,-363.661 1082,-324 1102.61,-309.897 1113.03,-282.773 1118.19,-261.973"/>
<polygon fill="black" stroke="black" points="1121.64,-262.585 1120.38,-252.065 1114.81,-261.074 1121.64,-262.585"/>
</g>
<!-- node54&#45;&gt;node59 -->
<g id="edge60" class="edge"><title>node54&#45;&gt;node59</title>
<path fill="none" stroke="black" d="M844.201,-446.56C913.61,-438.99 1071.63,-419.663 1120,-396 1184.16,-364.613 1177.75,-324.734 1239,-288 1274.44,-266.745 1319.55,-251.984 1351.2,-243.332"/>
<polygon fill="black" stroke="black" points="1352.2,-246.686 1360.97,-240.737 1350.41,-239.92 1352.2,-246.686"/>
</g>
<!-- node176 -->
<g id="node30" class="node"><title>node176</title>
<ellipse fill="none" stroke="black" cx="591" cy="-378" rx="130.789" ry="18"/>
<text text-anchor="middle" x="591" y="-374.7" font-family="Times Roman,serif" font-size="12.00">/usr/lib/x86_64&#45;linux&#45;gnu/libz.so</text>
</g>
<!-- node54&#45;&gt;node176 -->
<g id="edge36" class="edge"><title>node54&#45;&gt;node176</title>
<path fill="none" stroke="black" d="M777.587,-439.065C744.202,-428.139 692.133,-411.098 651.474,-397.791"/>
<polygon fill="black" stroke="black" points="652.523,-394.452 641.93,-394.668 650.346,-401.105 652.523,-394.452"/>
</g>
<!-- node54&#45;&gt;node146 -->
<g id="edge44" class="edge"><title>node54&#45;&gt;node146</title>
<path fill="none" stroke="black" d="M777.929,-449.096C704.859,-446.401 524.665,-435.907 380,-396 378.735,-395.651 377.459,-395.27 376.179,-394.863"/>
<polygon fill="black" stroke="black" points="376.986,-391.432 366.392,-391.316 374.601,-398.014 376.986,-391.432"/>
</g>
<!-- node54&#45;&gt;node55 -->
<g id="edge64" class="edge"><title>node54&#45;&gt;node55</title>
<path fill="none" stroke="black" d="M844.321,-445.975C942.222,-434.148 1229.73,-399.415 1351.5,-384.705"/>
<polygon fill="black" stroke="black" points="1352.2,-388.145 1361.71,-383.471 1351.37,-381.196 1352.2,-388.145"/>
</g>
<!-- node177 -->
<g id="node57" class="node"><title>node177</title>
<ellipse fill="none" stroke="black" cx="811" cy="-378" rx="70.8437" ry="18"/>
<text text-anchor="middle" x="811" y="-374.7" font-family="Times Roman,serif" font-size="12.00">/usr/lib/libbfd.so</text>
</g>
<!-- node54&#45;&gt;node177 -->
<g id="edge74" class="edge"><title>node54&#45;&gt;node177</title>
<path fill="none" stroke="black" d="M811,-431.831C811,-424.131 811,-414.974 811,-406.417"/>
<polygon fill="black" stroke="black" points="814.5,-406.413 811,-396.413 807.5,-406.413 814.5,-406.413"/>
</g>
<!-- node178 -->
<g id="node59" class="node"><title>node178</title>
<ellipse fill="none" stroke="black" cx="989" cy="-378" rx="89.0421" ry="18"/>
<text text-anchor="middle" x="989" y="-374.7" font-family="Times Roman,serif" font-size="12.00">/usr/lib/libiberty_pic.a</text>
</g>
<!-- node54&#45;&gt;node178 -->
<g id="edge76" class="edge"><title>node54&#45;&gt;node178</title>
<path fill="none" stroke="black" d="M844.063,-436.626C870.826,-425.801 908.937,-410.385 939.363,-398.078"/>
<polygon fill="black" stroke="black" points="940.989,-401.196 948.947,-394.201 938.364,-394.707 940.989,-401.196"/>
</g>
<!-- node146&#45;&gt;node151 -->
<g id="edge54" class="edge"><title>node146&#45;&gt;node151</title>
<path fill="none" stroke="black" d="M311.607,-370.927C288.766,-363.423 257.674,-349.09 243,-324 234.922,-310.189 233.055,-300.534 243,-288 346.807,-157.162 903.102,-104.68 1053.5,-92.761"/>
<polygon fill="black" stroke="black" points="1053.91,-96.2391 1063.61,-91.9724 1053.37,-89.2603 1053.91,-96.2391"/>
</g>
<!-- node186 -->
<g id="node37" class="node"><title>node186</title>
<ellipse fill="none" stroke="black" cx="559" cy="-306" rx="118.939" ry="18"/>
<text text-anchor="middle" x="559" y="-302.7" font-family="Times Roman,serif" font-size="12.00">/usr/lib/libboost_regex&#45;mt.so</text>
</g>
<!-- node146&#45;&gt;node186 -->
<g id="edge46" class="edge"><title>node146&#45;&gt;node186</title>
<path fill="none" stroke="black" d="M366.16,-365.529C370.741,-363.584 375.478,-361.668 380,-360 416.034,-346.71 456.996,-334.17 490.634,-324.525"/>
<polygon fill="black" stroke="black" points="491.709,-327.858 500.37,-321.755 489.794,-321.125 491.709,-327.858"/>
</g>
<!-- node183 -->
<g id="node39" class="node"><title>node183</title>
<ellipse fill="none" stroke="black" cx="774" cy="-306" rx="77.9931" ry="18"/>
<text text-anchor="middle" x="774" y="-302.7" font-family="Times Roman,serif" font-size="12.00">/usr/lib/libicuuc.so</text>
</g>
<!-- node146&#45;&gt;node183 -->
<g id="edge48" class="edge"><title>node146&#45;&gt;node183</title>
<path fill="none" stroke="black" d="M366.384,-364.653C370.855,-362.861 375.499,-361.223 380,-360 512.576,-323.991 551.384,-345.938 687,-324 693.65,-322.924 700.562,-321.692 707.455,-320.387"/>
<polygon fill="black" stroke="black" points="708.357,-323.778 717.506,-318.434 707.022,-316.906 708.357,-323.778"/>
</g>
<!-- node184 -->
<g id="node41" class="node"><title>node184</title>
<ellipse fill="none" stroke="black" cx="955" cy="-306" rx="85.1424" ry="18"/>
<text text-anchor="middle" x="955" y="-302.7" font-family="Times Roman,serif" font-size="12.00">/usr/lib/libicui18n.so</text>
</g>
<!-- node146&#45;&gt;node184 -->
<g id="edge50" class="edge"><title>node146&#45;&gt;node184</title>
<path fill="none" stroke="black" d="M366.34,-364.486C370.817,-362.716 375.474,-361.128 380,-360 588.016,-308.169 648.488,-352.205 861,-324 868.644,-322.985 876.605,-321.747 884.518,-320.4"/>
<polygon fill="black" stroke="black" points="885.246,-323.826 894.487,-318.643 884.031,-316.932 885.246,-323.826"/>
</g>
<!-- node185 -->
<g id="node43" class="node"><title>node185</title>
<ellipse fill="none" stroke="black" cx="337" cy="-306" rx="85.1424" ry="18"/>
<text text-anchor="middle" x="337" y="-302.7" font-family="Times Roman,serif" font-size="12.00">/usr/lib/libicudata.so</text>
</g>
<!-- node146&#45;&gt;node185 -->
<g id="edge52" class="edge"><title>node146&#45;&gt;node185</title>
<path fill="none" stroke="black" d="M338.495,-359.831C338.281,-352.131 338.027,-342.974 337.789,-334.417"/>
<polygon fill="black" stroke="black" points="341.288,-334.312 337.511,-324.413 334.291,-334.507 341.288,-334.312"/>
</g>
<!-- node146&#45;&gt;node147 -->
<g id="edge56" class="edge"><title>node146&#45;&gt;node147</title>
<path fill="none" stroke="black" d="M311.808,-368.587C274.981,-355.84 209.123,-333.043 167.871,-318.763"/>
<polygon fill="black" stroke="black" points="168.794,-315.379 158.199,-315.415 166.504,-321.994 168.794,-315.379"/>
</g>
<!-- node147&#45;&gt;node151 -->
<g id="edge58" class="edge"><title>node147&#45;&gt;node151</title>
<path fill="none" stroke="black" d="M129.386,-287.878C127.456,-253.636 128.845,-179.676 172,-144 206.52,-115.462 885.394,-95.4938 1053.56,-90.9721"/>
<polygon fill="black" stroke="black" points="1053.76,-94.4681 1063.67,-90.7026 1053.58,-87.4706 1053.76,-94.4681"/>
</g>
<!-- node55&#45;&gt;node151 -->
<g id="edge66" class="edge"><title>node55&#45;&gt;node151</title>
<path fill="none" stroke="black" d="M1414.86,-359.841C1426.95,-329.163 1446.85,-265.572 1428,-216 1412.78,-175.98 1401.16,-165.263 1364,-144 1324.18,-121.214 1193.18,-102.515 1128.21,-94.3811"/>
<polygon fill="black" stroke="black" points="1128.36,-90.8724 1118,-93.1219 1127.5,-97.8198 1128.36,-90.8724"/>
</g>
<!-- node55&#45;&gt;node66 -->
<g id="edge72" class="edge"><title>node55&#45;&gt;node66</title>
<path fill="none" stroke="black" d="M1374.7,-359.831C1357.92,-350.395 1337.26,-338.772 1319.43,-328.744"/>
<polygon fill="black" stroke="black" points="1320.84,-325.517 1310.4,-323.665 1317.4,-331.618 1320.84,-325.517"/>
</g>
<!-- node55&#45;&gt;node153 -->
<g id="edge68" class="edge"><title>node55&#45;&gt;node153</title>
<path fill="none" stroke="black" d="M1397.98,-359.955C1379.04,-322.076 1335.04,-234.082 1312.64,-189.274"/>
<polygon fill="black" stroke="black" points="1315.68,-187.524 1308.07,-180.145 1309.41,-190.655 1315.68,-187.524"/>
</g>
<!-- node55&#45;&gt;node59 -->
<g id="edge70" class="edge"><title>node55&#45;&gt;node59</title>
<path fill="none" stroke="black" d="M1404.85,-359.762C1401.95,-335.201 1396.76,-291.247 1393.35,-262.354"/>
<polygon fill="black" stroke="black" points="1396.78,-261.61 1392.14,-252.09 1389.83,-262.431 1396.78,-261.61"/>
</g>
<!-- node53&#45;&gt;node151 -->
<g id="edge84" class="edge"><title>node53&#45;&gt;node151</title>
<path fill="none" stroke="black" d="M91.856,-431.926C85.9979,-404.753 76,-351.684 76,-306 76,-306 76,-306 76,-234 76,-184.397 98.4087,-167.67 142,-144 223.153,-99.9346 887.904,-91.644 1053.66,-90.2563"/>
<polygon fill="black" stroke="black" points="1053.88,-93.7548 1063.85,-90.1746 1053.82,-86.755 1053.88,-93.7548"/>
</g>
<!-- node53&#45;&gt;node146 -->
<g id="edge88" class="edge"><title>node53&#45;&gt;node146</title>
<path fill="none" stroke="black" d="M126.285,-441.027C170.827,-427.829 253.912,-403.211 302.004,-388.962"/>
<polygon fill="black" stroke="black" points="303.115,-392.283 311.708,-386.086 301.126,-385.572 303.115,-392.283"/>
</g>
<!-- node53&#45;&gt;node147 -->
<g id="edge86" class="edge"><title>node53&#45;&gt;node147</title>
<path fill="none" stroke="black" d="M100.433,-431.762C106.429,-407.093 117.18,-362.86 124.201,-333.973"/>
<polygon fill="black" stroke="black" points="127.642,-334.633 126.603,-324.09 120.84,-332.98 127.642,-334.633"/>
</g>
<!-- node74&#45;&gt;node64 -->
<g id="edge102" class="edge"><title>node74&#45;&gt;node64</title>
<path fill="none" stroke="black" d="M1382.64,-591.309C1272.23,-580.448 858.825,-539.786 722.164,-526.344"/>
<polygon fill="black" stroke="black" points="722.352,-522.846 712.057,-525.35 721.667,-529.812 722.352,-522.846"/>
</g>
<!-- node74&#45;&gt;node151 -->
<g id="edge104" class="edge"><title>node74&#45;&gt;node151</title>
<path fill="none" stroke="black" d="M1437.15,-586.6C1488.33,-570.814 1594,-528.694 1594,-450 1594,-450 1594,-450 1594,-234 1594,-137.107 1244.67,-101.701 1128.25,-92.5917"/>
<polygon fill="black" stroke="black" points="1128.28,-89.084 1118.04,-91.8143 1127.75,-96.0638 1128.28,-89.084"/>
</g>
<!-- node74&#45;&gt;node66 -->
<g id="edge112" class="edge"><title>node74&#45;&gt;node66</title>
<path fill="none" stroke="black" d="M1410.68,-575.996C1411.15,-545.005 1408.99,-480.258 1386,-432 1376.67,-412.404 1367.23,-412.389 1353,-396 1334.6,-374.808 1314.41,-350.149 1299.77,-332.008"/>
<polygon fill="black" stroke="black" points="1302.46,-329.765 1293.46,-324.167 1297,-334.152 1302.46,-329.765"/>
</g>
<!-- node74&#45;&gt;node153 -->
<g id="edge106" class="edge"><title>node74&#45;&gt;node153</title>
<path fill="none" stroke="black" d="M1437.12,-582.278C1479.34,-561.983 1556,-516.041 1556,-450 1556,-450 1556,-450 1556,-378 1556,-264.396 1407.02,-198.568 1335.92,-173.621"/>
<polygon fill="black" stroke="black" points="1336.61,-170.161 1326.02,-170.237 1334.35,-176.784 1336.61,-170.161"/>
</g>
<!-- node74&#45;&gt;node149 -->
<g id="edge108" class="edge"><title>node74&#45;&gt;node149</title>
<path fill="none" stroke="black" d="M1395.37,-575.653C1348.06,-516.31 1199.07,-329.416 1143.85,-260.157"/>
<polygon fill="black" stroke="black" points="1146.57,-257.948 1137.6,-252.31 1141.09,-262.312 1146.57,-257.948"/>
</g>
<!-- node74&#45;&gt;node59 -->
<g id="edge110" class="edge"><title>node74&#45;&gt;node59</title>
<path fill="none" stroke="black" d="M1419.73,-575.97C1439.75,-536.55 1481.94,-439.832 1461,-360 1451.24,-322.795 1427.74,-285 1410.43,-260.642"/>
<polygon fill="black" stroke="black" points="1413.09,-258.337 1404.38,-252.302 1407.42,-262.45 1413.09,-258.337"/>
</g>
</g>
</svg>
