<?xml version="1.0" encoding="UTF-8" standalone="no"?>
<!DOCTYPE svg PUBLIC "-//W3C//DTD SVG 1.1//EN"
 "http://www.w3.org/Graphics/SVG/1.1/DTD/svg11.dtd">
<!-- Generated by graphviz version 2.26.3 (20100126.1600)
 -->
<!-- Title: GG Pages: 1 -->
<svg width="1547pt" height="620pt"
 viewBox="0.00 0.00 1547.00 620.00" xmlns="http://www.w3.org/2000/svg" xmlns:xlink="http://www.w3.org/1999/xlink">
<g id="graph1" class="graph" transform="scale(1 1) rotate(0) translate(4 616)">
<title>GG</title>
<polygon fill="white" stroke="white" points="-4,5 -4,-616 1544,-616 1544,5 -4,5"/>
<!-- node132 -->
<g id="node1" class="node"><title>node132</title>
<polygon fill="none" stroke="black" points="916,-612 836,-612 836,-576 916,-576 916,-612"/>
<text text-anchor="middle" x="876" y="-590.7" font-family="Times Roman,serif" font-size="12.00">fileservices</text>
</g>
<!-- node151 -->
<g id="node2" class="node"><title>node151</title>
<polygon fill="none" stroke="black" points="495,-108 441,-108 441,-72 495,-72 495,-108"/>
<text text-anchor="middle" x="468" y="-86.7" font-family="Times Roman,serif" font-size="12.00">jlib</text>
</g>
<!-- node132&#45;&gt;node151 -->
<g id="edge2" class="edge"><title>node132&#45;&gt;node151</title>
<path fill="none" stroke="black" d="M835.816,-593.43C680.736,-590.95 126.487,-579.384 59,-540 17.6909,-515.893 0,-497.829 0,-450 0,-450 0,-450 0,-234 0,-144.03 319.957,-104.394 430.763,-93.3647"/>
<polygon fill="black" stroke="black" points="431.202,-96.8387 440.815,-92.386 430.523,-89.8716 431.202,-96.8387"/>
</g>
<!-- node59 -->
<g id="node12" class="node"><title>node59</title>
<polygon fill="none" stroke="black" points="240,-252 182,-252 182,-216 240,-216 240,-252"/>
<text text-anchor="middle" x="211" y="-230.7" font-family="Times Roman,serif" font-size="12.00">remote</text>
</g>
<!-- node132&#45;&gt;node59 -->
<g id="edge12" class="edge"><title>node132&#45;&gt;node59</title>
<path fill="none" stroke="black" d="M835.996,-592.602C691.457,-587.344 201.39,-567.633 137,-540 82.3551,-516.549 38,-509.464 38,-450 38,-450 38,-450 38,-378 38,-308.615 121.222,-266.206 172.224,-246.731"/>
<polygon fill="black" stroke="black" points="173.484,-249.997 181.653,-243.251 171.06,-243.431 173.484,-249.997"/>
</g>
<!-- node66 -->
<g id="node18" class="node"><title>node66</title>
<polygon fill="none" stroke="black" points="358,-324 296,-324 296,-288 358,-288 358,-324"/>
<text text-anchor="middle" x="327" y="-302.7" font-family="Times Roman,serif" font-size="12.00">dalibase</text>
</g>
<!-- node132&#45;&gt;node66 -->
<g id="edge20" class="edge"><title>node132&#45;&gt;node66</title>
<path fill="none" stroke="black" d="M835.912,-588.558C751.085,-575.98 548.538,-540.282 394,-468 344.065,-444.644 318.248,-445.006 293,-396 282.416,-375.456 293.204,-350.83 305.354,-332.534"/>
<polygon fill="black" stroke="black" points="308.402,-334.287 311.34,-324.107 302.696,-330.233 308.402,-334.287"/>
</g>
<!-- node55 -->
<g id="node27" class="node"><title>node55</title>
<polygon fill="none" stroke="black" points="156,-396 66,-396 66,-360 156,-360 156,-396"/>
<text text-anchor="middle" x="111" y="-374.7" font-family="Times Roman,serif" font-size="12.00">environment</text>
</g>
<!-- node132&#45;&gt;node55 -->
<g id="edge34" class="edge"><title>node132&#45;&gt;node55</title>
<path fill="none" stroke="black" d="M835.536,-593.428C693.465,-591.08 223.132,-580.302 170,-540 128.109,-508.225 115.928,-443.781 112.408,-406.462"/>
<polygon fill="black" stroke="black" points="115.879,-405.953 111.598,-396.261 108.9,-406.507 115.879,-405.953"/>
</g>
<!-- node54 -->
<g id="node33" class="node"><title>node54</title>
<polygon fill="none" stroke="black" points="796,-468 730,-468 730,-432 796,-432 796,-468"/>
<text text-anchor="middle" x="763" y="-446.7" font-family="Times Roman,serif" font-size="12.00">dllserver</text>
</g>
<!-- node132&#45;&gt;node54 -->
<g id="edge44" class="edge"><title>node132&#45;&gt;node54</title>
<path fill="none" stroke="black" d="M861.688,-575.762C841.905,-550.552 806.089,-504.91 783.477,-476.095"/>
<polygon fill="black" stroke="black" points="786.122,-473.796 777.195,-468.09 780.615,-478.117 786.122,-473.796"/>
</g>
<!-- node146 -->
<g id="node40" class="node"><title>node146</title>
<polygon fill="none" stroke="black" points="1130,-396 1076,-396 1076,-360 1130,-360 1130,-396"/>
<text text-anchor="middle" x="1103" y="-374.7" font-family="Times Roman,serif" font-size="12.00">eclrtl</text>
</g>
<!-- node132&#45;&gt;node146 -->
<g id="edge82" class="edge"><title>node132&#45;&gt;node146</title>
<path fill="none" stroke="black" d="M894.963,-575.955C935.439,-537.441 1030.36,-447.116 1076.67,-403.056"/>
<polygon fill="black" stroke="black" points="1079.1,-405.574 1083.93,-396.145 1074.27,-400.503 1079.1,-405.574"/>
</g>
<!-- node147 -->
<g id="node51" class="node"><title>node147</title>
<polygon fill="none" stroke="black" points="1477,-324 1423,-324 1423,-288 1477,-288 1477,-324"/>
<text text-anchor="middle" x="1450" y="-302.7" font-family="Times Roman,serif" font-size="12.00">nbcd</text>
</g>
<!-- node132&#45;&gt;node147 -->
<g id="edge80" class="edge"><title>node132&#45;&gt;node147</title>
<path fill="none" stroke="black" d="M916.055,-590.662C1033.01,-580.1 1370.51,-543.544 1446,-468 1480.63,-433.349 1475.85,-408.353 1468,-360 1466.58,-351.262 1463.95,-342.027 1461.13,-333.714"/>
<polygon fill="black" stroke="black" points="1464.36,-332.34 1457.67,-324.124 1457.77,-334.719 1464.36,-332.34"/>
</g>
<!-- node53 -->
<g id="node63" class="node"><title>node53</title>
<polygon fill="none" stroke="black" points="1413,-468 1353,-468 1353,-432 1413,-432 1413,-468"/>
<text text-anchor="middle" x="1383" y="-446.7" font-family="Times Roman,serif" font-size="12.00">deftype</text>
</g>
<!-- node132&#45;&gt;node53 -->
<g id="edge84" class="edge"><title>node132&#45;&gt;node53</title>
<path fill="none" stroke="black" d="M916.277,-588.007C969.464,-579.627 1065.77,-562.831 1146,-540 1234.06,-514.943 1253.73,-501.336 1339,-468 1340.39,-467.455 1341.81,-466.897 1343.24,-466.331"/>
<polygon fill="black" stroke="black" points="1344.77,-469.487 1352.75,-462.519 1342.17,-462.99 1344.77,-469.487"/>
</g>
<!-- node64 -->
<g id="node68" class="node"><title>node64</title>
<polygon fill="none" stroke="black" points="1137,-540 1069,-540 1069,-504 1137,-504 1137,-540"/>
<text text-anchor="middle" x="1103" y="-518.7" font-family="Times Roman,serif" font-size="12.00">workunit</text>
</g>
<!-- node132&#45;&gt;node64 -->
<g id="edge92" class="edge"><title>node132&#45;&gt;node64</title>
<path fill="none" stroke="black" d="M916.061,-581.294C956.242,-568.549 1017.94,-548.979 1059.35,-535.845"/>
<polygon fill="black" stroke="black" points="1060.42,-539.177 1068.9,-532.817 1058.31,-532.504 1060.42,-539.177"/>
</g>
<!-- node105 -->
<g id="node76" class="node"><title>node105</title>
<polygon fill="none" stroke="black" points="1539,-180 1483,-180 1483,-144 1539,-144 1539,-180"/>
<text text-anchor="middle" x="1511" y="-158.7" font-family="Times Roman,serif" font-size="12.00">soaplib</text>
</g>
<!-- node132&#45;&gt;node105 -->
<g id="edge106" class="edge"><title>node132&#45;&gt;node105</title>
<path fill="none" stroke="black" d="M916.094,-591.04C1013.39,-583.582 1259.82,-562.969 1339,-540 1427.58,-514.303 1526,-542.236 1526,-450 1526,-450 1526,-450 1526,-306 1526,-265.659 1520.1,-219.301 1515.71,-190.327"/>
<polygon fill="black" stroke="black" points="1519.11,-189.461 1514.11,-180.122 1512.2,-190.543 1519.11,-189.461"/>
</g>
<!-- node152 -->
<g id="node4" class="node"><title>node152</title>
<polygon fill="none" stroke="black" points="346,-36 306.056,-18 346,-3.55271e-15 385.944,-18 346,-36"/>
<text text-anchor="middle" x="346" y="-14.7" font-family="Times Roman,serif" font-size="12.00">lzma</text>
</g>
<!-- node151&#45;&gt;node152 -->
<g id="edge4" class="edge"><title>node151&#45;&gt;node152</title>
<path fill="none" stroke="black" d="M440.924,-74.0209C420.47,-61.9494 392.554,-45.4743 372.293,-33.5172"/>
<polygon fill="black" stroke="black" points="373.968,-30.4417 363.577,-28.3733 370.41,-36.4701 373.968,-30.4417"/>
</g>
<!-- node187 -->
<g id="node6" class="node"><title>node187</title>
<ellipse fill="none" stroke="black" cx="431" cy="-18" rx="27" ry="18"/>
<text text-anchor="middle" x="431" y="-14.7" font-family="Times Roman,serif" font-size="12.00">dl</text>
</g>
<!-- node151&#45;&gt;node187 -->
<g id="edge6" class="edge"><title>node151&#45;&gt;node187</title>
<path fill="none" stroke="black" d="M458.663,-71.8314C454.405,-63.5451 449.28,-53.5727 444.605,-44.4748"/>
<polygon fill="black" stroke="black" points="447.635,-42.7123 439.951,-35.4177 441.408,-45.9118 447.635,-42.7123"/>
</g>
<!-- node179 -->
<g id="node8" class="node"><title>node179</title>
<ellipse fill="none" stroke="black" cx="506" cy="-18" rx="30.0465" ry="18"/>
<text text-anchor="middle" x="506" y="-14.7" font-family="Times Roman,serif" font-size="12.00">crypt</text>
</g>
<!-- node151&#45;&gt;node179 -->
<g id="edge8" class="edge"><title>node151&#45;&gt;node179</title>
<path fill="none" stroke="black" d="M477.589,-71.8314C481.962,-63.5451 487.226,-53.5727 492.027,-44.4748"/>
<polygon fill="black" stroke="black" points="495.235,-45.8952 496.807,-35.4177 489.044,-42.6279 495.235,-45.8952"/>
</g>
<!-- node188 -->
<g id="node10" class="node"><title>node188</title>
<ellipse fill="none" stroke="black" cx="581" cy="-18" rx="27" ry="18"/>
<text text-anchor="middle" x="581" y="-14.7" font-family="Times Roman,serif" font-size="12.00">rt</text>
</g>
<!-- node151&#45;&gt;node188 -->
<g id="edge10" class="edge"><title>node151&#45;&gt;node188</title>
<path fill="none" stroke="black" d="M495.066,-72.7542C512.414,-61.7009 534.898,-47.375 552.516,-36.1494"/>
<polygon fill="black" stroke="black" points="554.679,-38.9209 561.232,-30.5955 550.918,-33.0174 554.679,-38.9209"/>
</g>
<!-- node59&#45;&gt;node151 -->
<g id="edge14" class="edge"><title>node59&#45;&gt;node151</title>
<path fill="none" stroke="black" d="M222.832,-215.776C236.952,-195.427 262.404,-162.88 292,-144 335.225,-116.425 393.388,-102.205 430.794,-95.4301"/>
<polygon fill="black" stroke="black" points="431.504,-98.8594 440.764,-93.7117 430.315,-91.9611 431.504,-98.8594"/>
</g>
<!-- node153 -->
<g id="node15" class="node"><title>node153</title>
<polygon fill="none" stroke="black" points="398,-180 344,-180 344,-144 398,-144 398,-180"/>
<text text-anchor="middle" x="371" y="-158.7" font-family="Times Roman,serif" font-size="12.00">mp</text>
</g>
<!-- node59&#45;&gt;node153 -->
<g id="edge16" class="edge"><title>node59&#45;&gt;node153</title>
<path fill="none" stroke="black" d="M240.346,-220.794C266.932,-208.831 306.196,-191.162 334.737,-178.318"/>
<polygon fill="black" stroke="black" points="336.288,-181.458 343.971,-174.163 333.416,-175.075 336.288,-181.458"/>
</g>
<!-- node153&#45;&gt;node151 -->
<g id="edge18" class="edge"><title>node153&#45;&gt;node151</title>
<path fill="none" stroke="black" d="M395.477,-143.831C407.539,-134.878 422.254,-123.956 435.269,-114.295"/>
<polygon fill="black" stroke="black" points="437.587,-116.933 443.531,-108.163 433.415,-111.313 437.587,-116.933"/>
</g>
<!-- node66&#45;&gt;node151 -->
<g id="edge22" class="edge"><title>node66&#45;&gt;node151</title>
<path fill="none" stroke="black" d="M322.146,-287.949C314.626,-255.733 304.034,-187.631 335,-144 356.9,-113.143 399.609,-99.8931 430.738,-94.2192"/>
<polygon fill="black" stroke="black" points="431.501,-97.641 440.804,-92.571 430.37,-90.7329 431.501,-97.641"/>
</g>
<!-- node66&#45;&gt;node59 -->
<g id="edge32" class="edge"><title>node66&#45;&gt;node59</title>
<path fill="none" stroke="black" d="M297.728,-287.831C282.891,-278.622 264.698,-267.33 248.814,-257.471"/>
<polygon fill="black" stroke="black" points="250.605,-254.463 240.262,-252.163 246.913,-260.41 250.605,-254.463"/>
</g>
<!-- node66&#45;&gt;node153 -->
<g id="edge24" class="edge"><title>node66&#45;&gt;node153</title>
<path fill="none" stroke="black" d="M332.573,-287.762C340.111,-263.093 353.626,-218.86 362.453,-189.973"/>
<polygon fill="black" stroke="black" points="365.898,-190.676 365.473,-180.09 359.203,-188.63 365.898,-190.676"/>
</g>
<!-- node149 -->
<g id="node22" class="node"><title>node149</title>
<polygon fill="none" stroke="black" points="464,-252 410,-252 410,-216 464,-216 464,-252"/>
<text text-anchor="middle" x="437" y="-230.7" font-family="Times Roman,serif" font-size="12.00">hrpc</text>
</g>
<!-- node66&#45;&gt;node149 -->
<g id="edge26" class="edge"><title>node66&#45;&gt;node149</title>
<path fill="none" stroke="black" d="M354.758,-287.831C368.803,-278.638 386.02,-267.368 401.065,-257.521"/>
<polygon fill="black" stroke="black" points="403.182,-260.319 409.632,-251.913 399.348,-254.462 403.182,-260.319"/>
</g>
<!-- node149&#45;&gt;node151 -->
<g id="edge28" class="edge"><title>node149&#45;&gt;node151</title>
<path fill="none" stroke="black" d="M440.926,-215.762C446.237,-191.093 455.759,-146.86 461.978,-117.973"/>
<polygon fill="black" stroke="black" points="465.423,-118.602 464.106,-108.09 458.579,-117.129 465.423,-118.602"/>
</g>
<!-- node149&#45;&gt;node153 -->
<g id="edge30" class="edge"><title>node149&#45;&gt;node153</title>
<path fill="none" stroke="black" d="M420.345,-215.831C412.589,-207.369 403.22,-197.149 394.739,-187.897"/>
<polygon fill="black" stroke="black" points="397.216,-185.42 387.879,-180.413 392.056,-190.15 397.216,-185.42"/>
</g>
<!-- node55&#45;&gt;node151 -->
<g id="edge36" class="edge"><title>node55&#45;&gt;node151</title>
<path fill="none" stroke="black" d="M115.143,-359.746C122.855,-328.377 141.55,-263.076 173,-216 198.847,-177.311 208.169,-166.31 249,-144 307.661,-111.948 385.466,-98.631 430.801,-93.3149"/>
<polygon fill="black" stroke="black" points="431.224,-96.7896 440.78,-92.2132 430.456,-89.8318 431.224,-96.7896"/>
</g>
<!-- node55&#45;&gt;node59 -->
<g id="edge40" class="edge"><title>node55&#45;&gt;node59</title>
<path fill="none" stroke="black" d="M123.665,-359.762C141.097,-334.66 172.596,-289.302 192.62,-260.467"/>
<polygon fill="black" stroke="black" points="195.609,-262.3 198.438,-252.09 189.859,-258.307 195.609,-262.3"/>
</g>
<!-- node55&#45;&gt;node153 -->
<g id="edge38" class="edge"><title>node55&#45;&gt;node153</title>
<path fill="none" stroke="black" d="M132.72,-359.955C179.176,-321.361 288.253,-230.743 341.167,-186.784"/>
<polygon fill="black" stroke="black" points="343.703,-189.227 349.159,-180.145 339.23,-183.843 343.703,-189.227"/>
</g>
<!-- node55&#45;&gt;node66 -->
<g id="edge42" class="edge"><title>node55&#45;&gt;node66</title>
<path fill="none" stroke="black" d="M156.008,-364.204C198.373,-351.142 258.693,-332.328 282,-324 283.387,-323.505 284.794,-322.993 286.213,-322.469"/>
<polygon fill="black" stroke="black" points="287.536,-325.711 295.643,-318.89 285.051,-319.166 287.536,-325.711"/>
</g>
<!-- node54&#45;&gt;node151 -->
<g id="edge48" class="edge"><title>node54&#45;&gt;node151</title>
<path fill="none" stroke="black" d="M796.232,-448.883C877.489,-445.07 1075.05,-428.662 1011,-360 932.444,-275.784 577.093,-403.743 494,-324 479.39,-309.979 471.819,-177.45 469.144,-118.285"/>
<polygon fill="black" stroke="black" points="472.634,-117.975 468.701,-108.137 465.641,-118.28 472.634,-117.975"/>
</g>
<!-- node54&#45;&gt;node59 -->
<g id="edge70" class="edge"><title>node54&#45;&gt;node59</title>
<path fill="none" stroke="black" d="M729.777,-447.815C630.291,-441.034 339.45,-419.398 304,-396 256.128,-364.404 230.012,-299.137 218.442,-261.809"/>
<polygon fill="black" stroke="black" points="221.754,-260.666 215.558,-252.072 215.042,-262.654 221.754,-260.666"/>
</g>
<!-- node54&#45;&gt;node153 -->
<g id="edge50" class="edge"><title>node54&#45;&gt;node153</title>
<path fill="none" stroke="black" d="M729.868,-446.796C686.457,-441.466 609.039,-428.001 551,-396 530.627,-384.767 532.196,-373.143 513,-360 482.16,-338.885 463.708,-350.146 437,-324 399.436,-287.226 382.496,-226.119 375.464,-190.397"/>
<polygon fill="black" stroke="black" points="378.836,-189.383 373.587,-180.18 371.951,-190.648 378.836,-189.383"/>
</g>
<!-- node54&#45;&gt;node66 -->
<g id="edge72" class="edge"><title>node54&#45;&gt;node66</title>
<path fill="none" stroke="black" d="M729.735,-448.47C630.931,-443.588 344.353,-426.864 317,-396 302.193,-379.292 306.89,-353.426 314.01,-333.704"/>
<polygon fill="black" stroke="black" points="317.303,-334.893 317.743,-324.308 310.798,-332.309 317.303,-334.893"/>
</g>
<!-- node54&#45;&gt;node149 -->
<g id="edge52" class="edge"><title>node54&#45;&gt;node149</title>
<path fill="none" stroke="black" d="M796.137,-448.121C872.493,-442.68 1049.91,-423.044 991,-360 910.405,-273.745 552.12,-399.052 461,-324 443.037,-309.204 437.685,-282.601 436.443,-262.142"/>
<polygon fill="black" stroke="black" points="439.94,-261.982 436.123,-252.098 432.943,-262.205 439.94,-261.982"/>
</g>
<!-- node54&#45;&gt;node55 -->
<g id="edge74" class="edge"><title>node54&#45;&gt;node55</title>
<path fill="none" stroke="black" d="M729.999,-446.882C648.029,-439.066 428.589,-417.704 246,-396 219.806,-392.886 190.803,-389.068 166.415,-385.751"/>
<polygon fill="black" stroke="black" points="166.649,-382.25 156.267,-384.363 165.701,-389.186 166.649,-382.25"/>
</g>
<!-- node176 -->
<g id="node35" class="node"><title>node176</title>
<ellipse fill="none" stroke="black" cx="691" cy="-378" rx="130.789" ry="18"/>
<text text-anchor="middle" x="691" y="-374.7" font-family="Times Roman,serif" font-size="12.00">/usr/lib/x86_64&#45;linux&#45;gnu/libz.so</text>
</g>
<!-- node54&#45;&gt;node176 -->
<g id="edge46" class="edge"><title>node54&#45;&gt;node176</title>
<path fill="none" stroke="black" d="M744.831,-431.831C736.153,-423.153 725.626,-412.626 716.19,-403.19"/>
<polygon fill="black" stroke="black" points="718.459,-400.51 708.913,-395.913 713.51,-405.459 718.459,-400.51"/>
</g>
<!-- node54&#45;&gt;node146 -->
<g id="edge54" class="edge"><title>node54&#45;&gt;node146</title>
<path fill="none" stroke="black" d="M796.341,-446.57C852.22,-440.25 967.906,-424.714 1062,-396 1063.44,-395.56 1064.9,-395.084 1066.36,-394.58"/>
<polygon fill="black" stroke="black" points="1067.89,-397.744 1075.99,-390.92 1065.4,-391.2 1067.89,-397.744"/>
</g>
<!-- node177 -->
<g id="node57" class="node"><title>node177</title>
<ellipse fill="none" stroke="black" cx="911" cy="-378" rx="70.8437" ry="18"/>
<text text-anchor="middle" x="911" y="-374.7" font-family="Times Roman,serif" font-size="12.00">/usr/lib/libbfd.so</text>
</g>
<!-- node54&#45;&gt;node177 -->
<g id="edge76" class="edge"><title>node54&#45;&gt;node177</title>
<path fill="none" stroke="black" d="M796.214,-433.842C817.712,-423.383 845.888,-409.676 868.944,-398.459"/>
<polygon fill="black" stroke="black" points="870.691,-401.502 878.152,-393.98 867.628,-395.208 870.691,-401.502"/>
</g>
<!-- node178 -->
<g id="node59" class="node"><title>node178</title>
<ellipse fill="none" stroke="black" cx="415" cy="-378" rx="89.0421" ry="18"/>
<text text-anchor="middle" x="415" y="-374.7" font-family="Times Roman,serif" font-size="12.00">/usr/lib/libiberty_pic.a</text>
</g>
<!-- node54&#45;&gt;node178 -->
<g id="edge78" class="edge"><title>node54&#45;&gt;node178</title>
<path fill="none" stroke="black" d="M729.947,-443.162C674.611,-431.713 561.968,-408.407 487.487,-392.997"/>
<polygon fill="black" stroke="black" points="487.743,-389.476 477.241,-390.877 486.324,-396.331 487.743,-389.476"/>
</g>
<!-- node146&#45;&gt;node151 -->
<g id="edge64" class="edge"><title>node146&#45;&gt;node151</title>
<path fill="none" stroke="black" d="M1130.44,-375.773C1194.97,-369.499 1347.43,-348.045 1300,-288 1198.43,-159.428 653.606,-105.381 505.296,-92.9216"/>
<polygon fill="black" stroke="black" points="505.569,-89.4323 495.315,-92.0959 504.992,-96.4085 505.569,-89.4323"/>
</g>
<!-- node186 -->
<g id="node42" class="node"><title>node186</title>
<ellipse fill="none" stroke="black" cx="622" cy="-306" rx="118.939" ry="18"/>
<text text-anchor="middle" x="622" y="-302.7" font-family="Times Roman,serif" font-size="12.00">/usr/lib/libboost_regex&#45;mt.so</text>
</g>
<!-- node146&#45;&gt;node186 -->
<g id="edge56" class="edge"><title>node146&#45;&gt;node186</title>
<path fill="none" stroke="black" d="M1075.62,-364.645C1071.15,-362.854 1066.5,-361.218 1062,-360 927.26,-323.538 888.457,-341.72 750,-324 739.795,-322.694 729.139,-321.278 718.522,-319.834"/>
<polygon fill="black" stroke="black" points="718.753,-316.333 708.371,-318.444 717.803,-323.269 718.753,-316.333"/>
</g>
<!-- node183 -->
<g id="node44" class="node"><title>node183</title>
<ellipse fill="none" stroke="black" cx="837" cy="-306" rx="77.9931" ry="18"/>
<text text-anchor="middle" x="837" y="-302.7" font-family="Times Roman,serif" font-size="12.00">/usr/lib/libicuuc.so</text>
</g>
<!-- node146&#45;&gt;node183 -->
<g id="edge58" class="edge"><title>node146&#45;&gt;node183</title>
<path fill="none" stroke="black" d="M1075.92,-365.304C1071.33,-363.386 1066.57,-361.537 1062,-360 1033.06,-350.26 959.132,-333.043 903.863,-320.665"/>
<polygon fill="black" stroke="black" points="904.298,-317.176 893.775,-318.413 902.772,-324.008 904.298,-317.176"/>
</g>
<!-- node184 -->
<g id="node46" class="node"><title>node184</title>
<ellipse fill="none" stroke="black" cx="1018" cy="-306" rx="85.1424" ry="18"/>
<text text-anchor="middle" x="1018" y="-302.7" font-family="Times Roman,serif" font-size="12.00">/usr/lib/libicui18n.so</text>
</g>
<!-- node146&#45;&gt;node184 -->
<g id="edge60" class="edge"><title>node146&#45;&gt;node184</title>
<path fill="none" stroke="black" d="M1081.55,-359.831C1070.92,-350.828 1057.94,-339.833 1046.49,-330.133"/>
<polygon fill="black" stroke="black" points="1048.75,-327.458 1038.85,-323.665 1044.22,-332.799 1048.75,-327.458"/>
</g>
<!-- node185 -->
<g id="node48" class="node"><title>node185</title>
<ellipse fill="none" stroke="black" cx="1206" cy="-306" rx="85.1424" ry="18"/>
<text text-anchor="middle" x="1206" y="-302.7" font-family="Times Roman,serif" font-size="12.00">/usr/lib/libicudata.so</text>
</g>
<!-- node146&#45;&gt;node185 -->
<g id="edge62" class="edge"><title>node146&#45;&gt;node185</title>
<path fill="none" stroke="black" d="M1128.99,-359.831C1142.22,-350.586 1158.45,-339.241 1172.59,-329.354"/>
<polygon fill="black" stroke="black" points="1174.89,-332.016 1181.08,-323.418 1170.88,-326.278 1174.89,-332.016"/>
</g>
<!-- node146&#45;&gt;node147 -->
<g id="edge66" class="edge"><title>node146&#45;&gt;node147</title>
<path fill="none" stroke="black" d="M1130.23,-372.35C1191.93,-359.548 1342.47,-328.312 1412.73,-313.732"/>
<polygon fill="black" stroke="black" points="1413.82,-317.082 1422.9,-311.623 1412.4,-310.228 1413.82,-317.082"/>
</g>
<!-- node147&#45;&gt;node151 -->
<g id="edge68" class="edge"><title>node147&#45;&gt;node151</title>
<path fill="none" stroke="black" d="M1451.62,-287.872C1453.56,-253.621 1452.18,-179.647 1409,-144 1373.58,-114.759 676.31,-95.2686 505.516,-90.9209"/>
<polygon fill="black" stroke="black" points="505.577,-87.4214 495.492,-90.6677 505.4,-94.4191 505.577,-87.4214"/>
</g>
<!-- node53&#45;&gt;node151 -->
<g id="edge86" class="edge"><title>node53&#45;&gt;node151</title>
<path fill="none" stroke="black" d="M1385.3,-431.694C1392.36,-372.036 1410.9,-184.731 1371,-144 1340.25,-112.611 672.929,-94.8294 505.726,-90.8566"/>
<polygon fill="black" stroke="black" points="505.528,-87.3511 495.448,-90.6149 505.363,-94.3491 505.528,-87.3511"/>
</g>
<!-- node53&#45;&gt;node146 -->
<g id="edge90" class="edge"><title>node53&#45;&gt;node146</title>
<path fill="none" stroke="black" d="M1352.77,-442.226C1301.12,-428.944 1196.04,-401.925 1140.06,-387.529"/>
<polygon fill="black" stroke="black" points="1140.76,-384.095 1130.2,-384.994 1139.01,-390.874 1140.76,-384.095"/>
</g>
<!-- node53&#45;&gt;node147 -->
<g id="edge88" class="edge"><title>node53&#45;&gt;node147</title>
<path fill="none" stroke="black" d="M1391.49,-431.762C1403.06,-406.876 1423.91,-362.082 1437.34,-333.216"/>
<polygon fill="black" stroke="black" points="1440.54,-334.633 1441.58,-324.09 1434.19,-331.68 1440.54,-334.633"/>
</g>
<!-- node64&#45;&gt;node151 -->
<g id="edge94" class="edge"><title>node64&#45;&gt;node151</title>
<path fill="none" stroke="black" d="M1135.97,-503.872C1186.35,-474.032 1280.6,-409.275 1318,-324 1342.31,-268.559 1287.94,-245.369 1235,-216 1139.85,-163.211 1107.65,-165.589 1001,-144 817.449,-106.843 592.905,-94.7303 505.403,-91.252"/>
<polygon fill="black" stroke="black" points="505.309,-87.7459 495.182,-90.8607 505.041,-94.7408 505.309,-87.7459"/>
</g>
<!-- node64&#45;&gt;node66 -->
<g id="edge96" class="edge"><title>node64&#45;&gt;node66</title>
<path fill="none" stroke="black" d="M1068.61,-519.203C922.011,-506.933 354.374,-455.816 304,-396 289.203,-378.429 297.993,-352.548 308.703,-333.044"/>
<polygon fill="black" stroke="black" points="311.785,-334.708 313.85,-324.316 305.755,-331.152 311.785,-334.708"/>
</g>
<!-- node64&#45;&gt;node54 -->
<g id="edge98" class="edge"><title>node64&#45;&gt;node54</title>
<path fill="none" stroke="black" d="M1068.84,-514.767C1006.53,-501.572 874.557,-473.624 806.146,-459.137"/>
<polygon fill="black" stroke="black" points="806.639,-455.664 796.131,-457.016 805.188,-462.512 806.639,-455.664"/>
</g>
<!-- node64&#45;&gt;node146 -->
<g id="edge102" class="edge"><title>node64&#45;&gt;node146</title>
<path fill="none" stroke="black" d="M1103,-503.762C1103,-479.201 1103,-435.247 1103,-406.354"/>
<polygon fill="black" stroke="black" points="1106.5,-406.09 1103,-396.09 1099.5,-406.09 1106.5,-406.09"/>
</g>
<!-- node64&#45;&gt;node147 -->
<g id="edge100" class="edge"><title>node64&#45;&gt;node147</title>
<path fill="none" stroke="black" d="M1137.23,-521.039C1211.18,-518.225 1382.36,-507.501 1422,-468 1457.18,-432.944 1457.47,-370.702 1454.05,-334.425"/>
<polygon fill="black" stroke="black" points="1457.48,-333.614 1452.9,-324.059 1450.52,-334.384 1457.48,-333.614"/>
</g>
<!-- node64&#45;&gt;node53 -->
<g id="edge104" class="edge"><title>node64&#45;&gt;node53</title>
<path fill="none" stroke="black" d="M1137.07,-516.017C1183.38,-507.479 1268.48,-490.329 1339,-468 1340.43,-467.548 1341.87,-467.071 1343.32,-466.572"/>
<polygon fill="black" stroke="black" points="1344.75,-469.777 1352.94,-463.054 1342.35,-463.203 1344.75,-469.777"/>
</g>
<!-- node105&#45;&gt;node151 -->
<g id="edge108" class="edge"><title>node105&#45;&gt;node151</title>
<path fill="none" stroke="black" d="M1482.87,-151.406C1474.07,-148.513 1464.24,-145.708 1455,-144 1267.56,-109.345 662.213,-94.172 505.384,-90.7651"/>
<polygon fill="black" stroke="black" points="505.367,-87.2641 495.294,-90.5488 505.217,-94.2625 505.367,-87.2641"/>
</g>
</g>
</svg>
