<?xml version="1.0" encoding="UTF-8" standalone="no"?>
<!DOCTYPE svg PUBLIC "-//W3C//DTD SVG 1.1//EN"
 "http://www.w3.org/Graphics/SVG/1.1/DTD/svg11.dtd">
<!-- Generated by graphviz version 2.26.3 (20100126.1600)
 -->
<!-- Title: GG Pages: 1 -->
<svg width="310pt" height="332pt"
 viewBox="0.00 0.00 310.00 332.00" xmlns="http://www.w3.org/2000/svg" xmlns:xlink="http://www.w3.org/1999/xlink">
<g id="graph1" class="graph" transform="scale(1 1) rotate(0) translate(4 328)">
<title>GG</title>
<polygon fill="white" stroke="white" points="-4,5 -4,-328 307,-328 307,5 -4,5"/>
<!-- node67 -->
<g id="node1" class="node"><title>node67</title>
<polygon fill="none" stroke="black" points="204.219,-311.562 152,-324 99.7808,-311.562 99.8295,-291.438 204.17,-291.438 204.219,-311.562"/>
<text text-anchor="middle" x="152" y="-302.7" font-family="Times Roman,serif" font-size="12.00">dafilesrv</text>
</g>
<!-- node151 -->
<g id="node2" class="node"><title>node151</title>
<polygon fill="none" stroke="black" points="189,-108 135,-108 135,-72 189,-72 189,-108"/>
<text text-anchor="middle" x="162" y="-86.7" font-family="Times Roman,serif" font-size="12.00">jlib</text>
</g>
<!-- node67&#45;&gt;node151 -->
<g id="edge2" class="edge"><title>node67&#45;&gt;node151</title>
<path fill="none" stroke="black" d="M148.898,-291.414C146.761,-280.594 144.113,-265.45 143,-252 139.118,-205.093 148.286,-150.806 155.195,-118.496"/>
<polygon fill="black" stroke="black" points="158.68,-118.944 157.429,-108.423 151.847,-117.428 158.68,-118.944"/>
</g>
<!-- node59 -->
<g id="node12" class="node"><title>node59</title>
<polygon fill="none" stroke="black" points="210,-252 152,-252 152,-216 210,-216 210,-252"/>
<text text-anchor="middle" x="181" y="-230.7" font-family="Times Roman,serif" font-size="12.00">remote</text>
</g>
<!-- node67&#45;&gt;node59 -->
<g id="edge12" class="edge"><title>node67&#45;&gt;node59</title>
<path fill="none" stroke="black" d="M157.869,-291.43C161.33,-282.835 165.824,-271.679 169.929,-261.488"/>
<polygon fill="black" stroke="black" points="173.209,-262.711 173.698,-252.128 166.716,-260.096 173.209,-262.711"/>
</g>
<!-- node152 -->
<g id="node4" class="node"><title>node152</title>
<polygon fill="none" stroke="black" points="40,-36 0.0563759,-18 40,-3.55271e-15 79.9436,-18 40,-36"/>
<text text-anchor="middle" x="40" y="-14.7" font-family="Times Roman,serif" font-size="12.00">lzma</text>
</g>
<!-- node151&#45;&gt;node152 -->
<g id="edge4" class="edge"><title>node151&#45;&gt;node152</title>
<path fill="none" stroke="black" d="M134.924,-74.0209C114.47,-61.9494 86.5536,-45.4743 66.293,-33.5172"/>
<polygon fill="black" stroke="black" points="67.968,-30.4417 57.577,-28.3733 64.4102,-36.4701 67.968,-30.4417"/>
</g>
<!-- node187 -->
<g id="node6" class="node"><title>node187</title>
<ellipse fill="none" stroke="black" cx="125" cy="-18" rx="27" ry="18"/>
<text text-anchor="middle" x="125" y="-14.7" font-family="Times Roman,serif" font-size="12.00">dl</text>
</g>
<!-- node151&#45;&gt;node187 -->
<g id="edge6" class="edge"><title>node151&#45;&gt;node187</title>
<path fill="none" stroke="black" d="M152.663,-71.8314C148.405,-63.5451 143.28,-53.5727 138.605,-44.4748"/>
<polygon fill="black" stroke="black" points="141.635,-42.7123 133.951,-35.4177 135.408,-45.9118 141.635,-42.7123"/>
</g>
<!-- node179 -->
<g id="node8" class="node"><title>node179</title>
<ellipse fill="none" stroke="black" cx="200" cy="-18" rx="30.0465" ry="18"/>
<text text-anchor="middle" x="200" y="-14.7" font-family="Times Roman,serif" font-size="12.00">crypt</text>
</g>
<!-- node151&#45;&gt;node179 -->
<g id="edge8" class="edge"><title>node151&#45;&gt;node179</title>
<path fill="none" stroke="black" d="M171.589,-71.8314C175.962,-63.5451 181.226,-53.5727 186.027,-44.4748"/>
<polygon fill="black" stroke="black" points="189.235,-45.8952 190.807,-35.4177 183.044,-42.6279 189.235,-45.8952"/>
</g>
<!-- node188 -->
<g id="node10" class="node"><title>node188</title>
<ellipse fill="none" stroke="black" cx="275" cy="-18" rx="27" ry="18"/>
<text text-anchor="middle" x="275" y="-14.7" font-family="Times Roman,serif" font-size="12.00">rt</text>
</g>
<!-- node151&#45;&gt;node188 -->
<g id="edge10" class="edge"><title>node151&#45;&gt;node188</title>
<path fill="none" stroke="black" d="M189.066,-72.7542C206.414,-61.7009 228.898,-47.375 246.516,-36.1494"/>
<polygon fill="black" stroke="black" points="248.679,-38.9209 255.232,-30.5955 244.918,-33.0174 248.679,-38.9209"/>
</g>
<!-- node59&#45;&gt;node151 -->
<g id="edge14" class="edge"><title>node59&#45;&gt;node151</title>
<path fill="none" stroke="black" d="M178.594,-215.762C175.353,-191.201 169.553,-147.247 165.741,-118.354"/>
<polygon fill="black" stroke="black" points="169.165,-117.546 164.387,-108.09 162.225,-118.462 169.165,-117.546"/>
</g>
<!-- node153 -->
<g id="node15" class="node"><title>node153</title>
<polygon fill="none" stroke="black" points="244,-180 190,-180 190,-144 244,-144 244,-180"/>
<text text-anchor="middle" x="217" y="-158.7" font-family="Times Roman,serif" font-size="12.00">mp</text>
</g>
<!-- node59&#45;&gt;node153 -->
<g id="edge16" class="edge"><title>node59&#45;&gt;node153</title>
<path fill="none" stroke="black" d="M190.084,-215.831C194.061,-207.877 198.815,-198.369 203.214,-189.572"/>
<polygon fill="black" stroke="black" points="206.452,-190.923 207.793,-180.413 200.191,-187.792 206.452,-190.923"/>
</g>
<!-- node153&#45;&gt;node151 -->
<g id="edge18" class="edge"><title>node153&#45;&gt;node151</title>
<path fill="none" stroke="black" d="M203.121,-143.831C196.786,-135.539 189.162,-125.557 182.207,-116.453"/>
<polygon fill="black" stroke="black" points="184.917,-114.235 176.066,-108.413 179.355,-118.485 184.917,-114.235"/>
</g>
</g>
</svg>
