<?xml version="1.0" encoding="UTF-8" standalone="no"?>
<!DOCTYPE svg PUBLIC "-//W3C//DTD SVG 1.1//EN"
 "http://www.w3.org/Graphics/SVG/1.1/DTD/svg11.dtd">
<!-- Generated by graphviz version 2.26.3 (20100126.1600)
 -->
<!-- Title: GG Pages: 1 -->
<svg width="2497pt" height="764pt"
 viewBox="0.00 0.00 2496.52 764.00" xmlns="http://www.w3.org/2000/svg" xmlns:xlink="http://www.w3.org/1999/xlink">
<g id="graph1" class="graph" transform="scale(1 1) rotate(0) translate(4 760)">
<title>GG</title>
<polygon fill="white" stroke="white" points="-4,5 -4,-760 2493.52,-760 2493.52,5 -4,5"/>
<!-- node166 -->
<g id="node1" class="node"><title>node166</title>
<polygon fill="none" stroke="black" points="1261.73,-756 1161.73,-756 1161.73,-720 1261.73,-720 1261.73,-756"/>
<text text-anchor="middle" x="1211.73" y="-734.7" font-family="Times Roman,serif" font-size="12.00">graphslave_lcr</text>
</g>
<!-- node151 -->
<g id="node2" class="node"><title>node151</title>
<polygon fill="none" stroke="black" points="1726.73,-108 1672.73,-108 1672.73,-72 1726.73,-72 1726.73,-108"/>
<text text-anchor="middle" x="1699.73" y="-86.7" font-family="Times Roman,serif" font-size="12.00">jlib</text>
</g>
<!-- node166&#45;&gt;node151 -->
<g id="edge2" class="edge"><title>node166&#45;&gt;node151</title>
<path fill="none" stroke="black" d="M1161.53,-737.363C933.659,-733.819 7.72697,-712.153 7.72697,-594 7.72697,-594 7.72697,-594 7.72697,-234 7.72697,-191.082 7.70326,-168.806 42.727,-144 111.005,-95.6424 1422.58,-90.5806 1662.28,-90.059"/>
<polygon fill="black" stroke="black" points="1662.58,-93.5585 1672.57,-90.038 1662.56,-86.5585 1662.58,-93.5585"/>
</g>
<!-- node52 -->
<g id="node12" class="node"><title>node52</title>
<polygon fill="none" stroke="black" points="733.727,-540 647.727,-540 647.727,-504 733.727,-504 733.727,-540"/>
<text text-anchor="middle" x="690.727" y="-518.7" font-family="Times Roman,serif" font-size="12.00">commonext</text>
</g>
<!-- node166&#45;&gt;node52 -->
<g id="edge12" class="edge"><title>node166&#45;&gt;node52</title>
<path fill="none" stroke="black" d="M1161.51,-735.142C1048.12,-728.267 779.603,-709.471 747.727,-684 706.811,-651.306 695.209,-587.205 691.956,-550.191"/>
<polygon fill="black" stroke="black" points="695.436,-549.796 691.216,-540.078 688.455,-550.307 695.436,-549.796"/>
</g>
<!-- node147 -->
<g id="node15" class="node"><title>node147</title>
<polygon fill="none" stroke="black" points="827.727,-324 773.727,-324 773.727,-288 827.727,-288 827.727,-324"/>
<text text-anchor="middle" x="800.727" y="-302.7" font-family="Times Roman,serif" font-size="12.00">nbcd</text>
</g>
<!-- node166&#45;&gt;node147 -->
<g id="edge16" class="edge"><title>node166&#45;&gt;node147</title>
<path fill="none" stroke="black" d="M1161.66,-735.175C1081.99,-729.783 931.018,-715.618 888.727,-684 777.854,-601.107 788.264,-407.8 796.697,-334.696"/>
<polygon fill="black" stroke="black" points="800.214,-334.772 797.963,-324.419 793.267,-333.916 800.214,-334.772"/>
</g>
<!-- node146 -->
<g id="node18" class="node"><title>node146</title>
<polygon fill="none" stroke="black" points="1169.73,-396 1115.73,-396 1115.73,-360 1169.73,-360 1169.73,-396"/>
<text text-anchor="middle" x="1142.73" y="-374.7" font-family="Times Roman,serif" font-size="12.00">eclrtl</text>
</g>
<!-- node166&#45;&gt;node146 -->
<g id="edge20" class="edge"><title>node166&#45;&gt;node146</title>
<path fill="none" stroke="black" d="M1191.57,-719.892C1168.11,-697.325 1130.68,-656.296 1115.73,-612 1091.58,-540.466 1116.3,-450.409 1131.97,-405.748"/>
<polygon fill="black" stroke="black" points="1135.32,-406.763 1135.44,-396.168 1128.74,-404.38 1135.32,-406.763"/>
</g>
<!-- node53 -->
<g id="node30" class="node"><title>node53</title>
<polygon fill="none" stroke="black" points="979.727,-468 919.727,-468 919.727,-432 979.727,-432 979.727,-468"/>
<text text-anchor="middle" x="949.727" y="-446.7" font-family="Times Roman,serif" font-size="12.00">deftype</text>
</g>
<!-- node166&#45;&gt;node53 -->
<g id="edge34" class="edge"><title>node166&#45;&gt;node53</title>
<path fill="none" stroke="black" d="M1161.55,-734.621C1094.62,-728.96 981.52,-714.981 955.727,-684 906.673,-625.08 926.661,-525.919 940.571,-477.827"/>
<polygon fill="black" stroke="black" points="943.967,-478.686 943.505,-468.102 937.266,-476.664 943.967,-478.686"/>
</g>
<!-- node63 -->
<g id="node35" class="node"><title>node63</title>
<polygon fill="none" stroke="black" points="903.727,-540 827.727,-540 827.727,-504 903.727,-504 903.727,-540"/>
<text text-anchor="middle" x="865.727" y="-518.7" font-family="Times Roman,serif" font-size="12.00">thorhelper</text>
</g>
<!-- node166&#45;&gt;node63 -->
<g id="edge42" class="edge"><title>node166&#45;&gt;node63</title>
<path fill="none" stroke="black" d="M1161.43,-734.909C1087.2,-729.354 953.251,-715.215 917.727,-684 879.017,-649.986 868.918,-587.1 866.411,-550.487"/>
<polygon fill="black" stroke="black" points="869.881,-549.829 865.854,-540.03 862.891,-550.202 869.881,-549.829"/>
</g>
<!-- node59 -->
<g id="node48" class="node"><title>node59</title>
<polygon fill="none" stroke="black" points="2261.73,-252 2203.73,-252 2203.73,-216 2261.73,-216 2261.73,-252"/>
<text text-anchor="middle" x="2232.73" y="-230.7" font-family="Times Roman,serif" font-size="12.00">remote</text>
</g>
<!-- node166&#45;&gt;node59 -->
<g id="edge60" class="edge"><title>node166&#45;&gt;node59</title>
<path fill="none" stroke="black" d="M1261.96,-737.827C1451.03,-736.827 2113.2,-730.04 2194.73,-684 2249.7,-652.954 2330.96,-510.359 2359.73,-396 2371.75,-348.219 2366.81,-325.394 2334.73,-288 2318.1,-268.614 2292.74,-255.145 2271.46,-246.507"/>
<polygon fill="black" stroke="black" points="2272.61,-243.199 2262.02,-242.874 2270.1,-249.732 2272.61,-243.199"/>
</g>
<!-- node66 -->
<g id="node54" class="node"><title>node66</title>
<polygon fill="none" stroke="black" points="1872.73,-324 1810.73,-324 1810.73,-288 1872.73,-288 1872.73,-324"/>
<text text-anchor="middle" x="1841.73" y="-302.7" font-family="Times Roman,serif" font-size="12.00">dalibase</text>
</g>
<!-- node166&#45;&gt;node66 -->
<g id="edge68" class="edge"><title>node166&#45;&gt;node66</title>
<path fill="none" stroke="black" d="M1261.84,-735.549C1454.63,-725.467 2137.73,-683.432 2137.73,-594 2137.73,-594 2137.73,-594 2137.73,-450 2137.73,-402.653 2119.42,-387.287 2080.73,-360 2049.24,-337.798 1942.67,-319.981 1883.02,-311.458"/>
<polygon fill="black" stroke="black" points="1883.2,-307.949 1872.81,-310.025 1882.23,-314.881 1883.2,-307.949"/>
</g>
<!-- node55 -->
<g id="node63" class="node"><title>node55</title>
<polygon fill="none" stroke="black" points="2331.73,-396 2241.73,-396 2241.73,-360 2331.73,-360 2331.73,-396"/>
<text text-anchor="middle" x="2286.73" y="-374.7" font-family="Times Roman,serif" font-size="12.00">environment</text>
</g>
<!-- node166&#45;&gt;node55 -->
<g id="edge82" class="edge"><title>node166&#45;&gt;node55</title>
<path fill="none" stroke="black" d="M1261.79,-737.375C1444.87,-734.782 2071.57,-723.107 2151.73,-684 2199.56,-660.663 2230.73,-647.224 2230.73,-594 2230.73,-594 2230.73,-594 2230.73,-522 2230.73,-478.862 2252.83,-433.094 2269.26,-405.025"/>
<polygon fill="black" stroke="black" points="2272.41,-406.585 2274.58,-396.214 2266.41,-402.969 2272.41,-406.585"/>
</g>
<!-- node54 -->
<g id="node69" class="node"><title>node54</title>
<polygon fill="none" stroke="black" points="1483.73,-468 1417.73,-468 1417.73,-432 1483.73,-432 1483.73,-468"/>
<text text-anchor="middle" x="1450.73" y="-446.7" font-family="Times Roman,serif" font-size="12.00">dllserver</text>
</g>
<!-- node166&#45;&gt;node54 -->
<g id="edge92" class="edge"><title>node166&#45;&gt;node54</title>
<path fill="none" stroke="black" d="M1261.82,-721.568C1285.89,-712.447 1314.47,-699.744 1337.73,-684 1412.68,-633.258 1447.09,-623.62 1481.73,-540 1490.34,-519.197 1481.01,-495.044 1470.39,-477"/>
<polygon fill="black" stroke="black" points="1473.11,-474.752 1464.8,-468.171 1467.19,-478.493 1473.11,-474.752"/>
</g>
<!-- node64 -->
<g id="node84" class="node"><title>node64</title>
<polygon fill="none" stroke="black" points="1331.73,-540 1263.73,-540 1263.73,-504 1331.73,-504 1331.73,-540"/>
<text text-anchor="middle" x="1297.73" y="-518.7" font-family="Times Roman,serif" font-size="12.00">workunit</text>
</g>
<!-- node166&#45;&gt;node64 -->
<g id="edge114" class="edge"><title>node166&#45;&gt;node64</title>
<path fill="none" stroke="black" d="M1261.93,-725.447C1283.32,-717.346 1306.18,-704.379 1318.73,-684 1344.3,-642.453 1326.02,-583.595 1311.28,-549.45"/>
<polygon fill="black" stroke="black" points="1314.36,-547.777 1307.06,-540.101 1307.98,-550.656 1314.36,-547.777"/>
</g>
<!-- node171 -->
<g id="node92" class="node"><title>node171</title>
<polygon fill="none" stroke="black" points="1309.73,-684 1201.73,-684 1201.73,-648 1309.73,-648 1309.73,-684"/>
<text text-anchor="middle" x="1255.73" y="-662.7" font-family="Times Roman,serif" font-size="12.00">thorcodectx_lcr</text>
</g>
<!-- node166&#45;&gt;node171 -->
<g id="edge128" class="edge"><title>node166&#45;&gt;node171</title>
<path fill="none" stroke="black" d="M1222.83,-719.831C1227.79,-711.708 1233.75,-701.964 1239.22,-693.012"/>
<polygon fill="black" stroke="black" points="1242.25,-694.771 1244.47,-684.413 1236.27,-691.121 1242.25,-694.771"/>
</g>
<!-- node164 -->
<g id="node94" class="node"><title>node164</title>
<polygon fill="none" stroke="black" points="1194.73,-612 1124.73,-612 1124.73,-576 1194.73,-576 1194.73,-612"/>
<text text-anchor="middle" x="1159.73" y="-590.7" font-family="Times Roman,serif" font-size="12.00">graph_lcr</text>
</g>
<!-- node166&#45;&gt;node164 -->
<g id="edge180" class="edge"><title>node166&#45;&gt;node164</title>
<path fill="none" stroke="black" d="M1205.14,-719.762C1196.19,-694.985 1180.12,-650.471 1169.69,-621.594"/>
<polygon fill="black" stroke="black" points="1172.95,-620.306 1166.26,-612.09 1166.36,-622.684 1172.95,-620.306"/>
</g>
<!-- node150 -->
<g id="node97" class="node"><title>node150</title>
<polygon fill="none" stroke="black" points="2453.73,-540 2399.73,-540 2399.73,-504 2453.73,-504 2453.73,-540"/>
<text text-anchor="middle" x="2426.73" y="-518.7" font-family="Times Roman,serif" font-size="12.00">jhtree</text>
</g>
<!-- node166&#45;&gt;node150 -->
<g id="edge178" class="edge"><title>node166&#45;&gt;node150</title>
<path fill="none" stroke="black" d="M1261.92,-737.347C1480.64,-734.294 2341.59,-720.019 2385.73,-684 2425.21,-651.78 2429.81,-587.502 2428.81,-550.331"/>
<polygon fill="black" stroke="black" points="2432.3,-550.015 2428.38,-540.172 2425.31,-550.312 2432.3,-550.015"/>
</g>
<!-- node152 -->
<g id="node4" class="node"><title>node152</title>
<polygon fill="none" stroke="black" points="1577.73,-36 1537.78,-18 1577.73,-3.55271e-15 1617.67,-18 1577.73,-36"/>
<text text-anchor="middle" x="1577.73" y="-14.7" font-family="Times Roman,serif" font-size="12.00">lzma</text>
</g>
<!-- node151&#45;&gt;node152 -->
<g id="edge4" class="edge"><title>node151&#45;&gt;node152</title>
<path fill="none" stroke="black" d="M1672.65,-74.0209C1652.2,-61.9494 1624.28,-45.4743 1604.02,-33.5172"/>
<polygon fill="black" stroke="black" points="1605.7,-30.4417 1595.3,-28.3733 1602.14,-36.4701 1605.7,-30.4417"/>
</g>
<!-- node187 -->
<g id="node6" class="node"><title>node187</title>
<ellipse fill="none" stroke="black" cx="1662.73" cy="-18" rx="27" ry="18"/>
<text text-anchor="middle" x="1662.73" y="-14.7" font-family="Times Roman,serif" font-size="12.00">dl</text>
</g>
<!-- node151&#45;&gt;node187 -->
<g id="edge6" class="edge"><title>node151&#45;&gt;node187</title>
<path fill="none" stroke="black" d="M1690.39,-71.8314C1686.13,-63.5451 1681.01,-53.5727 1676.33,-44.4748"/>
<polygon fill="black" stroke="black" points="1679.36,-42.7123 1671.68,-35.4177 1673.14,-45.9118 1679.36,-42.7123"/>
</g>
<!-- node179 -->
<g id="node8" class="node"><title>node179</title>
<ellipse fill="none" stroke="black" cx="1737.73" cy="-18" rx="30.0465" ry="18"/>
<text text-anchor="middle" x="1737.73" y="-14.7" font-family="Times Roman,serif" font-size="12.00">crypt</text>
</g>
<!-- node151&#45;&gt;node179 -->
<g id="edge8" class="edge"><title>node151&#45;&gt;node179</title>
<path fill="none" stroke="black" d="M1709.32,-71.8314C1713.69,-63.5451 1718.95,-53.5727 1723.75,-44.4748"/>
<polygon fill="black" stroke="black" points="1726.96,-45.8952 1728.53,-35.4177 1720.77,-42.6279 1726.96,-45.8952"/>
</g>
<!-- node188 -->
<g id="node10" class="node"><title>node188</title>
<ellipse fill="none" stroke="black" cx="1812.73" cy="-18" rx="27" ry="18"/>
<text text-anchor="middle" x="1812.73" y="-14.7" font-family="Times Roman,serif" font-size="12.00">rt</text>
</g>
<!-- node151&#45;&gt;node188 -->
<g id="edge10" class="edge"><title>node151&#45;&gt;node188</title>
<path fill="none" stroke="black" d="M1726.79,-72.7542C1744.14,-61.7009 1766.62,-47.375 1784.24,-36.1494"/>
<polygon fill="black" stroke="black" points="1786.41,-38.9209 1792.96,-30.5955 1782.64,-33.0174 1786.41,-38.9209"/>
</g>
<!-- node52&#45;&gt;node151 -->
<g id="edge14" class="edge"><title>node52&#45;&gt;node151</title>
<path fill="none" stroke="black" d="M647.316,-521.066C513.516,-517.802 113.807,-505.013 69.727,-468 38.0233,-441.379 45.727,-419.398 45.727,-378 45.727,-378 45.727,-378 45.727,-234 45.727,-192.602 37.3211,-169.761 69.727,-144 101.958,-118.378 1422.09,-94.7231 1662.4,-90.6251"/>
<polygon fill="black" stroke="black" points="1662.76,-94.1195 1672.7,-90.4501 1662.65,-87.1205 1662.76,-94.1195"/>
</g>
<!-- node147&#45;&gt;node151 -->
<g id="edge18" class="edge"><title>node147&#45;&gt;node151</title>
<path fill="none" stroke="black" d="M799.127,-287.894C797.22,-253.68 798.646,-179.766 841.727,-144 873.72,-117.439 1500.35,-96.1962 1661.96,-91.144"/>
<polygon fill="black" stroke="black" points="1662.47,-94.6302 1672.35,-90.8215 1662.25,-87.6335 1662.47,-94.6302"/>
</g>
<!-- node146&#45;&gt;node151 -->
<g id="edge30" class="edge"><title>node146&#45;&gt;node151</title>
<path fill="none" stroke="black" d="M1115.61,-365.776C1110.1,-363.616 1104.29,-361.562 1098.73,-360 998.051,-331.721 809.984,-370.12 874.727,-288 975.261,-160.483 1514.58,-105.746 1662.3,-93.0126"/>
<polygon fill="black" stroke="black" points="1662.97,-96.4682 1672.64,-92.135 1662.38,-89.4932 1662.97,-96.4682"/>
</g>
<!-- node146&#45;&gt;node147 -->
<g id="edge32" class="edge"><title>node146&#45;&gt;node147</title>
<path fill="none" stroke="black" d="M1115.32,-364.735C1110.85,-362.933 1106.22,-361.269 1101.73,-360 989.473,-328.25 953.981,-355.75 841.727,-324 840.465,-323.643 839.191,-323.255 837.912,-322.841"/>
<polygon fill="black" stroke="black" points="838.727,-319.413 828.133,-319.265 836.323,-325.987 838.727,-319.413"/>
</g>
<!-- node186 -->
<g id="node20" class="node"><title>node186</title>
<ellipse fill="none" stroke="black" cx="1552.73" cy="-306" rx="118.939" ry="18"/>
<text text-anchor="middle" x="1552.73" y="-302.7" font-family="Times Roman,serif" font-size="12.00">/usr/lib/libboost_regex&#45;mt.so</text>
</g>
<!-- node146&#45;&gt;node186 -->
<g id="edge22" class="edge"><title>node146&#45;&gt;node186</title>
<path fill="none" stroke="black" d="M1170.14,-364.766C1174.61,-362.959 1179.24,-361.287 1183.73,-360 1190.29,-358.116 1348.64,-335.237 1455.75,-319.871"/>
<polygon fill="black" stroke="black" points="1456.54,-323.292 1465.95,-318.408 1455.55,-316.363 1456.54,-323.292"/>
</g>
<!-- node183 -->
<g id="node22" class="node"><title>node183</title>
<ellipse fill="none" stroke="black" cx="961.727" cy="-306" rx="77.9931" ry="18"/>
<text text-anchor="middle" x="961.727" y="-302.7" font-family="Times Roman,serif" font-size="12.00">/usr/lib/libicuuc.so</text>
</g>
<!-- node146&#45;&gt;node183 -->
<g id="edge24" class="edge"><title>node146&#45;&gt;node183</title>
<path fill="none" stroke="black" d="M1115.45,-365.82C1110.89,-363.839 1106.18,-361.836 1101.73,-360 1072.34,-347.889 1039.16,-335.055 1012.48,-324.939"/>
<polygon fill="black" stroke="black" points="1013.56,-321.604 1002.97,-321.342 1011.08,-328.152 1013.56,-321.604"/>
</g>
<!-- node184 -->
<g id="node24" class="node"><title>node184</title>
<ellipse fill="none" stroke="black" cx="1142.73" cy="-306" rx="85.1424" ry="18"/>
<text text-anchor="middle" x="1142.73" y="-302.7" font-family="Times Roman,serif" font-size="12.00">/usr/lib/libicui18n.so</text>
</g>
<!-- node146&#45;&gt;node184 -->
<g id="edge26" class="edge"><title>node146&#45;&gt;node184</title>
<path fill="none" stroke="black" d="M1142.73,-359.831C1142.73,-352.131 1142.73,-342.974 1142.73,-334.417"/>
<polygon fill="black" stroke="black" points="1146.23,-334.413 1142.73,-324.413 1139.23,-334.413 1146.23,-334.413"/>
</g>
<!-- node185 -->
<g id="node26" class="node"><title>node185</title>
<ellipse fill="none" stroke="black" cx="1330.73" cy="-306" rx="85.1424" ry="18"/>
<text text-anchor="middle" x="1330.73" y="-302.7" font-family="Times Roman,serif" font-size="12.00">/usr/lib/libicudata.so</text>
</g>
<!-- node146&#45;&gt;node185 -->
<g id="edge28" class="edge"><title>node146&#45;&gt;node185</title>
<path fill="none" stroke="black" d="M1169.97,-365.758C1174.55,-363.785 1179.26,-361.801 1183.73,-360 1214.3,-347.689 1248.87,-334.93 1276.81,-324.908"/>
<polygon fill="black" stroke="black" points="1278.15,-328.143 1286.39,-321.482 1275.8,-321.551 1278.15,-328.143"/>
</g>
<!-- node53&#45;&gt;node151 -->
<g id="edge36" class="edge"><title>node53&#45;&gt;node151</title>
<path fill="none" stroke="black" d="M919.501,-439.766C876.038,-423.213 797.517,-386.006 764.727,-324 735.259,-268.276 755.367,-187.563 811.727,-144 845.881,-117.601 1497.77,-96.123 1662.28,-91.108"/>
<polygon fill="black" stroke="black" points="1662.51,-94.6027 1672.4,-90.8016 1662.29,-87.6059 1662.51,-94.6027"/>
</g>
<!-- node53&#45;&gt;node147 -->
<g id="edge38" class="edge"><title>node53&#45;&gt;node147</title>
<path fill="none" stroke="black" d="M943.201,-431.843C935.382,-412.157 920.662,-380.773 899.727,-360 889.973,-350.322 861.152,-335.022 837.105,-323.175"/>
<polygon fill="black" stroke="black" points="838.36,-319.894 827.837,-318.661 835.295,-326.187 838.36,-319.894"/>
</g>
<!-- node53&#45;&gt;node146 -->
<g id="edge40" class="edge"><title>node53&#45;&gt;node146</title>
<path fill="none" stroke="black" d="M979.883,-438.75C1013.9,-426.061 1069.23,-405.42 1105.8,-391.776"/>
<polygon fill="black" stroke="black" points="1107.44,-394.9 1115.59,-388.125 1104.99,-388.341 1107.44,-394.9"/>
</g>
<!-- node63&#45;&gt;node151 -->
<g id="edge44" class="edge"><title>node63&#45;&gt;node151</title>
<path fill="none" stroke="black" d="M827.685,-507.677C823.03,-506.268 818.301,-504.995 813.727,-504 660.99,-470.79 121.727,-534.306 121.727,-378 121.727,-378 121.727,-378 121.727,-234 121.727,-170.537 -267.078,-254.824 379.727,-144 636.275,-100.043 1475.51,-91.5834 1662.55,-90.23"/>
<polygon fill="black" stroke="black" points="1662.72,-93.7289 1672.7,-90.159 1662.67,-86.7291 1662.72,-93.7289"/>
</g>
<!-- node63&#45;&gt;node147 -->
<g id="edge46" class="edge"><title>node63&#45;&gt;node147</title>
<path fill="none" stroke="black" d="M861.93,-503.762C855.424,-473.496 841.145,-411.158 823.727,-360 820.753,-351.264 817.004,-341.951 813.402,-333.563"/>
<polygon fill="black" stroke="black" points="816.526,-331.973 809.295,-324.23 810.119,-334.793 816.526,-331.973"/>
</g>
<!-- node63&#45;&gt;node146 -->
<g id="edge48" class="edge"><title>node63&#45;&gt;node146</title>
<path fill="none" stroke="black" d="M869.855,-503.851C875.506,-483.256 887.685,-450.177 910.727,-432 940.681,-408.37 1047.98,-390.75 1105.57,-382.753"/>
<polygon fill="black" stroke="black" points="1106.28,-386.189 1115.71,-381.372 1105.33,-379.253 1106.28,-386.189"/>
</g>
<!-- node63&#45;&gt;node53 -->
<g id="edge50" class="edge"><title>node63&#45;&gt;node53</title>
<path fill="none" stroke="black" d="M886.924,-503.831C897.17,-495.048 909.627,-484.371 920.737,-474.849"/>
<polygon fill="black" stroke="black" points="923.222,-477.328 928.537,-468.163 918.667,-472.013 923.222,-477.328"/>
</g>
<!-- node156 -->
<g id="node41" class="node"><title>node156</title>
<polygon fill="none" stroke="black" points="538.727,-468 444.727,-468 444.727,-432 538.727,-432 538.727,-468"/>
<text text-anchor="middle" x="491.727" y="-446.7" font-family="Times Roman,serif" font-size="12.00">securesocket</text>
</g>
<!-- node63&#45;&gt;node156 -->
<g id="edge52" class="edge"><title>node63&#45;&gt;node156</title>
<path fill="none" stroke="black" d="M827.61,-507.995C822.968,-506.53 818.263,-505.157 813.727,-504 722.358,-480.699 613.769,-464.879 548.92,-456.656"/>
<polygon fill="black" stroke="black" points="549.255,-453.171 538.897,-455.402 548.385,-460.117 549.255,-453.171"/>
</g>
<!-- node156&#45;&gt;node151 -->
<g id="edge54" class="edge"><title>node156&#45;&gt;node151</title>
<path fill="none" stroke="black" d="M444.486,-448.175C366.557,-444.163 215.956,-431.869 178.727,-396 149.286,-367.635 159.727,-346.882 159.727,-306 159.727,-306 159.727,-306 159.727,-234 159.727,-156.025 1427.84,-100.989 1662.59,-91.4686"/>
<polygon fill="black" stroke="black" points="1662.82,-94.9622 1672.67,-91.062 1662.54,-87.9678 1662.82,-94.9622"/>
</g>
<!-- node191 -->
<g id="node44" class="node"><title>node191</title>
<ellipse fill="none" stroke="black" cx="644.727" cy="-378" rx="137.138" ry="18"/>
<text text-anchor="middle" x="644.727" y="-374.7" font-family="Times Roman,serif" font-size="12.00">/usr/lib/x86_64&#45;linux&#45;gnu/libssl.so</text>
</g>
<!-- node156&#45;&gt;node191 -->
<g id="edge56" class="edge"><title>node156&#45;&gt;node191</title>
<path fill="none" stroke="black" d="M530.335,-431.831C551.095,-422.062 576.834,-409.95 598.637,-399.689"/>
<polygon fill="black" stroke="black" points="600.156,-402.843 607.714,-395.418 597.176,-396.509 600.156,-402.843"/>
</g>
<!-- node192 -->
<g id="node46" class="node"><title>node192</title>
<ellipse fill="none" stroke="black" cx="338.727" cy="-378" rx="150.937" ry="18"/>
<text text-anchor="middle" x="338.727" y="-374.7" font-family="Times Roman,serif" font-size="12.00">/usr/lib/x86_64&#45;linux&#45;gnu/libcrypto.so</text>
</g>
<!-- node156&#45;&gt;node192 -->
<g id="edge58" class="edge"><title>node156&#45;&gt;node192</title>
<path fill="none" stroke="black" d="M453.119,-431.831C432.437,-422.099 406.812,-410.04 385.061,-399.804"/>
<polygon fill="black" stroke="black" points="386.541,-396.632 376.002,-395.541 383.56,-402.966 386.541,-396.632"/>
</g>
<!-- node59&#45;&gt;node151 -->
<g id="edge62" class="edge"><title>node59&#45;&gt;node151</title>
<path fill="none" stroke="black" d="M2207.52,-215.895C2177.11,-195.019 2123.72,-161.356 2072.73,-144 1954.55,-103.773 1805.34,-93.513 1737,-90.896"/>
<polygon fill="black" stroke="black" points="1736.86,-87.3891 1726.74,-90.5382 1736.61,-94.3848 1736.86,-87.3891"/>
</g>
<!-- node153 -->
<g id="node51" class="node"><title>node153</title>
<polygon fill="none" stroke="black" points="2063.73,-180 2009.73,-180 2009.73,-144 2063.73,-144 2063.73,-180"/>
<text text-anchor="middle" x="2036.73" y="-158.7" font-family="Times Roman,serif" font-size="12.00">mp</text>
</g>
<!-- node59&#45;&gt;node153 -->
<g id="edge64" class="edge"><title>node59&#45;&gt;node153</title>
<path fill="none" stroke="black" d="M2203.67,-221.574C2199.03,-219.663 2194.26,-217.746 2189.73,-216 2150.36,-200.826 2104.68,-184.922 2073.55,-174.337"/>
<polygon fill="black" stroke="black" points="2074.58,-170.989 2063.98,-171.095 2072.33,-177.619 2074.58,-170.989"/>
</g>
<!-- node153&#45;&gt;node151 -->
<g id="edge66" class="edge"><title>node153&#45;&gt;node151</title>
<path fill="none" stroke="black" d="M2009.72,-156.23C1949.7,-143.407 1805.15,-112.525 1736.77,-97.9145"/>
<polygon fill="black" stroke="black" points="1737.37,-94.4645 1726.86,-95.7978 1735.91,-101.31 1737.37,-94.4645"/>
</g>
<!-- node66&#45;&gt;node151 -->
<g id="edge70" class="edge"><title>node66&#45;&gt;node151</title>
<path fill="none" stroke="black" d="M1841.71,-287.715C1841.1,-269.02 1838.47,-239.475 1828.73,-216 1810.13,-171.203 1766.79,-134.478 1735.47,-112.463"/>
<polygon fill="black" stroke="black" points="1737.22,-109.414 1726.99,-106.649 1733.26,-115.189 1737.22,-109.414"/>
</g>
<!-- node66&#45;&gt;node59 -->
<g id="edge80" class="edge"><title>node66&#45;&gt;node59</title>
<path fill="none" stroke="black" d="M1872.73,-300.29C1943.35,-287.287 2116.01,-255.492 2193.71,-241.184"/>
<polygon fill="black" stroke="black" points="2194.39,-244.619 2203.59,-239.366 2193.12,-237.735 2194.39,-244.619"/>
</g>
<!-- node66&#45;&gt;node153 -->
<g id="edge72" class="edge"><title>node66&#45;&gt;node153</title>
<path fill="none" stroke="black" d="M1866.42,-287.762C1901.3,-262.011 1965.03,-214.942 2003.87,-186.264"/>
<polygon fill="black" stroke="black" points="2006.27,-188.846 2012.23,-180.09 2002.11,-183.215 2006.27,-188.846"/>
</g>
<!-- node149 -->
<g id="node58" class="node"><title>node149</title>
<polygon fill="none" stroke="black" points="1819.73,-252 1765.73,-252 1765.73,-216 1819.73,-216 1819.73,-252"/>
<text text-anchor="middle" x="1792.73" y="-230.7" font-family="Times Roman,serif" font-size="12.00">hrpc</text>
</g>
<!-- node66&#45;&gt;node149 -->
<g id="edge74" class="edge"><title>node66&#45;&gt;node149</title>
<path fill="none" stroke="black" d="M1829.36,-287.831C1823.78,-279.623 1817.06,-269.761 1810.92,-260.732"/>
<polygon fill="black" stroke="black" points="1813.78,-258.711 1805.26,-252.413 1807.99,-262.65 1813.78,-258.711"/>
</g>
<!-- node149&#45;&gt;node151 -->
<g id="edge76" class="edge"><title>node149&#45;&gt;node151</title>
<path fill="none" stroke="black" d="M1786.53,-215.813C1779.63,-196.934 1767.36,-167.004 1751.73,-144 1744.82,-133.843 1735.94,-123.838 1727.48,-115.251"/>
<polygon fill="black" stroke="black" points="1729.8,-112.621 1720.22,-108.103 1724.89,-117.611 1729.8,-112.621"/>
</g>
<!-- node149&#45;&gt;node153 -->
<g id="edge78" class="edge"><title>node149&#45;&gt;node153</title>
<path fill="none" stroke="black" d="M1819.77,-226.02C1863.65,-213.072 1950.42,-187.469 1999.89,-172.869"/>
<polygon fill="black" stroke="black" points="2000.96,-176.203 2009.56,-170.016 1998.98,-169.489 2000.96,-176.203"/>
</g>
<!-- node55&#45;&gt;node151 -->
<g id="edge84" class="edge"><title>node55&#45;&gt;node151</title>
<path fill="none" stroke="black" d="M2290.22,-359.799C2295.33,-327.644 2301.21,-260.033 2270.73,-216 2229.54,-156.514 2194.01,-164.846 2124.73,-144 2052.28,-122.201 1826.57,-100.945 1736.95,-93.1369"/>
<polygon fill="black" stroke="black" points="1737.22,-89.6479 1726.96,-92.2735 1736.62,-96.6219 1737.22,-89.6479"/>
</g>
<!-- node55&#45;&gt;node59 -->
<g id="edge88" class="edge"><title>node55&#45;&gt;node59</title>
<path fill="none" stroke="black" d="M2279.89,-359.762C2270.6,-334.985 2253.9,-290.471 2243.07,-261.594"/>
<polygon fill="black" stroke="black" points="2246.3,-260.224 2239.51,-252.09 2239.74,-262.682 2246.3,-260.224"/>
</g>
<!-- node55&#45;&gt;node153 -->
<g id="edge86" class="edge"><title>node55&#45;&gt;node153</title>
<path fill="none" stroke="black" d="M2269.06,-359.858C2238.58,-328.932 2173.62,-264.637 2113.73,-216 2100.63,-205.361 2085.55,-194.51 2072.23,-185.353"/>
<polygon fill="black" stroke="black" points="2074.01,-182.329 2063.77,-179.599 2070.08,-188.117 2074.01,-182.329"/>
</g>
<!-- node55&#45;&gt;node66 -->
<g id="edge90" class="edge"><title>node55&#45;&gt;node66</title>
<path fill="none" stroke="black" d="M2241.61,-370.7C2154.94,-356.678 1966.39,-326.17 1882.91,-312.664"/>
<polygon fill="black" stroke="black" points="1883.22,-309.169 1872.79,-311.026 1882.11,-316.079 1883.22,-309.169"/>
</g>
<!-- node54&#45;&gt;node151 -->
<g id="edge96" class="edge"><title>node54&#45;&gt;node151</title>
<path fill="none" stroke="black" d="M1433.96,-431.787C1417.86,-412.052 1398.45,-380.627 1416.73,-360 1504.91,-260.483 1625.54,-423.517 1713.73,-324 1764.86,-266.294 1732.65,-165.847 1712.44,-117.521"/>
<polygon fill="black" stroke="black" points="1715.64,-116.103 1708.47,-108.306 1709.21,-118.875 1715.64,-116.103"/>
</g>
<!-- node54&#45;&gt;node146 -->
<g id="edge102" class="edge"><title>node54&#45;&gt;node146</title>
<path fill="none" stroke="black" d="M1417.47,-442.226C1359.54,-428.683 1240.5,-400.857 1179.92,-386.694"/>
<polygon fill="black" stroke="black" points="1180.55,-383.247 1170.01,-384.379 1178.96,-390.063 1180.55,-383.247"/>
</g>
<!-- node54&#45;&gt;node59 -->
<g id="edge104" class="edge"><title>node54&#45;&gt;node59</title>
<path fill="none" stroke="black" d="M1483.98,-435.834C1488.53,-434.317 1493.2,-432.975 1497.73,-432 1631.78,-403.139 1993.25,-461.476 2113.73,-396 2128.14,-388.166 2185.59,-304.432 2215.07,-260.529"/>
<polygon fill="black" stroke="black" points="2218.09,-262.317 2220.74,-252.06 2212.27,-258.421 2218.09,-262.317"/>
</g>
<!-- node54&#45;&gt;node153 -->
<g id="edge98" class="edge"><title>node54&#45;&gt;node153</title>
<path fill="none" stroke="black" d="M1483.98,-435.848C1488.54,-434.329 1493.2,-432.982 1497.73,-432 1561.15,-418.235 2036.27,-443.285 2080.73,-396 2134.73,-338.564 2083.85,-236.842 2054.39,-188.691"/>
<polygon fill="black" stroke="black" points="2057.27,-186.692 2048.99,-180.075 2051.34,-190.408 2057.27,-186.692"/>
</g>
<!-- node54&#45;&gt;node66 -->
<g id="edge106" class="edge"><title>node54&#45;&gt;node66</title>
<path fill="none" stroke="black" d="M1442.71,-431.974C1435.11,-411.808 1427.22,-379.428 1444.73,-360 1496.33,-302.736 1714.48,-340.717 1789.73,-324 1793.39,-323.186 1797.16,-322.197 1800.91,-321.106"/>
<polygon fill="black" stroke="black" points="1802.22,-324.364 1810.71,-318.033 1800.13,-317.684 1802.22,-324.364"/>
</g>
<!-- node54&#45;&gt;node149 -->
<g id="edge100" class="edge"><title>node54&#45;&gt;node149</title>
<path fill="none" stroke="black" d="M1438.18,-431.811C1426.07,-411.801 1411.97,-379.852 1429.73,-360 1477.73,-306.333 1693.44,-366.264 1751.73,-324 1771.82,-309.429 1782.3,-282.612 1787.61,-262.027"/>
<polygon fill="black" stroke="black" points="1791.03,-262.749 1789.88,-252.217 1784.21,-261.17 1791.03,-262.749"/>
</g>
<!-- node54&#45;&gt;node55 -->
<g id="edge108" class="edge"><title>node54&#45;&gt;node55</title>
<path fill="none" stroke="black" d="M1484.03,-441.709C1499.63,-438.144 1518.53,-434.28 1535.73,-432 1824.31,-393.733 1900.69,-430.628 2189.73,-396 2203.28,-394.376 2217.79,-392.02 2231.36,-389.543"/>
<polygon fill="black" stroke="black" points="2232.33,-392.922 2241.51,-387.636 2231.04,-386.042 2232.33,-392.922"/>
</g>
<!-- node176 -->
<g id="node71" class="node"><title>node176</title>
<ellipse fill="none" stroke="black" cx="1584.73" cy="-378" rx="130.789" ry="18"/>
<text text-anchor="middle" x="1584.73" y="-374.7" font-family="Times Roman,serif" font-size="12.00">/usr/lib/x86_64&#45;linux&#45;gnu/libz.so</text>
</g>
<!-- node54&#45;&gt;node176 -->
<g id="edge94" class="edge"><title>node54&#45;&gt;node176</title>
<path fill="none" stroke="black" d="M1483.85,-432.202C1501.7,-422.611 1523.9,-410.681 1542.93,-400.457"/>
<polygon fill="black" stroke="black" points="1544.83,-403.409 1551.98,-395.593 1541.52,-397.243 1544.83,-403.409"/>
</g>
<!-- node177 -->
<g id="node80" class="node"><title>node177</title>
<ellipse fill="none" stroke="black" cx="1804.73" cy="-378" rx="70.8437" ry="18"/>
<text text-anchor="middle" x="1804.73" y="-374.7" font-family="Times Roman,serif" font-size="12.00">/usr/lib/libbfd.so</text>
</g>
<!-- node54&#45;&gt;node177 -->
<g id="edge110" class="edge"><title>node54&#45;&gt;node177</title>
<path fill="none" stroke="black" d="M1483.82,-436.343C1488.44,-434.726 1493.17,-433.22 1497.73,-432 1596.4,-405.59 1624.4,-415.221 1724.73,-396 1730.46,-394.902 1736.41,-393.693 1742.36,-392.439"/>
<polygon fill="black" stroke="black" points="1743.29,-395.819 1752.33,-390.294 1741.81,-388.975 1743.29,-395.819"/>
</g>
<!-- node178 -->
<g id="node82" class="node"><title>node178</title>
<ellipse fill="none" stroke="black" cx="1982.73" cy="-378" rx="89.0421" ry="18"/>
<text text-anchor="middle" x="1982.73" y="-374.7" font-family="Times Roman,serif" font-size="12.00">/usr/lib/libiberty_pic.a</text>
</g>
<!-- node54&#45;&gt;node178 -->
<g id="edge112" class="edge"><title>node54&#45;&gt;node178</title>
<path fill="none" stroke="black" d="M1483.75,-436.068C1488.38,-434.493 1493.13,-433.072 1497.73,-432 1665.95,-392.744 1713.61,-419.626 1884.73,-396 1892.58,-394.915 1900.77,-393.641 1908.92,-392.281"/>
<polygon fill="black" stroke="black" points="1909.54,-395.725 1918.81,-390.586 1908.36,-388.825 1909.54,-395.725"/>
</g>
<!-- node64&#45;&gt;node151 -->
<g id="edge116" class="edge"><title>node64&#45;&gt;node151</title>
<path fill="none" stroke="black" d="M1300.46,-503.907C1303.97,-484.837 1311.41,-454.504 1325.73,-432 1351.23,-391.92 1361.63,-379.993 1404.73,-360 1460.84,-333.969 1638.07,-368.788 1680.73,-324 1733.89,-268.183 1718.87,-167.127 1707.4,-118.137"/>
<polygon fill="black" stroke="black" points="1710.75,-117.105 1704.96,-108.232 1703.95,-118.779 1710.75,-117.105"/>
</g>
<!-- node64&#45;&gt;node147 -->
<g id="edge122" class="edge"><title>node64&#45;&gt;node147</title>
<path fill="none" stroke="black" d="M1266.11,-503.855C1248.69,-493.647 1226.78,-480.48 1207.73,-468 1161.61,-437.795 1150.34,-429.72 1106.73,-396 1087.01,-380.754 1086.39,-370.365 1063.73,-360 972.825,-318.432 937.588,-352.317 841.727,-324 840.469,-323.628 839.199,-323.228 837.923,-322.803"/>
<polygon fill="black" stroke="black" points="838.753,-319.377 828.16,-319.174 836.313,-325.939 838.753,-319.377"/>
</g>
<!-- node64&#45;&gt;node146 -->
<g id="edge124" class="edge"><title>node64&#45;&gt;node146</title>
<path fill="none" stroke="black" d="M1281.64,-503.668C1264.88,-484.935 1237.51,-455.361 1211.73,-432 1200.48,-421.809 1187.52,-411.359 1175.88,-402.4"/>
<polygon fill="black" stroke="black" points="1177.77,-399.437 1167.69,-396.164 1173.53,-405.007 1177.77,-399.437"/>
</g>
<!-- node64&#45;&gt;node53 -->
<g id="edge126" class="edge"><title>node64&#45;&gt;node53</title>
<path fill="none" stroke="black" d="M1263.73,-514.965C1199.14,-501.603 1059.02,-472.613 989.919,-458.316"/>
<polygon fill="black" stroke="black" points="990.36,-454.833 979.858,-456.234 988.941,-461.688 990.36,-454.833"/>
</g>
<!-- node64&#45;&gt;node66 -->
<g id="edge118" class="edge"><title>node64&#45;&gt;node66</title>
<path fill="none" stroke="black" d="M1307.59,-503.644C1313.09,-493.26 1319.96,-479.991 1325.73,-468 1348.49,-420.663 1331.25,-390.905 1373.73,-360 1435.16,-315.298 1638.32,-333.292 1713.73,-324 1742.8,-320.418 1775.5,-315.81 1800.57,-312.153"/>
<polygon fill="black" stroke="black" points="1801.08,-315.615 1810.47,-310.701 1800.06,-308.689 1801.08,-315.615"/>
</g>
<!-- node64&#45;&gt;node54 -->
<g id="edge120" class="edge"><title>node64&#45;&gt;node54</title>
<path fill="none" stroke="black" d="M1332.06,-505.842C1354.62,-495.227 1384.29,-481.266 1408.32,-469.958"/>
<polygon fill="black" stroke="black" points="1410,-473.035 1417.56,-465.61 1407.02,-466.701 1410,-473.035"/>
</g>
<!-- node171&#45;&gt;node151 -->
<g id="edge158" class="edge"><title>node171&#45;&gt;node151</title>
<path fill="none" stroke="black" d="M1309.99,-665.417C1547.26,-662.163 2481.73,-641.746 2481.73,-522 2481.73,-522 2481.73,-522 2481.73,-234 2481.73,-219.742 2537.81,-210.588 2319.73,-144 2209.75,-110.421 1854.03,-95.3494 1737.25,-91.2231"/>
<polygon fill="black" stroke="black" points="1737.14,-87.7173 1727.03,-90.8684 1736.9,-94.7131 1737.14,-87.7173"/>
</g>
<!-- node171&#45;&gt;node147 -->
<g id="edge160" class="edge"><title>node171&#45;&gt;node147</title>
<path fill="none" stroke="black" d="M1201.41,-653.166C1173.76,-644.722 1140.79,-631.542 1115.73,-612 1005.32,-525.916 1039.65,-442.75 926.727,-360 899.576,-340.105 863.968,-325.71 837.533,-316.811"/>
<polygon fill="black" stroke="black" points="838.481,-313.439 827.888,-313.67 836.313,-320.095 838.481,-313.439"/>
</g>
<!-- node171&#45;&gt;node146 -->
<g id="edge162" class="edge"><title>node171&#45;&gt;node146</title>
<path fill="none" stroke="black" d="M1248.66,-647.984C1229.47,-599.092 1176.34,-463.679 1153.45,-405.33"/>
<polygon fill="black" stroke="black" points="1156.7,-404.04 1149.79,-396.009 1150.19,-406.596 1156.7,-404.04"/>
</g>
<!-- node171&#45;&gt;node53 -->
<g id="edge164" class="edge"><title>node171&#45;&gt;node53</title>
<path fill="none" stroke="black" d="M1201.66,-659.707C1162.23,-652.999 1109.06,-639.367 1069.73,-612 1019.09,-576.767 981.298,-513.26 962.666,-477.112"/>
<polygon fill="black" stroke="black" points="965.759,-475.472 958.134,-468.116 959.507,-478.621 965.759,-475.472"/>
</g>
<!-- node171&#45;&gt;node63 -->
<g id="edge166" class="edge"><title>node171&#45;&gt;node63</title>
<path fill="none" stroke="black" d="M1201.59,-657.043C1155.47,-648.454 1087.93,-633.585 1031.73,-612 985.151,-594.112 935.285,-565.685 902.502,-545.571"/>
<polygon fill="black" stroke="black" points="904.069,-542.425 893.725,-540.134 900.383,-548.375 904.069,-542.425"/>
</g>
<!-- node171&#45;&gt;node59 -->
<g id="edge168" class="edge"><title>node171&#45;&gt;node59</title>
<path fill="none" stroke="black" d="M1309.77,-661.227C1510.98,-642.226 2211.77,-564.663 2340.73,-396 2376.79,-348.825 2312.5,-290.107 2268.6,-257.904"/>
<polygon fill="black" stroke="black" points="2270.57,-255.006 2260.4,-252.018 2266.49,-260.693 2270.57,-255.006"/>
</g>
<!-- node171&#45;&gt;node66 -->
<g id="edge170" class="edge"><title>node171&#45;&gt;node66</title>
<path fill="none" stroke="black" d="M1269.2,-647.718C1286.68,-623.641 1317.66,-579.699 1340.73,-540 1385.56,-462.834 1357.03,-411.771 1429.73,-360 1481.55,-323.097 1650.67,-332.43 1713.73,-324 1742.86,-320.106 1775.68,-315.486 1800.79,-311.901"/>
<polygon fill="black" stroke="black" points="1801.3,-315.364 1810.71,-310.483 1800.31,-308.435 1801.3,-315.364"/>
</g>
<!-- node171&#45;&gt;node55 -->
<g id="edge172" class="edge"><title>node171&#45;&gt;node55</title>
<path fill="none" stroke="black" d="M1310.03,-653.064C1353.81,-642.482 1416.89,-626.886 1471.73,-612 1746.17,-537.5 1811.41,-506.955 2085.73,-432 2148.53,-414.839 2165.02,-413.504 2227.73,-396 2229.15,-395.604 2230.58,-395.199 2232.03,-394.786"/>
<polygon fill="black" stroke="black" points="2233.07,-398.13 2241.69,-391.981 2231.11,-391.407 2233.07,-398.13"/>
</g>
<!-- node171&#45;&gt;node54 -->
<g id="edge174" class="edge"><title>node171&#45;&gt;node54</title>
<path fill="none" stroke="black" d="M1309.94,-658.288C1361.21,-649.758 1432.74,-634.219 1449.73,-612 1479.22,-573.426 1469.39,-513.204 1459.86,-478.074"/>
<polygon fill="black" stroke="black" points="1463.09,-476.664 1456.96,-468.029 1456.37,-478.608 1463.09,-476.664"/>
</g>
<!-- node171&#45;&gt;node64 -->
<g id="edge176" class="edge"><title>node171&#45;&gt;node64</title>
<path fill="none" stroke="black" d="M1261.05,-647.762C1268.24,-623.093 1281.14,-578.86 1289.57,-549.973"/>
<polygon fill="black" stroke="black" points="1293.01,-550.67 1292.45,-540.09 1286.29,-548.71 1293.01,-550.67"/>
</g>
<!-- node171&#45;&gt;node164 -->
<g id="edge130" class="edge"><title>node171&#45;&gt;node164</title>
<path fill="none" stroke="black" d="M1231.5,-647.831C1219.56,-638.878 1205,-627.956 1192.12,-618.295"/>
<polygon fill="black" stroke="black" points="1194.04,-615.363 1183.94,-612.163 1189.84,-620.963 1194.04,-615.363"/>
</g>
<!-- node164&#45;&gt;node151 -->
<g id="edge132" class="edge"><title>node164&#45;&gt;node151</title>
<path fill="none" stroke="black" d="M1124.62,-591.75C1061.96,-587.012 927.248,-573.535 818.727,-540 783.018,-528.965 778.924,-513.313 742.727,-504 616.159,-471.437 271.729,-528.194 155.727,-468 110.259,-444.407 83.727,-429.225 83.727,-378 83.727,-378 83.727,-378 83.727,-234 83.727,-173.542 129.567,-166.387 185.727,-144 256.412,-115.824 1436.84,-94.4561 1662.58,-90.6172"/>
<polygon fill="black" stroke="black" points="1662.66,-94.1164 1672.6,-90.4476 1662.54,-87.1174 1662.66,-94.1164"/>
</g>
<!-- node164&#45;&gt;node52 -->
<g id="edge154" class="edge"><title>node164&#45;&gt;node52</title>
<path fill="none" stroke="black" d="M1124.58,-589.449C1058.22,-580.74 909.969,-560.729 785.727,-540 772.269,-537.755 757.78,-535.12 744.271,-532.571"/>
<polygon fill="black" stroke="black" points="744.644,-529.079 734.166,-530.645 743.334,-535.955 744.644,-529.079"/>
</g>
<!-- node164&#45;&gt;node147 -->
<g id="edge146" class="edge"><title>node164&#45;&gt;node147</title>
<path fill="none" stroke="black" d="M1154.67,-575.855C1141.22,-531.229 1100.16,-415.721 1021.73,-360 955.217,-312.751 919.533,-348.541 841.727,-324 840.291,-323.547 838.837,-323.059 837.376,-322.545"/>
<polygon fill="black" stroke="black" points="838.348,-319.169 827.758,-318.846 835.835,-325.702 838.348,-319.169"/>
</g>
<!-- node164&#45;&gt;node146 -->
<g id="edge148" class="edge"><title>node164&#45;&gt;node146</title>
<path fill="none" stroke="black" d="M1158.31,-575.955C1155.34,-538.314 1148.49,-451.187 1144.94,-406.125"/>
<polygon fill="black" stroke="black" points="1148.43,-405.84 1144.16,-396.145 1141.45,-406.389 1148.43,-405.84"/>
</g>
<!-- node164&#45;&gt;node53 -->
<g id="edge150" class="edge"><title>node164&#45;&gt;node53</title>
<path fill="none" stroke="black" d="M1133.13,-575.762C1095.42,-549.903 1026.36,-502.546 984.586,-473.903"/>
<polygon fill="black" stroke="black" points="986.334,-470.858 976.108,-468.09 982.376,-476.631 986.334,-470.858"/>
</g>
<!-- node164&#45;&gt;node63 -->
<g id="edge156" class="edge"><title>node164&#45;&gt;node63</title>
<path fill="none" stroke="black" d="M1124.56,-585.387C1072.11,-572.543 973.254,-548.333 914.057,-533.836"/>
<polygon fill="black" stroke="black" points="914.743,-530.401 904.198,-531.421 913.078,-537.2 914.743,-530.401"/>
</g>
<!-- node164&#45;&gt;node59 -->
<g id="edge138" class="edge"><title>node164&#45;&gt;node59</title>
<path fill="none" stroke="black" d="M1194.77,-591.042C1239.35,-586.025 1317.54,-572.948 1375.73,-540 1395.42,-528.851 1393.07,-516.81 1411.73,-504 1444.2,-481.697 1460.25,-490.303 1492.73,-468 1511.38,-455.19 1508.08,-441.267 1528.73,-432 1653.42,-376.021 2022.04,-460.145 2142.73,-396 2193.37,-369.086 2217.12,-301.117 2226.88,-262.309"/>
<polygon fill="black" stroke="black" points="2230.37,-262.732 2229.27,-252.195 2223.56,-261.121 2230.37,-262.732"/>
</g>
<!-- node164&#45;&gt;node66 -->
<g id="edge140" class="edge"><title>node164&#45;&gt;node66</title>
<path fill="none" stroke="black" d="M1167.54,-575.947C1188.29,-530.493 1249.53,-411.301 1341.73,-360 1407.93,-323.164 1605.42,-332.209 1680.73,-324 1721.47,-319.559 1768,-314.341 1800.52,-310.67"/>
<polygon fill="black" stroke="black" points="1801.02,-314.136 1810.57,-309.535 1800.24,-307.18 1801.02,-314.136"/>
</g>
<!-- node164&#45;&gt;node55 -->
<g id="edge142" class="edge"><title>node164&#45;&gt;node55</title>
<path fill="none" stroke="black" d="M1194.84,-589.686C1244.36,-582.89 1337,-567.542 1411.73,-540 1506.52,-505.065 1514.55,-459.602 1611.73,-432 1875.54,-357.067 1957.78,-444.354 2227.73,-396 2229,-395.772 2230.29,-395.525 2231.58,-395.261"/>
<polygon fill="black" stroke="black" points="2232.62,-398.615 2241.58,-392.961 2231.05,-391.793 2232.62,-398.615"/>
</g>
<!-- node164&#45;&gt;node54 -->
<g id="edge144" class="edge"><title>node164&#45;&gt;node54</title>
<path fill="none" stroke="black" d="M1195.05,-587.892C1232.77,-580.38 1293.51,-565.397 1340.73,-540 1362.68,-528.193 1364.47,-519.821 1383.73,-504 1395.52,-494.309 1408.58,-483.75 1420.01,-474.56"/>
<polygon fill="black" stroke="black" points="1422.4,-477.132 1428,-468.142 1418.01,-471.673 1422.4,-477.132"/>
</g>
<!-- node164&#45;&gt;node64 -->
<g id="edge152" class="edge"><title>node164&#45;&gt;node64</title>
<path fill="none" stroke="black" d="M1194.55,-575.831C1212.75,-566.337 1235.19,-554.629 1254.49,-544.559"/>
<polygon fill="black" stroke="black" points="1256.15,-547.642 1263.39,-539.913 1252.91,-541.436 1256.15,-547.642"/>
</g>
<!-- node164&#45;&gt;node150 -->
<g id="edge134" class="edge"><title>node164&#45;&gt;node150</title>
<path fill="none" stroke="black" d="M1194.94,-591.999C1376.26,-581.695 2203.44,-534.688 2389.5,-524.116"/>
<polygon fill="black" stroke="black" points="2389.81,-527.604 2399.6,-523.542 2389.41,-520.615 2389.81,-527.604"/>
</g>
<!-- node150&#45;&gt;node151 -->
<g id="edge136" class="edge"><title>node150&#45;&gt;node151</title>
<path fill="none" stroke="black" d="M2428.59,-503.837C2431.23,-476.55 2435.73,-423.338 2435.73,-378 2435.73,-378 2435.73,-378 2435.73,-234 2435.73,-119.247 2305.39,-170.436 2193.73,-144 2026.44,-104.395 1820.27,-93.728 1737.11,-90.9454"/>
<polygon fill="black" stroke="black" points="1737,-87.4404 1726.9,-90.6232 1736.78,-94.4369 1737,-87.4404"/>
</g>
</g>
</svg>
