<?xml version="1.0" encoding="UTF-8" standalone="no"?>
<!DOCTYPE svg PUBLIC "-//W3C//DTD SVG 1.1//EN"
 "http://www.w3.org/Graphics/SVG/1.1/DTD/svg11.dtd">
<!-- Generated by graphviz version 2.26.3 (20100126.1600)
 -->
<!-- Title: GG Pages: 1 -->
<svg width="3744pt" height="692pt"
 viewBox="0.00 0.00 3744.00 692.00" xmlns="http://www.w3.org/2000/svg" xmlns:xlink="http://www.w3.org/1999/xlink">
<g id="graph1" class="graph" transform="scale(1 1) rotate(0) translate(4 688)">
<title>GG</title>
<polygon fill="white" stroke="white" points="-4,5 -4,-688 3741,-688 3741,5 -4,5"/>
<!-- node112 -->
<g id="node1" class="node"><title>node112</title>
<polygon fill="none" stroke="black" points="1969,-684 1901,-684 1901,-648 1969,-648 1969,-684"/>
<text text-anchor="middle" x="1935" y="-662.7" font-family="Times Roman,serif" font-size="12.00">EclDirect</text>
</g>
<!-- node151 -->
<g id="node2" class="node"><title>node151</title>
<polygon fill="none" stroke="black" points="2508,-108 2454,-108 2454,-72 2508,-72 2508,-108"/>
<text text-anchor="middle" x="2481" y="-86.7" font-family="Times Roman,serif" font-size="12.00">jlib</text>
</g>
<!-- node112&#45;&gt;node151 -->
<g id="edge2" class="edge"><title>node112&#45;&gt;node151</title>
<path fill="none" stroke="black" d="M1900.96,-665.638C1704.21,-663.418 710.962,-650.447 408,-612 223.785,-588.622 0,-707.693 0,-522 0,-522 0,-522 0,-234 0,-118.414 130.467,-165.688 244,-144 468.401,-101.134 2169.18,-91.451 2443.65,-90.1622"/>
<polygon fill="black" stroke="black" points="2443.9,-93.6611 2453.88,-90.1149 2443.87,-86.6612 2443.9,-93.6611"/>
</g>
<!-- node160 -->
<g id="node12" class="node"><title>node160</title>
<polygon fill="none" stroke="black" points="391,-540 337,-540 337,-504 391,-504 391,-540"/>
<text text-anchor="middle" x="364" y="-518.7" font-family="Times Roman,serif" font-size="12.00">xmllib</text>
</g>
<!-- node112&#45;&gt;node160 -->
<g id="edge12" class="edge"><title>node112&#45;&gt;node160</title>
<path fill="none" stroke="black" d="M1900.75,-665.415C1685.87,-661.66 530.683,-640.213 462,-612 429.601,-598.691 401.201,-569.574 383.43,-548.044"/>
<polygon fill="black" stroke="black" points="386.138,-545.827 377.153,-540.213 380.676,-550.205 386.138,-545.827"/>
</g>
<!-- node110 -->
<g id="node21" class="node"><title>node110</title>
<polygon fill="none" stroke="black" points="533,-612 471,-612 471,-576 533,-576 533,-612"/>
<text text-anchor="middle" x="502" y="-590.7" font-family="Times Roman,serif" font-size="12.00">esphttp</text>
</g>
<!-- node112&#45;&gt;node110 -->
<g id="edge22" class="edge"><title>node112&#45;&gt;node110</title>
<path fill="none" stroke="black" d="M1900.99,-664.291C1708.22,-654.606 753.965,-606.66 543.233,-596.072"/>
<polygon fill="black" stroke="black" points="543.367,-592.574 533.204,-595.568 543.016,-599.565 543.367,-592.574"/>
</g>
<!-- node155 -->
<g id="node28" class="node"><title>node155</title>
<polygon fill="none" stroke="black" points="1041,-612 949,-612 949,-576 1041,-576 1041,-612"/>
<text text-anchor="middle" x="995" y="-590.7" font-family="Times Roman,serif" font-size="12.00">LdapSecurity</text>
</g>
<!-- node112&#45;&gt;node155 -->
<g id="edge34" class="edge"><title>node112&#45;&gt;node155</title>
<path fill="none" stroke="black" d="M1900.99,-663.395C1760.77,-652.655 1226.66,-611.744 1051.21,-598.306"/>
<polygon fill="black" stroke="black" points="1051.4,-594.81 1041.16,-597.536 1050.86,-601.789 1051.4,-594.81"/>
</g>
<!-- node153 -->
<g id="node35" class="node"><title>node153</title>
<polygon fill="none" stroke="black" points="1660,-180 1606,-180 1606,-144 1660,-144 1660,-180"/>
<text text-anchor="middle" x="1633" y="-158.7" font-family="Times Roman,serif" font-size="12.00">mp</text>
</g>
<!-- node112&#45;&gt;node153 -->
<g id="edge42" class="edge"><title>node112&#45;&gt;node153</title>
<path fill="none" stroke="black" d="M1900.82,-664.518C1785.44,-659.272 1414.95,-640.359 1370,-612 1330.55,-587.11 1316,-568.648 1316,-522 1316,-522 1316,-522 1316,-306 1316,-253.068 1348.59,-243.19 1394,-216 1427.74,-195.799 1537.42,-176.609 1595.74,-167.508"/>
<polygon fill="black" stroke="black" points="1596.31,-170.961 1605.66,-165.98 1595.25,-164.043 1596.31,-170.961"/>
</g>
<!-- node149 -->
<g id="node38" class="node"><title>node149</title>
<polygon fill="none" stroke="black" points="1457,-252 1403,-252 1403,-216 1457,-216 1457,-252"/>
<text text-anchor="middle" x="1430" y="-230.7" font-family="Times Roman,serif" font-size="12.00">hrpc</text>
</g>
<!-- node112&#45;&gt;node149 -->
<g id="edge46" class="edge"><title>node112&#45;&gt;node149</title>
<path fill="none" stroke="black" d="M1900.9,-665.485C1801.83,-663.501 1515.85,-654.172 1434,-612 1386.43,-587.488 1354,-575.518 1354,-522 1354,-522 1354,-522 1354,-378 1354,-332.656 1383.84,-287.6 1406.12,-260.273"/>
<polygon fill="black" stroke="black" points="1409,-262.289 1412.75,-252.381 1403.64,-257.786 1409,-262.289"/>
</g>
<!-- node59 -->
<g id="node42" class="node"><title>node59</title>
<polygon fill="none" stroke="black" points="2320,-252 2262,-252 2262,-216 2320,-216 2320,-252"/>
<text text-anchor="middle" x="2291" y="-230.7" font-family="Times Roman,serif" font-size="12.00">remote</text>
</g>
<!-- node112&#45;&gt;node59 -->
<g id="edge52" class="edge"><title>node112&#45;&gt;node59</title>
<path fill="none" stroke="black" d="M1900.62,-664.337C1781.26,-657.64 1392,-627.698 1392,-522 1392,-522 1392,-522 1392,-450 1392,-345.31 1467.25,-330.326 1563,-288 1626.19,-260.069 2109.86,-240.543 2251.9,-235.367"/>
<polygon fill="black" stroke="black" points="2252.04,-238.864 2261.91,-235.006 2251.79,-231.869 2252.04,-238.864"/>
</g>
<!-- node66 -->
<g id="node46" class="node"><title>node66</title>
<polygon fill="none" stroke="black" points="1634,-324 1572,-324 1572,-288 1634,-288 1634,-324"/>
<text text-anchor="middle" x="1603" y="-302.7" font-family="Times Roman,serif" font-size="12.00">dalibase</text>
</g>
<!-- node112&#45;&gt;node66 -->
<g id="edge58" class="edge"><title>node112&#45;&gt;node66</title>
<path fill="none" stroke="black" d="M1904.91,-647.851C1852,-615.25 1740.05,-543.135 1657,-468 1625.47,-439.473 1608.96,-435.804 1594,-396 1586.53,-376.124 1589.46,-352.136 1593.89,-333.925"/>
<polygon fill="black" stroke="black" points="1597.29,-334.773 1596.53,-324.206 1590.53,-332.941 1597.29,-334.773"/>
</g>
<!-- node55 -->
<g id="node52" class="node"><title>node55</title>
<polygon fill="none" stroke="black" points="2488,-396 2398,-396 2398,-360 2488,-360 2488,-396"/>
<text text-anchor="middle" x="2443" y="-374.7" font-family="Times Roman,serif" font-size="12.00">environment</text>
</g>
<!-- node112&#45;&gt;node55 -->
<g id="edge68" class="edge"><title>node112&#45;&gt;node55</title>
<path fill="none" stroke="black" d="M1969.01,-649.496C1990.17,-639.062 2017.87,-625.115 2042,-612 2177.15,-538.55 2333.64,-444.571 2404.55,-401.488"/>
<polygon fill="black" stroke="black" points="2406.45,-404.432 2413.17,-396.245 2402.81,-398.451 2406.45,-404.432"/>
</g>
<!-- node54 -->
<g id="node58" class="node"><title>node54</title>
<polygon fill="none" stroke="black" points="2248,-468 2182,-468 2182,-432 2248,-432 2248,-468"/>
<text text-anchor="middle" x="2215" y="-446.7" font-family="Times Roman,serif" font-size="12.00">dllserver</text>
</g>
<!-- node112&#45;&gt;node54 -->
<g id="edge78" class="edge"><title>node112&#45;&gt;node54</title>
<path fill="none" stroke="black" d="M1958.39,-647.955C2008.52,-609.282 2126.37,-518.37 2183.22,-474.514"/>
<polygon fill="black" stroke="black" points="2185.7,-477.024 2191.48,-468.145 2181.42,-471.482 2185.7,-477.024"/>
</g>
<!-- node146 -->
<g id="node65" class="node"><title>node146</title>
<polygon fill="none" stroke="black" points="2714,-396 2660,-396 2660,-360 2714,-360 2714,-396"/>
<text text-anchor="middle" x="2687" y="-374.7" font-family="Times Roman,serif" font-size="12.00">eclrtl</text>
</g>
<!-- node112&#45;&gt;node146 -->
<g id="edge116" class="edge"><title>node112&#45;&gt;node146</title>
<path fill="none" stroke="black" d="M1969,-664.496C2086.56,-659.074 2471.18,-639.391 2519,-612 2561.96,-587.395 2638.95,-460.897 2671.64,-404.82"/>
<polygon fill="black" stroke="black" points="2674.69,-406.546 2676.68,-396.139 2668.63,-403.034 2674.69,-406.546"/>
</g>
<!-- node147 -->
<g id="node76" class="node"><title>node147</title>
<polygon fill="none" stroke="black" points="3521,-324 3467,-324 3467,-288 3521,-288 3521,-324"/>
<text text-anchor="middle" x="3494" y="-302.7" font-family="Times Roman,serif" font-size="12.00">nbcd</text>
</g>
<!-- node112&#45;&gt;node147 -->
<g id="edge114" class="edge"><title>node112&#45;&gt;node147</title>
<path fill="none" stroke="black" d="M1969.1,-665.429C2131.04,-662.552 2823.3,-648.313 3036,-612 3257.23,-574.231 3331.6,-589.965 3520,-468 3566.46,-437.922 3609.03,-408.298 3582,-360 3570.99,-340.33 3549.56,-326.954 3530.61,-318.435"/>
<polygon fill="black" stroke="black" points="3531.85,-315.161 3521.28,-314.527 3529.15,-321.618 3531.85,-315.161"/>
</g>
<!-- node53 -->
<g id="node88" class="node"><title>node53</title>
<polygon fill="none" stroke="black" points="2946,-468 2886,-468 2886,-432 2946,-432 2946,-468"/>
<text text-anchor="middle" x="2916" y="-446.7" font-family="Times Roman,serif" font-size="12.00">deftype</text>
</g>
<!-- node112&#45;&gt;node53 -->
<g id="edge118" class="edge"><title>node112&#45;&gt;node53</title>
<path fill="none" stroke="black" d="M1969.35,-664.268C2091.64,-657.96 2505.48,-635.355 2636,-612 2751.08,-591.407 2805.75,-622.078 2889,-540 2905.44,-523.788 2911.96,-497.986 2914.5,-478.157"/>
<polygon fill="black" stroke="black" points="2917.99,-478.437 2915.51,-468.135 2911.02,-477.73 2917.99,-478.437"/>
</g>
<!-- node64 -->
<g id="node93" class="node"><title>node64</title>
<polygon fill="none" stroke="black" points="2695,-540 2627,-540 2627,-504 2695,-504 2695,-540"/>
<text text-anchor="middle" x="2661" y="-518.7" font-family="Times Roman,serif" font-size="12.00">workunit</text>
</g>
<!-- node112&#45;&gt;node64 -->
<g id="edge126" class="edge"><title>node112&#45;&gt;node64</title>
<path fill="none" stroke="black" d="M1969.14,-665.055C2098.16,-661.242 2551.43,-645.553 2606,-612 2628.89,-597.924 2643.61,-570.409 2652.01,-549.49"/>
<polygon fill="black" stroke="black" points="2655.28,-550.718 2655.53,-540.126 2648.73,-548.255 2655.28,-550.718"/>
</g>
<!-- node150 -->
<g id="node101" class="node"><title>node150</title>
<polygon fill="none" stroke="black" points="3070,-540 3016,-540 3016,-504 3070,-504 3070,-540"/>
<text text-anchor="middle" x="3043" y="-518.7" font-family="Times Roman,serif" font-size="12.00">jhtree</text>
</g>
<!-- node112&#45;&gt;node150 -->
<g id="edge140" class="edge"><title>node112&#45;&gt;node150</title>
<path fill="none" stroke="black" d="M1969.22,-665.684C2136.7,-663.937 2865.62,-653.96 2957,-612 2986.52,-598.446 3011.02,-569.787 3026.22,-548.43"/>
<polygon fill="black" stroke="black" points="3029.18,-550.3 3031.96,-540.077 3023.41,-546.335 3029.18,-550.3"/>
</g>
<!-- node99 -->
<g id="node104" class="node"><title>node99</title>
<polygon fill="none" stroke="black" points="2998,-540 2944,-540 2944,-504 2998,-504 2998,-540"/>
<text text-anchor="middle" x="2971" y="-518.7" font-family="Times Roman,serif" font-size="12.00">hql</text>
</g>
<!-- node112&#45;&gt;node99 -->
<g id="edge144" class="edge"><title>node112&#45;&gt;node99</title>
<path fill="none" stroke="black" d="M1969.13,-665.136C2139.3,-660.704 2889.47,-639.652 2930,-612 2950.63,-597.926 2961.05,-570.798 2966.2,-549.989"/>
<polygon fill="black" stroke="black" points="2969.65,-550.596 2968.39,-540.076 2962.82,-549.088 2969.65,-550.596"/>
</g>
<!-- node56 -->
<g id="node110" class="node"><title>node56</title>
<polygon fill="none" stroke="black" points="2510,-612 2446,-612 2446,-576 2510,-576 2510,-612"/>
<text text-anchor="middle" x="2478" y="-590.7" font-family="Times Roman,serif" font-size="12.00">fileview2</text>
</g>
<!-- node112&#45;&gt;node56 -->
<g id="edge154" class="edge"><title>node112&#45;&gt;node56</title>
<path fill="none" stroke="black" d="M1969.18,-661.674C2040.16,-652.663 2208.7,-631.127 2350,-612 2378.6,-608.128 2410.78,-603.603 2435.71,-600.058"/>
<polygon fill="black" stroke="black" points="2436.52,-603.479 2445.92,-598.604 2435.53,-596.549 2436.52,-603.479"/>
</g>
<!-- node156 -->
<g id="node130" class="node"><title>node156</title>
<polygon fill="none" stroke="black" points="3146,-468 3052,-468 3052,-432 3146,-432 3146,-468"/>
<text text-anchor="middle" x="3099" y="-446.7" font-family="Times Roman,serif" font-size="12.00">securesocket</text>
</g>
<!-- node112&#45;&gt;node156 -->
<g id="edge200" class="edge"><title>node112&#45;&gt;node156</title>
<path fill="none" stroke="black" d="M1969.2,-665.542C2139.95,-663.084 2895.89,-650.112 2993,-612 3039.4,-593.788 3053.11,-582.596 3079,-540 3090.38,-521.277 3095.31,-496.842 3097.43,-478.158"/>
<polygon fill="black" stroke="black" points="3100.92,-478.459 3098.37,-468.176 3093.95,-477.807 3100.92,-478.459"/>
</g>
<!-- node152 -->
<g id="node4" class="node"><title>node152</title>
<polygon fill="none" stroke="black" points="2359,-36 2319.06,-18 2359,-3.55271e-15 2398.94,-18 2359,-36"/>
<text text-anchor="middle" x="2359" y="-14.7" font-family="Times Roman,serif" font-size="12.00">lzma</text>
</g>
<!-- node151&#45;&gt;node152 -->
<g id="edge4" class="edge"><title>node151&#45;&gt;node152</title>
<path fill="none" stroke="black" d="M2453.92,-74.0209C2433.47,-61.9494 2405.55,-45.4743 2385.29,-33.5172"/>
<polygon fill="black" stroke="black" points="2386.97,-30.4417 2376.58,-28.3733 2383.41,-36.4701 2386.97,-30.4417"/>
</g>
<!-- node187 -->
<g id="node6" class="node"><title>node187</title>
<ellipse fill="none" stroke="black" cx="2444" cy="-18" rx="27" ry="18"/>
<text text-anchor="middle" x="2444" y="-14.7" font-family="Times Roman,serif" font-size="12.00">dl</text>
</g>
<!-- node151&#45;&gt;node187 -->
<g id="edge6" class="edge"><title>node151&#45;&gt;node187</title>
<path fill="none" stroke="black" d="M2471.66,-71.8314C2467.41,-63.5451 2462.28,-53.5727 2457.61,-44.4748"/>
<polygon fill="black" stroke="black" points="2460.63,-42.7123 2452.95,-35.4177 2454.41,-45.9118 2460.63,-42.7123"/>
</g>
<!-- node179 -->
<g id="node8" class="node"><title>node179</title>
<ellipse fill="none" stroke="black" cx="2519" cy="-18" rx="30.0465" ry="18"/>
<text text-anchor="middle" x="2519" y="-14.7" font-family="Times Roman,serif" font-size="12.00">crypt</text>
</g>
<!-- node151&#45;&gt;node179 -->
<g id="edge8" class="edge"><title>node151&#45;&gt;node179</title>
<path fill="none" stroke="black" d="M2490.59,-71.8314C2494.96,-63.5451 2500.23,-53.5727 2505.03,-44.4748"/>
<polygon fill="black" stroke="black" points="2508.24,-45.8952 2509.81,-35.4177 2502.04,-42.6279 2508.24,-45.8952"/>
</g>
<!-- node188 -->
<g id="node10" class="node"><title>node188</title>
<ellipse fill="none" stroke="black" cx="2594" cy="-18" rx="27" ry="18"/>
<text text-anchor="middle" x="2594" y="-14.7" font-family="Times Roman,serif" font-size="12.00">rt</text>
</g>
<!-- node151&#45;&gt;node188 -->
<g id="edge10" class="edge"><title>node151&#45;&gt;node188</title>
<path fill="none" stroke="black" d="M2508.07,-72.7542C2525.41,-61.7009 2547.9,-47.375 2565.52,-36.1494"/>
<polygon fill="black" stroke="black" points="2567.68,-38.9209 2574.23,-30.5955 2563.92,-33.0174 2567.68,-38.9209"/>
</g>
<!-- node160&#45;&gt;node151 -->
<g id="edge20" class="edge"><title>node160&#45;&gt;node151</title>
<path fill="none" stroke="black" d="M336.835,-515.495C312.196,-508.152 276.793,-493.728 257,-468 232.073,-435.597 238,-418.882 238,-378 238,-378 238,-378 238,-234 238,-44.8337 466.224,-166.891 654,-144 1018.53,-99.5626 2217.32,-91.3374 2443.88,-90.1686"/>
<polygon fill="black" stroke="black" points="2443.94,-93.6684 2453.92,-90.1181 2443.91,-86.6685 2443.94,-93.6684"/>
</g>
<!-- node180 -->
<g id="node14" class="node"><title>node180</title>
<ellipse fill="none" stroke="black" cx="351" cy="-450" rx="85.1424" ry="18"/>
<text text-anchor="middle" x="351" y="-446.7" font-family="Times Roman,serif" font-size="12.00">/usr/lib/libxalan&#45;c.so</text>
</g>
<!-- node160&#45;&gt;node180 -->
<g id="edge14" class="edge"><title>node160&#45;&gt;node180</title>
<path fill="none" stroke="black" d="M360.72,-503.831C359.329,-496.131 357.676,-486.974 356.131,-478.417"/>
<polygon fill="black" stroke="black" points="359.546,-477.632 354.325,-468.413 352.657,-478.876 359.546,-477.632"/>
</g>
<!-- node181 -->
<g id="node16" class="node"><title>node181</title>
<ellipse fill="none" stroke="black" cx="547" cy="-450" rx="93.0912" ry="18"/>
<text text-anchor="middle" x="547" y="-446.7" font-family="Times Roman,serif" font-size="12.00">/usr/lib/libxalanMsg.so</text>
</g>
<!-- node160&#45;&gt;node181 -->
<g id="edge16" class="edge"><title>node160&#45;&gt;node181</title>
<path fill="none" stroke="black" d="M391.002,-511.376C418.629,-500.506 462.218,-483.357 496.305,-469.946"/>
<polygon fill="black" stroke="black" points="497.622,-473.189 505.646,-466.27 495.059,-466.675 497.622,-473.189"/>
</g>
<!-- node182 -->
<g id="node18" class="node"><title>node182</title>
<ellipse fill="none" stroke="black" cx="119" cy="-450" rx="90.9919" ry="18"/>
<text text-anchor="middle" x="119" y="-446.7" font-family="Times Roman,serif" font-size="12.00">/usr/lib/libxerces&#45;c.so</text>
</g>
<!-- node160&#45;&gt;node182 -->
<g id="edge18" class="edge"><title>node160&#45;&gt;node182</title>
<path fill="none" stroke="black" d="M336.845,-514.02C299.235,-502.967 230.246,-482.693 179.954,-467.913"/>
<polygon fill="black" stroke="black" points="180.741,-464.496 170.16,-465.035 178.767,-471.212 180.741,-464.496"/>
</g>
<!-- node110&#45;&gt;node151 -->
<g id="edge30" class="edge"><title>node110&#45;&gt;node151</title>
<path fill="none" stroke="black" d="M533.181,-576.027C567.185,-554.728 620.547,-515.998 649,-468 669.847,-432.833 668,-418.882 668,-378 668,-378 668,-378 668,-234 668,-171.475 295.915,-250.829 922,-144 1076.15,-117.698 2221.16,-94.9004 2443.62,-90.6935"/>
<polygon fill="black" stroke="black" points="2443.86,-94.1896 2453.8,-90.5019 2443.73,-87.1908 2443.86,-94.1896"/>
</g>
<!-- node110&#45;&gt;node160 -->
<g id="edge32" class="edge"><title>node110&#45;&gt;node160</title>
<path fill="none" stroke="black" d="M470.686,-577.662C449.811,-566.771 422.298,-552.416 400.441,-541.012"/>
<polygon fill="black" stroke="black" points="401.94,-537.847 391.455,-536.324 398.702,-544.053 401.94,-537.847"/>
</g>
<!-- node110&#45;&gt;node180 -->
<g id="edge24" class="edge"><title>node110&#45;&gt;node180</title>
<path fill="none" stroke="black" d="M482.876,-575.762C456.067,-550.197 407.226,-503.62 377.097,-474.887"/>
<polygon fill="black" stroke="black" points="379.149,-472.008 369.497,-467.639 374.318,-477.073 379.149,-472.008"/>
</g>
<!-- node110&#45;&gt;node181 -->
<g id="edge26" class="edge"><title>node110&#45;&gt;node181</title>
<path fill="none" stroke="black" d="M507.699,-575.762C515.408,-551.093 529.231,-506.86 538.258,-477.973"/>
<polygon fill="black" stroke="black" points="541.705,-478.678 541.347,-468.09 535.023,-476.59 541.705,-478.678"/>
</g>
<!-- node110&#45;&gt;node182 -->
<g id="edge28" class="edge"><title>node110&#45;&gt;node182</title>
<path fill="none" stroke="black" d="M470.867,-585.415C435.793,-575.495 377.254,-558.19 328,-540 270.29,-518.687 205.455,-490.002 163.517,-470.799"/>
<polygon fill="black" stroke="black" points="164.956,-467.608 154.408,-466.612 162.032,-473.968 164.956,-467.608"/>
</g>
<!-- node155&#45;&gt;node151 -->
<g id="edge36" class="edge"><title>node155&#45;&gt;node151</title>
<path fill="none" stroke="black" d="M948.948,-593.006C870.57,-590.236 716.455,-579.742 683,-540 672.696,-527.76 681.558,-519.935 683,-504 688.132,-447.306 706,-434.925 706,-378 706,-378 706,-378 706,-234 706,-143.609 2187.64,-98.1859 2443.57,-91.0141"/>
<polygon fill="black" stroke="black" points="2443.93,-94.5055 2453.83,-90.7287 2443.74,-87.5082 2443.93,-94.5055"/>
</g>
<!-- node189 -->
<g id="node31" class="node"><title>node189</title>
<ellipse fill="none" stroke="black" cx="841" cy="-522" rx="148.987" ry="18"/>
<text text-anchor="middle" x="841" y="-518.7" font-family="Times Roman,serif" font-size="12.00">/usr/lib/x86_64&#45;linux&#45;gnu/libldap_r.so</text>
</g>
<!-- node155&#45;&gt;node189 -->
<g id="edge38" class="edge"><title>node155&#45;&gt;node189</title>
<path fill="none" stroke="black" d="M956.139,-575.831C935.322,-566.099 909.53,-554.04 887.637,-543.804"/>
<polygon fill="black" stroke="black" points="889.06,-540.606 878.519,-539.541 886.095,-546.947 889.06,-540.606"/>
</g>
<!-- node190 -->
<g id="node33" class="node"><title>node190</title>
<ellipse fill="none" stroke="black" cx="1148" cy="-522" rx="139.888" ry="18"/>
<text text-anchor="middle" x="1148" y="-518.7" font-family="Times Roman,serif" font-size="12.00">/usr/lib/x86_64&#45;linux&#45;gnu/liblber.so</text>
</g>
<!-- node155&#45;&gt;node190 -->
<g id="edge40" class="edge"><title>node155&#45;&gt;node190</title>
<path fill="none" stroke="black" d="M1033.61,-575.831C1054.37,-566.062 1080.11,-553.95 1101.91,-543.689"/>
<polygon fill="black" stroke="black" points="1103.43,-546.843 1110.99,-539.418 1100.45,-540.509 1103.43,-546.843"/>
</g>
<!-- node153&#45;&gt;node151 -->
<g id="edge44" class="edge"><title>node153&#45;&gt;node151</title>
<path fill="none" stroke="black" d="M1660.25,-159.686C1784.85,-149.107 2300.31,-105.342 2443.79,-93.1596"/>
<polygon fill="black" stroke="black" points="2444.18,-96.639 2453.85,-92.3054 2443.59,-89.6641 2444.18,-96.639"/>
</g>
<!-- node149&#45;&gt;node151 -->
<g id="edge48" class="edge"><title>node149&#45;&gt;node151</title>
<path fill="none" stroke="black" d="M1455.09,-215.928C1486.52,-194.408 1542.84,-159.437 1597,-144 1759.83,-97.59 2296.77,-91.0668 2443.6,-90.1499"/>
<polygon fill="black" stroke="black" points="2443.9,-93.6484 2453.88,-90.0911 2443.86,-86.6485 2443.9,-93.6484"/>
</g>
<!-- node149&#45;&gt;node153 -->
<g id="edge50" class="edge"><title>node149&#45;&gt;node153</title>
<path fill="none" stroke="black" d="M1457.2,-221.641C1461.78,-219.682 1466.5,-217.733 1471,-216 1513.37,-199.677 1563.03,-183.557 1596.09,-173.24"/>
<polygon fill="black" stroke="black" points="1597.27,-176.536 1605.79,-170.23 1595.2,-169.851 1597.27,-176.536"/>
</g>
<!-- node59&#45;&gt;node151 -->
<g id="edge54" class="edge"><title>node59&#45;&gt;node151</title>
<path fill="none" stroke="black" d="M2315.06,-215.762C2349.04,-190.011 2411.15,-142.942 2448.99,-114.264"/>
<polygon fill="black" stroke="black" points="2451.28,-116.919 2457.13,-108.09 2447.05,-111.34 2451.28,-116.919"/>
</g>
<!-- node59&#45;&gt;node153 -->
<g id="edge56" class="edge"><title>node59&#45;&gt;node153</title>
<path fill="none" stroke="black" d="M2261.88,-230.813C2155.65,-219.189 1789.02,-179.073 1670.37,-166.089"/>
<polygon fill="black" stroke="black" points="1670.64,-162.598 1660.32,-164.989 1669.88,-169.556 1670.64,-162.598"/>
</g>
<!-- node66&#45;&gt;node151 -->
<g id="edge60" class="edge"><title>node66&#45;&gt;node151</title>
<path fill="none" stroke="black" d="M1634.25,-298.312C1768.79,-265.213 2298.43,-134.914 2443.88,-99.133"/>
<polygon fill="black" stroke="black" points="2444.8,-102.51 2453.67,-96.7228 2443.13,-95.7131 2444.8,-102.51"/>
</g>
<!-- node66&#45;&gt;node153 -->
<g id="edge62" class="edge"><title>node66&#45;&gt;node153</title>
<path fill="none" stroke="black" d="M1606.8,-287.762C1611.94,-263.093 1621.15,-218.86 1627.17,-189.973"/>
<polygon fill="black" stroke="black" points="1630.62,-190.593 1629.23,-180.09 1623.77,-189.166 1630.62,-190.593"/>
</g>
<!-- node66&#45;&gt;node149 -->
<g id="edge64" class="edge"><title>node66&#45;&gt;node149</title>
<path fill="none" stroke="black" d="M1571.67,-292.961C1542.15,-280.675 1497.91,-262.264 1466.74,-249.291"/>
<polygon fill="black" stroke="black" points="1467.69,-245.896 1457.11,-245.285 1465,-252.358 1467.69,-245.896"/>
</g>
<!-- node66&#45;&gt;node59 -->
<g id="edge66" class="edge"><title>node66&#45;&gt;node59</title>
<path fill="none" stroke="black" d="M1634.35,-302.719C1746.48,-290.984 2127.57,-251.104 2251.62,-238.121"/>
<polygon fill="black" stroke="black" points="2252.22,-241.578 2261.8,-237.056 2251.49,-234.616 2252.22,-241.578"/>
</g>
<!-- node55&#45;&gt;node151 -->
<g id="edge70" class="edge"><title>node55&#45;&gt;node151</title>
<path fill="none" stroke="black" d="M2443.92,-359.963C2446.12,-320.528 2452.65,-223.784 2467,-144 2468.52,-135.555 2470.66,-126.488 2472.82,-118.241"/>
<polygon fill="black" stroke="black" points="2476.26,-118.909 2475.51,-108.341 2469.51,-117.074 2476.26,-118.909"/>
</g>
<!-- node55&#45;&gt;node153 -->
<g id="edge72" class="edge"><title>node55&#45;&gt;node153</title>
<path fill="none" stroke="black" d="M2436.38,-359.904C2422.55,-325.021 2386.98,-249.007 2329,-216 2271.57,-183.309 1806.85,-167.126 1670.48,-163.051"/>
<polygon fill="black" stroke="black" points="1670.24,-159.542 1660.14,-162.746 1670.03,-166.539 1670.24,-159.542"/>
</g>
<!-- node55&#45;&gt;node59 -->
<g id="edge74" class="edge"><title>node55&#45;&gt;node59</title>
<path fill="none" stroke="black" d="M2405.07,-359.956C2387.99,-350.699 2368.28,-338.345 2353,-324 2333.51,-305.694 2316.69,-280.266 2305.5,-261.107"/>
<polygon fill="black" stroke="black" points="2308.46,-259.229 2300.48,-252.263 2302.37,-262.687 2308.46,-259.229"/>
</g>
<!-- node55&#45;&gt;node66 -->
<g id="edge76" class="edge"><title>node55&#45;&gt;node66</title>
<path fill="none" stroke="black" d="M2397.84,-363.089C2393.2,-361.899 2388.53,-360.836 2384,-360 2239.9,-333.395 1784.44,-313.297 1644.38,-307.62"/>
<polygon fill="black" stroke="black" points="1644.22,-304.111 1634.09,-307.206 1643.94,-311.105 1644.22,-304.111"/>
</g>
<!-- node54&#45;&gt;node151 -->
<g id="edge82" class="edge"><title>node54&#45;&gt;node151</title>
<path fill="none" stroke="black" d="M2248.05,-448.748C2315.59,-445.421 2465.72,-433.843 2497,-396 2514.45,-374.892 2493.47,-189.738 2484.6,-118.117"/>
<polygon fill="black" stroke="black" points="2488.05,-117.51 2483.34,-108.022 2481.11,-118.38 2488.05,-117.51"/>
</g>
<!-- node54&#45;&gt;node153 -->
<g id="edge84" class="edge"><title>node54&#45;&gt;node153</title>
<path fill="none" stroke="black" d="M2181.66,-448.94C2070.03,-445.085 1714.26,-430.194 1677,-396 1647.23,-368.684 1637.27,-246.659 1634.22,-190.48"/>
<polygon fill="black" stroke="black" points="1637.7,-189.98 1633.7,-180.169 1630.71,-190.333 1637.7,-189.98"/>
</g>
<!-- node54&#45;&gt;node149 -->
<g id="edge86" class="edge"><title>node54&#45;&gt;node149</title>
<path fill="none" stroke="black" d="M2181.98,-449.729C2071.62,-448.41 1716.71,-440.709 1613,-396 1542.72,-365.703 1480.64,-297.686 1450.08,-260.137"/>
<polygon fill="black" stroke="black" points="1452.68,-257.786 1443.7,-252.169 1447.22,-262.162 1452.68,-257.786"/>
</g>
<!-- node54&#45;&gt;node59 -->
<g id="edge104" class="edge"><title>node54&#45;&gt;node59</title>
<path fill="none" stroke="black" d="M2248.13,-441.376C2270.75,-433.569 2299.07,-419.583 2313,-396 2326.08,-373.857 2309.62,-301.88 2298.88,-261.722"/>
<polygon fill="black" stroke="black" points="2302.24,-260.738 2296.23,-252.012 2295.49,-262.581 2302.24,-260.738"/>
</g>
<!-- node54&#45;&gt;node66 -->
<g id="edge106" class="edge"><title>node54&#45;&gt;node66</title>
<path fill="none" stroke="black" d="M2181.95,-448.788C2066.81,-444.308 1687.95,-427.299 1644,-396 1623.78,-381.601 1613.32,-354.761 1608.05,-334.125"/>
<polygon fill="black" stroke="black" points="1611.44,-333.254 1605.8,-324.286 1604.62,-334.815 1611.44,-333.254"/>
</g>
<!-- node54&#45;&gt;node55 -->
<g id="edge108" class="edge"><title>node54&#45;&gt;node55</title>
<path fill="none" stroke="black" d="M2248.15,-439.531C2284.78,-427.964 2344.35,-409.152 2388,-395.37"/>
<polygon fill="black" stroke="black" points="2389.13,-398.683 2397.61,-392.334 2387.02,-392.008 2389.13,-398.683"/>
</g>
<!-- node176 -->
<g id="node60" class="node"><title>node176</title>
<ellipse fill="none" stroke="black" cx="1817" cy="-378" rx="130.789" ry="18"/>
<text text-anchor="middle" x="1817" y="-374.7" font-family="Times Roman,serif" font-size="12.00">/usr/lib/x86_64&#45;linux&#45;gnu/libz.so</text>
</g>
<!-- node54&#45;&gt;node176 -->
<g id="edge80" class="edge"><title>node54&#45;&gt;node176</title>
<path fill="none" stroke="black" d="M2181.75,-443.985C2121.76,-433.132 1993.54,-409.936 1906.27,-394.149"/>
<polygon fill="black" stroke="black" points="1906.83,-390.694 1896.37,-392.358 1905.59,-397.583 1906.83,-390.694"/>
</g>
<!-- node54&#45;&gt;node146 -->
<g id="edge88" class="edge"><title>node54&#45;&gt;node146</title>
<path fill="none" stroke="black" d="M2248.19,-444.937C2333.57,-431.913 2560.38,-397.315 2649.91,-383.658"/>
<polygon fill="black" stroke="black" points="2650.52,-387.105 2659.88,-382.137 2649.46,-380.185 2650.52,-387.105"/>
</g>
<!-- node177 -->
<g id="node82" class="node"><title>node177</title>
<ellipse fill="none" stroke="black" cx="2037" cy="-378" rx="70.8437" ry="18"/>
<text text-anchor="middle" x="2037" y="-374.7" font-family="Times Roman,serif" font-size="12.00">/usr/lib/libbfd.so</text>
</g>
<!-- node54&#45;&gt;node177 -->
<g id="edge110" class="edge"><title>node54&#45;&gt;node177</title>
<path fill="none" stroke="black" d="M2181.94,-436.626C2154.54,-425.544 2115.25,-409.651 2084.48,-397.207"/>
<polygon fill="black" stroke="black" points="2085.41,-393.804 2074.82,-393.299 2082.78,-400.293 2085.41,-393.804"/>
</g>
<!-- node178 -->
<g id="node84" class="node"><title>node178</title>
<ellipse fill="none" stroke="black" cx="2215" cy="-378" rx="89.0421" ry="18"/>
<text text-anchor="middle" x="2215" y="-374.7" font-family="Times Roman,serif" font-size="12.00">/usr/lib/libiberty_pic.a</text>
</g>
<!-- node54&#45;&gt;node178 -->
<g id="edge112" class="edge"><title>node54&#45;&gt;node178</title>
<path fill="none" stroke="black" d="M2215,-431.831C2215,-424.131 2215,-414.974 2215,-406.417"/>
<polygon fill="black" stroke="black" points="2218.5,-406.413 2215,-396.413 2211.5,-406.413 2218.5,-406.413"/>
</g>
<!-- node146&#45;&gt;node151 -->
<g id="edge98" class="edge"><title>node146&#45;&gt;node151</title>
<path fill="none" stroke="black" d="M2714.36,-364.548C2718.83,-362.769 2723.48,-361.163 2728,-360 2814,-337.862 3066.1,-389.562 3126,-324 3136.79,-312.188 3135.51,-300.867 3126,-288 3050.83,-186.296 2643.58,-115.295 2517.94,-95.5592"/>
<polygon fill="black" stroke="black" points="2518.44,-92.0955 2508.02,-94.0168 2517.36,-99.0123 2518.44,-92.0955"/>
</g>
<!-- node186 -->
<g id="node67" class="node"><title>node186</title>
<ellipse fill="none" stroke="black" cx="3292" cy="-306" rx="118.939" ry="18"/>
<text text-anchor="middle" x="3292" y="-302.7" font-family="Times Roman,serif" font-size="12.00">/usr/lib/libboost_regex&#45;mt.so</text>
</g>
<!-- node146&#45;&gt;node186 -->
<g id="edge90" class="edge"><title>node146&#45;&gt;node186</title>
<path fill="none" stroke="black" d="M2714.35,-364.52C2718.83,-362.745 2723.48,-361.147 2728,-360 2914.32,-312.721 2967.92,-344.897 3159,-324 3170.67,-322.724 3182.9,-321.252 3195.02,-319.712"/>
<polygon fill="black" stroke="black" points="3195.68,-323.155 3205.15,-318.405 3194.79,-316.213 3195.68,-323.155"/>
</g>
<!-- node183 -->
<g id="node69" class="node"><title>node183</title>
<ellipse fill="none" stroke="black" cx="2663" cy="-306" rx="77.9931" ry="18"/>
<text text-anchor="middle" x="2663" y="-302.7" font-family="Times Roman,serif" font-size="12.00">/usr/lib/libicuuc.so</text>
</g>
<!-- node146&#45;&gt;node183 -->
<g id="edge92" class="edge"><title>node146&#45;&gt;node183</title>
<path fill="none" stroke="black" d="M2680.94,-359.831C2678.35,-352.046 2675.26,-342.773 2672.38,-334.135"/>
<polygon fill="black" stroke="black" points="2675.62,-332.793 2669.14,-324.413 2668.98,-335.007 2675.62,-332.793"/>
</g>
<!-- node184 -->
<g id="node71" class="node"><title>node184</title>
<ellipse fill="none" stroke="black" cx="2844" cy="-306" rx="85.1424" ry="18"/>
<text text-anchor="middle" x="2844" y="-302.7" font-family="Times Roman,serif" font-size="12.00">/usr/lib/libicui18n.so</text>
</g>
<!-- node146&#45;&gt;node184 -->
<g id="edge94" class="edge"><title>node146&#45;&gt;node184</title>
<path fill="none" stroke="black" d="M2714.35,-365.459C2737.61,-354.791 2771.49,-339.255 2798.78,-326.739"/>
<polygon fill="black" stroke="black" points="2800.5,-329.801 2808.13,-322.451 2797.58,-323.438 2800.5,-329.801"/>
</g>
<!-- node185 -->
<g id="node73" class="node"><title>node185</title>
<ellipse fill="none" stroke="black" cx="3032" cy="-306" rx="85.1424" ry="18"/>
<text text-anchor="middle" x="3032" y="-302.7" font-family="Times Roman,serif" font-size="12.00">/usr/lib/libicudata.so</text>
</g>
<!-- node146&#45;&gt;node185 -->
<g id="edge96" class="edge"><title>node146&#45;&gt;node185</title>
<path fill="none" stroke="black" d="M2714.44,-364.862C2718.91,-363.043 2723.53,-361.342 2728,-360 2818.69,-332.765 2844.83,-340.906 2938,-324 2944.97,-322.736 2952.22,-321.393 2959.47,-320.034"/>
<polygon fill="black" stroke="black" points="2960.15,-323.467 2969.33,-318.175 2958.86,-316.588 2960.15,-323.467"/>
</g>
<!-- node146&#45;&gt;node147 -->
<g id="edge100" class="edge"><title>node146&#45;&gt;node147</title>
<path fill="none" stroke="black" d="M2714.21,-370.604C2729.34,-366.794 2748.59,-362.445 2766,-360 3054.28,-319.52 3132.02,-366.581 3420,-324 3432.14,-322.205 3445.2,-319.346 3456.93,-316.43"/>
<polygon fill="black" stroke="black" points="3458.02,-319.763 3466.82,-313.878 3456.27,-312.985 3458.02,-319.763"/>
</g>
<!-- node147&#45;&gt;node151 -->
<g id="edge102" class="edge"><title>node147&#45;&gt;node151</title>
<path fill="none" stroke="black" d="M3495.62,-287.865C3497.57,-253.602 3496.21,-179.607 3453,-144 3416.29,-113.75 2692.24,-94.9385 2518.32,-90.8452"/>
<polygon fill="black" stroke="black" points="2518.21,-87.3418 2508.13,-90.6075 2518.05,-94.3399 2518.21,-87.3418"/>
</g>
<!-- node53&#45;&gt;node151 -->
<g id="edge120" class="edge"><title>node53&#45;&gt;node151</title>
<path fill="none" stroke="black" d="M2917.87,-431.642C2921.1,-410.522 2929.79,-376.624 2953,-360 3057.45,-285.194 3442.03,-417.629 3530,-324 3586.85,-263.489 3546.94,-193.118 3480,-144 3440.5,-115.019 2694.53,-95.1746 2518.15,-90.8755"/>
<polygon fill="black" stroke="black" points="2518.15,-87.3745 2508.07,-90.6315 2517.98,-94.3724 2518.15,-87.3745"/>
</g>
<!-- node53&#45;&gt;node146 -->
<g id="edge124" class="edge"><title>node53&#45;&gt;node146</title>
<path fill="none" stroke="black" d="M2885.59,-440.439C2843.85,-427.316 2768.89,-403.747 2723.97,-389.622"/>
<polygon fill="black" stroke="black" points="2724.9,-386.249 2714.31,-386.588 2722.8,-392.926 2724.9,-386.249"/>
</g>
<!-- node53&#45;&gt;node147 -->
<g id="edge122" class="edge"><title>node53&#45;&gt;node147</title>
<path fill="none" stroke="black" d="M2910.49,-431.703C2905.6,-411.289 2901.74,-378.681 2920,-360 2961.49,-317.548 3395.35,-338.142 3453,-324 3454.27,-323.687 3455.56,-323.338 3456.85,-322.958"/>
<polygon fill="black" stroke="black" points="3458.37,-326.133 3466.67,-319.543 3456.07,-319.521 3458.37,-326.133"/>
</g>
<!-- node64&#45;&gt;node151 -->
<g id="edge128" class="edge"><title>node64&#45;&gt;node151</title>
<path fill="none" stroke="black" d="M2670.89,-503.955C2693.22,-463.514 2746.72,-368.484 2761,-360 2824.04,-322.539 3369.58,-377.249 3420,-324 3431,-312.382 3429.82,-300.63 3420,-288 3306.01,-141.445 2678.76,-99.9976 2518.36,-91.7258"/>
<polygon fill="black" stroke="black" points="2518.22,-88.2143 2508.06,-91.2073 2517.87,-95.2055 2518.22,-88.2143"/>
</g>
<!-- node64&#45;&gt;node66 -->
<g id="edge130" class="edge"><title>node64&#45;&gt;node66</title>
<path fill="none" stroke="black" d="M2626.61,-506.182C2574.95,-482.4 2474.3,-435.96 2389,-396 2355.15,-380.145 2349.13,-369.578 2313,-360 2185.32,-326.15 1776.01,-311.184 1644.27,-307.163"/>
<polygon fill="black" stroke="black" points="1644.29,-303.662 1634.19,-306.86 1644.08,-310.659 1644.29,-303.662"/>
</g>
<!-- node64&#45;&gt;node54 -->
<g id="edge132" class="edge"><title>node64&#45;&gt;node54</title>
<path fill="none" stroke="black" d="M2626.74,-516.47C2546.49,-503.515 2346.46,-471.222 2258.11,-456.96"/>
<polygon fill="black" stroke="black" points="2258.59,-453.491 2248.16,-455.353 2257.47,-460.402 2258.59,-453.491"/>
</g>
<!-- node64&#45;&gt;node146 -->
<g id="edge136" class="edge"><title>node64&#45;&gt;node146</title>
<path fill="none" stroke="black" d="M2664.29,-503.762C2668.75,-479.093 2676.73,-434.86 2681.95,-405.973"/>
<polygon fill="black" stroke="black" points="2685.4,-406.552 2683.73,-396.09 2678.51,-405.309 2685.4,-406.552"/>
</g>
<!-- node64&#45;&gt;node147 -->
<g id="edge134" class="edge"><title>node64&#45;&gt;node147</title>
<path fill="none" stroke="black" d="M2682.51,-503.774C2694.04,-493.649 2708.25,-480.586 2720,-468 2761.87,-423.148 2751.49,-388.168 2806,-360 2933.93,-293.893 3312.95,-357.479 3453,-324 3454.28,-323.695 3455.56,-323.352 3456.85,-322.977"/>
<polygon fill="black" stroke="black" points="3458.36,-326.158 3466.68,-319.59 3456.08,-319.54 3458.36,-326.158"/>
</g>
<!-- node64&#45;&gt;node53 -->
<g id="edge138" class="edge"><title>node64&#45;&gt;node53</title>
<path fill="none" stroke="black" d="M2695.13,-512.364C2741.98,-499.136 2826.06,-475.394 2875.87,-461.33"/>
<polygon fill="black" stroke="black" points="2876.98,-464.654 2885.65,-458.568 2875.08,-457.917 2876.98,-464.654"/>
</g>
<!-- node150&#45;&gt;node151 -->
<g id="edge142" class="edge"><title>node150&#45;&gt;node151</title>
<path fill="none" stroke="black" d="M3070.15,-521.294C3169.1,-518.432 3509.93,-505.975 3611,-468 3675.08,-443.922 3736,-446.457 3736,-378 3736,-378 3736,-378 3736,-234 3736,-176.799 3696.45,-166.822 3644,-144 3538.83,-98.2404 2705.97,-91.1745 2518.42,-90.1604"/>
<polygon fill="black" stroke="black" points="2518.25,-86.6596 2508.24,-90.108 2518.22,-93.6595 2518.25,-86.6596"/>
</g>
<!-- node99&#45;&gt;node151 -->
<g id="edge146" class="edge"><title>node99&#45;&gt;node151</title>
<path fill="none" stroke="black" d="M2998.07,-507.08C3001.02,-505.875 3004.03,-504.811 3007,-504 3227.47,-443.729 3299.66,-528.765 3520,-468 3605.46,-444.432 3698,-466.649 3698,-378 3698,-378 3698,-378 3698,-234 3698,-170.488 3646.33,-166.673 3587,-144 3485.43,-105.183 2699.56,-92.8001 2518.24,-90.4458"/>
<polygon fill="black" stroke="black" points="2518.18,-86.9448 2508.13,-90.3169 2518.09,-93.9443 2518.18,-86.9448"/>
</g>
<!-- node99&#45;&gt;node146 -->
<g id="edge150" class="edge"><title>node99&#45;&gt;node146</title>
<path fill="none" stroke="black" d="M2973.26,-503.802C2974.69,-483.478 2973.52,-450.954 2955,-432 2923.42,-399.686 2790.57,-385.568 2724.55,-380.455"/>
<polygon fill="black" stroke="black" points="2724.41,-376.935 2714.18,-379.683 2723.89,-383.915 2724.41,-376.935"/>
</g>
<!-- node99&#45;&gt;node147 -->
<g id="edge148" class="edge"><title>node99&#45;&gt;node147</title>
<path fill="none" stroke="black" d="M2998.19,-507.447C3001.11,-506.169 3004.09,-504.989 3007,-504 3246.18,-422.764 3404.25,-590.85 3565,-396 3575.18,-383.658 3572.11,-374.335 3565,-360 3557.49,-344.862 3543.49,-332.82 3529.89,-323.983"/>
<polygon fill="black" stroke="black" points="3531.45,-320.835 3521.08,-318.639 3527.82,-326.819 3531.45,-320.835"/>
</g>
<!-- node99&#45;&gt;node53 -->
<g id="edge152" class="edge"><title>node99&#45;&gt;node53</title>
<path fill="none" stroke="black" d="M2957.12,-503.831C2950.79,-495.539 2943.16,-485.557 2936.21,-476.453"/>
<polygon fill="black" stroke="black" points="2938.92,-474.235 2930.07,-468.413 2933.35,-478.485 2938.92,-474.235"/>
</g>
<!-- node56&#45;&gt;node151 -->
<g id="edge156" class="edge"><title>node56&#45;&gt;node151</title>
<path fill="none" stroke="black" d="M2482.31,-575.852C2490.3,-541.165 2507.13,-462.941 2513,-396 2519.53,-321.539 2528.15,-258.316 2503,-144 2501.06,-135.188 2497.81,-125.967 2494.39,-117.69"/>
<polygon fill="black" stroke="black" points="2497.58,-116.249 2490.36,-108.487 2491.16,-119.052 2497.58,-116.249"/>
</g>
<!-- node56&#45;&gt;node153 -->
<g id="edge158" class="edge"><title>node56&#45;&gt;node153</title>
<path fill="none" stroke="black" d="M2445.72,-592.193C2336.07,-585.893 1978.54,-563.973 1866,-540 1769.91,-519.531 1738.53,-522.813 1657,-468 1582.1,-417.648 1540.36,-375.366 1563,-288 1572.62,-250.892 1595.79,-213.077 1612.85,-188.689"/>
<polygon fill="black" stroke="black" points="1615.85,-190.507 1618.82,-180.337 1610.16,-186.435 1615.85,-190.507"/>
</g>
<!-- node56&#45;&gt;node149 -->
<g id="edge160" class="edge"><title>node56&#45;&gt;node149</title>
<path fill="none" stroke="black" d="M2445.96,-593.653C2289.9,-591.768 1613.62,-581.261 1530,-540 1428.64,-489.982 1425.02,-328.016 1427.97,-262.198"/>
<polygon fill="black" stroke="black" points="1431.47,-262.308 1428.51,-252.135 1424.48,-261.934 1431.47,-262.308"/>
</g>
<!-- node56&#45;&gt;node59 -->
<g id="edge162" class="edge"><title>node56&#45;&gt;node59</title>
<path fill="none" stroke="black" d="M2471.33,-575.76C2461.15,-544.962 2444.86,-481.199 2464,-432 2471.87,-411.771 2489.13,-416.229 2497,-396 2502.8,-381.088 2504.82,-373.957 2497,-360 2461.33,-296.365 2378.97,-261.023 2329.88,-244.912"/>
<polygon fill="black" stroke="black" points="2330.82,-241.54 2320.23,-241.853 2328.71,-248.212 2330.82,-241.54"/>
</g>
<!-- node56&#45;&gt;node66 -->
<g id="edge170" class="edge"><title>node56&#45;&gt;node66</title>
<path fill="none" stroke="black" d="M2445.74,-591.489C2302.69,-579.666 1727.71,-524.637 1613,-396 1598.28,-379.489 1596.72,-353.938 1598.3,-334.273"/>
<polygon fill="black" stroke="black" points="1601.78,-334.651 1599.4,-324.327 1594.82,-333.883 1601.78,-334.651"/>
</g>
<!-- node56&#45;&gt;node55 -->
<g id="edge172" class="edge"><title>node56&#45;&gt;node55</title>
<path fill="none" stroke="black" d="M2453.42,-575.777C2442.85,-566.402 2431.65,-554.002 2426,-540 2408.08,-495.552 2421.33,-438.959 2432.34,-405.779"/>
<polygon fill="black" stroke="black" points="2435.67,-406.868 2435.65,-396.273 2429.06,-404.568 2435.67,-406.868"/>
</g>
<!-- node56&#45;&gt;node54 -->
<g id="edge174" class="edge"><title>node56&#45;&gt;node54</title>
<path fill="none" stroke="black" d="M2445.75,-576.343C2398.26,-550.342 2309.49,-501.735 2256.98,-472.983"/>
<polygon fill="black" stroke="black" points="2258.38,-469.761 2247.93,-468.028 2255.02,-475.901 2258.38,-469.761"/>
</g>
<!-- node56&#45;&gt;node146 -->
<g id="edge166" class="edge"><title>node56&#45;&gt;node146</title>
<path fill="none" stroke="black" d="M2485.15,-575.939C2498.81,-543.405 2531.46,-474.403 2578,-432 2598.81,-413.045 2627.49,-399.19 2650.21,-390.263"/>
<polygon fill="black" stroke="black" points="2651.74,-393.427 2659.86,-386.623 2649.27,-386.877 2651.74,-393.427"/>
</g>
<!-- node56&#45;&gt;node147 -->
<g id="edge164" class="edge"><title>node56&#45;&gt;node147</title>
<path fill="none" stroke="black" d="M2510.13,-592.194C2556.03,-588.368 2641.7,-576.516 2704,-540 2797.89,-484.967 2771.71,-406.723 2870,-360 2987.23,-304.271 3326.85,-354.562 3453,-324 3454.27,-323.691 3455.56,-323.345 3456.85,-322.967"/>
<polygon fill="black" stroke="black" points="3458.37,-326.145 3466.67,-319.566 3456.08,-319.53 3458.37,-326.145"/>
</g>
<!-- node56&#45;&gt;node53 -->
<g id="edge176" class="edge"><title>node56&#45;&gt;node53</title>
<path fill="none" stroke="black" d="M2510.19,-592.861C2591.25,-589.461 2801.41,-577.2 2859,-540 2881.67,-525.359 2897.01,-498.175 2906.02,-477.5"/>
<polygon fill="black" stroke="black" points="2909.26,-478.822 2909.82,-468.242 2902.78,-476.16 2909.26,-478.822"/>
</g>
<!-- node56&#45;&gt;node64 -->
<g id="edge178" class="edge"><title>node56&#45;&gt;node64</title>
<path fill="none" stroke="black" d="M2510.3,-581.294C2540.09,-569.572 2584.55,-552.078 2617.47,-539.127"/>
<polygon fill="black" stroke="black" points="2618.83,-542.352 2626.85,-535.434 2616.27,-535.838 2618.83,-542.352"/>
</g>
<!-- node56&#45;&gt;node150 -->
<g id="edge168" class="edge"><title>node56&#45;&gt;node150</title>
<path fill="none" stroke="black" d="M2510.12,-592.242C2606.76,-586.723 2894.54,-568.54 3005.99,-539.568"/>
<polygon fill="black" stroke="black" points="3007.2,-542.865 3015.9,-536.823 3005.33,-536.119 3007.2,-542.865"/>
</g>
<!-- node56&#45;&gt;node99 -->
<g id="edge198" class="edge"><title>node56&#45;&gt;node99</title>
<path fill="none" stroke="black" d="M2510.1,-590.856C2579.9,-583.792 2750.54,-565.283 2892,-540 2905.66,-537.559 2920.52,-534.327 2933.63,-531.276"/>
<polygon fill="black" stroke="black" points="2934.79,-534.598 2943.71,-528.886 2933.17,-527.787 2934.79,-534.598"/>
</g>
<!-- node63 -->
<g id="node124" class="node"><title>node63</title>
<polygon fill="none" stroke="black" points="2850,-540 2774,-540 2774,-504 2850,-504 2850,-540"/>
<text text-anchor="middle" x="2812" y="-518.7" font-family="Times Roman,serif" font-size="12.00">thorhelper</text>
</g>
<!-- node56&#45;&gt;node63 -->
<g id="edge180" class="edge"><title>node56&#45;&gt;node63</title>
<path fill="none" stroke="black" d="M2510.06,-589.403C2562.73,-581.506 2670.67,-563.881 2760,-540 2761.41,-539.622 2762.84,-539.225 2764.28,-538.813"/>
<polygon fill="black" stroke="black" points="2765.31,-542.16 2773.86,-535.903 2763.27,-535.462 2765.31,-542.16"/>
</g>
<!-- node63&#45;&gt;node151 -->
<g id="edge182" class="edge"><title>node63&#45;&gt;node151</title>
<path fill="none" stroke="black" d="M2782,-503.837C2766.13,-493.835 2746.55,-480.867 2730,-468 2711.5,-453.624 2587.64,-344.328 2576,-324 2535.12,-252.627 2572.47,-216.162 2533,-144 2527.25,-133.49 2518.92,-123.558 2510.59,-115.146"/>
<polygon fill="black" stroke="black" points="2512.98,-112.586 2503.35,-108.168 2508.13,-117.627 2512.98,-112.586"/>
</g>
<!-- node63&#45;&gt;node146 -->
<g id="edge186" class="edge"><title>node63&#45;&gt;node146</title>
<path fill="none" stroke="black" d="M2796.17,-503.762C2774.19,-478.444 2734.32,-432.518 2709.33,-403.725"/>
<polygon fill="black" stroke="black" points="2711.9,-401.347 2702.7,-396.09 2706.62,-405.936 2711.9,-401.347"/>
</g>
<!-- node63&#45;&gt;node147 -->
<g id="edge184" class="edge"><title>node63&#45;&gt;node147</title>
<path fill="none" stroke="black" d="M2819.5,-503.738C2835.77,-465.073 2875.02,-377.083 2902,-360 3005.67,-294.356 3333.8,-353.104 3453,-324 3454.27,-323.689 3455.56,-323.341 3456.85,-322.961"/>
<polygon fill="black" stroke="black" points="3458.37,-326.137 3466.67,-319.552 3456.07,-319.525 3458.37,-326.137"/>
</g>
<!-- node63&#45;&gt;node53 -->
<g id="edge188" class="edge"><title>node63&#45;&gt;node53</title>
<path fill="none" stroke="black" d="M2838.24,-503.831C2851.3,-494.793 2867.25,-483.748 2881.3,-474.02"/>
<polygon fill="black" stroke="black" points="2883.54,-476.733 2889.76,-468.163 2879.55,-470.977 2883.54,-476.733"/>
</g>
<!-- node63&#45;&gt;node156 -->
<g id="edge190" class="edge"><title>node63&#45;&gt;node156</title>
<path fill="none" stroke="black" d="M2850.11,-512.439C2899.16,-500.134 2984.83,-478.643 3041.73,-464.367"/>
<polygon fill="black" stroke="black" points="3042.81,-467.705 3051.66,-461.877 3041.11,-460.916 3042.81,-467.705"/>
</g>
<!-- node156&#45;&gt;node151 -->
<g id="edge192" class="edge"><title>node156&#45;&gt;node151</title>
<path fill="none" stroke="black" d="M3146.32,-448.293C3249.5,-443.967 3491.39,-430.373 3565,-396 3617.7,-371.392 3660,-364.161 3660,-306 3660,-306 3660,-306 3660,-234 3660,-157.394 3586.17,-166.699 3513,-144 3416.6,-114.092 2692.21,-95.0376 2518.4,-90.8661"/>
<polygon fill="black" stroke="black" points="2518.3,-87.3628 2508.22,-90.6237 2518.14,-94.3608 2518.3,-87.3628"/>
</g>
<!-- node191 -->
<g id="node133" class="node"><title>node191</title>
<ellipse fill="none" stroke="black" cx="3099" cy="-378" rx="137.138" ry="18"/>
<text text-anchor="middle" x="3099" y="-374.7" font-family="Times Roman,serif" font-size="12.00">/usr/lib/x86_64&#45;linux&#45;gnu/libssl.so</text>
</g>
<!-- node156&#45;&gt;node191 -->
<g id="edge194" class="edge"><title>node156&#45;&gt;node191</title>
<path fill="none" stroke="black" d="M3099,-431.831C3099,-424.131 3099,-414.974 3099,-406.417"/>
<polygon fill="black" stroke="black" points="3102.5,-406.413 3099,-396.413 3095.5,-406.413 3102.5,-406.413"/>
</g>
<!-- node192 -->
<g id="node135" class="node"><title>node192</title>
<ellipse fill="none" stroke="black" cx="3405" cy="-378" rx="150.937" ry="18"/>
<text text-anchor="middle" x="3405" y="-374.7" font-family="Times Roman,serif" font-size="12.00">/usr/lib/x86_64&#45;linux&#45;gnu/libcrypto.so</text>
</g>
<!-- node156&#45;&gt;node192 -->
<g id="edge196" class="edge"><title>node156&#45;&gt;node192</title>
<path fill="none" stroke="black" d="M3146.14,-438.908C3194.14,-427.614 3269.4,-409.905 3326.43,-396.487"/>
<polygon fill="black" stroke="black" points="3327.56,-399.817 3336.49,-394.119 3325.96,-393.003 3327.56,-399.817"/>
</g>
</g>
</svg>
