<?xml version="1.0" encoding="UTF-8" standalone="no"?>
<!DOCTYPE svg PUBLIC "-//W3C//DTD SVG 1.1//EN"
 "http://www.w3.org/Graphics/SVG/1.1/DTD/svg11.dtd">
<!-- Generated by graphviz version 2.26.3 (20100126.1600)
 -->
<!-- Title: GG Pages: 1 -->
<svg width="809pt" height="260pt"
 viewBox="0.00 0.00 809.00 260.00" xmlns="http://www.w3.org/2000/svg" xmlns:xlink="http://www.w3.org/1999/xlink">
<g id="graph1" class="graph" transform="scale(1 1) rotate(0) translate(4 256)">
<title>GG</title>
<polygon fill="white" stroke="white" points="-4,5 -4,-256 806,-256 806,5 -4,5"/>
<!-- node128 -->
<g id="node1" class="node"><title>node128</title>
<polygon fill="none" stroke="black" points="303.111,-239.562 253,-252 202.889,-239.562 202.935,-219.438 303.065,-219.438 303.111,-239.562"/>
<text text-anchor="middle" x="253" y="-230.7" font-family="Times Roman,serif" font-size="12.00">httptest</text>
</g>
<!-- node151 -->
<g id="node2" class="node"><title>node151</title>
<polygon fill="none" stroke="black" points="189,-108 135,-108 135,-72 189,-72 189,-108"/>
<text text-anchor="middle" x="162" y="-86.7" font-family="Times Roman,serif" font-size="12.00">jlib</text>
</g>
<!-- node128&#45;&gt;node151 -->
<g id="edge2" class="edge"><title>node128&#45;&gt;node151</title>
<path fill="none" stroke="black" d="M243.774,-219.4C228.622,-195.425 198.244,-147.352 179.081,-117.029"/>
<polygon fill="black" stroke="black" points="181.824,-114.818 173.523,-108.234 175.907,-118.558 181.824,-114.818"/>
</g>
<!-- node156 -->
<g id="node12" class="node"><title>node156</title>
<polygon fill="none" stroke="black" points="364,-180 270,-180 270,-144 364,-144 364,-180"/>
<text text-anchor="middle" x="317" y="-158.7" font-family="Times Roman,serif" font-size="12.00">securesocket</text>
</g>
<!-- node128&#45;&gt;node156 -->
<g id="edge12" class="edge"><title>node128&#45;&gt;node156</title>
<path fill="none" stroke="black" d="M265.951,-219.43C274.063,-210.304 284.743,-198.289 294.237,-187.609"/>
<polygon fill="black" stroke="black" points="296.859,-189.927 300.886,-180.128 291.627,-185.277 296.859,-189.927"/>
</g>
<!-- node152 -->
<g id="node4" class="node"><title>node152</title>
<polygon fill="none" stroke="black" points="40,-36 0.0563759,-18 40,-3.55271e-15 79.9436,-18 40,-36"/>
<text text-anchor="middle" x="40" y="-14.7" font-family="Times Roman,serif" font-size="12.00">lzma</text>
</g>
<!-- node151&#45;&gt;node152 -->
<g id="edge4" class="edge"><title>node151&#45;&gt;node152</title>
<path fill="none" stroke="black" d="M134.924,-74.0209C114.47,-61.9494 86.5536,-45.4743 66.293,-33.5172"/>
<polygon fill="black" stroke="black" points="67.968,-30.4417 57.577,-28.3733 64.4102,-36.4701 67.968,-30.4417"/>
</g>
<!-- node187 -->
<g id="node6" class="node"><title>node187</title>
<ellipse fill="none" stroke="black" cx="125" cy="-18" rx="27" ry="18"/>
<text text-anchor="middle" x="125" y="-14.7" font-family="Times Roman,serif" font-size="12.00">dl</text>
</g>
<!-- node151&#45;&gt;node187 -->
<g id="edge6" class="edge"><title>node151&#45;&gt;node187</title>
<path fill="none" stroke="black" d="M152.663,-71.8314C148.405,-63.5451 143.28,-53.5727 138.605,-44.4748"/>
<polygon fill="black" stroke="black" points="141.635,-42.7123 133.951,-35.4177 135.408,-45.9118 141.635,-42.7123"/>
</g>
<!-- node179 -->
<g id="node8" class="node"><title>node179</title>
<ellipse fill="none" stroke="black" cx="200" cy="-18" rx="30.0465" ry="18"/>
<text text-anchor="middle" x="200" y="-14.7" font-family="Times Roman,serif" font-size="12.00">crypt</text>
</g>
<!-- node151&#45;&gt;node179 -->
<g id="edge8" class="edge"><title>node151&#45;&gt;node179</title>
<path fill="none" stroke="black" d="M171.589,-71.8314C175.962,-63.5451 181.226,-53.5727 186.027,-44.4748"/>
<polygon fill="black" stroke="black" points="189.235,-45.8952 190.807,-35.4177 183.044,-42.6279 189.235,-45.8952"/>
</g>
<!-- node188 -->
<g id="node10" class="node"><title>node188</title>
<ellipse fill="none" stroke="black" cx="275" cy="-18" rx="27" ry="18"/>
<text text-anchor="middle" x="275" y="-14.7" font-family="Times Roman,serif" font-size="12.00">rt</text>
</g>
<!-- node151&#45;&gt;node188 -->
<g id="edge10" class="edge"><title>node151&#45;&gt;node188</title>
<path fill="none" stroke="black" d="M189.066,-72.7542C206.414,-61.7009 228.898,-47.375 246.516,-36.1494"/>
<polygon fill="black" stroke="black" points="248.679,-38.9209 255.232,-30.5955 244.918,-33.0174 248.679,-38.9209"/>
</g>
<!-- node156&#45;&gt;node151 -->
<g id="edge14" class="edge"><title>node156&#45;&gt;node151</title>
<path fill="none" stroke="black" d="M276.068,-143.883C255.104,-134.5 229.007,-122.662 198.301,-108.074"/>
<polygon fill="black" stroke="black" points="199.606,-104.819 189.073,-103.673 196.593,-111.137 199.606,-104.819"/>
</g>
<!-- node191 -->
<g id="node15" class="node"><title>node191</title>
<ellipse fill="none" stroke="black" cx="344" cy="-90" rx="137.138" ry="18"/>
<text text-anchor="middle" x="344" y="-86.7" font-family="Times Roman,serif" font-size="12.00">/usr/lib/x86_64&#45;linux&#45;gnu/libssl.so</text>
</g>
<!-- node156&#45;&gt;node191 -->
<g id="edge16" class="edge"><title>node156&#45;&gt;node191</title>
<path fill="none" stroke="black" d="M323.813,-143.831C326.764,-135.962 330.286,-126.571 333.555,-117.853"/>
<polygon fill="black" stroke="black" points="336.861,-119.006 337.095,-108.413 330.307,-116.548 336.861,-119.006"/>
</g>
<!-- node192 -->
<g id="node17" class="node"><title>node192</title>
<ellipse fill="none" stroke="black" cx="650" cy="-90" rx="150.937" ry="18"/>
<text text-anchor="middle" x="650" y="-86.7" font-family="Times Roman,serif" font-size="12.00">/usr/lib/x86_64&#45;linux&#45;gnu/libcrypto.so</text>
</g>
<!-- node156&#45;&gt;node192 -->
<g id="edge18" class="edge"><title>node156&#45;&gt;node192</title>
<path fill="none" stroke="black" d="M364.004,-151.837C416.589,-140.467 502.783,-121.831 566.822,-107.984"/>
<polygon fill="black" stroke="black" points="567.866,-111.34 576.901,-105.805 566.387,-104.498 567.866,-111.34"/>
</g>
</g>
</svg>
